<?xml version="1.0" encoding="UTF-8"?>
<svg id="Layer_1" data-name="Layer 1" xmlns="http://www.w3.org/2000/svg" viewBox="0 0 48 48">
  <path d="M26.21,34.79c-1.26,1.17-3.2,1.17-4.46,0l-11.42-10.58c-2.53-2.44-3.93-5.81-3.89-9.31h0c-.05-3.1,1.35-6.05,3.8-7.96h0c3.32-2.53,8.03-2,10.71,1.19l3.05,3.47,3.06-3.46c2.68-3.19,7.4-3.71,10.71-1.18h0c2.44,1.92,3.85,4.87,3.78,7.98h0c.04,3.51-1.38,6.88-3.91,9.31l-11.44,10.55Z" fill="#618fff" stroke-width="0"/>
  <path d="M10.24,9.48c3.32-2.53,8.03-3,10.71.19l3.05,3.47,3.06-3.46c2.68-3.19,7.4-2.71,10.71-.18,2.12,1.66,3.45,4.11,3.73,6.75.04-.44.06-.87.05-1.32.06-3.11-1.34-6.06-3.78-7.98-3.31-2.53-8.03-2.01-10.71,1.18l-3.06,3.46-3.05-3.47c-2.68-3.19-7.39-3.72-10.71-1.19-2.45,1.91-3.86,4.86-3.8,7.96,0,.45.01.89.06,1.34.28-2.65,1.62-5.1,3.75-6.76Z" fill="#c7dbff" stroke-width="0"/>
  <path d="M23.98,36.14c-.92,0-1.84-.33-2.56-1l-11.42-10.58c-2.62-2.52-4.09-6.05-4.04-9.67-.06-3.22,1.43-6.35,3.99-8.34,3.53-2.69,8.53-2.13,11.38,1.26l2.68,3.05,2.7-3.05c2.85-3.39,7.84-3.94,11.37-1.24,2.56,2,4.04,5.13,3.97,8.37.04,3.61-1.44,7.13-4.06,9.64l-11.45,10.56c-.72.66-1.64,1-2.56,1ZM14.97,5.82c-1.55,0-3.11.49-4.43,1.5-2.31,1.8-3.66,4.64-3.61,7.57-.04,3.38,1.32,6.64,3.74,8.98l11.41,10.57c1.07.99,2.74.99,3.81,0h0s11.44-10.55,11.44-10.55c2.42-2.32,3.79-5.58,3.75-8.95.06-2.95-1.28-5.79-3.6-7.6-3.11-2.38-7.53-1.89-10.05,1.11l-3.43,3.88-3.41-3.88c-1.45-1.73-3.53-2.63-5.62-2.63Z" fill="#1d1e1e" stroke-width="0"/>
</svg>