<?xml version="1.0" encoding="UTF-8"?>
<svg id="Layer_1" data-name="Layer 1" xmlns="http://www.w3.org/2000/svg" viewBox="0 0 48 48">
  <path d="M30.45,38.96c0,2.29.91,4.49,2.53,6.11,1.62,1.62,3.82,2.53,6.11,2.53s4.49-.91,6.11-2.53c1.62-1.62,2.53-3.82,2.53-6.11s-.91-4.49-2.53-6.11c-1.62-1.62-3.82-2.53-6.11-2.53s-4.49.91-6.11,2.53c-1.62,1.62-2.53,3.82-2.53,6.11h0Z" fill="#e6edf8" stroke-width="0"/>
  <path d="M30.62,40.64c-.25-1.25-.22-2.54.09-3.78.31-1.24.89-2.39,1.69-3.38.81-.99,1.82-1.78,2.97-2.33s2.41-.84,3.68-.84,2.53.27,3.69.81c1.16.54,2.18,1.33,2.99,2.31s1.4,2.13,1.72,3.36.36,2.52.12,3.78c-.39-1.97-1.45-3.75-3-5.02-1.55-1.27-3.5-1.97-5.51-1.96-2.01,0-3.95.72-5.49,2-1.54,1.29-2.59,3.07-2.96,5.04" fill="#fff" stroke-width="0"/>
  <path d="M43.6,37.71h-3.25v-3.25c0-.69-.56-1.26-1.26-1.26s-1.26.56-1.26,1.26v3.25h-3.25c-.69,0-1.26.56-1.26,1.26s.56,1.26,1.26,1.26h3.25v3.25c0,.69.56,1.26,1.26,1.26s1.26-.56,1.26-1.26v-3.25h3.25c.69,0,1.26-.56,1.26-1.26s-.56-1.26-1.26-1.26Z" fill="#618fff" stroke-width="0"/>
  <path d="M39.09,45.13c-.91,0-1.66-.74-1.66-1.66v-2.85h-2.85c-.91,0-1.66-.74-1.66-1.66s.74-1.66,1.66-1.66h2.85v-2.85c0-.91.74-1.66,1.66-1.66s1.66.74,1.66,1.66v2.85h2.85c.91,0,1.66.74,1.66,1.66s-.74,1.66-1.66,1.66h-2.85v2.85c0,.91-.74,1.66-1.66,1.66ZM34.59,38.11c-.47,0-.86.38-.86.86s.38.86.86.86h3.65v3.65c0,.47.38.86.86.86s.86-.38.86-.86v-3.65h3.65c.47,0,.86-.38.86-.86s-.38-.86-.86-.86h-3.65v-3.65c0-.47-.38-.86-.86-.86s-.86.38-.86.86v3.65h-3.65Z" fill="#1d1e1e" stroke-width="0"/>
  <path d="M38.96,48c-2.42,0-4.69-.94-6.39-2.65-1.71-1.71-2.65-3.98-2.65-6.39s.94-4.69,2.65-6.39c1.71-1.71,3.98-2.65,6.39-2.65s4.69.94,6.39,2.65c1.71,1.71,2.65,3.98,2.65,6.39s-.94,4.69-2.65,6.39c-1.71,1.71-3.98,2.65-6.39,2.65ZM38.96,30.71c-2.2,0-4.27.86-5.83,2.41s-2.41,3.63-2.41,5.83.86,4.27,2.41,5.83c1.56,1.56,3.63,2.41,5.83,2.41s4.27-.86,5.83-2.41c1.56-1.56,2.41-3.63,2.41-5.83s-.86-4.27-2.41-5.83c-1.55-1.56-3.63-2.41-5.83-2.41Z" fill="#1d1e1e" stroke-width="0"/>
  <path d="M20.45,4.17c0,.97.38,1.91,1.06,2.6.68.69,1.6,1.08,2.57,1.08s1.89-.39,2.57-1.08,1.06-1.62,1.06-2.6-.38-1.91-1.06-2.6c-.68-.69-1.6-1.08-2.57-1.08s-1.89.39-2.57,1.08-1.06,1.62-1.06,2.6h0Z" fill="#e6edf8" stroke-width="0"/>
  <path d="M20.52,4.89c-.1-.53-.09-1.08.04-1.61.13-.53.37-1.02.71-1.44.34-.42.77-.76,1.25-.99s1.01-.36,1.55-.36,1.06.12,1.55.34c.49.23.91.56,1.26.98.34.42.59.91.72,1.43s.15,1.07.05,1.61c-.16-.84-.61-1.59-1.26-2.13s-1.47-.84-2.32-.83c-.84,0-1.66.3-2.31.85s-1.09,1.31-1.24,2.15" fill="#fff" stroke-width="0"/>
  <path d="M24.08,8.34c-1.1,0-2.14-.43-2.92-1.22-.78-.79-1.21-1.83-1.21-2.95s.43-2.16,1.21-2.95c.78-.79,1.82-1.22,2.92-1.22s2.14.43,2.92,1.22c.78.79,1.21,1.83,1.21,2.95s-.43,2.16-1.21,2.95c-.78.79-1.82,1.22-2.92,1.22ZM24.08.99c-.84,0-1.62.33-2.22.93-.59.6-.92,1.4-.92,2.25s.34,1.66.92,2.25c.59.6,1.38.93,2.22.93s1.62-.33,2.21-.93c.59-.59.92-1.41.92-2.25s-.33-1.65-.92-2.25c-.59-.6-1.38-.93-2.21-.93Z" fill="#1d1e1e" stroke-width="0"/>
  <path d="M24.08,9.98c-3.97,0-7.8,3.22-7.8,7.2v8.4c0,.47.2.92.54,1.25s.79.52,1.26.52.92-.19,1.26-.52.53-.78.54-1.25l1.02,12.78c.05.6.32,1.16.76,1.57s1.02.64,1.63.64h1.57c.6,0,1.18-.23,1.63-.64.44-.41.72-.97.76-1.57l1.02-12.78c0,.47.2.92.54,1.25s.79.52,1.26.52.92-.19,1.26-.52.53-.78.54-1.25v-8.4c0-3.97-3.82-7.2-7.8-7.2h0Z" fill="#e6edf8" stroke-width="0"/>
  <path d="M24.08,9.98c-3.97,0-7.8,3.22-7.8,7.2l.6,3c0-3.97,1.62-7.2,7.2-7.2s7.2,3.22,7.2,7.2l.6-3c0-3.97-3.82-7.2-7.8-7.2Z" fill="#fff" stroke-width="0"/>
  <path d="M24.86,41h-1.57c-.72,0-1.4-.27-1.93-.75-.53-.49-.85-1.15-.9-1.86l-.89-11.18c-.85.76-2.24.73-3.06-.07-.42-.41-.66-.97-.67-1.56v-8.4c0-4.07,3.85-7.64,8.24-7.64,2.04,0,4.11.81,5.68,2.22,1.65,1.48,2.55,3.4,2.55,5.42v8.4c0,.6-.25,1.15-.67,1.56-.81.8-2.21.83-3.06.07l-.9,11.18c-.06.71-.38,1.37-.9,1.86-.53.49-1.21.75-1.93.75h0ZM20.32,25.57l1.02,12.75c.04.49.26.95.62,1.28.36.34.84.52,1.33.52h1.57c.49,0,.97-.18,1.33-.52s.58-.79.62-1.28l1.02-12.77v-7.78c0-.24.2-.44.44-.44s.44.2.44.44v7.79c0,.36.15.69.41.94.51.5,1.4.5,1.91,0,.26-.25.4-.59.41-.95v-8.39c0-1.76-.8-3.45-2.26-4.76-1.41-1.27-3.27-2-5.1-2-3.92,0-7.36,3.16-7.36,6.76v8.4c0,.35.15.69.41.94.51.5,1.4.5,1.91,0,.26-.25.4-.59.41-.95v-7.79c0-.24.2-.44.44-.44s.44.2.44.44v7.81Z" fill="#1d1e1e" stroke-width="0"/>
</svg>