<?xml version="1.0" encoding="UTF-8"?>
<svg id="Layer_1" data-name="Layer 1" xmlns="http://www.w3.org/2000/svg" viewBox="0 0 48 48">
  <path d="M41.51,33.82H2.69c-.28,0-.51-.23-.51-.51s.23-.51.51-.51h38.82c.28,0,.51.23.51.51s-.23.51-.51.51Z" fill="#1d1e1e" stroke-width="0"/>
  <path d="M14.04,16.91H5.82c-.24,0-.48.1-.65.27s-.27.4-.27.65v15.48h10.06v-15.48c0-.12-.02-.24-.07-.35-.05-.11-.11-.21-.2-.3s-.19-.15-.3-.2c-.11-.05-.23-.07-.35-.07h0Z" fill="#e6f1fa" stroke-width="0"/>
  <path d="M14.04,16.91H5.82c-.24,0-.48.1-.65.27s-.27.4-.27.65v1.54h10.06v-1.54c0-.24-.1-.48-.27-.65s-.4-.27-.65-.27Z" fill="#fff" stroke-width="0"/>
  <path d="M14.96,33.82H4.91c-.28,0-.51-.23-.51-.51v-15.48c0-.79.64-1.42,1.42-1.42h8.22c.78,0,1.42.64,1.42,1.42v15.48c0,.28-.23.51-.51.51h.01ZM5.41,32.81h9.05v-14.98c0-.23-.19-.41-.41-.41H5.83c-.23,0-.41.19-.41.41v14.98h-.01Z" fill="#1d1e1e" stroke-width="0"/>
  <path d="M27.32,5.61h-8.22c-.24,0-.48.1-.65.27s-.27.4-.27.65v26.6h10.05V6.53c0-.24-.1-.48-.27-.65s-.4-.27-.65-.27h.01Z" fill="#e6f1fa" stroke-width="0"/>
  <path d="M27.32,5.61h-8.22c-.24,0-.48.1-.65.27s-.27.4-.27.65v1.54h10.05v-1.54c0-.24-.1-.48-.27-.65s-.4-.27-.65-.27h.01Z" fill="#fff" stroke-width="0"/>
  <path d="M28.24,33.82h-10.05c-.28,0-.51-.23-.51-.51V6.62c0-.79.64-1.42,1.42-1.42h8.22c.78,0,1.42.64,1.42,1.42v26.69c0,.28-.23.51-.51.51h.01ZM18.69,32.81h9.04V6.62c0-.23-.19-.41-.41-.41h-8.22c-.23,0-.41.19-.41.41v26.18h0Z" fill="#1d1e1e" stroke-width="0"/>
  <path d="M40.6.5h-8.22c-.24,0-.48.1-.65.27-.17.17-.27.4-.27.65v31.89l10.05-8.08V1.42c0-.24-.1-.48-.27-.65-.17-.17-.4-.27-.65-.27h.01Z" fill="#009cde" stroke-width="0"/>
  <path d="M40.6.5h-8.22c-.24,0-.48.1-.65.27-.17.17-.27.4-.27.65v1.54h10.05v-1.54c0-.24-.1-.48-.27-.65-.17-.17-.4-.27-.65-.27h.01Z" fill="#71c5e8" stroke-width="0"/>
  <path d="M31.46,33.82c-.07,0-.15-.02-.22-.05-.18-.08-.29-.26-.29-.46V1.42c0-.78.64-1.42,1.42-1.42h8.22c.78,0,1.42.64,1.42,1.42v23.81c0,.15-.07.3-.19.39l-10.05,8.08c-.09.07-.2.11-.32.11h0ZM32.38,1.02c-.23,0-.41.19-.41.41v30.83l9.04-7.27V1.42c0-.23-.19-.41-.41-.41h-8.22ZM41.51,25.24" fill="#1d1e1e" stroke-width="0"/>
  <path d="M23.61,29.84c-.14-.04-.26-.11-.36-.22-.1-.11-.16-.24-.17-.39-.02-.14,0-.29.07-.42s.17-.23.29-.3l20.79-11.52c.13-.07.28-.1.43-.09.15.02.29.08.4.17.11.1.19.23.23.37.04.14.03.3-.03.43l-8.64,22.14c-.05.13-.14.25-.26.33s-.26.13-.4.13-.29-.04-.41-.12-.21-.19-.27-.33l-3.15-7.69c-.04-.1-.11-.2-.19-.27s-.18-.13-.29-.15l-8.04-2.09v.02Z" fill="#fff" stroke-width="0"/>
  <path d="M35.94,41c-.24,0-.47-.07-.67-.2-.21-.14-.36-.33-.46-.56l-3.15-7.69s-.14-.13-.15-.13l-8.04-2.09h0c-.24-.06-.45-.19-.61-.38-.16-.18-.26-.41-.29-.65-.03-.25.01-.49.12-.71s.28-.4.5-.52l20.79-11.52c.22-.12.48-.17.72-.15.25.03.48.13.67.29.19.17.33.39.39.63.06.24.04.5-.05.74l-8.64,22.14c-.09.23-.24.42-.44.56-.21.14-.44.22-.69.22h-.02l.02.02ZM23.74,29.35l8.04,2.09c.18.05.35.14.5.26.14.12.25.28.33.46l3.15,7.69s.04.07.08.1.07.03.12.04c.05,0,.09,0,.12-.04.03-.02.06-.06.08-.1l8.64-22.14s.02-.09,0-.13c0-.04-.03-.08-.07-.11-.03-.03-.07-.05-.12-.05-.04,0-.09,0-.13.03l-20.79,11.51s-.07.05-.09.09-.03.08-.02.13c0,.04.02.08.05.11s.07.06.11.07h0Z" fill="#1d1e1e" stroke-width="0"/>
  <path d="M32.13,32.36l3.15,7.69c.05.13.15.25.27.33s.26.12.4.12.28-.05.4-.13c.12-.08.21-.2.26-.33l8.64-22.15c.05-.14.06-.29.03-.43-.04-.14-.11-.27-.23-.37l-13.12,15c.08.07.15.17.19.27h0Z" fill="#e6f1fa" stroke-width="0"/>
  <path d="M35.95,41c-.24,0-.48-.07-.68-.21s-.36-.33-.45-.55l-3.15-7.69s-.03-.06-.06-.08c-.1-.09-.16-.21-.17-.35,0-.13.04-.27.12-.37l13.12-15.01c.09-.1.21-.16.35-.17.13-.01.27.04.37.12.19.17.32.38.38.63s.04.5-.05.74l-8.64,22.15c-.09.23-.24.42-.45.56-.2.14-.44.22-.69.22h0ZM32.58,32.13s0,.03.02.04h0l3.15,7.69s.04.07.08.1c.04.02.07.03.12.04.04,0,.08,0,.12-.04.04-.02.06-.06.08-.1l8.32-21.32-11.88,13.59h-.01Z" fill="#1d1e1e" stroke-width="0"/>
  <path d="M29.16,35.71c-.11,0-.23-.04-.33-.12-.21-.18-.24-.5-.06-.71.12-.14.23-.28.34-.42.17-.22.49-.26.71-.08.22.17.26.49.08.71-.12.15-.24.3-.36.45-.1.12-.24.18-.39.18h.01Z" fill="#009cde" stroke-width="0"/>
  <path d="M19.57,40.63c-1.09,0-2.18-.16-3.26-.48-3.61-1.08-6.4-3.78-7.17-6.92-.4-.18-.8-.4-1.2-.67-3.84-2.53-6.95-8.71-5.29-14.27.08-.27.36-.42.63-.34s.42.36.34.63c-1.53,5.12,1.34,10.81,4.87,13.14.14.09.29.19.46.28-.15-2.22.81-4.35,2.75-6.07.39-.33.86-.57,1.36-.68s1.02-.1,1.51.03c.47.12.93.35,1.31.67.39.32.69.71.91,1.17.41.92.5,1.95.26,2.91-.24.96-.79,1.84-1.56,2.46-1.51,1.26-3.31,1.65-5.17,1.17.9,2.48,3.32,4.65,6.28,5.53,3.84,1.15,7.87,0,11.07-3.1.2-.19.52-.19.71,0,.19.2.19.52,0,.71-2.58,2.51-5.66,3.83-8.8,3.83h0ZM10.02,32.49c1.36.5,3.12.62,4.83-.8.61-.49,1.04-1.17,1.22-1.92s.11-1.55-.2-2.25c-.14-.31-.36-.58-.63-.81-.27-.22-.59-.38-.92-.47-.34-.09-.69-.1-1.03-.02s-.65.23-.92.46c-2.33,2.07-2.6,4.24-2.34,5.81h-.01Z" fill="#009cde" stroke-width="0"/>
  <path d="M3.74,17.37c-.06,0-.12-.01-.18-.03-.26-.1-.39-.39-.29-.66.07-.18.15-.36.23-.54.12-.25.42-.36.67-.25.25.12.36.42.25.67-.07.16-.14.32-.21.49-.08.2-.27.32-.47.32Z" fill="#009cde" stroke-width="0"/>
</svg>