<svg width="168" height="112" viewBox="0 0 168 112" fill="none" xmlns="http://www.w3.org/2000/svg">
    <path d="M28 56a56 56 0 1 0 112 0 56 56 0 0 0-112 0z" fill="#F0F0F0"/>
    <path d="M138 56a54 54 0 1 0-54 54v2a55.999 55.999 0 0 1-39.102-15.913l-.496-.49a56 56 0 0 1-.489-78.7l.49-.495A56 56 0 1 1 84 112v-2a53.999 53.999 0 0 0 54-54z" fill="#B2B2B2"/>
    <mask id="bnpl4firxa" maskUnits="userSpaceOnUse" x="54.75" y="52.566" width="59" height="47" fill="#000">
        <path fill="#fff" d="M54.75 52.566h59v47h-59z"/>
        <path d="M110.113 53.566c1.185 0 2.146.958 2.146 2.138v1.284a26.481 26.481 0 0 1-7.798 18.76 26.667 26.667 0 0 1-18.526 7.765c0 .025.004.052.004.078v10.845c0 .09-.008.18-.02.27h6.291c1.32 0 2.39.923 2.39 2.063 0 1.14-1.07 2.065-2.39 2.065H76.27c-1.32 0-2.39-.924-2.39-2.065 0-1.14 1.07-2.064 2.39-2.064h5.399a2.16 2.16 0 0 1-.02-.27V83.592c0-.028.003-.057.004-.085a26.667 26.667 0 0 1-18.105-7.759 26.483 26.483 0 0 1-7.798-18.759v-1.284c0-1.18.96-2.137 2.145-2.138 1.184 0 2.145.958 2.145 2.138v1.284a22.216 22.216 0 0 0 6.541 15.737 22.372 22.372 0 0 0 15.791 6.517h3.264a22.375 22.375 0 0 0 15.792-6.517 22.216 22.216 0 0 0 6.541-15.737v-1.284c0-1.18.96-2.137 2.144-2.138z"/>
    </mask>
    <path d="M110.113 53.566c1.185 0 2.146.958 2.146 2.138v1.284a26.481 26.481 0 0 1-7.798 18.76 26.667 26.667 0 0 1-18.526 7.765c0 .025.004.052.004.078v10.845c0 .09-.008.18-.02.27h6.291c1.32 0 2.39.923 2.39 2.063 0 1.14-1.07 2.065-2.39 2.065H76.27c-1.32 0-2.39-.924-2.39-2.065 0-1.14 1.07-2.064 2.39-2.064h5.399a2.16 2.16 0 0 1-.02-.27V83.592c0-.028.003-.057.004-.085a26.667 26.667 0 0 1-18.105-7.759 26.483 26.483 0 0 1-7.798-18.759v-1.284c0-1.18.96-2.137 2.145-2.138 1.184 0 2.145.958 2.145 2.138v1.284a22.216 22.216 0 0 0 6.541 15.737 22.372 22.372 0 0 0 15.791 6.517h3.264a22.375 22.375 0 0 0 15.792-6.517 22.216 22.216 0 0 0 6.541-15.737v-1.284c0-1.18.96-2.137 2.144-2.138z" fill="#B2B2B2"/>
    <path d="M110.113 53.566v-.5.5zm2.146 3.422h.5-.5zm-7.798 18.76.353.353-.353-.354zm-18.526 7.765-.006-.5a.5.5 0 0 0-.494.518l.5-.018zm-.015 11.192-.496-.063a.5.5 0 0 0 .496.563v-.5zm8.68 2.064h.5-.5zm-18.33 2.065v.5-.5zm-2.39-2.065h-.5.5zm2.39-2.064v-.5.5zm5.399 0v.5a.5.5 0 0 0 .496-.563l-.496.063zm-.016-11.2.5.02a.5.5 0 0 0-.486-.519l-.014.5zm-18.105-7.758-.353.354.353-.354zM55.75 56.988h-.5.5zm2.145-3.422v-.5.5zm2.145 3.422h-.5.5zm6.541 15.737-.353.354.353-.354zm15.791 6.517v.5-.5zm19.056-6.517.353.354-.353-.354zm6.541-15.737h.5-.5zm2.144-3.422v.5c.91 0 1.646.736 1.646 1.638h1a2.642 2.642 0 0 0-2.646-2.638v.5zm2.146 2.138h-.5v1.284h1v-1.284h-.5zm0 1.284h-.5a25.981 25.981 0 0 1-7.651 18.405l.353.354.353.354a26.985 26.985 0 0 0 7.945-19.113h-.5zm-7.798 18.76-.353-.355a26.166 26.166 0 0 1-18.179 7.62l.006.5.005.5a27.167 27.167 0 0 0 18.874-7.912l-.353-.354zm-18.526 7.765-.5.018a1.009 1.009 0 0 0 .004.063v-.003h1a.814.814 0 0 0-.005-.097c0-.003 0-.002 0 0l-.5.019zm.004.078h-.5v10.845h1V83.59h-.5zm0 10.845h-.5c0 .061-.005.128-.015.206l.496.063.496.063c.012-.099.023-.212.023-.332h-.5zm-.02.27v.5h6.291v-1h-6.29v.5zm6.291 0v.5c1.115 0 1.89.766 1.89 1.564h1c0-1.483-1.365-2.565-2.89-2.565v.5zm2.39 2.063h-.5c0 .798-.775 1.565-1.89 1.565v1c1.525 0 2.89-1.082 2.89-2.565h-.5zm-2.39 2.065v-.5H76.27v1h15.94v-.5zm-15.94 0v-.5c-1.115 0-1.89-.767-1.89-1.565h-1c0 1.483 1.365 2.565 2.89 2.565v-.5zm-2.39-2.065h.5c0-.797.775-1.564 1.89-1.564v-1c-1.525 0-2.89 1.082-2.89 2.564h.5zm2.39-2.064v.5h5.399v-1h-5.4v.5zm5.399 0 .496-.063a1.66 1.66 0 0 1-.016-.206h-1c0 .12.011.233.024.332l.496-.063zm-.02-.27h.5V83.592h-1v10.845h.5zm0-10.844h.5l.001-.013a.19.19 0 0 1 0-.01l.001-.011.002-.032-.5-.02-.5-.019-.001.033c-.001.016-.003.042-.003.072h.5zm.004-.085.014-.5A26.166 26.166 0 0 1 63.9 75.393l-.353.354-.353.354a27.166 27.166 0 0 0 18.445 7.905l.013-.5zm-18.105-7.759.353-.354a25.983 25.983 0 0 1-7.651-18.405h-1a26.983 26.983 0 0 0 7.945 19.113l.353-.354zM55.75 56.988h.5v-1.284h-1v1.284h.5zm0-1.284h.5c0-.903.735-1.637 1.645-1.638v-1a2.641 2.641 0 0 0-2.645 2.638h.5zm2.145-2.138v.5c.91 0 1.645.736 1.645 1.638h1a2.642 2.642 0 0 0-2.645-2.638v.5zm2.145 2.138h-.5v1.284h1v-1.284h-.5zm0 1.284h-.5a22.716 22.716 0 0 0 6.688 16.09l.353-.353.353-.355a21.715 21.715 0 0 1-6.394-15.382h-.5zm6.541 15.737-.353.354a22.873 22.873 0 0 0 16.144 6.663v-1a21.872 21.872 0 0 1-15.438-6.372l-.353.355zm15.791 6.517v.5h3.264v-1h-3.264v.5zm3.264 0v.5a22.875 22.875 0 0 0 16.145-6.663l-.353-.354-.353-.355a21.874 21.874 0 0 1-15.44 6.372v.5zm15.792-6.517.353.354a22.716 22.716 0 0 0 6.688-16.09h-1c0 5.768-2.3 11.302-6.394 15.381l.353.355zm6.541-15.737h.5v-1.284h-1v1.284h.5zm0-1.284h.5a1.64 1.64 0 0 1 1.644-1.638v-1a2.641 2.641 0 0 0-2.644 2.638h.5z" fill="#B2B2B2" mask="url(#bnpl4firxa)"/>
    <path d="M105.277 61.797c.163-1.211.849-4.05 1.251-5.171.406-1.12.509-1.66 1.08-2.484.565-.817 1.188-1.437 1.81-1.786.626-.364 1.239-.455 1.801-.29.56.172 1.054.602 1.445 1.263.391.66 1.067 1.08 1.218 2.108.144 1.036.158 2.194.029 3.408-.129 1.213-.778 4.055-1.155 5.2.255-1.911-.096-1.842-.506-3.254-.406-1.41-1.115-2.333-1.995-2.595-.885-.271-1.89.132-2.847 1.14-.955 1-1.142-.965-1.731.836M62.728 61.797c-.163-1.21-.85-4.05-1.251-5.171-.406-1.12-.908-2.129-1.478-2.952-.566-.817-.797-1.09-1.42-1.439-.625-.364-1.238-.455-1.8-.29-.56.172-1.054.602-1.445 1.263-.39.66-1.06 1.201-1.21 2.23-.145 1.035-.159 2.194-.03 3.407.13 1.213.778 4.056 1.155 5.201-.255-1.912.096-1.843.506-3.255.406-1.41 1.115-2.332 1.995-2.594.885-.272 1.89.131 2.847 1.14.955 1 1.142-.966 1.73.835" fill="#D9D9D9"/>
    <path d="M110.036 51.492a4.139 4.139 0 0 1 4.142 4.134v1.283a28.445 28.445 0 0 1-8.375 20.149 28.625 28.625 0 0 1-18.002 8.255v6.947h4.226c2.14 0 4.389 1.555 4.389 4.063 0 2.51-2.25 4.065-4.389 4.065H76.094c-2.14 0-4.389-1.556-4.389-4.065 0-2.508 2.25-4.063 4.389-4.063h3.305v-7.012a28.622 28.622 0 0 1-17.274-8.19 28.445 28.445 0 0 1-8.375-20.149v-1.283a4.138 4.138 0 0 1 4.142-4.134 4.138 4.138 0 0 1 4.141 4.134v1.283c0 5.361 2.137 10.504 5.944 14.297a20.341 20.341 0 0 0 14.357 5.925h3.259c5.386 0 10.55-2.132 14.357-5.925a20.19 20.19 0 0 0 5.944-14.297v-1.283a4.138 4.138 0 0 1 4.142-4.134zm0 2a2.138 2.138 0 0 0-2.142 2.134v1.283a22.187 22.187 0 0 1-6.532 15.713 22.341 22.341 0 0 1-15.77 6.509h-3.258a22.34 22.34 0 0 1-15.769-6.509 22.183 22.183 0 0 1-6.532-15.713v-1.283a2.138 2.138 0 0 0-2.141-2.134 2.138 2.138 0 0 0-2.142 2.134v1.283c0 7.026 2.8 13.764 7.786 18.732A26.63 26.63 0 0 0 81.4 83.383V94.26h-5.305c-1.32 0-2.389.924-2.389 2.063 0 1.14 1.07 2.065 2.389 2.065h15.933c1.32 0 2.389-.925 2.389-2.065s-1.07-2.063-2.389-2.063h-6.226V83.398a26.632 26.632 0 0 0 18.59-7.757 26.446 26.446 0 0 0 7.787-18.732v-1.283a2.139 2.139 0 0 0-2.142-2.134z" fill="#888"/>
    <rect x="68.594" y="13.996" width="30.823" height="56.252" rx="15.411" fill="#fff"/>
    <path d="M68.594 38.08c0-8.512 6.9-15.412 15.411-15.412 8.512 0 15.412 6.9 15.412 15.411v17.808c0 8.511-6.9 15.411-15.412 15.411-8.511 0-15.411-6.9-15.411-15.411V38.079z" fill="#D9D9D9"/>
    <path d="M99.417 29.407c0-8.511-6.9-15.41-15.412-15.41-8.511 0-15.411 6.899-15.411 15.41v25.429c0 8.379 6.686 15.196 15.013 15.407l.398.005c8.378 0 15.195-6.686 15.406-15.014l.006-.398V29.407zm2 25.429c0 9.616-7.796 17.412-17.412 17.412s-17.411-7.796-17.411-17.412V29.407c0-9.616 7.795-17.41 17.41-17.41 9.617 0 17.413 7.794 17.413 17.41v25.429z" fill="#888"/>
    <path d="M100.697 32.402v2h-11.13a1 1 0 1 1 0-2h11.13zM100.697 40.719v2h-11.13a1 1 0 0 1 0-2h11.13zM100.697 49.04v2h-11.13a1 1 0 0 1 0-2h11.13z" fill="#888"/>
    <g clip-path="url(#vd88ebj84b)">
        <path d="M112.812 23.994c0 12.803 10.381 23.195 23.189 23.195 12.807 0 23.188-10.383 23.188-23.195 0-12.812-10.372-23.185-23.179-23.185-12.808 0-23.198 10.382-23.198 23.185z" fill="#F0F0F0"/>
        <path d="M158.782 28.383C156.41 15.8 144.286 7.526 131.709 9.9a23.194 23.194 0 0 0-18.482 18.482C110.818 15.8 119.058 3.65 131.644 1.24c12.586-2.412 24.738 5.826 27.147 18.408.553 2.88.553 5.854 0 8.735h-.009z" fill="#fff"/>
        <path d="M146.509 20.137h-20.3a1.844 1.844 0 0 0-1.846 1.84v12.887c0 1.016.827 1.84 1.846 1.84h20.3a1.843 1.843 0 0 0 1.845-1.84V21.978c0-1.017-.826-1.841-1.845-1.841z" fill="#B2B2B2"/>
        <path d="M145.022 20.145h-17.32c-.849-.01-2.833 0-3.331 0v1.472c0 .378.009-.46 0-.12v3.24c.009-.34.111-.68.277-.984.166-.304.415-.562.701-.755a3.941 3.941 0 0 1 2.353-.709h17.32c.849-.009 1.67.24 2.353.709a2.194 2.194 0 0 1 .978 1.74v-3.24c-.01-.34 0 .22 0-.138v-1.215c-.978 0-2.492-.01-3.341 0h.01z" fill="#fff"/>
        <path d="M126.847 19.714v-4.17c0-5.237 4.253-9.49 9.513-9.49 5.259 0 9.513 4.244 9.513 9.49v4.17h-3.811v-4.17c0-3.138-2.556-5.697-5.711-5.697-3.156 0-5.712 2.55-5.712 5.697v4.17h-3.811.019z" fill="#B2B2B2"/>
        <path d="M138.729 27.545a2.48 2.48 0 0 0-.304-1.196 2.298 2.298 0 0 0-.858-.875 2.325 2.325 0 0 0-1.181-.322 2.367 2.367 0 0 0-2.049 1.178 2.336 2.336 0 0 0-.314 1.188c0 .414.102.828.305 1.187.212.368.507.663.867.865v2.706c0 .313.12.617.351.838.221.22.526.35.83.35.305 0 .609-.12.84-.35.222-.23.351-.525.351-.838V29.57c.36-.211.655-.506.858-.856.212-.359.314-.764.314-1.187v.018h-.01z" fill="#F0F0F0"/>
        <path d="M146.52 19.226v-3.682a10.05 10.05 0 0 0-2.98-7.16 10.1 10.1 0 0 0-7.179-2.974c-2.713 0-5.26 1.059-7.179 2.973a10.05 10.05 0 0 0-2.98 7.161v3.672a2.772 2.772 0 0 0-2.768 2.762v12.886a2.772 2.772 0 0 0 2.768 2.76h20.3a2.773 2.773 0 0 0 2.768-2.76V21.978a2.771 2.771 0 0 0-2.759-2.762l.009.01zm-19.026-3.682c0-2.356.922-4.593 2.602-6.259a8.803 8.803 0 0 1 6.274-2.595c2.372 0 4.595.93 6.275 2.595a8.79 8.79 0 0 1 2.593 6.259v3.534h-2.529v-3.534c0-3.488-2.851-6.333-6.348-6.333s-6.348 2.845-6.348 6.333v3.534h-2.519v-3.534zm13.933 0v3.672h-10.141v-3.672c0-2.789 2.27-5.053 5.066-5.053a5.061 5.061 0 0 1 5.065 5.053h.01zm6.56 19.329c0 .81-.664 1.473-1.476 1.473h-20.3a1.479 1.479 0 0 1-1.476-1.473V21.987c0-.81.664-1.473 1.476-1.473h20.3c.812 0 1.476.663 1.476 1.473v12.886z" fill="#888"/>
        <path d="M137.754 25.127a2.746 2.746 0 0 0-1.384-.377c-.517 0-.969.129-1.384.377a2.758 2.758 0 0 0-1.015 1.022c-.24.423-.369.911-.369 1.4 0 .487.12.966.369 1.398.212.35.479.654.812.884v2.476c0 .432.166.828.47 1.132.286.303.702.47 1.117.47.424 0 .821-.166 1.125-.461a1.63 1.63 0 0 0 .471-1.132V29.84c.332-.24.609-.534.803-.884a2.77 2.77 0 0 0 .369-1.39c0-.478-.12-.957-.36-1.398-.24-.433-.6-.792-1.015-1.031l-.009-.01zm.304 3.397a1.94 1.94 0 0 1-.71.709.418.418 0 0 0-.212.358v2.706a.795.795 0 0 1-.222.544.782.782 0 0 1-1.089 0 .744.744 0 0 1-.221-.544v-2.706a.418.418 0 0 0-.212-.358 1.983 1.983 0 0 1-.72-.718 1.968 1.968 0 0 1-.258-.985c0-.34.092-.69.267-.985.166-.295.415-.534.72-.718.286-.175.627-.258.969-.258.313-.037.673.092.978.267a1.966 1.966 0 0 1 .969 1.703c0 .34-.093.681-.259.976v.009z" fill="#888"/>
        <path d="M136 0c13.232 0 24 10.769 24 24.005 0 13.235-10.768 24.004-24 24.004-13.232-.009-24-10.778-24-24.004C112 10.769 122.768 0 136 0zm0 1.62c-12.337 0-22.385 10.042-22.385 22.385 0 12.342 10.039 22.384 22.385 22.384 12.346 0 22.385-10.042 22.385-22.384 0-12.343-10.039-22.385-22.385-22.385z" fill="#9E9E9E"/>
    </g>
    <defs>
        <clipPath id="vd88ebj84b">
            <path fill="#fff" transform="translate(112)" d="M0 0h48v48H0z"/>
        </clipPath>
    </defs>
</svg>
