<?xml version="1.0" encoding="UTF-8"?>
<svg id="Layer_1" data-name="Layer 1" xmlns="http://www.w3.org/2000/svg" viewBox="0 0 48 48">
  <path d="M9.23,39.53c0,.26.1.49.28.68.18.18.42.27.67.27h27.63c.25,0,.49-.1.67-.27.18-.18.28-.42.28-.68V8.56L30.67.46H10.19c-.12,0-.25.02-.36.07-.12.04-.22.12-.31.21-.09.09-.16.19-.21.31-.05.11-.07.24-.07.36v38.12h-.01Z" fill="#fff" stroke-width="0"/>
  <path d="M15.3,21.69c0,1.19.23,2.38.69,3.48.46,1.1,1.13,2.1,1.97,2.95.84.84,1.85,1.51,2.95,1.97s2.29.69,3.48.69,2.38-.24,3.48-.69c1.1-.46,2.11-1.13,2.95-1.97.84-.85,1.51-1.85,1.97-2.95.46-1.1.69-2.29.69-3.48s-.23-2.38-.69-3.49c-.46-1.1-1.13-2.1-1.97-2.95-.84-.84-1.85-1.51-2.95-1.97-1.1-.45-2.29-.69-3.48-.69s-2.38.24-3.48.69c-1.1.46-2.11,1.13-2.95,1.97-.84.85-1.51,1.85-1.97,2.95-.46,1.11-.69,2.29-.69,3.49Z" fill="#618fff" stroke-width="0"/>
  <path d="M15.47,23.44c-.26-1.31-.22-2.67.11-3.97.33-1.3.94-2.51,1.79-3.55.85-1.03,1.92-1.87,3.13-2.44s2.54-.88,3.88-.88,2.67.29,3.88.86c1.21.57,2.29,1.4,3.14,2.43.86,1.03,1.47,2.24,1.81,3.54.34,1.3.38,2.66.13,3.97-.41-2.07-1.52-3.94-3.15-5.28-1.63-1.34-3.68-2.07-5.79-2.06-2.11,0-4.16.75-5.78,2.09-1.63,1.35-2.73,3.23-3.13,5.3" fill="#c7dbff" stroke-width="0"/>
  <path d="M24.4,31.28c-1.26,0-2.5-.25-3.67-.73s-2.21-1.18-3.11-2.08-1.6-1.95-2.08-3.11c-.48-1.15-.73-2.42-.73-3.67s.25-2.5.73-3.67c.48-1.17,1.18-2.21,2.08-3.11.9-.9,1.95-1.6,3.11-2.08,2.36-.96,4.99-.96,7.34,0,1.17.48,2.21,1.18,3.11,2.08.9.9,1.59,1.95,2.08,3.11.48,1.17.73,2.41.73,3.67s-.25,2.52-.73,3.67c-.48,1.17-1.18,2.21-2.08,3.11-.9.9-1.95,1.6-3.11,2.08-1.17.49-2.41.73-3.67.73ZM24.4,13.08c-1.13,0-2.24.22-3.29.65-1.04.43-1.98,1.06-2.79,1.86-.8.81-1.43,1.75-1.86,2.79-.43,1.05-.65,2.16-.65,3.3s.23,2.26.65,3.29c.43,1.05,1.06,1.99,1.87,2.8.81.8,1.75,1.43,2.79,1.86,2.1.87,4.48.87,6.59,0,1.05-.43,1.99-1.06,2.79-1.87.8-.81,1.43-1.75,1.86-2.79.43-1.03.65-2.17.65-3.29s-.22-2.25-.65-3.3c-.44-1.05-1.06-1.99-1.87-2.79-.81-.8-1.75-1.43-2.79-1.86-1.05-.43-2.16-.65-3.29-.65h0Z" fill="#1d1e1e" stroke-width="0"/>
  <path d="M27.27,20.25h-1.44v-1.43c0-.38-.15-.75-.42-1.02s-.64-.42-1.02-.42-.75.16-1.02.42c-.27.27-.42.64-.42,1.02v1.43h-1.44c-.38,0-.75.16-1.02.42-.27.27-.42.64-.42,1.02s.15.75.42,1.01c.27.27.64.42,1.02.42h1.44v1.44c0,.38.15.75.42,1.01.27.27.63.42,1.02.42s.75-.15,1.02-.42.42-.64.42-1.01v-1.44h1.44c.38,0,.75-.15,1.02-.42s.42-.64.42-1.01-.15-.75-.42-1.02-.64-.42-1.02-.42Z" fill="#fff" stroke-width="0"/>
  <path d="M24.4,26.49c-.52,0-1-.2-1.37-.57-.36-.35-.56-.85-.56-1.36v-.95h-.94c-.52,0-1.01-.2-1.37-.57-.36-.35-.56-.85-.56-1.36s.2-1,.56-1.36c.37-.36.86-.57,1.37-.57h.94v-.94c0-.51.2-1,.56-1.36.74-.73,2.01-.72,2.73,0,.37.37.57.86.57,1.37v.94h.94c.5,0,1,.2,1.36.56.37.37.57.86.57,1.37s-.21,1.01-.57,1.36c-.36.36-.84.56-1.36.56h-.94v.95c0,.51-.21,1-.57,1.36s-.84.56-1.36.56h0ZM21.53,20.75c-.25,0-.49.1-.67.28-.17.18-.27.42-.27.67s.1.49.27.66c.18.18.42.28.67.28h1.44c.27,0,.49.22.49.49v1.44c0,.25.1.49.27.66.36.36.99.35,1.33,0,.18-.18.28-.42.28-.67v-1.44c0-.27.22-.49.49-.49h1.44c.25,0,.49-.1.67-.27.18-.18.28-.42.28-.67s-.1-.49-.28-.67c-.17-.17-.42-.27-.67-.27h-1.44c-.27,0-.49-.22-.49-.49v-1.43c0-.25-.1-.49-.28-.67-.35-.34-.97-.35-1.34,0-.17.18-.27.42-.27.67v1.43c0,.27-.22.49-.49.49h-1.44.01Z" fill="#1d1e1e" stroke-width="0"/>
  <path d="M37.82,40.97H10.19c-.39,0-.75-.15-1.02-.42-.28-.29-.43-.65-.43-1.03V1.42c0-.19.04-.39.11-.56s.17-.33.31-.46c.14-.14.31-.25.48-.32.15-.07.34-.11.54-.11h20.49c.13,0,.26.05.35.14l8.1,8.1c.09.09.14.22.14.35v30.96c0,.38-.15.74-.42,1.02-.28.28-.64.42-1.03.42h0ZM10.19.95c-.06,0-.12,0-.16.03-.07.03-.12.06-.16.1-.05.05-.08.09-.1.15s-.04.12-.04.18v38.11c0,.13.05.24.14.34.08.08.19.12.32.12h27.63c.13,0,.24-.05.33-.13.09-.09.13-.2.13-.33V8.77L30.47.95H10.19Z" fill="#1d1e1e" stroke-width="0"/>
  <path d="M30.65.46v7.21c0,.24.09.47.26.63.17.17.39.27.63.27h7.21L30.65.46Z" fill="#618fff" stroke-width="0"/>
  <path d="M38.75,9.06h-7.21c-.37,0-.72-.15-.98-.41s-.4-.6-.4-.97V.46c0-.2.12-.38.3-.45.18-.07.4-.03.54.11l8.1,8.1c.14.14.18.35.11.54s-.26.3-.45.3h-.01ZM31.15,1.65v6.02c0,.1.04.21.11.28.08.08.18.12.29.12h6.02l-6.42-6.42Z" fill="#1d1e1e" stroke-width="0"/>
</svg>