<?xml version="1.0" encoding="UTF-8"?>
<svg id="Layer_1" data-name="Layer 1" xmlns="http://www.w3.org/2000/svg" viewBox="0 0 48 48">
  <rect x="3.99" y=".49" width="40.02" height="40.02" rx="5.22" ry="5.22" fill="#e6edf8" stroke-width="0"/>
  <path d="M39.7.58H9.17c-2.57,0-4.68,2.1-4.68,4.68v4.16c0-2.57,2.1-4.68,4.68-4.68h30.53c2.57,0,4.68,2.1,4.68,4.68v-4.16c0-2.57-2.1-4.68-4.68-4.68Z" fill="#fff" stroke-width="0"/>
  <path d="M39.32,41H8.68c-2.86,0-5.18-2.32-5.18-5.18V5.18C3.5,2.32,5.82,0,8.68,0h30.64c2.86,0,5.18,2.32,5.18,5.18v30.64c0,2.86-2.32,5.18-5.18,5.18ZM8.68.98c-2.32,0-4.2,1.89-4.2,4.2v30.64c0,2.32,1.89,4.2,4.2,4.2h30.64c2.32,0,4.2-1.89,4.2-4.2V5.18c0-2.32-1.89-4.2-4.2-4.2H8.68Z" fill="#1d1e1e" stroke-width="0"/>
  <path d="M39.32,41H8.68c-2.86,0-5.18-2.32-5.18-5.18V5.18C3.5,2.32,5.82,0,8.68,0h30.64c2.86,0,5.18,2.32,5.18,5.18v30.64c0,2.86-2.32,5.18-5.18,5.18ZM8.68.98c-2.32,0-4.2,1.89-4.2,4.2v30.64c0,2.32,1.89,4.2,4.2,4.2h30.64c2.32,0,4.2-1.89,4.2-4.2V5.18c0-2.32-1.89-4.2-4.2-4.2H8.68Z" fill="#1d1e1e" stroke-width="0"/>
  <path d="M15.05,14.64c-.14,0-.28-.06-.38-.15l-1.08-1.02c-.22-.21-.23-.56-.02-.79.21-.23.56-.23.79-.02l.64.61,2.49-3c.2-.24.55-.28.78-.07.24.2.28.55.07.78l-2.87,3.47c-.1.12-.24.2-.4.21h-.03.01Z" fill="#618fff" stroke-width="0"/>
  <path d="M15.05,20.65c-.14,0-.28-.06-.38-.15l-1.08-1.02c-.22-.21-.23-.56-.02-.79.21-.23.56-.23.79-.02l.64.61,2.49-3c.2-.24.55-.28.78-.07.24.2.28.55.07.78l-2.87,3.47c-.1.12-.24.2-.4.21h-.03.01Z" fill="#618fff" stroke-width="0"/>
  <path d="M33.96,12.92h-13.44c-.31,0-.56-.25-.56-.56s.25-.56.56-.56h13.44c.31,0,.56.25.56.56s-.25.56-.56.56Z" fill="#1d1e1e" stroke-width="0"/>
  <path d="M33.96,19.04h-13.44c-.31,0-.56-.25-.56-.56s.25-.56.56-.56h13.44c.31,0,.56.25.56.56s-.25.56-.56.56Z" fill="#1d1e1e" stroke-width="0"/>
  <path d="M33.96,25.19h-13.44c-.31,0-.56-.25-.56-.56s.25-.56.56-.56h13.44c.31,0,.56.25.56.56s-.25.56-.56.56Z" fill="#1d1e1e" stroke-width="0"/>
  <path d="M15.05,26.65c-.14,0-.28-.06-.38-.15l-1.08-1.02c-.22-.21-.23-.56-.02-.79.21-.23.56-.23.79-.02l.64.61,2.49-3c.2-.24.55-.28.78-.07.24.2.28.55.07.78l-2.87,3.47c-.1.12-.24.2-.4.21h-.03.01Z" fill="#618fff" stroke-width="0"/>
  <path d="M33.96,31.31h-13.44c-.31,0-.56-.25-.56-.56s.25-.56.56-.56h13.44c.31,0,.56.25.56.56s-.25.56-.56.56Z" fill="#1d1e1e" stroke-width="0"/>
</svg>