<?xml version="1.0" encoding="UTF-8"?>
<svg id="Layer_1" data-name="Layer 1" xmlns="http://www.w3.org/2000/svg" viewBox="0 0 48 48">
  <path d="M16.8,18.07v-5.12c.02-1.93.8-3.76,2.17-5.12,1.37-1.35,3.22-2.11,5.15-2.11s3.77.76,5.15,2.11c1.37,1.35,2.14,3.19,2.17,5.12v5.12h5.12v-5.12c0-3.3-1.31-6.47-3.64-8.8-2.33-2.33-5.5-3.64-8.8-3.64s-6.47,1.31-8.8,3.64c-2.33,2.33-3.64,5.49-3.64,8.8v5.12h5.12-.02Z" fill="#fff" stroke-width="0"/>
  <path d="M24.12.5c-3.29,0-6.47,1.31-8.8,3.64-2.33,2.33-3.64,5.49-3.65,8.8v2.93c0-3.3,1.31-6.47,3.64-8.8,2.33-2.33,5.5-3.64,8.8-3.64s6.47,1.31,8.8,3.64c2.33,2.33,3.64,5.49,3.64,8.8v-2.92c0-3.3-1.31-6.47-3.65-8.8-2.33-2.33-5.49-3.64-8.8-3.65h.02Z" fill="#fff" stroke-width="0"/>
  <path d="M10.91,18.07h26.55c1.12,0,2.03.91,2.03,2.03v20.41H8.74v-20.27c0-1.2.97-2.17,2.17-2.17Z" fill="#fff" stroke-width="0"/>
  <path d="M27.05,26.85c0-.51-.13-1.02-.38-1.47-.25-.45-.62-.82-1.07-1.08-.45-.26-.95-.4-1.46-.4s-1.02.13-1.47.39c-.45.26-.82.62-1.08,1.07-.26.44-.39.95-.39,1.46s.13,1.02.38,1.46c.26.45.63.82,1.08,1.07v3.33c0,.39.15.76.43,1.03.27.27.65.43,1.03.43s.76-.15,1.04-.43.43-.65.43-1.03v-3.33c.45-.26.81-.62,1.07-1.06.26-.44.39-.94.39-1.46v.02Z" fill="#009cde" stroke-width="0"/>
  <path d="M24.12,34.69c-.52,0-1.03-.21-1.39-.58-.37-.37-.58-.86-.58-1.39v-3.05c-.41-.28-.75-.66-1.01-1.09-.31-.54-.46-1.14-.46-1.73s.16-1.2.46-1.72c.29-.51.73-.95,1.26-1.26.52-.3,1.08-.47,1.72-.46.6,0,1.19.16,1.72.47.52.3.96.74,1.26,1.27.3.54.46,1.13.45,1.72,0,.61-.16,1.2-.46,1.71-.25.43-.59.8-1,1.09v3.05c0,.53-.21,1.03-.58,1.4-.38.37-.87.58-1.4.58h.01ZM24.12,24.43c-.42,0-.84.11-1.2.32-.37.22-.68.52-.89.88-.21.36-.33.78-.33,1.21s.1.84.32,1.21c.22.38.53.68.91.89.15.08.24.25.24.43v3.33c0,.26.1.49.28.67.36.36.98.36,1.35,0,.18-.18.28-.42.28-.67v-3.33c0-.18.09-.35.25-.43.38-.21.68-.51.89-.88s.32-.78.32-1.2h0c0-.42-.1-.84-.32-1.21-.21-.37-.51-.67-.88-.89-.37-.22-.82-.37-1.21-.33h-.01Z" fill="#1d1e1e" stroke-width="0"/>
  <path d="M36.55,18.2l-5.02.13c-.28,0-.61.03-.61-.25v-5.12c-.02-1.8-.74-3.49-2.01-4.76-1.29-1.27-2.99-1.97-4.79-1.97s-3.5.7-4.79,1.97c-1.28,1.27-2,2.96-2.01,4.76v5.12c0,.28-.25.12-.53.12l-5.09-.13c-.28,0-.53.29-.53.01v-5.12c0-3.4,1.38-6.75,3.79-9.16,2.45-2.45,5.71-3.79,9.17-3.79s6.75,1.38,9.17,3.79c2.41,2.41,3.79,5.76,3.79,9.16v5.12c0,.28,0,0-.29,0l-.25.12ZM31.94,17.57h4.1v-4.61c0-3.13-1.27-6.22-3.49-8.44-2.22-2.22-5.29-3.49-8.44-3.49-4.02,0-7.88,2.03-10.13,5.61-1.22,1.95-1.8,4.23-1.8,6.52v4.41h4.1v-4.61c.02-2.07.84-4.02,2.32-5.48,1.9-1.87,4.59-2.66,7.29-2.07.94.21,1.84.6,2.63,1.15,2.16,1.5,3.39,3.85,3.42,6.4v4.61h-.01Z" fill="#1d1e1e" stroke-width="0"/>
  <path d="M36.8,41H11.42c-1.75,0-3.17-1.42-3.17-3.17v-17.08c0-1.75,1.42-3.17,3.17-3.17h25.38c1.75,0,3.17,1.42,3.17,3.17v17.08c0,1.75-1.42,3.17-3.17,3.17ZM11.42,18.56c-1.21,0-2.2.99-2.2,2.2v17.08c0,1.21.99,2.2,2.2,2.2h25.38c1.21,0,2.2-.99,2.2-2.2v-17.08c0-1.21-.99-2.2-2.2-2.2H11.42Z" fill="#1d1e1e" stroke-width="0"/>
  <path d="M8.73,38.65c0,.49.19.96.55,1.31.35.35.82.54,1.31.54h27.02c.49,0,.97-.2,1.31-.54.35-.35.55-.82.55-1.31v-2.84c0,.49-.19.96-.55,1.31-.35.35-.82.54-1.31.54H10.6c-.25,0-.49-.05-.71-.14-.22-.09-.43-.23-.6-.4-.18-.17-.31-.38-.41-.6-.09-.23-.14-.47-.14-.71v2.84Z" fill="#e6f1fa" stroke-width="0"/>
  <path d="M36.8,41H11.42c-1.75,0-3.17-1.42-3.17-3.17v-17.08c0-1.75,1.42-3.17,3.17-3.17h25.38c1.75,0,3.17,1.42,3.17,3.17v17.08c0,1.75-1.42,3.17-3.17,3.17ZM11.42,18.56c-1.21,0-2.2.99-2.2,2.2v17.08c0,1.21.99,2.2,2.2,2.2h25.38c1.21,0,2.2-.99,2.2-2.2v-17.08c0-1.21-.99-2.2-2.2-2.2H11.42Z" fill="#1d1e1e" stroke-width="0"/>
  <rect x="11.7" y="15.23" width="5.1" height="2.33" fill="#e6f1fa" stroke-width="0"/>
  <rect x="31.47" y="15.23" width="5.1" height="2.33" fill="#e6f1fa" stroke-width="0"/>
  <path d="M36.53,18.2l-5.02.13c-.28,0-.61.03-.61-.25v-5.12c-.02-1.8-.74-3.49-2.01-4.76-1.29-1.27-2.99-1.97-4.79-1.97s-3.5.7-4.79,1.97c-1.28,1.27-2,2.96-2.01,4.76v5.12c0,.28-.25.12-.53.12l-5.09-.13c-.28,0-.53.29-.53.01v-5.12c0-3.4,1.38-6.75,3.79-9.16,2.45-2.45,5.71-3.79,9.17-3.79s6.75,1.38,9.17,3.79c2.41,2.41,3.79,5.76,3.79,9.16v5.12c0,.28,0,0-.29,0l-.25.12ZM31.92,17.57h4.1v-4.61c0-3.13-1.27-6.22-3.49-8.44-2.22-2.22-5.29-3.49-8.44-3.49-4.02,0-7.88,2.03-10.13,5.61-1.22,1.95-1.8,4.23-1.8,6.52v4.41h4.1v-4.61c.02-2.07.84-4.02,2.32-5.48,1.9-1.87,4.59-2.66,7.29-2.07.94.21,1.84.6,2.63,1.15,2.16,1.5,3.39,3.85,3.42,6.4v4.61h-.01Z" fill="#1d1e1e" stroke-width="0"/>
</svg>