<svg width="32" height="32" fill="none" xmlns="http://www.w3.org/2000/svg">
    <path d="M16 32c8.837 0 16-7.163 16-16S24.837 0 16 0 0 7.163 0 16s7.163 16 16 16z" fill="#DCDCDC"/>
    <path d="M16 32c8.837 0 16-7.163 16-16S24.837 0 16 0 0 7.163 0 16s7.163 16 16 16z" fill="#DCDCDC"/>
    <path d="m21.8 11.55-.62.61a.999.999 0 0 1-1.64-.66 1 1 0 0 1 .23-.67l.67-.67L17.24 7 7 17.22l3.2 3.21.62-.64a1 1 0 0 1 .67-.27.94.94 0 0 1 .66.27 1 1 0 0 1 .32.67.93.93 0 0 1-.2.64l-.71.7 3.2 3.2L25 14.75l-3.2-3.2zm-3.74-1.25a2.65 2.65 0 0 0-.27 1.3 2.67 2.67 0 0 0 .88 1.88c.397.38.905.621 1.45.69a2.619 2.619 0 0 0 1.58-.25l.82.83L19.26 18l-5.27-5.26 3.26-3.25.81.81zM14 21.69a2.89 2.89 0 0 0 .28-1.33 2.73 2.73 0 0 0-2.33-2.57 2.801 2.801 0 0 0-1.59.26l-.82-.82 3.22-3.22 5.27 5.26-3.26 3.25-.77-.83z" fill="#1E1E1E"/>
</svg>
