<svg width="16" height="8" viewBox="0 0 16 8" fill="none" xmlns="http://www.w3.org/2000/svg">
<g clip-path="url(#clip0_9525_260585)">
<path d="M12.6383 8.00003H1.50832C1.30881 8.00234 1.11078 7.97009 0.925818 7.90518C0.740854 7.84026 0.572675 7.74398 0.431127 7.62197C0.289579 7.49996 0.177507 7.35467 0.101472 7.19462C0.0254372 7.03456 -0.0130325 6.86295 -0.0116845 6.68983V1.3189C-0.0130133 1.14538 0.0253954 0.973363 0.101312 0.812829C0.177228 0.652296 0.28914 0.506446 0.430551 0.383747C0.571961 0.261048 0.740053 0.163945 0.925068 0.0980735C1.11008 0.0322023 1.30834 -0.00112406 1.50832 2.89259e-05H12.6383C12.8375 2.51367e-05 13.0346 0.0341997 13.2185 0.100585C13.4023 0.16697 13.5693 0.264255 13.7096 0.386839C13.8499 0.509422 13.961 0.654883 14.0363 0.814846C14.1116 0.974809 14.1496 1.14611 14.1483 1.3189V6.68983C14.1496 6.86221 14.1115 7.0331 14.0361 7.19258C13.9607 7.35206 13.8495 7.49696 13.709 7.61885C13.5685 7.74074 13.4015 7.83721 13.2177 7.90264C13.0339 7.96808 12.837 8.00118 12.6383 8.00003ZM1.50832 0.867708C1.43965 0.866527 1.37143 0.877392 1.30772 0.899648C1.24402 0.921905 1.18615 0.955096 1.13759 0.997231C1.08903 1.03937 1.05078 1.08958 1.02513 1.14485C0.999476 1.20012 0.986955 1.25932 0.988315 1.3189V6.68983C0.988315 6.8072 1.04205 6.91975 1.13769 7.00274C1.23333 7.08573 1.36305 7.13235 1.49832 7.13235H12.6383C12.7736 7.13235 12.9033 7.08573 12.9989 7.00274C13.0946 6.91975 13.1483 6.8072 13.1483 6.68983V1.3189C13.1496 1.26006 13.1374 1.20159 13.1124 1.14689C13.0874 1.0922 13.05 1.04238 13.0025 1.00037C12.955 0.958355 12.8984 0.924982 12.8358 0.902202C12.7733 0.879423 12.7061 0.867696 12.6383 0.867708H1.50832Z" fill="#1E1E1E"/>
<path d="M11.91 1.73438H2.25C2.11193 1.73438 2 1.83149 2 1.95129V6.04674C2 6.16654 2.11193 6.26366 2.25 6.26366H11.91C12.0481 6.26366 12.16 6.16654 12.16 6.04674V1.95129C12.16 1.83149 12.0481 1.73438 11.91 1.73438Z" fill="#1E1E1E"/>
<path d="M15.0503 2.03906H13.8203V5.96965H15.0503C15.2996 5.96965 15.5387 5.88372 15.715 5.73076C15.8913 5.5778 15.9903 5.37035 15.9903 5.15403V2.85468C15.9903 2.63837 15.8913 2.43091 15.715 2.27795C15.5387 2.12499 15.2996 2.03906 15.0503 2.03906Z" fill="#1E1E1E"/>
</g>
<defs>
<clipPath id="clip0_9525_260585">
<rect width="15.99" height="8" fill="white"/>
</clipPath>
</defs>
</svg>
