<svg width="114" height="46" viewBox="0 0 114 46" fill="none" xmlns="http://www.w3.org/2000/svg">
    <g clip-path="url(#otee1xtgpa)">
        <path d="M0 0v46h43.753V0H0z" fill="#231F20"/>
        <path d="M29.174 18.694c-.215-.996-.935-1.686-1.92-2.108 0 0-.494-.204-.822-.281-.442-.128-.821-.192-1.276-.281-.62-.115-2.224-.269-2.502-.281-.088 0-.038-.103 0-.154.089-.14.215-.268.316-.396a2.63 2.63 0 0 0 .442-.907c.089-.37.114-.767.076-1.15a2.123 2.123 0 0 0-.076-.409c-.025-.064-.05-.166-.113-.204-.064-.026-.152 0-.215.012-.127.039-.253.103-.367.154-.72.383-1.427.907-1.832 1.61a2.146 2.146 0 0 0-.303.907v.281c0 .064 0 .128-.038.179-.038.064-.126.09-.202.102-.151.013-1.074.115-1.377.166-.682.115-1.352.256-2.009.486-.24.076-.48.179-.707.306l-.038.026a3.732 3.732 0 0 0-.303.179s-.026.013-.026.025a2.37 2.37 0 0 0-.303.23 2.434 2.434 0 0 0-.19.18c-.025.025-.05.038-.063.063-.025.026-.063.051-.088.09-.114.14-.228.294-.316.46l-.025.05c-.038.065-.063.141-.089.218-.012.051-.038.09-.05.14a.183.183 0 0 1-.025.077c-.026.09-.051.166-.076.256-.05.217-.063.422-.05.626 0 .077 0 .14.012.217 0 .051 0 .09.012.14 0 .04.013.09.026.128.1.55.316.959.316.959.202.447.505 1.01.934 1.457 0 0 .076.089.064.217.012.332.088 1.06.404 1.993.77 2.364 2.388 4.114 3.386 4.92 0 0 .53.447.745.626.291.255.822.626.822.626.214.127.303.179.58.179.342 0 .582-.166.822-.333.303-.204 1.516-1.265 1.516-1.265 1.289-1.15 3.36-3.373 3.588-6.746 0-.128.064-.23.064-.23.43-.448.732-1.01.934-1.457 0 0 .544-1.048.316-2.07l.026-.013zm-7.568-3.45c0-.166.05-.32.113-.473.14-.357.367-.702.632-.996.088-.09.177-.166.278-.243.038-.025.114-.077.164-.064.101.026-.088.511-.113.575-.127.332-.279.652-.506.933a2.191 2.191 0 0 1-.341.345c-.038.026-.139.128-.202.102-.05-.025-.038-.153-.038-.191l.013.012zm5.9 4.74s-.089.18-.127.23c0 0-.859 1.291-.732 2.045.088.486.366 1.163-.303 2.722-.367.856-.81 1.865-2.148 3.437 0 0-.455.473-.695.665 0 0-1.15.958-1.529.945-.341 0-.632-.204-.847-.409a12.078 12.078 0 0 1-.631-.677c-2.047-2.607-2.136-4.74-1.756-6.236.126-.485.442-.843.82-1.111.759-.524 1.757-.677 1.896-.703.404-.026.581-.051.985-.064h.91c.177 0 .341.013.518.026.24.025.48.05.708.09.139.025.29.076.43.089.113.012.24 0 .252-.128v-.064c-.05-.14-.265-.358-1.112-.575a5.42 5.42 0 0 0-.581-.102c-.127-.013-.253-.026-.38-.026-.075 0-.163 0-.24-.013H22.087a25.54 25.54 0 0 0-2.704.154s-2.287.332-2.287-1.367c0-1.7 2.097-2.045 3.462-2.25h.063c.063-.012.14-.025.202-.025h.127c.1 0 .202-.026.29-.026.228-.012.48-.025.72-.025h.127c.53 0 1.061.038 1.579.102.379.051.758.115 1.137.205 1.807.37 3.538 1.213 2.716 3.08l-.012.012z" fill="#fff"/>
        <path d="M112.154 1.866v42.268H43.752V1.866h68.402zM113.999 0h-72.08v46h72.093V0h-.013z" fill="#231F20"/>
        <path d="M54.934 25.313c.214-.115.454-.204.732-.255.278-.052.556-.077.809-.077s.518.025.796.077c.278.05.518.14.733.255v.933c0 .255.076.524.24.805.151.281.392.537.707.767.316.23.708.421 1.163.575.455.153.998.23 1.617.23.91 0 1.58-.167 2.021-.486.443-.32.645-.754.645-1.278 0-.933-.72-1.61-2.148-2.044l-2.931-.856a8.954 8.954 0 0 1-1.542-.588 5.295 5.295 0 0 1-1.301-.907 3.98 3.98 0 0 1-.897-1.304c-.228-.51-.341-1.111-.341-1.827 0-.856.164-1.61.505-2.236a4.88 4.88 0 0 1 1.302-1.559 5.712 5.712 0 0 1 1.768-.92 6.323 6.323 0 0 1 1.92-.294c.936 0 1.719.14 2.338.422.62.281 1.1.639 1.428 1.073v-.907c.215-.115.442-.204.72-.256.278-.05.518-.076.758-.076s.493.025.77.076c.279.052.519.141.734.256v5.277a2.485 2.485 0 0 1-.733.256 4.404 4.404 0 0 1-.796.076c-.253 0-.518-.025-.809-.076-.29-.051-.53-.14-.745-.256v-.55c0-.306-.063-.587-.19-.868a2.115 2.115 0 0 0-.568-.741c-.253-.217-.582-.396-.986-.537-.404-.14-.872-.204-1.415-.204-.48 0-.884.076-1.225.23-.341.153-.607.345-.796.587a1.369 1.369 0 0 0-.316.908c0 .32.1.613.303.881.202.269.606.486 1.226.652l2.78.792a14.4 14.4 0 0 1 1.932.69c.607.269 1.137.6 1.592.997.455.396.809.894 1.074 1.457.265.562.392 1.277.392 2.108 0 .894-.177 1.661-.53 2.287a4.686 4.686 0 0 1-1.39 1.559 6.09 6.09 0 0 1-1.934.894c-.72.192-1.44.282-2.148.282-.91 0-1.756-.141-2.54-.448-.782-.294-1.364-.702-1.755-1.24v1.061a2.487 2.487 0 0 1-.733.256c-.278.051-.53.077-.77.077s-.494-.026-.746-.077a2.599 2.599 0 0 1-.708-.256v-5.711l-.012.038zM71.156 28.468l4.6-13.94h4.573l4.41 13.94h1.25c.076.243.126.485.164.715.038.23.05.46.05.665 0 .204-.024.434-.05.677a5.034 5.034 0 0 1-.164.729h-6.52a3.98 3.98 0 0 1-.215-1.316c.001-.205.014-.41.052-.64.038-.23.088-.447.164-.651h1.339l-.606-2.134H75.4l-.644 2.134h1.365a4.1 4.1 0 0 1 .164.652 4.088 4.088 0 0 1-.164 1.955h-6.343a5.033 5.033 0 0 1-.164-.729 4.397 4.397 0 0 1 0-1.341c.038-.23.088-.473.164-.716h1.377zm8.402-4.485-1.655-6.07-1.769 6.07h3.424zM91.321 28.47V17.585h-2.438v2.658a2.448 2.448 0 0 1-.746.255c-.29.051-.556.077-.796.077s-.492-.026-.77-.077a2.489 2.489 0 0 1-.733-.255v-5.508h14.769v5.508a2.434 2.434 0 0 1-.745.255c-.29.051-.556.077-.796.077s-.493-.026-.77-.077a2.489 2.489 0 0 1-.733-.255v-2.658h-2.439v10.874h1.478c.076.243.127.485.165.715.038.23.05.46.05.665 0 .204-.025.434-.05.677a5.033 5.033 0 0 1-.165.728h-6.746a5.033 5.033 0 0 1-.165-.728 4.396 4.396 0 0 1 0-1.342c.038-.23.089-.472.165-.715h1.478l-.013.013zM102.174 16.175c0-.23.038-.447.126-.639a1.58 1.58 0 0 1 .872-.843 1.715 1.715 0 0 1 1.238 0c.19.077.367.192.518.332.152.14.265.32.354.511.088.192.126.41.126.64 0 .23-.038.447-.126.651-.089.204-.202.37-.354.511-.151.14-.316.256-.518.332a1.672 1.672 0 0 1-.619.128 1.45 1.45 0 0 1-.619-.128 1.576 1.576 0 0 1-.872-.843 1.544 1.544 0 0 1-.126-.652zm1.617 1.265a.961.961 0 0 0 .467-.102c.152-.064.278-.153.38-.268.113-.115.189-.243.252-.396.063-.154.089-.32.089-.511a1.254 1.254 0 0 0-.341-.895 1.18 1.18 0 0 0-.847-.37c-.164 0-.328.038-.48.102a1.023 1.023 0 0 0-.379.268 1.17 1.17 0 0 0-.253.396c-.063.154-.088.32-.088.499 0 .178.025.357.088.51.063.154.152.282.253.397.114.115.24.204.379.268.152.064.303.102.48.102zm-.569-.6v-1.33h-.126s-.012-.063-.025-.088V15.306c0-.025 0-.05.025-.089h.821c.089 0 .165.013.24.038a.48.48 0 0 1 .304.294.61.61 0 0 1 .038.218c0 .089-.026.191-.064.28-.038.103-.126.18-.24.243l.24.537h.139s.026.064.026.09V17.031c0 .025 0 .05-.026.076h-.391l-.329-.767h-.278v.486h.164s.013.064.026.09V17.031c0 .025 0 .05-.026.089h-.619s-.012-.064-.025-.09v-.115c0-.025 0-.05.025-.089h.127l-.026.013zm.62-.792a.266.266 0 0 0 .202-.077c.05-.051.063-.115.063-.192a.254.254 0 0 0-.063-.179.257.257 0 0 0-.19-.076h-.303v.524h.291z" fill="#231F20"/>
    </g>
    <defs>
        <clipPath id="otee1xtgpa">
            <path fill="#fff" d="M0 0h114v46H0z"/>
        </clipPath>
    </defs>
</svg>
