<?xml version="1.0" encoding="UTF-8"?>
<svg id="Layer_1" data-name="Layer 1" xmlns="http://www.w3.org/2000/svg" viewBox="0 0 48 48">
  <path d="M5.91,3.59h36.18c.21,0,.38.17.38.38v2.34c0,.21-.17.38-.38.38H5.91c-.21,0-.38-.17-.38-.38v-2.34c0-.21.17-.38.38-.38Z" fill="#e3cceb" stroke-width="0"/>
  <path d="M42.09,7.18H5.91c-.48,0-.87-.39-.87-.87v-2.34c0-.48.39-.87.87-.87h36.18c.48,0,.87.39.87.87v2.34c0,.48-.39.87-.87.87ZM6.01,6.22h35.98v-2.14H6.01v2.14Z" fill="#1d1e1e" stroke-width="0"/>
  <path d="M41.01,30.25c0,.36-.29.65-.65.65H7.65c-.36,0-.65-.29-.65-.65V6.7h34.01v23.55Z" fill="#fff" stroke-width="0"/>
  <path d="M40.36,31.39H7.65c-.63,0-1.14-.51-1.14-1.14V6.22h34.98v24.03c0,.63-.51,1.14-1.14,1.14ZM7.48,7.18v23.07c0,.09.08.17.17.17h32.71c.09,0,.17-.08.17-.17V7.18H7.48Z" fill="#1d1e1e" stroke-width="0"/>
  <rect x="23.52" y="30.9" width=".97" height="3.35" fill="#1d1e1e" stroke-width="0"/>
  <path d="M24,37.9c-1.14,0-2.06-.93-2.06-2.06s.93-2.06,2.06-2.06,2.06.93,2.06,2.06-.93,2.06-2.06,2.06ZM24,34.73c-.6,0-1.1.49-1.1,1.1s.49,1.1,1.1,1.1,1.1-.49,1.1-1.1-.49-1.1-1.1-1.1Z" fill="#1d1e1e" stroke-width="0"/>
  <path d="M7.14,29.41c0,.33-.54,1.18-.16,1.41.38.24,1.67-.17,2.22-.17l29.33.07c.54,0,2.16.1,2.54-.13.38-.24,0-.78,0-1.12l-.09-2.8c0,.33-.22.64-.6.88-.38.24-.91.36-1.46.36H8.89c-.27,0-.54-.03-.79-.09-.25-.06-.48-.15-.67-.27s-.34-.25-.45-.4-.16-.31-.16-.48l.31,2.73h0Z" fill="#f1eaf3" stroke-width="0"/>
  <path d="M31.99,18.97h0l-12.2,7.04h0c-.1.06-.23.09-.34.09-.13,0-.24-.03-.35-.09-.1-.06-.19-.15-.25-.25-.05-.11-.09-.23-.09-.35v-14.08c0-.12.04-.24.09-.35.06-.11.15-.19.25-.25.11-.06.23-.09.35-.09s.24.03.34.09h0l12.2,7.04h0c.1.06.19.15.25.25.05.11.09.23.09.35s-.04.24-.09.35c-.06.11-.15.19-.25.25Z" fill="#702f8a" stroke-width="0"/>
  <path d="M19.45,26.56c-.2,0-.4-.05-.58-.15-.18-.11-.32-.25-.42-.42-.11-.2-.15-.39-.15-.58v-14.08c0-.18.05-.37.14-.55.11-.19.25-.33.42-.44.4-.22.84-.2,1.17,0l12.19,7.03c.17.1.31.24.41.41.11.2.16.4.16.58s-.05.38-.14.56c-.11.19-.25.33-.42.43h-.01l-12.2,7.05c-.16.1-.36.15-.57.15h0ZM19.45,11.09s-.09.01-.13.04c-.02.02-.06.05-.08.09-.01.02-.03.08-.03.11v14.08s.01.09.04.14c0,.02.05.05.08.07.06.04.18.03.23,0l12.2-7.04s.08-.06.1-.1c.01-.02.03-.07.03-.11s-.01-.09-.04-.14c-.01-.02-.05-.05-.09-.08l-12.19-7.04s-.08-.03-.12-.03h0Z" fill="#1d1e1e" stroke-width="0"/>
  <path d="M40.39,31.39H7.68c-.63,0-1.14-.51-1.14-1.14V6.22h34.98v24.03c0,.63-.51,1.14-1.14,1.14ZM7.51,7.18v23.07c0,.09.08.17.17.17h32.71c.09,0,.17-.08.17-.17V7.18H7.51Z" fill="#1d1e1e" stroke-width="0"/>
</svg>