<?xml version="1.0" encoding="UTF-8"?>
<svg id="Layer_1" data-name="Layer 1" xmlns="http://www.w3.org/2000/svg" viewBox="0 0 48 48">
  <path d="M10.1,4.2h27.79v36.31H10.1V4.2Z" fill="#e6f1fa" stroke-width="0"/>
  <path d="M37.89,41H10.1c-.27,0-.49-.22-.49-.49V4.2c0-.27.22-.49.49-.49h27.79c.27,0,.49.22.49.49v36.31c0,.27-.22.49-.49.49h0ZM10.58,40.03h26.81V4.69H10.58v35.34Z" fill="#1d1e1e" stroke-width="0"/>
  <path d="M13.43,6.43h21.12v31.12H13.43V6.43Z" fill="#fff" stroke-width="0"/>
  <path d="M34.56,38.04H13.43c-.27,0-.49-.22-.49-.49V6.43c0-.27.22-.49.49-.49h21.12c.27,0,.49.22.49.49v31.12c0,.27-.22.49-.49.49ZM13.92,37.07h20.15V6.91H13.92v30.15h0Z" fill="#1d1e1e" stroke-width="0"/>
  <path d="M17.29,16.5c-.12,0-.24-.05-.33-.13l-.94-.89c-.19-.18-.2-.49-.02-.69.18-.2.49-.2.69-.02l.56.53,2.16-2.61c.17-.21.48-.24.68-.06.21.17.24.48.06.68l-2.49,3.01c-.09.1-.21.17-.35.18h-.03,0Z" fill="#009cde" stroke-width="0"/>
  <path d="M17.29,22.93c-.12,0-.24-.05-.33-.13l-.94-.89c-.19-.18-.2-.49-.02-.69.18-.2.49-.2.69-.02l.56.53,2.16-2.61c.17-.21.48-.24.68-.06.21.17.24.48.06.68l-2.49,3.01c-.09.1-.21.17-.35.18h-.03,0Z" fill="#009cde" stroke-width="0"/>
  <path d="M30.94,15h-8.9c-.27,0-.49-.22-.49-.49s.22-.49.49-.49h8.9c.27,0,.49.22.49.49s-.22.49-.49.49Z" fill="#1d1e1e" stroke-width="0"/>
  <path d="M30.94,21.53h-8.9c-.27,0-.49-.22-.49-.49s.22-.49.49-.49h8.9c.27,0,.49.22.49.49s-.22.49-.49.49Z" fill="#1d1e1e" stroke-width="0"/>
  <path d="M30.94,27.97h-8.9c-.27,0-.49-.22-.49-.49s.22-.49.49-.49h8.9c.27,0,.49.22.49.49s-.22.49-.49.49Z" fill="#1d1e1e" stroke-width="0"/>
  <path d="M26.76,3.46c0-.06.02-.12.02-.19,0-.74-.29-1.44-.81-1.97-.52-.52-1.23-.81-1.97-.81s-1.44.29-1.97.81c-.52.52-.81,1.23-.81,1.97,0,.06,0,.12.02.19h-3.35c-.1,0-.19.02-.28.06s-.17.09-.24.16c-.07.07-.12.15-.16.24-.04.09-.06.19-.06.28v2.96c0,.2.08.39.22.52.14.14.33.22.52.22h12.23c.2,0,.39-.08.52-.22.14-.14.22-.33.22-.52v-2.96c0-.1-.02-.19-.06-.28-.04-.09-.09-.17-.16-.24s-.15-.12-.24-.16c-.09-.04-.19-.06-.28-.06h-3.36Z" fill="#009cde" stroke-width="0"/>
  <path d="M30.85,4.2c0-.2-.08-.38-.22-.52-.14-.14-.33-.22-.52-.22h-3.36c0-.06.02-.12.02-.19,0-.74-.29-1.44-.81-1.97-.52-.52-1.23-.81-1.97-.81s-1.44.29-1.97.81c-.52.52-.81,1.23-.81,1.97,0,.06,0,.12.02.19h-3.35c-.1,0-.19.02-.28.06s-.17.09-.24.16c-.07.07-.12.15-.16.24-.04.09-.06.19-.06.28v.74h13.71v-.74Z" fill="#71c5e8" stroke-width="0"/>
  <path d="M30.11,8.39h-12.23c-.33,0-.64-.13-.87-.36s-.36-.54-.36-.87v-2.96c0-.16.03-.32.09-.47s.15-.29.27-.4c.11-.11.25-.2.4-.27.15-.06.31-.09.47-.09h2.86c.07-.75.41-1.47.94-2.01.62-.62,1.44-.96,2.31-.96s1.69.34,2.31.96c.54.54.87,1.26.94,2.01h2.87c.16,0,.32.03.47.09s.28.15.4.27c.11.12.2.25.27.4.06.15.09.31.09.47v2.96c0,.33-.13.64-.36.87-.23.23-.54.36-.87.36ZM17.88,3.95s-.07,0-.1.02c-.03,0-.06.03-.08.06-.02.02-.04.05-.06.08,0,.03-.02.07-.02.1v2.96c0,.07.03.13.07.18s.11.07.18.07h12.23c.07,0,.13-.03.18-.07s.07-.11.07-.18v-2.96s0-.07-.02-.1c0-.03-.03-.06-.05-.08-.02-.02-.05-.04-.08-.06s-.06-.02-.1-.02h-3.36c-.14,0-.26-.06-.36-.16-.09-.1-.14-.23-.13-.37,0-.04,0-.07,0-.11,0-.65-.24-1.24-.67-1.66-.87-.87-2.38-.87-3.24,0-.43.43-.67,1.02-.67,1.62l.02.15c0,.14-.04.27-.13.37-.09.1-.22.16-.36.16h-3.35.02Z" fill="#1d1e1e" stroke-width="0"/>
</svg>