<?xml version="1.0" encoding="UTF-8"?>
<svg id="Layer_1" data-name="Layer 1" xmlns="http://www.w3.org/2000/svg" viewBox="0 0 48 48">
  <path d="M25.53,36.7c-.92,0-1.67-.75-1.67-1.67,0-.44.18-.86.49-1.18l12.69-12.69c3.1-3.1,3.1-8.12,0-11.21-3.1-3.1-8.12-3.1-11.21,0l-13.28,13.28c-1.96,1.96-1.96,5.13,0,7.08,1.96,1.96,5.13,1.96,7.08,0h0l11.51-11.51c.81-.81.82-2.14,0-2.95s-2.14-.82-2.95,0l-9.74,9.74c-.62.68-1.68.73-2.36.1-.68-.62-.73-1.68-.1-2.36.03-.04.07-.07.1-.1l9.74-9.74c2.12-2.12,5.55-2.12,7.67,0,2.12,2.12,2.12,5.55,0,7.67h0l-11.51,11.51c-3.25,3.27-8.53,3.29-11.8.04-3.27-3.25-3.29-8.53-.04-11.8.01-.02.03-.03.05-.05l13.27-13.28c4.4-4.4,11.53-4.4,15.93,0,4.4,4.4,4.4,11.53,0,15.93h0l-12.69,12.69c-.31.31-.74.49-1.18.49Z" fill="#702f8a" stroke-width="0"/>
  <path d="M25.53,37.18h0c-.58,0-1.12-.23-1.52-.63-.41-.41-.63-.95-.63-1.52,0-.57.22-1.11.63-1.52l12.69-12.69c1.41-1.41,2.18-3.28,2.18-5.26s-.77-3.86-2.18-5.26c-2.9-2.9-7.63-2.9-10.53,0l-13.28,13.28c-.85.85-1.32,1.99-1.32,3.2s.47,2.34,1.32,3.2c.85.85,1.99,1.32,3.2,1.32s2.34-.47,3.2-1.32l11.51-11.51c.62-.62.62-1.64,0-2.27-.3-.3-.71-.47-1.13-.47h0c-.43,0-.83.17-1.13.47l-9.74,9.74c-.79.86-2.15.92-3.03.12-.42-.39-.67-.92-.7-1.49-.02-.57.18-1.12.56-1.55.04-.05.09-.09.13-.13l9.72-9.73c1.12-1.12,2.6-1.73,4.18-1.73h0c1.58,0,3.06.62,4.18,1.73,1.12,1.12,1.73,2.6,1.73,4.18,0,1.58-.62,3.06-1.73,4.18l-11.51,11.51c-1.66,1.67-3.87,2.6-6.23,2.61-.01,0-.02,0-.03,0-2.35,0-4.55-.91-6.22-2.56-3.46-3.43-3.48-9.03-.05-12.49l.05-.05,13.27-13.27c4.58-4.58,12.03-4.58,16.62,0,4.58,4.58,4.58,12.03,0,16.62l-12.69,12.69c-.4.4-.95.63-1.52.63ZM25.53,36.22h0c.31,0,.62-.13.84-.35l12.69-12.69c4.2-4.2,4.2-11.04,0-15.25-4.2-4.2-11.04-4.2-15.25,0l-13.3,13.31c-3.07,3.09-3.05,8.08.03,11.13,1.48,1.47,3.45,2.28,5.54,2.28h.03c2.1,0,4.07-.83,5.55-2.32l11.51-11.51c.93-.93,1.45-2.17,1.45-3.49,0-1.32-.51-2.56-1.45-3.49s-2.17-1.45-3.49-1.45h0c-1.32,0-2.56.51-3.49,1.45l-9.74,9.74s-.06.06-.09.09c-.21.23-.32.54-.31.85s.15.61.38.82c.48.44,1.23.41,1.68-.07l9.75-9.75c.49-.49,1.13-.75,1.82-.75h0c.69,0,1.33.27,1.82.75,1,1,1,2.63,0,3.64l-11.51,11.51c-1.04,1.04-2.42,1.61-3.88,1.61s-2.85-.57-3.88-1.61c-2.14-2.14-2.14-5.62,0-7.77l13.28-13.28c3.28-3.28,8.62-3.28,11.9,0,1.59,1.59,2.46,3.7,2.46,5.95s-.87,4.36-2.46,5.95l-12.69,12.69c-.22.22-.34.52-.35.83,0,.32.12.62.35.84s.52.35.84.35h0Z" fill="#1b1c1c" stroke-width="0"/>
  <path d="M39.21,7.88c-4.4-4.4-11.53-4.4-15.93,0l-2.28,2.28c4.4-4.4,11.53-4.4,15.93,0,4.38,4.38,4.4,11.48.04,15.89l2.24-2.24c4.4-4.4,4.4-11.53,0-15.93Z" fill="#9c59b2" stroke-width="0"/>
  <path d="M25.53,37.18h0c-.58,0-1.12-.23-1.52-.63-.41-.41-.63-.95-.63-1.52,0-.57.22-1.11.63-1.52l12.69-12.69c1.41-1.41,2.18-3.28,2.18-5.26s-.77-3.86-2.18-5.26c-2.9-2.9-7.63-2.9-10.53,0l-13.28,13.28c-.85.85-1.32,1.99-1.32,3.2s.47,2.34,1.32,3.2c.85.85,1.99,1.32,3.2,1.32s2.34-.47,3.2-1.32l11.51-11.51c.62-.62.62-1.64,0-2.27-.3-.3-.71-.47-1.13-.47h0c-.43,0-.83.17-1.13.47l-9.74,9.74c-.79.86-2.15.92-3.03.12-.42-.39-.67-.92-.7-1.49-.02-.57.18-1.12.56-1.55.04-.05.09-.09.13-.13l9.72-9.73c1.12-1.12,2.6-1.73,4.18-1.73h0c1.58,0,3.06.62,4.18,1.73,1.12,1.12,1.73,2.6,1.73,4.18,0,1.58-.62,3.06-1.73,4.18l-11.51,11.51c-1.66,1.67-3.87,2.6-6.23,2.61-.01,0-.02,0-.03,0-2.35,0-4.55-.91-6.22-2.56-3.46-3.43-3.48-9.03-.05-12.49l.05-.05,13.27-13.27c4.58-4.58,12.03-4.58,16.62,0,4.58,4.58,4.58,12.03,0,16.62l-12.69,12.69c-.4.4-.95.63-1.52.63ZM25.53,36.22h0c.31,0,.62-.13.84-.35l12.69-12.69c4.2-4.2,4.2-11.04,0-15.25-4.2-4.2-11.04-4.2-15.25,0l-13.3,13.31c-3.07,3.09-3.05,8.08.03,11.13,1.48,1.47,3.45,2.28,5.54,2.28h.03c2.1,0,4.07-.83,5.55-2.32l11.51-11.51c.93-.93,1.45-2.17,1.45-3.49,0-1.32-.51-2.56-1.45-3.49s-2.17-1.45-3.49-1.45h0c-1.32,0-2.56.51-3.49,1.45l-9.74,9.74s-.06.06-.09.09c-.21.23-.32.54-.31.85s.15.61.38.82c.48.44,1.23.41,1.68-.07l9.75-9.75c.49-.49,1.13-.75,1.82-.75h0c.69,0,1.33.27,1.82.75,1,1,1,2.63,0,3.64l-11.51,11.51c-1.04,1.04-2.42,1.61-3.88,1.61s-2.85-.57-3.88-1.61c-2.14-2.14-2.14-5.62,0-7.77l13.28-13.28c3.28-3.28,8.62-3.28,11.9,0,1.59,1.59,2.46,3.7,2.46,5.95s-.87,4.36-2.46,5.95l-12.69,12.69c-.22.22-.34.52-.35.83,0,.32.12.62.35.84s.52.35.84.35h0Z" fill="#1b1c1c" stroke-width="0"/>
</svg>