<?xml version="1.0" encoding="UTF-8"?>
<svg id="Layer_1" data-name="Layer 1" xmlns="http://www.w3.org/2000/svg" viewBox="0 0 48 48">
  <rect x="4.03" y=".49" width="39.98" height="39.98" rx="5.19" ry="5.19" fill="#f1eaf3" stroke-width="0"/>
  <path d="M39.32,40.96H8.72c-2.85,0-5.18-2.32-5.18-5.18V5.18C3.54,2.32,5.86,0,8.72,0h30.61c2.85,0,5.18,2.32,5.18,5.18v30.61c0,2.85-2.32,5.18-5.18,5.18ZM8.72.98c-2.32,0-4.2,1.88-4.2,4.2v30.61c0,2.32,1.88,4.2,4.2,4.2h30.61c2.32,0,4.2-1.88,4.2-4.2V5.18c0-2.32-1.88-4.2-4.2-4.2H8.72Z" fill="#1d1e1e" stroke-width="0"/>
  <path d="M39.32.49H8.72c-2.58,0-4.69,2.11-4.69,4.69v4.17c0-2.58,2.11-4.69,4.69-4.69h30.61c2.58,0,4.69,2.11,4.69,4.69v-4.17c0-2.58-2.11-4.69-4.69-4.69Z" fill="#fff" stroke-width="0"/>
  <path d="M39.32,40.96H8.72c-2.85,0-5.18-2.32-5.18-5.18V5.18C3.54,2.32,5.86,0,8.72,0h30.61c2.85,0,5.18,2.32,5.18,5.18v30.61c0,2.85-2.32,5.18-5.18,5.18ZM8.72.98c-2.32,0-4.2,1.88-4.2,4.2v30.61c0,2.32,1.88,4.2,4.2,4.2h30.61c2.32,0,4.2-1.88,4.2-4.2V5.18c0-2.32-1.88-4.2-4.2-4.2H8.72Z" fill="#1d1e1e" stroke-width="0"/>
  <path d="M39.28,40.96H8.68c-2.85,0-5.18-2.32-5.18-5.18V5.18C3.5,2.32,5.82,0,8.68,0h30.61c2.85,0,5.18,2.32,5.18,5.18v30.61c0,2.85-2.32,5.18-5.18,5.18ZM8.68.98c-2.32,0-4.2,1.88-4.2,4.2v30.61c0,2.32,1.88,4.2,4.2,4.2h30.61c2.32,0,4.2-1.88,4.2-4.2V5.18c0-2.32-1.88-4.2-4.2-4.2H8.68Z" fill="#1d1e1e" stroke-width="0"/>
  <path d="M39.28,40.96H8.68c-2.85,0-5.18-2.32-5.18-5.18V5.18C3.5,2.32,5.82,0,8.68,0h30.61c2.85,0,5.18,2.32,5.18,5.18v30.61c0,2.85-2.32,5.18-5.18,5.18ZM8.68.98c-2.32,0-4.2,1.88-4.2,4.2v30.61c0,2.32,1.88,4.2,4.2,4.2h30.61c2.32,0,4.2-1.88,4.2-4.2V5.18c0-2.32-1.88-4.2-4.2-4.2H8.68Z" fill="#1d1e1e" stroke-width="0"/>
  <path d="M39.3,40.97H8.7c-2.85,0-5.18-2.32-5.18-5.18V5.18C3.52,2.33,5.84,0,8.7,0h30.61c2.85,0,5.18,2.32,5.18,5.18v30.61c0,2.85-2.32,5.18-5.18,5.18ZM8.7.98c-2.32,0-4.2,1.88-4.2,4.2v30.61c0,2.32,1.88,4.2,4.2,4.2h30.61c2.32,0,4.2-1.88,4.2-4.2V5.18c0-2.32-1.88-4.2-4.2-4.2H8.7Z" fill="#1d1e1e" stroke-width="0"/>
  <path d="M39.3,40.96H8.7c-2.85,0-5.18-2.32-5.18-5.18V5.18C3.52,2.33,5.84,0,8.7,0h30.61c2.85,0,5.18,2.32,5.18,5.18v30.61c0,2.85-2.32,5.18-5.18,5.18ZM8.7.98c-2.32,0-4.2,1.88-4.2,4.2v30.61c0,2.32,1.88,4.2,4.2,4.2h30.61c2.32,0,4.2-1.88,4.2-4.2V5.18c0-2.32-1.88-4.2-4.2-4.2H8.7Z" fill="#1d1e1e" stroke-width="0"/>
  <path d="M20.5,7.73c0-.2.04-.39.11-.58.09-.18.19-.34.32-.48.15-.14.3-.25.49-.32.17-.08.37-.11.57-.11h4.06c.26,0,.52.05.74.15.24.1.45.24.65.42.17.18.32.39.41.64.11.23.15.49.15.75l-1.01,14.55c0,.4-.15.78-.43,1.06-.28.28-.68.43-1.06.43h-2.49c-.39,0-.78-.16-1.06-.43-.28-.28-.43-.67-.43-1.06l-1.01-15.01h0Z" fill="#702f8a" stroke-width="0"/>
  <path d="M25.5,24.74h-2.49c-.52,0-1.04-.21-1.41-.59-.37-.37-.59-.88-.59-1.42l-1.01-14.97v-.03c0-.24.04-.48.14-.75.13-.28.27-.48.43-.66.25-.23.45-.36.69-.45.21-.09.47-.15.75-.15h4.06c.34,0,.67.07.95.19.27.11.53.28.79.51.26.27.44.54.54.83.12.25.18.57.18.92l-1.01,14.59c0,.5-.2,1.01-.59,1.38-.37.37-.9.59-1.42.59h-.01ZM21,7.72l1.01,14.99c0,.3.1.56.28.74s.44.29.71.29h2.49c.26,0,.52-.11.71-.29s.28-.43.28-.71l1.01-14.59c0-.17-.04-.34-.11-.5-.07-.19-.17-.34-.31-.49-.14-.12-.3-.23-.47-.3-.16-.07-.35-.11-.54-.11h-4.06c-.13,0-.25.02-.36.07-.13.05-.23.12-.36.23-.06.07-.14.19-.21.33-.03.09-.06.22-.06.34h.01Z" fill="#1d1e1e" stroke-width="0"/>
  <path d="M24.25,27.23c-2.08,0-3.75,1.69-3.75,3.75s1.67,3.75,3.75,3.75,3.75-1.68,3.75-3.75-1.7-3.75-3.75-3.75Z" fill="#702f8a" stroke-width="0"/>
  <path d="M24.25,35.24c-2.35,0-4.26-1.91-4.26-4.26s1.91-4.26,4.26-4.26,4.26,1.91,4.26,4.26-1.91,4.26-4.26,4.26ZM24.25,27.74c-1.79,0-3.25,1.45-3.25,3.25s1.45,3.25,3.25,3.25,3.25-1.45,3.25-3.25-1.45-3.25-3.25-3.25Z" fill="#1d1e1e" stroke-width="0"/>
</svg>