<svg width="40" height="40" viewBox="0 0 40 40" fill="none" xmlns="http://www.w3.org/2000/svg">
    <path d="M20 40c11.046 0 20-8.954 20-20S31.046 0 20 0 0 8.954 0 20s8.954 20 20 20z" fill="#F0F0F0"/>
    <path fill-rule="evenodd" clip-rule="evenodd" d="M27.248 18.3c.452.039.787.44.75.897a8.147 8.147 0 0 1-2.326 5.051 7.992 7.992 0 0 1-4.855 2.327v1.765h2.782c.454 0 .822.372.822.83 0 .458-.368.83-.822.83H16.4a.826.826 0 0 1-.823-.83c0-.458.368-.83.823-.83h2.77v-1.767a7.993 7.993 0 0 1-4.843-2.325 8.147 8.147 0 0 1-2.325-5.05.828.828 0 0 1 .749-.898c.452-.04.85.3.89.756a6.481 6.481 0 0 0 1.85 4.018A6.351 6.351 0 0 0 20 24.958a6.35 6.35 0 0 0 4.508-1.884 6.483 6.483 0 0 0 1.85-4.018.825.825 0 0 1 .89-.756zM20 9c1.188 0 2.317.522 3.142 1.417.826.897 1.279 2.108 1.279 3.346v4.586c0 1.246-.452 2.444-1.275 3.34-.82.902-1.962 1.421-3.146 1.421-1.188 0-2.318-.52-3.142-1.416-.827-.897-1.28-2.108-1.28-3.345v-4.586c0-1.247.451-2.446 1.275-3.342C17.672 9.518 18.815 9 20 9zm0 1.66c-.707 0-1.416.311-1.933.882l-.004.004a3.27 3.27 0 0 0-.84 2.217v4.586c0 .837.309 1.64.84 2.215.532.578 1.233.887 1.937.887.619 0 1.239-.239 1.73-.68l.207-.207a3.27 3.27 0 0 0 .84-2.215v-4.586c0-.838-.31-1.641-.84-2.217-.533-.577-1.233-.886-1.937-.886z" fill="#1E1E1E"/>
</svg>
