<?xml version="1.0" encoding="UTF-8"?>
<svg id="Layer_1" data-name="Layer 1" xmlns="http://www.w3.org/2000/svg" viewBox="0 0 48 48">
  <path d="M8.03,15.37c0,1.8.35,3.58,1.04,5.24.69,1.66,1.7,3.17,2.97,4.44,1.27,1.27,2.78,2.28,4.44,2.97,1.66.69,3.44,1.04,5.24,1.04s3.58-.35,5.24-1.04c1.66-.69,3.17-1.7,4.44-2.97,1.27-1.27,2.28-2.78,2.97-4.44.69-1.66,1.04-3.44,1.04-5.24s-.35-3.58-1.04-5.24c-.69-1.66-1.7-3.17-2.97-4.44-1.27-1.27-2.78-2.28-4.44-2.97-1.66-.69-3.44-1.04-5.24-1.04s-3.58.35-5.24,1.04c-1.66.69-3.17,1.7-4.44,2.97-1.27,1.27-2.28,2.78-2.97,4.44-.69,1.66-1.04,3.44-1.04,5.24h0Z" fill="#fff" stroke-width="0"/>
  <path d="M21.72,26.77c-3.43,0-6.74-1.29-9.26-3.62-2.53-2.32-4.08-5.51-4.37-8.93-.03.38-.06.76-.06,1.14.02,3.61,1.48,7.07,4.04,9.62,2.56,2.55,6.03,3.98,9.65,3.98s7.08-1.43,9.65-3.98c2.56-2.55,4.02-6.01,4.04-9.62,0-.39-.03-.76-.06-1.14-.28,3.42-1.84,6.61-4.37,8.93-2.53,2.32-5.83,3.62-9.26,3.62h0Z" fill="#f1eaf3" stroke-width="0"/>
  <path d="M21.72,5.67c3.28,0,6.46,1.18,8.94,3.33,2.48,2.15,4.11,5.12,4.59,8.36.3-1.95.18-3.95-.36-5.85-.54-1.9-1.49-3.66-2.77-5.16-1.29-1.5-2.88-2.7-4.67-3.53-1.79-.83-3.75-1.25-5.72-1.25s-3.93.43-5.72,1.25c-1.79.83-3.39,2.03-4.67,3.53-1.29,1.5-2.23,3.26-2.77,5.16-.54,1.9-.66,3.9-.36,5.85.48-3.25,2.11-6.22,4.59-8.36,2.48-2.15,5.66-3.33,8.94-3.33h-.02Z" fill="#f1eaf3" stroke-width="0"/>
  <path d="M26.89,5.19c-.27.54-.32,1.17-.14,1.74.19.58.6,1.05,1.13,1.33.27.14.47.37.57.66.09.29.07.6-.07.87-.14.27-.37.47-.66.57-.29.09-.6.07-.87-.07l-5.39-2.74c-.93-.49-2.01-.62-3.02-.35-1.02.27-1.89.92-2.45,1.81-.27.47-.44.99-.51,1.53s-.02,1.08.14,1.6c.15.52.41,1,.76,1.42s.78.76,1.26,1l1.53.78c-.14.27-.22.56-.24.86-.02.3.01.6.11.88.09.28.24.55.44.78.19.23.43.41.7.55l-.95,1.86c-.42.79-.53,1.72-.3,2.59.23.87.79,1.62,1.55,2.1.4.23.85.38,1.31.44.46.05.93.01,1.38-.12.45-.13.86-.35,1.22-.65.36-.3.65-.67.86-1.08l2.07-4.07c.27.14.56.22.86.24.3.02.6-.01.88-.11.28-.09.55-.24.78-.44.23-.19.41-.43.55-.7l-2.04-1.04.52-1.02c.27-.54.75-.95,1.33-1.14.58-.19,1.2-.14,1.74.13l3.36,1.71c.33-2.53-.05-5.1-1.11-7.42-1.05-2.32-2.73-4.3-4.85-5.72-.48-.09-.98-.02-1.42.2s-.8.57-1.02,1.01h0Z" fill="#702f8a" stroke-width="0"/>
  <path d="M35.21,17.1l.08.04c.33-2.53-.05-5.1-1.11-7.42-1.05-2.32-2.73-4.3-4.85-5.72-.36-.07-.73-.05-1.08.06-.35.11-.67.3-.93.55-.26.26-.45.57-.56.92-.11.35-.14.72-.07,1.08,2.21.86,4.15,2.28,5.65,4.12,1.5,1.84,2.49,4.03,2.88,6.37h-.01Z" fill="#9c59b2" stroke-width="0"/>
  <path d="M21.63,33.62h5.7v4.56h-5.7v-4.56Z" fill="#9c59b2" stroke-width="0"/>
  <path d="M27.33,33.09h-5.71c-.29,0-.53.24-.53.53v4.56c0,.29.24.53.53.53h5.71c.29,0,.53-.24.53-.53v-4.56c0-.3-.24-.53-.53-.53ZM26.8,37.65h-4.64v-3.5h4.64v3.5Z" fill="#1d1e1e" stroke-width="0"/>
  <path d="M36.94.16c-.1-.1-.24-.16-.38-.16s-.28.06-.38.16l-5.13,5.13c-.21.21-.21.55,0,.76.1.1.24.16.38.16s.28-.06.38-.16l5.13-5.14c.21-.21.21-.55,0-.75Z" fill="#1d1e1e" stroke-width="0"/>
  <path d="M12.4,24.69c-.1-.1-.23-.16-.38-.16s-.28.06-.38.16l-5.13,5.13c-.1.1-.16.24-.16.38s.05.28.16.38c.1.1.23.16.38.16s.28-.05.38-.16l5.13-5.13c.1-.1.16-.23.16-.38s-.06-.28-.16-.38Z" fill="#1d1e1e" stroke-width="0"/>
  <path d="M33.26,40.47c.1,0,.21-.03.29-.1.08-.06.14-.15.17-.25s.02-.21,0-.3c-.04-.1-.11-.18-.19-.23-2.69-1.66-5.78-2.53-8.94-2.53s-6.25.88-8.94,2.53c-.09.05-.16.14-.19.23-.04.1-.04.2-.01.3s.09.19.17.25.18.1.29.1h17.39-.03Z" fill="#f1eaf3" stroke-width="0"/>
  <path d="M33.26,40.52H15.88c-.11,0-.23-.04-.32-.11s-.16-.17-.19-.28-.03-.23.02-.34c.04-.11.12-.2.22-.26,2.7-1.66,5.8-2.54,8.97-2.54s6.27.88,8.97,2.54c.1.06.18.15.22.26.04.11.05.23.02.34s-.1.21-.19.28-.21.11-.32.11h-.02ZM24.57,37.1c-3.15,0-6.23.87-8.91,2.53-.08.05-.14.12-.17.21s-.04.18-.01.27.08.17.15.22c.07.06.16.09.25.09h17.39c.09,0,.18-.03.26-.09.07-.06.13-.13.15-.22.03-.09.02-.18,0-.27-.03-.08-.09-.16-.17-.21-2.68-1.65-5.77-2.53-8.91-2.53h-.02Z" fill="#1d1e1e" stroke-width="0"/>
  <path d="M34.21,39.62c-.08-.21-.22-.38-.41-.5-2.78-1.71-5.97-2.61-9.22-2.61s-6.45.9-9.23,2.61c-.19.12-.33.29-.41.5-.08.2-.09.43-.03.64s.19.4.36.53c.17.13.39.21.61.21h17.39c.22,0,.43-.08.61-.21.18-.13.3-.32.36-.53s.05-.44-.03-.64ZM33.07,39.93h-17c2.57-1.54,5.5-2.35,8.5-2.35s5.93.81,8.49,2.35h.01Z" fill="#1d1e1e" stroke-width="0"/>
  <path d="M8,29.08c3.64,3.64,8.57,5.68,13.71,5.68,2.55,0,5.07-.5,7.42-1.48,2.35-.97,4.49-2.4,6.29-4.2,1.8-1.8,3.23-3.94,4.2-6.29s1.48-4.88,1.48-7.42-.5-5.07-1.48-7.42c-.97-2.35-2.4-4.49-4.2-6.29l-2.02,2.02c3.07,3.11,4.79,7.31,4.78,11.68,0,4.37-1.75,8.56-4.85,11.65-3.09,3.09-7.28,4.83-11.65,4.85s-8.57-1.71-11.68-4.78l-2.02,2.02.02-.02Z" fill="#f1eaf3" stroke-width="0"/>
  <path d="M10.02,27.06l-2.02,2.02c.58.58,1.2,1.12,1.85,1.63l2.04-2.04c-.66-.49-1.28-1.03-1.87-1.61h0Z" fill="#fff" stroke-width="0"/>
  <path d="M33.42,3.67c.58.58,1.12,1.2,1.61,1.87l2.04-2.04c-.5-.65-1.05-1.27-1.63-1.85l-2.02,2.02Z" fill="#fff" stroke-width="0"/>
  <path d="M40.14,7.74c-1.01-2.43-2.46-4.61-4.32-6.47-.2-.2-.55-.2-.76,0l-2.02,2.02c-.21.21-.21.54,0,.75,2.99,3.03,4.64,7.04,4.62,11.3,0,4.26-1.68,8.26-4.69,11.27-3.01,3.01-7.02,4.68-11.27,4.69h-.05c-4.24,0-8.24-1.64-11.25-4.62-.21-.2-.55-.2-.75,0l-2.02,2.02c-.1.1-.16.23-.16.38s.06.28.16.38c3.76,3.76,8.77,5.84,14.09,5.84,2.63,0,5.2-.51,7.63-1.52,2.43-1.01,4.61-2.46,6.46-4.32,1.86-1.86,3.32-4.04,4.32-6.47,1.01-2.43,1.52-5,1.52-7.63s-.51-5.2-1.52-7.63h0ZM38.73,15.35c0-4.35-1.61-8.49-4.56-11.67l1.26-1.26c1.58,1.67,2.83,3.6,3.72,5.74.95,2.3,1.43,4.73,1.43,7.22s-.48,4.92-1.43,7.22-2.33,4.36-4.09,6.12c-1.76,1.76-3.82,3.14-6.12,4.09s-4.73,1.44-7.22,1.44c-4.84,0-9.44-1.83-12.96-5.15l1.26-1.26c3.17,2.95,7.29,4.57,11.62,4.57h.05c4.54,0,8.81-1.79,12.03-5,3.21-3.21,4.99-7.48,5-12.03v-.03Z" fill="#1d1e1e" stroke-width="0"/>
  <path d="M34.87,9.92c-.72-1.73-1.75-3.29-3.08-4.62s-2.88-2.37-4.61-3.08c-3.46-1.43-7.43-1.43-10.89,0-1.73.72-3.29,1.76-4.61,3.08-1.33,1.33-2.37,2.88-3.08,4.61-.72,1.74-1.08,3.57-1.08,5.44s.36,3.71,1.08,5.44c.72,1.73,1.75,3.29,3.08,4.62,1.33,1.33,2.88,2.37,4.61,3.08,1.73.72,3.56,1.08,5.44,1.08s3.71-.36,5.44-1.08,3.29-1.76,4.61-3.08c1.32-1.32,2.37-2.88,3.08-4.61.72-1.73,1.08-3.57,1.08-5.44s-.36-3.71-1.08-5.44h.01ZM33.87,20.4c-.67,1.6-1.62,3.04-2.85,4.27-1.23,1.23-2.66,2.19-4.27,2.85-3.2,1.33-6.87,1.33-10.07,0-1.6-.66-3.04-1.62-4.27-2.85-1.23-1.23-2.19-2.66-2.85-4.27-.66-1.6-1-3.3-1-5.04s.34-3.43,1-5.04c.66-1.6,1.62-3.04,2.85-4.27s2.66-2.19,4.27-2.85c1.6-.66,3.3-1,5.04-1s3.43.34,5.03,1c1.61.66,3.04,1.62,4.27,2.85s2.19,2.66,2.85,4.27c.66,1.6,1,3.3,1,5.03s-.34,3.43-1,5.04h0Z" fill="#1d1e1e" stroke-width="0"/>
  <path d="M34.67,9.49c-1.1-2.41-2.84-4.47-5.04-5.95-.06-.04-.13-.07-.2-.08-.59-.11-1.21-.02-1.75.24-.53.26-.98.7-1.25,1.23h-.02v.03c-.34.67-.39,1.43-.16,2.14.23.7.74,1.3,1.4,1.64.14.07.25.2.3.35.05.15.04.32-.03.46-.07.14-.2.25-.35.3s-.32.04-.46-.03l-5.38-2.73c-1.05-.56-2.26-.7-3.41-.39s-2.13,1.04-2.77,2.06c-.31.54-.5,1.12-.58,1.73-.07.61-.02,1.23.16,1.82s.47,1.13.86,1.61c.4.48.88.86,1.43,1.14l1.09.56c-.05.18-.09.37-.1.56-.03.37.02.74.13,1.09.11.35.29.67.54.96.12.14.26.28.41.39l-.72,1.42c-.49.92-.61,1.97-.34,2.98.27,1.01.91,1.86,1.8,2.42.47.27.98.44,1.52.5.15.02.31.03.47.03.38,0,.76-.05,1.12-.16.52-.15.99-.41,1.41-.75.41-.34.75-.76,1-1.25l1.85-3.64c.18.05.37.09.56.1.37.03.74-.02,1.09-.13.35-.11.67-.3.96-.54.28-.24.51-.53.68-.86.06-.13.08-.27.03-.41s-.14-.25-.27-.31l-1.56-.79.28-.54c.21-.42.57-.73,1.02-.87.44-.15.91-.11,1.33.1l3.36,1.71c.15.08.34.08.49,0s.26-.23.28-.4c.34-2.63-.05-5.3-1.15-7.71l-.03-.03ZM34.84,16.3l-2.67-1.35c-.67-.34-1.43-.4-2.15-.17s-1.3.73-1.64,1.4l-.52,1.02c-.06.13-.08.27-.03.41.04.13.14.25.27.31l1.49.76s-.07.07-.11.1c-.18.15-.38.26-.59.34-.21.07-.45.1-.68.08s-.45-.08-.66-.18c-.13-.06-.27-.07-.41-.03-.14.04-.25.14-.31.27l-2.07,4.07c-.18.35-.42.66-.73.91-.3.25-.65.44-1.03.55s-.77.15-1.16.1-.76-.17-1.09-.36c-.65-.41-1.12-1.04-1.32-1.78-.2-.74-.11-1.53.26-2.21l.94-1.86c.13-.26.03-.59-.24-.72-.21-.11-.39-.25-.53-.42-.15-.17-.26-.37-.34-.59-.07-.22-.1-.45-.08-.68s.08-.45.18-.66c.06-.13.08-.27.03-.41-.04-.14-.14-.25-.27-.31l-1.53-.78c-.42-.22-.79-.51-1.09-.87s-.52-.78-.66-1.23c-.14-.45-.18-.92-.12-1.39.05-.47.2-.91.43-1.31.49-.78,1.24-1.34,2.13-1.58.31-.08.62-.12.93-.12.59,0,1.18.15,1.71.43l5.39,2.74c.39.2.86.24,1.28.1.42-.14.77-.44.97-.84.2-.4.24-.85.1-1.28-.14-.43-.43-.77-.83-.97-.41-.21-.73-.58-.87-1.02-.14-.44-.11-.92.1-1.33.17-.33.44-.6.78-.77.3-.15.64-.21.98-.17,1.99,1.36,3.57,3.24,4.57,5.43.9,1.99,1.3,4.19,1.14,6.37h.05Z" fill="#1d1e1e" stroke-width="0"/>
</svg>