<?xml version="1.0" encoding="UTF-8"?>
<svg id="Layer_1" data-name="Layer 1" xmlns="http://www.w3.org/2000/svg" viewBox="0 0 48 48">
  <path d="M8.79,39.99c0,.25.1.49.28.67.18.18.42.28.67.28h27.59c.25,0,.49-.1.67-.28s.28-.42.28-.67V9.08L30.2.99H9.74c-.12,0-.25.02-.36.07-.12.05-.22.12-.31.21-.09.09-.16.19-.21.31-.05.12-.07.24-.07.36v38.05Z" fill="#fff" stroke-width="0"/>
  <path d="M37.34,40.99H9.74c-.39,0-.76-.15-1.04-.43s-.43-.64-.43-1.04V1.47c0-.19.04-.38.11-.56s.18-.34.32-.48c.14-.14.3-.25.48-.32C9.36.04,9.55,0,9.74,0h20.45c.14,0,.27.05.37.15l8.09,8.09c.1.1.15.23.15.37v30.92c0,.39-.15.76-.43,1.04-.28.28-.64.43-1.04.43h0ZM9.74,1.03c-.06,0-.11,0-.17.03s-.1.05-.14.1c-.04.04-.07.09-.09.14s-.03.11-.03.17v38.05c0,.12.04.23.13.31.08.08.19.13.31.13h27.59c.12,0,.23-.04.31-.13.08-.08.13-.19.13-.31V8.82l-7.8-7.79H9.74Z" fill="#1d1e1e" stroke-width="0"/>
  <path d="M30.19.99v7.2c0,.24.09.46.26.63s.39.26.63.26h7.2L30.19.99Z" fill="#702f8a" stroke-width="0"/>
  <path d="M38.27,9.12h-7.2c-.37,0-.73-.15-.99-.41s-.41-.62-.41-.99V.52c0-.21.13-.4.32-.48.19-.08.42-.04.56.11l8.09,8.09c.15.15.19.37.11.56s-.27.32-.48.32ZM30.7,1.76v5.96c0,.1.04.19.11.26s.16.11.26.11h5.95l-6.32-6.33Z" fill="#1d1e1e" stroke-width="0"/>
  <path d="M25.3,11.35h-11.52c-.3,0-.55.24-.55.55s.24.55.55.55h11.52c.3,0,.55-.24.55-.55s-.24-.55-.55-.55Z" fill="#1d1e1e" stroke-width="0"/>
  <path d="M33.28,16.66H13.78c-.3,0-.55.24-.55.55s.24.55.55.55h19.5c.3,0,.55-.24.55-.55s-.24-.55-.55-.55Z" fill="#1d1e1e" stroke-width="0"/>
  <path d="M33.28,21.99H13.78c-.3,0-.55.24-.55.55s.24.55.55.55h19.5c.3,0,.55-.24.55-.55s-.24-.55-.55-.55Z" fill="#1d1e1e" stroke-width="0"/>
  <path d="M33.2,27.74H14.07c-.3,0-.55.24-.55.55s.24.55.55.55h19.13c.3,0,.55-.24.55-.55s-.24-.55-.55-.55Z" fill="#1d1e1e" stroke-width="0"/>
  <path d="M33.2,32.77H14.07c-.3,0-.55.24-.55.55s.24.55.55.55h19.13c.3,0,.55-.24.55-.55s-.24-.55-.55-.55Z" fill="#1d1e1e" stroke-width="0"/>
  <polygon points="40.47 14.18 38.43 16.21 42.69 20.47 45.13 18.04 40.87 13.78 40.47 14.18" fill="#fff" stroke-width="0"/>
  <path d="M28.68,25.96l9.75-9.75,4.26,4.26-9.75,9.75-4.26-4.26Z" fill="#702f8a" stroke-width="0"/>
  <path d="M45.13,18.04l-4.26-4.26,1.42-1.42c.57-.56,1.33-.88,2.13-.88s1.56.32,2.13.89c.57.57.89,1.32.89,2.13s-.31,1.56-.88,2.13l-1.42,1.42h0Z" fill="#702f8a" stroke-width="0"/>
  <path d="M28.68,25.96l-2.08,6.34,6.34-2.08-4.26-4.26Z" fill="#f1eaf3" stroke-width="0"/>
  <path d="M28.68,25.96l9.75-9.75,2.13,2.13-9.75,9.75-2.13-2.13Z" fill="#9c59b2" stroke-width="0"/>
  <path d="M30.81,28.09l-4.21,4.21,2.08-6.35,2.13,2.13h0Z" fill="#fff" stroke-width="0"/>
  <path d="M32.94,30.8c-.15,0-.29-.06-.4-.17l-4.26-4.26c-.11-.11-.17-.25-.17-.4s.06-.3.17-.4l9.75-9.75c.22-.22.59-.22.81,0l4.26,4.26c.11.11.17.25.17.4s-.06.3-.17.4l-9.75,9.75c-.11.11-.26.17-.4.17h0ZM29.49,25.96l3.46,3.46,8.94-8.94-3.46-3.46-8.94,8.94Z" fill="#1d1e1e" stroke-width="0"/>
  <path d="M42.7,21.05c-.15,0-.29-.06-.4-.17l-4.26-4.26c-.11-.11-.17-.25-.17-.4s.06-.3.17-.4l2.44-2.44c.22-.22.59-.22.81,0l4.26,4.26c.11.11.17.25.17.4s-.06.3-.17.4l-2.44,2.44c-.11.11-.26.17-.4.17h0ZM39.25,16.21l3.46,3.46,1.63-1.63-3.46-3.46-1.63,1.63Z" fill="#1d1e1e" stroke-width="0"/>
  <path d="M26.6,32.88c-.15,0-.3-.06-.4-.17-.15-.15-.21-.38-.14-.58l2.08-6.34c.06-.19.22-.33.41-.38.2-.05.4,0,.54.15l4.26,4.26c.14.14.2.34.15.54-.05.19-.19.35-.38.41l-6.34,2.08c-.06.02-.12.03-.18.03ZM28.93,27.02l-1.44,4.4,4.4-1.44-2.96-2.96Z" fill="#1d1e1e" stroke-width="0"/>
  <path d="M43,15.91l-2.13-2.13,1.42-1.42c.28-.28.62-.5.98-.66.37-.15.76-.23,1.16-.23s.79.08,1.16.23.7.38.98.66l-3.56,3.56Z" fill="#9c59b2" stroke-width="0"/>
  <path d="M45.13,18.61c-.15,0-.29-.06-.4-.17l-4.26-4.26c-.11-.11-.17-.25-.17-.4s.06-.3.17-.4l1.42-1.42c.68-.68,1.57-1.05,2.53-1.05h0c.96,0,1.85.38,2.53,1.05.68.68,1.05,1.57,1.05,2.53s-.37,1.85-1.04,2.53l-1.42,1.42c-.11.11-.26.17-.4.17h0ZM41.68,13.77l3.46,3.46,1.02-1.02c.46-.46.71-1.08.71-1.72s-.26-1.26-.72-1.72c-.46-.46-1.08-.72-1.72-.72h0c-.65,0-1.26.25-1.72.71l-1.02,1.02Z" fill="#1d1e1e" stroke-width="0"/>
</svg>