<svg width="168" height="168" viewBox="0 0 168 168" fill="none" xmlns="http://www.w3.org/2000/svg">
    <g clip-path="url(#874bbmg6va)">
        <path d="M1 84.003A83.04 83.04 0 0 0 19.782 136.6a82.669 82.669 0 0 0 47.802 28.712 82.522 82.522 0 0 0 55.122-8.205 82.84 82.84 0 0 0 37.418-41.398 83.102 83.102 0 0 0 2.727-55.796 82.897 82.897 0 0 0-33.202-44.866A82.55 82.55 0 0 0 75.591 1.478 82.624 82.624 0 0 0 25.218 25.37 82.927 82.927 0 0 0 7.29 52.272 83.09 83.09 0 0 0 1 84.003z" fill="#F5F7FC"/>
        <path d="M84 168A84.053 84.053 0 0 1 0 84 84.052 84.052 0 0 1 84 0a84.052 84.052 0 0 1 84 84 84.053 84.053 0 0 1-84 84zM84 2.176a81.824 81.824 0 0 0-57.857 139.681 81.82 81.82 0 0 0 89.412 18.147 81.83 81.83 0 0 0 50.628-75.899 81.81 81.81 0 0 0-24.326-57.962A81.343 81.343 0 0 0 84 2.176z" fill="#E6EDF8"/>
        <path opacity=".16" d="M53 152.517c0 .66 3.264 1.297 9.066 1.767 5.8.47 13.681.716 21.884.716 8.202 0 16.083-.268 21.832-.727 5.749-.459 9.065-1.119 9.065-1.767 0-.649-3.264-1.298-9.065-1.768S92.111 150 83.95 150c-8.161 0-16.083.268-21.885.738-5.8.47-9.065 1.119-9.065 1.768v.011z" fill="#45413C"/>
        <path d="M155.938 40.593a8 8 0 0 0-2.3-5.586 7.683 7.683 0 0 0-2.516-1.711 7.597 7.597 0 0 0-2.973-.593H19.778a7.79 7.79 0 0 0-5.544 2.327 7.996 7.996 0 0 0-2.296 5.617v82.636h144v-82.69z" fill="#C3CFE1"/>
        <path d="M122.513 31.703H19.753a7.807 7.807 0 0 0-5.526 2.295 7.845 7.845 0 0 0-2.29 5.54v81.57l110.576-89.405z" fill="#DCE5F2"/>
        <path fill="#ECECEC" d="M17 38h134v86H17z"/>
        <rect x="28" y="87.539" width="112.11" height="27.344" rx="2" fill="#F9F9F9"/>
        <path fill="#ECECEC" d="M33.469 93.008h2.734v2.728h-2.734zM41.672 93.008h2.734v2.728h-2.734zM49.875 93.008h2.734v2.728h-2.734zM58.078 93.008h2.734v2.728h-2.734zM66.281 93.008h2.734v2.728h-2.734zM74.484 93.008h2.734v2.728h-2.734zM82.688 93.008h2.734v2.728h-2.734zM90.891 93.008h2.734v2.728h-2.734zM99.094 93.008h2.734v2.728h-2.734zM107.297 93.008h2.734v2.728h-2.734zM115.5 93.008h2.734v2.728H115.5zM123.703 93.008h2.734v2.728h-2.734zM131.906 93.008h2.734v2.728h-2.734zM33.469 99.844h2.734v2.728h-2.734zM41.672 99.844h2.734v2.728h-2.734zM49.875 99.844h2.734v2.728h-2.734zM58.078 99.844h2.734v2.728h-2.734zM66.281 99.844h2.734v2.728h-2.734zM74.484 99.844h2.734v2.728h-2.734zM82.688 99.844h2.734v2.728h-2.734zM90.891 99.844h2.734v2.728h-2.734zM99.094 99.844h2.734v2.728h-2.734zM107.297 99.844h2.734v2.728h-2.734zM115.5 99.844h2.734v2.728H115.5zM123.703 99.844h2.734v2.728h-2.734zM131.906 99.844h2.734v2.728h-2.734zM33.469 106.68h2.734v2.728h-2.734zM41.672 106.68h2.734v2.728h-2.734zM49.875 106.68h2.734v2.728h-2.734zM58.078 106.68h2.734v2.728h-2.734zM66.281 106.68h2.734v2.728h-2.734zM74.484 106.68h2.734v2.728h-2.734zM82.688 106.68h2.734v2.728h-2.734zM90.891 106.68h2.734v2.728h-2.734zM99.094 106.68h2.734v2.728h-2.734zM107.297 106.68h2.734v2.728h-2.734zM115.5 106.68h2.734v2.728H115.5zM123.703 106.68h2.734v2.728h-2.734zM131.906 106.68h2.734v2.728h-2.734z"/>
        <path fill="#F9F9F9" d="M52 64.297h63.444v2.44H52zM46 70.805h76.459v2.44H46zM52 77.313h63.444v2.44H52zM17 38h134v7H17z"/>
        <path fill="#E4E4E4" d="M17 51h134v9H17z"/>
        <path d="M17 38h134v86H17V38z" fill="#E8E8E8" fill-opacity=".4" style="mix-blend-mode:multiply"/>
        <path fill-rule="evenodd" clip-rule="evenodd" d="M11.063 124h2.4V39a5.6 5.6 0 0 1 5.6-5.6h129.999a5.6 5.6 0 0 1 5.601 5.6v85h2.399V39a8 8 0 0 0-8-8h-130a8 8 0 0 0-8 8v85z" fill="#45413C"/>
        <path fill-rule="evenodd" clip-rule="evenodd" d="M16.297 122.945h2.4v-83.6h131.2v83.6h2.4v-84a2 2 0 0 0-2-2h-132a2 2 0 0 0-2 2v84z" fill="#45413C"/>
        <path d="M163.091 124.75H4.865a3.771 3.771 0 0 0-2.724 1.156A3.935 3.935 0 0 0 1 128.532v3.824h165.956v-3.824a3.94 3.94 0 0 0-1.142-2.626 3.82 3.82 0 0 0-2.723-1.156z" fill="#BAC8DC"/>
        <path d="M166.344 131.727h-165a14.653 14.653 0 0 0 5.484 5.964 13.998 13.998 0 0 0 7.716 2.028h138.651c2.696.089 5.36-.614 7.684-2.029a14.522 14.522 0 0 0 5.439-5.963h.026z" fill="#EAEEF7"/>
        <path fill-rule="evenodd" clip-rule="evenodd" d="M4.865 122.742h158.269a4.85 4.85 0 0 1 1.962.422 5.032 5.032 0 0 1 1.635 1.173 5.447 5.447 0 0 1 1.465 3.539l.001.044v4.022a1.2 1.2 0 0 1-1.2 1.2h-166a1.2 1.2 0 0 1-1.2-1.2v-4.066a5.446 5.446 0 0 1 1.464-3.537 4.989 4.989 0 0 1 1.635-1.179c.62-.277 1.29-.42 1.969-.418zm-.007 2.4a2.398 2.398 0 0 0-.984.209 2.592 2.592 0 0 0-.851.618l-.014.014a3.044 3.044 0 0 0-.812 1.961v2.798h163.6v-2.798a3.044 3.044 0 0 0-.813-1.961l-.008-.009a2.636 2.636 0 0 0-.858-.618 2.434 2.434 0 0 0-.988-.214H4.858z" fill="#45413C"/>
        <path fill-rule="evenodd" clip-rule="evenodd" d="M.397 131.505a1.2 1.2 0 0 1 1.64.439c1.134 1.964 2.875 3.618 5.037 4.757 2.162 1.138 4.648 1.709 7.169 1.637l.034-.001H153.77l.035.001c2.509.072 4.984-.498 7.133-1.637 2.149-1.138 3.874-2.791 4.992-4.751a1.198 1.198 0 0 1 1.042-.606h.026a1.2 1.2 0 0 1 .902 1.992c-1.357 2.291-3.382 4.185-5.839 5.486-2.52 1.335-5.4 1.996-8.308 1.915H14.294c-2.917.081-5.807-.579-8.339-1.913-2.537-1.336-4.622-3.3-5.997-5.68a1.2 1.2 0 0 1 .439-1.639z" fill="#45413C"/>
        <path d="M95.995 92a3.997 3.997 0 0 1-2.47 3.695 4.005 4.005 0 0 1-1.532.305h-15.99A4.005 4.005 0 0 1 72 92v-6a3.998 3.998 0 0 1 4.003-4h15.994A4.004 4.004 0 0 1 96 86l-.005 6z" fill="#D5F5FF" stroke="#45413C" stroke-width="2.8" stroke-linecap="round" stroke-linejoin="round"/>
        <path d="M93.995 107a4 4 0 0 1-4.002 4h-11.99a4.005 4.005 0 0 1-3.698-2.469A4.002 4.002 0 0 1 74 107v-1a4.002 4.002 0 0 1 4.002-4h11.996A4 4 0 0 1 94 106l-.005 1z" fill="#B8EEFF" stroke="#45413C" stroke-width="2.8" stroke-linecap="round" stroke-linejoin="round"/>
        <path d="M109.97 52.096c.754 0 1.492-.214 2.131-.616a4.055 4.055 0 0 0 1.486-1.658 4.094 4.094 0 0 0-.427-4.278L87.174 11.578a4.038 4.038 0 0 0-1.413-1.162 4.002 4.002 0 0 0-4.963 1.162L54.833 45.544a4.097 4.097 0 0 0-.42 4.27c.332.68.845 1.253 1.482 1.655a4.006 4.006 0 0 0 2.125.617h9.869v14.781a8.17 8.17 0 0 0 2.361 5.751A8.027 8.027 0 0 0 75.95 75h16.108a8.026 8.026 0 0 0 5.701-2.382 8.169 8.169 0 0 0 2.361-5.75V52.095h9.85z" fill="#fff" stroke="#45413C" stroke-width="2.8" stroke-linecap="round" stroke-linejoin="round"/>
    </g>
    <defs>
        <clipPath id="874bbmg6va">
            <path fill="#fff" d="M0 0h168v168H0z"/>
        </clipPath>
    </defs>
</svg>
