<svg width="41" height="16" viewBox="0 0 41 16" fill="none" xmlns="http://www.w3.org/2000/svg">
<path d="M6.49844 15L16.4984 15L15.648 16H5.64844L6.49844 15Z" fill="#1E1E1E"/>
<path d="M16.3153 3.15294L12.6305 0.112941C12.4308 -0.0470588 12.1412 -0.0370588 11.9615 0.142941L4.63199 7.29294C4.63199 7.29294 4.60203 7.33294 4.59204 7.35294C4.57207 7.37294 4.56209 7.39294 4.5521 7.41294C4.52214 7.47294 4.50217 7.54294 4.49219 7.61294C4.49219 7.62294 4.49219 7.63294 4.49219 7.64294L4.51216 10.3829C4.51216 10.5329 4.58206 10.6729 4.6919 10.7629L7.39803 12.9929C7.4879 13.0629 7.59775 13.1029 7.71757 13.1029C7.74753 13.1029 7.77749 13.1029 7.80745 13.1029L10.4936 12.5929C10.4936 12.5929 10.5136 12.5829 10.5236 12.5829C10.5935 12.5629 10.6534 12.5329 10.7133 12.4829C10.7333 12.4629 10.7532 12.4529 10.7632 12.4329C10.7832 12.4129 10.8032 12.4029 10.8131 12.3829L16.4151 3.82294C16.5549 3.61294 16.515 3.32294 16.3153 3.16294V3.15294ZM5.50075 10.1429V8.70294L8.59632 11.2629L9.25537 11.8029L7.84739 12.0729L5.50075 10.1429ZM10.2839 11.3629L5.73042 7.60294L12.341 1.17294L15.3267 3.63294L10.2739 11.3629H10.2839Z" fill="#1E1E1E"/>
<path d="M0.5 16.0012H4.99357L6.99072 13.5013L4.30456 11.2812L0.5 16.0012Z" fill="#1E1E1E"/>
<path fill-rule="evenodd" clip-rule="evenodd" d="M25.5 1H39.5L39.5 10.5H36.5C35.6716 10.5 35 11.1716 35 12V15L25.5 15V1ZM36 14.5144L39.0144 11.5H36.5C36.2239 11.5 36 11.7239 36 12V14.5144ZM24.5 1C24.5 0.447715 24.9477 0 25.5 0H39.5C40.0523 0 40.5 0.447715 40.5 1V11.0144C40.5 11.2796 40.3948 11.5338 40.2073 11.7213L36.2213 15.7073C36.0338 15.8948 35.7796 16 35.5144 16H25.5C24.9477 16 24.5 15.5523 24.5 15V1ZM37 4C37 4.27614 36.7761 4.5 36.5 4.5H28.5C28.2239 4.5 28 4.27614 28 4C28 3.72386 28.2239 3.5 28.5 3.5H36.5C36.7761 3.5 37 3.72386 37 4ZM36.5 7.5C36.7761 7.5 37 7.27614 37 7C37 6.72386 36.7761 6.5 36.5 6.5H28.5C28.2239 6.5 28 6.72386 28 7C28 7.27614 28.2239 7.5 28.5 7.5H36.5Z" fill="#1E1E1E"/>
</svg>
