<?xml version="1.0" encoding="UTF-8"?>
<svg id="Layer_1" data-name="Layer 1" xmlns="http://www.w3.org/2000/svg" viewBox="0 0 48 48">
  <path d="M44.62,1.88H3.8c-1.67,0-3.03,1.35-3.03,3.02v32.51c0,1.67,1.35,3.02,3.02,3.02h40.83c1.67,0,3.02-1.35,3.02-3.02V4.9c0-1.67-1.35-3.02-3.02-3.02Z" fill="#f1eaf3" stroke-width="0"/>
  <path d="M44.62,1.88H3.8c-1.67,0-3.03,1.35-3.03,3.02v32.51c0,1.67,1.35,3.02,3.02,3.02h40.83c1.67,0,3.02-1.35,3.02-3.02V4.9c0-1.67-1.35-3.02-3.02-3.02Z" fill="#fff" stroke-width="0"/>
  <path d="M44.62,41H3.8c-1.98,0-3.59-1.61-3.59-3.59V4.9C.21,2.92,1.82,1.32,3.8,1.32h40.82c1.98,0,3.59,1.61,3.59,3.59v32.5c0,1.98-1.61,3.59-3.59,3.59ZM3.8,2.44c-1.36,0-2.46,1.1-2.46,2.46v32.51c0,1.36,1.1,2.46,2.46,2.46h40.82c1.36,0,2.46-1.1,2.46-2.46V4.9c0-1.36-1.1-2.46-2.46-2.46H3.8Z" fill="#1d1e1e" stroke-width="0"/>
  <path d="M12.96,25.78c0,1.48.29,2.94.86,4.3s1.39,2.6,2.44,3.65,2.28,1.87,3.65,2.44c1.36.57,2.83.86,4.31.86s2.94-.29,4.3-.86c1.36-.57,2.6-1.39,3.65-2.44,1.05-1.05,1.87-2.28,2.44-3.65.57-1.36.86-2.83.86-4.3s-.29-2.94-.86-4.3c-.57-1.36-1.39-2.61-2.44-3.65-1.04-1.04-2.28-1.87-3.65-2.44-1.36-.57-2.83-.86-4.3-.86s-2.94.29-4.31.86c-1.36.57-2.6,1.39-3.65,2.44-1.04,1.04-1.87,2.28-2.44,3.65-.57,1.36-.86,2.83-.86,4.3h0Z" fill="#f1eaf3" stroke-width="0"/>
  <path d="M13.17,27.95c-.32-1.63-.27-3.31.13-4.91.41-1.61,1.16-3.11,2.21-4.39,1.05-1.28,2.37-2.32,3.87-3.03,1.5-.71,3.13-1.08,4.79-1.09,1.66,0,3.3.36,4.8,1.06,1.5.7,2.83,1.73,3.89,3.01,1.06,1.28,1.82,2.77,2.24,4.38.41,1.61.47,3.28.16,4.91-.5-2.56-1.88-4.87-3.9-6.53-2.02-1.66-4.55-2.56-7.16-2.55-2.61,0-5.14.92-7.15,2.59-2.01,1.67-3.38,3.98-3.87,6.55" fill="#fff" stroke-width="0"/>
  <path d="M24.21,37.6c-1.56,0-3.08-.3-4.52-.9-1.44-.6-2.73-1.46-3.83-2.56-1.1-1.1-1.96-2.39-2.56-3.83-.6-1.44-.9-2.96-.9-4.52s.3-3.08.9-4.52c.6-1.44,1.46-2.73,2.56-3.83,1.1-1.1,2.39-1.96,3.83-2.56,2.88-1.19,6.16-1.19,9.04,0,1.44.6,2.73,1.46,3.83,2.56,1.1,1.1,1.96,2.39,2.56,3.83.6,1.44.9,2.96.9,4.52s-.3,3.08-.9,4.52c-.6,1.44-1.46,2.73-2.56,3.83-1.1,1.1-2.39,1.96-3.83,2.56-1.44.6-2.96.9-4.52.9ZM24.21,15.1c-1.41,0-2.79.27-4.09.81-1.3.54-2.47,1.32-3.47,2.32-1,1-1.78,2.16-2.32,3.47-.54,1.3-.81,2.68-.81,4.09s.27,2.79.81,4.09c.54,1.3,1.32,2.47,2.32,3.47s2.16,1.78,3.47,2.32c2.61,1.08,5.57,1.08,8.18,0,1.3-.54,2.47-1.32,3.47-2.32,1-1,1.78-2.16,2.32-3.47.54-1.3.81-2.68.81-4.09s-.27-2.79-.81-4.09c-.54-1.3-1.32-2.47-2.32-3.47s-2.16-1.78-3.47-2.32c-1.3-.54-2.68-.81-4.09-.81Z" fill="#1d1e1e" stroke-width="0"/>
  <path d="M29.43,21.02c.12.12.21.25.27.4.06.15.09.31.09.48v4.95c0,.16-.03.33-.09.48s-.15.29-.27.41c-.12.12-.25.21-.41.27s-.31.1-.48.1c-.16,0-.33-.03-.48-.1-.15-.06-.29-.16-.41-.27-.12-.12-.21-.25-.27-.41-.06-.15-.09-.32-.09-.48v-1.58l-5.99,5.99c-.28.28-.66.44-1.06.44s-.78-.16-1.06-.44-.44-.66-.44-1.06.16-.78.44-1.06l5.99-5.99h-1.58c-.33,0-.65-.13-.88-.37-.23-.23-.36-.55-.36-.88s.13-.65.36-.88c.23-.23.55-.37.88-.37h4.95c.16,0,.33.03.48.09s.29.16.4.27h.01Z" fill="#702f8a" stroke-width="0"/>
  <path d="M20.24,32c-.55,0-1.07-.21-1.46-.6s-.6-.92-.6-1.46.21-1.07.6-1.46l5.03-5.03h-.22c-.48,0-.94-.2-1.28-.53-.34-.34-.53-.79-.53-1.28s.19-.94.53-1.28c.33-.34.8-.53,1.27-.53h4.95c.26.01.47.05.69.14.22.09.42.22.59.39s.3.37.39.59.14.46.14.69v4.95c0,.24-.04.47-.13.69-.09.22-.22.42-.39.59s-.36.3-.59.39c-.44.18-.95.18-1.39,0-.22-.09-.42-.22-.59-.4-.17-.17-.3-.37-.39-.59s-.14-.46-.13-.7v-.22l-5.03,5.03c-.38.38-.91.6-1.46.6v.02ZM25.17,22.32h1.36l-6.95,6.95c-.18.18-.27.41-.27.66s.1.49.27.66c.35.35.97.35,1.32,0l6.95-6.95v2.93c0,.09.02.18.05.27.03.08.08.16.15.22.07.07.14.12.22.15.17.07.36.07.53,0,.09-.04.16-.08.22-.15.07-.07.12-.14.15-.22.03-.08.05-.17.05-.26v-4.95c0-.09-.02-.18-.05-.26-.03-.08-.08-.16-.15-.22h0c-.06-.07-.14-.12-.22-.15-.08-.03-.17-.05-.26-.05h-4.95c-.18,0-.35.07-.48.2-.13.13-.2.3-.2.48s.07.35.2.48c.13.13.3.2.48.2h1.58Z" fill="#1d1e1e" stroke-width="0"/>
  <path d="M44.62,1.88H3.8c-.8,0-1.57.32-2.14.89-.57.57-.89,1.34-.89,2.14v6.05h46.88v-6.06c0-.4-.08-.79-.23-1.16-.15-.37-.37-.7-.66-.98-.28-.28-.61-.5-.98-.66-.37-.15-.76-.23-1.16-.23h0Z" fill="#f1eaf3" stroke-width="0"/>
  <path d="M47.65,11.51H.77c-.31,0-.56-.25-.56-.56v-6.05c0-.96.37-1.86,1.05-2.54.68-.68,1.58-1.05,2.54-1.05h40.82c.47,0,.94.09,1.37.27.44.18.83.44,1.16.78.33.33.6.73.78,1.16.18.44.27.9.27,1.37v6.05c0,.31-.25.56-.56.56h.01ZM1.33,10.39h45.76v-5.49c0-.33-.06-.64-.19-.94-.12-.3-.3-.57-.53-.8s-.5-.41-.8-.53-.62-.19-.94-.19H3.8c-.66,0-1.28.26-1.74.72-.46.47-.72,1.08-.72,1.74v5.49h0Z" fill="#1d1e1e" stroke-width="0"/>
  <path d="M5.31,7.93c.84,0,1.51-.68,1.51-1.51s-.68-1.51-1.51-1.51-1.51.68-1.51,1.51.68,1.51,1.51,1.51Z" fill="#702f8a" stroke-width="0"/>
  <path d="M5.31,8.49c-1.14,0-2.07-.93-2.07-2.07s.93-2.08,2.07-2.08,2.07.93,2.07,2.08-.93,2.07-2.07,2.07ZM5.31,5.47c-.52,0-.95.43-.95.95s.43.95.95.95.95-.43.95-.95-.43-.95-.95-.95Z" fill="#1d1e1e" stroke-width="0"/>
  <path d="M11.36,7.93c.84,0,1.51-.68,1.51-1.51s-.68-1.51-1.51-1.51-1.51.68-1.51,1.51.68,1.51,1.51,1.51Z" fill="#9c59b2" stroke-width="0"/>
  <path d="M11.36,8.49c-1.14,0-2.07-.93-2.07-2.07s.93-2.08,2.07-2.08,2.07.93,2.07,2.08-.93,2.07-2.07,2.07ZM11.36,5.47c-.52,0-.95.43-.95.95s.43.95.95.95.95-.43.95-.95-.43-.95-.95-.95Z" fill="#1d1e1e" stroke-width="0"/>
  <path d="M17.41,7.93c.84,0,1.51-.68,1.51-1.51s-.68-1.51-1.51-1.51-1.51.68-1.51,1.51.68,1.51,1.51,1.51Z" fill="#9c59b2" stroke-width="0"/>
  <path d="M17.4,8.49c-1.14,0-2.07-.93-2.07-2.07s.93-2.08,2.07-2.08,2.07.93,2.07,2.08-.93,2.07-2.07,2.07ZM17.4,5.47c-.52,0-.95.43-.95.95s.43.95.95.95.95-.43.95-.95-.43-.95-.95-.95Z" fill="#1d1e1e" stroke-width="0"/>
</svg>