<svg width="32" height="32" viewBox="0 0 32 32" fill="none" xmlns="http://www.w3.org/2000/svg">
    <path d="M14.121 22.37c-.14 0-.29-.05-.4-.16-.54-.51-.96-1.12-1.25-1.8-.29-.68-.44-1.41-.44-2.15a.58.58 0 0 1 1.16 0 4.299 4.299 0 0 0 1.33 3.1c.23.22.24.59.02.82-.11.12-.27.18-.42.18v.01z" fill="#FEDB00"/>
    <path d="M12.61 18.85H11.1c-.82 0-1.62-.33-2.19-.91-.59-.58-.91-1.36-.91-2.19 0-.83.32-1.61.91-2.19.58-.58 1.38-.91 2.19-.91h1.51c.32 0 .58.26.58.58v5.04c0 .32-.26.58-.58.58zm-1.51-5.04c-.51 0-1.01.21-1.37.57-.36.36-.57.85-.57 1.37 0 .52.2 1 .57 1.37.37.37.86.57 1.37.57h.93v-3.87h-.93v-.01z" fill="#FEDB00"/>
    <path d="M21.671 21.87c-.11 0-.23-.03-.32-.1l-.76-.51a14.346 14.346 0 0 0-7.98-2.42.58.58 0 0 1-.58-.58v-5.03c0-.32.26-.58.58-.58 2.85 0 5.61-.84 7.98-2.42l.76-.51c.18-.12.41-.13.6-.03s.31.3.31.51v11.09a.582.582 0 0 1-.59.58zm-8.48-4.18c2.81.1 5.53.96 7.9 2.51v-8.9c-2.37 1.54-5.08 2.4-7.9 2.51v3.89-.01zM23.42 17.98a.58.58 0 0 1-.58-.58v-2.91a.58.58 0 0 1 1.16 0v2.91c0 .32-.26.58-.58.58z" fill="#FEDB00"/>
    <circle cx="16" cy="16" r="15.5" stroke="#FEDB00"/>
</svg>
