<svg width="16" height="20" viewBox="0 0 16 20" fill="none" xmlns="http://www.w3.org/2000/svg">
    <path fill-rule="evenodd" clip-rule="evenodd" d="M2 3.4A1.4 1.4 0 0 1 3.4 2h9.2A1.4 1.4 0 0 1 14 3.4v14.648a.8.8 0 0 1-1.37.562L8 13.91l-4.63 4.7A.8.8 0 0 1 2 18.047V3.4z" fill="#D9D9D9"/>
    <path fill-rule="evenodd" clip-rule="evenodd" d="m8 12.2 4.8 4.872V3.4a.2.2 0 0 0-.2-.2H3.4a.2.2 0 0 0-.2.2v13.672L8 12.2zm4.63 6.41a.8.8 0 0 0 1.37-.562V3.4A1.4 1.4 0 0 0 12.6 2H3.4A1.4 1.4 0 0 0 2 3.4v14.648a.8.8 0 0 0 1.37.562L8 13.91l4.63 4.7z" fill="#1E1E1E"/>
</svg>
