<?xml version="1.0" encoding="UTF-8"?>
<svg id="Layer_1" data-name="Layer 1" xmlns="http://www.w3.org/2000/svg" viewBox="0 0 48 48">
  <rect x="11.5" y="16.78" width="24.22" height="24.22" rx="1.91" ry="1.91" fill="#1d1e1e" stroke-width="0"/>
  <path d="M18.81,37.31h-3.58v-11.53h3.58v11.53ZM17.02,24.17c-1.14,0-2.06-.93-2.06-2.08s.92-2.08,2.06-2.08,2.06.93,2.06,2.08-.92,2.08-2.06,2.08ZM32.24,37.31h-3.49v-6.12c0-3.64-4.2-3.21-4.1,0v6.12h-3.55v-11.53h3.44v1.44c.53-.6.99-1.2,1.82-1.44,3.05-.91,5.87.4,5.87,4.15v7.38Z" fill="#fff" stroke-width="0"/>
</svg>