<?xml version="1.0" encoding="UTF-8"?>
<svg id="Layer_1" data-name="Layer 1" xmlns="http://www.w3.org/2000/svg" viewBox="0 0 48 48">
  <path d="M7.18.52h26.1c.58,0,1.13.23,1.54.64s.64.96.64,1.54v33.7c0,.58-.23,1.13-.64,1.54s-.96.64-1.54.64H7.18c-.58,0-1.13-.23-1.54-.64s-.64-.96-.64-1.54V2.7c0-.58.23-1.13.64-1.54s.96-.64,1.54-.64h0Z" fill="#f1eaf3" stroke-width="0"/>
  <path d="M33.27.52H7.17c-.58,0-1.13.23-1.54.64s-.64.96-.64,1.54v1.63c0-.58.23-1.13.64-1.54.41-.41.96-.64,1.54-.64h26.1c.58,0,1.13.23,1.54.64.41.41.64.96.64,1.54v-1.63c0-.58-.23-1.13-.64-1.54s-.96-.64-1.54-.64Z" fill="#fff" stroke-width="0"/>
  <path d="M33.27,39.11H7.18c-.72,0-1.4-.28-1.91-.79-.51-.51-.79-1.19-.79-1.91V2.7c0-.72.28-1.4.79-1.91s1.19-.79,1.91-.79h26.1c.72,0,1.4.28,1.91.79.51.51.79,1.19.79,1.91v33.7c0,.72-.28,1.4-.79,1.91-.51.51-1.19.79-1.91.79h-.01ZM7.18,1.06c-.44,0-.85.17-1.16.48-.31.31-.48.72-.48,1.16v33.7c0,.44.17.85.48,1.16.31.31.72.48,1.16.48h26.1c.44,0,.85-.17,1.16-.48s.48-.72.48-1.16V2.7c0-.44-.17-.85-.48-1.16s-.72-.48-1.16-.48H7.18Z" fill="#1d1e1e" stroke-width="0"/>
  <path d="M33.89,38.58H6.56c-.2,0-.41-.04-.6-.12s-.36-.19-.5-.34c-.14-.14-.26-.32-.34-.5-.08-.19-.12-.39-.12-.6V12.48h30.45v24.54c0,.2-.04.41-.12.6-.08.19-.19.36-.34.5s-.32.26-.5.34c-.19.08-.39.12-.6.12h0Z" fill="#fff" stroke-width="0"/>
  <path d="M33.89,39.11H6.56c-.28,0-.54-.05-.8-.16s-.48-.26-.68-.45c-.2-.2-.35-.43-.45-.68-.11-.25-.16-.52-.16-.8V12.48c0-.29.24-.53.53-.53h30.45c.29,0,.53.24.53.53v24.54c0,.28-.05.55-.16.8-.1.25-.26.48-.45.68-.2.19-.42.35-.68.45-.26.11-.52.16-.8.16ZM5.53,13.01v24.01c0,.14.03.27.08.39s.13.24.22.33.21.17.33.22c.12.05.25.08.39.08h27.34c.14,0,.27-.03.39-.08.12-.05.24-.13.33-.22.09-.1.17-.21.22-.33.05-.12.08-.26.08-.39V13.01H5.53Z" fill="#1d1e1e" stroke-width="0"/>
  <path d="M12.61,17.37c0,.21-.04.43-.12.62-.08.2-.2.38-.35.53-.15.15-.33.27-.53.35s-.41.12-.62.12h-1.09c-.43,0-.83-.18-1.13-.49-.3-.3-.47-.71-.47-1.14s.17-.84.47-1.14c.3-.3.71-.48,1.13-.49h1.09c.43,0,.85.17,1.15.48.31.31.48.72.48,1.15h-.01Z" fill="#702f8a" stroke-width="0"/>
  <path d="M9.89,17.13h1.09c.31,0,.61.09.87.25.26.17.47.4.6.68.12-.25.18-.52.16-.8-.02-.28-.1-.54-.25-.77s-.35-.42-.59-.56c-.24-.13-.51-.2-.79-.2h-1.09c-.28,0-.55.07-.79.2s-.45.32-.59.56c-.15.23-.23.5-.25.77s.04.55.16.8c.13-.28.34-.52.6-.68.26-.17.56-.25.87-.25h0Z" fill="#9c59b2" stroke-width="0"/>
  <path d="M10.98,19.54h-1.09c-.58-.01-1.11-.24-1.51-.65-.4-.41-.62-.95-.62-1.52s.22-1.11.62-1.51c.4-.41.93-.64,1.5-.65h1.1c.58,0,1.12.23,1.53.63.41.41.63.95.63,1.53,0,.29-.06.56-.16.83-.11.26-.27.5-.47.7s-.44.36-.7.47c-.26.11-.54.16-.83.16h0ZM9.89,16.28c-.28,0-.55.12-.75.33s-.31.48-.31.77.11.56.31.77c.2.21.47.32.76.33h1.08c.14,0,.29-.03.42-.08s.25-.13.36-.24c.1-.1.18-.22.24-.36.05-.13.08-.27.08-.42,0-.29-.12-.57-.32-.78-.21-.21-.48-.32-.78-.32h-1.09Z" fill="#1d1e1e" stroke-width="0"/>
  <path d="M19.13,17.37c0,.21-.04.43-.12.62-.08.2-.2.38-.35.53-.15.15-.33.27-.53.35s-.41.12-.62.12h-1.09c-.43,0-.83-.18-1.13-.49-.3-.3-.47-.71-.47-1.14s.17-.84.47-1.14c.3-.3.71-.48,1.13-.49h1.09c.43,0,.85.17,1.15.48.31.31.48.72.48,1.15h0Z" fill="#702f8a" stroke-width="0"/>
  <path d="M16.41,17.13h1.09c.31,0,.61.09.87.25.26.17.47.4.6.68.12-.25.18-.52.16-.8-.02-.28-.1-.54-.25-.77s-.35-.42-.59-.56c-.24-.13-.51-.2-.79-.2h-1.09c-.28,0-.55.07-.79.2-.24.13-.45.32-.59.56-.15.23-.23.5-.25.77s.04.55.16.8c.13-.28.34-.52.6-.68.26-.17.56-.25.87-.25h0Z" fill="#9c59b2" stroke-width="0"/>
  <path d="M17.5,19.54h-1.09c-.58-.01-1.11-.24-1.51-.65s-.62-.95-.62-1.52.22-1.11.62-1.51c.4-.41.93-.64,1.5-.65h1.1c.58,0,1.12.23,1.53.63.4.4.63.96.63,1.53,0,.29-.06.56-.16.83-.11.26-.27.5-.47.7-.2.2-.44.36-.7.47-.26.11-.54.16-.83.16h0ZM16.41,16.28c-.28,0-.55.12-.75.33s-.31.48-.31.77.11.56.31.77c.2.21.47.32.76.33h1.08c.14,0,.29-.03.42-.08s.25-.14.36-.24c.1-.1.18-.22.24-.36.05-.13.08-.27.08-.42,0-.29-.12-.57-.32-.78-.21-.21-.48-.32-.78-.32h-1.09Z" fill="#1d1e1e" stroke-width="0"/>
  <path d="M25.66,17.37c0,.21-.04.43-.12.62-.08.2-.2.38-.35.53s-.33.27-.53.35-.41.12-.62.12h-1.09c-.43,0-.83-.18-1.13-.49-.3-.3-.47-.71-.47-1.14s.17-.84.47-1.14c.3-.3.71-.48,1.13-.49h1.09c.43,0,.85.17,1.15.48.31.31.48.72.48,1.15h0Z" fill="#702f8a" stroke-width="0"/>
  <path d="M22.94,17.13h1.09c.31,0,.61.09.87.25.26.17.47.4.6.68.12-.25.18-.52.16-.8-.02-.28-.1-.54-.25-.77s-.35-.42-.59-.56c-.24-.13-.51-.2-.79-.2h-1.09c-.43,0-.85.17-1.15.48-.31.31-.48.72-.48,1.15,0,.24.06.48.16.7.13-.28.34-.52.6-.68.26-.17.56-.25.87-.25Z" fill="#9c59b2" stroke-width="0"/>
  <path d="M24.03,19.54h-1.09c-.58-.01-1.11-.24-1.51-.65s-.62-.95-.62-1.52.22-1.11.62-1.51c.4-.41.93-.64,1.5-.65h1.1c.58,0,1.12.23,1.53.63.41.41.63.95.63,1.53h0c0,.29-.05.56-.16.83-.11.26-.27.5-.47.7s-.44.36-.7.47c-.26.11-.54.16-.83.16h0ZM22.93,16.28c-.28,0-.55.12-.75.33s-.31.48-.31.77.11.56.31.77c.2.21.47.32.76.33h1.08c.14,0,.29-.03.42-.08s.25-.13.36-.24c.1-.1.18-.22.24-.36.06-.13.08-.27.08-.42h0c0-.29-.11-.57-.32-.78-.21-.21-.48-.32-.78-.32h-1.09ZM26.19,17.38" fill="#1d1e1e" stroke-width="0"/>
  <path d="M32.19,17.37c0,.21-.04.43-.12.62-.08.2-.2.38-.35.53-.15.15-.33.27-.53.35-.2.08-.41.12-.62.12h-1.09c-.43,0-.83-.18-1.13-.49-.3-.3-.47-.71-.47-1.14s.17-.84.47-1.14c.3-.3.71-.48,1.13-.49h1.09c.43,0,.85.17,1.15.48.31.31.48.72.48,1.15h-.01Z" fill="#702f8a" stroke-width="0"/>
  <path d="M29.47,17.13h1.09c.31,0,.61.09.87.25.26.17.47.4.6.68.12-.25.18-.52.16-.8-.02-.28-.1-.54-.25-.77s-.35-.42-.59-.56c-.24-.13-.51-.2-.79-.2h-1.09c-.43,0-.85.17-1.15.48-.31.31-.48.72-.48,1.15,0,.24.06.48.16.7.13-.28.34-.52.6-.68.26-.17.56-.25.87-.25h0Z" fill="#9c59b2" stroke-width="0"/>
  <path d="M30.55,19.54h-1.09c-.58-.01-1.11-.24-1.51-.65s-.62-.95-.62-1.52.22-1.11.62-1.51c.4-.41.93-.64,1.5-.65h1.1c.58,0,1.12.23,1.53.63.4.4.63.96.63,1.53,0,.29-.06.56-.16.83-.11.26-.27.5-.47.7s-.44.36-.7.47c-.26.11-.54.16-.83.16h0ZM29.46,16.28c-.28,0-.55.12-.75.33s-.31.48-.31.77.11.56.31.77c.2.21.47.32.76.33h1.08c.14,0,.29-.03.42-.08.13-.05.25-.13.36-.24.1-.1.18-.22.24-.36.06-.13.08-.28.08-.42,0-.29-.12-.57-.32-.78-.21-.21-.48-.32-.78-.32h-1.09Z" fill="#1d1e1e" stroke-width="0"/>
  <path d="M32.19,22.82c0,.21-.04.43-.12.62-.08.2-.2.38-.35.53-.15.15-.33.27-.53.35-.2.08-.41.12-.62.12h-1.09c-.43,0-.83-.18-1.13-.49-.3-.3-.47-.71-.47-1.14s.17-.84.47-1.14.71-.48,1.13-.49h1.09c.43,0,.85.17,1.15.48.31.31.48.72.48,1.15h-.01Z" fill="#702f8a" stroke-width="0"/>
  <path d="M29.47,22.58h1.09c.31,0,.61.09.87.25.26.17.47.4.6.68.12-.25.18-.52.16-.8-.02-.27-.1-.54-.25-.77s-.35-.42-.59-.56c-.24-.13-.51-.2-.79-.2h-1.09c-.43,0-.85.17-1.15.48-.31.31-.48.72-.48,1.15,0,.24.06.48.16.7.13-.28.34-.52.6-.68.26-.17.56-.25.87-.25h0Z" fill="#e3cceb" stroke-width="0"/>
  <path d="M30.55,24.98h-1.09c-.58-.01-1.11-.24-1.51-.65s-.62-.94-.62-1.51.22-1.11.62-1.51c.4-.41.93-.64,1.5-.65h1.1c.57,0,1.13.23,1.53.63.41.41.63.95.63,1.53,0,.29-.06.56-.16.83-.11.26-.27.5-.47.7s-.44.36-.7.47c-.26.11-.54.17-.83.17h0ZM29.46,21.72c-.28,0-.55.12-.75.33s-.31.48-.31.77.11.56.31.77c.2.21.47.32.76.33h1.08c.14,0,.29-.03.42-.08.13-.06.25-.14.36-.24.1-.1.18-.22.24-.36.06-.14.08-.28.08-.42,0-.29-.12-.57-.32-.78-.2-.2-.49-.32-.78-.32h-1.09Z" fill="#1d1e1e" stroke-width="0"/>
  <path d="M12.61,22.82c0,.21-.04.43-.12.62-.08.2-.2.38-.35.53-.15.15-.33.27-.53.35s-.41.12-.62.12h-1.09c-.43,0-.83-.18-1.13-.49-.3-.3-.47-.71-.47-1.14s.17-.84.47-1.14.71-.48,1.13-.49h1.09c.43,0,.85.17,1.15.48.31.31.48.72.48,1.15h-.01Z" fill="#702f8a" stroke-width="0"/>
  <path d="M9.89,22.58h1.09c.31,0,.61.09.87.25.26.17.47.4.6.68.12-.25.18-.52.16-.8-.02-.27-.1-.54-.25-.77s-.35-.42-.59-.56c-.24-.13-.51-.2-.79-.2h-1.09c-.28,0-.55.07-.79.2-.24.13-.45.32-.59.56-.15.23-.23.5-.25.77-.02.28.04.55.16.8.13-.28.34-.52.6-.68.26-.17.56-.25.87-.25h0Z" fill="#9c59b2" stroke-width="0"/>
  <path d="M10.98,24.98h-1.09c-.58-.01-1.11-.24-1.51-.65-.4-.41-.62-.94-.62-1.51s.22-1.11.62-1.51c.4-.41.93-.64,1.5-.65h1.1c.57,0,1.13.23,1.53.63.41.41.63.95.63,1.53,0,.29-.06.56-.16.83-.11.26-.27.5-.47.7-.2.2-.44.36-.7.47-.26.11-.54.17-.83.17h0ZM9.89,21.72c-.28,0-.55.12-.75.33s-.31.48-.31.77.11.56.31.77c.2.21.47.32.76.33h1.08c.14,0,.29-.03.42-.08.13-.06.25-.14.36-.24.1-.1.18-.22.24-.36.06-.13.08-.27.08-.42,0-.29-.12-.57-.32-.78-.2-.2-.49-.32-.78-.32h-1.09Z" fill="#1d1e1e" stroke-width="0"/>
  <path d="M19.13,22.82c0,.21-.04.43-.12.62-.08.2-.2.38-.35.53-.15.15-.33.27-.53.35s-.41.12-.62.12h-1.09c-.43,0-.83-.18-1.13-.49-.3-.3-.47-.71-.47-1.14s.17-.84.47-1.14.71-.48,1.13-.49h1.09c.43,0,.85.17,1.15.48.31.31.48.72.48,1.15h0Z" fill="#702f8a" stroke-width="0"/>
  <path d="M16.41,22.58h1.09c.31,0,.61.09.87.25.26.17.47.4.6.68.12-.25.18-.52.16-.8-.02-.27-.1-.54-.25-.77s-.35-.42-.59-.56c-.24-.13-.51-.2-.79-.2h-1.09c-.28,0-.55.07-.79.2-.24.13-.45.32-.59.56-.15.23-.23.5-.25.77-.02.28.04.55.16.8.13-.28.34-.52.6-.68.26-.17.56-.25.87-.25h0Z" fill="#9c59b2" stroke-width="0"/>
  <path d="M17.5,24.98h-1.09c-.58-.01-1.11-.24-1.51-.65s-.62-.94-.62-1.51.22-1.11.62-1.51c.4-.41.93-.64,1.5-.65h1.1c.57,0,1.13.23,1.53.63.41.41.63.95.63,1.53,0,.29-.06.56-.16.83-.11.26-.27.5-.47.7-.2.2-.44.36-.7.47-.26.11-.54.16-.83.16ZM16.41,21.72c-.28,0-.55.12-.75.33s-.31.48-.31.77.11.56.31.77c.2.21.47.32.76.33h1.08c.14,0,.29-.03.42-.08s.25-.14.36-.24c.1-.1.18-.22.24-.36.06-.13.08-.27.08-.42,0-.29-.12-.57-.32-.78-.2-.2-.49-.32-.78-.32h-1.09Z" fill="#1d1e1e" stroke-width="0"/>
  <path d="M25.66,22.82c0,.21-.04.43-.12.62-.08.2-.2.38-.35.53-.15.15-.33.27-.53.35s-.41.12-.62.12h-1.09c-.43,0-.83-.18-1.13-.49-.3-.3-.47-.71-.47-1.14s.17-.84.47-1.14.71-.48,1.13-.49h1.09c.43,0,.85.17,1.15.48.31.31.48.72.48,1.15h0Z" fill="#f1eaf3" stroke-width="0"/>
  <path d="M22.94,22.58h1.09c.31,0,.61.09.87.25.26.17.47.4.6.68.12-.25.18-.52.16-.8-.02-.27-.1-.54-.25-.77s-.35-.42-.59-.56c-.24-.13-.51-.2-.79-.2h-1.09c-.43,0-.85.17-1.15.48-.31.31-.48.72-.48,1.15,0,.24.06.48.16.7.13-.28.34-.52.6-.68.26-.17.56-.25.87-.25Z" fill="#fff" stroke-width="0"/>
  <path d="M24.03,24.98h-1.09c-.58-.01-1.11-.24-1.51-.65s-.62-.94-.62-1.51.22-1.11.62-1.51c.4-.41.93-.64,1.5-.65h1.1c.58,0,1.12.23,1.53.63.41.41.63.95.63,1.53h0c0,.29-.05.56-.16.83-.11.26-.27.5-.47.7-.2.2-.44.36-.7.47-.26.11-.54.17-.83.17h0ZM22.93,21.72c-.28,0-.55.12-.75.33s-.31.48-.31.77.11.56.31.77c.2.21.47.32.76.33h1.08c.14,0,.29-.03.42-.08.13-.06.25-.14.36-.24.1-.1.18-.22.24-.36.06-.13.08-.28.08-.42h0c0-.29-.11-.57-.32-.78-.21-.21-.48-.32-.78-.32h-1.09ZM26.19,22.82" fill="#1d1e1e" stroke-width="0"/>
  <path d="M12.61,28.25c0,.21-.04.43-.12.62-.08.2-.2.38-.35.53-.15.15-.33.27-.53.35s-.41.12-.62.12h-1.09c-.43,0-.83-.18-1.13-.49-.3-.3-.47-.71-.47-1.14s.17-.84.47-1.14.71-.48,1.13-.49h1.09c.43,0,.85.17,1.15.48.31.31.48.72.48,1.15h-.01Z" fill="#702f8a" stroke-width="0"/>
  <path d="M9.89,28.01h1.09c.31,0,.61.09.87.25.26.16.47.4.6.68.12-.25.18-.52.16-.8-.02-.28-.1-.54-.25-.77s-.35-.42-.59-.56c-.24-.13-.51-.2-.79-.2h-1.09c-.28,0-.55.07-.79.2-.24.13-.45.32-.59.56-.15.23-.23.5-.25.77-.02.28.04.55.16.8.13-.28.34-.51.6-.68s.56-.25.87-.25h0Z" fill="#9c59b2" stroke-width="0"/>
  <path d="M10.98,30.42h-1.09c-.58-.01-1.11-.24-1.51-.65-.4-.41-.62-.95-.62-1.52s.22-1.11.62-1.51c.4-.41.93-.64,1.5-.65h1.1c.58,0,1.12.23,1.53.63.41.41.63.95.63,1.53,0,.29-.06.56-.16.83-.11.26-.27.5-.47.7s-.44.36-.7.47c-.26.11-.54.16-.83.16h0ZM9.89,27.16c-.28,0-.55.12-.75.33s-.31.48-.31.77.11.56.31.77c.2.21.47.32.76.33h1.08c.14,0,.29-.03.42-.08s.25-.13.36-.24c.1-.1.18-.22.24-.36.05-.13.08-.27.08-.42,0-.29-.12-.57-.32-.78-.21-.21-.48-.32-.78-.32h-1.09Z" fill="#1d1e1e" stroke-width="0"/>
  <path d="M19.13,28.25c0,.21-.04.43-.12.62-.08.2-.2.38-.35.53-.15.15-.33.27-.53.35s-.41.12-.62.12h-1.09c-.43,0-.83-.18-1.13-.49-.3-.3-.47-.71-.47-1.14s.17-.84.47-1.14.71-.48,1.13-.49h1.09c.43,0,.85.17,1.15.48.31.31.48.72.48,1.15h0Z" fill="#702f8a" stroke-width="0"/>
  <path d="M16.41,28.01h1.09c.31,0,.61.09.87.25.26.17.47.4.6.68.12-.25.18-.52.16-.8-.02-.28-.1-.54-.25-.77s-.35-.42-.59-.56c-.24-.13-.51-.2-.79-.2h-1.09c-.28,0-.55.07-.79.2-.24.13-.45.32-.59.56-.15.23-.23.5-.25.77-.02.28.04.55.16.8.13-.28.34-.51.6-.68s.56-.25.87-.25h0Z" fill="#9c59b2" stroke-width="0"/>
  <path d="M17.5,30.42h-1.09c-.58-.01-1.11-.24-1.51-.65s-.62-.95-.62-1.52.22-1.11.62-1.51c.4-.41.93-.64,1.5-.65h1.1c.58,0,1.12.23,1.53.63.4.4.63.96.63,1.53,0,.28-.06.56-.16.83-.11.26-.27.5-.47.7-.2.2-.44.36-.7.47-.26.11-.54.16-.83.16h0ZM16.41,27.16c-.28,0-.55.12-.75.33s-.31.48-.31.77.11.56.31.77c.2.21.47.32.76.33h1.08c.14,0,.29-.03.42-.08s.25-.14.36-.24c.1-.1.18-.22.24-.36.05-.13.08-.27.08-.42,0-.29-.12-.57-.32-.78-.21-.21-.48-.32-.78-.32h-1.09Z" fill="#1d1e1e" stroke-width="0"/>
  <path d="M25.66,28.25c0,.21-.04.43-.12.62-.08.2-.2.38-.35.53-.15.15-.33.27-.53.35s-.41.12-.62.12h-1.09c-.43,0-.83-.18-1.13-.49-.3-.3-.47-.71-.47-1.14s.17-.84.47-1.14.71-.48,1.13-.49h1.09c.43,0,.85.17,1.15.48.31.31.48.72.48,1.15h0Z" fill="#e3cceb" stroke-width="0"/>
  <path d="M22.94,28.01h1.09c.31,0,.61.09.87.25.26.17.47.4.6.68.12-.25.18-.52.16-.8-.02-.28-.1-.54-.25-.77s-.35-.42-.59-.56c-.24-.13-.51-.2-.79-.2h-1.09c-.43,0-.85.17-1.15.48-.31.31-.48.72-.48,1.15,0,.24.06.48.16.7.13-.28.34-.51.6-.68s.56-.25.87-.25h0Z" fill="#f8f5f9" stroke-width="0"/>
  <path d="M24.03,30.42h-1.09c-.58-.01-1.11-.24-1.51-.65s-.62-.95-.62-1.52.22-1.11.62-1.51c.4-.41.93-.64,1.5-.65h1.1c.58,0,1.12.23,1.53.63.41.41.63.95.63,1.53h0c0,.29-.05.56-.16.83-.11.26-.27.5-.47.7s-.44.36-.7.47c-.26.11-.54.16-.83.16h0ZM22.93,27.16c-.28,0-.55.12-.75.33s-.31.48-.31.77.11.56.31.77c.2.21.47.32.76.33h1.08c.14,0,.29-.03.42-.08s.25-.13.36-.24c.1-.1.18-.22.24-.36.06-.13.08-.27.08-.42h0c0-.29-.11-.57-.32-.78-.21-.21-.48-.32-.78-.32h-1.09ZM26.19,28.26" fill="#1d1e1e" stroke-width="0"/>
  <path d="M12.61,33.69c0,.21-.04.43-.12.62-.08.2-.2.38-.35.53-.15.15-.33.27-.53.35-.2.08-.41.12-.62.12h-1.09c-.43,0-.83-.18-1.13-.49-.3-.3-.47-.71-.47-1.14s.17-.84.47-1.14.71-.48,1.13-.49h1.09c.43,0,.85.17,1.15.48.31.31.48.72.48,1.15h-.01Z" fill="#702f8a" stroke-width="0"/>
  <path d="M9.89,33.45h1.09c.31,0,.61.09.87.25.26.17.47.4.6.68.12-.25.17-.52.16-.8-.02-.27-.1-.54-.25-.77s-.35-.42-.59-.56c-.24-.13-.51-.2-.79-.2h-1.09c-.28,0-.55.07-.79.2s-.45.32-.59.56c-.15.23-.23.5-.25.77-.02.28.04.55.16.8.13-.28.34-.52.6-.68.26-.17.56-.25.87-.25Z" fill="#9c59b2" stroke-width="0"/>
  <path d="M10.98,35.85h-1.09c-.58-.01-1.11-.24-1.51-.65-.4-.41-.62-.95-.62-1.52s.22-1.11.62-1.52.93-.64,1.5-.65h1.1c.57,0,1.13.23,1.53.63.41.41.63.95.63,1.53,0,.29-.06.56-.16.83-.11.26-.27.5-.47.7-.2.2-.44.36-.7.47-.26.11-.54.17-.83.17h0ZM9.89,32.59c-.28,0-.55.12-.75.33-.2.21-.31.48-.31.77s.11.56.31.77c.2.21.47.32.76.33h1.08c.14,0,.29-.03.42-.08.13-.06.25-.14.36-.24.1-.1.18-.22.24-.36.06-.13.08-.27.08-.42,0-.29-.12-.57-.32-.78-.2-.2-.49-.32-.78-.32h-1.09Z" fill="#1d1e1e" stroke-width="0"/>
  <path d="M19.13,33.69c0,.21-.04.43-.12.62-.08.2-.2.38-.35.53-.15.15-.33.27-.53.35-.2.08-.41.12-.62.12h-1.09c-.43,0-.83-.18-1.13-.49-.3-.3-.47-.71-.47-1.14s.17-.84.47-1.14.71-.48,1.13-.49h1.09c.43,0,.85.17,1.15.48.31.31.48.72.48,1.15h0Z" fill="#702f8a" stroke-width="0"/>
  <path d="M16.41,33.45h1.09c.31,0,.61.09.87.25.26.17.47.4.6.68.12-.25.17-.52.16-.8-.02-.27-.1-.54-.25-.77s-.35-.42-.59-.56c-.24-.13-.51-.2-.79-.2h-1.09c-.28,0-.55.07-.79.2-.24.13-.45.32-.59.56-.15.23-.23.5-.25.77-.02.28.04.55.16.8.13-.28.34-.52.6-.68.26-.17.56-.25.87-.25Z" fill="#9c59b2" stroke-width="0"/>
  <path d="M17.5,35.85h-1.09c-.58-.01-1.11-.24-1.51-.65s-.62-.95-.62-1.52.22-1.11.62-1.52c.4-.41.93-.64,1.5-.65h1.1c.57,0,1.13.23,1.53.63.41.41.63.95.63,1.53,0,.29-.06.56-.16.83-.11.26-.27.5-.47.7-.2.2-.44.36-.7.47s-.54.16-.83.16v.02ZM16.41,32.59c-.28,0-.55.12-.75.33-.2.21-.31.48-.31.77s.11.56.31.77c.2.21.47.32.76.33h1.08c.14,0,.29-.03.42-.08.13-.05.25-.14.36-.24.1-.1.18-.22.24-.36.06-.13.08-.27.08-.42,0-.29-.12-.57-.32-.78-.2-.2-.49-.32-.78-.32h-1.09Z" fill="#1d1e1e" stroke-width="0"/>
  <path d="M25.66,33.69c0,.21-.04.43-.12.62-.08.2-.2.38-.35.53s-.33.27-.53.35c-.2.08-.41.12-.62.12h-1.09c-.43,0-.83-.18-1.13-.49-.3-.3-.47-.71-.47-1.14s.17-.84.47-1.14.71-.48,1.13-.49h1.09c.43,0,.85.17,1.15.48.31.31.48.72.48,1.15h0Z" fill="#702f8a" stroke-width="0"/>
  <path d="M22.94,33.45h1.09c.31,0,.61.09.87.25.26.17.47.4.6.68.12-.25.17-.52.16-.8-.02-.27-.1-.54-.25-.77s-.35-.42-.59-.56c-.24-.13-.51-.2-.79-.2h-1.09c-.43,0-.85.17-1.15.48-.31.31-.48.72-.48,1.15,0,.24.06.48.16.7.13-.28.34-.52.6-.68s.56-.25.87-.25h0Z" fill="#9c59b2" stroke-width="0"/>
  <path d="M24.03,35.85h-1.09c-.58-.01-1.11-.24-1.51-.65s-.62-.95-.62-1.52.22-1.11.62-1.52c.4-.41.93-.64,1.5-.65h1.1c.58,0,1.12.23,1.53.63.41.41.63.95.63,1.53h0c0,.29-.05.56-.16.83-.11.26-.27.5-.47.7-.2.2-.44.36-.7.47s-.54.17-.83.17h0ZM22.93,32.59c-.28,0-.55.12-.75.33-.2.21-.31.48-.31.77s.11.56.31.77c.2.21.47.32.76.33h1.08c.14,0,.29-.03.42-.08.13-.06.25-.14.36-.24.1-.1.18-.22.24-.36.06-.13.08-.28.08-.42h0c0-.29-.11-.57-.32-.78s-.48-.32-.78-.32h-1.09ZM26.19,33.69" fill="#1d1e1e" stroke-width="0"/>
  <path d="M32.19,33.14c0,.57-.24,1.11-.65,1.51-.41.4-.95.62-1.52.62s-1.12-.22-1.52-.62c-.41-.4-.64-.94-.65-1.51v-4.35c0-.29.05-.58.15-.84.11-.27.27-.51.47-.72s.44-.37.71-.48c.27-.11.55-.17.84-.17s.57.06.84.17.51.28.71.48c.2.21.36.45.47.72.11.27.16.56.15.84v4.35Z" fill="#702f8a" stroke-width="0"/>
  <path d="M30.01,26.62c-.58,0-1.13.23-1.54.64s-.64.96-.64,1.54v1.63c0-.57.24-1.11.65-1.51s.95-.62,1.52-.62,1.12.22,1.52.62c.41.4.64.94.65,1.51v-1.63c0-.58-.23-1.13-.64-1.54-.41-.41-.96-.64-1.54-.64h.02Z" fill="#e3cceb" stroke-width="0"/>
  <path d="M30.01,35.81c-.71,0-1.39-.28-1.9-.78s-.8-1.17-.81-1.88v-4.36c0-.35.06-.71.19-1.04.13-.34.33-.64.58-.89.25-.26.55-.46.88-.6.67-.28,1.43-.28,2.09,0,.33.14.63.34.88.6s.45.56.58.89c.13.34.2.69.19,1.05v4.34h0c-.01.71-.3,1.38-.81,1.88-.51.5-1.18.78-1.9.78h.03ZM30.01,27.11c-.22,0-.43.04-.64.13-.2.08-.38.21-.54.36-.15.16-.27.34-.35.54-.08.2-.12.42-.12.64v4.36c0,.42.18.83.49,1.13.62.61,1.68.61,2.3,0,.31-.3.48-.71.49-1.14v-4.34c0-.23-.04-.44-.12-.65-.08-.2-.2-.39-.35-.54-.15-.16-.33-.28-.54-.36-.2-.08-.42-.13-.64-.13h.02ZM32.18,33.14" fill="#1d1e1e" stroke-width="0"/>
  <path d="M8.26,3.78h23.92v5.44H8.26V3.78Z" fill="#f1eaf3" stroke-width="0"/>
  <path d="M12.07,9.22l5.44-5.44h-8.34c-.24,0-.47.1-.64.27s-.27.4-.27.64v3.62c0,.24.1.47.27.64s.4.27.64.27h2.9Z" fill="#fff" stroke-width="0"/>
  <path d="M32.19,9.75H8.26c-.29,0-.53-.24-.53-.53V3.78c0-.29.24-.53.53-.53h23.93c.29,0,.53.24.53.53v5.44c0,.29-.24.53-.53.53ZM8.8,8.68h22.86v-4.36H8.79v4.37h.01Z" fill="#1d1e1e" stroke-width="0"/>
  <path d="M34.31,33.6l1.82-1.82,2.12,2.12-1.82,1.82-2.12-2.12Z" fill="#f1eaf3" stroke-width="0"/>
  <path d="M36.43,36.26c-.14,0-.27-.05-.38-.16l-2.12-2.12c-.21-.21-.21-.55,0-.75l1.82-1.82c.2-.2.55-.2.75,0l2.12,2.12c.21.21.21.55,0,.75l-1.82,1.82c-.1.1-.24.16-.38.16h.01ZM35.06,33.61l1.37,1.37,1.07-1.06-1.37-1.37-1.07,1.07h0Z" fill="#1d1e1e" stroke-width="0"/>
  <path d="M42.49,37.54c.32.32.5.76.5,1.21s-.18.89-.5,1.21-.76.5-1.21.5-.89-.18-1.21-.5l-3.63-3.64s-.07-.09-.09-.14-.03-.11-.03-.16.01-.11.03-.16.05-.1.09-.14l1.82-1.82s.09-.07.14-.09.11-.03.16-.03.11.01.16.03.1.05.14.09l3.64,3.63h-.01Z" fill="#702f8a" stroke-width="0"/>
  <path d="M37.34,34.82s.09-.07.14-.09.11-.03.16-.03.11.01.16.03.1.05.14.09l3.63,3.63c.24.24.41.55.47.89s.03.68-.11,1c.26-.11.49-.28.66-.5s.3-.48.35-.75.04-.56-.04-.83-.23-.51-.43-.71l-3.63-3.63s-.09-.07-.14-.09-.11-.03-.16-.03-.11.01-.16.03-.1.05-.14.09l-.91.91" fill="#9c59b2" stroke-width="0"/>
  <path d="M41.28,41c-.6,0-1.16-.23-1.59-.66l-3.64-3.64c-.09-.09-.16-.19-.21-.31-.05-.11-.07-.24-.07-.37s.02-.25.07-.37.12-.22.21-.31l1.82-1.82c.09-.09.2-.16.31-.21.24-.1.5-.1.74,0,.12.05.22.12.31.21l3.64,3.64c.42.42.66,1,.66,1.59s-.24,1.17-.66,1.59c-.42.42-1,.66-1.59.66ZM36.88,36.03l3.56,3.56c.44.44,1.23.44,1.67,0,.22-.22.35-.52.35-.84s-.13-.62-.35-.84h0l-3.56-3.56-1.67,1.67h0Z" fill="#1d1e1e" stroke-width="0"/>
  <path d="M29.16,35.63c4.97,0,9-4.03,9-9s-4.03-9-9-9-9,4.03-9,9,4.03,9,9,9Z" fill="#f1eaf3" stroke-width="0"/>
  <path d="M36.04,28.26c.9-3.8-1.46-7.61-5.26-8.5-3.8-.9-7.61,1.46-8.5,5.26-.9,3.8,1.46,7.61,5.26,8.5,3.8.9,7.61-1.46,8.5-5.26Z" fill="#f1eaf3" stroke-width="0"/>
  <path d="M29.06,20.13c-1.27,0-2.5.38-3.55,1.08s-1.87,1.7-2.36,2.87c-.48,1.17-.61,2.46-.36,3.7.25,1.24.86,2.38,1.75,3.28l9.05-9.05c-.59-.6-1.3-1.07-2.08-1.39s-1.61-.49-2.45-.49Z" fill="#fff" stroke-width="0"/>
  <path d="M38.11,27.51c-.21-2.23-1.24-4.3-2.9-5.81-1.66-1.51-3.82-2.34-6.06-2.34s-4.4.84-6.06,2.34c-1.66,1.51-2.69,3.58-2.9,5.81-.03-.29-.04-.58-.04-.87,0-2.39.95-4.67,2.63-6.36,1.69-1.69,3.98-2.63,6.36-2.63s4.67.95,6.36,2.63c1.69,1.69,2.64,3.98,2.64,6.36,0,.29-.01.59-.04.87h.01Z" fill="#fff" stroke-width="0"/>
  <path d="M29.16,36.17c-5.25,0-9.53-4.27-9.53-9.53s4.27-9.53,9.53-9.53,9.53,4.27,9.53,9.53-4.27,9.53-9.53,9.53ZM29.16,18.17c-4.67,0-8.46,3.8-8.46,8.46s3.8,8.46,8.46,8.46,8.46-3.8,8.46-8.46-3.8-8.46-8.46-8.46Z" fill="#1d1e1e" stroke-width="0"/>
  <path d="M29.17,33.71c-.54,0-1.09-.06-1.64-.19-1.84-.43-3.4-1.56-4.39-3.16-.99-1.61-1.3-3.5-.87-5.34.43-1.84,1.56-3.4,3.16-4.39,1.61-.99,3.5-1.3,5.34-.87,1.84.43,3.4,1.56,4.39,3.16s1.3,3.5.87,5.34c-.43,1.84-1.56,3.4-3.16,4.39-1.13.7-2.41,1.06-3.7,1.06ZM29.15,20.56c-1.12,0-2.21.31-3.18.91-1.38.85-2.35,2.19-2.72,3.77-.37,1.58-.11,3.21.75,4.59s2.19,2.35,3.77,2.72c1.58.37,3.21.11,4.59-.74s2.35-2.19,2.72-3.77c.37-1.58.11-3.21-.75-4.59-.85-1.38-2.19-2.35-3.77-2.72-.47-.11-.94-.17-1.41-.17Z" fill="#1d1e1e" stroke-width="0"/>
</svg>