<svg width="32" height="32" viewBox="0 0 32 32" fill="none" xmlns="http://www.w3.org/2000/svg">
    <g clip-path="url(#4fttbvj8xa)">
        <circle cx="16" cy="16" r="16" fill="#fff"/>
        <path d="M8.191 12.09v13h13v-13h-13zm11.81 2.84h-1.66v-1.62h1.66v1.62zm-10.56 1.22h10.56v7.72H9.411l.03-7.72zm0-2.84h7.71v1.62h-7.74l.03-1.62z" fill="#1E1E1E"/>
        <path d="M20.392 19.602h3.42v-13h-13v6.16h1.19v-2.1h10.59v7.72h-2.2v1.22zm-.64-10.16h-7.75v-1.62h7.72l.03 1.62zm2.84 0h-1.59v-1.62h1.62l-.03 1.62z" fill="#1E1E1E"/>
        <path d="M16 0a16 16 0 1 0 0 32 16 16 0 0 0 0-32zm0 30.12A14.11 14.11 0 0 1 5.83 6.22l20 20a14.07 14.07 0 0 1-9.83 3.9zm11.05-5.34L7.23 5a14.11 14.11 0 0 1 19.82 19.83v-.05z" fill="#AB2334"/>
    </g>
    <defs>
        <clipPath id="4fttbvj8xa">
            <path fill="#fff" d="M0 0h32v32H0z"/>
        </clipPath>
    </defs>
</svg>
