<?xml version="1.0" encoding="UTF-8"?><svg id="a" xmlns="http://www.w3.org/2000/svg" viewBox="0 0 144 144"><defs><style>.b{fill:#324dc7;}</style></defs><path class="b" d="M114.74,56.43l19.45-32.15c1.15-1.9-.79-4.16-2.84-3.32l-34.76,14.27c-.36,.15-.48,.61-.22,.91l17.43,20.36c.26,.3,.73,.26,.93-.08Z"/><path class="b" d="M38.66,59.32L4.08,73.87c-2.04,.86-1.81,3.83,.35,4.35l36.46,8.87c.38,.09,.74-.22,.71-.61l-2.14-26.68c-.03-.39-.44-.64-.8-.49Z"/><path class="b" d="M140.77,106.51L51.12,1.81c-1.45-1.68-4.2-.53-4.03,1.68l10.99,137.4c.19,2.21,3.08,2.9,4.25,1.01l25.82-41.84c.52-.84,1.52-1.26,2.48-1.03l47.87,11.21c2.16,.51,3.71-2.04,2.28-3.73Z"/></svg>