<svg width="1920" height="280" viewBox="0 0 1920 280" fill="none" xmlns="http://www.w3.org/2000/svg">
    <g clip-path="url(#jiof6h6n8a)">
        <g opacity=".2">
            <path d="M1827.55 99.399a.68.68 0 0 1 .43-.11h37.75c2.09 0 4.12-.821 5.62-2.305a7.752 7.752 0 0 0 2.31-5.583c0-2.083-.82-4.1-2.31-5.584a7.894 7.894 0 0 0-5.62-2.304c-.62 0-1.23.083-1.83.221-.22.028-.44-.027-.64-.11a.573.573 0 0 1-.32-.535c-1.37-5.593-6.43-9.509-12.22-9.49a12.343 12.343 0 0 0-10.73 5.97.607.607 0 0 1-.54.314c-.22.027-.43-.028-.64-.11a9.898 9.898 0 0 0-6.01-1.927c-4.58.083-8.56 3.16-9.77 7.565-.07.221-.23.406-.42.535-.21.11-.44.11-.64 0a5.84 5.84 0 0 0-3.01-.747v.028c-1.87 0-3.67.737-5 2.055a7.023 7.023 0 0 0-2.06 4.976c0 1.87.74 3.648 2.07 4.975a7.077 7.077 0 0 0 5 2.064h8.15c.22 0 .31.11.43.11M1885.52 155.891h-315.73v122.55h315.73v-122.55z" fill="#7E96DD"/>
            <path d="m1581.38 115.219-19.32 40.828h332.3l-20.43-40.828h-292.55z" fill="#B0C3EB"/>
            <path d="M1786.75 256.758h-120.59v7.325h120.59v-7.325z" fill="#fff"/>
            <path d="M1786.75 264.996h-120.59c-.5 0-.92-.414-.92-.921v-7.325c0-.507.42-.922.92-.922h120.59c.51 0 .93.415.93.922v7.325c0 .507-.42.921-.93.921zm-119.66-1.843h118.74v-5.482h-118.74v5.482z" fill="#28369A"/>
            <path d="M1790.11 264.078h-127.3v7.325h127.3v-7.325z" fill="#fff"/>
            <path d="M1790.11 272.324h-127.3c-.5 0-.92-.414-.92-.921v-7.325c0-.507.42-.922.92-.922h127.3c.51 0 .93.415.93.922v7.325c0 .507-.42.921-.93.921zm-126.38-1.842h125.46v-5.483h-125.46v5.483z" fill="#28369A"/>
            <path d="M1793.84 271.023h-134.61v8.054h134.61v-8.054z" fill="#fff"/>
            <path d="M1793.84 279.998h-134.61c-.5 0-.92-.415-.92-.922v-8.053c0-.507.42-.921.92-.921h134.61c.5 0 .92.414.92.921v8.053c0 .507-.42.922-.92.922zm-133.68-1.843h132.76v-6.211h-132.76v6.211z" fill="#28369A"/>
            <path d="M1757.63 102.57h-60.18v154.211h60.18V102.57z" fill="#7E96DD"/>
            <path d="M1757.63 257.702h-60.18c-.5 0-.92-.415-.92-.922V102.57c0-.507.42-.922.92-.922h60.18c.51 0 .93.415.93.922v154.21a.93.93 0 0 1-.93.922zm-59.25-1.843h58.33V103.491h-58.33v152.368z" fill="#28369A"/>
            <path d="M1742.97 217.802c0-8.505-6.91-15.415-15.42-15.415-8.52 0-15.42 6.91-15.42 15.415v38.654h30.84v-38.654z" fill="#4D6ED0"/>
            <path d="M1742.97 257.369h-30.84c-.5 0-.92-.414-.92-.921v-38.654c0-9.012 7.33-16.337 16.34-16.337 9 0 16.34 7.335 16.34 16.337v38.654a.92.92 0 0 1-.92.921zm-29.92-1.843h29v-37.732c0-7.989-6.51-14.494-14.5-14.494-8 0-14.5 6.505-14.5 14.494v37.732z" fill="#28369A"/>
            <path d="M1715.93 158.776c0-3.05-2.48-5.538-5.54-5.538a5.53 5.53 0 0 0-5.53 5.538v22.667h11.06v-22.667h.01z" fill="#E6EDF8"/>
            <path d="M1715.92 182.364h-11.06a.92.92 0 0 1-.92-.921v-22.667c0-3.557 2.89-6.46 6.45-6.46s6.46 2.894 6.46 6.46c0 .046 0 .092-.01.138v22.538a.92.92 0 0 1-.92.921v-.009zm-10.14-1.843h9.22V158.656c-.06-2.488-2.11-4.488-4.62-4.488-2.51 0-4.61 2.074-4.61 4.617v21.746l.01-.01z" fill="#28369A"/>
            <path d="M1733.08 158.776c0-3.05-2.48-5.538-5.54-5.538a5.53 5.53 0 0 0-5.53 5.538v22.667h11.06v-22.667h.01z" fill="#E6EDF8"/>
            <path d="M1733.07 182.364h-11.06a.92.92 0 0 1-.92-.921v-22.667c0-3.557 2.89-6.46 6.45-6.46s6.46 2.894 6.46 6.46v22.667a.92.92 0 0 1-.92.921h-.01zm-10.14-1.843h9.22V158.656a4.63 4.63 0 0 0-4.62-4.497c-2.51 0-4.61 2.073-4.61 4.617v21.745h.01z" fill="#28369A"/>
            <path d="M1750.23 158.776c0-3.05-2.48-5.538-5.54-5.538a5.538 5.538 0 0 0-5.54 5.538v22.667h11.07v-22.667h.01z" fill="#E6EDF8"/>
            <path d="M1750.22 182.364h-11.07a.92.92 0 0 1-.92-.921v-22.667a6.46 6.46 0 1 1 12.92 0v22.667a.92.92 0 0 1-.92.921h-.01zm-10.15-1.843h9.23V158.656a4.63 4.63 0 0 0-4.62-4.497c-2.51 0-4.62 2.073-4.62 4.617v21.745h.01zM1760.41 103.434h-65.74a.921.921 0 0 1-.92-.921v-6.017a.92.92 0 0 1 .92-.922h65.74c.51 0 .92.415.92.922v6.017c0 .506-.41.921-.92.921zm-64.82-1.843h63.9v-4.174h-63.9v4.174z" fill="#28369A"/>
            <path d="m1727.68 59.371 29.08 37.143-58.45-.23 29.37-36.913z" fill="#B0C3EB"/>
            <path d="m1756.76 97.436-58.45-.23a.93.93 0 0 1-.83-.525.934.934 0 0 1 .11-.977l29.37-36.912c.18-.222.45-.35.72-.35.29 0 .55.128.72.35l29.08 37.142c.22.277.26.655.1.977a.938.938 0 0 1-.83.516l.01.01zm-56.54-2.064 54.64.212-27.19-34.729-27.46 34.517h.01z" fill="#28369A"/>
            <path d="M1738.58 124.103c1.72-6.1-1.83-12.439-7.92-14.172-6.1-1.723-12.45 1.825-14.18 7.925-1.72 6.099 1.83 12.439 7.93 14.171 6.1 1.732 12.45-1.824 14.17-7.924z" fill="#fff"/>
            <path d="M1727.55 133.382c-1.13 0-2.28-.157-3.39-.47-6.58-1.861-10.43-8.726-8.57-15.305.91-3.188 2.99-5.833 5.89-7.445a12.334 12.334 0 0 1 9.43-1.106c6.57 1.862 10.41 8.726 8.55 15.305a12.26 12.26 0 0 1-5.88 7.445 12.312 12.312 0 0 1-6.03 1.585v-.009zm-.04-22.962c-1.77 0-3.54.451-5.14 1.345a10.507 10.507 0 0 0-5.01 6.34c-1.58 5.602 1.69 11.444 7.3 13.029 2.71.765 5.56.433 8.03-.94a10.456 10.456 0 0 0 5-6.34c1.59-5.602-1.69-11.444-7.28-13.029-.95-.267-1.93-.405-2.89-.405h-.01z" fill="#28369A"/>
            <path d="M1727.62 123.32a.947.947 0 0 1-.53-.166.91.91 0 0 1-.39-.756v-8.68c0-.506.42-.921.92-.921.51 0 .93.415.93.921v7.372l4.67-1.65a.93.93 0 0 1 1.18.562.927.927 0 0 1-.56 1.18l-5.9 2.082c-.1.037-.2.056-.31.056h-.01z" fill="#28369A"/>
            <path d="m1843.26 127.307-19.99-32.213-20.2 32.047-.03.166v151.768h40.27V127.307h-.05z" fill="#4D6ED0"/>
            <path d="M1843.31 279.998h-40.27a.921.921 0 0 1-.92-.922V127.308c0-.055 0-.102.01-.157l.02-.166c.02-.119.07-.239.13-.341l20.21-32.047a.923.923 0 0 1 .78-.433c.32 0 .61.166.79.433l19.85 32.011c.2.165.32.414.32.691v151.768c0 .507-.42.922-.92.922v.009zm-39.35-1.843h38.42V127.649l-19.12-30.813-19.3 30.619v150.7z" fill="#28369A"/>
            <path d="M1830.17 127.353a6.825 6.825 0 0 0-6.07-7.51c-3.74-.396-7.11 2.313-7.51 6.063a6.825 6.825 0 0 0 6.07 7.51 6.832 6.832 0 0 0 7.51-6.063z" fill="#F5F7FC"/>
            <path d="M1823.39 134.375c-.26 0-.54-.018-.82-.046-4.25-.451-7.35-4.275-6.89-8.523.46-4.248 4.28-7.335 8.52-6.883 4.25.451 7.34 4.275 6.9 8.523-.43 3.971-3.8 6.929-7.71 6.929zm-.01-13.655c-2.97 0-5.54 2.257-5.87 5.279-.34 3.235 2.02 6.146 5.26 6.496 3.23.351 6.14-2.008 6.5-5.243.34-3.234-2.02-6.155-5.26-6.496-.21-.018-.42-.036-.63-.036zM1843.73 210.967H1803a.92.92 0 0 1-.92-.921v-4.773a.92.92 0 0 1 .92-.921h40.73c.51 0 .92.414.92.921v4.773a.92.92 0 0 1-.92.921zm-39.81-1.842h38.89v-2.931h-38.89v2.931zM1810.27 115.663h-51.39c-.5 0-.92-.414-.92-.921 0-.507.42-.922.92-.922h51.39a.921.921 0 0 1 0 1.843zM1894.24 157.263h-49.59a.92.92 0 0 1 0-1.843h48.13l-18.89-39.769h-36.87a.929.929 0 0 1-.93-.921c0-.507.42-.921.93-.921h37.45c.36 0 .68.202.83.525l19.77 41.612c.13.285.11.617-.06.884a.924.924 0 0 1-.78.433h.01zM1802.3 157.347h-44.45a.921.921 0 0 1 0-1.843h44.45c.51 0 .93.415.93.921a.93.93 0 0 1-.93.922z" fill="#28369A"/>
            <path d="M1872.07 175.426h-15.52v65.2h15.52v-65.2z" fill="#F5F7FC"/>
            <path d="M1872.07 241.547h-15.52c-.5 0-.92-.415-.92-.921v-65.201c0-.506.42-.921.92-.921h15.52c.51 0 .92.415.92.921v65.201c0 .506-.41.921-.92.921zm-14.59-1.843h13.67v-63.357h-13.67v63.357z" fill="#28369A"/>
            <path d="M1864.3 241.401c-.5 0-.92-.414-.92-.921v-64.113c0-.507.42-.922.92-.922.51 0 .93.415.93.922v64.113c0 .507-.42.921-.93.921z" fill="#28369A"/>
            <path d="M1788.02 175.426h-15.52v65.2h15.52v-65.2z" fill="#F5F7FC"/>
            <path d="M1788.02 241.547h-15.52a.921.921 0 0 1-.92-.921v-65.201c0-.506.41-.921.92-.921h15.52c.5 0 .92.415.92.921v65.201c0 .506-.42.921-.92.921zm-14.6-1.843h13.67v-63.357h-13.67v63.357z" fill="#28369A"/>
            <path d="M1780.26 241.401a.92.92 0 0 1-.92-.921v-64.113c0-.507.41-.922.92-.922.5 0 .92.415.92.922v64.113c0 .507-.42.921-.92.921z" fill="#28369A"/>
            <path d="m1612.11 127.311 19.98-32.213 20.21 32.047.03.166v151.768h-40.27V127.311h.05z" fill="#4D6ED0"/>
            <path d="M1652.33 280h-40.27c-.5 0-.92-.414-.92-.921V127.31c0-.276.12-.525.31-.691l19.86-32.01a.923.923 0 0 1 .78-.433c.32 0 .61.166.79.433l20.21 32.047c.06.101.11.221.13.341l.02.166c0 .046.01.101.01.157v151.768a.92.92 0 0 1-.92.921V280zm-39.35-1.843h38.43V127.458l-19.31-30.62-19.12 30.813v150.506z" fill="#28369A"/>
            <path d="M1632.68 133.39a6.817 6.817 0 0 0 6.06-7.51c-.39-3.75-3.76-6.468-7.51-6.063-3.75.397-6.46 3.76-6.07 7.51a6.823 6.823 0 0 0 7.52 6.063z" fill="#F5F7FC"/>
            <path d="M1631.94 134.349c-1.77 0-3.47-.599-4.86-1.723a7.705 7.705 0 0 1-2.84-5.206c-.45-4.248 2.64-8.072 6.89-8.523a7.664 7.664 0 0 1 5.68 1.677 7.666 7.666 0 0 1 2.84 5.206c.45 4.247-2.63 8.071-6.88 8.523a8.61 8.61 0 0 1-.84.046h.01zm.02-13.656c-.21 0-.42.01-.63.037-3.24.341-5.59 3.262-5.25 6.496a5.883 5.883 0 0 0 2.16 3.972 5.868 5.868 0 0 0 4.34 1.28c3.24-.34 5.59-3.261 5.25-6.496a5.883 5.883 0 0 0-2.16-3.971 5.872 5.872 0 0 0-3.71-1.308v-.01zM1652.31 210.967h-40.72a.929.929 0 0 1-.93-.921v-4.773c0-.507.42-.921.93-.921h40.72c.51 0 .93.414.93.921v4.773c0 .507-.42.921-.93.921zm-39.8-1.842h38.88v-2.931h-38.88v2.931zM1696.44 115.663h-51.39a.929.929 0 0 1-.93-.921.93.93 0 0 1 .93-.922h51.39a.921.921 0 0 1 0 1.843zM1610.67 157.263h-49.59a.95.95 0 0 1-.78-.433.927.927 0 0 1-.06-.884l19.77-41.612a.929.929 0 0 1 .83-.525h37.45c.5 0 .92.414.92.921 0 .507-.42.921-.92.921h-36.87l-18.89 39.769h48.13a.921.921 0 0 1 0 1.843h.01zM1697.48 157.347h-44.46a.93.93 0 0 1-.93-.922.93.93 0 0 1 .93-.921h44.46c.5 0 .92.415.92.921 0 .507-.42.922-.92.922zM1885.45 279.998h-156.86a.93.93 0 0 1-.93-.922.93.93 0 0 1 .93-.921h155.94V158.019c0-.507.42-.921.92-.921.51 0 .92.414.92.921v121.057c0 .507-.41.922-.92.922z" fill="#28369A"/>
            <path d="M1727.1 280h-157.6a.921.921 0 0 1-.92-.922V158.343a.921.921 0 1 1 1.84 0v119.814h156.68c.51 0 .93.414.93.921a.93.93 0 0 1-.93.922z" fill="#28369A"/>
            <path d="M1583.25 240.626h15.52v-65.2h-15.52v65.2z" fill="#F5F7FC"/>
            <path d="M1598.77 241.547h-15.52a.921.921 0 0 1-.92-.921v-65.201c0-.506.41-.921.92-.921h15.52c.51 0 .93.415.93.921v65.201a.93.93 0 0 1-.93.921zm-14.6-1.843h13.68v-63.357h-13.68v63.357z" fill="#28369A"/>
            <path d="M1591.01 241.401a.92.92 0 0 1-.92-.921v-64.113c0-.507.41-.922.92-.922.5 0 .92.415.92.922v64.113c0 .507-.42.921-.92.921z" fill="#28369A"/>
            <path d="M1667.3 240.626h15.53v-65.2h-15.53v65.2z" fill="#F5F7FC"/>
            <path d="M1682.83 241.547h-15.53c-.5 0-.92-.415-.92-.921v-65.201c0-.506.42-.921.92-.921h15.53c.51 0 .92.415.92.921v65.201c0 .506-.41.921-.92.921zm-14.6-1.843h13.68v-63.357h-13.68v63.357z" fill="#28369A"/>
            <path d="M1675.06 241.401c-.5 0-.92-.414-.92-.921v-64.113c0-.507.42-.922.92-.922.51 0 .92.415.92.922v64.113a.92.92 0 0 1-.92.921zM1757.66 143.886h-60.25a.93.93 0 0 1-.93-.922.93.93 0 0 1 .93-.921h60.25a.921.921 0 0 1 0 1.843zM1757.66 192.843h-60.25a.93.93 0 0 1-.93-.922.93.93 0 0 1 .93-.921h60.25a.921.921 0 0 1 0 1.843z" fill="#28369A"/>
            <path d="M1638.1 81.561a.318.318 0 0 1 .26-.064h23.61c1.32 0 2.58-.525 3.52-1.475.93-.94 1.46-2.239 1.45-3.584 0-1.336-.52-2.635-1.45-3.584a4.886 4.886 0 0 0-4.66-1.336.774.774 0 0 1-.4-.074.377.377 0 0 1-.2-.341c-.86-3.584-4.02-6.1-7.64-6.09-2.75-.038-5.3 1.428-6.71 3.832a.395.395 0 0 1-.34.203.872.872 0 0 1-.4-.064 6.112 6.112 0 0 0-3.76-1.235c-2.87.055-5.36 2.027-6.12 4.856a.603.603 0 0 1-.26.34.438.438 0 0 1-.4 0 3.538 3.538 0 0 0-1.88-.478v.018c-1.17 0-2.29.47-3.12 1.318a4.556 4.556 0 0 0 0 6.376 4.381 4.381 0 0 0 3.13 1.318h5.1c.14 0 .19.064.27.064zM1536.57 154.454a.514.514 0 0 0-.33-.092h-29.69c-1.65 0-3.25-.663-4.42-1.87-1.18-1.198-1.83-2.829-1.83-4.543 0-1.695.65-3.335 1.83-4.543a6.086 6.086 0 0 1 4.42-1.87c.48 0 .96.064 1.43.175a.97.97 0 0 0 .51-.092.467.467 0 0 0 .25-.433c1.08-4.543 5.06-7.731 9.62-7.713 3.44-.046 6.66 1.806 8.43 4.847.08.166.25.258.42.258.17.019.35-.018.5-.092a7.62 7.62 0 0 1 4.73-1.557c3.61.064 6.73 2.571 7.68 6.146a.84.84 0 0 0 .34.433c.16.083.34.083.51 0a4.321 4.321 0 0 1 2.36-.608v.018c1.46 0 2.87.599 3.93 1.668a5.792 5.792 0 0 1 1.62 4.036 5.83 5.83 0 0 1-1.62 4.045c-1.06 1.078-2.47 1.677-3.94 1.677h-6.41c-.17 0-.25.083-.34.083" fill="#7E96DD"/>
            <path d="M1834.9 163.172c0-6.367-5.16-11.527-11.53-11.527-6.37 0-11.53 5.169-11.53 11.527v17.571h23.06v-17.571z" fill="#fff"/>
            <path d="M1834.9 181.664h-23.06a.929.929 0 0 1-.93-.921v-17.572c0-6.864 5.59-12.448 12.46-12.448 6.87 0 12.45 5.584 12.45 12.448v17.572a.92.92 0 0 1-.92.921zm-22.14-1.843h21.22v-16.65c0-5.851-4.76-10.605-10.61-10.605-5.86 0-10.61 4.754-10.61 10.605v16.65z" fill="#28369A"/>
            <path d="M1834.9 240.48c0-6.367-5.16-11.527-11.53-11.527-6.37 0-11.53 5.169-11.53 11.527v17.572h23.06V240.48z" fill="#fff"/>
            <path d="M1834.9 258.973h-23.06a.93.93 0 0 1-.93-.922V240.48c0-6.865 5.59-12.449 12.46-12.449 6.87 0 12.45 5.584 12.45 12.449v17.571c0 .507-.41.922-.92.922zm-22.14-1.843h21.22v-16.65c0-5.851-4.76-10.606-10.61-10.606-5.86 0-10.61 4.755-10.61 10.606v16.65zM1823.37 181.314a.921.921 0 0 1-.92-.921v-28.749a.92.92 0 0 1 .92-.921c.5 0 .92.414.92.921v28.749c0 .506-.42.921-.92.921z" fill="#28369A"/>
            <path d="M1834.73 168.941h-22.68c-.5 0-.92-.415-.92-.922 0-.507.42-.921.92-.921h22.68a.92.92 0 0 1 0 1.843zM1823.37 258.63a.92.92 0 0 1-.92-.921V228.96c0-.506.41-.921.92-.921.5 0 .92.415.92.921v28.749c0 .507-.42.921-.92.921z" fill="#28369A"/>
            <path d="M1834.73 246.245h-22.68c-.5 0-.92-.414-.92-.921 0-.507.42-.922.92-.922h22.68a.921.921 0 0 1 0 1.843z" fill="#28369A"/>
            <path d="M1620.41 163.172c0-6.367 5.17-11.527 11.54-11.527 6.37 0 11.53 5.169 11.53 11.527v17.571h-23.07v-17.571z" fill="#fff"/>
            <path d="M1643.48 181.664h-23.07c-.5 0-.92-.414-.92-.921v-17.572c0-6.864 5.59-12.448 12.46-12.448 6.86 0 12.45 5.584 12.45 12.448v17.572a.92.92 0 0 1-.92.921zm-22.14-1.843h21.22v-16.65c0-5.851-4.76-10.605-10.61-10.605-5.86 0-10.61 4.754-10.61 10.605v16.65z" fill="#28369A"/>
            <path d="M1620.41 240.48c0-6.367 5.17-11.527 11.54-11.527 6.37 0 11.53 5.169 11.53 11.527v17.572h-23.07V240.48z" fill="#fff"/>
            <path d="M1643.48 258.973h-23.07c-.5 0-.92-.415-.92-.922V240.48c0-6.865 5.59-12.449 12.46-12.449 6.86 0 12.45 5.584 12.45 12.449v17.571c0 .507-.41.922-.92.922zm-22.14-1.843h21.22v-16.65c0-5.851-4.76-10.606-10.61-10.606-5.86 0-10.61 4.755-10.61 10.606v16.65zM1631.95 181.314c-.5 0-.92-.415-.92-.921v-28.749c0-.507.42-.921.92-.921.51 0 .93.414.93.921v28.749a.93.93 0 0 1-.93.921z" fill="#28369A"/>
            <path d="M1643.27 168.941h-22.7a.921.921 0 0 1 0-1.843h22.7c.5 0 .92.414.92.921 0 .507-.42.922-.92.922zM1631.95 258.63c-.5 0-.92-.414-.92-.921V228.96c0-.506.42-.921.92-.921.51 0 .93.415.93.921v28.749c0 .507-.42.921-.93.921z" fill="#28369A"/>
            <path d="M1643.27 246.245h-22.7a.92.92 0 0 1 0-1.843h22.7c.5 0 .92.415.92.922 0 .507-.42.921-.92.921z" fill="#28369A"/>
            <path d="M1509.97 176.118c2.97-7.731 5.74-9.095 7.32-9.095h.54c1.62 0 4.49 1.438 7.54 9.694 2.89 7.814 9.4 22.068 9.4 31.596 0 12.006-7.69 21.727-17.2 21.727-9.5 0-17.21-9.73-17.21-21.727 0-7.39 3.92-17.618 7.02-25.487" fill="#4D6ED0"/>
            <path d="M1517.57 230.962c-10 0-18.13-10.163-18.13-22.649 0-7.261 3.5-16.742 7.09-25.827a.928.928 0 0 1 1.2-.516c.47.184.71.718.51 1.198-2.6 6.597-6.96 17.626-6.96 25.145 0 11.472 7.31 20.806 16.29 20.806s16.28-9.334 16.28-20.806c0-7.546-4.27-18.336-7.38-26.214-.73-1.843-1.41-3.575-1.97-5.059-3.03-8.201-5.68-9.085-6.67-9.085h-.54c-.95 0-3.51.829-6.46 8.505a.927.927 0 0 1-1.19.534.92.92 0 0 1-.53-1.189c2.47-6.431 5.22-9.684 8.18-9.684h.53c2.1 0 5.26 1.788 8.41 10.292.54 1.466 1.22 3.198 1.94 5.022 3.17 8.017 7.52 18.991 7.52 26.888 0 12.485-8.14 22.648-18.13 22.648l.01-.009z" fill="#28369A"/>
            <path d="M1516.95 279.973a.93.93 0 0 1-.93-.921v-85.076c0-.507.42-.921.93-.921.5 0 .92.414.92.921v85.076c0 .506-.42.921-.92.921z" fill="#28369A"/>
            <path d="M1517.47 221.995a.916.916 0 0 1-.65-1.567l5.28-5.28a.92.92 0 1 1 1.3 1.3l-5.28 5.279a.924.924 0 0 1-.66.268h.01zM1516.51 210.817a.967.967 0 0 1-.66-.267l-6.42-6.423a.92.92 0 0 1 1.3-1.299l6.42 6.422a.917.917 0 0 1-.65 1.567h.01z" fill="#28369A"/>
            <path d="M1493.68 252.054c7.93 0 14.37-11.269 14.37-25.174 0-13.904-6.44-25.173-14.37-25.173-7.94 0-14.38 11.269-14.38 25.173 0 13.905 6.44 25.174 14.38 25.174z" fill="#4D6ED0"/>
            <path d="M1493.68 252.975c-8.44 0-15.3-11.702-15.3-26.095 0-14.393 6.86-26.095 15.3-26.095 8.43 0 15.29 11.702 15.29 26.095 0 14.393-6.86 26.095-15.29 26.095zm0-50.338c-7.42 0-13.45 10.882-13.45 24.252s6.03 24.252 13.45 24.252c7.42 0 13.45-10.873 13.45-24.252s-6.03-24.252-13.45-24.252z" fill="#28369A"/>
            <path d="M1493.96 279.971a.921.921 0 0 1-.92-.922V220.05a.921.921 0 1 1 1.84 0v58.999c0 .507-.41.922-.92.922z" fill="#28369A"/>
            <path d="M1493.96 245.65a.926.926 0 0 1-.65-.267l-5.79-5.787a.92.92 0 0 1 1.3-1.299l5.79 5.786a.917.917 0 0 1-.66 1.567h.01zM1494.06 236.489a.916.916 0 0 1-.65-1.566l7.04-7.04c.36-.36.94-.36 1.3 0 .36.359.36.94 0 1.299l-7.04 7.04a.889.889 0 0 1-.65.267z" fill="#28369A"/>
        </g>
        <g opacity=".2">
            <path d="M1282.1 198.573h-73.76l6.97-17.221h224.58l6.98 17.221H1282.1z" fill="#4D6ED0"/>
            <path d="M1440.27 198.602h-225.33v69.512h225.33v-69.512z" fill="#7E96DD"/>
            <path d="M1373.03 193.652h-90.2v59.958h90.2v-59.958z" fill="#B0C3EB"/>
            <path d="M1373.03 254.532h-90.2a.921.921 0 0 1-.92-.921v-59.967a.92.92 0 0 1 .92-.921h90.2c.51 0 .93.414.93.921v59.967a.93.93 0 0 1-.93.921zm-89.28-1.843h88.36v-58.123h-88.36v58.123z" fill="#28369A"/>
            <path d="M1378 189.848h-100.14v3.676H1378v-3.676z" fill="#fff"/>
            <path d="M1378 194.445h-100.14a.921.921 0 0 1-.92-.921v-3.677a.92.92 0 0 1 .92-.921H1378c.51 0 .92.414.92.921v3.677c0 .506-.41.921-.92.921zm-99.22-1.843h98.3v-1.833h-98.3v1.833z" fill="#28369A"/>
            <path d="M1342.56 216.846c0-8.072-6.54-14.623-14.62-14.623-8.07 0-14.63 6.551-14.63 14.623V253.5h29.25v-36.654z" fill="#4D6ED0"/>
            <path d="M1342.56 254.43h-29.25c-.5 0-.92-.414-.92-.921v-36.664c0-8.569 6.98-15.544 15.55-15.544 8.58 0 15.55 6.975 15.55 15.544v36.664c0 .507-.42.921-.93.921zm-28.33-1.842h27.41v-35.743c0-7.555-6.15-13.701-13.7-13.701-7.55 0-13.71 6.146-13.71 13.701v35.743z" fill="#28369A"/>
            <path d="M1338.79 254.384h-21.7c-.5 0-.92-.414-.92-.921v-36.056c0-6.487 5.28-11.766 11.77-11.766 6.49 0 11.77 5.279 11.77 11.766v36.056c0 .507-.42.921-.92.921zm-20.77-1.843h19.84v-35.134c0-5.473-4.45-9.924-9.92-9.924-5.48 0-9.92 4.451-9.92 9.924v35.134z" fill="#28369A"/>
            <path d="M1366.51 193.656h-17.09v5.077h17.09v-5.077z" fill="#fff"/>
            <path d="M1366.51 199.654h-17.09a.92.92 0 0 1-.92-.921v-5.077c0-.507.41-.922.92-.922h17.09c.51 0 .93.415.93.922v5.077c0 .507-.42.921-.93.921zm-16.17-1.843h15.25v-3.234h-15.25v3.234z" fill="#28369A"/>
            <path d="M1366.51 248.488h-17.09v5.077h17.09v-5.077z" fill="#fff"/>
            <path d="M1366.51 254.486h-17.09a.92.92 0 0 1-.92-.921v-5.077c0-.507.41-.922.92-.922h17.09c.51 0 .93.415.93.922v5.077c0 .507-.42.921-.93.921zm-16.17-1.843h15.25v-3.234h-15.25v3.234z" fill="#28369A"/>
            <path d="M1364 198.734h-12.06v49.564H1364v-49.564z" fill="#fff"/>
            <path d="M1364 249.227h-12.06a.921.921 0 0 1-.92-.922v-49.563c0-.507.41-.922.92-.922H1364c.5 0 .92.415.92.922v49.563c0 .507-.42.922-.92.922zm-11.14-1.843h10.21v-47.721h-10.21v47.721z" fill="#28369A"/>
            <path d="M1368.45 253.648h-81.03v4.921h81.03v-4.921z" fill="#fff"/>
            <path d="M1368.45 259.49h-81.03a.921.921 0 0 1-.92-.922v-4.92a.92.92 0 0 1 .92-.921h81.03c.51 0 .93.414.93.921v4.92a.93.93 0 0 1-.93.922zm-80.11-1.843h79.19v-3.078h-79.19v3.078z" fill="#28369A"/>
            <path d="M1370.7 258.57h-85.54v4.921h85.54v-4.921z" fill="#fff"/>
            <path d="M1370.7 264.412h-85.54c-.5 0-.92-.415-.92-.922v-4.92c0-.507.42-.922.92-.922h85.54c.51 0 .93.415.93.922v4.92a.93.93 0 0 1-.93.922zm-84.61-1.843h83.69v-3.078h-83.69v3.078z" fill="#28369A"/>
            <path d="M1373.28 263.488h-90.68v4.921h90.68v-4.921z" fill="#fff"/>
            <path d="M1373.28 269.33h-90.68a.921.921 0 0 1-.92-.922v-4.92c0-.507.41-.922.92-.922h90.68c.5 0 .92.415.92.922v4.92c0 .507-.42.922-.92.922zm-89.76-1.843h88.84v-3.078h-88.84v3.078z" fill="#28369A"/>
            <path d="M1446.18 268.945h-236.92v10.136h236.92v-10.136z" fill="#B0C3EB"/>
            <path d="M1446.18 280.002h-236.92a.921.921 0 0 1-.92-.921v-10.136c0-.507.41-.922.92-.922h236.92c.51 0 .92.415.92.922v10.136c0 .506-.41.921-.92.921zm-236-1.843h235.08v-8.293h-235.08v8.293z" fill="#28369A"/>
            <path d="M1440.27 269.035a.93.93 0 0 1-.93-.921v-69.513c0-.507.42-.921.93-.921.5 0 .92.414.92.921v69.513c0 .506-.42.921-.92.921z" fill="#28369A"/>
            <path d="M1412.17 228.827h17.85v-17.839h-17.85v17.839z" fill="#fff"/>
            <path d="M1430.02 229.748h-17.85a.921.921 0 0 1-.92-.921v-17.839c0-.507.41-.922.92-.922h17.85c.51 0 .92.415.92.922v17.839c0 .506-.41.921-.92.921zm-16.93-1.843h16.01v-15.996h-16.01v15.996z" fill="#28369A"/>
            <path d="M1421.09 229.103c-.5 0-.92-.415-.92-.922v-16.908c0-.507.42-.921.92-.921.51 0 .93.414.93.921v16.908a.93.93 0 0 1-.93.922z" fill="#28369A"/>
            <path d="M1382.63 228.827h17.85v-17.839h-17.85v17.839z" fill="#fff"/>
            <path d="M1400.48 229.748h-17.85c-.5 0-.92-.415-.92-.921v-17.839c0-.507.42-.922.92-.922h17.85c.51 0 .92.415.92.922v17.839c0 .506-.41.921-.92.921zm-16.93-1.843h16.01v-15.996h-16.01v15.996z" fill="#28369A"/>
            <path d="M1391.56 229.103c-.5 0-.92-.415-.92-.922v-16.908c0-.507.42-.921.92-.921.51 0 .92.414.92.921v16.908c0 .507-.41.922-.92.922z" fill="#28369A"/>
            <path d="M1412.17 256.202h17.85v-17.839h-17.85v17.839z" fill="#fff"/>
            <path d="M1430.02 257.123h-17.85a.921.921 0 0 1-.92-.921v-17.839c0-.507.41-.922.92-.922h17.85c.51 0 .92.415.92.922v17.839c0 .506-.41.921-.92.921zm-16.93-1.843h16.01v-15.996h-16.01v15.996z" fill="#28369A"/>
            <path d="M1421.09 256.479c-.5 0-.92-.415-.92-.921V238.64c0-.507.42-.921.92-.921.51 0 .93.414.93.921v16.918a.93.93 0 0 1-.93.921z" fill="#28369A"/>
            <path d="M1382.63 256.202h17.85v-17.839h-17.85v17.839z" fill="#fff"/>
            <path d="M1400.48 257.123h-17.85c-.5 0-.92-.415-.92-.921v-17.839c0-.507.42-.922.92-.922h17.85c.51 0 .92.415.92.922v17.839c0 .506-.41.921-.92.921zm-16.93-1.843h16.01v-15.996h-16.01v15.996z" fill="#28369A"/>
            <path d="M1391.56 256.479c-.5 0-.92-.415-.92-.921V238.64c0-.507.42-.921.92-.921.51 0 .92.414.92.921v16.918c0 .506-.41.921-.92.921zM1214.94 269.035a.921.921 0 0 1-.92-.921v-69.513a.92.92 0 0 1 .92-.921c.5 0 .92.414.92.921v69.513c0 .506-.42.921-.92.921z" fill="#28369A"/>
            <path d="M1243.03 210.988h-17.84v17.839h17.84v-17.839z" fill="#fff"/>
            <path d="M1243.03 229.756h-17.84a.921.921 0 0 1-.92-.921v-17.839c0-.507.41-.922.92-.922h17.84c.51 0 .93.415.93.922v17.839a.93.93 0 0 1-.93.921zm-16.92-1.843h16v-15.996h-16v15.996z" fill="#28369A"/>
            <path d="M1234.11 229.103a.921.921 0 0 1-.92-.922v-16.908a.92.92 0 1 1 1.84 0v16.908c0 .507-.41.922-.92.922z" fill="#28369A"/>
            <path d="M1272.58 210.988h-17.85v17.839h17.85v-17.839z" fill="#fff"/>
            <path d="M1272.58 229.756h-17.85c-.5 0-.92-.415-.92-.921v-17.839c0-.507.42-.922.92-.922h17.85c.51 0 .92.415.92.922v17.839c0 .506-.41.921-.92.921zm-16.92-1.843h16v-15.996h-16v15.996z" fill="#28369A"/>
            <path d="M1263.66 229.103a.93.93 0 0 1-.93-.922v-16.908c0-.507.42-.921.93-.921.5 0 .92.414.92.921v16.908c0 .507-.42.922-.92.922z" fill="#28369A"/>
            <path d="M1243.03 238.363h-17.84v17.839h17.84v-17.839z" fill="#fff"/>
            <path d="M1243.03 257.123h-17.84a.921.921 0 0 1-.92-.921v-17.839c0-.507.41-.922.92-.922h17.84c.51 0 .93.415.93.922v17.839a.93.93 0 0 1-.93.921zm-16.92-1.843h16v-15.996h-16v15.996z" fill="#28369A"/>
            <path d="M1234.11 256.479a.921.921 0 0 1-.92-.921V238.64a.92.92 0 1 1 1.84 0v16.918c0 .506-.41.921-.92.921z" fill="#28369A"/>
            <path d="M1272.58 238.363h-17.85v17.839h17.85v-17.839z" fill="#fff"/>
            <path d="M1272.58 257.123h-17.85c-.5 0-.92-.415-.92-.921v-17.839c0-.507.42-.922.92-.922h17.85c.51 0 .92.415.92.922v17.839c0 .506-.41.921-.92.921zm-16.92-1.843h16v-15.996h-16v15.996z" fill="#28369A"/>
            <path d="M1263.66 256.479a.93.93 0 0 1-.93-.921V238.64c0-.507.42-.921.93-.921.5 0 .92.414.92.921v16.918c0 .506-.42.921-.92.921z" fill="#28369A"/>
            <path d="M1201.76 164.823a.318.318 0 0 1 .22-.055h19.72c1.1 0 2.16-.442 2.94-1.235a4.202 4.202 0 0 0 1.21-2.994c0-1.115-.43-2.193-1.21-2.995a4.059 4.059 0 0 0-2.94-1.235c-.32 0-.63.046-.95.12a.62.62 0 0 1-.34-.064c-.11-.056-.16-.166-.16-.286-.71-2.995-3.36-5.096-6.38-5.086a6.403 6.403 0 0 0-5.61 3.197.29.29 0 0 1-.27.166c-.12.018-.23-.019-.35-.055a5.151 5.151 0 0 0-3.14-1.032c-2.39.046-4.47 1.695-5.1 4.054a.504.504 0 0 1-.22.286.37.37 0 0 1-.34 0 2.895 2.895 0 0 0-1.57-.397v.019c-.97 0-1.91.396-2.61 1.096a3.818 3.818 0 0 0-1.07 2.663c0 .995.38 1.954 1.07 2.663a3.71 3.71 0 0 0 2.62 1.106h4.26c.11 0 .16.055.22.055M1240.06 149.159c.09-.064.2-.092.31-.083h27.61c1.53 0 3.03-.608 4.11-1.732a5.888 5.888 0 0 0 1.7-4.193 5.96 5.96 0 0 0-1.7-4.192 5.679 5.679 0 0 0-4.11-1.723c-.45 0-.89.064-1.34.166a.974.974 0 0 1-.47-.083.461.461 0 0 1-.23-.396c-1-4.193-4.7-7.132-8.93-7.114-3.22-.037-6.2 1.668-7.84 4.478a.437.437 0 0 1-.4.231.936.936 0 0 1-.47-.083 7.085 7.085 0 0 0-4.4-1.438c-3.34.065-6.26 2.368-7.14 5.676a.752.752 0 0 1-.31.397.499.499 0 0 1-.48 0 4.117 4.117 0 0 0-2.19-.563v.019c-1.36 0-2.68.553-3.65 1.539a5.319 5.319 0 0 0-1.51 3.731c0 1.401.54 2.737 1.51 3.732a5.127 5.127 0 0 0 3.66 1.548h5.96c.16 0 .23.083.31.083zM1439.04 139.944a.717.717 0 0 0-.47-.119h-41.7c-2.32 0-4.56-.903-6.21-2.553a8.598 8.598 0 0 1-2.56-6.183c0-2.303.91-4.542 2.56-6.182a8.717 8.717 0 0 1 6.21-2.553c.68 0 1.35.092 2.02.24.24.028.48-.028.71-.12.23-.12.35-.35.35-.59 1.51-6.192 7.11-10.532 13.49-10.504 4.85-.064 9.37 2.46 11.85 6.607.13.23.35.35.59.35.25.028.49-.028.72-.12a10.937 10.937 0 0 1 6.64-2.128 11.38 11.38 0 0 1 10.78 8.375c.08.24.26.452.47.59.23.12.49.12.71 0a6.437 6.437 0 0 1 3.32-.829v.027c2.07 0 4.05.821 5.51 2.276a7.738 7.738 0 0 1 2.29 5.501c0 2.064-.82 4.045-2.29 5.501a7.818 7.818 0 0 1-5.53 2.285h-8.99c-.24 0-.35.12-.47.12" fill="#7E96DD"/>
            <path d="M1318.33 177.999h-26.87a.921.921 0 0 1 0-1.843h26.87c.51 0 .93.415.93.922a.93.93 0 0 1-.93.921zM1364.93 177.999h-27.32a.921.921 0 0 1 0-1.843h27.32c.51 0 .93.415.93.922a.93.93 0 0 1-.93.921z" fill="#28369A"/>
            <path d="M1332.18 153.967a4.437 4.437 0 0 0-4.24-3.123c-1.99 0-3.67 1.317-4.24 3.123h8.48z" fill="#4D6ED0"/>
            <path d="m1318.58 177.235-19.12-.157v7.224l19.12-7.067zM1337.29 177.235l19.12-.157v7.224l-19.12-7.067z" fill="#7E96DD"/>
            <path d="M1356.41 177.078h4.73v8.947l-4.73-1.723v-7.224zM1294.73 177.078h4.93v7.196l-4.93 1.751v-8.947zM1358.8 176.792c-4.05-13.204-16.34-22.796-30.86-22.796-14.53 0-26.83 9.601-30.88 22.796h61.74z" fill="#fff"/>
            <path d="M1358.81 177.715h-61.74c-.3 0-.58-.139-.74-.378a.924.924 0 0 1-.14-.82c4.31-14.024 17.06-23.451 31.76-23.451 14.69 0 27.37 9.371 31.7 23.331a.921.921 0 0 1-.83 1.318h-.01zm-60.47-1.843h59.19c-4.4-12.587-16.14-20.963-29.59-20.963s-25.19 8.367-29.6 20.963z" fill="#28369A"/>
            <path d="M1323.7 154.888a.997.997 0 0 1-.28-.036.925.925 0 0 1-.61-1.152 5.353 5.353 0 0 1 5.13-3.778c2.36 0 4.43 1.557 5.12 3.778a.934.934 0 0 1-.61 1.152.92.92 0 0 1-1.15-.609 3.543 3.543 0 0 0-3.35-2.478c-1.52 0-2.91.995-3.37 2.478a.908.908 0 0 1-.88.645z" fill="#28369A"/>
            <path d="m1371.09 189.73-43.17-15.968-43.13 15.94 86.3.028z" fill="#fff"/>
            <path d="m1371.09 190.65-86.3-.028a.914.914 0 0 1-.9-.756.904.904 0 0 1 .59-1.022l43.13-15.941a.95.95 0 0 1 .64 0l43.16 15.968c.43.157.66.59.59 1.023a.915.915 0 0 1-.9.756h-.01zm-81.15-1.871 76 .028-38.01-14.061-37.99 14.033z" fill="#28369A"/>
            <path d="M1327.94 186.515c2.17 0 3.92-1.76 3.92-3.926a3.921 3.921 0 0 0-3.92-3.925c-2.16 0-3.92 1.76-3.92 3.925a3.928 3.928 0 0 0 3.92 3.926z" fill="#4D6ED0"/>
            <path d="M1327.94 187.436a4.857 4.857 0 0 1-4.85-4.847 4.857 4.857 0 0 1 4.85-4.847c2.68 0 4.84 2.175 4.84 4.847a4.849 4.849 0 0 1-4.84 4.847zm0-7.851a3 3 0 0 0-3 3.004 3 3 0 1 0 6 0 3.006 3.006 0 0 0-3-3.004zM1294.73 186.338c-.5 0-.92-.415-.92-.922v-8.182c0-.507.42-.922.92-.922.51 0 .93.415.93.922v8.182a.93.93 0 0 1-.93.922zM1299.46 184.809a.92.92 0 0 1-.92-.921v-6.662a.92.92 0 1 1 1.84 0v6.662a.92.92 0 0 1-.92.921zM1361.14 186.338a.921.921 0 0 1-.92-.922v-8.182a.921.921 0 1 1 1.84 0v8.182c0 .507-.41.922-.92.922zM1356.41 184.809a.929.929 0 0 1-.93-.921v-6.662c0-.507.42-.921.93-.921.5 0 .92.414.92.921v6.662c0 .507-.42.921-.92.921z" fill="#28369A"/>
            <path d="M1306.46 193.656h-17.1v5.077h17.1v-5.077z" fill="#fff"/>
            <path d="M1306.46 199.654h-17.1a.92.92 0 0 1-.92-.921v-5.077c0-.507.41-.922.92-.922h17.1c.51 0 .92.415.92.922v5.077a.92.92 0 0 1-.92.921zm-16.18-1.843h15.26v-3.234h-15.26v3.234z" fill="#28369A"/>
            <path d="M1306.46 248.488h-17.1v5.077h17.1v-5.077z" fill="#fff"/>
            <path d="M1306.46 254.486h-17.1a.92.92 0 0 1-.92-.921v-5.077c0-.507.41-.922.92-.922h17.1c.51 0 .92.415.92.922v5.077a.92.92 0 0 1-.92.921zm-16.18-1.843h15.26v-3.234h-15.26v3.234z" fill="#28369A"/>
            <path d="M1303.93 198.734h-12.05v49.564h12.05v-49.564z" fill="#fff"/>
            <path d="M1303.93 249.227h-12.05a.93.93 0 0 1-.93-.922v-49.563a.93.93 0 0 1 .93-.922h12.05c.51 0 .92.415.92.922v49.563c0 .507-.41.922-.92.922zm-11.13-1.843h10.21v-47.721h-10.21v47.721zM1446.87 199.553h-73.76c-.5 0-.92-.415-.92-.922 0-.507.42-.921.92-.921h72.4l-6.23-15.379h-77.93a.921.921 0 0 1 0-1.843h78.55c.37 0 .71.231.85.572l6.98 17.221a.93.93 0 0 1-.09.857.928.928 0 0 1-.77.405v.01z" fill="#28369A"/>
            <path d="M1440.27 269.035a.93.93 0 0 1-.93-.921v-69.513c0-.507.42-.921.93-.921.5 0 .92.414.92.921v69.513c0 .506-.42.921-.92.921zM1282.1 199.497h-73.76a.952.952 0 0 1-.77-.406.935.935 0 0 1-.09-.857l6.98-17.221c.14-.35.48-.572.86-.572h78.54a.921.921 0 0 1 0 1.843h-77.93l-6.23 15.379h72.4c.5 0 .92.415.92.921 0 .507-.42.922-.92.922v-.009z" fill="#28369A"/>
            <path d="M1214.94 269.035a.921.921 0 0 1-.92-.921v-69.513a.92.92 0 0 1 .92-.921c.5 0 .92.414.92.921v69.513c0 .506-.42.921-.92.921zM1318.33 177.999h-26.87a.921.921 0 0 1 0-1.843h26.87c.51 0 .93.415.93.922a.93.93 0 0 1-.93.921zM1364.93 177.999h-27.32a.921.921 0 0 1 0-1.843h27.32c.51 0 .93.415.93.922a.93.93 0 0 1-.93.921z" fill="#28369A"/>
        </g>
        <g opacity=".2">
            <path d="M1154.27 236.801h-23.93c-.83 0-1.63-.332-2.22-.913a3.153 3.153 0 0 1-.91-2.211v-50.052c0-.415.08-.82.24-1.198.16-.378.39-.719.67-1.013.3-.295.65-.516 1.03-.682.37-.157.79-.24 1.2-.24h29.04l16.11 16.088v19.009" fill="#B0C3EB"/>
            <path d="M1154.27 237.723h-23.93c-1.08 0-2.1-.424-2.86-1.189a4.073 4.073 0 0 1-1.19-2.865v-50.052c0-.535.1-1.06.31-1.548.21-.479.49-.922.87-1.309.39-.387.83-.672 1.33-.884a4.068 4.068 0 0 1 1.55-.314h29.05c.25 0 .48.102.66.268l16.1 16.088c.18.175.27.405.27.654v19.009c0 .507-.42.922-.92.922a.921.921 0 0 1-.92-.922v-18.622l-15.57-15.554h-28.67c-.28 0-.58.056-.83.166-.28.12-.53.277-.74.489-.2.202-.36.442-.47.709-.11.276-.17.553-.17.848v50.052c0 .58.23 1.152.65 1.557.41.415.97.645 1.56.645h23.93c.5 0 .92.415.92.921 0 .507-.42.922-.92.922l-.01.009z" fill="#28369A"/>
            <path d="M1159.41 180.484v13.195c0 .765.31 1.502.84 2.046.55.543 1.29.848 2.05.848h13.2l-16.09-16.089z" fill="#7E96DD"/>
            <path d="M1175.5 197.492h-13.2c-1 0-1.99-.415-2.69-1.115a3.848 3.848 0 0 1-1.13-2.7v-13.194c0-.369.23-.71.58-.848a.899.899 0 0 1 1 .203l16.1 16.088c.26.267.34.663.2 1.004a.927.927 0 0 1-.85.571l-.01-.009zm-15.17-14.789v10.974c0 .516.21 1.023.58 1.392.36.359.87.571 1.4.58h10.97l-12.95-12.946z" fill="#28369A"/>
            <path d="M1151.21 240.484c-.17.056-4.12 9.629-4.12 9.629l9.63-4.128-5.51-5.501z" fill="#E6EDF8"/>
            <path d="M1147.08 251.036a.886.886 0 0 1-.64-.267.9.9 0 0 1-.2-1.004c4.11-9.961 4.15-9.979 4.68-10.154.33-.111.7-.028.94.221l5.51 5.501c.22.212.32.525.26.829a.898.898 0 0 1-.54.673l-9.64 4.128c-.12.046-.24.073-.36.073h-.01zm4.39-8.974c-.62 1.428-1.71 4.008-2.67 6.311l6.3-2.699-3.63-3.612z" fill="#28369A"/>
            <path d="m1182.12 209.57-30.92 30.923 5.51 5.501 30.92-30.914-5.51-5.5v-.01z" fill="#7E96DD"/>
            <path d="M1156.71 246.908a.99.99 0 0 1-.66-.267l-5.5-5.501a.916.916 0 0 1 0-1.299l30.92-30.914c.35-.35.96-.35 1.3 0l5.5 5.501c.36.359.36.939 0 1.299l-30.92 30.914a.892.892 0 0 1-.65.267h.01zm-4.2-6.422 4.2 4.192 29.62-29.615-4.2-4.192-29.62 29.615z" fill="#28369A"/>
            <path d="M1187.63 215.996a.93.93 0 0 1-.65-.267l-5.51-5.501a.916.916 0 0 1 0-1.299l2.75-2.756a.926.926 0 0 1 .65-.267c.25 0 .48.102.66.267l5.5 5.501c.36.36.36.94 0 1.3l-2.74 2.755a.932.932 0 0 1-.66.267zm-4.2-6.422 4.2 4.192 1.45-1.447-4.21-4.192-1.44 1.447z" fill="#28369A"/>
            <path d="M1192.44 210.245a4 4 0 0 0 .85-1.262c.2-.47.3-.977.3-1.493 0-.516-.1-1.023-.3-1.484a3.85 3.85 0 0 0-.85-1.262 3.951 3.951 0 0 0-1.26-.848 3.938 3.938 0 0 0-2.98 0c-.47.194-.9.48-1.26.848l-2.06 2.064 5.51 5.501 2.06-2.064h-.01z" fill="#E6EDF8"/>
            <path d="M1190.39 213.23a.967.967 0 0 1-.66-.267l-5.51-5.501a.937.937 0 0 1-.27-.654c0-.249.1-.479.27-.655l2.07-2.064c.44-.442.98-.81 1.56-1.05a4.892 4.892 0 0 1 3.68 0c.59.249 1.12.599 1.57 1.05a4.774 4.774 0 0 1 1.41 3.401c0 .626-.12 1.253-.36 1.842a4.802 4.802 0 0 1-.98 1.493c-.02.019-.04.046-.06.065l-2.07 2.064a.889.889 0 0 1-.65.267v.009zm-4.22-6.422 4.21 4.192 1.35-1.354.06-.056c.28-.276.5-.599.65-.976.15-.35.22-.737.22-1.134 0-.396-.07-.783-.22-1.133a3.15 3.15 0 0 0-.64-.968c-.28-.276-.6-.497-.96-.645a3.057 3.057 0 0 0-2.28 0 2.88 2.88 0 0 0-.96.645l-1.42 1.41-.01.019z" fill="#28369A"/>
        </g>
        <g opacity=".2">
            <path d="M953.181 179.562a3.487 3.487 0 0 1 3.484 3.483v52.642c0 2.644-2.148 4.791-4.803 4.8h-37.418a4.81 4.81 0 0 1-4.803-4.8v-52.642a3.488 3.488 0 0 1 3.484-3.483h40.056z" fill="#7E96DD"/>
            <path d="M951.87 241.401h-37.419c-3.152 0-5.715-2.571-5.724-5.723v-52.641c0-2.423 1.982-4.395 4.397-4.404h40.055c2.416 0 4.398 1.981 4.398 4.404v52.641c0 3.152-2.572 5.713-5.716 5.723h.009zm-38.737-60.916a2.576 2.576 0 0 0-2.563 2.561v52.632c0 2.129 1.743 3.87 3.881 3.88h37.41c2.13 0 3.872-1.742 3.881-3.88v-52.632c0-1.4-1.152-2.552-2.563-2.561h-40.046z" fill="#28369A"/>
            <path d="M956.665 235.687c0 2.654-2.148 4.8-4.803 4.8h-37.418a4.798 4.798 0 0 1-4.803-4.8v-37.843h47.015v37.843h.009z" fill="#fff"/>
            <path d="M951.862 241.401h-37.418a5.73 5.73 0 0 1-5.725-5.722v-37.844c0-.506.415-.921.922-.921h47.015c.507 0 .922.415.922.921v37.844a5.73 5.73 0 0 1-5.725 5.722h.009zm-41.29-42.644v36.922a3.886 3.886 0 0 0 3.881 3.879h37.419a3.887 3.887 0 0 0 3.881-3.879v-36.922h-45.181z" fill="#28369A"/>
            <path d="M917.484 183.922h32.211v9.574h-32.211v-9.574z" fill="#fff"/>
            <path d="M949.695 194.417h-32.211a.925.925 0 0 1-.922-.922v-9.574c0-.506.415-.921.922-.921h32.211c.507 0 .922.415.922.921v9.574a.925.925 0 0 1-.922.922zm-31.289-1.843h30.367v-7.731h-30.367v7.731z" fill="#28369A"/>
            <path d="M914 203.059h6.96v5.215H914v-5.215z" fill="#fff"/>
            <path d="M920.968 209.204h-6.96a.925.925 0 0 1-.922-.921v-5.225c0-.507.415-.921.922-.921h6.96c.507 0 .922.414.922.921v5.225a.925.925 0 0 1-.922.921zm-6.038-1.843h5.116v-3.381h-5.116v3.381z" fill="#28369A"/>
            <path d="M914 211.758h6.96v5.224H914v-5.224z" fill="#fff"/>
            <path d="M920.968 217.903h-6.96a.924.924 0 0 1-.922-.921v-5.225c0-.506.415-.921.922-.921h6.96c.507 0 .922.415.922.921v5.225a.924.924 0 0 1-.922.921zm-6.038-1.843h5.116v-3.381h-5.116v3.381z" fill="#28369A"/>
            <path d="M914 220.465h6.96v5.224H914v-5.224z" fill="#fff"/>
            <path d="M920.968 226.603h-6.96a.925.925 0 0 1-.922-.922v-5.224c0-.507.415-.922.922-.922h6.96c.507 0 .922.415.922.922v5.224a.925.925 0 0 1-.922.922zm-6.038-1.843h5.116v-3.382h-5.116v3.382z" fill="#28369A"/>
            <path d="M914 229.172h6.96v5.224H914v-5.224z" fill="#fff"/>
            <path d="M920.968 235.31h-6.96a.925.925 0 0 1-.922-.922v-5.224c0-.507.415-.922.922-.922h6.96c.507 0 .922.415.922.922v5.224a.925.925 0 0 1-.922.922zm-6.038-1.843h5.116v-3.382h-5.116v3.382z" fill="#28369A"/>
            <path d="M924.453 203.059h6.969v5.215h-6.969v-5.215z" fill="#fff"/>
            <path d="M931.415 209.204h-6.97a.925.925 0 0 1-.922-.921v-5.225c0-.507.415-.921.922-.921h6.97c.507 0 .922.414.922.921v5.225a.925.925 0 0 1-.922.921zm-6.048-1.843h5.126v-3.381h-5.126v3.381z" fill="#28369A"/>
            <path d="M924.453 211.758h6.969v5.224h-6.969v-5.224z" fill="#fff"/>
            <path d="M931.415 217.903h-6.97a.924.924 0 0 1-.922-.921v-5.225c0-.506.415-.921.922-.921h6.97c.507 0 .922.415.922.921v5.225a.924.924 0 0 1-.922.921zm-6.048-1.843h5.126v-3.381h-5.126v3.381z" fill="#28369A"/>
            <path d="M924.453 220.465h6.969v5.224h-6.969v-5.224z" fill="#fff"/>
            <path d="M931.415 226.603h-6.97a.925.925 0 0 1-.922-.922v-5.224c0-.507.415-.922.922-.922h6.97c.507 0 .922.415.922.922v5.224a.925.925 0 0 1-.922.922zm-6.048-1.843h5.126v-3.382h-5.126v3.382z" fill="#28369A"/>
            <path d="M924.453 229.172h6.969v5.224h-6.969v-5.224z" fill="#fff"/>
            <path d="M931.415 235.31h-6.97a.925.925 0 0 1-.922-.922v-5.224c0-.507.415-.922.922-.922h6.97c.507 0 .922.415.922.922v5.224a.925.925 0 0 1-.922.922zm-6.048-1.843h5.126v-3.382h-5.126v3.382z" fill="#28369A"/>
            <path d="M934.898 203.059h6.961v5.215h-6.961v-5.215z" fill="#fff"/>
            <path d="M941.866 209.204h-6.96a.925.925 0 0 1-.922-.921v-5.225c0-.507.415-.921.922-.921h6.96c.507 0 .922.414.922.921v5.225a.925.925 0 0 1-.922.921zm-6.038-1.843h5.117v-3.381h-5.117v3.381z" fill="#28369A"/>
            <path d="M934.898 211.758h6.961v5.224h-6.961v-5.224z" fill="#fff"/>
            <path d="M941.866 217.903h-6.96a.924.924 0 0 1-.922-.921v-5.225c0-.506.415-.921.922-.921h6.96c.507 0 .922.415.922.921v5.225a.924.924 0 0 1-.922.921zm-6.038-1.843h5.117v-3.381h-5.117v3.381z" fill="#28369A"/>
            <path d="M934.898 220.465h6.961v5.224h-6.961v-5.224z" fill="#fff"/>
            <path d="M941.866 226.603h-6.96a.925.925 0 0 1-.922-.922v-5.224c0-.507.415-.922.922-.922h6.96c.507 0 .922.415.922.922v5.224a.925.925 0 0 1-.922.922zm-6.038-1.843h5.117v-3.382h-5.117v3.382z" fill="#28369A"/>
            <path d="M934.898 229.172h6.961v5.224h-6.961v-5.224z" fill="#fff"/>
            <path d="M941.866 235.31h-6.96a.925.925 0 0 1-.922-.922v-5.224c0-.507.415-.922.922-.922h6.96c.507 0 .922.415.922.922v5.224a.925.925 0 0 1-.922.922zm-6.038-1.843h5.117v-3.382h-5.117v3.382z" fill="#28369A"/>
            <path d="M945.344 203.059h6.969v5.215h-6.969v-5.215z" fill="#7E96DD"/>
            <path d="M952.313 209.204h-6.969a.925.925 0 0 1-.922-.921v-5.225c0-.507.415-.921.922-.921h6.969c.507 0 .922.414.922.921v5.225a.925.925 0 0 1-.922.921zm-6.047-1.843h5.125v-3.381h-5.125v3.381z" fill="#28369A"/>
            <path d="M945.344 211.758h6.969v5.224h-6.969v-5.224z" fill="#7E96DD"/>
            <path d="M952.313 217.903h-6.969a.924.924 0 0 1-.922-.921v-5.225c0-.506.415-.921.922-.921h6.969c.507 0 .922.415.922.921v5.225a.924.924 0 0 1-.922.921zm-6.047-1.843h5.125v-3.381h-5.125v3.381z" fill="#28369A"/>
            <path d="M945.344 220.465h6.969v13.923h-6.969v-13.923z" fill="#7E96DD"/>
            <path d="M952.313 235.309h-6.969a.925.925 0 0 1-.922-.922v-13.923c0-.506.415-.921.922-.921h6.969c.507 0 .922.415.922.921v13.923a.925.925 0 0 1-.922.922zm-6.047-1.843h5.125v-12.08h-5.125v12.08z" fill="#28369A"/>
            <path d="M951.87 241.401h-37.419c-3.152 0-5.715-2.571-5.724-5.723v-52.641c0-2.423 1.982-4.395 4.397-4.404h40.055c2.416 0 4.398 1.981 4.398 4.404v52.641c0 3.152-2.572 5.713-5.716 5.723h.009zm-38.737-60.916a2.576 2.576 0 0 0-2.563 2.561v52.632c0 2.129 1.743 3.87 3.881 3.88h37.41c2.13 0 3.872-1.742 3.881-3.88v-52.632c0-1.4-1.152-2.552-2.563-2.561h-40.046z" fill="#28369A"/>
        </g>
        <g opacity=".2" fill="#E6EDF8">
            <path d="m559.358 42.033 7.209-11.629c.424-.69-.295-1.502-1.051-1.198l-12.869 5.16c-.138.056-.175.221-.074.323l6.453 7.362c.102.101.277.092.342-.028h-.01v.01zM531.177 43.119l-12.814 5.27c-.756.304-.664 1.392.129 1.567l13.506 3.206a.214.214 0 0 0 .267-.22l-.793-9.648c-.009-.148-.166-.23-.295-.175zM568.99 60.148l-33.197-37.861c-.544-.599-1.558-.194-1.493.599l4.074 49.683c.074.793 1.134 1.05 1.568.36l9.56-15.13a.878.878 0 0 1 .921-.378l17.728 4.054c.802.185 1.374-.737.848-1.354h-.009v.027z"/>
        </g>
        <g opacity=".2" fill-rule="evenodd" clip-rule="evenodd" fill="#E6EDF8">
            <path d="M444.967 205.345c.23-.166.461-.322.7-.47.24-.138.461-.276.673-.396.425-.249.802-.479 1.116-.682a9.37 9.37 0 0 0 .885-.654c.396-.341.719-.728.977-1.143.258-.414.378-.912.378-1.483 0-.424-.083-.793-.249-1.106a2.253 2.253 0 0 0-.691-.783 3.234 3.234 0 0 0-1.051-.479 5.41 5.41 0 0 0-1.318-.157c-.415 0-.802.037-1.162.111-.35.073-.673.166-.968.267a5.124 5.124 0 0 0-.774.35c-.222.129-.406.24-.553.341l-.425 2.193a8.61 8.61 0 0 1 1.678-1.023 4.029 4.029 0 0 1 1.632-.341c.461 0 .784.092.959.286a.936.936 0 0 1 .276.663c0 .351-.12.655-.368.913-.24.258-.563.516-.959.774-.563.359-1.106.709-1.641 1.032-.535.322-1.023.681-1.466 1.068a7.061 7.061 0 0 0-1.3 1.502c-.359.572-.636 1.3-.793 2.175h7.772l.581-2.866a1.858 1.858 0 0 0-.507-.184 2.075 2.075 0 0 0-.507-.064c-.148 0-.314.009-.517.046a2.189 2.189 0 0 0-.58.165l-.222 1.042h-2.784c.157-.212.341-.406.544-.59.212-.184.424-.359.655-.525M437.998 198.562h-9.947a2.755 2.755 0 0 0-.719 1.051 3.107 3.107 0 0 0-.239 1.189c0 .129.009.294.027.488.019.193.093.47.222.829h2.59l-5.043 4.663-3.696-8.22h-6.822c-.636.618-.959 1.447-.959 2.479 0 .166 0 .332.018.507.019.175.074.507.166.995h3.319l3.743 8.311-9.274 8.947h-2.019c-.645.618-.959 1.438-.959 2.479 0 .166 0 .332.019.516.009.175.073.507.166.995h10.564c.323-.295.563-.636.719-1.041.157-.405.24-.802.24-1.198 0-.129-.009-.295-.018-.488-.019-.194-.093-.47-.222-.82h-3.023l5.669-5.206 3.89 8.744h6.776c.673-.617 1.014-1.437 1.014-2.479 0-.165 0-.331-.018-.506-.019-.175-.092-.507-.212-.996h-3.264l-3.936-8.845 8.693-8.404h1.78c.672-.617 1.004-1.446 1.004-2.478 0-.166 0-.332-.018-.516-.019-.175-.092-.507-.221-.996"/>
        </g>
        <g opacity=".2">
            <path d="M299.68 239.605a3.618 3.618 0 0 0 7.234.008v-33.675h-7.234v33.675-.008z" fill="#7E96DD"/>
            <path d="M303.296 243.972a4.365 4.365 0 0 1-4.358-4.364v-33.676c0-.409.335-.744.745-.744h7.234c.41 0 .745.335.745.744v33.676a4.364 4.364 0 0 1-4.366 4.356v.008zm-2.868-37.288v32.931a2.876 2.876 0 0 0 2.868 2.875 2.88 2.88 0 0 0 2.876-2.867v-32.931h-5.744v-.008z" fill="#28369A"/>
            <path d="M271.922 239.609a3.617 3.617 0 0 0 3.531 3.694 3.618 3.618 0 0 0 3.696-3.53v-33.839h-7.235v33.675h.008z" fill="#7E96DD"/>
            <path d="M275.531 244.054h-.097a4.356 4.356 0 0 1-3.054-1.348 4.336 4.336 0 0 1-1.207-3.106v-33.668c0-.409.335-.744.745-.744h7.234c.41 0 .745.335.745.744v33.839a4.365 4.365 0 0 1-4.358 4.275l-.008.008zm-2.868-37.37v32.946a2.873 2.873 0 0 0 2.809 2.934h.067a2.866 2.866 0 0 0 2.868-2.807v-33.073h-5.744z" fill="#28369A"/>
            <path d="M313.709 237.98h-48.607v10.285h48.607V237.98z" fill="#28369A"/>
            <path d="M313.712 249.008h-48.608a.748.748 0 0 1-.745-.745v-10.284c0-.41.336-.745.745-.745h48.608c.41 0 .745.335.745.745v10.284c0 .41-.335.745-.745.745zm-47.862-1.489h47.117v-8.795H265.85v8.795zM289.413 176.824c13.426 0 24.304 10.873 24.304 24.292v19.795a2.72 2.72 0 0 1-2.719 2.718h-43.162a2.726 2.726 0 0 1-2.727-2.718v-19.795c0-13.419 10.878-24.292 24.304-24.292z" fill="#28369A"/>
            <path d="M310.993 224.376h-43.162a3.476 3.476 0 0 1-3.472-3.471v-19.794c0-13.807 11.236-25.037 25.049-25.037 13.814 0 25.049 11.23 25.049 25.037v19.794a3.473 3.473 0 0 1-3.464 3.471zm-21.585-46.805c-12.986 0-23.558 10.56-23.558 23.548v19.794c0 1.087.886 1.981 1.981 1.981h43.162a1.979 1.979 0 0 0 1.974-1.981v-19.794c0-12.981-10.565-23.548-23.559-23.548z" fill="#28369A"/>
            <path d="M271.792 277.492 277.313 249h-6.631l-5.379 27.74a1.977 1.977 0 0 0 1.937 2.346h2.6c.954 0 1.766-.67 1.945-1.601l.007.007z" fill="#7E96DD"/>
            <path d="M269.851 279.837h-2.601a2.728 2.728 0 0 1-2.727-2.726c0-.186.015-.35.053-.514l5.498-28.343h8.144l-5.693 29.378a2.728 2.728 0 0 1-2.674 2.205zm1.453-30.086-5.261 27.137a1.238 1.238 0 0 0 1.215 1.467h2.6c.589 0 1.103-.417 1.215-.998l5.349-27.606H271.304z" fill="#28369A"/>
            <path d="M308.973 279.094h2.6a1.973 1.973 0 0 0 1.975-1.974 1.44 1.44 0 0 0-.038-.365l-5.379-27.747H301.5l5.521 28.492a1.98 1.98 0 0 0 1.945 1.601l.007-.007z" fill="#7E96DD"/>
            <path d="m306.302 277.64-5.693-29.378h8.144l5.498 28.343c.038.164.053.328.053.514a2.728 2.728 0 0 1-2.727 2.726h-2.601a2.722 2.722 0 0 1-2.674-2.205zm-3.89-27.889 5.35 27.606c.112.574.618.998 1.214.998h2.601c.678 0 1.237-.551 1.237-1.236 0-.082 0-.149-.023-.231l-5.26-27.137h-5.119z" fill="#28369A"/>
            <path d="M240.641 276.458c0 1.542 1.117 2.801 2.496 2.801h4.902c1.378 0 2.496-1.252 2.496-2.801v-73.196h-9.894v73.196z" fill="#4D6ED0"/>
            <path d="M243.121 279.251h4.902c1.379 0 2.496-1.251 2.496-2.8v-4.103h-9.894v4.103c0 1.549 1.118 2.8 2.496 2.8z" fill="#28369A"/>
            <path d="M248.026 279.994h-4.902c-1.788 0-3.241-1.593-3.241-3.544v-4.104c0-.409.335-.744.745-.744h9.894c.41 0 .745.335.745.744v4.104c0 1.958-1.452 3.544-3.241 3.544zm-6.653-6.903v3.359c0 1.132.782 2.055 1.751 2.055h4.902c.969 0 1.751-.923 1.751-2.055v-3.359h-8.404z" fill="#28369A"/>
            <path d="M248.034 280.002h-4.902c-1.789 0-3.241-1.594-3.241-3.545V203.26c0-.409.335-.744.745-.744h9.894c.41 0 .745.335.745.744v73.197c0 1.959-1.453 3.545-3.241 3.545zm-6.653-76.004v72.452c0 1.132.782 2.055 1.751 2.055h4.902c.961 0 1.751-.923 1.751-2.055v-72.452h-8.404z" fill="#28369A"/>
            <path d="M361.863 279.247h4.903c1.378 0 2.496-1.251 2.496-2.8V203.25h-9.895v73.197c0 1.541 1.118 2.8 2.496 2.8z" fill="#4D6ED0"/>
            <path d="M361.858 280.002c-1.788 0-3.241-1.594-3.241-3.545V203.26c0-.409.335-.744.745-.744h9.895c.409 0 .745.335.745.744v73.197c0 1.959-1.453 3.545-3.241 3.545h-4.91.007zm-1.751-76.004v72.452c0 1.109.745 2.01 1.677 2.055H366.761c.961 0 1.751-.923 1.751-2.055v-72.452h-8.405z" fill="#28369A"/>
            <path d="M359.363 203.25H250.531v13.323h108.832V203.25z" fill="#4D6ED0"/>
            <path d="M359.365 217.32H250.534a.747.747 0 0 1-.745-.745v-13.322c0-.41.335-.745.745-.745h108.839c.41 0 .745.335.745.745v13.322c0 .41-.335.745-.745.745h-.008zm-108.093-1.489H358.62v-11.834H251.279v11.834h-.007z" fill="#28369A"/>
            <path d="M380.141 192.367H229.742v10.88h150.399v-10.88z" fill="#fff"/>
            <path d="M380.143 203.991H229.745a.748.748 0 0 1-.745-.745v-10.88c0-.41.335-.745.745-.745h150.398c.41 0 .746.335.746.745v10.88a.748.748 0 0 1-.746.745zm-149.653-1.49h148.908v-9.391H230.49v9.391zM361.855 279.251h4.903c1.378 0 2.496-1.251 2.496-2.8v-4.103h-9.895v4.103c0 1.549 1.118 2.8 2.496 2.8z" fill="#28369A"/>
            <path d="M366.769 279.994h-4.903c-1.788 0-3.241-1.593-3.241-3.544v-4.104c0-.409.335-.744.745-.744h9.894c.41 0 .746.335.746.744v4.104c0 1.958-1.453 3.544-3.241 3.544zm-6.654-6.903v3.359c0 1.132.782 2.055 1.751 2.055h4.903c.961 0 1.75-.923 1.75-2.055v-3.359h-8.404z" fill="#28369A"/>
            <path d="M320.367 185.605h40.785a6.523 6.523 0 0 1-6.527 6.524h-34.266v-6.524h.008z" fill="#CCD8F2"/>
            <path d="M354.628 192.872H320.37a.747.747 0 0 1-.745-.744v-6.524c0-.41.335-.745.745-.745h40.785c.41 0 .745.335.745.745 0 4.007-3.264 7.268-7.272 7.268zm-33.513-1.489h33.513a5.783 5.783 0 0 0 5.73-5.034h-39.25v5.034h.007z" fill="#28369A"/>
            <path d="M300.793 192.129h19.58v-6.516H297.53c-.902 0-1.632.723-1.639 1.624a4.886 4.886 0 0 0 4.895 4.885l.007.007z" fill="#CCD8F2"/>
            <path d="M320.377 192.873H300.707a5.639 5.639 0 0 1-5.551-5.63 2.376 2.376 0 0 1 2.377-2.368h22.844c.409 0 .745.335.745.745v6.516a.748.748 0 0 1-.745.745v-.008zm-19.499-1.489h18.754v-5.027h-22.099a.884.884 0 0 0-.887.886 4.154 4.154 0 0 0 4.15 4.141h.082z" fill="#28369A"/>
            <path d="M330.157 152.992h34.206a4.89 4.89 0 0 1 4.687 6.293l-7.913 26.318h-40.77l9.79-32.611zM322.933 155.316l-9.105 30.294h6.527l9.797-32.618h-4.097a3.276 3.276 0 0 0-3.13 2.324h.008z" fill="#CCD8F2"/>
            <path d="M320.351 186.354h-6.527a.745.745 0 0 1-.715-.953l9.104-30.287a4.027 4.027 0 0 1 3.837-2.86h4.098a.744.744 0 0 1 .716.953l-9.798 32.618a.75.75 0 0 1-.715.529zm-5.521-1.49h4.969l9.351-31.128h-3.092a2.539 2.539 0 0 0-2.414 1.795l-8.814 29.333z" fill="#28369A"/>
            <path d="M361.141 186.346h-40.77a.74.74 0 0 1-.596-.298.735.735 0 0 1-.119-.655l9.79-32.61a.75.75 0 0 1 .715-.529h34.206a5.647 5.647 0 0 1 5.64 5.63c0 .558-.082 1.102-.238 1.631l-7.913 26.318a.751.751 0 0 1-.715.528v-.015zm-39.772-1.489h39.22l7.756-25.789c.12-.387.179-.789.179-1.199a4.153 4.153 0 0 0-4.15-4.141H330.72l-9.343 31.122-.008.007z" fill="#28369A"/>
        </g>
        <g opacity=".2">
            <path d="M992.36 178.081a4.715 4.715 0 0 0-3.097 1.511 4.71 4.71 0 0 0-1.254 3.207v58.861a4.41 4.41 0 0 0 .48 2.11 4.583 4.583 0 0 0 1.41 1.649c.599.424 1.291.7 2.01.802a4.523 4.523 0 0 0 2.157-.231l7.994-2.395a52.277 52.277 0 0 1 28.77-.36l11.58 3.152 11.58-3.152a52.278 52.278 0 0 1 28.77.36l7.99 2.395a4.49 4.49 0 0 0 2.15.231 4.6 4.6 0 0 0 2.02-.802 4.554 4.554 0 0 0 1.88-3.759v-58.87c0-1.254-.5-2.451-1.38-3.345-.69-.682-2.1-1.309-3.03-1.484-.28-.055-42.31 7.233-48.45 8.136" fill="#4D6ED0"/>
            <path d="M1042.4 247.306a.679.679 0 0 1-.24-.037l-11.58-3.151a51.245 51.245 0 0 0-28.26.359l-7.998 2.396a5.361 5.361 0 0 1-2.544.258 5.486 5.486 0 0 1-2.415-.968 5.411 5.411 0 0 1-2.268-4.524v-58.842c0-1.419.535-2.783 1.503-3.833a5.642 5.642 0 0 1 3.696-1.806.928.928 0 0 1 .996.847.934.934 0 0 1-.848.996 3.735 3.735 0 0 0-2.489 1.216 3.787 3.787 0 0 0-1.014 2.58v58.861c-.01.599.12 1.179.378 1.695.258.525.645.977 1.115 1.309.47.34 1.023.562 1.604.635a3.626 3.626 0 0 0 1.715-.184l8.039-2.414a53.067 53.067 0 0 1 29.28-.369l11.34 3.087 11.34-3.087a53.07 53.07 0 0 1 29.28.369l7.99 2.396c.6.212 1.18.276 1.75.193a3.629 3.629 0 0 0 1.61-.645c.46-.332.85-.792 1.12-1.308.26-.507.39-1.088.38-1.686v-58.88c0-1.013-.4-1.972-1.12-2.69-.5-.498-1.65-1.023-2.41-1.198-1.18.166-9.83 1.64-18.99 3.197-12.16 2.073-25.95 4.423-29.29 4.911a.905.905 0 0 1-1.04-.774.913.913 0 0 1 .77-1.041c3.32-.488 17.09-2.838 29.25-4.911 19.2-3.271 19.24-3.271 19.51-3.216 1.07.203 2.67.903 3.5 1.732a5.62 5.62 0 0 1 1.65 3.999v58.871c.01.884-.19 1.759-.58 2.524-.4.783-.98 1.465-1.69 1.972-.72.516-1.56.848-2.43.968a5.39 5.39 0 0 1-2.59-.277l-7.94-2.377a51.34 51.34 0 0 0-28.26-.36l-11.58 3.152c-.09.018-.16.037-.24.037v.018z" fill="#28369A"/>
            <path d="M1092.06 225.109v10.016c0 .728-.16 1.447-.49 2.101a4.586 4.586 0 0 1-1.37 1.659c-.58.442-1.25.746-1.97.875-.72.138-1.46.111-2.16-.083a65.867 65.867 0 0 0-27.04-1.999" fill="#E6EDF8"/>
            <path d="M1087.33 240.773c-.51 0-1.02-.064-1.51-.202-8.72-2.525-17.69-3.179-26.67-1.972a.911.911 0 0 1-1.03-.793.909.909 0 0 1 .79-1.032 66.288 66.288 0 0 1 27.42 2.027c.55.157 1.15.175 1.72.065.58-.111 1.12-.35 1.59-.71.47-.35.84-.81 1.1-1.336.26-.525.4-1.105.4-1.695v-10.016a.92.92 0 1 1 1.84 0v10.016c0 .866-.2 1.732-.58 2.506a5.758 5.758 0 0 1-1.64 1.99 5.664 5.664 0 0 1-3.43 1.152z" fill="#28369A"/>
            <path d="M992.734 225.109v10.016c0 .728.166 1.447.489 2.101a4.617 4.617 0 0 0 1.374 1.659c.58.442 1.253.746 1.972.875a4.739 4.739 0 0 0 2.158-.083 65.86 65.86 0 0 1 27.043-1.999" fill="#E6EDF8"/>
            <path d="M997.464 240.776a5.69 5.69 0 0 1-3.421-1.152 5.648 5.648 0 0 1-2.231-4.487v-10.016c0-.507.415-.922.922-.922.507 0 .922.415.922.922v10.016a3.792 3.792 0 0 0 1.503 3.031 3.87 3.87 0 0 0 1.586.71c.571.11 1.17.082 1.733-.074a66.086 66.086 0 0 1 27.412-2.018c.51.064.86.534.8 1.032a.93.93 0 0 1-1.04.792 64.203 64.203 0 0 0-26.656 1.972 5.714 5.714 0 0 1-1.521.203l-.009-.009z" fill="#28369A"/>
            <path d="M1042.4 244.02a89.609 89.609 0 0 0-40.08-9.454h-4.864a4.742 4.742 0 0 1-3.347-1.382 4.735 4.735 0 0 1-1.382-3.345v-51.996a4.714 4.714 0 0 1 4.729-4.718h4.864c13.91 0 27.63 3.234 40.08 9.454v61.459-.018z" fill="#F5F7FC"/>
            <path d="M1042.4 244.94a.963.963 0 0 1-.42-.102c-12.25-6.118-25.97-9.361-39.66-9.361h-4.864a5.692 5.692 0 0 1-4.001-1.659 5.683 5.683 0 0 1-1.65-3.999v-51.996c0-1.502.59-2.921 1.65-3.99a5.691 5.691 0 0 1 4.001-1.649h4.864c13.98 0 27.98 3.298 40.48 9.546a.91.91 0 0 1 .51.82v61.459c0 .322-.17.617-.43.783a.937.937 0 0 1-.49.138l.01.01zm-44.935-70.904a3.825 3.825 0 0 0-2.692 1.115 3.783 3.783 0 0 0-1.115 2.69v51.996c0 1.005.405 1.981 1.115 2.691a3.83 3.83 0 0 0 2.692 1.115h4.865c13.48 0 26.99 3.068 39.15 8.901v-59.405c-12.13-5.952-25.65-9.103-39.15-9.103h-4.865z" fill="#28369A"/>
            <path d="M1042.42 182.567a89.64 89.64 0 0 1 40.08-9.454h4.86c1.26 0 2.46.498 3.35 1.382a4.739 4.739 0 0 1 1.38 3.345v51.996c0 1.254-.5 2.461-1.38 3.345a4.743 4.743 0 0 1-3.35 1.382h-4.86a89.653 89.653 0 0 0-40.08 9.454v-61.459.009z" fill="#F5F7FC"/>
            <path d="M1042.42 244.938a.963.963 0 0 1-.49-.138.935.935 0 0 1-.43-.783v-61.46c0-.35.19-.672.51-.82 12.5-6.247 26.5-9.546 40.48-9.546h4.86c1.5 0 2.95.599 4 1.65a5.61 5.61 0 0 1 1.66 3.99v51.996a5.69 5.69 0 0 1-1.66 3.999 5.685 5.685 0 0 1-4 1.658h-4.86c-13.69 0-27.41 3.235-39.66 9.362a.93.93 0 0 1-.42.101l.01-.009zm.92-61.809v59.404c12.16-5.823 25.67-8.901 39.15-8.901h4.86c1.01 0 1.99-.405 2.7-1.115a3.816 3.816 0 0 0 1.11-2.69v-51.996c0-1.014-.4-1.972-1.11-2.691a3.835 3.835 0 0 0-2.7-1.115h-4.86c-13.51 0-27.03 3.142-39.15 9.104zM1034.94 195.227a.911.911 0 0 1-.4-.092 59.387 59.387 0 0 0-30.1-5.501.923.923 0 0 1-.14-1.843 61.335 61.335 0 0 1 31.03 5.667c.46.221.65.764.44 1.225a.927.927 0 0 1-.84.525l.01.019zM1034.67 205.051a.911.911 0 0 1-.4-.092 59.436 59.436 0 0 0-30.1-5.501.932.932 0 0 1-1-.848.944.944 0 0 1 .85-.995 61.306 61.306 0 0 1 31.03 5.667c.46.221.66.765.45 1.225a.927.927 0 0 1-.84.525l.01.019zM1034.38 214.863a.887.887 0 0 1-.39-.092 59.418 59.418 0 0 0-30.09-5.501.932.932 0 0 1-1-.847.932.932 0 0 1 .85-.996 61.317 61.317 0 0 1 31.03 5.667.92.92 0 0 1-.4 1.751v.018zM1034.11 224.676a.911.911 0 0 1-.4-.092 59.38 59.38 0 0 0-30.09-5.501.917.917 0 0 1-.99-.848.93.93 0 0 1 .85-.995 61.345 61.345 0 0 1 31.03 5.667c.46.221.65.765.44 1.225a.927.927 0 0 1-.84.525v.019z" fill="#28369A"/>
            <path d="M1049.53 195.396a.918.918 0 0 1-.37-1.76 61.188 61.188 0 0 1 31.15-4.966c.51.055.88.507.82 1.013a.919.919 0 0 1-1.01.82 59.475 59.475 0 0 0-30.21 4.82.912.912 0 0 1-.38.082v-.009zM1049.59 205.216a.92.92 0 0 1-.37-1.76 61.295 61.295 0 0 1 31.15-4.967c.51.056.88.507.82 1.014a.907.907 0 0 1-1.01.82 59.256 59.256 0 0 0-30.21 4.819.913.913 0 0 1-.38.083v-.009zM1049.64 215.041a.92.92 0 0 1-.37-1.76 61.183 61.183 0 0 1 31.15-4.967c.51.056.88.507.82 1.014a.92.92 0 0 1-1.01.82 59.256 59.256 0 0 0-30.21 4.819.913.913 0 0 1-.38.083v-.009zM1049.7 224.86a.918.918 0 0 1-.37-1.76 61.284 61.284 0 0 1 31.15-4.966c.51.055.88.507.82 1.013a.913.913 0 0 1-1.01.82 59.257 59.257 0 0 0-30.21 4.82.912.912 0 0 1-.38.082v-.009z" fill="#28369A"/>
        </g>
        <g opacity=".2">
            <path d="M818.518 212.117c0 .331-.065.672-.194.976-.129.314-.323.59-.553.83a2.564 2.564 0 0 1-1.807.746h-10.251a2.55 2.55 0 0 1-1.816-.756 2.57 2.57 0 0 1-.756-1.815c0-.682.267-1.327.756-1.815a2.577 2.577 0 0 1 1.816-.756h10.251c.682 0 1.327.268 1.816.756.479.479.756 1.133.756 1.815l-.018.019z" fill="#B0C3EB"/>
            <path d="M815.955 215.599h-10.252c-.931 0-1.806-.36-2.461-1.023a3.466 3.466 0 0 1-1.023-2.46c0-.931.359-1.806 1.023-2.46a3.464 3.464 0 0 1 2.461-1.023h10.252c.931 0 1.807.359 2.461 1.023a3.46 3.46 0 0 1 .756 3.787 3.53 3.53 0 0 1-.747 1.124 3.505 3.505 0 0 1-2.47 1.032zm-10.252-5.123c-.442 0-.848.175-1.161.479a1.613 1.613 0 0 0-.479 1.161c0 .442.175.848.479 1.161.304.313.719.479 1.161.479h10.252c.212 0 .424-.046.627-.129a1.74 1.74 0 0 0 .534-.35 1.65 1.65 0 0 0 .489-1.161c0-.442-.175-.848-.479-1.161a1.62 1.62 0 0 0-1.162-.479h-10.261z" fill="#28369A"/>
            <path d="M808.266 220.739v-6.063h5.125v6.063" fill="#fff"/>
            <path d="M813.391 221.664a.925.925 0 0 1-.922-.922v-5.141h-3.282v5.141a.924.924 0 0 1-.921.922.925.925 0 0 1-.922-.922v-6.063c0-.507.415-.921.922-.921h5.125c.507 0 .922.414.922.921v6.063a.925.925 0 0 1-.922.922z" fill="#28369A"/>
            <path d="M825.1 217.166a2.565 2.565 0 0 0-.756 1.806c0 .672.267 1.327.756 1.815l7.246 7.242c.239.24.516.433.829.572a2.574 2.574 0 0 0 1.973.009 2.589 2.589 0 0 0 1.595-2.387c0-.341-.074-.672-.203-.986a2.49 2.49 0 0 0-.571-.829l-7.246-7.242a2.579 2.579 0 0 0-1.816-.756c-.683 0-1.328.267-1.807.756z" fill="#B0C3EB"/>
            <path d="M834.171 229.724c-.47 0-.922-.101-1.346-.276a3.36 3.36 0 0 1-1.134-.774l-7.246-7.243a3.465 3.465 0 0 1-1.023-2.46 3.469 3.469 0 0 1 1.079-2.524 3.48 3.48 0 0 1 2.406-.959c.903 0 1.806.369 2.461 1.023l7.246 7.252c.332.322.59.7.765 1.124.184.433.277.884.277 1.345 0 .461-.083.922-.268 1.345a3.587 3.587 0 0 1-.756 1.134 3.452 3.452 0 0 1-2.479 1.023l.018-.01zm-8.454-11.868c-.285.304-.442.71-.442 1.115 0 .443.175.848.479 1.161l7.246 7.252c.166.166.341.286.535.368.203.083.424.129.645.139.212 0 .424-.037.627-.12.194-.083.378-.203.526-.35a1.84 1.84 0 0 0 .368-.544c.083-.193.12-.405.12-.617a1.75 1.75 0 0 0-.129-.645 1.592 1.592 0 0 0-.369-.535l-7.255-7.251c-.617-.618-1.705-.618-2.323 0a.187.187 0 0 1-.046.037l.018-.01z" fill="#28369A"/>
            <path d="m828.34 228.405 2.203-2.202-3.623-3.621-2.397 2.396" fill="#fff"/>
            <path d="M828.334 229.328a.916.916 0 0 1-.654-1.566l1.549-1.548-2.323-2.322-1.743 1.741a.918.918 0 1 1-1.3-1.299l2.397-2.396c.351-.35.959-.35 1.3 0l3.623 3.622a.911.911 0 0 1 .267.654.95.95 0 0 1-.267.654l-2.203 2.202a.904.904 0 0 1-.655.267l.009-.009z" fill="#28369A"/>
            <path d="M834.037 247.868c2.083-12.808-6.628-24.879-19.443-26.961-12.814-2.073-24.89 6.625-26.974 19.433-2.083 12.808 6.629 24.879 19.443 26.961 12.814 2.082 24.89-6.625 26.974-19.433z" fill="#B0C3EB"/>
            <path d="M810.841 268.526c-1.3 0-2.609-.101-3.927-.313-6.444-1.041-12.095-4.533-15.912-9.832-3.816-5.289-5.347-11.757-4.296-18.189 2.157-13.287 14.732-22.344 28.034-20.197 13.303 2.156 22.365 14.724 20.208 28.02-1.945 11.979-12.344 20.511-24.107 20.511zm-.028-47.002c-10.878 0-20.493 7.897-22.291 18.963-.968 5.953.443 11.923 3.974 16.816 3.53 4.893 8.748 8.118 14.713 9.086 12.298 1.999 23.922-6.386 25.914-18.669 2-12.291-6.389-23.911-18.687-25.901a23.22 23.22 0 0 0-3.632-.295h.009z" fill="#28369A"/>
            <path d="M827.937 246.873c1.531-9.435-4.876-18.336-14.325-19.866-9.44-1.53-18.346 4.874-19.876 14.319-1.54 9.435 4.877 18.336 14.326 19.866 9.44 1.53 18.345-4.874 19.875-14.319z" fill="#fff"/>
            <path d="M810.871 262.344c-.987 0-1.973-.083-2.969-.24a18.153 18.153 0 0 1-11.883-7.334c-2.848-3.953-3.991-8.781-3.208-13.582.775-4.81 3.383-9.021 7.338-11.877a18.117 18.117 0 0 1 13.589-3.207 18.154 18.154 0 0 1 11.883 7.335c2.848 3.953 3.991 8.781 3.208 13.582a18.146 18.146 0 0 1-7.338 11.877 18.096 18.096 0 0 1-10.629 3.446h.009zm-.074-34.637c-3.411 0-6.73 1.06-9.551 3.096a16.264 16.264 0 0 0-6.6 10.671 16.265 16.265 0 0 0 2.885 12.208 16.273 16.273 0 0 0 10.676 6.598 16.253 16.253 0 0 0 12.214-2.884 16.266 16.266 0 0 0 6.601-10.67 16.267 16.267 0 0 0-2.886-12.209 16.307 16.307 0 0 0-10.675-6.598 16.352 16.352 0 0 0-2.664-.212z" fill="#28369A"/>
            <path d="M810.828 258.269a.925.925 0 0 1-.922-.921v-2.212c0-.507.415-.921.922-.921.507 0 .922.414.922.921v2.212a.925.925 0 0 1-.922.921zM810.828 233.992a.925.925 0 0 1-.922-.922v-2.211c0-.507.415-.921.922-.921.507 0 .922.414.922.921v2.211a.925.925 0 0 1-.922.922zM818.643 237.217a.946.946 0 0 1-.655-.267.918.918 0 0 1 0-1.299l1.558-1.557a.917.917 0 0 1 1.3 0c.36.359.36.94 0 1.299l-1.558 1.557a.906.906 0 0 1-.654.267h.009zM824.088 245.019h-2.213a.925.925 0 0 1-.922-.922c0-.507.415-.921.922-.921h2.213c.507 0 .921.414.921.921a.924.924 0 0 1-.921.922zM810.942 245.967a1.972 1.972 0 1 0 0-3.944 1.972 1.972 0 0 0 0 3.944zM820.209 254.389a.946.946 0 0 1-.655-.267l-1.558-1.557a.918.918 0 1 1 1.3-1.299l1.558 1.557a.916.916 0 0 1-.655 1.566h.01zM801.455 254.389a.916.916 0 0 1-.654-1.566l1.558-1.557a.918.918 0 1 1 1.3 1.299l-1.558 1.557a.908.908 0 0 1-.655.267h.009zM799.791 245.019h-2.213a.925.925 0 0 1-.922-.922c0-.507.415-.921.922-.921h2.213c.507 0 .922.414.922.921a.925.925 0 0 1-.922.922zM803.021 237.217a.944.944 0 0 1-.654-.267l-1.558-1.557a.916.916 0 0 1 0-1.299.917.917 0 0 1 1.3 0l1.558 1.557a.918.918 0 0 1-.655 1.566h.009z" fill="#28369A"/>
        </g>
        <g opacity=".2">
            <path d="M879.227 74.106h-137.36a6.451 6.451 0 0 0-6.453 6.45V186.62a6.452 6.452 0 0 0 6.453 6.45h137.36a6.452 6.452 0 0 0 6.453-6.45V80.555a6.451 6.451 0 0 0-6.453-6.45z" fill="#7E96DD"/>
            <path d="M879.227 193.992h-137.36c-4.065 0-7.375-3.308-7.375-7.371V80.555c0-4.064 3.31-7.371 7.375-7.371h137.36c4.065 0 7.375 3.308 7.375 7.371v106.066c0 4.063-3.31 7.371-7.375 7.371zM741.867 75.027a5.534 5.534 0 0 0-5.531 5.528v106.066c0 3.05 2.48 5.528 5.531 5.528h137.36a5.534 5.534 0 0 0 5.531-5.528V80.555c0-3.05-2.48-5.529-5.531-5.529h-137.36z" fill="#28369A"/>
            <path d="M864.521 103H757.086a2.766 2.766 0 0 0-2.766 2.764v13.748a2.765 2.765 0 0 0 2.766 2.764h107.435a2.764 2.764 0 0 0 2.766-2.764v-13.748a2.765 2.765 0 0 0-2.766-2.764z" fill="#B0C3EB"/>
            <path d="M864.521 123.197H757.086a3.686 3.686 0 0 1-3.688-3.685v-13.748a3.686 3.686 0 0 1 3.688-3.686h107.435a3.685 3.685 0 0 1 3.688 3.686v13.748a3.685 3.685 0 0 1-3.688 3.685zm-107.435-19.276a1.849 1.849 0 0 0-1.844 1.843v13.748c0 1.013.83 1.842 1.844 1.842h107.435a1.849 1.849 0 0 0 1.844-1.842v-13.748c0-1.014-.83-1.843-1.844-1.843H757.086z" fill="#28369A"/>
            <path d="M866.365 88.313H755.242a.922.922 0 0 0-.922.92v7.335c0 .51.413.922.922.922h111.123a.922.922 0 0 0 .922-.921v-7.335a.922.922 0 0 0-.922-.921z" fill="#B0C3EB"/>
            <path d="M866.365 98.41H755.242a1.849 1.849 0 0 1-1.844-1.842v-7.334c0-1.014.83-1.843 1.844-1.843h111.123c1.014 0 1.844.829 1.844 1.843v7.334c0 1.014-.83 1.843-1.844 1.843zm-111.123-9.176v7.334h111.123v-7.334H755.242z" fill="#28369A"/>
            <path d="M755.242 88.902h8.5v8.293h-8.5a.924.924 0 0 1-.922-.921v-6.45c0-.507.415-.922.922-.922z" fill="#28369A"/>
            <path d="M764.664 98.116h-9.422a1.849 1.849 0 0 1-1.844-1.843v-6.45c0-1.013.83-1.842 1.844-1.842h9.422v10.135zm-9.422-8.293v6.45h7.578v-6.45h-7.578z" fill="#28369A"/>
            <path d="M864.521 159.004H757.086a2.766 2.766 0 0 0-2.766 2.764v13.748a2.765 2.765 0 0 0 2.766 2.764h107.435a2.764 2.764 0 0 0 2.766-2.764v-13.748a2.765 2.765 0 0 0-2.766-2.764z" fill="#B0C3EB"/>
            <path d="M864.521 179.193H757.086a3.686 3.686 0 0 1-3.688-3.685V161.76a3.687 3.687 0 0 1 3.688-3.686h107.435a3.686 3.686 0 0 1 3.688 3.686v13.748a3.685 3.685 0 0 1-3.688 3.685zm-107.435-19.276a1.849 1.849 0 0 0-1.844 1.843v13.748a1.85 1.85 0 0 0 1.844 1.843h107.435a1.85 1.85 0 0 0 1.844-1.843V161.76c0-1.014-.83-1.843-1.844-1.843H757.086z" fill="#28369A"/>
            <path d="M763.914 114.157a3.585 3.585 0 1 0-3.586-3.584 3.586 3.586 0 0 0 3.586 3.584z" fill="#E6EDF8"/>
            <path d="M763.914 115.07a4.514 4.514 0 0 1-4.508-4.506 4.508 4.508 0 0 1 9.016 0 4.508 4.508 0 0 1-4.508 4.506zm0-7.159a2.664 2.664 0 1 0 2.664 2.663 2.67 2.67 0 0 0-2.664-2.663z" fill="#28369A"/>
            <path d="M864.521 127.789H757.086a2.766 2.766 0 0 0-2.766 2.764v20.17a2.766 2.766 0 0 0 2.766 2.765h107.435a2.765 2.765 0 0 0 2.766-2.765v-20.17a2.765 2.765 0 0 0-2.766-2.764z" fill="#B0C3EB"/>
            <path d="M864.521 154.409H757.086a3.687 3.687 0 0 1-3.688-3.686v-20.17a3.687 3.687 0 0 1 3.688-3.686h107.435a3.686 3.686 0 0 1 3.688 3.686v20.17a3.686 3.686 0 0 1-3.688 3.686zM757.086 128.71a1.849 1.849 0 0 0-1.844 1.843v20.17c0 1.014.83 1.843 1.844 1.843h107.435a1.849 1.849 0 0 0 1.844-1.843v-20.17c0-1.014-.83-1.843-1.844-1.843H757.086zM859.493 109.883h-83.587v.921h83.587v-.921z" fill="#28369A"/>
            <path d="M859.952 109.422h-84.499v1.834h84.499v-1.834z" fill="#28369A"/>
            <path d="M763.914 170.024a3.585 3.585 0 1 0-3.586-3.584 3.586 3.586 0 0 0 3.586 3.584z" fill="#E6EDF8"/>
            <path d="M763.914 170.937a4.513 4.513 0 0 1-4.508-4.505 4.508 4.508 0 0 1 9.016 0 4.508 4.508 0 0 1-4.508 4.505zm0-7.159a2.67 2.67 0 0 0-2.664 2.663 2.665 2.665 0 0 0 5.328 0 2.664 2.664 0 0 0-2.664-2.663z" fill="#28369A"/>
            <path d="M763.914 138.255a3.585 3.585 0 1 0 .002-7.17 3.585 3.585 0 0 0-.002 7.17z" fill="#E6EDF8"/>
            <path d="M763.914 139.176a4.514 4.514 0 0 1-4.508-4.506 4.508 4.508 0 0 1 9.016 0 4.508 4.508 0 0 1-4.508 4.506zm0-7.16a2.665 2.665 0 0 0-2.664 2.663 2.665 2.665 0 0 0 5.328 0 2.67 2.67 0 0 0-2.664-2.663zM852.136 115.395h-76.23v.921h76.23v-.921z" fill="#28369A"/>
            <path d="M852.605 114.934h-77.152v1.833h77.152v-1.833zM859.493 164.969h-83.587v.921h83.587v-.921z" fill="#28369A"/>
            <path d="M859.952 164.508h-84.499v1.833h84.499v-1.833zM853.058 133.758h-77.152v.921h77.152v-.921z" fill="#28369A"/>
            <path d="M853.527 133.297h-78.074v1.834h78.074v-1.834zM796.114 145.691h-20.208v.922h20.208v-.922z" fill="#28369A"/>
            <path d="M796.582 145.23h-21.129v1.834h21.129v-1.834zM818.156 171.398h-42.25v.922h42.25v-.922z" fill="#28369A"/>
            <path d="M818.625 170.938h-43.172v1.833h43.172v-1.833zM859.493 139.258h-83.587v.921h83.587v-.921z" fill="#28369A"/>
            <path d="M859.952 138.797h-84.499v1.834h84.499v-1.834z" fill="#28369A"/>
        </g>
        <g opacity=".2">
            <path d="M721.733 247.559h-258.42a6.306 6.306 0 0 0-6.305 6.302v12.596h271.013v-12.596a6.307 6.307 0 0 0-6.306-6.302h.018z" fill="#B0C3EB"/>
            <path d="M728.03 267.386H457.008a.925.925 0 0 1-.922-.922v-12.595c0-3.99 3.245-7.224 7.227-7.224h258.42c3.974.009 7.21 3.252 7.21 7.224v12.595a.925.925 0 0 1-.922.922h.009zm-270.1-1.843h269.178v-11.674a5.39 5.39 0 0 0-5.384-5.382H463.313a5.39 5.39 0 0 0-5.383 5.382v11.674z" fill="#28369A"/>
            <path d="M728.03 266.465H457.008a23.51 23.51 0 0 0 21.692 12.596h227.749a23.398 23.398 0 0 0 21.535-12.495l.055-.101h-.018.009z" fill="#B0C3EB"/>
            <path d="M477.834 280c-8.997 0-17.432-5.077-21.636-13.112a.925.925 0 0 1 .028-.903.923.923 0 0 1 .792-.442H728.05c.332 0 .636.175.802.461a.914.914 0 0 1 0 .921l-.056.101c-4.296 8.183-13.081 13.269-22.364 12.965H478.71a27.86 27.86 0 0 1-.866.018l-.01-.009zm-19.239-12.614c4.231 6.874 11.947 11.066 20.078 10.753h227.786c8.131.286 15.829-3.898 20.014-10.753H458.595z" fill="#28369A"/>
            <path d="M709.119 115.276c0-6.957-5.641-12.596-12.602-12.596H488.524c-6.96 0-12.602 5.639-12.602 12.596v132.289h233.207V115.276h-.01z" fill="#B0C3EB"/>
            <path d="M709.925 248.486h-235.05V115.275c0-7.454 6.066-13.517 13.524-13.517h207.993c7.458 0 13.524 6.063 13.524 13.517v133.211h.009zm-233.206-1.843h231.363V115.275c0-6.441-5.237-11.674-11.68-11.674H488.408c-6.444 0-11.68 5.233-11.68 11.674v131.368h-.009z" fill="#28369A"/>
            <path d="M491.117 117.414h203.735v129.921H491.117V117.414z" fill="#fff"/>
            <path d="M694.852 248.256H491.117a.924.924 0 0 1-.922-.921V117.414c0-.507.415-.922.922-.922h203.735c.507 0 .921.415.921.922v129.921a.923.923 0 0 1-.921.921zm-202.813-1.842H693.93V118.335H492.039v128.079z" fill="#28369A"/>
            <path d="M531.68 246.414c0-4.072 3.3-7.371 7.375-7.371h106.937a7.371 7.371 0 0 1 7.375 7.371v.922H531.68v-.922z" fill="#4D6ED0" opacity=".7"/>
            <path d="M663.712 127.43H521.07v119.785h142.642V127.43z" fill="#B0C3EB" opacity=".7"/>
            <path d="M663.712 248.136H521.07a.924.924 0 0 1-.922-.921V127.429c0-.507.415-.921.922-.921h142.642c.507 0 .922.414.922.921v119.786a.924.924 0 0 1-.922.921zm-141.72-1.842H662.79V128.351H521.992v117.943z" fill="#28369A"/>
            <path d="M663.709 143.406H521.805v1.843h141.904v-1.843zM653.462 135.96a2.563 2.563 0 1 0-5.126.002 2.563 2.563 0 0 0 5.126-.002z" fill="#28369A"/>
            <path d="M554.039 203.105h-17.258a4.609 4.609 0 0 0-4.609 4.608v12.126a4.609 4.609 0 0 0 4.609 4.607h17.258a4.609 4.609 0 0 0 4.609-4.607v-12.126a4.609 4.609 0 0 0-4.609-4.608zM585.633 203.41h-17.258a4.608 4.608 0 0 0-4.609 4.607v12.126a4.607 4.607 0 0 0 4.609 4.607h17.258a4.608 4.608 0 0 0 4.609-4.607v-12.126a4.609 4.609 0 0 0-4.609-4.607zM617.242 203.41h-17.258a4.609 4.609 0 0 0-4.609 4.607v12.126a4.608 4.608 0 0 0 4.609 4.607h17.258a4.607 4.607 0 0 0 4.609-4.607v-12.126a4.608 4.608 0 0 0-4.609-4.607zM648.844 203.41h-17.258a4.608 4.608 0 0 0-4.609 4.607v12.126a4.607 4.607 0 0 0 4.609 4.607h17.258a4.608 4.608 0 0 0 4.609-4.607v-12.126a4.609 4.609 0 0 0-4.609-4.607zM581.9 152.961h-42.056a7.373 7.373 0 0 0-7.375 7.371v21.755a7.374 7.374 0 0 0 7.375 7.372H581.9a7.374 7.374 0 0 0 7.375-7.372v-21.755a7.373 7.373 0 0 0-7.375-7.371zM646.008 152.961h-42.867a7.373 7.373 0 0 0-7.375 7.371v21.755a7.374 7.374 0 0 0 7.375 7.372h42.867a7.374 7.374 0 0 0 7.375-7.372v-21.755a7.373 7.373 0 0 0-7.375-7.371z" fill="#4D6ED0" opacity=".7"/>
        </g>
        <g opacity=".2">
            <path d="M83.796 219.949a.9.9 0 0 0-1.208-.391.888.888 0 0 0-.473.641l-5.022 27.722a.901.901 0 0 0 .722 1.046c.196.033.392 0 .567-.081l14.385-7.289a1.792 1.792 0 0 0 .79-2.409l-9.754-19.232-.007-.007zm4.057 17.917a1.055 1.055 0 0 1-.466 1.417l-2.734 1.39a1.055 1.055 0 0 1-1.512-1.141l.945-4.906a1.054 1.054 0 0 1 1.978-.276l1.789 3.516z" fill="#4D6ED0"/>
            <path d="M83.796 219.949a.9.9 0 0 0-1.208-.391.888.888 0 0 0-.473.641l-5.022 27.722a.901.901 0 0 0 .722 1.046c.196.033.392 0 .567-.081l14.385-7.289a1.792 1.792 0 0 0 .79-2.409l-9.754-19.232-.007-.007zm4.057 17.917a1.055 1.055 0 0 1-.466 1.417l-2.734 1.39a1.055 1.055 0 0 1-1.512-1.141l.945-4.906a1.054 1.054 0 0 1 1.978-.276l1.789 3.516v0z" stroke="#28369A" stroke-width="2" stroke-linecap="round" stroke-linejoin="round"/>
            <path d="m88.367 253.846 3.091-5.095a1 1 0 0 0-.337-1.377l-21.298-12.923a1 1 0 0 0-1.377.338l-3.092 5.095a2.009 2.009 0 0 0 .675 2.76l19.577 11.883a2.01 2.01 0 0 0 2.76-.674v-.007z" fill="#E6EDF8" stroke="#28369A" stroke-width="2" stroke-linecap="round" stroke-linejoin="round"/>
            <path d="m88.155 245.57-1.397 2.301M84.311 243.242l-1.397 2.301M80.483 240.91l-1.397 2.301M76.647 238.582l-1.397 2.301M72.811 236.262l-1.397 2.301" stroke="#28369A" stroke-width="2" stroke-linecap="round" stroke-linejoin="round"/>
            <path d="M27.305 211.727c0 9.367 7.6 16.965 16.97 16.965s16.971-7.598 16.971-16.965-7.601-16.965-16.97-16.965c-9.37 0-16.971 7.598-16.971 16.965z" fill="#F5F7FC"/>
            <path d="M27.305 211.727c0 9.367 7.6 16.965 16.97 16.965s16.971-7.598 16.971-16.965-7.601-16.965-16.97-16.965c-9.37 0-16.971 7.598-16.971 16.965z" stroke="#28369A" stroke-width="2" stroke-linecap="round" stroke-linejoin="round"/>
            <path d="M27.306 211.373c-7.615 4.359-12.158 8.671-11.172 11.215 1.498 3.887 15.316 2.173 30.863-3.826 15.546-5.999 26.92-14.009 25.429-17.896-.986-2.544-7.244-2.686-15.817-.803" stroke="#28369A" stroke-width="2" stroke-linecap="round" stroke-linejoin="round"/>
            <path d="M131.372 187.152c1.168 0 2.106.945 2.106 2.106v9.461c0 .52.129 1.026.378 1.478l6.4 11.735a3.092 3.092 0 0 1-1.242 4.197 3.126 3.126 0 0 1-1.479.378h-14.31a3.096 3.096 0 0 1-2.714-4.575l6.399-11.735c.25-.452.378-.965.378-1.478v-9.461c0-1.168.945-2.106 2.106-2.106h1.978z" fill="#fff"/>
            <path d="M131.372 187.152c1.168 0 2.106.945 2.106 2.106v9.461c0 .52.129 1.026.378 1.478l6.4 11.735a3.092 3.092 0 0 1-1.242 4.197 3.126 3.126 0 0 1-1.479.378h-14.31a3.096 3.096 0 0 1-2.714-4.575l6.399-11.735c.25-.452.378-.965.378-1.478v-9.461c0-1.168.945-2.106 2.106-2.106h1.978z" stroke="#28369A" stroke-width="2" stroke-linecap="round" stroke-linejoin="round"/>
            <path d="m163.951 216.75-5.981 1.991a1.06 1.06 0 0 1-1.336-.668 1.033 1.033 0 0 1 0-.668l1.991-5.979 15.958-15.953 5.32 5.317-15.958 15.953.006.007z" fill="#E6EDF8"/>
            <path d="m163.951 216.75-5.981 1.991a1.06 1.06 0 0 1-1.336-.668 1.033 1.033 0 0 1 0-.668l1.991-5.979 15.958-15.953 5.32 5.317-15.958 15.953.006.007z" stroke="#28369A" stroke-width="2" stroke-linecap="round" stroke-linejoin="round"/>
            <path d="M183.895 196.812a3.756 3.756 0 0 0 0-5.318 3.758 3.758 0 0 0-5.32 0l-3.989 3.988 5.319 5.318 3.99-3.988z" fill="#B0C3EB" stroke="#28369A" stroke-width="2" stroke-linecap="round" stroke-linejoin="round"/>
            <path d="M90.953 199.407a5.18 5.18 0 0 0 5.171 5.176 5.18 5.18 0 0 0 5.178-5.169 5.172 5.172 0 0 0-5.171-5.176 5.18 5.18 0 0 0-5.178 5.169z" fill="#E6EDF8"/>
            <path d="M90.953 199.407a5.18 5.18 0 0 0 5.171 5.176 5.18 5.18 0 0 0 5.178-5.169 5.172 5.172 0 0 0-5.171-5.176 5.18 5.18 0 0 0-5.178 5.169zM101.108 198.034l-5.717-20.764" stroke="#28369A" stroke-width="2" stroke-linecap="round" stroke-linejoin="round"/>
            <path d="M107.889 177.205a2.102 2.102 0 0 1-1.465 2.599 2.147 2.147 0 0 1-1.094.013l-9.943-2.551-2.059-7.477 12.279 3.138c.736.189 1.31.756 1.512 1.485l.77 2.793z" fill="#E6EDF8"/>
            <path d="M107.889 177.205a2.102 2.102 0 0 1-1.465 2.599 2.147 2.147 0 0 1-1.094.013l-9.943-2.551-2.059-7.477 12.279 3.138c.736.189 1.31.756 1.512 1.485l.77 2.793v0z" stroke="#28369A" stroke-width="2" stroke-linecap="round" stroke-linejoin="round"/>
            <path d="M152.587 164.987a3.496 3.496 0 0 0 1.289-2.314c2.248-18.342-13.872-21.008-28.898-14.84a3.512 3.512 0 0 0-1.918 4.582c.25.608.669 1.134 1.202 1.519 9.646 6.93 13.886 22.607 28.325 11.053z" fill="#E6EDF8"/>
            <path d="M152.587 164.987a3.496 3.496 0 0 0 1.289-2.314c2.248-18.342-13.872-21.008-28.898-14.84a3.512 3.512 0 0 0-1.918 4.582c.25.608.669 1.134 1.202 1.519 9.646 6.93 13.886 22.607 28.325 11.053z" stroke="#28369A" stroke-width="2" stroke-linecap="round" stroke-linejoin="round"/>
            <path d="M136.898 154.594c15.702 3.03 19.908 14.529 19.908 14.529" stroke="#28369A" stroke-width="2" stroke-linecap="round" stroke-linejoin="round"/>
            <path d="M126.688 232.021a6.285 6.285 0 0 0 12.569 0 6.285 6.285 0 0 0-12.569 0z" fill="#E6EDF8"/>
            <path d="M126.688 232.021a6.285 6.285 0 0 0 12.569 0 6.285 6.285 0 0 0-12.569 0z" stroke="#28369A" stroke-width="2" stroke-linecap="round" stroke-linejoin="round"/>
            <path d="M118.461 239.704c0 5.452 4.408 9.872 9.862 9.872 5.455 0 9.876-4.406 9.876-9.859v-.02c0-5.453-4.408-9.873-9.862-9.873-5.455 0-9.876 4.407-9.876 9.859v.021z" fill="#B0C3EB"/>
            <path d="M118.461 239.704c0 5.452 4.408 9.872 9.862 9.872 5.455 0 9.876-4.406 9.876-9.859v-.02c0-5.453-4.408-9.873-9.862-9.873-5.455 0-9.876 4.407-9.876 9.859v.021z" stroke="#28369A" stroke-width="2" stroke-linecap="round" stroke-linejoin="round"/>
            <path d="M130.055 240.336a6.28 6.28 0 0 0 6.278 6.283 6.28 6.28 0 0 0 6.284-6.276v-.013a6.28 6.28 0 0 0-6.278-6.283 6.28 6.28 0 0 0-6.284 6.276v.013z" fill="#4D6ED0"/>
            <path d="M130.055 240.336a6.28 6.28 0 0 0 6.278 6.283 6.28 6.28 0 0 0 6.284-6.276v-.013a6.28 6.28 0 0 0-6.278-6.283 6.28 6.28 0 0 0-6.284 6.276v.013z" stroke="#28369A" stroke-width="2" stroke-linecap="round" stroke-linejoin="round"/>
            <path d="M43.875 143.176h35.636V178.8H43.875v-35.624z" fill="#fff" stroke="#28369A" stroke-width="2" stroke-linecap="round" stroke-linejoin="round"/>
            <path d="M48.734 148.035H74.65v25.907H48.734v-25.907z" fill="#4D6ED0" stroke="#28369A" stroke-width="2" stroke-linecap="round" stroke-linejoin="round"/>
            <path d="m58.452 173.942 5.461-7.646a3.24 3.24 0 0 1 5.272 0l5.461 7.646h-16.2.006z" fill="#fff" stroke="#28369A" stroke-width="2" stroke-linecap="round" stroke-linejoin="round"/>
            <path d="m48.734 173.942 7.129-9.502a3.249 3.249 0 0 1 5.191 0l7.128 9.502H48.734zM61.688 156.129a3.24 3.24 0 0 0 6.48 0 3.24 3.24 0 1 0-6.48-.007v.007z" fill="#fff" stroke="#28369A" stroke-width="2" stroke-linecap="round" stroke-linejoin="round"/>
        </g>
    </g>
    <defs>
        <clipPath id="jiof6h6n8a">
            <path fill="#fff" d="M0 0h1920v280H0z"/>
        </clipPath>
    </defs>
</svg>
