<?xml version="1.0" encoding="UTF-8"?>
<svg id="Layer_1" data-name="Layer 1" xmlns="http://www.w3.org/2000/svg" viewBox="0 0 48 48">
  <path d="M6.68,6.32h35.03v33.38H6.68V6.32Z" fill="#fff" stroke-width="0"/>
  <path d="M15.75,16.82c0,.27.11.53.29.72.19.19.45.29.72.29s.53-.11.72-.29.29-.45.29-.72-.11-.53-.29-.72-.45-.29-.72-.29-.53.11-.72.29-.29.45-.29.72Z" fill="#618fff" stroke-width="0"/>
  <path d="M32.43,17.38h-11.21c-.31,0-.56-.26-.56-.56s.26-.56.56-.56h11.21c.31,0,.56.26.56.56s-.26.56-.56.56Z" fill="#1d1e1e" stroke-width="0"/>
  <path d="M15.75,23.08c0,.27.11.53.29.72.19.19.45.29.72.29s.53-.11.72-.29.29-.45.29-.72-.11-.53-.29-.72-.45-.29-.72-.29-.53.11-.72.29c-.19.19-.29.45-.29.72Z" fill="#618fff" stroke-width="0"/>
  <path d="M32.43,23.64h-11.21c-.31,0-.56-.26-.56-.56s.26-.56.56-.56h11.21c.31,0,.56.26.56.56s-.26.56-.56.56Z" fill="#1d1e1e" stroke-width="0"/>
  <path d="M15.75,29.35c0,.27.11.53.29.72.19.19.45.29.72.29s.53-.11.72-.29c.19-.19.29-.45.29-.72s-.11-.53-.29-.72-.45-.29-.72-.29-.53.11-.72.29c-.19.19-.29.45-.29.72Z" fill="#618fff" stroke-width="0"/>
  <path d="M32.43,29.91h-11.21c-.31,0-.56-.26-.56-.56s.26-.56.56-.56h11.21c.31,0,.56.26.56.56s-.26.56-.56.56Z" fill="#1d1e1e" stroke-width="0"/>
  <path d="M41.71,40H6.68c-.31,0-.56-.26-.56-.56V6.06c0-.31.26-.56.56-.56h35.03c.31,0,.56.26.56.56v33.38c0,.31-.26.56-.56.56ZM7.24,38.88h33.9V6.62H7.24v32.26Z" fill="#1d1e1e" stroke-width="0"/>
  <rect x="7.24" y="36.58" width="33.9" height="2.3" fill="#e6edf8" stroke-width="0"/>
  <path d="M41.71,40H6.68c-.31,0-.56-.26-.56-.56V6.06c0-.31.26-.56.56-.56h35.03c.31,0,.56.26.56.56v33.38c0,.31-.26.56-.56.56ZM7.24,38.88h33.9V6.62H7.24v32.26Z" fill="#1d1e1e" stroke-width="0"/>
  <rect x="11.89" y="1.48" width="3.03" height="7.66" rx="1.39" ry="1.39" fill="#618fff" stroke-width="0"/>
  <path d="M13.39,1.49c-.21,0-.4.04-.59.12-.19.08-.35.2-.5.33-.15.15-.26.31-.33.51-.08.19-.12.39-.12.6v2.6c0-.21.03-.41.11-.61s.19-.37.33-.52c.15-.15.31-.27.51-.35.19-.08.39-.12.6-.12s.41.04.6.12.36.2.51.35c.15.15.26.32.33.52s.11.4.11.61v-2.6c0-.21-.04-.41-.12-.6-.08-.19-.19-.36-.33-.51-.15-.15-.31-.26-.5-.34-.19-.08-.38-.12-.59-.12h-.02Z" fill="#c7dbff" stroke-width="0"/>
  <path d="M13.4,9.61c-1.1,0-1.99-.89-1.99-1.99V2.99c0-1.1.89-1.99,1.99-1.99s1.99.89,1.99,1.99v4.63c0,1.1-.89,1.99-1.99,1.99ZM13.4,1.95c-.57,0-1.04.47-1.04,1.04v4.63c0,.57.47,1.04,1.04,1.04s1.04-.47,1.04-1.04V2.99c0-.57-.47-1.04-1.04-1.04Z" fill="#1d1e1e" stroke-width="0"/>
  <rect x="19.13" y="1.48" width="3.03" height="7.66" rx="1.39" ry="1.39" fill="#618fff" stroke-width="0"/>
  <path d="M20.63,1.49c-.21,0-.4.04-.59.12-.19.08-.35.2-.5.33-.15.15-.26.31-.33.51-.08.19-.12.39-.12.6v2.6c0-.21.03-.41.11-.61s.19-.37.33-.52c.15-.15.31-.27.51-.35.19-.08.39-.12.6-.12s.41.04.6.12.36.2.51.35c.15.15.26.32.33.52s.11.4.11.61v-2.6c0-.21-.04-.41-.12-.6-.08-.19-.19-.36-.33-.51-.15-.15-.31-.26-.5-.34-.19-.08-.38-.12-.59-.12h-.02Z" fill="#c7dbff" stroke-width="0"/>
  <path d="M20.64,9.61c-1.1,0-1.99-.89-1.99-1.99V2.99c0-1.1.89-1.99,1.99-1.99s1.99.89,1.99,1.99v4.63c0,1.1-.89,1.99-1.99,1.99ZM20.64,1.95c-.57,0-1.04.47-1.04,1.04v4.63c0,.57.47,1.04,1.04,1.04s1.04-.47,1.04-1.04V2.99c0-.57-.47-1.04-1.04-1.04Z" fill="#1d1e1e" stroke-width="0"/>
  <rect x="26.32" y="1.48" width="3.03" height="7.66" rx="1.39" ry="1.39" fill="#618fff" stroke-width="0"/>
  <path d="M27.82,1.49c-.21,0-.4.04-.59.12-.19.08-.35.2-.5.33-.15.15-.26.31-.33.51-.08.19-.12.39-.12.6v2.6c0-.21.03-.41.11-.61s.19-.37.33-.52c.15-.15.31-.27.51-.35.19-.08.39-.12.6-.12s.41.04.6.12.36.2.51.35c.15.15.26.32.33.52s.11.4.11.61v-2.6c0-.21-.04-.41-.12-.6-.08-.19-.19-.36-.33-.51-.15-.15-.31-.26-.5-.34-.19-.08-.38-.12-.59-.12h-.02Z" fill="#c7dbff" stroke-width="0"/>
  <path d="M27.83,9.61c-1.1,0-1.99-.89-1.99-1.99V2.99c0-1.1.89-1.99,1.99-1.99s1.99.89,1.99,1.99v4.63c0,1.1-.89,1.99-1.99,1.99ZM27.83,1.95c-.57,0-1.04.47-1.04,1.04v4.63c0,.57.47,1.04,1.04,1.04s1.04-.47,1.04-1.04V2.99c0-.57-.47-1.04-1.04-1.04Z" fill="#1d1e1e" stroke-width="0"/>
  <rect x="33.47" y="1.48" width="3.03" height="7.66" rx="1.39" ry="1.39" fill="#618fff" stroke-width="0"/>
  <path d="M34.98,1.49c-.21,0-.4.04-.59.12-.19.08-.35.2-.5.33-.15.15-.26.31-.33.51-.08.19-.12.39-.12.6v2.6c0-.21.03-.41.11-.61s.19-.37.33-.52c.15-.15.31-.27.51-.35.19-.08.39-.12.6-.12s.41.04.6.12.36.2.51.35c.15.15.26.32.33.52s.11.4.11.61v-2.6c0-.21-.04-.41-.12-.6-.08-.19-.19-.36-.33-.51-.15-.15-.31-.26-.5-.34-.19-.08-.38-.12-.59-.12h-.02Z" fill="#c7dbff" stroke-width="0"/>
  <path d="M34.99,9.61c-1.1,0-1.99-.89-1.99-1.99V2.99c0-1.1.89-1.99,1.99-1.99s1.99.89,1.99,1.99v4.63c0,1.1-.89,1.99-1.99,1.99ZM34.99,1.95c-.57,0-1.04.47-1.04,1.04v4.63c0,.57.47,1.04,1.04,1.04s1.04-.47,1.04-1.04V2.99c0-.57-.47-1.04-1.04-1.04Z" fill="#1d1e1e" stroke-width="0"/>
</svg>