<?xml version="1.0" encoding="UTF-8"?>
<svg id="Layer_1" data-name="Layer 1" xmlns="http://www.w3.org/2000/svg" viewBox="0 0 48 48">
  <path d="M40.68,38.19c0,.62-.24,1.2-.68,1.64-.44.43-1.02.68-1.64.68H9.63c-.61,0-1.2-.24-1.64-.68-.43-.43-.67-1.02-.67-1.64v-17.46L24,6.25l16.69,14.47v17.47h-.01Z" fill="#fff" stroke-width="0"/>
  <path d="M24,6.25L7.31,20.73v3.35l15.04-13.04c.46-.4,1.04-.61,1.65-.61s1.19.22,1.65.61l15.04,13.04v-3.35L24,6.25Z" fill="#f1eaf3" stroke-width="0"/>
  <path d="M38.37,41H9.63c-.73,0-1.46-.3-1.98-.82-.53-.53-.82-1.24-.82-1.98v-17.47c0-.14.06-.27.17-.37L23.68,5.89c.18-.16.45-.16.64,0l16.69,14.47c.11.09.17.23.17.37v17.47c0,.75-.29,1.46-.82,1.98-.53.53-1.24.82-1.98.82h-.01ZM7.8,20.95v17.24c0,.48.19.96.53,1.3.34.34.81.53,1.29.53h28.74c.49,0,.95-.19,1.3-.54.35-.34.54-.8.54-1.29v-17.24L24,6.9,7.8,20.95Z" fill="#1d1e1e" stroke-width="0"/>
  <path d="M5.68,21.32c-.51,0-1.01-.16-1.44-.45-.42-.29-.74-.71-.92-1.19-.17-.48-.2-1-.07-1.5.13-.5.41-.94.8-1.27L22.36,1.06c.46-.39,1.03-.6,1.62-.6s1.17.21,1.62.6l18.3,15.85c.26.21.47.47.62.76.15.29.24.62.28.95.03.33,0,.66-.11.98-.1.32-.26.61-.48.86s-.48.46-.78.61c-.29.15-.62.24-.94.26-.33.02-.67-.02-.98-.12-.31-.11-.6-.27-.85-.49L23.99,6.25,7.3,20.73c-.45.39-1.03.6-1.62.6h0Z" fill="#702f8a" stroke-width="0"/>
  <path d="M4.07,19.7L22.38,3.84c.45-.39,1.03-.6,1.62-.6s1.17.21,1.62.6l18.3,15.85c.17.15.32.32.44.51.35-.51.5-1.12.42-1.73-.08-.61-.39-1.17-.86-1.56L25.62,1.06c-.45-.39-1.03-.6-1.62-.6s-1.17.21-1.62.6L4.07,16.92c-.47.4-.78.95-.86,1.56s.06,1.23.42,1.73c.12-.19.27-.37.44-.52h0Z" fill="#9c59b2" stroke-width="0"/>
  <path d="M42.32,21.83c-.32,0-.64-.05-.95-.16-.38-.13-.72-.33-1.02-.59L23.99,6.9,7.62,21.1c-1.01.86-2.56.94-3.65.18-.5-.35-.88-.84-1.09-1.42-.21-.59-.24-1.21-.08-1.8.16-.6.49-1.12.95-1.52L22.04.7c1.11-.94,2.81-.92,3.88,0l18.31,15.85c.29.24.54.54.73.9.18.35.29.73.33,1.13.03.4,0,.79-.13,1.17-.13.39-.32.74-.57,1.03-.26.3-.57.55-.93.73-.34.18-.73.28-1.13.31h-.22,0ZM23.99,5.77c.11,0,.23.04.32.12l16.69,14.47c.2.18.43.31.69.4.25.09.52.12.79.1.26-.02.53-.09.76-.21.24-.12.45-.29.63-.49.17-.2.3-.43.39-.7.08-.26.11-.52.09-.79-.03-.27-.1-.53-.22-.76-.13-.24-.3-.45-.5-.61L25.29,1.43c-.73-.62-1.87-.63-2.62,0L4.37,17.28c-.32.27-.54.62-.65,1.03-.11.4-.09.82.06,1.21.14.39.4.72.74.96.73.51,1.78.46,2.46-.12L23.67,5.89c.09-.08.2-.12.32-.12Z" fill="#1d1e1e" stroke-width="0"/>
  <path d="M27.82,31.13c0-1.01-.4-1.99-1.12-2.7-.72-.72-1.69-1.12-2.71-1.12s-1.99.4-2.7,1.12c-.72.72-1.12,1.69-1.12,2.7v9.39h7.65v-9.39Z" fill="#f1eaf3" stroke-width="0"/>
  <path d="M27.82,41h-7.65c-.27,0-.49-.22-.49-.49v-9.39c0-1.15.45-2.24,1.27-3.05.8-.8,1.91-1.26,3.04-1.26s2.23.45,3.05,1.26c.81.82,1.26,1.9,1.26,3.05v9.39c0,.27-.22.49-.49.49h0ZM20.66,40.03h6.68v-8.9c0-.89-.35-1.73-.98-2.36-.63-.63-1.47-.98-2.36-.98s-1.74.36-2.36.98c-.63.63-.98,1.47-.98,2.36v8.9Z" fill="#1d1e1e" stroke-width="0"/>
  <path d="M20.06,19.17c0,1.05.42,2.05,1.15,2.79.74.74,1.74,1.15,2.79,1.15s2.05-.42,2.78-1.15c.74-.74,1.16-1.74,1.16-2.79s-.42-2.05-1.16-2.79c-.74-.74-1.74-1.15-2.78-1.15s-2.05.42-2.79,1.15c-.74.74-1.15,1.74-1.15,2.79Z" fill="#f1eaf3" stroke-width="0"/>
  <path d="M27.34,16.39c-.75-.72-1.74-1.12-2.78-1.11-1.04.01-2.02.42-2.75,1.15-.74.73-1.15,1.72-1.16,2.75,0,1.03.39,2.03,1.11,2.77l5.57-5.57h.01Z" fill="#fff" stroke-width="0"/>
  <path d="M24,23.6c-1.18,0-2.29-.46-3.13-1.3s-1.3-1.95-1.3-3.13.47-2.3,1.29-3.13c.84-.84,1.95-1.3,3.13-1.3s2.29.46,3.13,1.3c.84.83,1.3,1.95,1.3,3.13s-.46,2.3-1.3,3.13c-.83.84-1.94,1.3-3.13,1.3h0ZM24,15.72c-.92,0-1.79.36-2.45,1.01-.64.64-1.01,1.53-1.01,2.44s.36,1.79,1.01,2.44c1.31,1.31,3.59,1.3,4.88,0,.66-.65,1.02-1.52,1.02-2.44s-.36-1.79-1.02-2.44c-.65-.65-1.52-1.01-2.44-1.01h.01Z" fill="#1d1e1e" stroke-width="0"/>
</svg>