<svg width="16" height="16" viewBox="0 0 16 16" fill="none" xmlns="http://www.w3.org/2000/svg">
    <path d="M8.902 1.207 4.76 5.357a.203.203 0 0 1-.126.05H2.4a1.4 1.4 0 0 0-1.4 1.4V9.2a1.4 1.4 0 0 0 1.4 1.4h2.233a.167.167 0 0 1 .126.05l4.143 4.143a.7.7 0 0 0 1.197-.49V1.704a.7.7 0 0 0-1.197-.497zM15.01 8a6.056 6.056 0 0 0-.822-3.048l-.11-.183-.045-.09a.503.503 0 0 1 .196-.6.491.491 0 0 1 .62.072l.063.08.129.213a7.064 7.064 0 0 1 0 7.112l-.129.213a.492.492 0 0 1-.683.153.504.504 0 0 1-.152-.69l.111-.184A6.056 6.056 0 0 0 15.011 8zM12.19 8.002c0-.592-.182-1.168-.52-1.655l-.155-.202-.057-.085a.492.492 0 0 1 .131-.618.522.522 0 0 1 .647.001l.073.071.208.272a3.88 3.88 0 0 1 .697 2.216c0 .905-.32 1.783-.905 2.486a.52.52 0 0 1-.72.073.493.493 0 0 1-.074-.704 2.9 2.9 0 0 0 .675-1.855z" fill="#1E1E1E"/>
</svg>
