<?xml version="1.0" encoding="UTF-8"?>
<svg id="Layer_1" data-name="Layer 1" xmlns="http://www.w3.org/2000/svg" viewBox="0 0 48 48">
  <path d="M3.92,5.94h40.16v34.5H3.92V5.94Z" fill="#fff" stroke-width="0"/>
  <path d="M44.08,16.46H3.92V7.87c0-.51.2-1,.56-1.37.36-.36.84-.57,1.34-.57h36.36c.5,0,.99.2,1.34.57.36.36.56.85.56,1.37v8.59Z" fill="#618fff" stroke-width="0"/>
  <path d="M41.78,5.94H6.22c-.3,0-.6.06-.88.18s-1.2-.4-1.42-.18c-.21.22.29,1.16.17,1.45-.12.28-.17.59-.17.9v2.92c0-.62.24-1.22.67-1.65.43-.44,1.01-.68,1.62-.68h35.57c.61,0,1.19.25,1.62.68.43.44.67,1.03.67,1.65v-2.92c0-.31-.06-.61-.17-.9-.12-.28.07-.97-.14-1.18s-.82.03-1.1-.08c-.28-.12-.58-.18-.88-.18h0Z" fill="#c7dbff" stroke-width="0"/>
  <path d="M44.08,41H3.92c-.31,0-.56-.25-.56-.56V5.94c0-.31.25-.56.56-.56h40.16c.31,0,.56.25.56.56v34.5c0,.31-.25.56-.56.56ZM4.49,39.88h39.02V6.5H4.49v33.38Z" fill="#1d1e1e" stroke-width="0"/>
  <path d="M14.36,28.49c0,2.56,1.02,5.01,2.82,6.81,1.81,1.81,4.26,2.82,6.81,2.82s5.01-1.02,6.81-2.82,2.82-4.26,2.82-6.81-1.02-5.01-2.82-6.81c-1.81-1.81-4.26-2.82-6.81-2.82s-5.01,1.02-6.81,2.82c-1.81,1.81-2.82,4.26-2.82,6.81h0Z" fill="#e6edf8" stroke-width="0"/>
  <path d="M14.55,30.37c-.28-1.39-.24-2.83.1-4.21.34-1.38.99-2.67,1.89-3.77.9-1.1,2.03-1.99,3.31-2.6,1.28-.61,2.69-.93,4.11-.94,1.42,0,2.83.3,4.11.9,1.29.6,2.43,1.48,3.34,2.57.91,1.09,1.56,2.37,1.92,3.75s.4,2.81.14,4.21c-.43-2.2-1.61-4.18-3.35-5.6-1.74-1.42-3.91-2.19-6.14-2.18-2.24,0-4.41.8-6.13,2.23s-2.89,3.42-3.3,5.62" fill="#fff" stroke-width="0"/>
  <path d="M24,38.69c-2.72,0-5.28-1.06-7.21-2.99-1.93-1.93-2.99-4.49-2.99-7.21s1.06-5.28,2.99-7.21c1.93-1.93,4.49-2.99,7.21-2.99s5.28,1.06,7.21,2.99c1.93,1.93,2.99,4.49,2.99,7.21s-1.06,5.28-2.99,7.21c-1.93,1.93-4.49,2.99-7.21,2.99ZM24,19.42c-2.42,0-4.7.94-6.42,2.66s-2.66,3.99-2.66,6.42.94,4.7,2.66,6.42c1.72,1.72,3.99,2.66,6.42,2.66s4.7-.94,6.42-2.66c1.71-1.71,2.66-3.99,2.66-6.42s-.94-4.7-2.66-6.42c-1.71-1.71-3.99-2.66-6.42-2.66Z" fill="#1d1e1e" stroke-width="0"/>
  <path d="M22.06,33.24c-.18,0-.37-.04-.54-.11s-.32-.17-.46-.3l-2.81-2.8c-.26-.26-.4-.62-.39-.99,0-.37.15-.72.41-.98s.61-.41.98-.41.72.14.99.39l1.82,1.82,5.71-5.71c.27-.24.62-.37.98-.37s.71.16.96.41.4.6.41.96c0,.36-.12.71-.37.98l-6.7,6.7c-.13.13-.28.23-.45.3s-.35.11-.54.11Z" fill="#618fff" stroke-width="0"/>
  <path d="M22.06,33.81c-.26,0-.51-.05-.75-.15-.24-.1-.46-.24-.64-.43l-2.8-2.8c-.37-.38-.56-.87-.56-1.39s.21-1.01.58-1.37c.37-.37.85-.57,1.37-.58.5,0,1.01.19,1.38.55l1.43,1.42,5.32-5.32c.39-.36.89-.52,1.39-.53.51.01.99.22,1.34.58.36.36.56.84.57,1.35s-.17.99-.51,1.37l-6.72,6.72c-.18.18-.4.33-.64.43s-.49.15-.75.15h-.01ZM19.27,28.22h0c-.22,0-.43.09-.59.25s-.24.37-.25.59c0,.22.08.43.24.59l2.8,2.8c.08.08.17.14.27.18.2.08.44.08.64,0,.1-.04.19-.1.27-.18l6.7-6.7c.13-.14.21-.35.2-.57,0-.22-.09-.42-.25-.58-.15-.15-.36-.24-.58-.25-.23-.03-.43.07-.59.22l-5.7,5.7c-.21.21-.58.21-.8,0l-1.82-1.82c-.15-.15-.36-.23-.57-.23h.03Z" fill="#1d1e1e" stroke-width="0"/>
  <path d="M13.22,9.73c0,.2-.03.4-.1.59-.07.19-.18.36-.32.5-.14.14-.31.26-.49.34-.18.08-.38.12-.58.12s-.4-.04-.58-.12-.35-.19-.49-.34-.25-.32-.32-.5c-.07-.19-.11-.39-.1-.59V2.15c0-.2.03-.4.1-.59.07-.19.18-.36.32-.5.14-.14.31-.26.49-.34.18-.08.38-.12.58-.12s.4.04.58.12.35.19.49.34c.14.14.25.32.32.5.07.19.11.39.1.59v7.58Z" fill="#e6edf8" stroke-width="0"/>
  <path d="M11.72.63c-.2,0-.39.04-.57.11-.18.08-.35.19-.49.33-.14.14-.25.31-.32.49-.08.18-.11.38-.11.58v2.53c0-.2.03-.4.1-.59.07-.19.18-.36.32-.5.14-.14.31-.26.49-.34.18-.08.38-.12.58-.12s.4.04.58.12.35.19.49.34c.14.14.25.32.32.5.07.19.11.39.1.59v-2.52c0-.2-.04-.4-.11-.58-.08-.18-.19-.35-.32-.49-.14-.14-.3-.25-.49-.33-.18-.08-.38-.12-.57-.12h0Z" fill="#fff" stroke-width="0"/>
  <path d="M11.72,11.88c-.28,0-.56-.06-.82-.17s-.49-.27-.68-.47c-.19-.2-.35-.44-.45-.7-.1-.26-.15-.54-.14-.82V2.15c0-.27.04-.55.15-.81.1-.26.25-.5.45-.7s.43-.36.69-.47c.52-.22,1.11-.22,1.63,0,.26.11.49.27.68.47.19.2.35.44.45.7.1.26.15.54.14.82v7.56c0,.28-.04.55-.14.81-.1.27-.25.5-.45.7-.19.2-.42.36-.68.47-.26.11-.53.17-.82.17h-.01ZM11.72,1.19c-.12,0-.24.02-.35.07-.11.05-.21.12-.3.2s-.15.19-.2.31c-.05.12-.07.24-.06.36v7.6c0,.14.02.26.06.38s.11.22.2.31.18.16.3.21c.22.09.48.09.7,0,.11-.05.21-.12.3-.2.09-.09.15-.19.2-.31.04-.12.07-.24.06-.36h0V2.15c0-.14-.02-.26-.06-.38s-.11-.22-.2-.31c-.08-.09-.18-.16-.3-.2-.11-.05-.23-.07-.35-.07ZM13.81,9.73" fill="#1d1e1e" stroke-width="0"/>
  <path d="M37.77,9.73c0,.2-.03.4-.1.59-.07.19-.18.36-.32.5s-.31.26-.49.34-.38.12-.58.12-.4-.04-.58-.12-.35-.19-.49-.34-.25-.32-.32-.5c-.07-.19-.11-.39-.1-.59V2.15c0-.2.03-.4.1-.59.07-.19.18-.36.32-.5s.31-.26.49-.34c.18-.08.38-.12.58-.12s.4.04.58.12.35.19.49.34c.14.14.25.32.32.5.07.19.11.39.1.59v7.58Z" fill="#e6edf8" stroke-width="0"/>
  <path d="M36.27.63c-.2,0-.39.04-.57.11-.18.08-.35.19-.49.33-.14.14-.25.31-.32.49-.08.18-.11.38-.11.58v2.53c0-.2.03-.4.1-.59s.18-.36.32-.5c.14-.14.31-.26.49-.34s.38-.12.58-.12.4.04.58.12.35.19.49.34c.14.14.25.32.32.5.07.19.11.39.1.59v-2.52c0-.2-.04-.4-.11-.58-.08-.18-.19-.35-.32-.49-.14-.14-.3-.25-.49-.33-.18-.08-.38-.12-.57-.12h0Z" fill="#fff" stroke-width="0"/>
  <path d="M36.27,11.88c-.28,0-.56-.06-.82-.17s-.49-.27-.68-.47-.35-.44-.45-.7c-.1-.26-.15-.54-.14-.82V2.15c0-.27.04-.55.15-.81.1-.26.25-.5.45-.7s.43-.36.69-.47c.52-.22,1.11-.22,1.63,0,.26.11.49.27.68.47s.35.44.45.7c.1.26.15.54.14.82v7.56c0,.28-.04.55-.14.81-.1.27-.25.5-.45.7-.19.2-.42.36-.68.47-.26.11-.53.17-.82.17h-.01ZM36.27,1.19c-.12,0-.24.02-.35.07-.11.05-.21.12-.3.2s-.15.19-.2.31c-.05.12-.07.24-.06.36v7.6c0,.14.02.26.06.38s.11.22.2.31.18.16.3.21c.22.09.48.09.7,0,.11-.05.21-.12.3-.2.09-.09.15-.19.2-.31.04-.12.07-.24.06-.36h0V2.15c0-.14-.02-.26-.06-.38s-.11-.22-.2-.31c-.08-.09-.18-.16-.3-.2-.11-.05-.23-.07-.35-.07ZM38.36,9.73" fill="#1d1e1e" stroke-width="0"/>
  <path d="M3.43,16.46c0-.31.41-.56.92-.56h39.25c.51,0,.92.25.92.56s-.41.56-.92.56H4.35c-.51,0-.92-.25-.92-.56Z" fill="#1d1e1e" stroke-width="0"/>
</svg>