<svg width="40" height="16" viewBox="0 0 40 16" fill="none" xmlns="http://www.w3.org/2000/svg">
    <path d="M18.05 1c.524 0 .95.418.95.934v12.132a.942.942 0 0 1-.95.934H.95a.942.942 0 0 1-.95-.934V1.934C0 1.418.426 1 .95 1h17.1zM1.14 13.88h16.72V2.12H1.14v11.76zm15.01-2.241H2.85v-1.307h13.3v1.307zM4.37 6.602c.21 0 .38.167.38.373v1.12c0 .206-.17.373-.38.373H3.23a.377.377 0 0 1-.38-.373v-1.12c0-.206.17-.373.38-.373h1.14zm3.8 0c.21 0 .38.167.38.373v1.12c0 .206-.17.373-.38.373H7.03a.377.377 0 0 1-.38-.373v-1.12c0-.206.17-.373.38-.373h1.14zm3.8 0c.21 0 .38.167.38.373v1.12c0 .206-.17.373-.38.373h-1.14a.376.376 0 0 1-.38-.373v-1.12c0-.206.17-.373.38-.373h1.14zm3.8 0c.21 0 .38.167.38.373v1.12c0 .206-.17.373-.38.373h-1.14a.376.376 0 0 1-.38-.373v-1.12c0-.206.17-.373.38-.373h1.14zM4.37 3.799c.21 0 .38.167.38.373v1.12c0 .206-.17.373-.38.373H3.23a.377.377 0 0 1-.38-.373v-1.12c0-.206.17-.373.38-.373h1.14zm3.8 0c.21 0 .38.167.38.373v1.12c0 .206-.17.373-.38.373H7.03a.377.377 0 0 1-.38-.373v-1.12c0-.206.17-.373.38-.373h1.14zm3.8 0c.21 0 .38.167.38.373v1.12c0 .206-.17.373-.38.373h-1.14a.376.376 0 0 1-.38-.373v-1.12c0-.206.17-.373.38-.373h1.14zm3.8 0c.21 0 .38.167.38.373v1.12c0 .206-.17.373-.38.373h-1.14a.376.376 0 0 1-.38-.373v-1.12c0-.206.17-.373.38-.373h1.14z" fill="#1E1E1E"/>
    <path d="M37.5 9.331v-1.34c0-3.367-2.508-6.01-5.5-6.01s-5.5 2.643-5.5 6.01v1.34c0 .27-.224.49-.5.49s-.5-.22-.5-.49v-1.34C25.5 4.176 28.364 1 32 1s6.5 3.177 6.5 6.99v1.341c0 .27-.224.49-.5.49s-.5-.22-.5-.49z" fill="#1E1E1E" stroke="#1E1E1E" stroke-width=".2" stroke-linecap="round" stroke-linejoin="round"/>
    <path d="M24 11.986v-1.58c0-.772.526-1.445 1.275-1.632l.408-.102 1.056-.264a.505.505 0 0 1 .627.49v4.597c0 .329-.309.57-.627.49l-1.464-.366A1.683 1.683 0 0 1 24 11.986zM39.999 11.986v-1.58c0-.772-.526-1.445-1.275-1.632l-.408-.102-1.056-.264a.505.505 0 0 0-.627.49v4.597c0 .329.308.57.627.49l1.464-.366A1.683 1.683 0 0 0 40 11.986z" fill="#1E1E1E"/>
</svg>
