<?xml version="1.0" encoding="UTF-8"?>
<svg id="Layer_1" data-name="Layer 1" xmlns="http://www.w3.org/2000/svg" viewBox="0 0 48 48">
  <rect x="4.08" y=".49" width="40.02" height="40.02" rx="4.41" ry="4.41" fill="#e6f1fa" stroke-width="0"/>
  <path d="M39.41,41H8.77c-2.86,0-5.18-2.32-5.18-5.18V5.18C3.59,2.32,5.91,0,8.77,0h30.64c2.86,0,5.18,2.32,5.18,5.18v30.64c0,2.86-2.32,5.18-5.18,5.18ZM8.77.98c-2.32,0-4.2,1.89-4.2,4.2v30.64c0,2.32,1.89,4.2,4.2,4.2h30.64c2.32,0,4.2-1.89,4.2-4.2V5.18c0-2.32-1.89-4.2-4.2-4.2H8.77Z" fill="#1d1e1e" stroke-width="0"/>
  <path d="M39.41.49H8.77c-2.58,0-4.69,2.11-4.69,4.69v4.18c0-2.58,2.11-4.69,4.69-4.69h30.64c2.58,0,4.69,2.11,4.69,4.69v-4.18c0-2.58-2.11-4.69-4.69-4.69Z" fill="#fff" stroke-width="0"/>
  <path d="M31.78,15.84c0,1.23-.99,2.23-2.22,2.23-.7,0-1.36-.33-1.78-.89l-3.69-4.91-3.69,4.92c-.74.98-2.13,1.18-3.12.44-.98-.74-1.18-2.13-.44-3.11l5.47-7.29c.74-.98,2.13-1.18,3.11-.45.17.13.32.28.45.45l5.47,7.29c.29.38.45.85.45,1.33Z" fill="#009cde" stroke-width="0"/>
  <path d="M18.62,18.56c-.57,0-1.14-.18-1.63-.54-1.19-.9-1.44-2.6-.54-3.8l5.47-7.29c.9-1.2,2.6-1.44,3.8-.54.21.16.39.34.54.54l5.47,7.29c.35.46.54,1.04.54,1.62h0c0,1.5-1.21,2.72-2.71,2.72h0c-.85,0-1.66-.41-2.17-1.09l-3.3-4.39-3.3,4.4c-.53.71-1.35,1.08-2.17,1.08ZM24.09,6.82c-.53,0-1.05.24-1.39.69l-5.47,7.29c-.57.76-.42,1.85.35,2.43.77.58,1.86.42,2.43-.35l4.08-5.44,4.08,5.44c.33.44.85.69,1.39.69h0c.96,0,1.74-.78,1.73-1.74h0c0-.37-.12-.74-.35-1.03l-5.47-7.29c-.1-.13-.22-.25-.35-.35-.31-.23-.68-.35-1.04-.35Z" fill="#1d1e1e" stroke-width="0"/>
  <path d="M31.78,25.16c0,.48-.16.95-.45,1.33l-5.47,7.29c-.74.98-2.13,1.18-3.11.45-.17-.13-.32-.28-.45-.45l-5.47-7.29c-.74-.98-.54-2.38.45-3.12.98-.74,2.38-.54,3.12.45l3.69,4.92,3.69-4.92c.74-.98,2.13-1.18,3.12-.45.56.42.89,1.08.89,1.78Z" fill="#009cde" stroke-width="0"/>
  <path d="M24.08,35.16c-.58,0-1.15-.19-1.62-.54-.21-.15-.39-.34-.54-.54l-5.47-7.29c-.43-.58-.62-1.29-.52-2.01.1-.72.48-1.35,1.06-1.79.58-.43,1.29-.62,2.01-.52.72.1,1.35.48,1.79,1.06l3.3,4.4,3.3-4.4c.43-.58,1.07-.96,1.79-1.06.72-.1,1.43.08,2.01.52.68.51,1.09,1.32,1.09,2.17,0,.58-.19,1.16-.54,1.63l-5.47,7.29c-.43.58-1.07.96-1.79,1.06-.13.02-.26.03-.39.03ZM18.61,23.42c-.37,0-.73.12-1.04.35-.37.28-.61.68-.68,1.14-.07.46.05.92.33,1.29l5.47,7.29c.1.13.22.25.35.35.37.28.83.39,1.29.33.46-.07.86-.31,1.14-.68l5.47-7.29c.22-.3.35-.67.35-1.04h0c0-.55-.26-1.07-.69-1.39-.37-.28-.83-.4-1.29-.33-.46.07-.87.31-1.14.68l-4.08,5.44-4.08-5.44c-.28-.37-.68-.61-1.14-.68-.08-.01-.17-.02-.25-.02Z" fill="#1d1e1e" stroke-width="0"/>
  <path d="M39.41,41H8.77c-2.86,0-5.18-2.32-5.18-5.18V5.18C3.59,2.32,5.91,0,8.77,0h30.64c2.86,0,5.18,2.32,5.18,5.18v30.64c0,2.86-2.32,5.18-5.18,5.18ZM8.77.98c-2.32,0-4.2,1.89-4.2,4.2v30.64c0,2.32,1.89,4.2,4.2,4.2h30.64c2.32,0,4.2-1.89,4.2-4.2V5.18c0-2.32-1.89-4.2-4.2-4.2H8.77Z" fill="#1d1e1e" stroke-width="0"/>
</svg>