<?xml version="1.0" encoding="UTF-8"?>
<svg id="Layer_1" data-name="Layer 1" xmlns="http://www.w3.org/2000/svg" viewBox="0 0 48 48">
  <path d="M26.93,10.56V2.59c0-.6-.31-1.18-.86-1.61-.55-.43-1.29-.67-2.07-.67h0c-.78,0-1.52.24-2.07.67-.55.43-.86,1.01-.86,1.61v7.97h5.86Z" fill="#009cde" stroke-width="0"/>
  <path d="M26.93,11.07h-5.85c-.28,0-.51-.23-.51-.51V2.59c0-.76.39-1.49,1.06-2.01,1.28-1,3.48-1,4.77,0,.67.52,1.06,1.26,1.06,2.01v7.97c0,.28-.23.51-.51.51h-.02ZM21.59,10.05h4.83V2.59c0-.45-.23-.87-.66-1.2-.91-.71-2.6-.71-3.51,0-.43.33-.66.76-.66,1.2v7.46Z" fill="#1d1e1e" stroke-width="0"/>
  <path d="M38.6,30.98c-.35-.25-.63-.58-.83-.96-.2-.38-.3-.8-.3-1.23v-8.83c0-8.14-6.11-14.77-13.62-14.77s-13.61,6.63-13.61,14.77v8.83c0,.43-.1.85-.3,1.23s-.48.71-.83.96h29.49Z" fill="#e6f1fa" stroke-width="0"/>
  <path d="M19.82,34.94c-.11,0-.22.04-.3.12-.08.07-.14.18-.15.29-.02.17-.03.34-.03.5.02,1.19.5,2.33,1.35,3.17.85.84,1.99,1.31,3.19,1.31s2.34-.47,3.19-1.31c.85-.84,1.33-1.98,1.35-3.17,0-.17,0-.34-.03-.5-.01-.11-.07-.21-.15-.29-.08-.07-.19-.12-.3-.12h-8.12Z" fill="#71c5e8" stroke-width="0"/>
  <path d="M28.13,37.4c-.06-.03-.13-.05-.2-.05h-8.12c-.07,0-.14.02-.2.05-.18-.5-.27-1.03-.27-1.56,0-.17,0-.34.03-.5.01-.11.07-.21.15-.29.08-.07.19-.12.3-.12h8.12c.11,0,.22.04.3.12.08.07.14.18.15.29.02.17.03.34.03.5,0,.53-.09,1.06-.27,1.56h-.02Z" fill="#009cde" stroke-width="0"/>
  <path d="M23.87,40.83c-1.34,0-2.6-.52-3.55-1.45-.95-.94-1.49-2.19-1.5-3.53,0-.2.01-.38.03-.57.03-.24.14-.45.32-.61.17-.16.4-.24.64-.25h8.12c.24,0,.47.09.64.25.18.16.29.37.32.61.02.19.03.38.03.57-.02,1.34-.55,2.6-1.5,3.53-.95.94-2.21,1.45-3.55,1.45ZM19.85,35.45v.4c.02,1.06.44,2.06,1.2,2.8.76.75,1.76,1.16,2.83,1.16s2.07-.41,2.83-1.16,1.18-1.75,1.2-2.81c0-.13,0-.26-.02-.39h-8.04Z" fill="#1d1e1e" stroke-width="0"/>
  <path d="M23.86,8.98c7.51,0,13.62,6.63,13.62,14.77v-3.79c0-8.14-6.11-14.77-13.62-14.77s-13.61,6.63-13.61,14.77v3.79c0-8.14,6.11-14.77,13.61-14.77Z" fill="#fff" stroke-width="0"/>
  <path d="M38.6,31.5H9.12c-.22,0-.42-.15-.49-.36-.07-.21,0-.44.19-.57.28-.2.51-.47.67-.78.16-.31.24-.65.24-1v-8.83c0-8.43,6.34-15.28,14.13-15.28s14.13,6.86,14.13,15.28v8.83c0,.34.08.69.24,1,.16.31.39.58.67.78.18.13.26.36.19.57s-.27.35-.49.35h0ZM10.28,30.47h27.16c-.04-.07-.08-.14-.12-.21-.23-.45-.35-.96-.36-1.46v-8.83c0-7.86-5.88-14.26-13.1-14.26s-13.1,6.4-13.1,14.26v8.83c0,.51-.13,1.01-.36,1.46-.04.07-.08.15-.12.22h0Z" fill="#1d1e1e" stroke-width="0"/>
  <path d="M42.28,33.37c0,.31-.06.62-.18.91s-.3.55-.52.77-.48.4-.77.52-.6.18-.91.18H8.1c-.63,0-1.24-.25-1.69-.7-.45-.45-.7-1.05-.7-1.69s.25-1.24.7-1.69c.45-.45,1.05-.7,1.69-.7h31.81c.31,0,.62.06.91.18s.55.3.77.52c.22.22.4.48.52.77.12.29.18.6.18.91h0v.02Z" fill="#e6f1fa" stroke-width="0"/>
  <path d="M8.1,32.58h31.81c.49,0,.97.15,1.38.44.4.28.71.69.87,1.15.13-.36.17-.75.11-1.12-.05-.38-.19-.74-.41-1.05-.22-.31-.51-.57-.85-.74-.34-.18-.72-.27-1.1-.27H8.1c-.38,0-.76.09-1.1.27-.34.18-.63.43-.85.74-.22.31-.36.67-.41,1.05-.05.38-.01.76.12,1.12.17-.46.47-.87.87-1.15.4-.28.88-.44,1.38-.44h-.01Z" fill="#fff" stroke-width="0"/>
  <path d="M39.9,36.27H8.1c-.77,0-1.5-.3-2.05-.85s-.85-1.28-.85-2.05.31-1.51.85-2.05,1.28-.85,2.05-.85h31.81c.38,0,.76.07,1.11.22s.67.36.94.63c.27.27.48.59.63.94s.22.73.22,1.11-.07.76-.22,1.11-.36.67-.63.94-.59.48-.94.63-.73.22-1.11.22ZM8.09,31.5c-.5,0-.97.2-1.32.55s-.55.83-.55,1.32.2.97.55,1.32.82.55,1.32.55h31.81c.25,0,.49-.05.72-.14.23-.1.43-.23.61-.41s.31-.38.41-.61c.09-.23.14-.47.14-.72s-.05-.49-.14-.72c-.1-.23-.23-.43-.41-.61s-.38-.31-.61-.41c-.23-.09-.47-.14-.72-.14H8.1v.02Z" fill="#1d1e1e" stroke-width="0"/>
</svg>