<?xml version="1.0" encoding="UTF-8"?>
<svg id="Layer_1" data-name="Layer 1" xmlns="http://www.w3.org/2000/svg" viewBox="0 0 48 48">
  <path d="M3.92,5.94h40.16v34.5H3.92V5.94Z" fill="#fff" stroke-width="0"/>
  <path d="M24.8,40.66h6.6c1.7.07,10.66-6.29,12.71-10.49l-.04-2.69c-11.33,13.52-19.27,13.18-19.27,13.18Z" fill="#e6edf8" stroke-width="0"/>
  <path d="M43.98,27.29c-7.86,10.79-15.97,12.82-18.58,13.15h-.77s-.25-.04-.16-.2c2.54-4.48,3-6.09,2.11-13.3-.09-.26.04-.55.31-.64.09-.03.2-.04.29-.01,7.11,2.29,11.13,2.55,16.76-.06.21-.1.02.4.02.4,0,0,.2.43.02.68v-.02Z" fill="#e6edf8" stroke-width="0"/>
  <path d="M24.63,40.99h-.1c-.1-.02-.43-.1-.57-.41-.09-.19-.08-.42.03-.61,2.49-4.41,2.91-5.89,2.04-12.91-.07-.25-.05-.5.06-.74.12-.25.33-.44.6-.54.19-.07.41-.08.61-.03,7.4,2.38,11.22,2.37,16.4-.02.21-.09.52-.06.68.1.25.23.21.56.15.79.08.26.13.67-.11,1.01h0c-8.19,11.25-16.58,13.08-18.96,13.37h-.83ZM27,26.8s.11.02.12.06c.87,7.01.48,8.86-1.83,13.02h.1c2.2-.27,10.19-2.02,18.11-12.87-5.73,2.46-9.96,1.88-16.49-.22h-.01ZM43.98,27.29" fill="#1d1e1e" stroke-width="0"/>
  <path d="M44.08,16.46H3.92V7.87c0-.51.2-1,.56-1.37.36-.36.84-.57,1.34-.57h36.36c.5,0,.99.2,1.34.57.36.36.56.85.56,1.37v8.59Z" fill="#618fff" stroke-width="0"/>
  <path d="M41.78,5.94H6.22c-.3,0-.6.06-.88.18s-.83-.04-1.04.17c-.21.22-.09.81-.2,1.09-.12.28-.17.59-.17.9v2.92c0-.62.24-1.22.67-1.65.43-.44,1.01-.68,1.62-.68h35.56c.61,0,1.19.25,1.62.68.43.44.67,1.03.67,1.65v-2.92c0-.31-.06-.61-.17-.9-.12-.28.18-.88-.03-1.09s-.93-.06-1.21-.17c-.28-.12-.58-.18-.88-.18Z" fill="#c7dbff" stroke-width="0"/>
  <path d="M44.08,41H3.92c-.31,0-.56-.25-.56-.56V5.94c0-.31.25-.56.56-.56h40.16c.31,0,.56.25.56.56v34.5c0,.31-.25.56-.56.56ZM4.49,39.88h39.02V6.5H4.49v33.37h0Z" fill="#1d1e1e" stroke-width="0"/>
  <path d="M13.22,9.73c0,.2-.03.4-.1.59-.07.19-.18.36-.32.5-.14.14-.31.26-.49.34-.18.08-.38.12-.58.12s-.4-.04-.58-.12-.35-.19-.49-.34-.25-.32-.32-.5c-.07-.19-.11-.39-.1-.59V2.15c0-.2.03-.4.1-.59.07-.19.18-.36.32-.5.14-.14.31-.26.49-.34.18-.08.38-.12.58-.12s.4.04.58.12.35.19.49.34c.14.14.25.32.32.5.07.19.11.39.1.59v7.58Z" fill="#e6edf8" stroke-width="0"/>
  <path d="M11.72.63c-.2,0-.39.04-.57.11-.18.08-.35.19-.49.33-.14.14-.25.31-.32.49-.08.18-.11.38-.11.58v2.53c0-.2.03-.4.1-.59.07-.19.18-.36.32-.5.14-.14.31-.26.49-.34.18-.08.38-.12.58-.12s.4.04.58.12.35.19.49.34c.14.14.25.32.32.5.07.19.11.39.1.59v-2.52c0-.2-.04-.4-.11-.58-.08-.18-.19-.35-.32-.49-.14-.14-.3-.25-.49-.33-.18-.08-.38-.12-.57-.12h0Z" fill="#fff" stroke-width="0"/>
  <path d="M11.72,11.88c-.28,0-.56-.06-.82-.17s-.49-.27-.68-.47c-.19-.2-.35-.44-.45-.7-.1-.26-.15-.54-.14-.82V2.15c0-.27.04-.55.15-.81.1-.26.25-.5.45-.7s.43-.36.69-.47c.52-.22,1.11-.22,1.63,0,.26.11.49.27.68.47.19.2.35.44.45.7.1.26.15.54.14.82v7.56c0,.28-.04.55-.14.81-.1.27-.25.5-.45.7-.19.2-.42.36-.68.47-.26.11-.53.17-.82.17h-.01ZM11.72,1.19c-.12,0-.24.02-.35.07-.11.05-.21.12-.3.2s-.15.19-.2.31c-.05.12-.07.24-.06.36v7.6c0,.14.02.26.06.38s.11.22.2.31.18.16.3.21c.22.09.48.09.7,0,.11-.05.21-.12.3-.2.09-.09.15-.19.2-.31.04-.12.07-.24.06-.36h0V2.15c0-.14-.02-.26-.06-.38s-.11-.22-.2-.31c-.08-.09-.18-.16-.3-.2-.11-.05-.23-.07-.35-.07ZM13.81,9.73" fill="#1d1e1e" stroke-width="0"/>
  <path d="M37.77,9.73c0,.2-.03.4-.1.59-.07.19-.18.36-.32.5s-.31.26-.49.34-.38.12-.58.12-.4-.04-.58-.12-.35-.19-.49-.34-.25-.32-.32-.5c-.07-.19-.11-.39-.1-.59V2.15c0-.2.03-.4.1-.59.07-.19.18-.36.32-.5s.31-.26.49-.34c.18-.08.38-.12.58-.12s.4.04.58.12.35.19.49.34c.14.14.25.32.32.5.07.19.11.39.1.59v7.58Z" fill="#e6edf8" stroke-width="0"/>
  <path d="M36.27.63c-.2,0-.39.04-.57.11-.18.08-.35.19-.49.33-.14.14-.25.31-.32.49-.08.18-.11.38-.11.58v2.53c0-.2.03-.4.1-.59s.18-.36.32-.5c.14-.14.31-.26.49-.34s.38-.12.58-.12.4.04.58.12.35.19.49.34c.14.14.25.32.32.5.07.19.11.39.1.59v-2.52c0-.2-.04-.4-.11-.58-.08-.18-.19-.35-.32-.49-.14-.14-.3-.25-.49-.33-.18-.08-.38-.12-.57-.12h0Z" fill="#fff" stroke-width="0"/>
  <path d="M36.27,11.88c-.28,0-.56-.06-.82-.17s-.49-.27-.68-.47-.35-.44-.45-.7c-.1-.26-.15-.54-.14-.82V2.15c0-.27.04-.55.15-.81.1-.26.25-.5.45-.7s.43-.36.69-.47c.52-.22,1.11-.22,1.63,0,.26.11.49.27.68.47s.35.44.45.7c.1.26.15.54.14.82v7.56c0,.28-.04.55-.14.81-.1.27-.25.5-.45.7-.19.2-.42.36-.68.47-.26.11-.53.17-.82.17h-.01ZM36.27,1.19c-.12,0-.24.02-.35.07-.11.05-.21.12-.3.2s-.15.19-.2.31c-.05.12-.07.24-.06.36v7.6c0,.14.02.26.06.38s.11.22.2.31.18.16.3.21c.22.09.48.09.7,0,.11-.05.21-.12.3-.2.09-.09.15-.19.2-.31.04-.12.07-.24.06-.36h0V2.15c0-.14-.02-.26-.06-.38s-.11-.22-.2-.31c-.08-.09-.18-.16-.3-.2-.11-.05-.23-.07-.35-.07ZM38.36,9.73" fill="#1d1e1e" stroke-width="0"/>
  <path d="M3.45,16.46c0-.31.41-.56.92-.56h39.25c.51,0,.92.25.92.56s-.41.56-.92.56H4.37c-.51,0-.92-.25-.92-.56Z" fill="#1d1e1e" stroke-width="0"/>
</svg>