<?xml version="1.0" encoding="UTF-8"?>
<svg id="Layer_1" data-name="Layer 1" xmlns="http://www.w3.org/2000/svg" viewBox="0 0 48 48">
  <path d="M14.47,13.13h-.02l-5.17-.03s-.04,0-.06,0c-.82-.04-1.49-.74-1.49-1.57,0-.42.16-.82.46-1.12.3-.3.69-.47,1.11-.47h1.37s-3.84-3.88-3.84-3.88c-.61-.62-.61-1.62.01-2.23.62-.61,1.62-.61,2.23.01l3.84,3.88v-1.36c.02-.86.73-1.56,1.58-1.56h0c.42,0,.81.16,1.11.46.3.3.47.69.47,1.11l-.03,5.18c0,.1-.01.21-.03.31,0,.02-.02.07-.02.09,0,.05-.03.12-.06.2-.01.03-.03.06-.05.09-.11.25-.3.47-.55.63-.07.04-.13.07-.19.1-.01,0-.04.02-.07.04-.08.03-.16.06-.24.07,0,0-.03.01-.06.02-.09.02-.19.03-.29.03ZM9.34,12.14l5.13.03s.08,0,.12-.01h.01c.05-.02.08-.03.11-.04l.02-.02s.07-.03.09-.05c.08-.05.15-.13.19-.22,0-.02.03-.05.04-.07,0,0,0-.03.01-.06,0-.02.02-.06.02-.07,0,0,0-.04,0-.08l.03-5.18c0-.16-.07-.31-.18-.43-.12-.12-.27-.17-.43-.18-.33,0-.6.27-.61.6v2.52c-.01.2-.13.37-.31.44s-.39.03-.53-.11l-4.66-4.71c-.24-.24-.63-.24-.87,0-.24.24-.24.63,0,.87l4.66,4.71c.14.14.18.35.1.53-.08.18-.25.3-.45.3h-2.53c-.16-.01-.31.05-.43.17-.12.12-.18.27-.18.43,0,.33.27.6.6.61.01,0,.03,0,.04,0Z" fill="#1d1e1e" stroke-width="0"/>
  <path d="M33.53,13.13c-.1,0-.2,0-.3-.03-.02,0-.07-.02-.09-.02-.05,0-.13-.03-.2-.06-.02,0-.07-.03-.09-.05-.05-.02-.11-.05-.17-.09-.25-.16-.45-.38-.57-.65,0-.01-.03-.04-.04-.08-.03-.07-.05-.15-.07-.23,0,0,0,0,0,0,0,0,0-.03-.02-.05-.02-.1-.03-.21-.03-.31l-.03-5.18c0-.43.17-.82.47-1.12.3-.3.68-.47,1.12-.46.85,0,1.56.7,1.57,1.55v1.37s3.85-3.88,3.85-3.88c.61-.62,1.61-.62,2.23-.01.62.61.62,1.61.01,2.23l-3.84,3.88h1.36c.88,0,1.58.71,1.58,1.58,0,.83-.67,1.52-1.49,1.57-.02,0-.04,0-.06,0l-5.18.03h-.02ZM33.43,12.16s.07,0,.1,0l5.13-.03s.03,0,.04,0c.33,0,.6-.28.6-.61,0-.34-.27-.61-.61-.62h-2.52s0,.01,0,.01c-.19,0-.37-.12-.45-.3-.08-.18-.04-.39.1-.53l4.66-4.71c.24-.24.24-.63,0-.87-.24-.24-.63-.24-.87,0l-4.66,4.71c-.14.14-.35.18-.53.11-.18-.07-.3-.25-.3-.44v-2.53c-.02-.33-.29-.6-.62-.6-.17,0-.32.06-.43.18-.12.12-.18.27-.18.43l.03,5.17s0,.07,0,.1c0,.01,0,.03.01.04.01.05.02.08.03.1,0,0,0,.01.02.03.05.1.11.18.2.23.02.01.05.03.07.04.01,0,.05.02.06.03,0,0,.03,0,.06.02.01,0,.03,0,.05.01ZM33.41,12.15s0,0,0,0c0,0,0,0,0,0Z" fill="#1d1e1e" stroke-width="0"/>
  <path d="M9.29,28.38c-.6,0-1.08.49-1.08,1.09,0,.61.49,1.1,1.09,1.1h2.53s-4.66,4.7-4.66,4.7c-.43.43-.42,1.12,0,1.55s1.12.42,1.55,0l4.66-4.71v2.53c.02.6.51,1.08,1.1,1.08.61,0,1.1-.49,1.1-1.09l-.03-5.18c0-.07,0-.14-.02-.21,0-.02,0-.03-.01-.05-.01-.05-.03-.11-.05-.16,0-.02-.02-.04-.03-.06-.08-.18-.21-.33-.38-.43-.04-.03-.09-.05-.13-.07-.02,0-.04-.02-.06-.03-.05-.02-.11-.04-.16-.05-.02,0-.03-.01-.04-.01-.07-.01-.14-.02-.21-.02l-5.18.03h0Z" fill="#fff" stroke-width="0"/>
  <path d="M7.95,37.62c-.4,0-.8-.15-1.11-.46-.62-.61-.62-1.61-.01-2.23l3.84-3.88h-1.36c-.43,0-.82-.16-1.12-.46-.3-.3-.46-.7-.46-1.12,0-.83.67-1.52,1.49-1.57.02,0,.04,0,.06,0l5.18-.03c.11,0,.21,0,.31.03.02,0,.07.02.09.02.05,0,.13.03.2.06.02,0,.07.03.09.05.05.02.11.05.17.09.25.16.45.38.57.65,0,.01.02.04.04.08.03.07.05.15.07.23,0,0,0,0,0,0,0,0,0,.03.02.05.02.1.03.21.03.31l.03,5.18c0,.43-.17.82-.47,1.12-.3.29-.69.46-1.11.46h0c-.85,0-1.56-.7-1.57-1.55v-1.37s-3.85,3.88-3.85,3.88c-.31.31-.72.47-1.12.47ZM11.83,30.08c.19,0,.37.12.45.3.08.18.04.39-.1.53l-4.66,4.71c-.24.24-.24.63,0,.87.24.24.63.24.87,0l4.66-4.71c.14-.14.35-.18.53-.11s.3.25.3.44v2.53c.02.33.29.6.62.6.17,0,.32-.06.43-.18.12-.12.18-.27.18-.43l-.03-5.17s0-.07,0-.1c0-.01,0-.03-.01-.04-.01-.05-.02-.08-.03-.1,0,0-.02-.04-.02-.04-.04-.09-.11-.17-.19-.22-.02-.01-.05-.03-.07-.04-.01,0-.05-.02-.06-.03,0,0-.03,0-.06-.02-.01,0-.03,0-.05-.01-.04,0-.07,0-.1,0l-5.13.03s-.03,0-.04,0c-.33,0-.6.28-.6.61,0,.16.06.32.18.43.12.12.27.18.43.18h2.52s0-.01,0-.01ZM14.58,28.85s0,0,0,0c0,0,0,0,0,0Z" fill="#1d1e1e" stroke-width="0"/>
  <path d="M38.71,28.38l-5.18-.03c-.07,0-.14,0-.21.02-.01,0-.03,0-.04.01-.06.01-.11.03-.16.05-.02,0-.04.02-.06.03-.05.02-.09.04-.13.07-.17.1-.3.26-.38.43,0,.02-.02.04-.03.06-.02.05-.04.1-.05.16,0,.02-.01.03-.01.05-.01.07-.02.14-.02.21l-.03,5.18c0,.61.5,1.09,1.1,1.09.6,0,1.08-.48,1.09-1.08v-2.53s4.67,4.71,4.67,4.71c.43.43,1.12.43,1.55,0,.43-.43.43-1.12,0-1.55l-4.66-4.71h2.53c.61.01,1.09-.48,1.09-1.09,0-.6-.48-1.08-1.08-1.09h0Z" fill="#fff" stroke-width="0"/>
  <path d="M40.05,37.62c-.41,0-.81-.16-1.12-.47l-3.84-3.88v1.36c-.02.86-.73,1.56-1.58,1.56-.41,0-.82-.16-1.12-.46-.3-.3-.47-.69-.47-1.11l.03-5.18c0-.1.01-.21.03-.31,0-.02.02-.07.02-.09,0-.05.03-.12.06-.2,0-.02.03-.07.04-.09.11-.25.31-.48.56-.63.07-.04.13-.07.19-.1.01,0,.04-.02.07-.04.08-.03.16-.06.24-.07,0,0,.03-.01.06-.02.09-.02.2-.03.3-.03l5.17.03s.04,0,.06,0c.82.04,1.49.74,1.49,1.57,0,.87-.7,1.58-1.57,1.59h-1.37s3.84,3.88,3.84,3.88c.61.62.61,1.62-.01,2.23-.31.3-.71.46-1.11.46ZM34.61,31.62c.13,0,.25.05.34.14l4.66,4.71c.24.24.63.24.87,0s.24-.63,0-.87l-4.66-4.71c-.14-.14-.18-.35-.1-.53.08-.18.25-.3.45-.3h2.53c.33.01.61-.26.6-.6,0-.33-.27-.6-.6-.61-.01,0-.03,0-.04,0l-5.13-.03s-.08,0-.12.01h-.01c-.05.02-.08.03-.11.04l-.02.02s-.07.03-.09.05c-.08.05-.15.13-.19.22,0,.01-.03.05-.03.07,0,0,0,.03-.01.06,0,.02-.02.06-.02.07,0,0,0,.04,0,.08l-.03,5.18c0,.16.07.31.18.43s.28.18.43.18c.33,0,.6-.27.61-.6v-2.52c.01-.2.13-.37.31-.44.06-.02.12-.04.18-.04Z" fill="#1d1e1e" stroke-width="0"/>
  <rect x="17.43" y="13.89" width="13.14" height="13.16" rx="1.11" ry="1.11" fill="#9c59b2" stroke-width="0"/>
  <path d="M29.4,27.53h-10.8c-.91,0-1.65-.74-1.65-1.65v-10.82c0-.91.74-1.65,1.65-1.65h10.8c.91,0,1.65.74,1.65,1.65v10.82c0,.91-.74,1.65-1.65,1.65ZM18.6,14.37c-.38,0-.69.31-.69.69v10.82c0,.38.31.69.69.69h10.8c.38,0,.69-.31.69-.69v-10.82c0-.38-.31-.69-.69-.69h-10.8Z" fill="#1d1e1e" stroke-width="0"/>
  <path d="M19.66,17.1h9.51c.79,0,1.43.64,1.43,1.43v7.39c0,.62-.51,1.13-1.13,1.13h-10.91c-.62,0-1.13-.51-1.13-1.13v-6.58c0-1.23,1-2.23,2.23-2.23Z" fill="#702f8a" stroke-width="0"/>
  <path d="M29.41,27.53h-10.8c-.91,0-1.65-.74-1.65-1.65v-10.82c0-.91.74-1.65,1.65-1.65h10.8c.91,0,1.65.74,1.65,1.65v10.82c0,.91-.74,1.65-1.65,1.65ZM18.62,14.37c-.38,0-.69.31-.69.69v10.82c0,.38.31.69.69.69h10.8c.38,0,.69-.31.69-.69v-10.82c0-.38-.31-.69-.69-.69h-10.8Z" fill="#1d1e1e" stroke-width="0"/>
</svg>