<svg width="168" height="168" viewBox="0 0 168 168" fill="none" xmlns="http://www.w3.org/2000/svg">
    <g clip-path="url(#vss2oetora)">
        <path d="M.996 84a83.04 83.04 0 0 0 18.782 52.595 82.669 82.669 0 0 0 47.803 28.712 82.522 82.522 0 0 0 55.121-8.205 82.842 82.842 0 0 0 37.418-41.397 83.104 83.104 0 0 0 2.727-55.797 82.897 82.897 0 0 0-33.202-44.866A82.55 82.55 0 0 0 75.587 1.475a82.624 82.624 0 0 0-50.373 23.89A82.927 82.927 0 0 0 7.287 52.268a83.09 83.09 0 0 0-6.29 31.731z" fill="#F5F7FC"/>
        <path d="M84 168a83.742 83.742 0 0 1-59.235-24.618A84.157 84.157 0 0 1 .207 84a84.157 84.157 0 0 1 24.558-59.382A83.74 83.74 0 0 1 84 0a83.74 83.74 0 0 1 59.236 24.618A84.155 84.155 0 0 1 167.793 84a84.155 84.155 0 0 1-24.557 59.382A83.742 83.742 0 0 1 84 168zM84 2.176a81.48 81.48 0 0 0-45.345 13.79A81.78 81.78 0 0 0 8.593 52.689 82.011 82.011 0 0 0 3.95 99.962a81.887 81.887 0 0 0 22.337 41.895 81.607 81.607 0 0 0 26.486 17.951 81.436 81.436 0 0 0 62.705.196 81.62 81.62 0 0 0 26.598-17.786 81.85 81.85 0 0 0 17.742-26.663 82 82 0 0 0-.195-62.86 81.853 81.853 0 0 0-17.907-26.552 81.123 81.123 0 0 0-26.464-17.775 80.96 80.96 0 0 0-31.25-6.192z" fill="#E6EDF8"/>
        <path opacity=".16" d="M51.871 154.517c0 .66 3.264 1.297 9.066 1.767 5.8.47 13.681.716 21.884.716 8.202 0 16.083-.268 21.832-.727 5.749-.459 9.065-1.119 9.065-1.767 0-.649-3.264-1.298-9.065-1.768S90.982 152 82.821 152c-8.161 0-16.083.268-21.884.738-5.801.47-9.066 1.119-9.066 1.768v.011z" fill="#45413C"/>
        <path d="M162.856 122.686H5.195a3.771 3.771 0 0 0-2.714 1.14 3.864 3.864 0 0 0-1.137 2.591v3.773h165.363v-3.773a3.862 3.862 0 0 0-1.137-2.591 3.813 3.813 0 0 0-2.714-1.14z" fill="#BAC8DC"/>
        <path d="M167 130H1c1.255 2.172 3.168 3.981 5.517 5.218 2.35 1.238 5.041 1.853 7.763 1.775h139.492c2.712.079 5.392-.537 7.73-1.775 2.337-1.238 4.235-3.048 5.472-5.218H167z" fill="#EAEEF7"/>
        <path d="M155.198 41.112a7.777 7.777 0 0 0-2.275-5.467 7.595 7.595 0 0 0-5.429-2.254H20.506c-2.057 0-4.03.819-5.484 2.276a7.782 7.782 0 0 0-2.272 5.497v80.865h142.448V41.112z" fill="#C3CFE1"/>
        <path d="M122.457 33.002H20.519a7.744 7.744 0 0 0-5.482 2.277 7.782 7.782 0 0 0-2.271 5.496v80.917l109.691-88.69z" fill="#DCE5F2"/>
        <path fill="#ECECEC" d="M20 39h129v83H20z"/>
        <rect x="37" y="86.371" width="95.957" height="23.404" rx="2" fill="#F9F9F9"/>
        <path fill="#ECECEC" d="M41.681 91.051h2.34v2.336h-2.34zM48.702 91.051h2.34v2.336h-2.34zM55.724 91.051h2.34v2.336h-2.34zM62.744 91.051h2.34v2.336h-2.34zM69.766 91.051h2.34v2.336h-2.34zM76.787 91.051h2.34v2.336h-2.34zM83.809 91.051h2.34v2.336h-2.34zM90.83 91.051h2.34v2.336h-2.34zM97.851 91.051h2.34v2.336h-2.34zM104.872 91.051h2.34v2.336h-2.34zM111.894 91.051h2.34v2.336h-2.34zM118.915 91.051h2.34v2.336h-2.34zM125.936 91.051h2.34v2.336h-2.34zM41.681 96.901h2.34v2.336h-2.34zM48.702 96.901h2.34v2.336h-2.34zM55.724 96.901h2.34v2.336h-2.34zM62.744 96.901h2.34v2.336h-2.34zM69.766 96.901h2.34v2.336h-2.34zM76.787 96.901h2.34v2.336h-2.34zM83.809 96.901h2.34v2.336h-2.34zM90.83 96.901h2.34v2.336h-2.34zM97.851 96.901h2.34v2.336h-2.34zM104.872 96.901h2.34v2.336h-2.34zM111.894 96.901h2.34v2.336h-2.34zM118.915 96.901h2.34v2.336h-2.34zM125.936 96.901h2.34v2.336h-2.34zM41.681 102.753h2.34v2.336h-2.34zM48.702 102.753h2.34v2.336h-2.34zM55.724 102.753h2.34v2.336h-2.34zM62.744 102.753h2.34v2.336h-2.34zM69.766 102.753h2.34v2.336h-2.34zM76.787 102.753h2.34v2.336h-2.34zM83.809 102.753h2.34v2.336h-2.34zM90.83 102.753h2.34v2.336h-2.34zM97.851 102.753h2.34v2.336h-2.34zM104.872 102.753h2.34v2.336h-2.34zM111.894 102.753h2.34v2.336h-2.34zM118.915 102.753h2.34v2.336h-2.34zM125.936 102.753h2.34v2.336h-2.34z"/>
        <path fill="#F9F9F9" d="M57 67.478h54.304v2.089H57zM52 73.049h65.443v2.089H52zM57 78.615h54.304v2.089H57zM20 39h110v11H20z"/>
        <path fill="#E4E4E4" d="M20 54h110v8.191H20z"/>
        <path d="M20 39h129v83H20V39z" fill="#E0F9FF" fill-opacity=".4" style="mix-blend-mode:multiply"/>
        <path fill-rule="evenodd" clip-rule="evenodd" d="M156.738 40.965v80.373h6.067a5.163 5.163 0 0 1 4.776 3.199c.259.629.393 1.302.393 1.983v3.773a1.29 1.29 0 0 1-.356.867c-1.334 2.344-3.291 3.483-5.668 4.867l-.119.069a15.471 15.471 0 0 1-8.398 2.091l-139.44.104a15.48 15.48 0 0 1-8.096-2.259l-.292-.178c-2.252-1.369-4.096-2.489-5.35-4.815a1.296 1.296 0 0 1-.255-.772v-3.773a5.188 5.188 0 0 1 1.5-3.653 5.162 5.162 0 0 1 3.643-1.503H12V40.965a9.106 9.106 0 0 1 2.585-6.374 8.918 8.918 0 0 1 6.358-2.59h126.904a9.064 9.064 0 0 1 6.359 2.59 9.001 9.001 0 0 1 2.532 6.374zm-2.584 0v80.373h-3.431V39.302A1.302 1.302 0 0 0 149.422 38H19.301A1.3 1.3 0 0 0 18 39.302v82.036h-3.415V40.965a6.387 6.387 0 0 1 1.825-4.522 6.357 6.357 0 0 1 4.481-1.904h126.853c1.694.001 3.319.672 4.523 1.866a6.54 6.54 0 0 1 1.887 4.56zM20.601 121.338V40.603h127.52v80.735H20.601zM4.045 131.562c.867.839 1.725 1.331 2.907 2.01l.502.288a12.684 12.684 0 0 0 7.03 1.762h139.053c2.459.092 4.828-.396 6.963-1.622 1.445-.859 2.469-1.481 3.455-2.438H4.045zm161.37-2.591H2.585l.025-2.451c.003-.68.273-1.331.75-1.814a2.585 2.585 0 0 1 1.81-.751H162.83a2.58 2.58 0 0 1 1.827.759c.485.486.757 1.145.757 1.832v2.425z" fill="#45413C"/>
        <path d="M104.84 37.987c0 4.065.8 8.084 2.331 11.827 1.554 3.743 3.817 7.165 6.674 10.013a30.914 30.914 0 0 0 9.965 6.706 30.422 30.422 0 0 0 11.771 2.343c4.046 0 8.045-.804 11.771-2.343a30.657 30.657 0 0 0 9.965-6.706 31.072 31.072 0 0 0 6.674-10.013c1.554-3.743 2.331-7.762 2.331-11.827a31.24 31.24 0 0 0-2.331-11.828c-1.554-3.743-3.817-7.165-6.674-10.013a30.902 30.902 0 0 0-9.965-6.706 30.419 30.419 0 0 0-11.771-2.342A30.85 30.85 0 0 0 123.81 9.44c-3.725 1.562-7.131 3.835-9.965 6.706a31.072 31.072 0 0 0-6.674 10.013c-1.554 3.744-2.331 7.763-2.331 11.828z" fill="#EEFBFF"/>
        <path d="M116.375 62.1a30.684 30.684 0 0 1-8-9.714 31.153 31.153 0 0 1-3.474-12.103 30.918 30.918 0 0 1 1.623-12.493 30.542 30.542 0 0 1 6.468-10.794 30.715 30.715 0 0 1 10.217-7.303 30.5 30.5 0 0 1 12.273-2.595c4.229 0 8.411.85 12.297 2.526 3.885 1.676 7.36 4.157 10.262 7.257l-41.643 45.243-.023-.023z" fill="#fff"/>
        <path d="M112.516 37.987c0 3.054.594 6.063 1.76 8.865 1.165 2.802 2.857 5.374 5.005 7.51a23.211 23.211 0 0 0 7.474 5.03 22.834 22.834 0 0 0 8.822 1.767c3.017 0 6.034-.597 8.823-1.768 2.788-1.171 5.348-2.87 7.474-5.03a23.35 23.35 0 0 0 5.005-7.51 23.134 23.134 0 0 0 1.76-8.864c0-3.032-.594-6.063-1.76-8.865-1.166-2.802-2.857-5.374-5.005-7.51a23.224 23.224 0 0 0-7.474-5.03 22.845 22.845 0 0 0-8.823-1.768c-3.017 0-6.034.598-8.822 1.769-2.788 1.171-5.348 2.87-7.474 5.03a23.333 23.333 0 0 0-5.005 7.51 23.134 23.134 0 0 0-1.76 8.864z" fill="#D4F3FF"/>
        <path d="M135.58 14.815a23.068 23.068 0 0 0-13.462 4.34c-3.931 2.825-6.857 6.82-8.411 11.414a23.33 23.33 0 0 0-.183 14.193 23.198 23.198 0 0 0 8.091 11.644l31.176-33.852c-2.172-2.434-4.8-4.386-7.771-5.719a23.024 23.024 0 0 0-9.44-2.02z" fill="#F5FBFE"/>
        <path d="M135.584 62.26c-3.2 0-6.308-.62-9.257-1.86a23.948 23.948 0 0 1-7.839-5.26 23.946 23.946 0 0 1-5.234-7.877c-1.212-2.962-1.852-6.085-1.852-9.3 0-3.216.617-6.34 1.852-9.302 1.211-2.963 2.994-5.604 5.234-7.877a23.82 23.82 0 0 1 7.839-5.26c5.897-2.457 12.617-2.457 18.491 0a23.948 23.948 0 0 1 7.839 5.26 23.946 23.946 0 0 1 5.234 7.877c1.212 2.963 1.852 6.086 1.852 9.301a24.02 24.02 0 0 1-1.852 9.301c-1.211 2.963-2.994 5.604-5.234 7.878a23.82 23.82 0 0 1-7.839 5.259c-2.949 1.217-6.057 1.86-9.257 1.86h.023zm0-46.345c-2.903 0-5.714.574-8.388 1.677a22.397 22.397 0 0 0-7.131 4.777 21.547 21.547 0 0 0-4.754 7.165 22.168 22.168 0 0 0 0 16.88 21.782 21.782 0 0 0 4.754 7.165c2.057 2.067 4.434 3.675 7.131 4.777a21.949 21.949 0 0 0 16.799 0 22.397 22.397 0 0 0 7.131-4.777 21.548 21.548 0 0 0 4.754-7.165 22.255 22.255 0 0 0 1.669-8.429c0-2.893-.572-5.741-1.669-8.428a21.784 21.784 0 0 0-4.754-7.166c-2.057-2.066-4.434-3.674-7.131-4.776a21.962 21.962 0 0 0-8.388-1.677l-.023-.023z" fill="#45413C"/>
        <path d="M110.48 38.189c0 13.915 11.255 25.197 25.135 25.197 13.881 0 25.135-11.282 25.135-25.197s-11.254-25.197-25.135-25.197c-13.88 0-25.135 11.282-25.135 25.197z" fill="#FCA886"/>
        <path opacity=".4" d="M160.301 42.958c-2.573-13.669-15.713-22.657-29.343-20.077-10.163 1.92-18.111 9.889-20.027 20.077-2.613-13.669 6.317-26.872 19.952-29.491 13.635-2.62 26.805 6.333 29.418 20.002a25.218 25.218 0 0 1 0 9.493v-.004z" fill="#fff"/>
        <path fill-rule="evenodd" clip-rule="evenodd" d="M147.899 8.153a32.125 32.125 0 0 0-24.617 0 31.827 31.827 0 0 0-10.428 7 31.985 31.985 0 0 0-6.967 10.479 32.52 32.52 0 0 0-2.446 12.378c0 4.265.831 8.415 2.446 12.355a31.984 31.984 0 0 0 6.967 10.478 32.058 32.058 0 0 0 10.428 7 31.906 31.906 0 0 0 12.297 2.458h.023a31.99 31.99 0 0 0 12.296-2.457 31.82 31.82 0 0 0 10.429-7.001 31.985 31.985 0 0 0 6.967-10.478 32.234 32.234 0 0 0 2.446-12.355c0-4.288-.831-8.438-2.446-12.378a31.985 31.985 0 0 0-6.967-10.478 31.829 31.829 0 0 0-10.428-7.001zm-12.32.347c-3.869 0-7.647.75-11.221 2.25l-.001.001a29.057 29.057 0 0 0-9.525 6.388 29.23 29.23 0 0 0-6.358 9.57 29.657 29.657 0 0 0-2.24 11.278c0 3.888.747 7.684 2.24 11.276v.001a29.229 29.229 0 0 0 6.358 9.57 29.055 29.055 0 0 0 9.525 6.388 29.31 29.31 0 0 0 22.444 0h.001a29.062 29.062 0 0 0 9.524-6.387 29.229 29.229 0 0 0 6.358-9.571 29.658 29.658 0 0 0 2.24-11.277c0-3.888-.747-7.684-2.24-11.276v-.001a29.23 29.23 0 0 0-6.358-9.571 29.063 29.063 0 0 0-9.524-6.388c-3.577-1.478-7.355-2.25-11.223-2.25zm-25.981 29.691c0 14.376 11.666 26.076 26.011 26.076 14.341 0 26.012-11.7 26.012-26.076 0-14.376-11.671-26.076-26.012-26.076-14.341 0-26.011 11.7-26.011 26.076zm1.753 0c0-13.41 10.882-24.318 24.258-24.318 13.377 0 24.258 10.909 24.258 24.318 0 13.41-10.881 24.318-24.258 24.318-13.376 0-24.258-10.909-24.258-24.318z" fill="#45413C"/>
        <rect x="131.9" y="17.9" width="8.2" height="27.2" rx="4.1" fill="#fff" stroke="#45413C" stroke-width="1.8"/>
        <circle cx="136" cy="54" r="4.1" fill="#fff" stroke="#45413C" stroke-width="1.8"/>
    </g>
    <defs>
        <clipPath id="vss2oetora">
            <path fill="#fff" d="M0 0h168v168H0z"/>
        </clipPath>
    </defs>
</svg>
