<svg width="368" height="37" viewBox="0 0 368 37" fill="none" xmlns="http://www.w3.org/2000/svg">
    <g clip-path="url(#ab1qyyhxna)" fill="#1E1E1E">
        <path d="M92.399 9.67c-.185.486-.481 1.12-.481 1.643 0 .97.888 1.008 1.592 1.083v.709c-.815 0-1.63-.075-2.444-.075-.74 0-1.482.075-2.222.075v-.71c1.592 0 2.148-1.903 2.666-3.098L95.325 0h.925l4 10.043c.222.523.593 1.494 1 1.905.333.298.852.41 1.333.448v.709c-1.148 0-2.333-.075-3.481-.075-1 0-2.037.075-3.037.075v-.71c.593-.074 1.593 0 1.593-.858 0-.299-.26-1.008-.37-1.27l-.408-1.12h-4.259l-.222.56V9.67zm4.11-1.53-1.703-4.481-1.814 4.48h3.518zM114.841 3.885h-.852c-.185-1.643-1.148-2.726-2.814-2.726-.63 0-.889-.075-1.074.15-.185.26-.111.634-.111 1.269v7.355c0 1.755 0 2.502 1.925 2.464v.71c-1.148 0-2.296-.075-3.407-.075-1.148 0-2.296.075-3.444.075v-.71c1.963.075 1.963-.71 1.963-2.464V2.578c0-.71 0-1.083-.111-1.195-.148-.15-.519-.187-1.037-.224-1.889-.15-2.629 1.046-2.926 2.726h-.851l.111-3.697h12.443l.111 3.697h.074zM117.282 3.362c0-1.605.074-2.539-1.814-2.502V.188c1.074 0 2.111.075 3.185.075 1.148 0 2.296-.075 3.407-.075v.71c-1.889 0-1.815.896-1.815 2.501v6.646c0 1.606 0 2.427 1.815 2.39v.709c-1.111 0-2.259-.075-3.407-.075-1.074 0-2.111.075-3.185.075v-.71c1.888.075 1.814-.858 1.814-2.464V3.362zM123.396 6.646c0-4.182 3.295-6.646 7.184-6.646 3.888 0 7.184 2.502 7.184 6.646s-3.333 6.646-7.221 6.646c-3.889 0-7.147-2.54-7.147-6.646zm3.333-.112c0 2.501.666 5.862 3.777 5.862s3.888-2.95 3.888-5.638c0-2.688-.666-5.862-3.888-5.862s-3.777 3.136-3.777 5.638zM141.835 3.287v6.011c0 1.494 0 2.987 1.851 3.1v.709c-.777 0-1.555-.075-2.333-.075-.74 0-1.481.075-2.222.075v-.71c1.593-.149 1.704-.97 1.704-2.352v-7.84c-.63-.86-.852-1.233-1.926-1.307v-.71c.63 0 1.222.075 1.852.075.741 0 1.444-.075 2.185-.075l7.629 8.886v-5.19c0-1.493 0-2.912-1.852-2.986v-.71c.741 0 1.481.075 2.222.075.778 0 1.555-.075 2.333-.075v.71c-.555.112-1.148.186-1.444.71-.296.56-.296 1.754-.296 2.389v9.371h-.963l-8.777-10.08h.037zM156.614 9.67c-.185.486-.481 1.12-.481 1.643 0 .97.889 1.008 1.592 1.083v.709c-.814 0-1.629-.075-2.444-.075-.741 0-1.481.075-2.222.075v-.71c1.593 0 2.148-1.903 2.666-3.098L159.54 0h.926l3.999 10.043c.223.523.593 1.494 1 1.905.334.298.852.41 1.333.448v.709c-1.148 0-2.333-.075-3.481-.075-1 0-2.037.075-3.036.075v-.71c.592-.074 1.592 0 1.592-.858 0-.299-.259-1.008-.37-1.27l-.408-1.12h-4.259l-.222.56V9.67zm4.111-1.53-1.704-4.481-1.814 4.48h3.518z"/>
        <path d="M166.428 12.397c1.851.075 1.814-.858 1.814-2.464V3.325c0-1.606.037-2.502-1.814-2.465V.188c1.037 0 2.036.075 3.036.075 1.185 0 2.371-.075 3.556-.075v.71c-1.852-.075-1.852.859-1.852 2.464v5.675c0 1.979 0 3.174 2.333 3.174 2.185 0 3.148-.635 3.666-2.838h.852l-.148 3.734c-3.518 0-7.036-.075-8.184-.075-1.111 0-2.185.075-3.296.075v-.71h.037zM186.275 3.213h-.037v5.973c0 .635 0 1.867.296 2.427.297.598.963.71 1.556.784v.71c-.815 0-1.593-.075-2.407-.075-.741 0-1.445.075-2.185.075v-.71c.74-.112 1.481-.186 1.666-1.008.148-.56.148-1.381.148-1.867V1.72c-.333-.672-1.111-.784-1.814-.859V.188c.703 0 1.407.075 2.11.075.815 0 1.593-.075 2.408-.075l3.777 9.11 3.481-9.11c.741 0 1.481.075 2.222.075.778 0 1.556-.075 2.444-.075v.71c-1.888-.075-1.814.896-1.814 2.501v6.123c0 .486 0 1.345.148 1.867.185.822.926.896 1.666 1.008v.71c-1.148 0-2.296-.075-3.444-.075-1 0-2.037.075-3.111.075v-.71c.741-.112 1.482-.186 1.667-1.008.148-.56.148-1.381.148-1.867V3.325h-.037l-3.851 9.744h-.926l-4.037-9.894-.074.038zM200.464 12.397c1.852.075 1.815-.858 1.815-2.464V3.325c0-1.606.037-2.502-1.815-2.465V.188c1.111 0 2.185.075 3.296.075 2.37 0 4.741-.075 7.111-.075l.148 3.435h-.852c-.333-1.941-1.444-2.539-3.296-2.539-.222 0-1.481 0-1.592.224-.074.113-.074.971-.074 1.12V6.05c1.555 0 2.592-.299 2.666-2.128h.778c0 .896-.074 1.792-.074 2.688 0 .784.074 1.606.074 2.427h-.778c-.37-1.792-.889-2.128-2.666-2.128v2.277c0 1.83-.037 2.987 2.222 2.987s3.036-.672 3.518-2.875h.777c0 .747-.074 1.457-.074 2.203 0 .523.074 1.046.074 1.568-2.666 0-5.332-.074-7.999-.074-1.111 0-2.185.074-3.296.074v-.709l.037.037zM223.607 10.008c.407.56.852 1.195 1.296 1.717.408.41.704.56 1.222.672v.71c-.629 0-1.296-.038-1.925-.075-.63 0-1.297.037-1.926.075l-2.741-3.92c-.629-.897-1.481-1.867-1.999-1.83h-.297v2.576c0 1.606 0 2.502 1.852 2.464v.71c-1.111 0-2.222-.038-3.333-.075-1.111 0-2.185.037-3.296.075v-.71c1.852.075 1.815-.858 1.815-2.464V3.325c0-1.606.037-2.502-1.815-2.465V.188c1.111 0 2.185.075 3.296.075 1.037 0 2.074-.075 3.148-.075.926.038 2.333.112 3.185.448 1.259.523 1.925 1.569 1.925 2.913 0 1.717-1.444 2.837-3.036 3.061l2.666 3.323-.037.075zm-5.629-3.547c1.852 0 2.814-.71 2.814-2.651 0-1.792-.74-2.726-2.555-2.726-.222 0-.889 0-.926.224-.074.225-.074 1.531-.074 1.83v3.323h.741z"/>
        <path d="M227.901 3.362c0-1.605.074-2.539-1.815-2.502V.188c1.074 0 2.111.075 3.185.075 1.148 0 2.296-.075 3.407-.075v.71c-1.889 0-1.815.896-1.815 2.501v6.646c0 1.606 0 2.427 1.815 2.39v.709c-1.111 0-2.259-.075-3.407-.075-1.074 0-2.111.075-3.185.075v-.71c1.889.075 1.815-.858 1.815-2.464V3.362zM245.978 3.885h-.852c-.185-1.643-1.148-2.726-2.814-2.726-.63 0-.889-.075-1.074.15-.185.26-.111.634-.111 1.269v7.355c0 1.755 0 2.502 1.926 2.464v.71c-1.148 0-2.296-.075-3.407-.075-1.149 0-2.297.075-3.445.075v-.71c1.963.075 1.963-.71 1.963-2.464V2.578c0-.71 0-1.083-.111-1.195-.148-.15-.518-.187-1.037-.224-1.889-.15-2.629 1.046-2.925 2.726h-.852l.111-3.697h12.443l.111 3.697h.074zM67.102 26.322H.702v10.305h66.4V26.322zM35.108 18.67c0 3.248 2.629 5.899 5.962 6.048v.523H26.997v-.56c3.296-.187 5.852-2.838 5.852-6.049 0-3.21-2.593-5.861-5.889-6.048H0V.188h67.808v12.433H41.033c-3.333.187-5.925 2.8-5.925 6.049zM12.925 6.386A3.079 3.079 0 0 0 9.85 3.287h-.185c.777 1.046 1.63 2.128.889 3.66-.556 1.194-.482 2.09-.408 2.5a3.114 3.114 0 0 0 2.815-3.098m-3.889-.635c.556-1.157.482-2.016.408-2.427A3.094 3.094 0 0 0 6.777 6.35a3.079 3.079 0 0 0 3.074 3.099h.148c-.815-1.046-1.667-2.166-.926-3.734zM77.659 3.287v6.011c0 1.494 0 2.987 1.851 3.1v.709c-.778 0-1.555-.075-2.333-.075-.74 0-1.481.075-2.222.075v-.71c1.593-.149 1.704-.97 1.704-2.352v-7.84c-.63-.86-.852-1.233-1.926-1.307v-.71c.63 0 1.222.075 1.852.075.74 0 1.444-.075 2.184-.075l7.63 8.886v-5.19c0-1.493 0-2.912-1.852-2.986v-.71c.74 0 1.481.075 2.222.075.777 0 1.555-.075 2.333-.075v.71c-.556.112-1.148.186-1.445.71-.296.56-.296 1.754-.296 2.389v9.371h-.963l-8.776-10.08h.037zM76.03 36.666h-.851v-4.07h.777c.556 1.792 1.445 3.398 3.593 3.398 1.11 0 2.222-.747 2.222-1.942 0-1.83-1.852-2.315-3.222-2.875-1.74-.746-3.148-1.755-3.148-3.883 0-2.39 1.815-3.696 4.074-3.696 1.037 0 2.148.224 2.888.97l.26-.746h.814l.111 3.51h-.852c-.333-1.494-1.444-2.8-3.147-2.8-.963 0-1.926.56-1.926 1.605 0 1.456 1.481 1.867 2.555 2.39 2.074.895 4.037 1.829 4.037 4.442 0 2.614-2.222 3.995-4.592 3.995-1.26 0-2.482-.448-3.37-1.344l-.26 1.083.038-.037zM96.58 35.508c-1.11 1.045-2.703 1.456-4.185 1.456-3.851 0-6.518-2.501-6.518-6.422 0-3.92 2.815-6.87 6.778-6.87 1.407 0 2.555.337 3.666 1.233l.296-1.12h.815l.185 4.107h-.852c-.407-1.867-1.666-3.249-3.666-3.249-3 0-3.889 3.211-3.889 5.713 0 2.688.926 5.6 4 5.637 2.222.038 3.407-1.68 3.74-3.733h.778v4.368h-.778l-.37-1.12zM103.508 33.564c0 1.605-.037 2.502 1.815 2.464v.71c-1.148 0-2.296-.038-3.444-.075-1.074 0-2.111.037-3.185.075v-.71c1.852.075 1.814-.858 1.814-2.464v-6.608c0-1.606.038-2.502-1.814-2.465v-.709c1.037 0 2.111.075 3.148.075 1.148 0 2.296-.075 3.444-.075v.71c-1.852-.075-1.815.858-1.815 2.464v2.725h5.74v-2.725c0-1.606 0-2.502-1.851-2.465v-.709c1.037 0 2.036.075 3.073.075 1.185 0 2.371-.075 3.556-.075v.71c-1.852-.075-1.815.858-1.815 2.464v6.608c0 1.605 0 2.502 1.815 2.464v.71c-1.111 0-2.259-.038-3.407-.075-1.074 0-2.148.037-3.222.075v-.71c1.851.075 1.851-.858 1.851-2.464v-2.912h-5.74v2.912h.037zM115.247 30.279c0-4.182 3.296-6.646 7.184-6.646 3.889 0 7.185 2.502 7.185 6.646s-3.333 6.646-7.222 6.646c-3.888 0-7.147-2.54-7.147-6.646zm3.333-.112c0 2.501.666 5.862 3.777 5.862s3.888-2.95 3.888-5.638c0-2.688-.666-5.862-3.888-5.862s-3.777 3.136-3.777 5.638zM130.841 36.028c1.851.075 1.814-.858 1.814-2.464v-6.608c0-1.606.037-2.502-1.814-2.465v-.709c1.037 0 2.037.075 3.036.075 1.186 0 2.371-.075 3.556-.075v.71c-1.852-.075-1.852.858-1.852 2.464v5.675c0 1.978 0 3.173 2.333 3.173 2.185 0 3.148-.635 3.666-2.837h.852l-.148 3.733c-3.518 0-7.036-.074-8.184-.074-1.111 0-2.185.074-3.296.074v-.71l.037.038z"/>
        <path d="M145.392 33.303c-.186.486-.482 1.12-.482 1.643 0 .97.889 1.008 1.593 1.083v.71c-.815 0-1.63-.076-2.445-.076-.74 0-1.481.075-2.222.075v-.71c1.593 0 2.148-1.904 2.667-3.098l3.814-9.297h.926l4 10.043c.222.523.592 1.494 1 1.905.333.298.851.41 1.333.448v.71c-1.148 0-2.333-.076-3.481-.076-1 0-2.037.075-3.037.075v-.71c.592-.074 1.592 0 1.592-.858 0-.299-.259-1.008-.37-1.27l-.407-1.12h-4.259l-.222.56v-.037zm4.11-1.53-1.703-4.481-1.815 4.48h3.518z"/>
        <path d="M166.354 33.604c.407.56.851 1.194 1.296 1.717.407.41.703.56 1.222.672v.71c-.63 0-1.296-.038-1.926-.075-.629 0-1.296.075-1.926.075l-2.74-3.92c-.63-.897-1.481-1.867-2-1.83h-.296v2.576c0 1.605 0 2.502 1.852 2.464v.71c-1.111 0-2.222-.038-3.333-.075-1.111 0-2.185.075-3.296.075v-.71c1.851.075 1.814-.858 1.814-2.464v-6.608c0-1.606.037-2.502-1.814-2.465v-.709c1.111 0 2.185.075 3.296.075 1.036 0 2.073-.075 3.147-.075.926.037 2.333.112 3.185.448 1.259.523 1.926 1.568 1.926 2.912 0 1.718-1.444 2.838-3.037 3.062l2.667 3.323-.037.112zm-5.629-3.547c1.851 0 2.814-.71 2.814-2.651 0-1.792-.741-2.726-2.555-2.726-.222 0-.889 0-.926.224-.074.224-.074 1.531-.074 1.83v3.323h.741zM170.018 36.666h-.852v-4.07h.778c.555 1.792 1.444 3.398 3.592 3.398 1.111 0 2.222-.747 2.222-1.942 0-1.83-1.852-2.315-3.222-2.875-1.741-.746-3.148-1.755-3.148-3.883 0-2.39 1.815-3.696 4.074-3.696 1.037 0 2.148.224 2.888.97l.26-.746h.851l.112 3.51h-.852c-.333-1.494-1.445-2.8-3.148-2.8-.963 0-1.926.56-1.926 1.605 0 1.456 1.482 1.867 2.556 2.39 2.073.895 4.036 1.829 4.036 4.442 0 2.614-2.222 3.995-4.592 3.995-1.259 0-2.481-.448-3.37-1.344l-.259 1.083v-.037zM183.982 33.564c0 1.605-.037 2.502 1.815 2.464v.71c-1.148 0-2.296-.038-3.444-.075-1.074 0-2.111.037-3.185.075v-.71c1.852.075 1.815-.858 1.815-2.464v-6.608c0-1.606.037-2.502-1.815-2.465v-.709c1.037 0 2.111.075 3.148.075 1.148 0 2.296-.075 3.444-.075v.71c-1.852-.075-1.815.858-1.815 2.464v2.725h5.74v-2.725c0-1.606 0-2.502-1.851-2.465v-.709c1.037 0 2.037.075 3.074.075 1.185 0 2.37-.075 3.555-.075v.71c-1.852-.075-1.815.858-1.815 2.464v6.608c0 1.605 0 2.502 1.815 2.464v.71c-1.111 0-2.259-.038-3.407-.075-1.074 0-2.148.037-3.222.075v-.71c1.851.075 1.851-.858 1.851-2.464v-2.912h-5.74v2.912h.037zM196.981 26.993c0-1.605.074-2.539-1.814-2.502v-.709c1.073 0 2.11.075 3.184.075 1.148 0 2.296-.075 3.407-.075v.71c-1.888 0-1.814.895-1.814 2.5v6.647c0 1.605 0 2.427 1.814 2.39v.709c-1.111 0-2.259-.075-3.407-.075-1.074 0-2.111.075-3.184.075v-.71c1.888.075 1.814-.858 1.814-2.464v-6.571zM204.238 26.993c0-1.605.037-2.539-1.815-2.502v-.709c1.111 0 2.148 0 3.222.075 1 0 2.037-.075 3.037-.075 2.296 0 5.111.635 5.111 3.547 0 2.688-2.704 3.472-4.852 3.472h-1.74v2.763c0 1.755 0 2.502 1.962 2.464v.71c-1.185 0-2.37-.075-3.555-.075-1.037 0-2.074.075-3.185.075v-.71c1.852.075 1.815-.858 1.815-2.464v-6.571zm3.37 2.912c1.926 0 2.963-.523 2.963-2.65 0-1.606-.778-2.577-2.408-2.577-.407 0-.777.037-.851.112-.111.075-.111.299-.111.822v4.256h.407v.037zM230.791 35.508c-1.111 1.045-2.703 1.456-4.184 1.456-3.852 0-6.518-2.501-6.518-6.422 0-3.92 2.814-6.87 6.777-6.87 1.407 0 2.555.337 3.666 1.233l.297-1.12h.814l.185 4.107h-.851c-.408-1.867-1.667-3.249-3.667-3.249-2.999 0-3.888 3.211-3.888 5.713 0 2.688.926 5.6 3.999 5.637 2.222.038 3.408-1.68 3.741-3.733h.778v4.368h-.778l-.371-1.12zM233.646 30.279c0-4.182 3.295-6.646 7.184-6.646 3.888 0 7.184 2.502 7.184 6.646s-3.333 6.646-7.221 6.646c-3.889 0-7.147-2.54-7.147-6.646zm3.333-.112c0 2.501.666 5.862 3.777 5.862s3.888-2.95 3.888-5.638c0-2.688-.666-5.862-3.888-5.862s-3.777 3.136-3.777 5.638zM260.345 33.604c.408.56.852 1.194 1.296 1.717.408.41.704.56 1.223.672v.71c-.63 0-1.297-.038-1.926-.075-.63 0-1.296.075-1.926.075l-2.74-3.92c-.63-.897-1.482-1.867-2-1.83h-.296v2.576c0 1.605 0 2.502 1.851 2.464v.71c-1.111 0-2.222-.038-3.333-.075-1.111 0-2.185.075-3.296.075v-.71c1.852.075 1.815-.858 1.815-2.464v-6.608c0-1.606.037-2.502-1.815-2.465v-.709c1.111 0 2.185.075 3.296.075 1.037 0 2.074-.075 3.148-.075.926.037 2.333.112 3.185.448 1.259.523 1.926 1.568 1.926 2.912 0 1.718-1.445 2.838-3.037 3.062l2.666 3.323-.037.112zm-5.629-3.547c1.852 0 2.815-.71 2.815-2.651 0-1.792-.741-2.726-2.556-2.726-.222 0-.888 0-.925.224-.074.224-.074 1.531-.074 1.83v3.323h.74z"/>
        <path d="M264.566 26.993c0-1.605.037-2.539-1.815-2.502v-.709c1.111 0 2.148 0 3.222.075 1 0 2.037-.075 3.037-.075 2.296 0 5.11.635 5.11 3.547 0 2.688-2.703 3.472-4.851 3.472h-1.741v2.763c0 1.755 0 2.502 1.963 2.464v.71c-1.185 0-2.37-.075-3.555-.075-1.037 0-2.074.075-3.185.075v-.71c1.852.075 1.815-.858 1.815-2.464v-6.571zm3.37 2.912c1.925 0 2.962-.523 2.962-2.65 0-1.606-.777-2.577-2.407-2.577-.407 0-.778.037-.852.112-.111.075-.111.299-.111.822v4.256h.408v.037zM275.42 30.279c0-4.182 3.296-6.646 7.184-6.646 3.889 0 7.185 2.502 7.185 6.646s-3.333 6.646-7.222 6.646c-3.888 0-7.147-2.54-7.147-6.646zm3.333-.112c0 2.501.667 5.862 3.777 5.862 3.111 0 3.889-2.95 3.889-5.638 0-2.688-.667-5.862-3.889-5.862-3.222 0-3.777 3.136-3.777 5.638zM302.12 33.604c.407.56.851 1.194 1.296 1.717.407.41.704.56 1.222.672v.71c-.63 0-1.296-.038-1.926-.075-.629 0-1.296.075-1.926.075l-2.74-3.92c-.63-.897-1.481-1.867-2-1.83h-.296v2.576c0 1.605 0 2.502 1.852 2.464v.71c-1.111 0-2.222-.038-3.333-.075-1.111 0-2.185.075-3.296.075v-.71c1.851.075 1.814-.858 1.814-2.464v-6.608c0-1.606.037-2.502-1.814-2.465v-.709c1.111 0 2.185.075 3.296.075 1.037 0 2.073-.075 3.147-.075.926.037 2.334.112 3.185.448 1.259.523 1.926 1.568 1.926 2.912 0 1.718-1.444 2.838-3.037 3.062l2.667 3.323-.037.112zm-5.629-3.547c1.851 0 2.814-.71 2.814-2.651 0-1.792-.741-2.726-2.555-2.726-.222 0-.889 0-.926.224-.074.224-.074 1.531-.074 1.83v3.323h.741z"/>
        <path d="M307.08 33.303c-.186.486-.482 1.12-.482 1.643 0 .97.889 1.008 1.593 1.083v.71c-.815 0-1.63-.076-2.445-.076-.74 0-1.481.075-2.222.075v-.71c1.593 0 2.148-1.904 2.667-3.098l3.814-9.297h.926l4 10.043c.222.523.592 1.494 1 1.905.333.298.851.41 1.333.448v.71c-1.148 0-2.333-.076-3.481-.076-1 0-2.037.075-3.037.075v-.71c.592-.074 1.592 0 1.592-.858 0-.299-.259-1.008-.37-1.27l-.407-1.12h-4.259l-.222.56v-.037zm4.11-1.53-1.703-4.481-1.815 4.48h3.518zM329.561 27.518h-.852c-.185-1.643-1.148-2.726-2.815-2.726-.629 0-.888-.075-1.074.15-.185.26-.111.634-.111 1.269v7.355c0 1.755 0 2.539 1.926 2.464v.71c-1.148 0-2.296-.075-3.407-.075-1.148 0-2.296.075-3.444.075v-.71c1.963.075 1.963-.71 1.963-2.464v-7.355c0-.71 0-1.083-.111-1.195-.149-.15-.519-.186-1.037-.224-1.889-.15-2.63 1.046-2.926 2.726h-.852l.111-3.697h12.444l.111 3.697h.074zM331.967 26.993c0-1.605.075-2.539-1.814-2.502v-.709c1.074 0 2.111.075 3.185.075 1.148 0 2.296-.075 3.407-.075v.71c-1.889 0-1.815.895-1.815 2.5v6.647c0 1.605 0 2.427 1.815 2.39v.709c-1.111 0-2.259-.075-3.407-.075-1.074 0-2.111.075-3.185.075v-.71c1.889.075 1.814-.858 1.814-2.464v-6.571zM338.077 30.279c0-4.182 3.296-6.646 7.184-6.646 3.889 0 7.185 2.502 7.185 6.646s-3.333 6.646-7.222 6.646c-3.888 0-7.147-2.54-7.147-6.646zm3.333-.112c0 2.501.666 5.862 3.777 5.862s3.889-2.95 3.889-5.638c0-2.688-.667-5.862-3.889-5.862-3.222 0-3.777 3.136-3.777 5.638zM356.52 26.92v6.011c0 1.494 0 2.987 1.852 3.1v.709c-.778 0-1.555-.075-2.333-.075-.741 0-1.481.075-2.222.075v-.71c1.592-.15 1.703-.97 1.703-2.352v-7.84c-.629-.86-.851-1.233-1.925-1.307v-.71c.629 0 1.222.075 1.851.075.741 0 1.445-.075 2.185-.075l7.629 8.886v-5.19c0-1.493 0-2.912-1.851-2.986v-.71c.74 0 1.481.075 2.222.075.777 0 1.555-.075 2.333-.075v.71c-.556.112-1.148.187-1.445.71-.296.56-.296 1.754-.296 2.389V37h-.963l-8.777-10.08h.037z"/>
    </g>
    <defs>
        <clipPath id="ab1qyyhxna">
            <path fill="#fff" d="M0 0h368v37H0z"/>
        </clipPath>
    </defs>
</svg>
