<svg width="32" height="32" viewBox="0 0 32 32" fill="none" xmlns="http://www.w3.org/2000/svg">
    <g clip-path="url(#1rvawzoica)">
        <circle cx="16" cy="16" r="16" fill="#fff"/>
        <path fill-rule="evenodd" clip-rule="evenodd" d="M9.691 22.3v.21a1.49 1.49 0 0 0 1.49 1.49h13.82a1.49 1.49 0 0 0 1.49-1.49v-.21h-16.8zM23.62 13.55H12.56a1.49 1.49 0 0 0-1.49 1.49v6.14h1.7v-5.93h10.64v5.93h1.7V15a1.49 1.49 0 0 0-1.49-1.45z" fill="#1E1E1E"/>
        <path fill-rule="evenodd" clip-rule="evenodd" d="M5.65 17.78a1.69 1.69 0 0 0 1.69 1.69h2.59v-1.69H7.34v-9H20v3.66h1.7V8.78A1.7 1.7 0 0 0 20 7.09H7.34a1.69 1.69 0 0 0-1.69 1.69v9z" fill="#1E1E1E"/>
        <path d="M16 0a16 16 0 1 0 0 32 16 16 0 0 0 0-32zm14.12 16a14.12 14.12 0 0 1-3.07 8.78L7.22 5a14.11 14.11 0 0 1 22.9 11zM1.88 16a14.07 14.07 0 0 1 4-9.78l19.95 20a14.11 14.11 0 0 1-23.9-10.17L1.88 16z" fill="#AB2334"/>
        <path d="M16 0a16 16 0 1 0 0 32 16 16 0 0 0 0-32zm0 30.12A14.11 14.11 0 0 1 5.83 6.22l19.95 20a14.07 14.07 0 0 1-9.78 3.9zm11-5.34L7.23 5a14.11 14.11 0 0 1 19.82 19.83l-.05-.05z" fill="#AB2334"/>
    </g>
    <defs>
        <clipPath id="1rvawzoica">
            <path fill="#fff" d="M0 0h32v32H0z"/>
        </clipPath>
    </defs>
</svg>
