<?xml version="1.0" encoding="utf-8"?>
<!-- Generator: Adobe Illustrator 26.3.1, SVG Export Plug-In . SVG Version: 6.00 Build 0)  -->
<svg version="1.1" id="Layer_1" xmlns="http://www.w3.org/2000/svg" xmlns:xlink="http://www.w3.org/1999/xlink" x="0px" y="0px"
	 viewBox="0 0 84 137" style="enable-background:new 0 0 84 137;" xml:space="preserve">
<style type="text/css">
	.st0{fill:#888888;}
	.st1{fill:#B2B2B2;}
	.st2{fill:#505050;}
</style>
<path class="st0" d="M0.99,1.54h81.37V15.9H0.99V1.54z"/>
<path class="st1" d="M79.97,1.54H3.38c-1.32,0-2.39,1.07-2.39,2.39v7.18c0-1.32,1.07-2.39,2.39-2.39h76.58
	c1.32,0,2.39,1.07,2.39,2.39V3.93C82.36,2.61,81.29,1.54,79.97,1.54z"/>
<path class="st0" d="M0.99,121.2h81.37v14.36H0.99V121.2z"/>
<path class="st1" d="M79.97,121.2H3.38c-1.32,0-2.39,1.07-2.39,2.39v7.18c0-1.32,1.07-2.39,2.39-2.39h76.58
	c1.32,0,2.39,1.07,2.39,2.39v-7.18C82.36,122.27,81.29,121.2,79.97,121.2z"/>
<path class="st2" d="M82.36,0.55H0.99C0.45,0.55,0,1,0,1.54V15.9c0,0.55,0.45,0.99,0.99,0.99h81.37c0.54,0,0.99-0.45,0.99-0.99V1.54
	C83.35,1,82.9,0.55,82.36,0.55z M81.37,14.91H1.98V2.53h79.39V14.91z"/>
<path class="st2" d="M82.36,120.21H0.99c-0.55,0-0.99,0.45-0.99,0.99v14.36c0,0.54,0.45,0.99,0.99,0.99h81.37
	c0.54,0,0.99-0.45,0.99-0.99V121.2C83.35,120.65,82.9,120.21,82.36,120.21z M81.37,134.57H1.98v-12.38h79.39V134.57z"/>
<path class="st2" d="M77.57,122.19H5.78c-0.55,0-0.99-0.45-0.99-0.99v-14.36c0-16.33,10.96-30.9,26.63-35.44
	c1.23-0.37,2.1-1.54,2.09-2.84c0.01-1.32-0.85-2.49-2.1-2.86C15.74,61.16,4.79,46.58,4.79,30.25V15.9c0-0.55,0.45-0.99,0.99-0.99
	h71.79c0.54,0,0.99,0.45,0.99,0.99v14.36c0,16.32-10.96,30.89-26.63,35.44c-1.23,0.37-2.1,1.54-2.09,2.84
	c-0.01,1.32,0.85,2.49,2.1,2.86c15.67,4.54,26.62,19.11,26.62,35.44v14.36C78.56,121.74,78.12,122.19,77.57,122.19L77.57,122.19z
	 M6.77,120.21h69.81v-13.37c0-15.44-10.37-29.23-25.2-33.53c-2.09-0.63-3.53-2.59-3.52-4.76c-0.02-2.16,1.42-4.12,3.5-4.74
	c14.84-4.3,25.21-18.09,25.22-33.53V16.9H6.77v13.37c0,15.45,10.37,29.24,25.2,33.54c2.09,0.63,3.53,2.59,3.52,4.76
	c0.01,2.16-1.42,4.11-3.5,4.74C17.14,77.61,6.78,91.4,6.77,106.84V120.21z"/>
</svg>
