<svg width="132" height="70" viewBox="0 0 132 70" fill="none" xmlns="http://www.w3.org/2000/svg">
<path d="M7 58.7194V38.1387H14.2268C16.7336 38.1387 18.6307 38.6173 19.9236 39.5745C21.2165 40.5318 21.8658 41.9339 21.8658 43.7808C21.8658 44.7887 21.6061 45.6784 21.0867 46.4442C20.5672 47.2099 19.8446 47.773 18.9186 48.1334C19.9744 48.3981 20.81 48.9274 21.4198 49.7326C22.0295 50.5378 22.3344 51.5119 22.3344 52.6719C22.3344 54.6483 21.7021 56.1517 20.4374 57.1653C19.1727 58.1845 17.366 58.7025 15.0229 58.7194H7V58.7194ZM11.2514 46.7595H14.3962C16.5417 46.7201 17.6144 45.8698 17.6144 44.2031C17.6144 43.2684 17.3434 42.5983 16.8014 42.1872C16.2594 41.7762 15.4012 41.5735 14.2268 41.5735H11.2514V46.7595V46.7595ZM11.2514 49.7551V55.3071H14.8931C15.8924 55.3071 16.6772 55.0706 17.2361 54.592C17.8007 54.119 18.0774 53.4602 18.0774 52.6212C18.0774 50.7349 17.1006 49.7832 15.1415 49.7495H11.2514V49.7551Z" fill="#FFFFFF"/>
<path d="M28.9967 58.7184H24.8865V37.0059H28.9967V58.7184Z" fill="#FFFFFF"/>
<path d="M40.9717 57.155C39.961 58.3825 38.5608 58.9907 36.7767 58.9907C35.1337 58.9907 33.8803 58.5177 33.0165 57.5773C32.1527 56.637 31.7123 55.2574 31.6897 53.433V43.4102H35.7887V53.3035C35.7887 54.8971 36.517 55.6966 37.9737 55.6966C39.4303 55.6966 40.3167 55.2124 40.8362 54.2551V43.4158H44.9464V58.7091H41.0902L40.9773 57.155H40.9717Z" fill="#FFFFFF"/>
<path d="M54.5111 58.999C52.2641 58.999 50.4291 58.312 49.0176 56.9381C47.6061 55.5642 46.9004 53.7286 46.9004 51.4368V51.0426C46.9004 49.5054 47.1996 48.1315 47.7925 46.9209C48.3853 45.7102 49.2322 44.7755 50.3218 44.1223C51.4115 43.4692 52.6593 43.1426 54.0538 43.1426C56.1541 43.1426 57.8027 43.8014 59.0053 45.119C60.2079 46.4366 60.812 48.3117 60.812 50.7329V52.3997H51.0445C51.1744 53.3963 51.5752 54.2015 52.2415 54.804C52.9077 55.4065 53.7489 55.7106 54.7709 55.7106C56.3461 55.7106 57.5826 55.1419 58.469 53.9988L60.4789 56.2455C59.8635 57.1127 59.0336 57.7884 57.9834 58.2726C56.9333 58.7569 55.7702 58.999 54.4942 58.999H54.5111ZM54.0425 46.431C53.2295 46.431 52.5689 46.7069 52.0664 47.2531C51.5583 47.7993 51.2365 48.5876 51.0953 49.6124H56.7921V49.2858C56.7752 48.3793 56.5268 47.6754 56.0581 47.1799C55.5839 46.6844 54.912 46.4366 54.0425 46.4366V46.431Z" fill="#FFFFFF"/>
<path d="M76.959 51.2125C76.959 53.6619 76.4339 55.5707 75.3838 56.9447C74.3336 58.3186 72.8713 58.9999 70.9912 58.9999C69.3257 58.9999 67.9989 58.3636 67.0108 57.0911L66.8245 58.7184H63.1377V37.0059H67.2367V44.7933C68.1795 43.6897 69.4217 43.1378 70.963 43.1378C72.8318 43.1378 74.2998 43.8248 75.3612 45.1931C76.4226 46.567 76.9534 48.4928 76.9534 50.9816V51.2068L76.959 51.2125ZM72.8657 50.914C72.8657 49.3712 72.6173 48.2394 72.1261 47.5299C71.6349 46.8204 70.9009 46.46 69.9298 46.46C68.6256 46.46 67.7279 46.995 67.2367 48.0592V54.0954C67.7392 55.1709 68.6425 55.7059 69.958 55.7059C71.2735 55.7059 72.1486 55.0583 72.5664 53.7576C72.7641 53.1382 72.8657 52.1866 72.8657 50.914Z" fill="#FFFFFF"/>
<path d="M79.1951 50.9242C79.1951 49.4095 79.4887 48.0524 80.0758 46.87C80.663 45.6819 81.5043 44.764 82.6052 44.1109C83.7062 43.4577 84.9822 43.1367 86.4388 43.1367C88.5109 43.1367 90.199 43.7674 91.5089 45.0287C92.8188 46.29 93.5471 48.0074 93.6995 50.1753L93.7278 51.2226C93.7278 53.5707 93.0728 55.4514 91.7573 56.8703C90.4418 58.2893 88.6803 58.9988 86.4727 58.9988C84.2651 58.9988 82.498 58.2949 81.1768 56.876C79.8556 55.4626 79.2007 53.5425 79.2007 51.11V50.9242H79.1951ZM83.2884 51.217C83.2884 52.6697 83.565 53.779 84.1127 54.5504C84.6604 55.3218 85.4451 55.7047 86.4671 55.7047C87.489 55.7047 88.2342 55.3275 88.7932 54.5673C89.3521 53.8071 89.6288 52.5909 89.6288 50.9242C89.6288 49.4996 89.3521 48.3959 88.7932 47.6132C88.2342 46.8305 87.4495 46.4364 86.4388 46.4364C85.4282 46.4364 84.6604 46.8249 84.1127 47.602C83.565 48.379 83.2884 49.584 83.2884 51.217Z" fill="#FFFFFF"/>
<path d="M95.3145 50.9242C95.3145 49.4095 95.608 48.0524 96.1952 46.87C96.7824 45.6819 97.6237 44.764 98.7246 44.1109C99.8256 43.4577 101.102 43.1367 102.558 43.1367C104.63 43.1367 106.318 43.7674 107.628 45.0287C108.938 46.29 109.666 48.0074 109.819 50.1753L109.847 51.2226C109.847 53.5707 109.192 55.4514 107.877 56.8703C106.561 58.2893 104.8 58.9988 102.592 58.9988C100.385 58.9988 98.6173 58.2949 97.2962 56.876C95.975 55.4626 95.3201 53.5425 95.3201 51.11V50.9242H95.3145ZM99.4078 51.217C99.4078 52.6697 99.6844 53.779 100.232 54.5504C100.78 55.3218 101.565 55.7047 102.586 55.7047C103.608 55.7047 104.354 55.3275 104.913 54.5673C105.472 53.8071 105.748 52.5909 105.748 50.9242C105.748 49.4996 105.472 48.3959 104.913 47.6132C104.354 46.8305 103.569 46.4364 102.558 46.4364C101.548 46.4364 100.78 46.8249 100.232 47.602C99.6844 48.379 99.4078 49.584 99.4078 51.217Z" fill="#FFFFFF"/>
<path d="M117.356 52.5805L115.882 54.0502V58.7125H111.783V37H115.882V49.0275L116.678 48.0083L120.602 43.4135H125.52L119.976 49.7876L126 58.7069H121.297L117.356 52.5749V52.5805Z" fill="#FFFFFF"/>
<path d="M128.05 37.4189H127.278V39.4842H126.76V37.4189H126V37.0059H128.056V37.4189H128.05Z" fill="#FFFFFF"/>
<path d="M129.38 37L130.025 38.7937L130.67 37H131.35V39.4783H130.832V38.7993L130.884 37.6337L130.204 39.4783H129.847L129.167 37.6337L129.219 38.7993V39.4783H128.701V37H129.38Z" fill="#FFFFFF"/>
<path d="M75.8524 11.5852L79.995 4.86249C80.2374 4.46377 79.826 3.99307 79.392 4.17028L71.9973 7.15509C71.9184 7.18831 71.8958 7.28246 71.9522 7.34337L75.6608 11.6019C75.7172 11.6628 75.8186 11.6572 75.8581 11.5852H75.8524Z" fill="#FFFFFF"/>
<path d="M59.6598 12.194L52.2989 15.2342C51.8649 15.4114 51.9157 16.0372 52.3722 16.1424L60.1332 17.9975C60.2121 18.0196 60.291 17.9532 60.2854 17.8701L59.8289 12.2937C59.8232 12.2106 59.7331 12.1608 59.6598 12.194V12.194Z" fill="#FFFFFF"/>
<path d="M81.3926 22.0572L62.3142 0.166751C62.0042 -0.182123 61.418 0.0559977 61.4575 0.515626L63.7965 29.2451C63.8359 29.7048 64.4503 29.8543 64.6983 29.4556L70.1935 20.706C70.3063 20.5288 70.5148 20.4458 70.7233 20.4901L80.9136 22.8325C81.3757 22.9377 81.7026 22.4061 81.3983 22.0517L81.3926 22.0572Z" fill="#FFFFFF"/>
</svg>
