<?xml version="1.0" encoding="UTF-8"?>
<svg id="Layer_1" data-name="Layer 1" xmlns="http://www.w3.org/2000/svg" viewBox="0 0 48 48">
  <path d="M28.77,28.46l3.18-3.18,3.71,3.71-3.18,3.18-3.71-3.71Z" fill="#e6edf8" stroke-width="0"/>
  <path d="M32.48,32.71c-.15,0-.29-.06-.39-.16l-3.7-3.7c-.22-.22-.22-.57,0-.78l3.18-3.18c.1-.1.24-.16.39-.16h0c.15,0,.29.06.39.16l3.71,3.71c.22.22.22.57,0,.78l-3.18,3.18c-.1.1-.24.16-.39.16h0ZM29.56,28.45l2.92,2.92,2.39-2.4-2.92-2.92-2.39,2.4Z" fill="#1d1e1e" stroke-width="0"/>
  <path d="M43.07,35.33c.56.57.88,1.33.88,2.12s-.32,1.56-.88,2.13c-.56.56-1.32.87-2.12.87s-1.56-.31-2.12-.87l-6.35-6.36c-.07-.07-.13-.15-.16-.24s-.06-.19-.06-.29c0-.09.02-.19.06-.28s.09-.17.16-.25l3.17-3.18c.07-.07.15-.12.24-.16.09-.04.19-.05.29-.05s.2.02.29.05c.09.04.17.09.24.16l6.35,6.35h0Z" fill="#618fff" stroke-width="0"/>
  <path d="M34.07,30.57c.07-.07.15-.12.24-.16.09-.04.19-.05.29-.05s.2.02.29.05c.09.04.17.09.24.16l6.35,6.35c.42.43.71.97.82,1.55.11.59.05,1.2-.19,1.74.45-.19.85-.49,1.16-.87.31-.38.52-.84.61-1.32s.07-.97-.07-1.44c-.14-.48-.4-.9-.74-1.25l-6.35-6.35c-.07-.07-.15-.12-.24-.16-.09-.04-.19-.05-.29-.05s-.2.02-.29.05c-.09.04-.17.09-.24.16l-1.58,1.59" fill="#c7dbff" stroke-width="0"/>
  <path d="M40.95,41c-.95,0-1.84-.37-2.51-1.04l-6.35-6.36c-.12-.12-.22-.26-.28-.42-.06-.16-.1-.33-.1-.5s.03-.34.1-.49c.06-.14.14-.27.26-.41l3.19-3.2c.12-.12.26-.21.42-.28.3-.13.7-.13,1.01,0,.15.06.3.16.42.28l6.35,6.35h0c.67.68,1.04,1.57,1.04,2.51s-.37,1.84-1.04,2.51c-.67.67-1.56,1.04-2.51,1.04h0ZM36.18,29.32l-.14.05-3.17,3.18-.06.14.06.14,6.35,6.36c.92.92,2.53.92,3.45,0,.46-.47.72-1.08.72-1.73s-.25-1.26-.72-1.73l-6.35-6.35-.14-.05h0Z" fill="#1d1e1e" stroke-width="0"/>
  <path d="M19.78,32c8.68,0,15.72-7.04,15.72-15.73S28.46.55,19.78.55,4.05,7.6,4.05,16.27s7.04,15.73,15.72,15.73h.01Z" fill="#e6edf8" stroke-width="0"/>
  <path d="M31.8,19.11c1.57-6.64-2.54-13.29-9.18-14.86-6.64-1.56-13.29,2.55-14.86,9.18-1.57,6.64,2.54,13.29,9.18,14.86,6.64,1.57,13.29-2.54,14.86-9.18Z" fill="#e6edf8" stroke-width="0"/>
  <path d="M19.77,3.92c-2.44,0-4.83.73-6.86,2.09-2.03,1.36-3.61,3.28-4.55,5.54-.93,2.26-1.18,4.74-.7,7.14.48,2.39,1.65,4.6,3.38,6.32L28.51,7.54c-1.15-1.15-2.51-2.06-4.01-2.69-1.5-.62-3.11-.94-4.73-.94h0Z" fill="#fff" stroke-width="0"/>
  <path d="M35.42,17.8c-.37-3.9-2.17-7.52-5.07-10.15-2.89-2.64-6.67-4.1-10.58-4.1s-7.69,1.46-10.58,4.1c-2.89,2.63-4.7,6.25-5.07,10.15-.05-.5-.07-1.01-.07-1.53,0-4.17,1.66-8.16,4.6-11.12C11.61,2.21,15.61.55,19.78.55s8.17,1.66,11.12,4.6c2.95,2.95,4.6,6.95,4.6,11.12,0,.51-.02,1.03-.07,1.53h-.01Z" fill="#fff" stroke-width="0"/>
  <path d="M19.81,29.19c-1,0-2-.12-3-.35-3.35-.79-6.2-2.84-8.01-5.77-1.81-2.93-2.37-6.4-1.58-9.75,1.63-6.94,8.59-11.24,15.52-9.61,6.93,1.64,11.23,8.61,9.6,15.53h0c-.79,3.36-2.84,6.2-5.78,8.02-2.06,1.28-4.39,1.93-6.75,1.93ZM19.78,4.48c-5.35,0-10.21,3.66-11.49,9.09-.72,3.07-.21,6.23,1.45,8.92,1.66,2.68,4.26,4.55,7.33,5.28,3.07.73,6.23.21,8.91-1.44,2.68-1.66,4.56-4.26,5.28-7.33h0c1.49-6.33-2.44-12.69-8.77-14.19-.91-.21-1.81-.32-2.71-.32h0Z" fill="#1d1e1e" stroke-width="0"/>
  <path d="M19.78,32.55c-8.97,0-16.28-7.3-16.28-16.28S10.8,0,19.78,0s16.28,7.3,16.28,16.27-7.3,16.28-16.28,16.28ZM19.78,1.1c-8.37.01-15.17,6.81-15.17,15.17s6.8,15.17,15.17,15.17,15.17-6.81,15.17-15.17S28.14,1.11,19.78,1.11h0Z" fill="#1d1e1e" stroke-width="0"/>
</svg>