<?xml version="1.0" encoding="UTF-8"?>
<svg id="Layer_1" data-name="Layer 1" xmlns="http://www.w3.org/2000/svg" viewBox="0 0 48 48">
  <circle cx="37.58" cy="37.38" r="2.98" fill="#618fff" stroke-width="0"/>
  <path d="M37.58,41c-2,0-3.62-1.63-3.62-3.62s1.63-3.62,3.62-3.62,3.62,1.63,3.62,3.62-1.63,3.62-3.62,3.62ZM37.58,35.04c-1.29,0-2.33,1.05-2.33,2.33s1.05,2.33,2.33,2.33,2.33-1.05,2.33-2.33-1.05-2.33-2.33-2.33Z" fill="#1d1e1e" stroke-width="0"/>
  <circle cx="15.75" cy="37.38" r="2.98" fill="#618fff" stroke-width="0"/>
  <path d="M15.75,41c-2,0-3.62-1.63-3.62-3.62s1.63-3.62,3.62-3.62,3.62,1.63,3.62,3.62-1.63,3.62-3.62,3.62ZM15.75,35.04c-1.29,0-2.33,1.05-2.33,2.33s1.05,2.33,2.33,2.33,2.33-1.05,2.33-2.33-1.05-2.33-2.33-2.33Z" fill="#1d1e1e" stroke-width="0"/>
  <path d="M37.58,35.04H15.75c-.3,0-.56-.21-.63-.5L7.36,1.57c-.04-.16-.18-.27-.34-.27H1.86c-.36,0-.65-.29-.65-.65s.29-.65.65-.65h5.16c.77,0,1.42.52,1.6,1.27l7.65,32.48h21.32c.36,0,.65.29.65.65s-.29.65-.65.65h0Z" fill="#1d1e1e" stroke-width="0"/>
  <path d="M14.82,30.43h25.03c.43,0,.81-.27.94-.68l5.3-15.88c.17-.52-.11-1.08-.63-1.26-.1-.03-.21-.05-.31-.05H10.63l4.19,17.87Z" fill="#fff" stroke-width="0"/>
  <path d="M30.54,25.47c5.18,0,11.65-7.84,15.17-12.73.09.06.18.14.24.24.19.26.24.59.14.89l-5.3,15.88c-.13.41-.51.68-.94.68H14.82l-1.16-4.96h16.88Z" fill="#e6edf8" stroke-width="0"/>
  <path d="M39.85,31.07H14.82c-.3,0-.56-.21-.63-.5l-4.19-17.87c-.05-.19,0-.39.12-.55.12-.15.31-.25.51-.25h34.51c.18,0,.35.03.52.08.42.14.75.43.95.82.2.39.23.84.09,1.25l-5.29,15.88c-.22.67-.85,1.12-1.55,1.12v.02ZM15.33,29.78h24.51c.15,0,.28-.1.33-.24l5.29-15.88c.03-.09.02-.18-.02-.26s-.11-.14-.2-.17c-.04,0-.07,0-.11-.02H11.45l3.88,16.58h0Z" fill="#1d1e1e" stroke-width="0"/>
</svg>