<svg width="16" height="8" viewBox="0 0 16 8" fill="none" xmlns="http://www.w3.org/2000/svg">
    <g clip-path="url(#8llgnnboka)" fill="#1E1E1E">
        <path d="M3.32 2H2.25a.25.25 0 0 0-.25.25v3.49c0 .138.112.25.25.25h1.07a.25.25 0 0 0 .25-.25V2.25A.25.25 0 0 0 3.32 2zM9.14 3.93H7.61V0L5.36 4.07h1.53V8l2.25-4.07z"/>
        <path d="M5.89 7H1.5a.5.5 0 0 1-.5-.5v-5a.5.5 0 0 1 .5-.5h4.42l.55-1h-5A1.5 1.5 0 0 0 0 1.5v5A1.5 1.5 0 0 0 1.5 8h4.39V7zM15.32 2.5h-.82v-1A1.5 1.5 0 0 0 13 0H8.61v1H13a.5.5 0 0 1 .5.5v5a.5.5 0 0 1-.5.5H8.58L8 8h5a1.5 1.5 0 0 0 1.5-1.5v-1h.82a.67.67 0 0 0 .68-.67V3.18a.68.68 0 0 0-.68-.68z"/>
    </g>
    <defs>
        <clipPath id="8llgnnboka">
            <path fill="#fff" d="M0 0h16v8H0z"/>
        </clipPath>
    </defs>
</svg>
