<svg width="32" height="32" viewBox="0 0 32 32" fill="none" xmlns="http://www.w3.org/2000/svg">
    <path d="M16 32c8.837 0 16-7.163 16-16S24.837 0 16 0 0 7.163 0 16s7.163 16 16 16z" fill="#D9D9D9"/>
    <path d="M10.09 9.52V22.2h4.63V9.52L12.4 7.2l-2.31 2.32zm3.25 11.3h-1.87v-8.38h1.87v8.38zm0-9.76h-1.87v-1l.93-.94.94.94v1zM14.679 23.42h-4.55v1.38h4.55v-1.38zM19.591 7.2l-2.31 2.32V24.8h4.63V9.52l-2.32-2.32zm-.93 2.89.93-.94.94.94v1h-1.87v-1zm1.87 10.82v2.51h-1.87v-11h1.87v8.49z" fill="#1E1E1E"/>
</svg>
