<svg width="32" height="32" viewBox="0 0 32 32" fill="none" xmlns="http://www.w3.org/2000/svg">
    <path d="M16 32c8.837 0 16-7.163 16-16S24.837 0 16 0 0 7.163 0 16s7.163 16 16 16z" fill="#D9D9D9"/>
    <path d="M16 32c8.837 0 16-7.163 16-16S24.837 0 16 0 0 7.163 0 16s7.163 16 16 16z" fill="#D9D9D9"/>
    <path d="M16.108 6.9h-.22a5.75 5.75 0 0 0-5.74 5.74v7.22a5.75 5.75 0 0 0 5.74 5.74h.22a5.75 5.75 0 0 0 5.74-5.74v-7.22a5.75 5.75 0 0 0-5.74-5.74zm4 5.74v1.26h-3.3V8.67a4.06 4.06 0 0 1 3.34 3.97h-.04zm-5-4v5.23h-3.3v-1.26a4.06 4.06 0 0 1 3.34-3.94l-.04-.03zm1 15.23h-.22a4 4 0 0 1-4-4v-4.26h8.3v4.26a3.999 3.999 0 0 1-4.08 4.03v-.03z" fill="#1E1E1E"/>
</svg>
