<?xml version="1.0" encoding="UTF-8"?>
<svg id="Layer_1" data-name="Layer 1" xmlns="http://www.w3.org/2000/svg" viewBox="0 0 48 48">
  <rect x="4.03" y=".49" width="39.98" height="39.98" rx="4.41" ry="4.41" fill="#f1eaf3" stroke-width="0"/>
  <path d="M39.32,40.96H8.72c-2.85,0-5.18-2.32-5.18-5.18V5.18C3.54,2.32,5.86,0,8.72,0h30.61c2.85,0,5.18,2.32,5.18,5.18v30.61c0,2.85-2.32,5.18-5.18,5.18ZM8.72.98c-2.32,0-4.2,1.88-4.2,4.2v30.61c0,2.32,1.88,4.2,4.2,4.2h30.61c2.32,0,4.2-1.88,4.2-4.2V5.18c0-2.32-1.88-4.2-4.2-4.2H8.72Z" fill="#1d1e1e" stroke-width="0"/>
  <path d="M39.32.49H8.72c-2.58,0-4.69,2.11-4.69,4.69v4.17c0-2.58,2.11-4.69,4.69-4.69h30.61c2.58,0,4.69,2.11,4.69,4.69v-4.17c0-2.58-2.11-4.69-4.69-4.69Z" fill="#fff" stroke-width="0"/>
  <path d="M39.32,40.96H8.72c-2.85,0-5.18-2.32-5.18-5.18V5.18C3.54,2.32,5.86,0,8.72,0h30.61c2.85,0,5.18,2.32,5.18,5.18v30.61c0,2.85-2.32,5.18-5.18,5.18ZM8.72.98c-2.32,0-4.2,1.88-4.2,4.2v30.61c0,2.32,1.88,4.2,4.2,4.2h30.61c2.32,0,4.2-1.88,4.2-4.2V5.18c0-2.32-1.88-4.2-4.2-4.2H8.72Z" fill="#1d1e1e" stroke-width="0"/>
  <path d="M39.28,40.96H8.68c-2.85,0-5.18-2.32-5.18-5.18V5.18C3.5,2.32,5.82,0,8.68,0h30.61c2.85,0,5.18,2.32,5.18,5.18v30.61c0,2.85-2.32,5.18-5.18,5.18ZM8.68.98c-2.32,0-4.2,1.88-4.2,4.2v30.61c0,2.32,1.88,4.2,4.2,4.2h30.61c2.32,0,4.2-1.88,4.2-4.2V5.18c0-2.32-1.88-4.2-4.2-4.2H8.68Z" fill="#1d1e1e" stroke-width="0"/>
  <path d="M39.28,40.96H8.68c-2.85,0-5.18-2.32-5.18-5.18V5.18C3.5,2.32,5.82,0,8.68,0h30.61c2.85,0,5.18,2.32,5.18,5.18v30.61c0,2.85-2.32,5.18-5.18,5.18ZM8.68.98c-2.32,0-4.2,1.88-4.2,4.2v30.61c0,2.32,1.88,4.2,4.2,4.2h30.61c2.32,0,4.2-1.88,4.2-4.2V5.18c0-2.32-1.88-4.2-4.2-4.2H8.68Z" fill="#1d1e1e" stroke-width="0"/>
  <path d="M39.3,40.97H8.7c-2.85,0-5.18-2.32-5.18-5.18V5.18C3.52,2.33,5.84,0,8.7,0h30.61c2.85,0,5.18,2.32,5.18,5.18v30.61c0,2.85-2.32,5.18-5.18,5.18ZM8.7.98c-2.32,0-4.2,1.88-4.2,4.2v30.61c0,2.32,1.88,4.2,4.2,4.2h30.61c2.32,0,4.2-1.88,4.2-4.2V5.18c0-2.32-1.88-4.2-4.2-4.2H8.7Z" fill="#1d1e1e" stroke-width="0"/>
  <path d="M39.3,40.96H8.7c-2.85,0-5.18-2.32-5.18-5.18V5.18C3.52,2.33,5.84,0,8.7,0h30.61c2.85,0,5.18,2.32,5.18,5.18v30.61c0,2.85-2.32,5.18-5.18,5.18ZM8.7.98c-2.32,0-4.2,1.88-4.2,4.2v30.61c0,2.32,1.88,4.2,4.2,4.2h30.61c2.32,0,4.2-1.88,4.2-4.2V5.18c0-2.32-1.88-4.2-4.2-4.2H8.7Z" fill="#1d1e1e" stroke-width="0"/>
  <path d="M26.58,28.03v-5.06h5.06c1.4-.03,2.51-1.19,2.48-2.58-.03-1.36-1.12-2.45-2.48-2.48h-5.06v-5.07c-.03-1.4-1.19-2.51-2.58-2.48-1.36.03-2.45,1.12-2.48,2.48v5.06h-5.06c-1.4-.03-2.55,1.08-2.58,2.48-.03,1.4,1.08,2.55,2.48,2.58.03,0,.07,0,.1,0h5.06v5.06c-.03,1.4,1.08,2.55,2.48,2.58,1.4.03,2.55-1.08,2.58-2.48,0-.03,0-.07,0-.1Z" fill="#702f8a" stroke-width="0"/>
  <path d="M24.05,31.1s-.04,0-.06,0c-1.67-.03-2.99-1.42-2.96-3.08v-4.57h-4.58s-.07,0-.11,0c-1.67-.03-2.99-1.42-2.96-3.08.03-1.67,1.43-2.99,3.08-2.96h4.57v-4.58c.03-1.64,1.33-2.93,2.96-2.97.02,0,.04,0,.06,0,1.64,0,2.99,1.31,3.02,2.96v4.59h4.58c1.64.03,2.93,1.33,2.97,2.96.03,1.67-1.29,3.05-2.96,3.08h-4.59v4.57s0,.08,0,.12c-.03,1.64-1.38,2.96-3.02,2.96ZM21.52,22.47h.49v5.55c-.02,1.14.87,2.07,2,2.1,1.12.03,2.06-.87,2.09-2v-5.64h5.55c1.12-.02,2.01-.96,1.99-2.09-.02-1.1-.9-1.98-2-2h-5.54s0-5.55,0-5.55c-.02-1.12-.96-2.01-2.09-1.99-1.1.02-1.98.9-2,2v5.54h-5.55c-1.14-.02-2.07.87-2.1,2-.02,1.13.87,2.06,2,2.09h5.16Z" fill="#1d1e1e" stroke-width="0"/>
</svg>