<svg width="16" height="16" viewBox="0 0 16 16" fill="none" xmlns="http://www.w3.org/2000/svg">
    <path d="m13.159 4.043-.554.545a.852.852 0 0 1-1.179 0 .872.872 0 0 1-.28-.592.856.856 0 0 1 .202-.592l.601-.592L9.1 0 0 9.083l2.849 2.85.546-.56a.852.852 0 0 1 1.186 0 .872.872 0 0 1 .281.592.825.825 0 0 1-.18.569l-.631.623L6.9 16 16 6.886l-2.841-2.843zM9.834 2.929c-.181.359-.265.76-.242 1.16a2.333 2.333 0 0 0 .78 1.675 2.398 2.398 0 0 0 2.693.39l.726.732-2.895 2.89-4.683-4.674 2.895-2.89.726.717zm-3.66 10.127a2.413 2.413 0 0 0-3.231-3.233l-.726-.732 2.856-2.86 4.683 4.675-2.896 2.89-.686-.74z" fill="#1E1E1E"/>
</svg>
