<svg width="184" height="184" viewBox="0 0 184 184" fill="none" xmlns="http://www.w3.org/2000/svg">
    <path d="M8.883 92.007c0 45.907 37.21 83.117 83.117 83.117 45.906 0 83.117-37.21 83.117-83.117 0-45.906-37.211-83.116-83.117-83.116-45.907 0-83.117 37.21-83.117 83.116z" fill="#F5F7FC"/>
    <path d="M92 175.64c-46.12 0-83.637-37.517-83.637-83.636C8.363 45.884 45.88 8.367 92 8.367c46.119 0 83.636 37.517 83.636 83.637 0 46.119-37.517 83.636-83.636 83.636zM92 9.406c-45.543 0-82.598 37.055-82.598 82.598C9.402 137.546 46.457 174.6 92 174.6c45.542 0 82.597-37.055 82.597-82.597 0-45.543-37.055-82.598-82.597-82.598z" fill="#E6EDF8"/>
    <path d="M128.156 159.019c0-2.007-16.114-3.636-36-3.636s-36 1.629-36 3.636c0 2.008 16.12 3.637 36 3.637 19.881 0 36-1.629 36-3.637z" fill="#D9D9D9"/>
    <path d="M141.103 35h-98.4c-6.628 0-12 5.377-12 12v69.6c0 6.629 5.372 12 12 12h1.746l-1.465 16.13a1.2 1.2 0 0 0 2 .997l18.841-17.122h77.278c6.629 0 12-5.371 12-12V47c0-6.629-5.371-12-12-12z" fill="#fff"/>
    <path d="M141.103 119h-98.4c-6.628 0-12-5.371-12-12v9.6c0 6.629 5.372 12 11.995 12h1.75l-1.464 16.13a1.2 1.2 0 0 0 2 .997L63.825 128.6h77.278c6.629 0 12-5.371 12-12V107c0 6.629-5.371 12-12 12z" fill="#F0F0F0"/>
    <path d="M44.173 147.075c-.067 0-.135 0-.202-.01a2.243 2.243 0 0 1-2.026-2.431l1.366-14.998h-.608c-7.19 0-13.039-5.849-13.039-13.039v-69.6a12.96 12.96 0 0 1 3.818-9.22 12.978 12.978 0 0 1 9.221-3.824h98.4c3.486 0 6.758 1.356 9.221 3.823a12.952 12.952 0 0 1 3.818 9.221v69.6c0 7.19-5.849 13.039-13.039 13.039H64.225L45.68 146.488c-.41.374-.951.582-1.507.582v.005zm-1.47-111.039c-6.042 0-10.961 4.92-10.961 10.961v69.6c0 6.042 4.914 10.961 10.961 10.961h1.745c.291 0 .572.125.77.338.197.213.295.504.27.795l-1.465 16.13a.154.154 0 0 0 .145.171c.047 0 .088-.01.12-.041l18.841-17.123c.192-.171.442-.27.696-.27h77.278c6.042 0 10.961-4.919 10.961-10.961v-69.6c0-6.041-4.914-10.96-10.961-10.96h-98.4z" fill="#505050"/>
    <path d="M106.605 73.096c.894-8.966 2.078-28.198-5.402-28.198a5.405 5.405 0 0 0-5.403 5.403v1.797c0 13.2-5.725 27.003-16.8 27.003v24.171h1.413c6.92 0 10.197 8.234 22.592 8.234h21.003c2.649 0 4.8-2.15 4.795-4.805a4.797 4.797 0 0 0-4.795-4.795h2.389c2.65 0 4.8-2.145 4.806-4.795 0-2.649-2.146-4.8-4.795-4.805h2.395c2.649 0 4.8-2.15 4.794-4.805 0-2.65-2.15-4.795-4.794-4.795h2.4c2.649 0 4.8-2.145 4.805-4.795 0-2.649-2.146-4.8-4.795-4.805h-24.597l-.011-.01z" fill="#BF8256"/>
    <path d="M131.203 73.094H103c0 2.65 2.151 4.8 4.8 4.8h28.203c0-2.65-2.151-4.8-4.8-4.8zM106.018 49.846a5.402 5.402 0 0 0-5.563 5.237V57.036c0 13.21-5.725 27.013-16.8 27.013H79v-4.956c11.075 0 16.8-13.802 16.8-27.002v-1.798a5.405 5.405 0 0 1 5.403-5.402c2.4 0 3.906 1.974 4.815 4.956z" fill="#DEA47A"/>
    <path d="M106.605 74.133h-4.8a1.042 1.042 0 0 1-1.039-1.04c0-.57.467-1.038 1.039-1.038h4.8c.571 0 1.039.467 1.039 1.039 0 .571-.468 1.039-1.039 1.039zM124.001 102.937h-2.4a1.042 1.042 0 0 1-1.039-1.039c0-.571.468-1.039 1.039-1.039h2.4c.572 0 1.039.468 1.039 1.039 0 .572-.467 1.039-1.039 1.039zM126.4 93.336H124a1.042 1.042 0 0 1-1.039-1.04c0-.57.467-1.038 1.039-1.038h2.4c.571 0 1.039.467 1.039 1.039 0 .571-.468 1.039-1.039 1.039zM128.806 83.734h-2.4a1.042 1.042 0 0 1-1.039-1.039c0-.571.468-1.039 1.039-1.039h2.4c.572 0 1.039.468 1.039 1.04 0 .57-.467 1.038-1.039 1.038z" fill="#505050"/>
    <path d="M124.009 112.537h-21.003c-7.407 0-11.776-2.867-15.283-5.174-2.498-1.641-4.66-3.059-7.309-3.059-.036 0-.073 0-.109-.006l-1.418-.15a1.04 1.04 0 0 1-.93-1.034v-24.02a1.05 1.05 0 0 1 1.044-1.04c5.969 0 9.626-4.358 11.642-8.015 2.618-4.738 4.12-11.284 4.12-17.949v-1.797a6.447 6.447 0 0 1 6.441-6.441c1.454 0 2.717.576 3.75 1.719 3.902 4.312 3.72 16.535 2.795 26.483h23.45c3.226.005 5.844 2.629 5.844 5.844a5.799 5.799 0 0 1-1.715 4.13 5.751 5.751 0 0 1-2.322 1.424 5.818 5.818 0 0 1 1.632 4.041 5.806 5.806 0 0 1-1.71 4.13 5.889 5.889 0 0 1-2.316 1.429 5.807 5.807 0 0 1 1.631 4.051 5.797 5.797 0 0 1-1.715 4.13 5.821 5.821 0 0 1-2.316 1.424 5.82 5.82 0 0 1 1.631 4.041 5.808 5.808 0 0 1-1.709 4.13 5.828 5.828 0 0 1-4.13 1.714l.005-.005zm-43.538-10.311c3.242.02 5.746 1.662 8.39 3.397 3.45 2.265 7.361 4.831 14.145 4.831h21.003a3.736 3.736 0 0 0 2.66-1.101 3.74 3.74 0 0 0 1.101-2.66 3.77 3.77 0 0 0-3.761-3.761 1.042 1.042 0 0 1-1.039-1.039c0-.571.468-1.039 1.039-1.039h2.395a3.737 3.737 0 0 0 2.66-1.101 3.73 3.73 0 0 0 1.101-2.66 3.771 3.771 0 0 0-3.761-3.766h-.005a1.042 1.042 0 0 1-1.039-1.04c0-.57.457-1.028 1.018-1.038h2.421c1.002 0 1.948-.39 2.659-1.101a3.737 3.737 0 0 0 1.102-2.66 3.77 3.77 0 0 0-3.761-3.761 1.042 1.042 0 0 1-1.039-1.04c0-.57.467-1.038 1.039-1.038h2.405a3.74 3.74 0 0 0 2.66-1.101 3.73 3.73 0 0 0 1.101-2.66 3.74 3.74 0 0 0-1.101-2.66 3.729 3.729 0 0 0-2.66-1.101h-24.598a1.05 1.05 0 0 1-1.033-1.148c1.371-13.73.602-22.972-2.161-26.02-.629-.697-1.351-1.035-2.208-1.035a4.37 4.37 0 0 0-4.364 4.364v1.797c0 13.517-5.766 27.195-16.8 28v22.083l.431.047v.011z" fill="#505050"/>
    <path d="M54.355 77.11H78.71v32.586H54.355V77.109z" fill="#71C5E8"/>
    <path opacity=".4" d="M53.704 82.672V78.75c0-1.148 1.387-2.078 3.091-2.078h18.816c1.709 0 3.09.93 3.09 2.078v3.922H53.7h.005z" fill="#fff"/>
    <path d="M76.927 110.134H53.426a1.042 1.042 0 0 1-1.04-1.039v-32.4c0-.571.468-1.039 1.04-1.039h23.501a3.12 3.12 0 0 1 3.117 3.117v28.244a3.12 3.12 0 0 1-3.117 3.117zm-22.462-2.078h22.462c.571 0 1.039-.467 1.039-1.039V78.773c0-.571-.468-1.039-1.039-1.039H54.465v30.322z" fill="#505050"/>
</svg>
