<svg width="16" height="16" viewBox="0 0 16 16" fill="none" xmlns="http://www.w3.org/2000/svg">
    <g clip-path="url(#shyv4hv23a)" fill="#1E1E1E">
        <path d="M13.214 6.113c.288 0 .521.21.521.468v.703c0 2.744-2.197 5.038-5.07 5.35v2.323h1.777l.105.01a.522.522 0 0 1 0 1.021l-.105.013H5.845a.522.522 0 0 1 0-1.044h1.777v-2.299c-3.015-.181-5.364-2.537-5.364-5.374v-.703c0-.258.233-.468.521-.468.288 0 .523.21.523.468v.703c0 2.48 2.126 4.45 4.695 4.45 2.57 0 4.695-1.97 4.695-4.45v-.703c0-.259.234-.468.522-.468z"/>
        <path d="M13.214 6.113v-.1.1zm.521.468h.1-.1zm0 .703h.1-.1zm-5.07 5.35-.01-.1a.1.1 0 0 0-.09.1h.1zm0 2.323h-.1a.1.1 0 0 0 .1.1v-.1zm1.777 0 .01-.1h-.01v.1zm.105.01.02-.098h-.01l-.01.099zm.417.512h.1-.1zm-.417.51.011.1.009-.002-.02-.098zm-.105.012v.1h.011l-.01-.1zm-5.119-.522h-.1.1zm2.3-.522v.1a.1.1 0 0 0 .1-.1h-.1zm0-2.299h.1a.1.1 0 0 0-.095-.1l-.006.1zM2.257 7.284h-.1.1zm0-.703h-.1.1zm.521-.468v-.1.1zm.523.468h.1-.1zm0 .703h-.1.1zm4.695 4.45v.1-.1zm4.695-4.45h.1-.1zm0-.703h-.1.1zm.522-.468v.1c.243 0 .421.175.421.368h.2c0-.324-.288-.568-.621-.568v.1zm.521.468h-.1v.703h.2v-.703h-.1zm0 .703h-.1c0 2.688-2.153 4.944-4.98 5.25l.01.1.01.1c2.92-.317 5.16-2.65 5.16-5.45h-.1zm-5.07 5.35h-.1v2.323h.2v-2.323h-.1zm0 2.323v.1h1.777v-.2H8.665v.1zm1.777 0-.01.1.105.01.01-.1.01-.099-.104-.01-.01.099zm.105.01-.02.099c.192.04.337.21.337.413h.2c0-.3-.214-.551-.497-.61l-.02.099zm.417.512h-.1a.422.422 0 0 1-.337.412l.02.098.02.098a.622.622 0 0 0 .497-.607h-.1zm-.417.51-.011-.1-.105.013.011.099.011.1.105-.012-.011-.1zm-.105.012v-.1H5.845v.2h4.597v-.1zm-4.597 0v-.1a.422.422 0 0 1-.422-.422h-.2c0 .344.278.622.622.622v-.1zm-.522-.522h.1c0-.233.19-.422.422-.422v-.2a.622.622 0 0 0-.622.623h.1zm.522-.522v.1h1.777v-.2H5.845v.1zm1.777 0h.1v-2.299h-.2v2.299h.1zm0-2.299.006-.1c-2.968-.178-5.27-2.495-5.27-5.274h-.2c0 2.895 2.395 5.29 5.458 5.474l.006-.1zM2.258 7.284h.1v-.703h-.2v.703h.1zm0-.703h.1c0-.193.178-.368.421-.368v-.2c-.332 0-.621.244-.621.568h.1zm.521-.468v.1c.244 0 .423.175.423.368h.2c0-.324-.29-.568-.623-.568v.1zm.523.468h-.1v.703h.2v-.703h-.1zm0 .703h-.1c0 2.54 2.176 4.55 4.795 4.55v-.2c-2.52 0-4.595-1.931-4.595-4.35h-.1zm4.695 4.45v.1c2.619 0 4.795-2.01 4.795-4.55h-.2c0 2.419-2.075 4.35-4.595 4.35v.1zm4.695-4.45h.1v-.703h-.2v.703h.1zm0-.703h.1c0-.193.179-.368.422-.368v-.2c-.333 0-.622.244-.622.568h.1z"/>
        <rect x="5.391" width="5.217" height="10.434" rx="2.609"/>
    </g>
    <defs>
        <clipPath id="shyv4hv23a">
            <path fill="#fff" d="M0 0h16v16H0z"/>
        </clipPath>
    </defs>
</svg>
