<svg width="32" height="32" viewBox="0 0 32 32" fill="none" xmlns="http://www.w3.org/2000/svg">
    <path d="M16 32c8.837 0 16-7.163 16-16S24.837 0 16 0 0 7.163 0 16s7.163 16 16 16z" fill="#D9D9D9"/>
    <path d="M23.3 11.85V24.2H10.95v1.68h14.03V11.85H23.3z" fill="#1E1E1E"/>
    <path d="M18.02 16.77h-7.36v1.68h7.36v-1.68zM18.02 13.398h-7.36v1.68h7.36v-1.68zM18.02 10.03h-7.36v1.68h7.36v-1.68z" fill="#1E1E1E"/>
    <path d="M19.93 6.12H7v16.24h14.59V6.12h-1.66zM8.7 20.68V7.8h11.23v12.88H8.7z" fill="#1E1E1E"/>
</svg>
