<?xml version="1.0" encoding="UTF-8"?>
<svg id="Layer_1" data-name="Layer 1" xmlns="http://www.w3.org/2000/svg" viewBox="0 0 48 48">
  <path d="M37.61,29.25c-.21,1.49-1.8,4.4-2.27,5.69-.87,1.23-1.32,3.75-2.66,4.45-1.33.7-2.81,1.07-4.32,1.08-1.5.01-2.99-.33-4.34-1-1.35.67-2.83,1.02-4.34,1-1.51-.01-3.09-.22-4.32-1.08-1.23-.86-1.33-1.51-2.05-2.83-.68-1.25-1.32-3.73-2.13-5.05l-1.98-6.12c-.26-1.85,0-3.74.74-5.45.75-1.71,1.96-3.18,3.5-4.24,1.54-1.06,3.35-1.67,5.21-1.76,1.87-.09,3.72.34,5.36,1.25,1.63-.91,3.49-1.34,5.36-1.25,1.87.09,3.67.7,5.21,1.76,1.54,1.06,2.75,2.53,3.5,4.24s1.01,3.6.74,5.45l-1.23,3.85h.02Z" fill="#618fff" stroke-width="0"/>
  <path d="M24.23,10.52l1.15.25c1.21.26,2.46.28,3.68.05,1.22-.22,2.38-.69,3.42-1.36,1.04-.67,1.94-1.54,2.64-2.57.7-1.02,1.2-2.17,1.46-3.38l.25-1.14c.03-.15.03-.31,0-.46-.03-.15-.09-.3-.17-.43-.08-.13-.19-.24-.32-.33s-.27-.15-.42-.18l-1.15-.25c-1.21-.26-2.46-.28-3.68-.05-1.22.22-2.38.69-3.42,1.36s-1.94,1.54-2.64,2.56c-.7,1.02-1.2,2.17-1.46,3.38l-.25,1.15c-.06.3,0,.62.17.88s.44.44.74.51h0Z" fill="#fff" stroke-width="0"/>
  <path d="M23.4,9.86c.08.17.19.31.33.43.14.11.31.19.49.23l1.15.25c1.21.26,2.46.28,3.68.05,1.22-.22,2.38-.69,3.42-1.36s1.94-1.54,2.64-2.57c.7-1.02,1.2-2.17,1.46-3.38l.25-1.14c.04-.18.03-.36-.01-.54-.05-.18-.13-.34-.25-.48l-13.16,8.51Z" fill="#e6edf8" stroke-width="0"/>
  <path d="M27.36,11.5c-.7,0-1.39-.07-2.08-.22l-1.15-.25h0c-.44-.1-.82-.36-1.07-.73-.25-.38-.33-.83-.24-1.27l.25-1.16c.28-1.29.79-2.49,1.54-3.57s1.69-1.99,2.79-2.71c1.1-.71,2.32-1.2,3.61-1.43,1.29-.23,2.6-.22,3.89.06l1.15.25c.22.05.43.14.61.26.18.13.34.29.46.48s.2.39.24.61.04.45-.01.67l-.25,1.14c-.28,1.28-.79,2.49-1.54,3.57-.75,1.08-1.68,1.99-2.79,2.71-1.1.71-2.32,1.2-3.61,1.43-.6.11-1.2.17-1.8.17h0ZM24.34,10.01l1.15.25c1.15.25,2.32.26,3.48.05s2.24-.64,3.23-1.28c.99-.64,1.83-1.45,2.5-2.42.67-.97,1.13-2.04,1.38-3.19l.25-1.15c.02-.08.02-.17,0-.26-.02-.08-.05-.16-.09-.24-.05-.07-.11-.14-.18-.18-.07-.05-.15-.08-.24-.1l-1.15-.25c-1.15-.25-2.32-.26-3.48-.05-1.16.21-2.24.64-3.23,1.28-.99.64-1.83,1.45-2.5,2.42-.67.97-1.13,2.04-1.38,3.19l-.25,1.15c-.03.17,0,.34.09.49s.24.25.41.28h.01Z" fill="#1d1e1e" stroke-width="0"/>
  <path d="M9.51,27.16c.62-2.26.21-4.47,3.95-7.58,1.54-1.06,3.34-1.67,5.21-1.76.81-.04,1.62.02,2.42.17.4.08.79.18,1.18.31s.73.3,1.11.42c.37.12.76.15,1.14.05s.73-.28,1.09-.41c.77-.27,1.57-.44,2.39-.51.47-.04.93-.05,1.4-.03,1.87.09,3.67.7,5.21,1.76,4.35,3.75,3.34,5.32,3.95,7.58l.3-1.76c.26-1.85,0-3.74-.74-5.45s-1.96-3.18-3.5-4.24c-1.54-1.06-3.34-1.67-5.21-1.76-1.87-.09-3.72.04-5.36.95-1.63-.91-3.49-1.04-5.36-.95-1.87.09-3.67.7-5.21,1.76s-2.75,2.53-3.5,4.24-1.01,3.6-.74,5.45l.3,1.76h-.02Z" fill="#c7dbff" stroke-width="0"/>
  <path d="M19.78,41h-.09c-1.54-.01-3.75-.22-5.17-1.87-.92-1.07-1.43-2.37-1.92-3.63-.14-.36-.28-.71-.42-1.06-.9-2.13-1.8-4.42-2.92-7.41-.58-1.54-.77-3.05-.57-4.49.13-.97.4-1.92.79-2.81.79-1.8,2.06-3.35,3.69-4.46,1.62-1.12,3.52-1.76,5.48-1.85,1.17-.06,2.33.08,3.45.4,1.27.37,2.6.37,3.87,0,1.12-.32,2.28-.46,3.45-.4,1.97.09,3.86.73,5.48,1.85s2.9,2.66,3.69,4.46c1.03,2.38,1.06,5.07.1,7.61l-.18.47c-.88,2.35-1.79,4.78-2.81,7.12-.1.22-.19.44-.29.67-.62,1.47-1.26,2.98-2.48,4.05h0c-.4.35-.84.63-1.32.84-1.01.44-2.15.49-3.23.5-.91,0-1.8-.1-2.68-.34-1.09-.29-2.24-.29-3.33,0-.85.23-1.71.34-2.59.34h0ZM19.15,14.45c-.15,0-.31,0-.46.01-1.77.09-3.48.66-4.94,1.67-1.46,1.01-2.61,2.4-3.32,4.02-.35.81-.59,1.66-.71,2.53-.17,1.26,0,2.6.52,3.98,1.11,2.98,2.01,5.25,2.91,7.37.15.36.29.72.43,1.08.46,1.18.93,2.39,1.74,3.33.87,1.01,2.26,1.49,4.39,1.5.8.01,1.62-.09,2.4-.3,1.26-.34,2.6-.34,3.87,0,.78.21,1.6.31,2.4.3.97,0,1.99-.05,2.82-.41.39-.17.73-.39,1.05-.67,1.04-.91,1.63-2.31,2.21-3.67.1-.23.19-.46.29-.68,1.01-2.32,1.92-4.73,2.79-7.07l.18-.47c.86-2.29.84-4.7-.06-6.78-.73-1.67-1.88-3.06-3.34-4.07-1.46-1.01-3.17-1.58-4.94-1.67-1.06-.05-2.09.07-3.11.36-1.46.42-3,.42-4.45,0-.86-.25-1.75-.38-2.65-.38l-.02.02ZM32.58,39.27" fill="#1d1e1e" stroke-width="0"/>
</svg>