<svg width="17" height="16" viewBox="0 0 17 16" fill="none" xmlns="http://www.w3.org/2000/svg">
    <path d="M11.99 6.79H5.05c-.13.01-.28-.02-.42-.07-.14-.06-.27-.14-.37-.25-.11-.11-.19-.24-.24-.38-.05-.15-.07-.3-.06-.45V3.39a1.046 1.046 0 0 1 .3-.79c.11-.11.23-.19.38-.24.14-.05.29-.07.44-.07h6.88c.12-.01.27.01.41.07.14.05.27.13.37.24.11.11.19.23.24.38.05.14.07.29.06.44v2.26c0 .14-.02.29-.06.42-.05.14-.14.27-.24.38-.11.11-.23.19-.37.24-.12.05-.25.07-.38.07zm-7-1.11s.05.08.06.08h6.91s.06-.05.06-.06V3.39l-6.97-.06-.06 2.34v.01z" fill="#1E1E1E"/>
    <path d="M13.68 16H3.32c-.92 0-1.67-.75-1.67-1.67V1.67C1.65.75 2.4 0 3.32 0h10.36c.92 0 1.67.75 1.67 1.67v12.66c0 .92-.75 1.67-1.67 1.67zM3.32 1.03c-.35 0-.64.29-.64.64v12.66c0 .35.29.64.64.64h10.36c.35 0 .64-.29.64-.64V1.67c0-.35-.29-.64-.64-.64H3.32z" fill="#1E1E1E"/>
    <path d="M5.12 9.62a.61.61 0 1 0 0-1.22.61.61 0 0 0 0 1.22zM7.41 9.62a.61.61 0 1 0 0-1.22.61.61 0 0 0 0 1.22zM9.71 9.62a.61.61 0 1 0 0-1.22.61.61 0 0 0 0 1.22zM12 9.62a.61.61 0 1 0 0-1.22.61.61 0 0 0 0 1.22zM5.12 11.69a.61.61 0 1 0 0-1.22.61.61 0 0 0 0 1.22zM7.41 11.69a.61.61 0 1 0 0-1.22.61.61 0 0 0 0 1.22zM5.12 13.77a.61.61 0 1 0 0-1.22.61.61 0 0 0 0 1.22zM7.41 13.77a.61.61 0 1 0 0-1.22.61.61 0 0 0 0 1.22zM9.71 11.69a.61.61 0 1 0 0-1.22.61.61 0 0 0 0 1.22zM12 11.69a.61.61 0 1 0 0-1.22.61.61 0 0 0 0 1.22zM9.71 13.77a.61.61 0 1 0 0-1.22.61.61 0 0 0 0 1.22zM12 13.77a.61.61 0 1 0 0-1.22.61.61 0 0 0 0 1.22z" fill="#1E1E1E"/>
</svg>
