<svg width="20" height="16" viewBox="0 0 20 16" fill="none" xmlns="http://www.w3.org/2000/svg">
    <path d="M9.031.237 4.296 4.98a.232.232 0 0 1-.144.056H1.6a1.6 1.6 0 0 0-1.6 1.6v2.736a1.6 1.6 0 0 0 1.6 1.6h2.552a.192.192 0 0 1 .144.056l4.735 4.735a.8.8 0 0 0 1.368-.56V.805A.8.8 0 0 0 9.031.237zM17.143 14.667a.432.432 0 0 1-.324-.145.512.512 0 0 1 0-.693c3.018-3.214 3.018-8.445 0-11.659a.512.512 0 0 1 0-.693.44.44 0 0 1 .65 0c3.374 3.598 3.374 9.447 0 13.045a.446.446 0 0 1-.323.145h-.003z" fill="#1E1E1E"/>
    <path d="M15.125 12.513a.432.432 0 0 1-.323-.144.512.512 0 0 1 0-.693c1.903-2.032 1.903-5.333 0-7.364a.512.512 0 0 1 0-.693.44.44 0 0 1 .65 0c2.264 2.411 2.264 6.334 0 8.746a.446.446 0 0 1-.323.144l-.004.004z" fill="#1E1E1E"/>
</svg>
