<?xml version="1.0" encoding="UTF-8"?>
<svg id="Layer_1" data-name="Layer 1" xmlns="http://www.w3.org/2000/svg" viewBox="0 0 48 48">
  <path d="M42.66,8.5H5.42c-.74,0-1.34.6-1.34,1.34v24.01h39.93V9.84c0-.74-.6-1.34-1.34-1.34h-.01Z" fill="#fff" stroke-width="0"/>
  <path d="M44.01,34.36H4.07c-.28,0-.51-.23-.51-.51V9.84c0-1.02.83-1.85,1.85-1.85h37.25c1.02,0,1.85.83,1.85,1.85v24.01c0,.28-.23.51-.51.51h.01ZM4.58,33.34h38.92V9.84c0-.46-.37-.83-.84-.83H5.42c-.46,0-.84.37-.84.83v23.5Z" fill="#1d1e1e" stroke-width="0"/>
  <path d="M41.19,11.32H6.93l-.04,22.53h34.3V11.32Z" fill="#f1eaf3" stroke-width="0"/>
  <path d="M32.69,11.32l-24.19,22.53h-1.61l.04-22.53h25.76Z" fill="#fff" stroke-width="0"/>
  <path d="M41.19,34.36H6.89c-.14,0-.26-.05-.36-.15s-.15-.23-.15-.36l.04-22.53c0-.28.23-.51.51-.51h34.26c.28,0,.51.23.51.51v22.53c0,.28-.23.51-.51.51ZM7.4,33.34h33.28V11.82H7.44l-.04,21.52Z" fill="#1d1e1e" stroke-width="0"/>
  <path d="M47.53,36.67H.55v-2.15c0-.37.3-.67.67-.67h45.64c.37,0,.67.3.67.67v2.15Z" fill="#fff" stroke-width="0"/>
  <path d="M47.53,37.18H.55c-.28,0-.51-.23-.51-.51v-2.15c0-.65.53-1.18,1.18-1.18h45.64c.65,0,1.18.53,1.18,1.18v2.15c0,.28-.23.51-.51.51ZM1.06,36.16h45.96v-1.64c0-.09-.07-.16-.16-.16H1.22c-.09,0-.16.07-.16.16v1.64Z" fill="#1d1e1e" stroke-width="0"/>
  <path d="M47.53,36.67c-4.36,1.25-8.88,1.88-13.42,1.88H13.97c-4.54,0-9.05-.63-13.42-1.88h46.98Z" fill="#e3cceb" stroke-width="0"/>
  <path d="M34.11,39.06H13.97c-4.59,0-9.15-.64-13.56-1.9-.24-.07-.4-.31-.36-.56s.25-.44.5-.44h46.98c.25,0,.47.19.5.44s-.12.49-.36.56c-4.41,1.26-8.97,1.9-13.56,1.9ZM4.87,37.18c2.99.57,6.04.86,9.09.86h20.15c3.06,0,6.1-.29,9.09-.86H4.87Z" fill="#1d1e1e" stroke-width="0"/>
  <path d="M29.04,21.64c-.4,0-.73-.33-.73-.73,0-.11.02-.21.07-.31l2.27-4.77c-.7-1.36-1.04-2.88-.98-4.41v-.1c0-4.89,3.96-8.87,8.86-8.88h0c4.97,0,9,4.04,9,9.01s-4.04,9-9.01,9c-1.54,0-3.04-.39-4.38-1.14l-4.75,2.27c-.11.05-.22.08-.34.07h-.01Z" fill="#702f8a" stroke-width="0"/>
  <path d="M29.08,22.15h-.05c-.33,0-.63-.13-.86-.36s-.36-.54-.36-.87c0-.18.04-.36.12-.53l2.16-4.55c-.66-1.38-.98-2.9-.92-4.43v-.08c0-5.16,4.2-9.37,9.36-9.39,2.54,0,4.93.99,6.72,2.79,1.79,1.8,2.78,4.19,2.78,6.73,0,5.24-4.27,9.5-9.51,9.5h0c-1.53,0-3.05-.38-4.4-1.08l-4.52,2.15c-.16.08-.34.12-.53.12h.01ZM38.54,2.95c-4.6,0-8.35,3.76-8.35,8.37v.1c-.06,1.46.26,2.89.92,4.17.07.14.08.31,0,.45l-2.27,4.77c-.02.17.02.22.04.25.03.03.09.06.18.07.03,0,.06,0,.09-.02l4.76-2.27c.15-.07.32-.07.47.01,1.26.7,2.69,1.08,4.14,1.08h0c4.68,0,8.49-3.81,8.49-8.49,0-2.27-.88-4.4-2.48-6.01-1.6-1.61-3.74-2.49-6-2.49h0Z" fill="#1d1e1e" stroke-width="0"/>
  <path d="M29.51,13.43c-.26-1.33-.22-2.71.11-4.03s.95-2.55,1.81-3.6c.86-1.05,1.95-1.9,3.17-2.48,1.23-.58,2.57-.89,3.93-.89s2.7.29,3.93.87c1.23.58,2.32,1.42,3.19,2.46.87,1.05,1.49,2.27,1.83,3.59.34,1.32.38,2.69.13,4.03-.41-2.1-1.54-3.99-3.2-5.35-1.65-1.36-3.73-2.1-5.87-2.09-2.14,0-4.21.76-5.86,2.12-1.65,1.37-2.77,3.26-3.17,5.37" fill="#9c59b2" stroke-width="0"/>
  <path d="M37.16,6.23c0-.08.02-.16.04-.23.03-.07.08-.14.13-.19.06-.06.12-.1.2-.13.07-.03.15-.05.22-.05h1.62c.1,0,.21.02.29.06.1.04.18.1.26.17.07.07.13.16.16.25.04.09.06.2.06.3l-.4,5.8c0,.16-.06.31-.17.42-.11.11-.27.17-.42.17h-.99c-.16,0-.31-.06-.42-.17-.11-.11-.17-.26-.17-.42l-.4-5.98h-.01Z" fill="#fff" stroke-width="0"/>
  <path d="M39.15,13.19h-.99c-.26,0-.51-.1-.69-.29-.18-.18-.29-.43-.29-.69l-.4-5.96v-.03c0-.11.02-.23.07-.36.06-.14.13-.24.21-.33.09-.08.19-.17.34-.23.1-.04.23-.07.36-.07h1.62c.16,0,.32.03.45.09.12.05.25.13.36.24.13.13.21.26.26.4.05.11.08.26.08.43l-.4,5.83c0,.24-.1.48-.28.67-.18.18-.44.29-.69.29h0ZM37.54,6.22l.4,5.97c0,.09.02.14.06.18s.1.06.15.06h.99c.06,0,.11-.02.16-.06.04-.04.06-.09.06-.15l.4-5.83s0-.07-.03-.11c-.03-.06-.05-.11-.09-.15-.03-.03-.08-.06-.13-.08-.05-.02-.1-.03-.15-.03h-1.62l-.42-.21.28.26s-.05.06-.06.1v.06h0Z" fill="#1d1e1e" stroke-width="0"/>
  <path d="M38.65,14.01c-.83,0-1.5.67-1.5,1.5s.67,1.5,1.5,1.5,1.5-.67,1.5-1.5-.67-1.5-1.5-1.5Z" fill="#fff" stroke-width="0"/>
  <path d="M38.65,17.38c-1.04,0-1.88-.84-1.88-1.88s.84-1.88,1.88-1.88,1.88.84,1.88,1.88-.84,1.88-1.88,1.88ZM38.65,14.39c-.61,0-1.11.5-1.11,1.11s.5,1.11,1.11,1.11,1.11-.5,1.11-1.11-.5-1.11-1.11-1.11Z" fill="#1d1e1e" stroke-width="0"/>
  <path d="M29.08,22.15h-.05c-.33,0-.63-.13-.86-.36s-.36-.54-.36-.87c0-.18.04-.36.12-.53l2.16-4.55c-.66-1.38-.98-2.9-.92-4.43v-.08c0-5.16,4.2-9.37,9.36-9.39,2.54,0,4.93.99,6.72,2.79,1.79,1.8,2.78,4.19,2.78,6.73,0,5.24-4.27,9.5-9.51,9.5h0c-1.53,0-3.05-.38-4.4-1.08l-4.52,2.15c-.16.08-.34.12-.53.12h.01ZM38.54,2.95c-4.6,0-8.35,3.76-8.35,8.37v.1c-.06,1.46.26,2.89.92,4.17.07.14.08.31,0,.45l-2.27,4.77c-.02.17.02.22.04.25.03.03.09.06.18.07.03,0,.06,0,.09-.02l4.76-2.27c.15-.07.32-.07.47.01,1.26.7,2.69,1.08,4.14,1.08h0c4.68,0,8.49-3.81,8.49-8.49,0-2.27-.88-4.4-2.48-6.01-1.6-1.61-3.74-2.49-6-2.49h0Z" fill="#1d1e1e" stroke-width="0"/>
</svg>