<?xml version="1.0" encoding="UTF-8"?>
<svg id="Layer_1" data-name="Layer 1" xmlns="http://www.w3.org/2000/svg" viewBox="0 0 48 48">
  <path d="M39.57,39.53c0,.25-.1.49-.28.67-.18.18-.42.28-.67.28H9.38c-.25,0-.49-.1-.67-.28s-.28-.42-.28-.67V3.15c0-.25.1-.49.28-.67.18-.18.42-.28.67-.28h29.25c.25,0,.49.1.67.28.18.18.28.42.28.67v36.38h0Z" fill="#fff" stroke-width="0"/>
  <path d="M39.57,4.5c0-.07,0-.14-.04-.2-.03-.06-.06-.12-.11-.17s-.11-.09-.17-.11-.13-.04-.2-.04H8.95c-.07,0-.14,0-.2.04-.06.03-.12.07-.17.11-.05.05-.09.11-.11.17-.03.06-.04.13-.04.2v-1.34c0-.25.1-.49.28-.67.18-.18.42-.28.67-.28h29.25c.25,0,.49.1.67.28.18.18.28.42.28.67v1.34h0Z" fill="#fff" stroke-width="0"/>
  <path d="M9.38,41c-.39,0-.76-.16-1.04-.43-.28-.28-.43-.65-.43-1.04V3.15c0-.39.15-.76.43-1.04.27-.27.65-.43,1.03-.44h29.25c.4,0,.76.16,1.04.44.28.28.43.65.43,1.04v36.38c0,.39-.15.76-.43,1.04-.28.28-.64.43-1.03.43H9.38ZM38.62,2.72H9.38c-.11,0-.22.05-.3.13s-.13.19-.13.3v36.38c0,.11.05.22.13.3s.19.13.3.13h29.24c.11,0,.22-.05.3-.13s.13-.19.13-.3V3.15c0-.11-.05-.22-.13-.3s-.19-.13-.3-.13Z" fill="#1d1e1e" stroke-width="0"/>
  <path d="M14.1,40.48h-4.72c-.25,0-.49-.1-.67-.28s-.28-.42-.28-.67V3.15c0-.25.1-.49.28-.67.18-.18.42-.28.67-.28h4.72v38.28Z" fill="#e6edf8" stroke-width="0"/>
  <path d="M14.1,3.97h-5.14c-.07,0-.14,0-.2.04-.06.03-.12.07-.17.11-.05.05-.09.11-.11.17-.03.06-.04.13-.04.2v-1.34c0-.25.1-.49.28-.67.18-.18.42-.28.67-.28h4.72v1.77h-.01Z" fill="#fff" stroke-width="0"/>
  <path d="M14.1,41h-4.72c-.39,0-.77-.16-1.04-.44-.28-.28-.43-.65-.43-1.04V3.15c0-.39.15-.76.43-1.04.27-.27.65-.43,1.03-.44h4.72c.29,0,.52.23.52.52v38.29c0,.29-.23.52-.52.52h.01ZM9.38,2.72c-.11,0-.22.05-.3.13s-.13.19-.13.3v36.38c0,.11.05.22.13.3s.19.13.3.13h4.19V2.72h-4.2,0Z" fill="#1d1e1e" stroke-width="0"/>
  <path d="M35.78,1.18v11.98s-.02.07-.06.1c-.04.03-.09.05-.15.06s-.13.01-.19,0c-.06-.01-.11-.03-.15-.06l-2.87-2.05s-.07-.04-.11-.05-.09-.02-.14-.02-.09,0-.14.02c-.04.01-.08.03-.11.05l-2.87,2.05s-.09.05-.15.06-.13.01-.19,0c-.06-.01-.11-.03-.15-.06-.04-.03-.06-.06-.06-.1V1.18c0-.17.13-.34.36-.46.23-.12.54-.19.86-.19h4.88c.32,0,.63.07.86.19s.36.29.36.46h.02Z" fill="#618fff" stroke-width="0"/>
  <path d="M35.51,3.95V1.62c0-.31-.12-.6-.34-.82s-.51-.34-.82-.34h-4.65c-.31,0-.6.12-.82.34-.22.22-.34.51-.34.82v2.32c0-.31.12-.6.34-.82s.51-.34.82-.34h4.65c.31,0,.6.12.82.34s.34.51.34.82h0Z" fill="#c7dbff" stroke-width="0"/>
  <path d="M28.77,13.84c-.06,0-.13,0-.19-.02-.14-.02-.26-.08-.36-.15-.17-.12-.26-.3-.27-.49V1.18c0-.2.07-.39.2-.57.11-.14.25-.26.43-.36.16-.09.34-.15.53-.19.18-.04.38-.06.58-.06h4.88c.2,0,.4.02.58.06.19.04.37.11.53.19.18.1.33.22.43.36.13.17.2.36.2.57v12c0,.19-.11.37-.27.49-.1.07-.22.13-.36.15-.12.02-.25.02-.36,0-.13-.02-.26-.07-.36-.14l-2.82-2.02-2.81,2.02c-.11.08-.24.13-.37.15-.05,0-.11.01-.17.01h-.02ZM29.68,1.04c-.12,0-.24,0-.35.04-.1.02-.19.05-.27.09-.07.04-.09.07-.1.07l.02,11.4,2.59-1.86c.08-.06.17-.1.27-.13.18-.05.38-.05.55,0,.1.03.19.07.27.13l2.59,1.86V1.21l-.08-.04c-.07-.04-.16-.07-.26-.09-.11-.02-.23-.04-.35-.04h-4.88Z" fill="#1d1e1e" stroke-width="0"/>
  <path d="M24.18,18.2c.1-.34.31-.64.59-.85.28-.22.62-.34.97-.36.36,0,.7.13.98.35.28.22.49.52.58.87l2.87,7.95c.07.17.11.36.12.54,0,.13-.03.26-.08.38-.05.12-.13.23-.22.32s-.21.16-.33.21-.25.07-.38.06c-.24.02-.48-.05-.67-.19-.19-.14-.33-.34-.4-.57l-.43-1.37h-4.07l-.43,1.36c-.06.23-.19.44-.39.58s-.43.21-.67.2c-.14,0-.28-.02-.41-.07s-.25-.12-.35-.22c-.1-.1-.18-.21-.24-.34-.06-.13-.09-.26-.09-.4,0-.17.04-.33.1-.48l2.93-7.95.02-.02ZM24.34,23.51h2.78l-1.36-4.24h-.03l-1.39,4.24Z" fill="#1d1e1e" stroke-width="0"/>
</svg>