<?xml version="1.0" encoding="UTF-8"?>
<svg id="Layer_1" data-name="Layer 1" xmlns="http://www.w3.org/2000/svg" viewBox="0 0 48 48">
  <rect x="9.17" y="16.18" width="29.67" height="19.08" fill="#f1eaf3" stroke-width="0"/>
  <path d="M5.68,40.5l1.55-4.65c.12-.35.45-.59.82-.59h31.9c.37,0,.71.24.82.59l1.55,4.64" fill="#702f8a" stroke-width="0"/>
  <path d="M5.68,41c-.05,0-.11,0-.16-.03-.26-.09-.4-.37-.32-.63l1.55-4.65c.19-.56.71-.93,1.3-.94h31.9c.59,0,1.11.38,1.3.94l1.55,4.64c.09.26-.05.54-.32.63s-.54-.06-.63-.32l-1.55-4.64c-.05-.15-.19-.25-.35-.25H8.04c-.16,0-.3.1-.35.25l-1.55,4.65c-.07.21-.27.34-.47.34h0Z" fill="#1d1e1e" stroke-width="0"/>
  <rect x="33.6" y="16.06" width="5.23" height="19.2" fill="#fff" stroke-width="0"/>
  <path d="M38.83,35.76h-5.23c-.28,0-.5-.22-.5-.5v-19.2c0-.28.22-.5.5-.5h5.23c.28,0,.5.22.5.5v19.2c0,.28-.22.5-.5.5ZM34.11,34.76h4.22v-18.19h-4.22v18.19Z" fill="#1d1e1e" stroke-width="0"/>
  <rect x="21.38" y="16.06" width="5.24" height="19.2" fill="#fff" stroke-width="0"/>
  <path d="M26.62,35.76h-5.24c-.28,0-.5-.22-.5-.5v-19.2c0-.28.22-.5.5-.5h5.24c.28,0,.5.22.5.5v19.2c0,.28-.22.5-.5.5ZM21.88,34.76h4.23v-18.19h-4.23v18.19Z" fill="#1d1e1e" stroke-width="0"/>
  <rect x="9.17" y="16.06" width="5.24" height="19.2" fill="#fff" stroke-width="0"/>
  <path d="M14.41,35.76h-5.24c-.28,0-.5-.22-.5-.5v-19.2c0-.28.22-.5.5-.5h5.24c.28,0,.5.22.5.5v19.2c0,.28-.22.5-.5.5ZM9.67,34.76h4.23v-18.19h-4.23v18.19Z" fill="#1d1e1e" stroke-width="0"/>
  <rect x="33.6" y="16.06" width="5.23" height="3.13" fill="#f1eaf3" stroke-width="0"/>
  <rect x="21.38" y="16.06" width="5.24" height="3.13" fill="#f1eaf3" stroke-width="0"/>
  <rect x="9.17" y="16.06" width="5.24" height="3.13" fill="#f1eaf3" stroke-width="0"/>
  <path d="M38.83,35.76h-5.23c-.28,0-.5-.22-.5-.5v-19.2c0-.28.22-.5.5-.5h5.23c.28,0,.5.22.5.5v19.2c0,.28-.22.5-.5.5ZM34.11,34.76h4.22v-18.19h-4.22v18.19Z" fill="#1d1e1e" stroke-width="0"/>
  <path d="M26.62,35.76h-5.24c-.28,0-.5-.22-.5-.5v-19.2c0-.28.22-.5.5-.5h5.24c.28,0,.5.22.5.5v19.2c0,.28-.22.5-.5.5ZM21.88,34.76h4.23v-18.19h-4.23v18.19Z" fill="#1d1e1e" stroke-width="0"/>
  <path d="M14.41,35.76h-5.24c-.28,0-.5-.22-.5-.5v-19.2c0-.28.22-.5.5-.5h5.24c.28,0,.5.22.5.5v19.2c0,.28-.22.5-.5.5ZM9.67,34.76h4.23v-18.19h-4.23v18.19Z" fill="#1d1e1e" stroke-width="0"/>
  <path d="M44.07,41H3.93c-.28,0-.5-.22-.5-.5s.22-.5.5-.5h40.14c.28,0,.5.22.5.5s-.22.5-.5.5Z" fill="#1d1e1e" stroke-width="0"/>
  <path d="M42.04,10.82H5.96c.08-.15.2-.27.35-.35L23.57.6c.27-.14.6-.14.87,0l17.26,9.87c.15.08.27.2.35.35h-.01Z" fill="#fff" stroke-width="0"/>
  <path d="M42.04,11.33H5.96c-.18,0-.34-.09-.43-.24-.09-.15-.1-.34-.01-.49.13-.24.32-.43.56-.56L23.32.17c.44-.22.93-.22,1.35-.01l17.28,9.89c.22.12.42.31.54.55.08.15.08.34-.01.49s-.25.24-.43.24h-.01ZM7.58,10.32h32.84L24.19,1.03c-.11-.05-.26-.06-.39.01L7.58,10.32Z" fill="#1d1e1e" stroke-width="0"/>
  <path d="M41.3,13.34l-.46,1.94c-.12.35-.44.59-.8.59H7.94c-.36,0-.68-.24-.8-.59l-.83-1.94c-.08-.22-.06-.47.05-.68h34.89c.11.21.13.45.05.68Z" fill="#f8f5f9" stroke-width="0"/>
  <path d="M42.09,11.51l-.47,1.94c-.12.35-.45.59-.82.59H7.58c-.37,0-.7-.24-.82-.59l-.86-1.94c-.08-.22-.06-.47.05-.68h36.1c.11.21.13.45.05.68Z" fill="#f1eaf3" stroke-width="0"/>
  <path d="M8.04,16.56c-.59,0-1.1-.38-1.29-.93l-1.32-3.96c-.12-.35-.09-.74.09-1.08l.14-.26h36.69l.14.26c.18.33.21.72.09,1.08l-1.32,3.95c-.19.55-.7.93-1.29.93H8.04ZM6.37,11.33h0s1.32,3.98,1.32,3.98c.05.15.19.25.35.25h31.9c.15,0,.29-.1.34-.25l1.33-3.97H6.37h0Z" fill="#1d1e1e" stroke-width="0"/>
</svg>