<svg xmlns="http://www.w3.org/2000/svg" width="13" height="16" viewBox="0 0 13 16">
    <g fill="none" fill-rule="evenodd">
        <g fill="#000000" fill-rule="nonzero">
            <g>
                <path d="M966.793 20.215c-.677 0-1.23-.56-1.23-1.237 0-.679.55-1.229 1.23-1.229.683 0 1.236.553 1.236 1.23 0 .676-.553 1.236-1.236 1.236m-2.211 8.552l-4.313-.858.247-1.236 3.019.618.981-4.99-1.105.437v2.08h-1.23v-2.88l3.2-1.36.488-.058c.436 0 .8.247 1.04.618l.626.982c.494.88 1.476 1.476 2.647 1.476v1.222c-1.353 0-2.59-.603-3.39-1.527l-.363 1.847 1.287 1.23V31h-1.229v-3.71l-1.294-1.228-.611 2.705M972.364 31h-1.455V16.455h-9.454v9.534L960 25.684V15h12.364v16m-10.91 0H960v-2.342l1.455.306V31z" transform="translate(-960 -15)"/>
            </g>
        </g>
    </g>
</svg>
