<svg width="32" height="32" fill="none" xmlns="http://www.w3.org/2000/svg">
    <path d="M16 32c8.837 0 16-7.163 16-16S24.837 0 16 0 0 7.163 0 16s7.163 16 16 16z" fill="#DCDCDC"/>
    <path d="M16 11.281a2.879 2.879 0 1 0 2.88 2.87 2.869 2.869 0 0 0-2.88-2.87zm0 4.25a1.38 1.38 0 1 1 1.38-1.38 1.368 1.368 0 0 1-1.38 1.38z" fill="#1E1E1E"/>
    <path d="M22.5 8h-13A1.5 1.5 0 0 0 8 9.5v13A1.5 1.5 0 0 0 9.5 24h13a1.5 1.5 0 0 0 1.5-1.5v-13A1.5 1.5 0 0 0 22.5 8zM15 22.5h-2.37a3.37 3.37 0 0 1 6.74 0H15zm7.5 0h-1.63a4.87 4.87 0 0 0-9.74 0H9.5v-13h13v13z" fill="#1E1E1E"/>
</svg>
