<svg width="16" height="16" viewBox="0 0 16 16" fill="none" xmlns="http://www.w3.org/2000/svg">
    <g opacity=".92" clip-path="url(#e1vyfxn7ea)" fill="#324DC7">
        <path d="M8.001 15.996c-1.59 0-3.12-.47-4.44-1.35a7.97 7.97 0 0 1-2.95-3.59 7.855 7.855 0 0 1-.45-4.62 8.025 8.025 0 0 1 2.19-4.1 7.956 7.956 0 0 1 4.09-2.19c1.56-.31 3.15-.15 4.62.46a7.97 7.97 0 0 1 3.59 2.95 7.996 7.996 0 0 1 1.35 4.44c0 2.14-.83 4.15-2.34 5.66a7.949 7.949 0 0 1-5.66 2.34zm0-14.91c-.45 0-.9.04-1.35.13-1.34.27-2.57.92-3.54 1.89-.97.97-1.62 2.19-1.89 3.54-.27 1.35-.13 2.72.39 3.99a6.883 6.883 0 0 0 6.38 4.26c1.84 0 3.58-.72 4.88-2.02a6.87 6.87 0 0 0 2.02-4.88c0-1.37-.4-2.7-1.16-3.84a6.82 6.82 0 0 0-3.1-2.54c-.84-.35-1.74-.53-2.64-.53h.01z"/>
        <path d="M9.279 11.922c0 .06-.01.11-.04.16s-.06.1-.11.14a.46.46 0 0 1-.17.09c-.06.02-.13.03-.2.03h-1.38a.69.69 0 0 1-.25-.04.94.94 0 0 1-.22-.12.489.489 0 0 1-.14-.18.537.537 0 0 1-.05-.21v-4.13c0-.11.05-.22.15-.3.1-.08.23-.12.36-.12h1.53c.14 0 .27.04.36.12.1.08.15.19.15.3v4.26h.01zM8.002 5.948c.64 0 1.15-.52 1.15-1.15 0-.63-.52-1.15-1.15-1.15-.63 0-1.15.52-1.15 1.15 0 .63.52 1.15 1.15 1.15z"/>
    </g>
    <defs>
        <clipPath id="e1vyfxn7ea">
            <path fill="#fff" d="M0 0h16v16H0z"/>
        </clipPath>
    </defs>
</svg>
