<?xml version="1.0" encoding="UTF-8"?>
<svg id="Layer_1" data-name="Layer 1" xmlns="http://www.w3.org/2000/svg" viewBox="0 0 48 48">
  <path d="M4.05,20.5c0,2.62.52,5.21,1.52,7.63,1,2.42,2.47,4.62,4.32,6.47,1.85,1.85,4.05,3.32,6.47,4.32,2.42,1,5.01,1.52,7.63,1.52s5.21-.52,7.63-1.52c2.42-1,4.62-2.47,6.47-4.32,1.85-1.85,3.32-4.05,4.32-6.47s1.52-5.01,1.52-7.63-.52-5.21-1.52-7.63c-1-2.42-2.47-4.62-4.32-6.47s-4.05-3.32-6.47-4.32c-2.42-1-5.01-1.52-7.63-1.52s-5.21.52-7.63,1.52c-2.42,1-4.62,2.47-6.47,4.32-1.85,1.85-3.32,4.05-4.32,6.47-1,2.42-1.52,5.01-1.52,7.63h0Z" fill="#e6f1fa" stroke-width="0"/>
  <path d="M4.42,24.34c-.57-2.89-.49-5.86.23-8.71.72-2.85,2.06-5.51,3.92-7.78,1.86-2.27,4.21-4.11,6.86-5.37,2.66-1.26,5.56-1.92,8.5-1.93,2.94,0,5.84.63,8.51,1.88,2.66,1.25,5.02,3.07,6.89,5.33,1.88,2.26,3.23,4.91,3.96,7.76.73,2.85.83,5.82.28,8.71-.89-4.54-3.33-8.64-6.91-11.58-3.58-2.94-8.07-4.54-12.7-4.53-4.63.01-9.11,1.64-12.67,4.59-3.56,2.96-5.99,7.06-6.85,11.61" fill="#fff" stroke-width="0"/>
  <path d="M23.99,41c-2.71,0-5.35-.53-7.84-1.56-2.5-1.04-4.74-2.53-6.65-4.44-1.91-1.91-3.41-4.15-4.44-6.65-1.04-2.5-1.56-5.14-1.56-7.85s.53-5.35,1.56-7.85c1.04-2.5,2.53-4.74,4.44-6.65s4.15-3.41,6.65-4.44c5-2.07,10.69-2.07,15.69,0,2.5,1.03,4.74,2.53,6.65,4.44s3.41,4.15,4.44,6.65c1.04,2.5,1.56,5.14,1.56,7.85s-.53,5.35-1.56,7.85c-1.04,2.5-2.53,4.74-4.44,6.65-1.91,1.91-4.15,3.41-6.65,4.44-2.5,1.04-5.14,1.56-7.85,1.56ZM23.99,1.1c-2.56,0-5.05.5-7.42,1.48-2.36.98-4.48,2.39-6.29,4.2-1.81,1.81-3.22,3.93-4.2,6.29-.98,2.36-1.48,4.86-1.48,7.42s.5,5.06,1.48,7.42c.98,2.36,2.39,4.48,4.2,6.29,1.81,1.81,3.92,3.22,6.29,4.2,4.73,1.96,10.11,1.96,14.84,0,2.36-.98,4.48-2.39,6.29-4.2,1.81-1.81,3.22-3.93,4.2-6.29.98-2.36,1.48-4.86,1.48-7.42s-.5-5.06-1.48-7.42c-.98-2.36-2.39-4.48-4.2-6.29-1.81-1.81-3.93-3.22-6.29-4.2-2.36-.98-4.86-1.48-7.42-1.48Z" fill="#1d1e1e" stroke-width="0"/>
  <path d="M23.99,28.87c1.03,0,2.05-.24,2.98-.71.94-.47,1.77-1.16,2.41-1.99.23-.3.67-.36.97-.12.3.23.36.67.12.97-.77,1-1.76,1.82-2.89,2.38-1.12.56-2.35.85-3.6.85s-2.48-.29-3.6-.85c-1.13-.57-2.12-1.38-2.89-2.38-.23-.31-.16-.74.14-.97.3-.22.72-.17.95.12.65.84,1.47,1.52,2.41,1.99.92.46,1.94.71,2.98.71h.02Z" fill="#1d1e1e" fill-rule="evenodd" stroke-width="0"/>
  <path d="M15.08,14.21c0,.82.66,1.49,1.49,1.49s1.49-.67,1.49-1.49-.67-1.48-1.49-1.48-1.48.66-1.48,1.48h-.01ZM29.94,14.19c0,.39.16.76.44,1.04s.66.43,1.05.43.77-.15,1.05-.43c.28-.28.44-.65.44-1.04s-.16-.76-.44-1.04-.66-.43-1.05-.43-.77.15-1.05.43c-.28.27-.43.65-.43,1.04h-.01Z" fill="#1d1e1e" stroke-width="0"/>
</svg>