<svg width="244" height="224" viewBox="0 0 244 224" fill="none" xmlns="http://www.w3.org/2000/svg">
<path d="M11.0547 111.997C11.0588 137.573 19.9308 162.356 36.1591 182.124C52.3873 201.892 74.9677 215.421 100.053 220.407C125.138 225.393 151.176 221.527 173.73 209.467C196.284 197.408 213.959 177.901 223.744 154.27C233.528 130.64 234.816 104.348 227.388 79.8745C219.961 55.4009 204.277 34.2598 183.01 20.0532C161.743 5.84672 136.207 -0.5462 110.755 1.96373C85.3024 4.47366 61.5077 15.7312 43.4248 33.8181C33.16 44.0853 25.018 56.2739 19.4639 69.688C13.9098 83.102 11.0523 97.4786 11.0547 111.997Z" fill="#F5F7FC"/>
<path d="M122 224C92.3014 223.982 63.8244 212.176 42.8243 191.176C21.8241 170.176 10.0183 141.699 10 112C10.0183 82.3014 21.8241 53.8244 42.8243 32.8243C63.8244 11.8241 92.3014 0.0183042 122 0C151.699 0.0183042 180.176 11.8241 201.176 32.8243C222.176 53.8244 233.982 82.3014 234 112C233.982 141.699 222.176 170.176 201.176 191.176C180.176 212.176 151.699 223.982 122 224ZM122 2.90191C100.423 2.9025 79.3305 9.30132 61.3899 21.2892C43.4494 33.2771 29.4665 50.3157 21.2093 70.2504C12.9522 90.1851 10.7917 112.121 15.001 133.283C19.2104 154.446 29.6005 173.885 44.8575 189.143C54.9651 199.377 66.9967 207.511 80.2601 213.078C93.5234 218.644 107.757 221.533 122.141 221.577C136.525 221.622 150.775 218.822 164.073 213.338C177.371 207.854 189.453 199.795 199.624 189.624C209.795 179.453 217.854 167.371 223.338 154.073C228.822 140.775 231.622 126.525 231.577 112.141C231.533 97.7566 228.644 83.5234 223.078 70.2601C217.511 56.9967 209.377 44.9651 199.143 34.8575C189.034 24.6975 177.011 16.6422 163.77 11.1572C150.529 5.67218 136.332 2.86635 122 2.90191Z" fill="#E6EDF8"/>
<path opacity="0.16" d="M2 198.55C2 200.53 14.6677 202.443 37.179 203.852C59.6904 205.262 90.2703 206 122.101 206C153.931 206 184.511 205.195 206.821 203.819C229.131 202.443 242 200.463 242 198.517C242 196.57 229.332 194.624 206.821 193.215C184.31 191.805 153.77 191 122.101 191C90.4317 191 59.6904 191.805 37.179 193.215C14.6677 194.624 2 196.57 2 198.517V198.55Z" fill="#45413C"/>
<path d="M236.419 169.375H7.5814C6.10112 169.375 4.68146 169.963 3.63475 171.01C2.58803 172.056 2 173.476 2 174.956V186.119H242V174.956C242 173.476 241.412 172.056 240.365 171.01C239.319 169.963 237.899 169.375 236.419 169.375Z" fill="#CBD2E0" stroke="#45413C" stroke-width="2.6" stroke-linecap="round" stroke-linejoin="round"/>
<path d="M242 186.123H2C3.82323 189.606 6.59456 192.502 9.99395 194.478C13.3933 196.453 17.2821 197.426 21.2112 197.285H222.884C226.783 197.424 230.642 196.458 234.016 194.499C237.391 192.54 240.143 189.667 241.955 186.212L242 186.123Z" fill="#EDF2F9" stroke="#45413C" stroke-width="2.6" stroke-linecap="round" stroke-linejoin="round"/>
<path d="M225.824 52.1628C225.824 49.2022 224.648 46.3629 222.555 44.2695C220.461 42.1761 217.622 41 214.661 41H30.4753C27.5147 41 24.6754 42.1761 22.582 44.2695C20.4886 46.3629 19.3125 49.2022 19.3125 52.1628V169.372H225.824V52.1628Z" fill="#D6DDE7"/>
<path d="M177.804 41H29.8972C26.9366 41 24.0973 42.1761 22.0039 44.2695C19.9104 46.3629 18.7344 49.2022 18.7344 52.1628V169.372L177.804 41Z" fill="#EDF0F5"/>
<path d="M225.824 52.1628C225.824 49.2022 224.648 46.3629 222.555 44.2695C220.461 42.1761 217.622 41 214.661 41H30.4753C27.5147 41 24.6754 42.1761 22.582 44.2695C20.4886 46.3629 19.3125 49.2022 19.3125 52.1628V169.372H225.824V52.1628Z" stroke="#45413C" stroke-width="2.6"/>
<rect x="43.5312" y="54.8442" width="156.923" height="101.538" fill="#FAFAFA"/>
<circle cx="122" cy="106" r="36.2" fill="#CFF1FF" stroke="#45413C" stroke-width="3.6"/>
<path fill-rule="evenodd" clip-rule="evenodd" d="M109.5 94.2941C108.277 94.2941 107.159 94.6873 106.382 95.3115C105.614 95.9281 105.281 96.6754 105.281 97.3529C105.281 98.2626 104.547 99 103.641 99C102.735 99 102 98.2626 102 97.3529C102 95.5343 102.902 93.8877 104.332 92.7392C105.752 91.5984 107.615 91 109.5 91C111.385 91 113.248 91.5984 114.668 92.7392C116.098 93.8877 117 95.5343 117 97.3529C117 98.2626 116.265 99 115.359 99C114.453 99 113.719 98.2626 113.719 97.3529C113.719 96.6754 113.386 95.9281 112.618 95.3115C111.841 94.6873 110.723 94.2941 109.5 94.2941Z" fill="#45413C"/>
<path fill-rule="evenodd" clip-rule="evenodd" d="M134.5 94.2941C133.277 94.2941 132.159 94.6873 131.382 95.3115C130.614 95.9281 130.281 96.6754 130.281 97.3529C130.281 98.2626 129.547 99 128.641 99C127.735 99 127 98.2626 127 97.3529C127 95.5343 127.902 93.8877 129.332 92.7392C130.752 91.5984 132.615 91 134.5 91C136.385 91 138.248 91.5984 139.668 92.7392C141.098 93.8877 142 95.5343 142 97.3529C142 98.2626 141.265 99 140.359 99C139.453 99 138.719 98.2626 138.719 97.3529C138.719 96.6754 138.386 95.9281 137.618 95.3115C136.841 94.6873 135.723 94.2941 134.5 94.2941Z" fill="#45413C"/>
<path d="M137.206 114H107.35C106.678 114 106.202 114.647 106.469 115.263C108.216 119.3 113.147 125.5 122.5 125.5C131.879 125.5 136.541 119.265 138.099 115.229C138.335 114.618 137.86 114 137.206 114Z" fill="white"/>
<path d="M139 114C137 120.5 129.933 126 122 126" stroke="#45413C" stroke-width="3.6" stroke-linecap="round"/>
<path d="M139 114H105" stroke="#45413C" stroke-width="3.6" stroke-linecap="round"/>
<path d="M105 114C107 120.5 114.067 126 122 126" stroke="#45413C" stroke-width="3.6" stroke-linecap="round"/>
<rect x="43.5312" y="54.8438" width="156.923" height="101.538" rx="1" stroke="#45413C" stroke-width="2.6" stroke-linejoin="round"/>
</svg>
