<?xml version="1.0" encoding="UTF-8"?>
<svg xmlns="http://www.w3.org/2000/svg" version="1.1" viewBox="0 0 48 48">
  <defs>
    <style>
      .cls-1 {
        fill: #14bf96;
      }
    </style>
  </defs>
  <!-- Generator: Adobe Illustrator 28.7.1, SVG Export Plug-In . SVG Version: 1.2.0 Build 142)  -->
  <g>
    <g id="Layer_1">
      <path class="cls-1" d="M32.8,22.1l-9.2-5.3c-.5-.1-1.1-.1-1.5,0l-9.2,5.3c-.4.3-.6.6-.6,1.2v11.1c0,.6.1.9.8,1.2l9.2,5.3c.5.2.9.2,1.4,0l9.2-5.3c.5-.3.8-.6.8-1.2v-11.1c-.2-.6-.5-1.1-.8-1.2ZM21,22.6c1.1-1.1,2.7-1.1,3.6,0,1.1,1.1,1.1,2.7,0,3.6-1.1,1.1-2.6,1.1-3.6,0-1.1-1.1-1.1-2.6,0-3.6ZM25.7,35.1c-.9.3-2,.5-2.9.5s-2-.2-2.9-.5c-3-1.2-5.3-4.2-5.3-7.7v-.9c4.4,0,8,3.8,8,8.3v.2h.3v-.2c0-4.5,3.6-8.2,8-8.3v.9c0,3.5-2.1,6.5-5.3,7.7Z"/>
    </g>
  </g>
</svg>