<svg width="18" height="12" fill="none" xmlns="http://www.w3.org/2000/svg">
    <path fill-rule="evenodd" clip-rule="evenodd" d="M15.644 3.718c.099-.074.2-.145.304-.21l.29-.18c.185-.111.346-.214.484-.302.137-.091.265-.188.382-.291.17-.154.31-.324.423-.511.11-.187.165-.41.165-.665a.996.996 0 0 0-.409-.846A1.381 1.381 0 0 0 16.827.5a2.193 2.193 0 0 0-.568-.07c-.18 0-.347.017-.501.05a3.264 3.264 0 0 0-.42.122 2.32 2.32 0 0 0-.333.155 3.55 3.55 0 0 0-.24.152l-.183.98c.257-.202.5-.355.727-.456.228-.101.463-.152.706-.152.198 0 .337.043.416.129a.422.422 0 0 1 .118.297.582.582 0 0 1-.158.409 2.398 2.398 0 0 1-.416.348c-.243.162-.48.317-.71.463a5.134 5.134 0 0 0-.635.477 3.088 3.088 0 0 0-.561.67c-.157.256-.273.58-.344.972h3.358l.25-1.284a.85.85 0 0 0-.22-.081.936.936 0 0 0-.22-.027c-.062 0-.136.006-.222.02a1.01 1.01 0 0 0-.25.074l-.094.466h-1.204c.068-.094.147-.182.237-.263.09-.081.184-.16.284-.233M12.783.848H8.487a1.186 1.186 0 0 0-.31.447c-.07.173-.105.342-.105.508 0 .056.004.125.011.208.007.083.038.2.094.353h1.12L7.118 4.356 5.519.848H2.572c-.276.264-.414.616-.414 1.059 0 .07.003.142.01.218.008.076.031.218.073.425h1.432l1.618 3.549-4.005 3.819H.414C.137 10.18 0 10.533 0 10.976c0 .069.003.143.01.218.006.076.031.218.073.425h4.565c.139-.125.241-.272.312-.445a1.39 1.39 0 0 0 .103-.51c0-.054-.004-.124-.009-.207-.007-.083-.04-.2-.094-.352H3.652l2.449-2.221 1.681 3.735h2.926c.291-.262.436-.615.436-1.058 0-.07-.004-.142-.01-.218a3.156 3.156 0 0 0-.093-.425H9.63L7.928 6.14l3.755-3.59h.769c.29-.262.435-.616.435-1.057 0-.071-.003-.143-.009-.22a3.383 3.383 0 0 0-.095-.425" fill="#1E1E1E"/>
</svg>
