<?xml version="1.0" encoding="utf-8"?>
<!-- Generator: Adobe Illustrator 26.5.2, SVG Export Plug-In . SVG Version: 6.00 Build 0)  -->
<svg width="32" height="32" version="1.1" id="Layer_1" xmlns="http://www.w3.org/2000/svg" xmlns:xlink="http://www.w3.org/1999/xlink" x="0px" y="0px"
	 viewBox="0 0 32 32" style="enable-background:new 0 0 32 32;" xml:space="preserve">
<style type="text/css">
	.st0{fill:#D9D9D9;}
	.st1{fill-rule:evenodd;clip-rule:evenodd;fill:#1E1E1E;}
</style>
<path class="st0" d="M16,32c8.8,0,16-7.2,16-16S24.8,0,16,0S0,7.2,0,16S7.2,32,16,32z"/>
<path class="st1" d="M15.2,24.2l-0.6-0.6H9.3L9.4,8.4H22v11.5l0.9-0.9l0.4-0.4V7H8.1V25H16L15.2,24.2z"/>
<path class="st1" d="M13,11.7c0,0.6-0.5,1.1-1.1,1.1c-0.6,0-1.1-0.5-1.1-1.1c0-0.6,0.5-1.1,1.1-1.1C12.5,10.6,13,11.1,13,11.7"/>
<path class="st1" d="M14.3,12.4h6.3v-1.3h-6.3V12.4z"/>
<path class="st1" d="M13,15.1c0,0.6-0.5,1.1-1.1,1.1c-0.6,0-1.1-0.5-1.1-1.1c0-0.6,0.5-1.1,1.1-1.1C12.5,14,13,14.5,13,15.1"/>
<path class="st1" d="M14.3,15.8h6.3v-1.3h-6.3V15.8z"/>
<path class="st1" d="M13,18.5c0,0.6-0.5,1.1-1.1,1.1c-0.6,0-1.1-0.5-1.1-1.1c0-0.6,0.5-1.1,1.1-1.1C12.5,17.3,13,17.8,13,18.5"/>
<path class="st1" d="M14.3,19.1h6.3v-1.3h-6.3V19.1z"/>
<path class="st1" d="M17.5,21.9l-1.3,1.3l3.5,3.5l5.5-5.5l-1.3-1.3l-4.2,4.2L17.5,21.9z"/>
</svg>