<?xml version="1.0" encoding="UTF-8"?>
<svg id="Layer_1" data-name="Layer 1" xmlns="http://www.w3.org/2000/svg" viewBox="0 0 48 48">
  <path d="M29.7,1.51c0-.48.39-.87.87-.87h12.13c.48,0,.87.39.87.87v38.12c0,.48-.39.87-.87.87h-13V1.51Z" fill="#fff" stroke-width="0"/>
  <path d="M29.69,40.5h-13.85v-19.06h13.86" fill="#618fff" stroke-width="0"/>
  <path d="M23.37,15.12c-.34-.34-.89-.34-1.23,0l-6.32,6.32h13.87l-6.33-6.32Z" fill="#c7dbff" stroke-width="0"/>
  <path d="M15.83,40.5H6.3c-.48,0-.87-.39-.87-.87v-7.81h10.4" fill="#e6edf8" stroke-width="0"/>
  <path d="M15.83,26.64H7.63c-.29,0-.56.14-.72.39l-2.31,3.47c-.27.4-.16.94.24,1.2.14.09.31.15.48.15h10.51" fill="#fff" stroke-width="0"/>
  <path d="M42.29.6h-11.44c-.34,0-.66.17-.9.46-.24.3-.37.7-.37,1.11v2.65h13.99v-2.64c0-.42-.13-.82-.37-1.11s-.56-.46-.9-.46h0Z" fill="#fff" stroke-width="0"/>
  <path d="M28.15,21.93h-11.44c-.34,0-.66.17-.9.46-.24.3-.37.7-.37,1.11v2.65h13.99v-2.65c0-.42-.13-.82-.37-1.11s-.56-.46-.9-.46h0Z" fill="#c7dbff" stroke-width="0"/>
  <path d="M18.41,10.93c1.89-.23,3.32-1.83,3.36-3.73,0-2.06-1.67-3.72-3.73-3.72h-.14c-.86-1.83-2.69-2.99-4.71-2.99-2.8,0-5.13,2.12-5.38,4.91-1.51-.32-3,.64-3.32,2.16-.04.19-.06.39-.06.58.02,1.57,1.3,2.82,2.87,2.8h11.11,0Z" fill="#e6edf8" stroke-width="0"/>
  <path d="M18.01,3.49h-.14c-.86-1.83-2.69-2.99-4.71-2.99-2.8,0-5.13,2.12-5.38,4.91,3.88-2.74,5-3.41,10.23-1.92Z" fill="#fff" stroke-width="0"/>
  <path d="M7.27,11.42c-.87,0-1.69-.33-2.32-.95-.63-.62-.99-1.45-1-2.34,0-.24.02-.47.07-.69.18-.86.69-1.6,1.42-2.07.59-.38,1.27-.57,1.95-.53.49-2.76,2.93-4.85,5.78-4.85h.03c2.09,0,4.02,1.16,5.01,2.99,1.06.04,2.06.47,2.82,1.23.8.8,1.23,1.85,1.23,2.98-.04,2.14-1.66,3.95-3.78,4.22H7.27ZM7.24,5.83c-.44,0-.87.13-1.25.37-.52.34-.87.85-1,1.46-.03.16-.05.32-.05.48,0,.62.26,1.21.71,1.65.45.44,1.03.69,1.67.67h11.08c1.63-.22,2.87-1.61,2.9-3.25,0-.86-.34-1.67-.95-2.28-.61-.61-1.42-.95-2.29-.95h-.12c-.2,0-.38-.1-.46-.28-.77-1.65-2.45-2.71-4.27-2.71h-.02c-2.52,0-4.65,1.96-4.87,4.46,0,.14-.08.27-.2.35-.11.08-.25.11-.39.08-.16-.03-.32-.05-.48-.05h-.02Z" fill="#1d1e1e" stroke-width="0"/>
  <path d="M42.69,40.99h-13c-.27,0-.49-.22-.49-.49V1.51c0-.75.61-1.36,1.36-1.36h12.13c.75,0,1.36.61,1.36,1.36v38.12c0,.75-.61,1.36-1.36,1.36ZM30.18,40.01h12.51c.21,0,.38-.17.38-.38V1.51c0-.21-.17-.38-.38-.38h-12.13c-.21,0-.38.17-.38.38v38.5Z" fill="#1d1e1e" stroke-width="0"/>
  <path d="M26.23,24.47h-6.94v5.21h6.94v-5.21Z" fill="#fff" stroke-width="0"/>
  <path d="M26.23,32.7h-6.94v5.21h6.94v-5.21Z" fill="#fff" stroke-width="0"/>
  <path d="M26.23,24.47l-6.94,5.21h6.94v-5.21Z" fill="#e6edf8" stroke-width="0"/>
  <path d="M26.23,32.26l-6.94,5.21h6.94v-5.21Z" fill="#e6edf8" stroke-width="0"/>
  <path d="M26.23,30.17h-6.94c-.27,0-.49-.22-.49-.49v-5.21c0-.27.22-.49.49-.49h6.94c.27,0,.49.22.49.49v5.21c0,.27-.22.49-.49.49ZM19.78,29.19h5.97v-4.23h-5.97v4.23Z" fill="#1d1e1e" stroke-width="0"/>
  <path d="M26.23,37.96h-6.94c-.27,0-.49-.22-.49-.49v-5.21c0-.27.22-.49.49-.49h6.94c.27,0,.49.22.49.49v5.21c0,.27-.22.49-.49.49ZM19.78,36.98h5.97v-4.23h-5.97v4.23Z" fill="#1d1e1e" stroke-width="0"/>
  <path d="M29.7,40.99h-13.86c-.27,0-.49-.22-.49-.49v-19.06c0-.27.22-.49.49-.49h13.86c.27,0,.49.22.49.49s-.22.49-.49.49h-13.37v18.09h13.37c.27,0,.49.22.49.49s-.22.49-.49.49h0Z" fill="#1d1e1e" stroke-width="0"/>
  <path d="M29.7,21.75h-13.86c-.2,0-.38-.12-.45-.3-.08-.18-.03-.39.11-.53l6.32-6.32c.51-.51,1.4-.51,1.92,0l6.33,6.32c.14.14.18.35.11.53-.08.18-.25.3-.45.3h-.02ZM17,20.77h11.51l-5.49-5.49h0c-.14-.14-.39-.14-.54,0l-5.49,5.49Z" fill="#1d1e1e" stroke-width="0"/>
  <path d="M15.58,40.99H6.06c-.75,0-1.36-.61-1.36-1.36v-7.81c0-.27.22-.49.49-.49h10.39c.27,0,.49.22.49.49s-.22.49-.49.49H5.68v7.32c0,.21.17.38.38.38h9.53c.27,0,.49.22.49.49s-.22.49-.49.49Z" fill="#1d1e1e" stroke-width="0"/>
  <path d="M15.82,32.07H5.31c-.27,0-.53-.08-.75-.23-.62-.42-.79-1.26-.38-1.88l2.31-3.47c.25-.38.67-.6,1.13-.6h8.21c.27,0,.49.22.49.49s-.22.49-.49.49H7.62c-.13,0-.25.06-.32.17l-2.31,3.47c-.12.17-.07.41.11.53.06.04.13.06.21.06h10.51c.27,0,.49.22.49.49s-.22.49-.49.49h0Z" fill="#1d1e1e" stroke-width="0"/>
  <path d="M35.52,3.52h-3.47v5.21h3.47V3.52Z" fill="#fff" stroke-width="0"/>
  <path d="M35.52,3.52l-3.47,5.21h3.47V3.52Z" fill="#e6edf8" stroke-width="0"/>
  <path d="M35.52,9.22h-3.47c-.27,0-.49-.22-.49-.49V3.52c0-.27.22-.49.49-.49h3.47c.27,0,.49.22.49.49v5.21c0,.27-.22.49-.49.49ZM32.54,8.24h2.5v-4.23h-2.5v4.23Z" fill="#1d1e1e" stroke-width="0"/>
  <path d="M41.21,3.52h-3.47v5.21h3.47V3.52Z" fill="#fff" stroke-width="0"/>
  <path d="M41.21,3.52l-3.47,5.21h3.47V3.52Z" fill="#e6edf8" stroke-width="0"/>
  <path d="M41.21,9.22h-3.47c-.27,0-.49-.22-.49-.49V3.52c0-.27.22-.49.49-.49h3.47c.27,0,.49.22.49.49v5.21c0,.27-.22.49-.49.49ZM38.22,8.24h2.5v-4.23h-2.5v4.23Z" fill="#1d1e1e" stroke-width="0"/>
  <path d="M35.52,10.74h-3.47v5.21h3.47v-5.21Z" fill="#fff" stroke-width="0"/>
  <path d="M35.52,10.74l-3.47,5.21h3.47v-5.21Z" fill="#e6edf8" stroke-width="0"/>
  <path d="M35.52,16.44h-3.47c-.27,0-.49-.22-.49-.49v-5.21c0-.27.22-.49.49-.49h3.47c.27,0,.49.22.49.49v5.21c0,.27-.22.49-.49.49ZM32.54,15.46h2.5v-4.23h-2.5v4.23Z" fill="#1d1e1e" stroke-width="0"/>
  <path d="M41.21,10.74h-3.47v5.21h3.47v-5.21Z" fill="#fff" stroke-width="0"/>
  <path d="M41.21,10.74l-3.47,5.21h3.47v-5.21Z" fill="#e6edf8" stroke-width="0"/>
  <path d="M41.21,16.44h-3.47c-.27,0-.49-.22-.49-.49v-5.21c0-.27.22-.49.49-.49h3.47c.27,0,.49.22.49.49v5.21c0,.27-.22.49-.49.49ZM38.22,15.46h2.5v-4.23h-2.5v4.23Z" fill="#1d1e1e" stroke-width="0"/>
  <path d="M35.52,17.97h-3.47v5.21h3.47v-5.21Z" fill="#fff" stroke-width="0"/>
  <path d="M35.52,17.97l-3.47,5.21h3.47v-5.21Z" fill="#e6edf8" stroke-width="0"/>
  <path d="M35.52,23.66h-3.47c-.27,0-.49-.22-.49-.49v-5.21c0-.27.22-.49.49-.49h3.47c.27,0,.49.22.49.49v5.21c0,.27-.22.49-.49.49ZM32.54,22.68h2.5v-4.23h-2.5v4.23Z" fill="#1d1e1e" stroke-width="0"/>
  <path d="M41.21,17.97h-3.47v5.21h3.47v-5.21Z" fill="#fff" stroke-width="0"/>
  <path d="M41.21,17.97l-3.47,5.21h3.47v-5.21Z" fill="#e6edf8" stroke-width="0"/>
  <path d="M41.21,23.66h-3.47c-.27,0-.49-.22-.49-.49v-5.21c0-.27.22-.49.49-.49h3.47c.27,0,.49.22.49.49v5.21c0,.27-.22.49-.49.49ZM38.22,22.68h2.5v-4.23h-2.5v4.23Z" fill="#1d1e1e" stroke-width="0"/>
  <path d="M35.52,25.19h-3.47v5.21h3.47v-5.21Z" fill="#fff" stroke-width="0"/>
  <path d="M35.52,25.19l-3.47,5.21h3.47v-5.21Z" fill="#e6edf8" stroke-width="0"/>
  <path d="M35.52,30.88h-3.47c-.27,0-.49-.22-.49-.49v-5.21c0-.27.22-.49.49-.49h3.47c.27,0,.49.22.49.49v5.21c0,.27-.22.49-.49.49ZM32.54,29.91h2.5v-4.23h-2.5v4.23Z" fill="#1d1e1e" stroke-width="0"/>
  <path d="M41.21,25.19h-3.47v5.21h3.47v-5.21Z" fill="#fff" stroke-width="0"/>
  <path d="M41.21,25.19l-3.47,5.21h3.47v-5.21Z" fill="#e6edf8" stroke-width="0"/>
  <path d="M41.21,30.88h-3.47c-.27,0-.49-.22-.49-.49v-5.21c0-.27.22-.49.49-.49h3.47c.27,0,.49.22.49.49v5.21c0,.27-.22.49-.49.49ZM38.22,29.91h2.5v-4.23h-2.5v4.23Z" fill="#1d1e1e" stroke-width="0"/>
  <path d="M35.52,32.41h-3.47v5.21h3.47v-5.21Z" fill="#fff" stroke-width="0"/>
  <path d="M35.52,32.41l-3.47,5.21h3.47v-5.21Z" fill="#e6edf8" stroke-width="0"/>
  <path d="M35.52,38.11h-3.47c-.27,0-.49-.22-.49-.49v-5.21c0-.27.22-.49.49-.49h3.47c.27,0,.49.22.49.49v5.21c0,.27-.22.49-.49.49ZM32.54,37.13h2.5v-4.23h-2.5v4.23Z" fill="#1d1e1e" stroke-width="0"/>
  <path d="M41.21,32.41h-3.47v5.21h3.47v-5.21Z" fill="#fff" stroke-width="0"/>
  <path d="M41.21,32.41l-3.47,5.21h3.47v-5.21Z" fill="#e6edf8" stroke-width="0"/>
  <path d="M41.21,38.11h-3.47c-.27,0-.49-.22-.49-.49v-5.21c0-.27.22-.49.49-.49h3.47c.27,0,.49.22.49.49v5.21c0,.27-.22.49-.49.49ZM38.22,37.13h2.5v-4.23h-2.5v4.23Z" fill="#1d1e1e" stroke-width="0"/>
</svg>