<?xml version="1.0" encoding="UTF-8"?>
<svg id="Layer_1" data-name="Layer 1" xmlns="http://www.w3.org/2000/svg" viewBox="0 0 48 48">
  <path d="M4.05,20.5c0,2.62.52,5.21,1.52,7.63,1,2.42,2.47,4.62,4.32,6.47,1.85,1.85,4.05,3.32,6.47,4.32,2.42,1,5.01,1.52,7.63,1.52s5.21-.52,7.63-1.52c2.42-1,4.62-2.47,6.47-4.32,1.85-1.85,3.32-4.05,4.32-6.47,1-2.42,1.52-5.01,1.52-7.63s-.52-5.21-1.52-7.63c-1-2.42-2.47-4.62-4.32-6.47s-4.05-3.32-6.47-4.32c-2.42-1-5.01-1.52-7.63-1.52s-5.21.52-7.63,1.52c-2.42,1-4.62,2.47-6.47,4.32-1.85,1.85-3.32,4.05-4.32,6.47-1,2.42-1.52,5.01-1.52,7.63h0Z" fill="#f1eaf3" stroke-width="0"/>
  <path d="M4.42,24.34c-.57-2.89-.49-5.86.23-8.71.72-2.85,2.06-5.51,3.92-7.78,1.86-2.27,4.21-4.11,6.86-5.37,2.66-1.26,5.56-1.92,8.5-1.93,2.94,0,5.84.63,8.51,1.88,2.66,1.25,5.02,3.07,6.89,5.33,1.88,2.26,3.23,4.91,3.96,7.76.73,2.85.83,5.82.28,8.71-.89-4.54-3.33-8.64-6.91-11.58-3.58-2.94-8.07-4.54-12.7-4.53-4.63.01-9.11,1.64-12.67,4.59-3.56,2.96-5.99,7.06-6.85,11.61" fill="#fff" stroke-width="0"/>
  <path d="M23.99,41c-2.71,0-5.35-.53-7.84-1.56-2.5-1.04-4.74-2.53-6.65-4.44-1.91-1.91-3.41-4.15-4.44-6.65-1.04-2.5-1.56-5.14-1.56-7.85s.53-5.35,1.56-7.85c1.04-2.5,2.53-4.74,4.44-6.65,1.91-1.91,4.15-3.41,6.65-4.44,5-2.07,10.69-2.07,15.69,0,2.5,1.03,4.74,2.53,6.65,4.44,1.91,1.91,3.41,4.15,4.44,6.65,1.04,2.5,1.56,5.14,1.56,7.85s-.53,5.35-1.56,7.85c-1.04,2.5-2.53,4.74-4.44,6.65-1.91,1.91-4.15,3.41-6.65,4.44-2.5,1.04-5.14,1.56-7.85,1.56ZM23.99,1.1c-2.56,0-5.05.5-7.42,1.48-2.36.98-4.48,2.39-6.29,4.2-1.81,1.81-3.22,3.93-4.2,6.29-.98,2.36-1.48,4.86-1.48,7.42s.5,5.06,1.48,7.42,2.39,4.48,4.2,6.29c1.81,1.81,3.92,3.22,6.29,4.2,4.73,1.96,10.11,1.96,14.84,0,2.36-.98,4.48-2.39,6.29-4.2,1.81-1.81,3.22-3.93,4.2-6.29.98-2.36,1.48-4.86,1.48-7.42s-.5-5.06-1.48-7.42c-.98-2.36-2.39-4.48-4.2-6.29-1.81-1.81-3.93-3.22-6.29-4.2-2.36-.98-4.86-1.48-7.42-1.48Z" fill="#1d1e1e" stroke-width="0"/>
  <path d="M34.16,29.56c-.36.14-.76-.03-.9-.39h0c-.76-1.93-2.05-3.57-3.7-4.73-1.65-1.15-3.58-1.77-5.56-1.77s-3.91.61-5.56,1.77-2.94,2.8-3.7,4.73c-.14.36-.54.53-.9.39-.36-.14-.53-.54-.39-.9.86-2.18,2.32-4.04,4.2-5.35s4.09-2.02,6.35-2.02,4.47.7,6.35,2.02c1.88,1.31,3.34,3.18,4.2,5.35.14.36-.03.76-.39.9h0Z" fill="#1d1e1e" fill-rule="evenodd" stroke-width="0"/>
  <path d="M27.95,11.38c.38,0,.7.29.71.68h0c0,.3.16.62.48.88.33.26.79.43,1.3.43s.97-.16,1.3-.43c.32-.26.47-.58.48-.88,0-.38.33-.69.71-.68.38,0,.69.33.68.71h0c-.02.76-.4,1.45-1,1.93-.6.48-1.38.73-2.17.73s-1.57-.25-2.17-.73-.98-1.17-1-1.93c0-.38.29-.7.68-.71ZM15.07,11.38c.38,0,.7.29.71.68,0,.3.16.62.48.88.33.26.79.43,1.3.43s.97-.16,1.3-.43c.32-.26.47-.58.48-.88,0-.38.33-.69.71-.68s.69.33.68.71c-.02.76-.4,1.45-1,1.93-.6.48-1.38.73-2.17.73s-1.57-.25-2.17-.73-.98-1.17-1-1.93c0-.38.29-.7.68-.71h0Z" fill="#1d1e1e" fill-rule="evenodd" stroke-width="0"/>
</svg>