<?xml version="1.0" encoding="UTF-8"?>
<svg id="Layer_1" data-name="Layer 1" xmlns="http://www.w3.org/2000/svg" viewBox="0 0 48 48">
  <g>
    <circle cx="13.53" cy="9.39" r="4.81" fill="#009cde" stroke-width="0"/>
    <path d="M13.53,14.7c-2.93,0-5.31-2.38-5.31-5.31s2.38-5.31,5.31-5.31,5.31,2.38,5.31,5.31-2.38,5.31-5.31,5.31ZM13.53,5.08c-2.38,0-4.31,1.93-4.31,4.31s1.93,4.31,4.31,4.31,4.31-1.93,4.31-4.31-1.93-4.31-4.31-4.31Z" fill="#231f20" stroke-width="0"/>
  </g>
  <path d="M13.35,15.75h.07c5.24,0,9.5,4.25,9.5,9.5v9.8c0,.43-.35.78-.78.78H4.64c-.43,0-.78-.35-.78-.78v-9.8c0-5.24,4.25-9.5,9.5-9.5Z" fill="#009cde" stroke-width="0"/>
  <path d="M14.82,16.4h-2.59c-4.52,0-8.18,3.66-8.18,8.18v3.55c0-4.52,3.66-8.18,8.18-8.18h2.59c4.52,0,8.18,3.66,8.18,8.18v-3.55c0-4.52-3.66-8.18-8.18-8.18Z" fill="#71c5e8" stroke-width="0"/>
  <path d="M22.26,36.33H4.79c-.71,0-1.29-.58-1.29-1.29v-9.76c0-5.53,4.5-10.03,10.03-10.03s10.03,4.5,10.03,10.03v9.76c0,.71-.58,1.29-1.29,1.29ZM13.53,16.26c-4.98,0-9.02,4.05-9.02,9.02v9.76c0,.16.13.29.29.29h17.47c.16,0,.29-.13.29-.29v-9.76c0-4.98-4.05-9.02-9.02-9.02Z" fill="#231f20" stroke-width="0"/>
  <g>
    <path d="M8.95,36.32c-.28,0-.5-.22-.5-.5v-9.51c0-.28.22-.5.5-.5s.5.22.5.5v9.51c0,.28-.22.5-.5.5Z" fill="#231f20" stroke-width="0"/>
    <path d="M17.82,36.32c-.28,0-.5-.22-.5-.5v-9.51c0-.28.22-.5.5-.5s.5.22.5.5v9.51c0,.28-.22.5-.5.5Z" fill="#231f20" stroke-width="0"/>
  </g>
  <path d="M32.92,17.06h.08c6.07,0,11,4.93,11,11v11.36c0,.5-.41.91-.91.91h-20.27c-.5,0-.91-.41-.91-.91v-11.36c0-6.07,4.93-11,11-11Z" fill="#e6f1fa" stroke-width="0"/>
  <path d="M34.47,17.39h-3.02c-5.26,0-9.53,4.27-9.53,9.53v4.14c0-5.26,4.27-9.53,9.53-9.53h3.02c5.26,0,9.53,4.27,9.53,9.53v-4.14c0-5.26-4.27-9.53-9.53-9.53Z" fill="#fff" stroke-width="0"/>
  <g>
    <path d="M27.82,40.83c-.28,0-.5-.22-.5-.5v-11.03c0-.28.22-.5.5-.5s.5.22.5.5v11.03c0,.28-.22.5-.5.5Z" fill="#231f20" stroke-width="0"/>
    <path d="M38.1,40.83c-.28,0-.5-.22-.5-.5v-11.03c0-.28.22-.5.5-.5s.5.22.5.5v11.03c0,.28-.22.5-.5.5Z" fill="#231f20" stroke-width="0"/>
  </g>
  <path d="M43.09,40.83h-20.26c-.78,0-1.41-.63-1.41-1.41v-11.32c0-6.37,5.18-11.54,11.54-11.54s11.54,5.18,11.54,11.54v11.32c0,.78-.63,1.41-1.41,1.41ZM32.96,17.56c-5.81,0-10.54,4.73-10.54,10.54v11.32c0,.23.18.41.41.41h20.26c.23,0,.41-.18.41-.41v-11.32c0-5.81-4.73-10.54-10.54-10.54Z" fill="#231f20" stroke-width="0"/>
  <g>
    <circle cx="32.96" cy="9.72" r="5.58" fill="#e6f1fa" stroke-width="0"/>
    <path d="M32.96,15.8c-3.35,0-6.08-2.73-6.08-6.08s2.73-6.08,6.08-6.08,6.08,2.73,6.08,6.08-2.73,6.08-6.08,6.08ZM32.96,4.65c-2.8,0-5.07,2.28-5.07,5.07s2.28,5.07,5.07,5.07,5.07-2.28,5.07-5.07-2.28-5.07-5.07-5.07Z" fill="#231f20" stroke-width="0"/>
  </g>
</svg>