<svg width="168" height="168" viewBox="0 0 168 168" fill="none" xmlns="http://www.w3.org/2000/svg">
    <g clip-path="url(#0wvi1lwbpa)">
        <path d="M.998 83.999a83.037 83.037 0 0 0 18.782 52.595 82.675 82.675 0 0 0 47.802 28.713 82.534 82.534 0 0 0 55.122-8.205 82.84 82.84 0 0 0 37.418-41.398 83.103 83.103 0 0 0 2.727-55.797 82.897 82.897 0 0 0-33.202-44.866A82.55 82.55 0 0 0 75.589 1.474a82.624 82.624 0 0 0-50.373 23.89A82.927 82.927 0 0 0 7.289 52.268 83.09 83.09 0 0 0 .998 84z" fill="#F5F7FC"/>
        <path d="M84 168a83.742 83.742 0 0 1-59.235-24.618A84.157 84.157 0 0 1 .207 84a84.157 84.157 0 0 1 24.558-59.382A83.74 83.74 0 0 1 84 0a83.74 83.74 0 0 1 59.236 24.618A84.155 84.155 0 0 1 167.793 84a84.155 84.155 0 0 1-24.557 59.382A83.742 83.742 0 0 1 84 168zM84 2.176a81.48 81.48 0 0 0-45.345 13.79A81.78 81.78 0 0 0 8.593 52.689 82.011 82.011 0 0 0 3.95 99.962a81.887 81.887 0 0 0 22.337 41.895 81.607 81.607 0 0 0 26.486 17.951 81.436 81.436 0 0 0 62.705.196 81.62 81.62 0 0 0 26.598-17.786 81.85 81.85 0 0 0 17.742-26.663 82 82 0 0 0-.195-62.86 81.853 81.853 0 0 0-17.907-26.552 81.123 81.123 0 0 0-26.464-17.775 80.96 80.96 0 0 0-31.25-6.192z" fill="#E6EDF8"/>
        <path opacity=".16" d="M51.871 156.517c0 .66 3.264 1.297 9.066 1.767 5.8.47 13.681.716 21.884.716 8.202 0 16.083-.268 21.832-.727 5.749-.459 9.065-1.119 9.065-1.767 0-.649-3.264-1.298-9.065-1.768S90.982 154 82.821 154c-8.161 0-16.083.268-21.884.738-5.801.47-9.066 1.119-9.066 1.768v.011z" fill="#45413C"/>
        <path d="M162.856 123.686H5.195a3.771 3.771 0 0 0-2.714 1.14 3.864 3.864 0 0 0-1.137 2.591v7.773h165.363v-7.773a3.862 3.862 0 0 0-1.137-2.591 3.813 3.813 0 0 0-2.714-1.14z" fill="#BAC8DC"/>
        <path d="M166.708 135.273H1.293a14.418 14.418 0 0 0 5.498 5.801 14.365 14.365 0 0 0 7.735 1.972h139.001a14.24 14.24 0 0 0 7.702-1.973 14.286 14.286 0 0 0 5.454-5.8h.025z" fill="#EAEEF7"/>
        <path d="M155.198 43.112a7.777 7.777 0 0 0-2.275-5.467 7.595 7.595 0 0 0-5.429-2.254H20.506c-2.057 0-4.03.819-5.484 2.276a7.782 7.782 0 0 0-2.272 5.497v80.865h142.448V43.112z" fill="#C3CFE1"/>
        <path d="M122.457 35.002H20.519a7.744 7.744 0 0 0-5.482 2.277 7.782 7.782 0 0 0-2.271 5.496v80.917l109.691-88.69z" fill="#DCE5F2"/>
        <path d="M37.342 44.522h92.901v70.304H37.342V44.522z" fill="#FCA886"/>
        <path d="M117.319 44.545h-67.08c-3.276-.045-10.957 0-12.897 0v5.667c.002 1.448.044 2.449 0 3.763v12.46a8.202 8.202 0 0 1 1.071-3.774 8.63 8.63 0 0 1 2.727-2.913 15.65 15.65 0 0 1 9.099-2.743h67.08a15.68 15.68 0 0 1 9.126 2.743 8.635 8.635 0 0 1 2.727 2.913 8.204 8.204 0 0 1 1.071 3.773v-12.46c-.043-1.316 0-3.368 0-4.749v-4.68c-3.798 0-9.648-.053-12.924 0z" fill="#FEDECB"/>
        <path d="M39 45h90v68H39V45z" fill="#DADADA"/>
        <path d="M39 45h90v10H39V45z" fill="#B9D3FB"/>
        <path fill-rule="evenodd" clip-rule="evenodd" d="M48 62a2 2 0 0 1 2-2h31.427a2 2 0 0 1 2 2v17a2 2 0 0 1-2 2H50a2 2 0 0 1-2-2V62zm37.574 0a2 2 0 0 1 2-2h31.427a2 2 0 0 1 2 2v17a2 2 0 0 1-2 2H87.574a2 2 0 0 1-2-2V62zM49 84a1 1 0 0 0-1 1v10a1 1 0 0 0 1 1h14a1 1 0 0 0 1-1V85a1 1 0 0 0-1-1H49zm17 1a1 1 0 0 1 1-1h15a1 1 0 0 1 1 1v10a1 1 0 0 1-1 1H67a1 1 0 0 1-1-1V85zm-16 15a2 2 0 0 0-2 2v5a2 2 0 0 0 2 2h69a2 2 0 0 0 2-2v-5a2 2 0 0 0-2-2H50zm36-15a1 1 0 0 1 1-1h15a1 1 0 0 1 1 1v10a1 1 0 0 1-1 1H87a1 1 0 0 1-1-1V85zm20-1a1 1 0 0 0-1 1v10a1 1 0 0 0 1 1h14a1 1 0 0 0 1-1V85a1 1 0 0 0-1-1h-14z" fill="#fff"/>
        <path fill-rule="evenodd" clip-rule="evenodd" d="M156.58 124.986H11.842v-.031H5.169a2.585 2.585 0 0 0-1.809.751 2.595 2.595 0 0 0-.75 1.814l-.025 6.451h162.83v-6.425c0-.687-.272-1.346-.757-1.832a2.58 2.58 0 0 0-1.827-.759h-6.251v.031zM11.842 42.774v79.564H5.143a5.162 5.162 0 0 0-3.644 1.503A5.188 5.188 0 0 0 0 127.494v7.773c0 .278.09.547.252.768a15.533 15.533 0 0 0 5.645 5.997 15.48 15.48 0 0 0 8.096 2.259l-.129-.104h139.569a15.471 15.471 0 0 0 8.398-2.091 15.533 15.533 0 0 0 5.795-5.944c.217-.233.342-.539.348-.859v-7.773a5.182 5.182 0 0 0-3.191-4.788 5.163 5.163 0 0 0-1.978-.394h-6.225V42.774a8.998 8.998 0 0 0-2.533-6.374 9.06 9.06 0 0 0-6.358-2.591H20.785a8.898 8.898 0 0 0-6.358 2.59 9.106 9.106 0 0 0-2.585 6.375zm2.585 79.564h139.569V42.774a6.54 6.54 0 0 0-1.887-4.56 6.427 6.427 0 0 0-4.523-1.866H20.733a6.345 6.345 0 0 0-4.48 1.904 6.372 6.372 0 0 0-1.826 4.522v79.564zM3.689 136.562a12.921 12.921 0 0 0 3.765 3.298 12.684 12.684 0 0 0 7.03 1.762h139.053a13.123 13.123 0 0 0 7.03-1.736 13.51 13.51 0 0 0 3.765-3.324H3.689zm34.045-20.823h92.122a1.299 1.299 0 0 0 1.3-1.302v-70.44a1.302 1.302 0 0 0-1.3-1.302H37.734a1.3 1.3 0 0 0-1.3 1.302v70.44a1.3 1.3 0 0 0 1.3 1.302zm90.821-2.604h-89.52V45.299h89.52v67.836z" fill="#45413C"/>
        <path d="M104.84 39.985c0 4.065.8 8.084 2.331 11.827 1.554 3.744 3.817 7.166 6.674 10.014a30.912 30.912 0 0 0 9.965 6.706 30.424 30.424 0 0 0 11.771 2.342c4.046 0 8.045-.804 11.771-2.342a30.656 30.656 0 0 0 9.965-6.706 31.071 31.071 0 0 0 6.674-10.014c1.554-3.743 2.331-7.762 2.331-11.827s-.799-8.084-2.331-11.827c-1.554-3.744-3.817-7.166-6.674-10.014a30.903 30.903 0 0 0-9.965-6.705 30.42 30.42 0 0 0-11.771-2.343 30.85 30.85 0 0 0-11.771 2.342c-3.725 1.562-7.131 3.836-9.965 6.707a31.074 31.074 0 0 0-6.674 10.013c-1.554 3.743-2.331 7.762-2.331 11.827z" fill="#EEFBFF"/>
        <path d="M116.375 64.1a30.684 30.684 0 0 1-8-9.715 31.152 31.152 0 0 1-3.474-12.103 30.918 30.918 0 0 1 1.623-12.494 30.543 30.543 0 0 1 6.468-10.794 30.714 30.714 0 0 1 10.217-7.303 30.5 30.5 0 0 1 12.273-2.595c4.229 0 8.411.85 12.297 2.526 3.885 1.677 7.36 4.157 10.262 7.257l-41.643 45.243-.023-.023z" fill="#fff"/>
        <path d="M112.518 39.985c0 3.054.594 6.063 1.76 8.865 1.165 2.802 2.856 5.374 5.005 7.51a23.202 23.202 0 0 0 7.474 5.03 22.834 22.834 0 0 0 8.822 1.768c3.017 0 6.034-.598 8.823-1.769 2.788-1.171 5.348-2.87 7.474-5.03a23.35 23.35 0 0 0 5.005-7.51 23.135 23.135 0 0 0 1.76-8.864c0-3.031-.594-6.063-1.76-8.865-1.166-2.802-2.857-5.374-5.005-7.51a23.224 23.224 0 0 0-7.474-5.03 22.843 22.843 0 0 0-8.823-1.767c-3.017 0-6.034.597-8.822 1.768-2.789 1.171-5.348 2.87-7.474 5.03a23.318 23.318 0 0 0-5.005 7.51 23.134 23.134 0 0 0-1.76 8.864z" fill="#D4F3FF"/>
        <path d="M135.58 16.813a23.068 23.068 0 0 0-13.462 4.34c-3.931 2.825-6.857 6.82-8.411 11.414a23.33 23.33 0 0 0-.183 14.193 23.198 23.198 0 0 0 8.091 11.644l31.176-33.852c-2.172-2.434-4.8-4.386-7.771-5.718a23.024 23.024 0 0 0-9.44-2.021z" fill="#F5FBFE"/>
        <path d="M135.586 64.26c-3.2 0-6.308-.62-9.257-1.861a23.946 23.946 0 0 1-7.839-5.26 23.946 23.946 0 0 1-5.234-7.876c-1.212-2.963-1.852-6.086-1.852-9.302 0-3.215.617-6.338 1.852-9.3 1.211-2.963 2.994-5.604 5.234-7.878a23.82 23.82 0 0 1 7.839-5.26c5.897-2.457 12.617-2.457 18.491 0a23.946 23.946 0 0 1 7.839 5.26 23.946 23.946 0 0 1 5.234 7.877c1.212 2.963 1.852 6.086 1.852 9.301a24.02 24.02 0 0 1-1.852 9.302c-1.211 2.962-2.994 5.603-5.234 7.877a23.818 23.818 0 0 1-7.839 5.259c-2.949 1.217-6.057 1.86-9.257 1.86h.023zm0-46.346c-2.903 0-5.714.574-8.388 1.677a22.4 22.4 0 0 0-7.131 4.777 21.549 21.549 0 0 0-4.754 7.165 22.168 22.168 0 0 0 0 16.88 21.782 21.782 0 0 0 4.754 7.165c2.057 2.067 4.434 3.675 7.131 4.777a21.949 21.949 0 0 0 16.799 0 22.399 22.399 0 0 0 7.131-4.777 21.548 21.548 0 0 0 4.754-7.165 22.255 22.255 0 0 0 1.669-8.429c0-2.893-.572-5.741-1.669-8.428a21.782 21.782 0 0 0-4.754-7.165c-2.057-2.067-4.434-3.675-7.131-4.777a21.962 21.962 0 0 0-8.388-1.677l-.023-.023z" fill="#45413C"/>
        <path d="M110.482 40.188c0 13.915 11.255 25.197 25.135 25.197 13.881 0 25.135-11.282 25.135-25.197 0-13.914-11.254-25.196-25.135-25.196-13.88 0-25.135 11.282-25.135 25.196z" fill="#FCA886"/>
        <path opacity=".4" d="M160.301 44.958c-2.573-13.669-15.713-22.657-29.343-20.077-10.163 1.92-18.111 9.889-20.027 20.077-2.613-13.669 6.317-26.872 19.952-29.491 13.635-2.62 26.805 6.333 29.418 20.002a25.218 25.218 0 0 1 0 9.493v-.004z" fill="#fff"/>
        <path fill-rule="evenodd" clip-rule="evenodd" d="M147.901 10.152a32.125 32.125 0 0 0-24.617 0 31.828 31.828 0 0 0-10.428 7 31.984 31.984 0 0 0-6.967 10.48 32.52 32.52 0 0 0-2.446 12.377c0 4.265.831 8.415 2.446 12.355a31.985 31.985 0 0 0 6.967 10.478 32.058 32.058 0 0 0 10.428 7.001 31.907 31.907 0 0 0 12.297 2.457h.023a31.99 31.99 0 0 0 12.296-2.457 31.822 31.822 0 0 0 10.429-7 31.985 31.985 0 0 0 6.967-10.48 32.234 32.234 0 0 0 2.446-12.354c0-4.288-.831-8.438-2.446-12.378a31.984 31.984 0 0 0-6.967-10.478 31.827 31.827 0 0 0-10.428-7.001zm-12.32.347c-3.869 0-7.647.75-11.221 2.25l-.001.001a29.055 29.055 0 0 0-9.525 6.388 29.228 29.228 0 0 0-6.358 9.57 29.657 29.657 0 0 0-2.24 11.278c0 3.888.747 7.684 2.24 11.276v.001a29.228 29.228 0 0 0 6.358 9.57 29.055 29.055 0 0 0 9.525 6.389 29.31 29.31 0 0 0 22.444 0h.001a29.062 29.062 0 0 0 9.524-6.388 29.228 29.228 0 0 0 6.358-9.57 29.657 29.657 0 0 0 2.24-11.278c0-3.888-.747-7.684-2.24-11.276v-.001a29.228 29.228 0 0 0-6.358-9.57 29.062 29.062 0 0 0-9.524-6.389c-3.577-1.478-7.355-2.25-11.223-2.25zM109.6 40.19c0 14.376 11.666 26.076 26.012 26.076 14.34 0 26.011-11.7 26.011-26.076 0-14.376-11.671-26.076-26.011-26.076-14.341 0-26.012 11.7-26.012 26.076zm1.754 0c0-13.41 10.881-24.318 24.258-24.318 13.376 0 24.258 10.909 24.258 24.318 0 13.41-10.882 24.318-24.258 24.318-13.377 0-24.258-10.908-24.258-24.318z" fill="#45413C"/>
        <rect x="131.9" y="19.9" width="8.2" height="27.2" rx="4.1" fill="#fff" stroke="#45413C" stroke-width="1.8"/>
        <circle cx="136" cy="56" r="4.1" fill="#fff" stroke="#45413C" stroke-width="1.8"/>
    </g>
    <defs>
        <clipPath id="0wvi1lwbpa">
            <path fill="#fff" d="M0 0h168v168H0z"/>
        </clipPath>
    </defs>
</svg>
