<svg width="32" height="32" viewBox="0 0 32 32" fill="none" xmlns="http://www.w3.org/2000/svg">
    <g clip-path="url(#n59outc23a)">
        <path d="M16 32c8.8 0 16-7.2 16-16S24.8 0 16 0 0 7.2 0 16s7.2 16 16 16z" fill="#DCDCDC"/>
        <path d="M10.78 19.411v-4.32h10.45v4.32h1.31v-4.32c0-.72-.58-1.31-1.31-1.31H10.78c-.72 0-1.31.58-1.31 1.31v4.32h1.31z" fill="#1E1E1E"/>
        <path d="M21.22 19.29v4.11H10.77v-4.11H9.46v4.11c0 .72.58 1.31 1.31 1.31h10.45c.72 0 1.31-.58 1.31-1.31v-4.11h-1.31zM17.79 7.297h-3.6c-1.16 0-2.11.95-2.11 2.11v4.84h1.31v-4.84c0-.44.36-.8.8-.8h3.61c.44 0 .8.36.8.8v1.15h1.29v-1.15c0-1.16-.95-2.11-2.11-2.11h.01zM15.995 16.888a1.192 1.192 0 1 0 0 2.385 1.192 1.192 0 0 0 0-2.385z" fill="#1E1E1E"/>
        <path d="M15.996 17.254c.36 0 .652.293.652.653v2.925a.653.653 0 0 1-1.305 0v-2.925c0-.36.293-.653.653-.653z" fill="#1E1E1E"/>
    </g>
    <defs>
        <clipPath id="n59outc23a">
            <path fill="#fff" d="M0 0h32v32H0z"/>
        </clipPath>
    </defs>
</svg>
