<?xml version="1.0" encoding="UTF-8"?>
<svg id="Layer_1" data-name="Layer 1" xmlns="http://www.w3.org/2000/svg" viewBox="0 0 48 48">
  <path d="M17.19,32.89c0,.21.08.41.23.56s.35.23.56.23h22.79c.21,0,.41-.08.56-.23.15-.15.23-.35.23-.56V7.35l-6.69-6.68h-16.9c-.1,0-.21.02-.3.06-.1.04-.18.1-.26.17-.07.07-.13.16-.17.26-.04.1-.06.2-.06.3v31.44h.01Z" fill="#e6edf8" stroke-width="0"/>
  <path d="M40.76,34.26h-22.8c-.36,0-.71-.15-.97-.4-.26-.26-.4-.6-.4-.97V1.45c0-.18.04-.36.1-.52.07-.17.17-.32.3-.45.12-.12.27-.22.44-.29.18-.07.35-.11.53-.11h16.9c.15,0,.3.06.41.17l6.68,6.68c.11.11.17.26.17.41v25.54c0,.36-.15.71-.4.97-.26.26-.61.4-.97.4h.01ZM17.96,1.25l-.14.06-.06.14v31.44s.02.1.06.14c.04.04.09.06.14.06h22.79s.11-.02.14-.06c.04-.04.06-.09.06-.14V7.59l-6.34-6.34h-16.65Z" fill="#1d1e1e" stroke-width="0"/>
  <path d="M34.85.67v5.94c0,.19.08.38.21.52.14.14.32.21.52.21h5.95l-6.68-6.67Z" fill="#618fff" stroke-width="0"/>
  <path d="M41.53,7.93h-5.95c-.35,0-.68-.14-.93-.39s-.39-.59-.39-.93V.67c0-.24.14-.45.36-.54.22-.09.47-.04.64.13l6.68,6.68c.17.17.22.42.13.64s-.3.36-.54.36h0ZM35.44,2.08v4.53s.02.08.04.11c.03.03.06.04.1.04h4.53l-4.68-4.68h.01Z" fill="#1d1e1e" stroke-width="0"/>
  <path d="M6.47,39.71c0,.21.08.41.23.56s.35.23.56.23h22.79c.21,0,.41-.08.56-.23.15-.15.23-.35.23-.56V14.17l-6.68-6.68H7.25c-.1,0-.21.02-.3.06-.1.04-.18.1-.26.17-.07.07-.13.16-.17.26s-.06.2-.06.3v31.44h.01Z" fill="#fff" stroke-width="0"/>
  <path d="M30.05,41.08H7.25c-.37,0-.71-.14-.97-.4s-.4-.6-.4-.97V8.27c0-.18.04-.36.1-.52s.17-.32.3-.45.28-.23.44-.3c.17-.07.35-.09.53-.1h16.9c.15,0,.3.06.41.17l6.68,6.68c.11.11.17.26.17.41v25.54c0,.37-.14.71-.4.97-.26.26-.6.4-.97.4h.01ZM7.25,8.07l-.14.06-.06.14v31.44s.02.1.06.14.09.06.14.06h22.8s.1-.02.14-.06c.04-.04.06-.09.06-.14V14.41l-6.34-6.34H7.25Z" fill="#1d1e1e" stroke-width="0"/>
  <path d="M24.13,7.49v5.95c0,.19.08.38.21.52s.32.21.52.21h5.95l-6.68-6.68Z" fill="#c7dbff" stroke-width="0"/>
  <path d="M30.82,14.75h-5.95c-.35,0-.69-.14-.93-.39-.25-.25-.39-.58-.39-.93v-5.94c0-.24.14-.45.36-.54.22-.09.47-.04.64.13l6.68,6.68c.17.17.22.42.13.64s-.3.36-.54.36h0ZM24.71,8.9v4.53s.02.08.04.11c.03.03.07.04.1.04h4.53l-4.68-4.68h0Z" fill="#1d1e1e" stroke-width="0"/>
</svg>