<svg width="20" height="20" viewBox="0 0 20 20" fill="none" xmlns="http://www.w3.org/2000/svg">
    <path fill-rule="evenodd" clip-rule="evenodd" d="M1.2 16.8V4.2h17.6v12.6H1.2zM0 4a1 1 0 0 1 1-1h18a1 1 0 0 1 1 1v13a1 1 0 0 1-1 1H1a1 1 0 0 1-1-1V4zm17 9H3v1.4h14V13zm-2-3.6c0-.22.18-.4.4-.4h1.2c.22 0 .4.18.4.4v1.2a.4.4 0 0 1-.4.4h-1.2a.4.4 0 0 1-.4-.4V9.4zm.4-3.4a.4.4 0 0 0-.4.4v1.2c0 .22.18.4.4.4h1.2a.4.4 0 0 0 .4-.4V6.4a.4.4 0 0 0-.4-.4h-1.2zm-4.4.4c0-.22.18-.4.4-.4h1.2c.22 0 .4.18.4.4v1.2a.4.4 0 0 1-.4.4h-1.2a.4.4 0 0 1-.4-.4V6.4zM3.4 9a.4.4 0 0 0-.4.4v1.2c0 .22.18.4.4.4h1.2a.4.4 0 0 0 .4-.4V9.4a.4.4 0 0 0-.4-.4H3.4zM3 6.4c0-.22.18-.4.4-.4h1.2c.22 0 .4.18.4.4v1.2a.4.4 0 0 1-.4.4H3.4a.4.4 0 0 1-.4-.4V6.4zM7.4 9a.4.4 0 0 0-.4.4v1.2c0 .22.18.4.4.4h1.2a.4.4 0 0 0 .4-.4V9.4a.4.4 0 0 0-.4-.4H7.4zM7 6.4c0-.22.18-.4.4-.4h1.2c.22 0 .4.18.4.4v1.2a.4.4 0 0 1-.4.4H7.4a.4.4 0 0 1-.4-.4V6.4zM11.4 9a.4.4 0 0 0-.4.4v1.2c0 .22.18.4.4.4h1.2a.4.4 0 0 0 .4-.4V9.4a.4.4 0 0 0-.4-.4h-1.2z" fill="#1E1E1E"/>
</svg>
