<?xml version="1.0" encoding="utf-8"?>
<!-- Generator: Adobe Illustrator 26.5.2, SVG Export Plug-In . SVG Version: 6.00 Build 0)  -->
<svg width="32" height="32" version="1.1" id="Layer_1" xmlns="http://www.w3.org/2000/svg" xmlns:xlink="http://www.w3.org/1999/xlink" x="0px" y="0px"
	 viewBox="0 0 32 32" style="enable-background:new 0 0 32 32;" xml:space="preserve">
<style type="text/css">
	.st0{fill:#D9D9D9;}
	.st1{fill-rule:evenodd;clip-rule:evenodd;fill:#1E1E1E;}
</style>
<path class="st0" d="M16,32c8.8,0,16-7.2,16-16S24.8,0,16,0S0,7.2,0,16S7.2,32,16,32z"/>
<g>
	<path class="st1" d="M16,24.8c-4.8,0-8.8-3.9-8.8-8.8s3.9-8.8,8.8-8.8s8.8,3.9,8.8,8.8S20.8,24.8,16,24.8 M16,5.7
		C10.3,5.7,5.7,10.3,5.7,16S10.3,26.3,16,26.3S26.3,21.7,26.3,16S21.7,5.7,16,5.7"/>
	<path class="st1" d="M16.8,15.2V9h-1.5v7.7H23v-1.5H16.8z"/>
</g>
</svg>
