<?xml version="1.0" encoding="UTF-8"?>
<svg id="Layer_1" data-name="Layer 1" xmlns="http://www.w3.org/2000/svg" viewBox="0 0 48 48">
  <path d="M44.15,1.88H3.33C1.66,1.88.3,3.23.3,4.9v32.51c0,1.67,1.35,3.02,3.02,3.02h40.83c1.67,0,3.02-1.35,3.02-3.02V4.9c0-1.67-1.35-3.02-3.02-3.02Z" fill="#e6edf8" stroke-width="0"/>
  <path d="M44.15,1.88H3.33C1.66,1.88.3,3.23.3,4.9v32.51c0,1.67,1.35,3.02,3.02,3.02h40.83c1.67,0,3.02-1.35,3.02-3.02V4.9c0-1.67-1.35-3.02-3.02-3.02Z" fill="#fff" stroke-width="0"/>
  <path d="M44.15,41H3.33c-1.98,0-3.59-1.61-3.59-3.59V4.9C-.26,2.92,1.35,1.32,3.33,1.32h40.82c1.98,0,3.59,1.61,3.59,3.59v32.5c0,1.98-1.61,3.59-3.59,3.59ZM3.33,2.44c-1.36,0-2.46,1.1-2.46,2.46v32.51c0,1.36,1.1,2.46,2.46,2.46h40.82c1.36,0,2.46-1.1,2.46-2.46V4.9c0-1.36-1.1-2.46-2.46-2.46H3.33Z" fill="#1d1e1e" stroke-width="0"/>
  <path d="M44.15,1.88H3.33c-.8,0-1.57.32-2.14.89-.57.57-.89,1.34-.89,2.14v6.05h46.88v-6.06c0-.4-.08-.79-.23-1.16-.15-.37-.37-.7-.66-.98-.28-.28-.61-.5-.98-.66-.37-.15-.76-.23-1.16-.23h0Z" fill="#e6edf8" stroke-width="0"/>
  <path d="M47.18,11.51H.3c-.31,0-.56-.25-.56-.56v-6.05C-.26,3.94.11,3.04.79,2.36c.68-.68,1.58-1.05,2.54-1.05h40.82c.47,0,.93.09,1.37.27.44.18.83.44,1.16.78s.6.73.78,1.16c.18.44.27.9.27,1.37v6.05c0,.31-.25.56-.56.56h.01ZM.86,10.39h45.76v-5.49c0-.33-.06-.64-.19-.94-.12-.3-.3-.57-.53-.8s-.5-.41-.8-.53-.62-.19-.94-.19H3.33c-.66,0-1.28.26-1.74.72s-.72,1.08-.72,1.74v5.49h0Z" fill="#1d1e1e" stroke-width="0"/>
  <path d="M4.84,7.93c.84,0,1.51-.68,1.51-1.51s-.68-1.51-1.51-1.51-1.51.68-1.51,1.51.68,1.51,1.51,1.51Z" fill="#618fff" stroke-width="0"/>
  <path d="M4.84,8.49c-1.14,0-2.07-.93-2.07-2.07s.93-2.07,2.07-2.07,2.07.93,2.07,2.07-.93,2.07-2.07,2.07ZM4.84,5.47c-.52,0-.95.43-.95.95s.43.95.95.95.95-.43.95-.95-.43-.95-.95-.95Z" fill="#1d1e1e" stroke-width="0"/>
  <path d="M10.89,7.93c.84,0,1.51-.68,1.51-1.51s-.68-1.51-1.51-1.51-1.51.68-1.51,1.51.68,1.51,1.51,1.51Z" fill="#618fff" stroke-width="0"/>
  <path d="M10.89,8.49c-1.14,0-2.07-.93-2.07-2.07s.93-2.07,2.07-2.07,2.07.93,2.07,2.07-.93,2.07-2.07,2.07ZM10.89,5.47c-.52,0-.95.43-.95.95s.43.95.95.95.95-.43.95-.95-.43-.95-.95-.95Z" fill="#1d1e1e" stroke-width="0"/>
  <path d="M16.94,7.93c.84,0,1.51-.68,1.51-1.51s-.68-1.51-1.51-1.51-1.51.68-1.51,1.51.68,1.51,1.51,1.51Z" fill="#c7dbff" stroke-width="0"/>
  <path d="M16.94,8.49c-1.14,0-2.07-.93-2.07-2.07s.93-2.07,2.07-2.07,2.07.93,2.07,2.07-.93,2.07-2.07,2.07ZM16.94,5.47c-.52,0-.95.43-.95.95s.43.95.95.95.95-.43.95-.95-.43-.95-.95-.95Z" fill="#1d1e1e" stroke-width="0"/>
  <path d="M13.11,25.7c0,2.82,1.12,5.52,3.11,7.52,1.99,1.99,4.7,3.11,7.52,3.11s5.52-1.12,7.52-3.11c1.99-1.99,3.11-4.7,3.11-7.52s-1.12-5.52-3.11-7.52c-1.99-1.99-4.7-3.11-7.52-3.11s-5.52,1.12-7.52,3.11c-1.99,1.99-3.11,4.7-3.11,7.52h0Z" fill="#e6edf8" stroke-width="0"/>
  <path d="M13.32,27.78c-.31-1.54-.27-3.12.11-4.65.38-1.52,1.09-2.94,2.08-4.15.99-1.21,2.24-2.19,3.66-2.87,1.42-.67,2.96-1.03,4.53-1.03s3.12.33,4.54,1c1.42.66,2.68,1.63,3.68,2.84,1,1.21,1.73,2.62,2.12,4.14.39,1.52.44,3.1.15,4.64-.47-2.42-1.78-4.61-3.69-6.17-1.91-1.57-4.31-2.42-6.78-2.41-2.47.01-4.86.88-6.76,2.46-1.9,1.58-3.18,3.78-3.64,6.2" fill="#fff" stroke-width="0"/>
  <path d="M23.74,36.95c-3,0-5.83-1.17-7.95-3.29-2.12-2.13-3.29-4.95-3.29-7.95s1.17-5.83,3.29-7.95c2.12-2.12,4.95-3.29,7.95-3.29s5.83,1.17,7.95,3.29c2.12,2.12,3.29,4.95,3.29,7.95s-1.17,5.83-3.29,7.95c-2.12,2.12-4.95,3.29-7.95,3.29ZM23.74,15.69c-2.67,0-5.19,1.04-7.08,2.93-1.89,1.89-2.93,4.4-2.93,7.08s1.04,5.19,2.93,7.08c1.89,1.89,4.4,2.93,7.08,2.93s5.19-1.04,7.08-2.93c1.89-1.89,2.93-4.4,2.93-7.08s-1.04-5.19-2.93-7.08c-1.89-1.89-4.4-2.93-7.08-2.93Z" fill="#1d1e1e" stroke-width="0"/>
  <path d="M29.28,24.17h-4v-3.99c0-.85-.69-1.55-1.55-1.55s-1.55.69-1.55,1.55v3.99h-3.99c-.85,0-1.55.69-1.55,1.55s.69,1.55,1.55,1.55h3.99v3.99c0,.85.69,1.55,1.55,1.55s1.55-.69,1.55-1.55v-3.99h4c.85,0,1.55-.69,1.55-1.55s-.69-1.55-1.55-1.55Z" fill="#618fff" stroke-width="0"/>
  <path d="M23.74,33.35c-1.16,0-2.1-.94-2.1-2.1v-3.44h-3.44c-1.16,0-2.09-.94-2.09-2.1s.94-2.1,2.09-2.1h3.44v-3.44c0-1.16.94-2.1,2.1-2.1s2.1.94,2.1,2.1v3.44h3.45c1.16,0,2.1.94,2.1,2.1s-.94,2.1-2.1,2.1h-3.45v3.44c0,1.16-.94,2.1-2.1,2.1ZM18.2,24.72c-.55,0-1,.45-1,1s.45,1,1,1h4.54v4.54c0,.55.45,1,1,1s1-.45,1-1v-4.54h4.54c.55,0,1-.45,1-1s-.45-1-1-1h-4.54v-4.54c0-.55-.45-1-1-1s-1,.45-1,1v4.54h-4.54Z" fill="#1d1e1e" stroke-width="0"/>
</svg>