<?xml version="1.0" encoding="UTF-8"?>
<svg id="Layer_1" data-name="Layer 1" xmlns="http://www.w3.org/2000/svg" viewBox="0 0 48 48">
  <path d="M8.95,21.5c-.29,0-.56.11-.76.31-.2.2-.31.48-.31.76v17.75h32.26v-17.74c0-.29-.11-.56-.32-.76-.2-.2-.48-.31-.76-.31H8.95Z" fill="#fff" stroke-width="0"/>
  <path d="M8.95,21.5c-.29,0-.56.11-.76.31-.2.2-.31.48-.31.76v1.08h32.26v-1.08c0-.29-.11-.56-.32-.76-.2-.2-.48-.31-.76-.31H8.95Z" fill="#fff" stroke-width="0"/>
  <path d="M40.13,40.81H7.87c-.27,0-.49-.22-.49-.49v-17.75c0-.42.16-.81.46-1.11.3-.3.69-.46,1.11-.46h30.11c.41,0,.82.17,1.11.46.3.3.46.69.46,1.11v17.75c0,.27-.22.49-.49.49ZM8.37,39.82h31.27v-17.25c0-.15-.06-.3-.17-.41s-.26-.17-.41-.17H8.95c-.15,0-.3.06-.41.17s-.17.26-.17.41v17.25Z" fill="#1d1e1e" stroke-width="0"/>
  <path d="M30.45,40.32h-12.91V15.96c0-1.71.68-3.35,1.89-4.56,1.21-1.21,2.85-1.89,4.56-1.89s3.35.68,4.56,1.89c1.21,1.21,1.89,2.85,1.89,4.56v24.36h.01Z" fill="#fff" stroke-width="0"/>
  <path d="M23.99,9.49c-.85,0-1.69.17-2.47.5-.78.33-1.5.8-2.09,1.4-.6.6-1.07,1.31-1.4,2.1s-.49,1.63-.49,2.47v2.69c0-1.71.68-3.35,1.89-4.56,1.21-1.21,2.85-1.89,4.56-1.89s3.35.68,4.56,1.89c1.21,1.21,1.89,2.85,1.89,4.56v-2.69c0-.85-.16-1.69-.49-2.47-.32-.78-.8-1.5-1.4-2.1-.6-.6-1.31-1.08-2.09-1.4-.78-.33-1.62-.49-2.47-.5Z" fill="#fff" stroke-width="0"/>
  <path d="M30.45,40.81h-12.91c-.27,0-.49-.22-.49-.49V15.96c0-1.86.72-3.6,2.03-4.91,1.31-1.31,3.06-2.04,4.91-2.04s3.6.72,4.91,2.04c1.31,1.31,2.04,3.06,2.04,4.91v24.36c0,.27-.22.49-.49.49h0ZM18.05,39.82h11.92V15.96c0-1.59-.62-3.09-1.75-4.21-1.12-1.13-2.62-1.75-4.21-1.75s-3.09.62-4.21,1.75c-1.13,1.13-1.74,2.62-1.74,4.21v23.87h0Z" fill="#1d1e1e" stroke-width="0"/>
  <path d="M10.56,24.73h4.3v4.3h-4.3v-4.3Z" fill="#e6edf8" stroke-width="0"/>
  <path d="M13.79,24.73h-2.15c-.29,0-.56.11-.76.31-.2.2-.31.48-.31.76v2.15c0,.23.08.45.22.64l3.66-3.66c-.19-.14-.41-.21-.65-.21h0Z" fill="#fff" stroke-width="0"/>
  <path d="M14.86,29.53h-4.3c-.27,0-.49-.22-.49-.49v-4.3c0-.27.22-.49.49-.49h4.3c.27,0,.49.22.49.49v4.3c0,.27-.22.49-.49.49ZM11.05,28.54h3.31v-3.31h-3.31v3.31Z" fill="#1d1e1e" stroke-width="0"/>
  <path d="M20.24,16.13c0,1,.4,1.96,1.1,2.66.71.71,1.66,1.1,2.66,1.1s1.96-.4,2.66-1.1,1.1-1.66,1.1-2.66-.4-1.96-1.1-2.66c-.71-.71-1.66-1.1-2.66-1.1s-1.96.4-2.66,1.1c-.71.71-1.1,1.66-1.1,2.66h0Z" fill="#fff" stroke-width="0"/>
  <path d="M23.99,20.39c-1.14,0-2.21-.44-3.01-1.25s-1.25-1.87-1.25-3.01.44-2.21,1.25-3.01c.8-.8,1.87-1.25,3.01-1.25s2.21.44,3.01,1.25,1.25,1.87,1.25,3.01-.44,2.21-1.25,3.01c-.8.8-1.87,1.25-3.01,1.25ZM23.99,12.86c-.87,0-1.69.34-2.31.96-.62.62-.96,1.44-.96,2.31s.34,1.69.96,2.31c.62.62,1.44.96,2.31.96s1.69-.34,2.31-.96.96-1.44.96-2.31-.34-1.69-.96-2.31c-.62-.62-1.44-.96-2.31-.96Z" fill="#1d1e1e" stroke-width="0"/>
  <path d="M25.29,18.03c-.13,0-.25-.05-.35-.14l-1.29-1.29c-.09-.09-.14-.22-.14-.35v-1.94c0-.27.22-.49.49-.49s.49.22.49.49v1.74l1.15,1.15c.19.19.19.51,0,.7-.1.1-.22.14-.35.14h0Z" fill="#1d1e1e" stroke-width="0"/>
  <path d="M17.55,23.66h12.91v3.79h-12.91v-3.79Z" fill="#e6edf8" stroke-width="0"/>
  <path d="M25.68,23.66h-8.14v3.79h4.36l3.79-3.79h0Z" fill="#fff" stroke-width="0"/>
  <path d="M30.45,27.94h-12.91c-.27,0-.49-.22-.49-.49v-3.79c0-.27.22-.49.49-.49h12.91c.27,0,.49.22.49.49v3.79c0,.27-.22.49-.49.49ZM18.05,26.95h11.92v-2.8h-11.92v2.8Z" fill="#1d1e1e" stroke-width="0"/>
  <path d="M26.68,27.94h-5.38c-.27,0-.49-.22-.49-.49v-3.79c0-.27.22-.49.49-.49h5.38c.27,0,.49.22.49.49v3.79c0,.27-.22.49-.49.49ZM21.81,26.95h4.39v-2.8h-4.39v2.8Z" fill="#1d1e1e" stroke-width="0"/>
  <path d="M23.99,9.99c-.27,0-.49-.22-.49-.49V.31c0-.27.22-.49.49-.49s.49.22.49.49v9.18c0,.27-.22.49-.49.49h0Z" fill="#1d1e1e" stroke-width="0"/>
  <path d="M23.99,5.49l5.18-2.59L23.99.31v5.18Z" fill="#618fff" stroke-width="0"/>
  <path d="M23.99,5.99c-.09,0-.18-.02-.26-.07-.15-.09-.23-.25-.23-.42V.31c0-.17.09-.33.23-.42.15-.09.33-.1.48-.02l5.18,2.59c.17.08.27.26.27.44s-.11.36-.27.44l-5.18,2.59c-.07.04-.15.05-.22.05h0ZM24.48,1.12v3.58l3.57-1.79-3.57-1.79Z" fill="#1d1e1e" stroke-width="0"/>
  <path d="M10.56,32.8h4.3v4.3h-4.3v-4.3Z" fill="#e6edf8" stroke-width="0"/>
  <path d="M13.79,32.8h-2.15c-.29,0-.56.11-.76.31s-.31.48-.31.76v2.15c0,.23.08.45.22.64l3.66-3.66c-.19-.14-.41-.21-.65-.21h0Z" fill="#fff" stroke-width="0"/>
  <path d="M14.86,37.58h-4.3c-.27,0-.49-.22-.49-.49v-4.3c0-.27.22-.49.49-.49h4.3c.27,0,.49.22.49.49v4.3c0,.27-.22.49-.49.49ZM11.05,36.59h3.31v-3.31h-3.31v3.31Z" fill="#1d1e1e" stroke-width="0"/>
  <path d="M33.14,24.73h4.3v4.3h-4.3v-4.3Z" fill="#e6edf8" stroke-width="0"/>
  <path d="M36.36,24.73h-2.15c-.29,0-.56.11-.76.31-.2.2-.32.48-.32.76v2.15c0,.23.07.45.21.64l3.66-3.66c-.19-.14-.41-.21-.64-.21h0Z" fill="#fff" stroke-width="0"/>
  <path d="M37.44,29.53h-4.3c-.27,0-.49-.22-.49-.49v-4.3c0-.27.22-.49.49-.49h4.3c.27,0,.49.22.49.49v4.3c0,.27-.22.49-.49.49ZM33.63,28.54h3.31v-3.31h-3.31v3.31Z" fill="#1d1e1e" stroke-width="0"/>
  <path d="M33.14,32.8h4.3v4.3h-4.3v-4.3Z" fill="#e6edf8" stroke-width="0"/>
  <path d="M36.36,32.8h-2.15c-.29,0-.56.11-.76.31-.2.2-.32.48-.32.76v2.15c0,.23.07.45.21.64l3.66-3.66c-.19-.14-.41-.21-.64-.21h0Z" fill="#fff" stroke-width="0"/>
  <path d="M37.44,37.58h-4.3c-.27,0-.49-.22-.49-.49v-4.3c0-.27.22-.49.49-.49h4.3c.27,0,.49.22.49.49v4.3c0,.27-.22.49-.49.49ZM33.63,36.59h3.31v-3.31h-3.31v3.31Z" fill="#1d1e1e" stroke-width="0"/>
  <path d="M24,31.91c-.86,0-1.68.34-2.29.95s-.95,1.43-.95,2.29v5.18h6.47v-5.18c0-.86-.34-1.68-.95-2.29-.61-.61-1.43-.95-2.29-.95h0Z" fill="#e6edf8" stroke-width="0"/>
  <path d="M26.54,33.14c-.42-.53-.99-.91-1.63-1.1s-1.33-.17-1.97.05c-.63.22-1.18.63-1.57,1.18s-.6,1.2-.6,1.87v3.76l5.77-5.77h0Z" fill="#fff" stroke-width="0"/>
  <path d="M27.24,40.81h-6.47c-.27,0-.49-.22-.49-.49v-5.18c0-1,.39-1.93,1.09-2.64.71-.7,1.64-1.09,2.64-1.09s1.93.39,2.64,1.09c.7.7,1.09,1.64,1.09,2.64v5.18c0,.27-.22.49-.49.49h0ZM21.27,39.82h5.48v-4.68c0-.73-.29-1.42-.8-1.94-1.04-1.03-2.84-1.03-3.88,0-.52.52-.8,1.21-.8,1.94v4.68Z" fill="#1d1e1e" stroke-width="0"/>
</svg>