<?xml version="1.0" encoding="UTF-8"?>
<svg id="Layer_1" data-name="Layer 1" xmlns="http://www.w3.org/2000/svg" viewBox="0 0 48 48">
  <rect x="9.96" y="11.91" width="28.09" height="26.54" fill="#e3cceb" stroke-width="0"/>
  <rect x="5.27" y="11.69" width="37.45" height="26.54" rx="2.72" ry="2.72" fill="#f1eaf3" stroke-width="0"/>
  <path d="M16.2,10.35v-3.14c0-2.57,2.09-4.66,4.66-4.66h6.29c2.57,0,4.66,2.09,4.66,4.66v3.14h-3.12v-3.13c0-.86-.69-1.55-1.55-1.55h-6.26c-.86,0-1.55.69-1.55,1.55h0v3.13h-3.12Z" fill="#fff" stroke-width="0"/>
  <path d="M31.8,10.84h-3.12c-.27,0-.49-.22-.49-.49v-3.13c0-.59-.48-1.06-1.06-1.06h-6.26c-.28,0-.55.11-.75.31-.2.2-.31.47-.31.75v3.13c0,.27-.22.49-.49.49h-3.12c-.27,0-.49-.22-.49-.49v-3.14c0-2.84,2.31-5.14,5.14-5.14h6.29c2.84,0,5.14,2.31,5.14,5.14v3.14c0,.27-.22.49-.49.49ZM29.17,9.87h2.15v-2.66c0-2.3-1.87-4.17-4.17-4.17h-6.29c-2.3,0-4.17,1.87-4.17,4.17v2.66h2.15v-2.64c0-.55.21-1.06.6-1.44.39-.38.9-.6,1.44-.6h6.26c1.13,0,2.04.92,2.04,2.04v2.64Z" fill="#1d1e1e" stroke-width="0"/>
  <path d="M20.1,11.91h-4.68v-1.82c0-.72.58-1.3,1.3-1.3,0,0,0,0,0,0h2.08c.72,0,1.3.58,1.3,1.3v1.82ZM32.58,11.91h-4.68v-1.82c0-.72.58-1.3,1.3-1.3h2.08c.72,0,1.3.58,1.3,1.3v1.82Z" fill="#702f8a" stroke-width="0"/>
  <path d="M32.58,12.4h-4.68c-.27,0-.49-.22-.49-.49v-1.82c0-.99.8-1.79,1.79-1.79h2.08c.99,0,1.79.8,1.79,1.79v1.82c0,.13-.05.25-.14.35-.09.09-.22.14-.35.14ZM28.39,11.43h3.71v-1.33c0-.45-.37-.81-.81-.81h-2.08c-.45,0-.81.36-.81.81v1.33ZM20.1,12.4h-4.68c-.27,0-.49-.22-.49-.49v-1.82c0-.99.8-1.79,1.79-1.79h2.08c.99,0,1.79.8,1.79,1.79v1.82c0,.27-.22.49-.49.49ZM15.91,11.43h3.71v-1.33c0-.45-.36-.81-.81-.81h-2.08c-.45,0-.82.36-.82.81v1.33Z" fill="#1d1e1e" stroke-width="0"/>
  <path d="M39.66,11.91h1.31c.74,0,1.33.6,1.33,1.33v23.59c0,.89-.72,1.62-1.62,1.62h-1.03c-.89,0-1.62-.72-1.62-1.62V13.53c0-.89.72-1.62,1.62-1.62Z" fill="#9c59b2" stroke-width="0"/>
  <path d="M6.9,12.03h2.09c.52,0,.94.42.94.94v24.37c0,.68-.55,1.23-1.23,1.23h-1.81c-.68,0-1.23-.55-1.23-1.23V13.26c0-.68.55-1.23,1.23-1.23Z" fill="#9c59b2" stroke-width="0"/>
  <path d="M40.01,38.94H7.99c-1.77,0-3.2-1.44-3.2-3.2V14.63c0-1.77,1.44-3.2,3.2-3.2h32.02c1.77,0,3.2,1.44,3.2,3.2v21.1c0,1.77-1.44,3.2-3.2,3.2ZM7.99,12.4c-1.23,0-2.23,1-2.23,2.23v21.1c0,1.23,1,2.23,2.23,2.23h32.02c1.23,0,2.23-1,2.23-2.23V14.63c0-1.23-1-2.23-2.23-2.23H7.99Z" fill="#1d1e1e" stroke-width="0"/>
  <polygon points="9.94 12.15 37.79 12.15 9.96 38.45 9.94 12.15" fill="#fff" stroke-width="0"/>
  <path d="M38.53,38.45h-.98V11.91h.98v26.54ZM10.44,38.45h-.98V11.91h.98v26.54Z" fill="#1d1e1e" stroke-width="0"/>
</svg>