<svg width="16" height="16" viewBox="0 0 16 16" fill="none" xmlns="http://www.w3.org/2000/svg">
<mask id="path-1-inside-1_12808_367990" fill="white">
<path fill-rule="evenodd" clip-rule="evenodd" d="M16 8C16 12.4183 12.4183 16 8 16C3.58175 16 0 12.4183 0 8C0 3.58175 3.58175 0 8 0C12.4183 0 16 3.58175 16 8Z"/>
</mask>
<path d="M14.4 8C14.4 11.5346 11.5346 14.4 8 14.4V17.6C13.3019 17.6 17.6 13.3019 17.6 8H14.4ZM8 14.4C4.46541 14.4 1.6 11.5346 1.6 8H-1.6C-1.6 13.3019 2.69809 17.6 8 17.6V14.4ZM1.6 8C1.6 4.46541 4.46541 1.6 8 1.6V-1.6C2.69809 -1.6 -1.6 2.69809 -1.6 8H1.6ZM8 1.6C11.5346 1.6 14.4 4.46541 14.4 8H17.6C17.6 2.69809 13.3019 -1.6 8 -1.6V1.6Z" fill="#324dc7" mask="url(#path-1-inside-1_12808_367990)"/>
<path d="M11 8L6.5 11.4641L6.5 4.5359L11 8Z" fill="#324dc7"/>
</svg>
