<?xml version="1.0" encoding="UTF-8"?>
<svg id="Layer_1" data-name="Layer 1" xmlns="http://www.w3.org/2000/svg" viewBox="0 0 48 48">
  <path d="M22.22,6.54h7.28v14.56h-7.28V6.54Z" fill="#fff" stroke-width="0"/>
  <path d="M29.5,21.58h-7.28c-.27,0-.48-.22-.48-.48V6.54c0-.27.22-.48.48-.48h7.28c.27,0,.48.22.48.48v14.56c0,.27-.22.48-.48.48ZM22.7,20.62h6.32V7.02h-6.32v13.6Z" fill="#1d1e1e" stroke-width="0"/>
  <path d="M23.44,6.54h4.85v-3.64c0-.64-.26-1.26-.71-1.72-.46-.45-1.07-.71-1.72-.71s-1.26.26-1.72.71c-.45.45-.71,1.07-.71,1.72v3.64h0Z" fill="#702f8a" stroke-width="0"/>
  <path d="M28.29,7.02h-4.85c-.27,0-.48-.22-.48-.48v-3.64c0-.77.31-1.51.85-2.05C24.35.31,25.1,0,25.86,0s1.51.3,2.05.85c.54.55.85,1.29.85,2.05v3.64c0,.27-.22.48-.48.48h.01ZM23.92,6.06h3.89v-3.16c0-.51-.21-1.01-.57-1.38-.73-.73-2.02-.73-2.75,0-.36.36-.57.86-.57,1.38v3.16Z" fill="#1d1e1e" stroke-width="0"/>
  <path d="M22.23,10.17v6.06c-1.32,0-2.61.43-3.66,1.23-1.05.8-1.82,1.92-2.18,3.19s-.29,2.63.19,3.86c.48,1.23,1.35,2.27,2.48,2.96-.51.25-.93.64-1.23,1.12s-.45,1.03-.45,1.6v3.23c-2.56-1.11-4.66-3.07-5.94-5.55-1.28-2.48-1.67-5.32-1.1-8.06.57-2.73,2.06-5.18,4.23-6.94s4.87-2.72,7.67-2.71h-.01Z" fill="#fff" stroke-width="0"/>
  <path d="M17.37,33.91c-.06,0-.13-.01-.19-.04-2.65-1.15-4.85-3.2-6.18-5.77s-1.74-5.54-1.15-8.37c.59-2.83,2.15-5.4,4.4-7.22,2.24-1.82,5.06-2.82,7.94-2.82.26,0,.5.21.5.48v6.07c0,.13-.05.25-.14.34s-.21.14-.34.14h0c-1.22-.01-2.41.4-3.37,1.13-.97.73-1.68,1.77-2.01,2.94-.33,1.16-.27,2.43.17,3.55.44,1.13,1.25,2.1,2.28,2.73.15.09.24.26.23.43,0,.17-.11.33-.27.41-.43.21-.78.54-1.03.94s-.38.87-.38,1.35v3.24c0,.16-.08.31-.22.4-.08.05-.17.08-.26.08h.02ZM21.74,10.66c-2.5.1-4.93,1.01-6.88,2.59-2.08,1.68-3.52,4.05-4.06,6.67-.55,2.62-.17,5.36,1.06,7.74,1.11,2.15,2.89,3.91,5.04,5.01v-2.48c0-.65.18-1.29.52-1.85.21-.34.47-.63.78-.88-.92-.72-1.64-1.68-2.07-2.77-.52-1.32-.59-2.8-.2-4.16s1.22-2.59,2.35-3.44c1-.76,2.22-1.21,3.47-1.31v-5.11h-.01Z" fill="#1d1e1e" stroke-width="0"/>
  <path d="M23.44,30.2c0-.4-.08-.79-.23-1.16-.15-.37-.38-.7-.66-.98-.28-.28-.62-.51-.98-.66-.37-.15-.76-.23-1.16-.23h15.77c.47.02.92.22,1.24.56.33.34.51.79.51,1.26s-.18.92-.51,1.26c-.33.34-.77.54-1.24.56h-12.74v-.61Z" fill="#9c59b2" stroke-width="0"/>
  <path d="M23.44,31.28c-.27,0-.48-.22-.48-.48v-.6c0-.34-.06-.67-.19-.98-.13-.31-.32-.59-.55-.83-.24-.24-.52-.42-.83-.55s-.64-.19-.98-.19c-.27,0-.48-.22-.48-.48s.22-.48.48-.48h15.77c.62.02,1.17.27,1.59.7.41.43.64,1,.64,1.6s-.23,1.16-.64,1.6c-.41.43-.97.68-1.57.7h-12.76ZM23.92,30.32h12.26c.33-.01.65-.16.9-.41.24-.25.37-.58.37-.93s-.13-.68-.37-.93c-.24-.25-.57-.4-.91-.41h-13.34l.07.07c.33.33.58.71.76,1.14s.27.88.27,1.34v.12h-.01Z" fill="#1d1e1e" stroke-width="0"/>
  <path d="M17.37,30.2c-.01-.41.06-.81.2-1.19.15-.38.37-.72.65-1.01.28-.29.62-.52,1-.68.37-.16.78-.24,1.18-.24s.81.08,1.18.24.71.39,1,.68c.28.29.5.64.65,1.01.15.38.22.78.2,1.19v5.46h-6.06v-5.46Z" fill="#fff" stroke-width="0"/>
  <path d="M23.44,36.14h-6.06c-.27,0-.48-.22-.48-.48v-5.45c-.01-.47.07-.93.24-1.37s.43-.84.75-1.18c.33-.34.72-.6,1.15-.79.87-.37,1.87-.37,2.74,0,.44.18.82.45,1.15.79s.58.73.75,1.18c.17.44.25.9.24,1.38v5.44c0,.27-.21.48-.48.48ZM17.86,35.18h5.1v-4.98c.01-.36-.05-.69-.17-1.01s-.31-.61-.55-.85c-.24-.25-.52-.44-.84-.57-.63-.27-1.36-.27-1.99,0-.32.13-.6.33-.84.57-.24.25-.42.53-.55.85-.12.32-.18.66-.17,1h0v4.99h.01Z" fill="#1d1e1e" stroke-width="0"/>
  <path d="M13.73,40.51h18.2c0-1.29-.51-2.52-1.42-3.43s-2.14-1.42-3.43-1.42h-8.49c-1.29,0-2.52.51-3.43,1.42s-1.42,2.14-1.42,3.43h-.01Z" fill="#fff" stroke-width="0"/>
  <path d="M31.93,40.99H13.73c-.27,0-.48-.22-.48-.48,0-1.42.55-2.76,1.56-3.77,1.01-1.01,2.35-1.56,3.77-1.56h8.49c1.42,0,2.76.55,3.77,1.56,1.01,1.01,1.56,2.35,1.56,3.77,0,.27-.22.48-.48.48h.01ZM14.24,40.03h17.18c-.11-.99-.54-1.9-1.25-2.61-.83-.83-1.92-1.28-3.09-1.28h-8.49c-1.17,0-2.27.45-3.09,1.28-.71.71-1.15,1.62-1.25,2.61h-.01Z" fill="#1d1e1e" stroke-width="0"/>
  <path d="M25.86,24c-.27,0-.48-.22-.48-.48v-2.43c0-.27.22-.48.48-.48s.48.22.48.48v2.43c0,.27-.22.48-.48.48Z" fill="#1d1e1e" stroke-width="0"/>
  <rect x="22.22" y="6.54" width="3.64" height="14.56" fill="#f1eaf3" stroke-width="0"/>
  <path d="M22.23,6.54h7.28v14.56h-7.28V6.54Z" fill="none" stroke-width="0"/>
  <path d="M29.51,21.58h-7.28c-.27,0-.48-.22-.48-.48V6.54c0-.27.22-.48.48-.48h7.28c.27,0,.48.22.48.48v14.56c0,.27-.22.48-.48.48ZM22.71,20.62h6.32V7.02h-6.32v13.6Z" fill="#1d1e1e" stroke-width="0"/>
  <path d="M20.41,26.87h0v8.4h-3.04v-5.36c0-1.68,1.36-3.04,3.04-3.04Z" fill="#f1eaf3" stroke-width="0"/>
  <path d="M17.37,30.2c-.01-.41.06-.81.2-1.19.15-.38.37-.72.65-1.01.28-.29.62-.52,1-.68.37-.16.78-.24,1.18-.24s.81.08,1.18.24.71.39,1,.68c.28.29.5.64.65,1.01.15.38.22.78.2,1.19v5.46h-6.06v-5.46Z" fill="none" stroke-width="0"/>
  <path d="M23.44,36.14h-6.06c-.27,0-.48-.22-.48-.48v-5.45c-.01-.47.07-.93.24-1.37s.43-.84.75-1.18c.33-.34.72-.6,1.15-.79.87-.37,1.87-.37,2.74,0,.44.18.82.45,1.15.79s.58.73.75,1.18c.17.44.25.9.24,1.38v5.44c0,.27-.21.48-.48.48ZM17.86,35.18h5.1v-4.98c.01-.36-.05-.69-.17-1.01s-.31-.61-.55-.85c-.24-.25-.52-.44-.84-.57-.63-.27-1.36-.27-1.99,0-.32.13-.6.33-.84.57-.24.25-.42.53-.55.85-.12.32-.18.66-.17,1h0v4.99h.01Z" fill="#1d1e1e" stroke-width="0"/>
</svg>