<?xml version="1.0" encoding="UTF-8"?>
<svg id="Layer_1" data-name="Layer 1" xmlns="http://www.w3.org/2000/svg" viewBox="0 0 48 48">
  <path d="M8.46.59h31.08c.73,0,1.45.14,2.12.42.67.28,1.29.69,1.8,1.2.52.52.92,1.13,1.2,1.8.28.67.42,1.4.42,2.12v20c0,1.47-.58,2.88-1.63,3.93-1.04,1.04-2.45,1.63-3.93,1.63h-2.48l1.35,7.42c.04.21,0,.44-.07.64-.09.2-.23.37-.41.49-.18.12-.4.18-.61.18s-.43-.07-.61-.19l-12.81-8.54h-15.43c-1.47,0-2.88-.58-3.92-1.63-1.04-1.04-1.63-2.45-1.63-3.92V6.14c0-1.47.58-2.88,1.63-3.93,1.04-1.04,2.45-1.63,3.93-1.63h0Z" fill="#fff" stroke-width="0"/>
  <path d="M37.32,41h0c-.33,0-.66-.1-.94-.28l-12.66-8.45h-15.26c-1.64,0-3.18-.64-4.34-1.8-1.16-1.16-1.8-2.7-1.8-4.34V6.14c0-1.64.64-3.18,1.8-4.34C5.28.64,6.84,0,8.46,0h31.08c.81,0,1.6.16,2.35.47.75.31,1.42.76,1.99,1.33s1.02,1.24,1.33,1.99.47,1.54.47,2.35v19.99c0,1.64-.64,3.18-1.8,4.34s-2.7,1.8-4.34,1.8h-1.77l1.22,6.72c.06.33.02.67-.11.97-.13.31-.35.57-.63.75-.28.18-.6.28-.93.28h-.01ZM8.46,1.18c-1.31,0-2.58.53-3.51,1.45-.94.94-1.45,2.18-1.45,3.51v19.99c0,1.32.52,2.57,1.45,3.51.94.94,2.18,1.45,3.51,1.45h15.44c.12,0,.23.03.33.1l12.81,8.54c.08.06.18.09.28.09h0c.1,0,.2-.03.29-.08.09-.06.15-.14.19-.23.04-.09.05-.2.03-.3l-1.35-7.42c-.03-.17,0-.35.13-.48.11-.13.28-.21.45-.21h2.48c1.33,0,2.57-.52,3.51-1.45s1.45-2.18,1.45-3.51V6.14c0-.65-.13-1.29-.38-1.9-.25-.61-.61-1.15-1.08-1.61-.46-.46-1-.82-1.61-1.08-.6-.25-1.24-.38-1.9-.38H8.46Z" fill="#1d1e1e" stroke-width="0"/>
  <path d="M37.32,40.99h0c-.33,0-.66-.1-.94-.28l-12.66-8.45h-15.26c-1.64,0-3.18-.64-4.34-1.8s-1.8-2.7-1.8-4.34V6.14c0-1.64.64-3.18,1.8-4.34,1.16-1.16,2.72-1.8,4.34-1.8h31.08c.81,0,1.6.16,2.35.47.75.31,1.42.76,1.99,1.33s1.02,1.24,1.33,1.99.47,1.54.47,2.35v19.99c0,1.64-.64,3.18-1.8,4.34-1.16,1.16-2.7,1.8-4.34,1.8h-1.77l1.22,6.72c.06.33.02.67-.11.97-.13.31-.35.57-.63.75-.28.18-.6.28-.93.28h-.01ZM8.46,1.18c-1.31,0-2.58.53-3.51,1.45-.94.94-1.45,2.18-1.45,3.51v19.99c0,1.32.52,2.57,1.45,3.51.94.94,2.18,1.45,3.51,1.45h15.44c.12,0,.23.03.33.1l12.81,8.54c.08.06.18.09.28.09h0c.1,0,.2-.03.29-.08.09-.06.15-.14.19-.23.04-.09.05-.2.03-.3l-1.35-7.42c-.03-.17,0-.35.13-.48.11-.13.28-.21.45-.21h2.48c1.33,0,2.57-.52,3.51-1.45s1.45-2.18,1.45-3.51V6.14c0-.65-.13-1.29-.38-1.9-.25-.61-.61-1.15-1.08-1.61-.46-.46-1-.82-1.61-1.08-.6-.25-1.24-.38-1.9-.38H8.46Z" fill="#1d1e1e" stroke-width="0"/>
  <path d="M32.09,16.18c0,.29.06.58.17.85s.28.51.48.72.45.37.72.48c.27.11.56.17.85.17s.58-.06.85-.17c.27-.11.51-.28.72-.48s.37-.45.48-.72c.11-.27.17-.56.17-.85s-.06-.58-.17-.85c-.11-.27-.28-.51-.48-.72-.21-.21-.45-.37-.72-.48-.27-.11-.56-.17-.85-.17s-.58.06-.85.17c-.27.11-.51.28-.72.48-.21.21-.37.45-.48.72-.11.27-.17.56-.17.85h0Z" fill="#618fff" stroke-width="0"/>
  <path d="M34.31,18.99c-.37,0-.74-.07-1.08-.21s-.65-.35-.91-.61c-.26-.26-.47-.57-.61-.91-.14-.34-.21-.7-.21-1.08s.07-.73.21-1.08c.14-.34.35-.65.61-.91.26-.26.57-.47.91-.61.69-.29,1.46-.28,2.15,0,.34.14.65.35.91.61s.47.57.61.91.21.7.21,1.08-.07.73-.21,1.08c-.14.34-.35.65-.61.91-.26.26-.57.47-.91.61-.34.14-.7.21-1.07.21ZM34.31,14.55c-.21,0-.42.04-.62.12s-.38.2-.53.35c-.15.15-.27.33-.35.53-.08.2-.12.41-.12.62s.04.43.12.62c.08.2.2.38.35.53.15.15.33.27.53.35.4.17.85.17,1.25,0,.2-.08.38-.2.53-.35.15-.15.27-.33.35-.53.08-.2.12-.41.12-.62s-.04-.43-.12-.62c-.08-.2-.2-.38-.35-.53-.15-.15-.33-.27-.53-.35-.2-.08-.41-.12-.62-.12h-.01Z" fill="#1d1e1e" stroke-width="0"/>
  <path d="M22.1,16.18c0,.29.06.58.17.85s.28.51.48.72c.21.21.45.37.72.48.27.11.56.17.85.17s.58-.06.85-.17.51-.28.72-.48.37-.45.48-.72c.11-.27.17-.56.17-.85s-.06-.58-.17-.85-.28-.51-.48-.72c-.21-.21-.45-.37-.72-.48-.27-.11-.56-.17-.85-.17s-.58.06-.85.17-.51.28-.72.48c-.21.21-.37.45-.48.72-.11.27-.17.56-.17.85h0Z" fill="#c7dbff" stroke-width="0"/>
  <path d="M24.32,18.99c-.37,0-.74-.07-1.08-.21s-.65-.35-.91-.61-.47-.57-.61-.91c-.14-.34-.21-.7-.21-1.08s.07-.73.21-1.08c.14-.34.35-.65.61-.91s.57-.47.91-.61c.69-.29,1.46-.28,2.15,0,.34.14.65.35.91.61s.47.57.61.91c.14.34.21.7.21,1.08s-.07.73-.21,1.08c-.14.34-.35.65-.61.91s-.57.47-.91.61c-.34.14-.7.21-1.07.21ZM24.32,14.55c-.21,0-.42.04-.62.12s-.38.2-.53.35c-.15.15-.27.33-.35.53s-.12.41-.12.62.04.43.12.62c.08.2.2.38.35.53.15.15.33.27.53.35.4.17.85.17,1.25,0,.2-.08.38-.2.53-.35.15-.15.27-.33.35-.53s.12-.41.12-.62-.04-.43-.12-.62c-.08-.2-.2-.38-.35-.53-.15-.15-.33-.27-.53-.35s-.41-.12-.62-.12h0Z" fill="#1d1e1e" stroke-width="0"/>
  <path d="M12.11,16.18c0,.59.23,1.15.65,1.57s.98.65,1.57.65,1.15-.23,1.57-.65c.42-.42.65-.98.65-1.57s-.23-1.15-.65-1.57-.98-.65-1.57-.65-1.15.23-1.57.65-.65.98-.65,1.57Z" fill="#618fff" stroke-width="0"/>
  <path d="M14.33,18.99c-.75,0-1.46-.29-1.99-.82-.53-.53-.82-1.24-.82-1.99s.29-1.46.82-1.99c1.06-1.06,2.91-1.06,3.98,0,.53.53.82,1.24.82,1.99s-.29,1.46-.82,1.99c-.53.53-1.24.82-1.99.82ZM14.33,14.55c-.44,0-.84.17-1.15.48-.31.31-.48.72-.48,1.15s.17.84.48,1.15c.61.62,1.69.62,2.3,0,.31-.31.48-.72.48-1.15s-.17-.84-.48-1.15c-.31-.31-.72-.48-1.15-.48Z" fill="#1d1e1e" stroke-width="0"/>
  <path d="M3.3,28.42c.26.63.63,1.18,1.11,1.66.47.47,1.7,1.15,2.33,1.42.62.26.6.08,1.28.08l15.24.31,14.54,8.53.59-1.31-1.45-7.12h2.46c1.35,0,3.25-.96,4.2-1.91.97-.97,1.14-.9,1.14-2.27l.35-4.45c0,1.37-.52,2.64-1.49,3.61-.96.95-2.26,1.49-3.61,1.49H8.03c-.68.01-1.34-.12-1.95-.38-.63-.27-1.18-.64-1.66-1.11-.48-.47-.85-1.03-1.11-1.66-.26-.63-.39-1.29-.39-1.95v3.11c0,.67.13,1.33.39,1.95Z" fill="#e6edf8" stroke-width="0"/>
  <path d="M8.46.6h31.08c.73,0,1.45.14,2.12.42.67.28,1.29.69,1.8,1.2.52.52.92,1.13,1.2,1.8.28.67.42,1.4.42,2.12v20c0,1.47-.58,2.88-1.63,3.93-1.04,1.04-2.45,1.63-3.93,1.63h-2.48l1.35,7.42c.04.21,0,.44-.07.64-.09.2-.23.37-.41.49-.18.12-.4.18-.61.18s-.43-.07-.61-.19l-12.81-8.54h-15.43c-1.47,0-2.88-.58-3.92-1.63-1.04-1.04-1.63-2.45-1.63-3.92V6.15c0-1.47.58-2.88,1.63-3.93,1.04-1.04,2.45-1.63,3.93-1.63h0Z" fill="none" stroke-width="0"/>
  <path d="M37.31,41h0c-.33,0-.66-.1-.94-.28l-12.66-8.45h-15.26c-1.64,0-3.18-.64-4.34-1.8-1.16-1.16-1.8-2.7-1.8-4.34V6.15c0-1.64.64-3.18,1.8-4.34C5.28.65,6.84,0,8.46,0h31.08c.81,0,1.6.16,2.35.47.75.31,1.42.76,1.99,1.33s1.02,1.24,1.33,1.99c.31.75.47,1.54.47,2.35v19.99c0,1.64-.64,3.18-1.8,4.34-1.16,1.16-2.7,1.8-4.34,1.8h-1.77l1.22,6.72c.06.33.02.67-.11.97-.13.31-.35.57-.63.75-.28.18-.6.28-.93.28h-.01ZM8.46,1.19c-1.31,0-2.58.53-3.51,1.45-.94.94-1.45,2.18-1.45,3.51v19.99c0,1.32.52,2.57,1.45,3.51.94.94,2.18,1.45,3.51,1.45h15.44c.12,0,.23.03.33.1l12.81,8.54c.08.06.18.09.28.09h0c.1,0,.2-.03.29-.08.09-.06.15-.14.19-.23.04-.09.05-.2.03-.3l-1.35-7.42c-.03-.17,0-.35.13-.48.11-.13.28-.21.45-.21h2.48c1.33,0,2.57-.52,3.51-1.45s1.45-2.18,1.45-3.51V6.15c0-.65-.13-1.29-.38-1.9s-.61-1.15-1.08-1.61c-.46-.46-1-.82-1.61-1.08-.6-.25-1.24-.38-1.9-.38H8.46Z" fill="#1d1e1e" stroke-width="0"/>
  <path d="M37.31,41h0c-.33,0-.66-.1-.94-.28l-12.66-8.45h-15.26c-1.64,0-3.18-.64-4.34-1.8s-1.8-2.7-1.8-4.34V6.14c0-1.64.64-3.18,1.8-4.34S6.84,0,8.46,0h31.08c.81,0,1.6.16,2.35.47.75.31,1.42.76,1.99,1.33.57.57,1.02,1.24,1.33,1.99.31.75.47,1.54.47,2.35v19.99c0,1.64-.64,3.18-1.8,4.34-1.16,1.16-2.7,1.8-4.34,1.8h-1.77l1.22,6.72c.06.33.02.67-.11.97-.13.31-.35.57-.63.75-.28.18-.6.28-.93.28h-.01ZM8.46,1.18c-1.31,0-2.58.53-3.51,1.45-.94.94-1.45,2.18-1.45,3.51v19.99c0,1.32.52,2.57,1.45,3.51.94.94,2.18,1.45,3.51,1.45h15.44c.12,0,.23.03.33.1l12.81,8.54c.08.06.18.09.28.09h0c.1,0,.2-.03.29-.08.09-.06.15-.14.19-.23.04-.09.05-.2.03-.3l-1.35-7.42c-.03-.17,0-.35.13-.48.11-.13.28-.21.45-.21h2.48c1.33,0,2.57-.52,3.51-1.45s1.45-2.18,1.45-3.51V6.14c0-.65-.13-1.29-.38-1.9s-.61-1.15-1.08-1.61c-.46-.46-1-.82-1.61-1.08-.6-.25-1.24-.38-1.9-.38H8.46Z" fill="#1d1e1e" stroke-width="0"/>
</svg>