<?xml version="1.0" encoding="UTF-8"?>
<svg id="Layer_1" data-name="Layer 1" xmlns="http://www.w3.org/2000/svg" viewBox="0 0 48 48">
  <path d="M3.5,20.5c0,2.69.53,5.36,1.56,7.84,1.03,2.49,2.54,4.75,4.44,6.65,1.9,1.9,4.16,3.41,6.65,4.44,2.49,1.03,5.15,1.56,7.84,1.56s5.36-.53,7.84-1.56,4.75-2.54,6.65-4.44,3.41-4.16,4.44-6.65c1.03-2.49,1.56-5.15,1.56-7.84s-.53-5.36-1.56-7.84c-1.03-2.49-2.54-4.75-4.44-6.65-1.9-1.9-4.16-3.41-6.65-4.44-2.49-1.03-5.15-1.56-7.84-1.56s-5.36.53-7.84,1.56c-2.49,1.03-4.75,2.54-6.65,4.44-1.9,1.9-3.41,4.16-4.44,6.65-1.03,2.49-1.56,5.15-1.56,7.84h0Z" fill="#e6f1fa" stroke-width="0"/>
  <path d="M4.46,24.33c-.57-2.89-.49-5.85.23-8.7.72-2.85,2.06-5.5,3.91-7.77,1.86-2.27,4.2-4.1,6.85-5.36,2.66-1.26,5.55-1.92,8.49-1.93,2.94,0,5.83.63,8.5,1.88,2.66,1.25,5.01,3.07,6.88,5.32,1.88,2.26,3.23,4.9,3.95,7.75s.83,5.81.28,8.7c-.89-4.53-3.33-8.63-6.9-11.56-3.57-2.94-8.06-4.53-12.68-4.52-4.62,0-9.1,1.64-12.65,4.58-3.55,2.96-5.98,7.05-6.84,11.59" fill="#fff" stroke-width="0"/>
  <path d="M24,40.97c-2.71,0-5.34-.53-7.83-1.56-2.5-1.04-4.73-2.53-6.64-4.43-1.91-1.91-3.41-4.14-4.43-6.64-1.04-2.5-1.56-5.13-1.56-7.84s.53-5.34,1.56-7.84c1.04-2.5,2.53-4.73,4.43-6.64,1.91-1.91,4.14-3.41,6.64-4.43C21.16-.48,26.85-.48,31.84,1.59c2.5,1.03,4.73,2.53,6.64,4.43,1.91,1.91,3.41,4.14,4.43,6.64,1.04,2.5,1.56,5.13,1.56,7.84s-.53,5.34-1.56,7.84c-1.04,2.5-2.53,4.73-4.43,6.64-1.91,1.91-4.14,3.41-6.64,4.43-2.5,1.04-5.13,1.56-7.84,1.56ZM24,1.14c-2.56,0-5.04.5-7.41,1.48-2.36.98-4.47,2.39-6.28,4.19-1.81,1.81-3.22,3.92-4.19,6.28-.98,2.36-1.48,4.85-1.48,7.41s.5,5.05,1.48,7.41c.98,2.36,2.39,4.47,4.19,6.28,1.81,1.81,3.91,3.22,6.28,4.19,4.72,1.96,10.1,1.96,14.82,0,2.36-.98,4.47-2.39,6.28-4.19,1.81-1.81,3.22-3.92,4.19-6.28.98-2.36,1.48-4.85,1.48-7.41s-.5-5.05-1.48-7.41c-.98-2.36-2.39-4.47-4.19-6.28-1.81-1.81-3.92-3.22-6.28-4.19-2.36-.98-4.85-1.48-7.41-1.48Z" fill="#1d1e1e" stroke-width="0"/>
  <path d="M15.1,14.22c0,.82.66,1.49,1.49,1.49s1.49-.67,1.49-1.49-.67-1.48-1.49-1.48-1.48.66-1.48,1.48h0ZM29.93,14.2c0,.39.16.76.44,1.04s.66.43,1.05.43.77-.15,1.05-.43c.28-.28.44-.65.44-1.04s-.16-.76-.44-1.04-.66-.43-1.05-.43-.77.15-1.05.43c-.28.27-.43.65-.43,1.04h0Z" fill="#1d1e1e" stroke-width="0"/>
  <path d="M13.43,27.06c0-.38.31-.69.69-.69h19.77c.38,0,.69.31.69.69s-.31.69-.69.69H14.11c-.38,0-.69-.31-.69-.69Z" fill="#1d1e1e" fill-rule="evenodd" stroke-width="0"/>
</svg>