<?xml version="1.0" encoding="UTF-8"?>
<svg id="Layer_1" data-name="Layer 1" xmlns="http://www.w3.org/2000/svg" viewBox="0 0 48 48">
  <path d="M10.29.51h27.41c.61,0,1.19.24,1.62.67s.67,1.01.67,1.62v35.4c0,.61-.24,1.19-.67,1.62-.43.43-1.01.67-1.62.67H10.29c-.61,0-1.19-.24-1.62-.67-.43-.43-.67-1.01-.67-1.62V2.79c0-.61.24-1.19.67-1.62.43-.43,1.01-.67,1.62-.67h0Z" fill="#f1eaf3" stroke-width="0"/>
  <path d="M37.7.51H10.29c-.61,0-1.19.24-1.61.67-.43.43-.67,1.01-.67,1.61v1.71c0-.61.24-1.19.67-1.61.43-.43,1.01-.67,1.61-.67h27.41c.61,0,1.19.24,1.61.67.43.43.67,1.01.67,1.61v-1.71c0-.61-.24-1.19-.67-1.61-.43-.43-1.01-.67-1.61-.67Z" fill="#fff" stroke-width="0"/>
  <path d="M37.7,40.99H10.29c-.74,0-1.46-.3-1.97-.82-.53-.53-.82-1.23-.82-1.97V2.79c0-.74.3-1.46.82-1.97.53-.53,1.23-.82,1.97-.82h27.41c.75,0,1.45.29,1.98.82.52.52.82,1.24.82,1.97v35.41c0,.75-.29,1.45-.82,1.98s-1.23.82-1.97.82h0ZM10.29,1.02c-.47,0-.92.18-1.26.52-.33.33-.52.79-.52,1.26v35.4c0,.47.18.92.52,1.26s.79.52,1.26.52h27.4c.47,0,.92-.18,1.26-.52s.52-.78.52-1.26V2.79c0-.47-.19-.92-.52-1.26s-.78-.52-1.26-.52H10.29Z" fill="#1d1e1e" stroke-width="0"/>
  <path d="M38.35,40.48H9.64c-.21,0-.43-.04-.63-.12-.2-.08-.38-.2-.53-.35-.15-.15-.27-.33-.35-.53-.08-.2-.12-.41-.12-.63V13.08h31.97v25.77c0,.21-.04.43-.12.63s-.2.38-.35.53-.33.27-.53.35-.41.12-.63.12h0Z" fill="#fff" stroke-width="0"/>
  <path d="M38.35,40.99H9.64c-.28,0-.56-.05-.82-.16-.26-.11-.5-.27-.7-.47s-.36-.43-.46-.7c-.11-.26-.16-.54-.16-.82V13.08c0-.28.23-.51.51-.51h31.97c.28,0,.51.23.51.51v25.77c0,.28-.05.56-.16.82s-.27.5-.46.7c-.2.2-.43.36-.69.46-.26.11-.54.16-.82.16h0ZM8.52,13.58v25.26c0,.15.03.29.09.43s.14.26.24.36c.11.11.23.19.37.25s.28.09.43.09h28.71c.15,0,.29-.03.43-.09.13-.06.26-.14.36-.24.11-.11.19-.23.24-.36.06-.14.09-.28.09-.43V13.58H8.52Z" fill="#1d1e1e" stroke-width="0"/>
  <path d="M16,18.21c0,.23-.04.45-.13.66s-.21.4-.37.56-.35.29-.56.37c-.21.09-.43.13-.66.13h-1.14c-.45,0-.88-.19-1.19-.51s-.49-.75-.49-1.2.18-.88.49-1.2c.31-.32.74-.5,1.19-.51h1.14c.45,0,.89.18,1.21.5s.5.76.5,1.21h0Z" fill="#702f8a" stroke-width="0"/>
  <path d="M13.15,17.96h1.14c.32,0,.64.09.91.27.27.17.49.42.63.72.13-.26.18-.55.17-.84s-.11-.57-.26-.81c-.15-.24-.37-.45-.62-.59s-.54-.21-.83-.21h-1.14c-.29,0-.57.07-.83.21-.25.14-.47.34-.62.59-.15.24-.24.52-.26.81-.02.29.04.58.17.84.14-.29.36-.54.63-.72.27-.17.59-.27.91-.27h0Z" fill="#9c59b2" stroke-width="0"/>
  <path d="M14.29,20.44h-1.14c-.59,0-1.14-.25-1.55-.67s-.64-.97-.64-1.56.23-1.14.64-1.56c.41-.42.96-.66,1.54-.67h1.15c.59,0,1.15.23,1.57.65s.65.99.65,1.57c0,.29-.06.58-.17.85s-.27.51-.48.72c-.21.21-.45.37-.72.48-.27.11-.56.17-.85.17v.02ZM13.15,17.01c-.31,0-.6.13-.83.36-.22.23-.34.53-.34.84s.12.62.34.84.52.35.84.36h1.13c.16,0,.31-.03.46-.09s.28-.15.39-.26c.11-.11.2-.24.26-.39s.09-.3.09-.46c0-.32-.13-.63-.35-.85-.23-.23-.53-.35-.85-.35h-1.14Z" fill="#1d1e1e" stroke-width="0"/>
  <path d="M22.86,18.21c0,.23-.04.45-.13.66-.09.21-.21.4-.37.56s-.35.29-.56.37c-.21.09-.43.13-.66.13h-1.14c-.45,0-.88-.19-1.19-.51-.31-.32-.49-.75-.49-1.2s.18-.88.49-1.2.74-.5,1.19-.51h1.14c.45,0,.89.18,1.21.5.32.32.5.76.5,1.21h0Z" fill="#702f8a" stroke-width="0"/>
  <path d="M20,17.96h1.14c.32,0,.64.09.91.27.27.17.49.42.63.72.13-.26.18-.55.17-.84s-.11-.57-.26-.81-.37-.45-.62-.59-.54-.21-.83-.21h-1.14c-.29,0-.57.07-.83.21-.25.14-.47.34-.62.59-.15.24-.24.52-.26.81s.04.58.17.84c.14-.29.36-.54.63-.72.27-.17.59-.27.91-.27h0Z" fill="#9c59b2" stroke-width="0"/>
  <path d="M21.14,20.44h-1.14c-.59,0-1.14-.25-1.55-.67s-.64-.97-.64-1.56.23-1.14.64-1.56.96-.66,1.54-.67h1.15c.59,0,1.15.23,1.57.65s.65.98.65,1.57c0,.29-.06.58-.17.85s-.27.51-.48.72-.45.37-.72.48c-.27.11-.56.17-.85.17v.02ZM20,17.01c-.31,0-.6.13-.83.36-.22.23-.34.53-.34.84s.12.62.34.84.52.35.84.36h1.13c.16,0,.31-.03.46-.09s.28-.15.39-.26c.11-.11.2-.24.26-.39s.09-.3.09-.46c0-.32-.13-.63-.35-.85s-.53-.35-.85-.35h-1.14Z" fill="#1d1e1e" stroke-width="0"/>
  <path d="M29.7,18.21c0,.23-.04.45-.13.66-.09.21-.21.4-.37.56-.16.16-.35.29-.56.37-.21.09-.43.13-.66.13h-1.14c-.45,0-.88-.19-1.19-.51-.31-.32-.49-.75-.49-1.2s.18-.88.49-1.2c.31-.32.74-.5,1.19-.51h1.14c.45,0,.89.18,1.21.5.32.32.5.76.5,1.21h0Z" fill="#702f8a" stroke-width="0"/>
  <path d="M26.85,17.96h1.14c.32,0,.64.09.91.27.27.17.49.42.63.72.13-.26.18-.55.17-.84-.02-.29-.11-.57-.26-.81s-.37-.45-.62-.59-.54-.21-.83-.21h-1.14c-.45,0-.89.18-1.21.5-.32.32-.5.76-.5,1.21,0,.25.06.5.17.73.14-.29.36-.54.63-.72.27-.17.59-.27.91-.27h0Z" fill="#9c59b2" stroke-width="0"/>
  <path d="M27.99,20.44h-1.14c-.59,0-1.14-.25-1.55-.67s-.64-.97-.64-1.56.23-1.14.64-1.56.96-.66,1.54-.67h1.15c.59,0,1.15.23,1.57.65s.65.98.65,1.57c0,.29-.06.58-.17.85s-.27.51-.48.72-.45.37-.72.48c-.27.11-.56.17-.85.17v.02ZM26.85,17.01c-.31,0-.6.13-.83.36-.22.23-.34.53-.34.84s.12.62.34.84.52.35.84.36h1.13c.16,0,.31-.03.46-.09s.28-.15.39-.26c.11-.11.2-.24.26-.39s.09-.3.09-.46c0-.32-.12-.62-.35-.85s-.54-.35-.85-.35h-1.14Z" fill="#1d1e1e" stroke-width="0"/>
  <path d="M36.55,18.21c0,.23-.04.45-.13.66s-.21.4-.37.56-.35.29-.56.37c-.21.09-.43.13-.66.13h-1.14c-.45,0-.88-.19-1.19-.51-.31-.32-.49-.75-.49-1.2s.18-.88.49-1.2c.31-.32.74-.5,1.19-.51h1.14c.45,0,.89.18,1.21.5.32.32.5.76.5,1.21h0Z" fill="#702f8a" stroke-width="0"/>
  <path d="M33.7,17.96h1.14c.32,0,.64.09.91.27.27.17.49.42.63.72.13-.26.18-.55.17-.84-.02-.29-.11-.57-.26-.81-.15-.24-.37-.45-.62-.59s-.54-.21-.83-.21h-1.14c-.45,0-.89.18-1.21.5s-.5.76-.5,1.21c0,.25.06.5.17.73.14-.29.36-.54.63-.72.27-.17.59-.27.91-.27h0Z" fill="#9c59b2" stroke-width="0"/>
  <path d="M34.84,20.44h-1.14c-.59,0-1.14-.25-1.55-.67s-.64-.97-.64-1.56.23-1.14.64-1.56.96-.66,1.54-.67h1.15c.59,0,1.15.23,1.57.65s.65.98.65,1.57c0,.29-.06.58-.17.85-.11.27-.27.51-.48.72s-.45.37-.72.48c-.27.11-.56.17-.85.17v.02ZM33.7,17.01c-.31,0-.6.13-.83.36-.22.23-.34.53-.34.84s.12.62.34.84.52.35.84.36h1.13c.16,0,.31-.03.46-.09.15-.06.28-.15.39-.26s.2-.24.26-.39c.06-.15.09-.3.09-.46,0-.32-.13-.63-.35-.85s-.53-.35-.85-.35h-1.14Z" fill="#1d1e1e" stroke-width="0"/>
  <path d="M36.55,23.92c0,.23-.04.45-.13.66s-.21.4-.37.56-.35.29-.56.37c-.21.09-.43.13-.66.13h-1.14c-.45,0-.88-.19-1.19-.51-.31-.32-.49-.75-.49-1.2s.18-.88.49-1.2c.31-.32.74-.5,1.19-.51h1.14c.45,0,.89.18,1.21.5s.5.76.5,1.21h0Z" fill="#702f8a" stroke-width="0"/>
  <path d="M33.7,23.67h1.14c.32,0,.64.09.91.27.27.17.49.42.63.72.13-.26.18-.55.17-.84-.02-.29-.11-.57-.26-.81-.15-.24-.37-.45-.62-.58-.25-.14-.54-.21-.83-.21h-1.14c-.45,0-.89.18-1.21.5s-.5.76-.5,1.21c0,.25.06.5.17.73.14-.29.36-.54.63-.72.27-.17.59-.27.91-.27h0Z" fill="#9c59b2" stroke-width="0"/>
  <path d="M34.84,26.14h-1.14c-.59,0-1.14-.25-1.55-.67s-.64-.97-.64-1.56.23-1.14.64-1.56.96-.66,1.54-.67h1.15c.59,0,1.15.23,1.57.65s.65.98.65,1.57c0,.29-.06.58-.17.85-.11.27-.27.51-.48.72s-.45.37-.72.48c-.27.11-.56.17-.85.17v.02ZM33.7,22.71c-.31,0-.6.13-.83.36-.22.23-.34.53-.34.84s.12.62.34.84c.22.23.52.35.84.36h1.13c.16,0,.31-.03.46-.09.15-.06.28-.15.39-.26s.2-.24.26-.39c.06-.15.09-.3.09-.46,0-.32-.13-.63-.35-.85s-.53-.35-.85-.35h-1.14Z" fill="#1d1e1e" stroke-width="0"/>
  <path d="M16,23.92c0,.23-.04.45-.13.66s-.21.4-.37.56-.35.29-.56.37c-.21.09-.43.13-.66.13h-1.14c-.45,0-.88-.19-1.19-.51s-.49-.75-.49-1.2.18-.88.49-1.2c.31-.32.74-.5,1.19-.51h1.14c.45,0,.89.18,1.21.5s.5.76.5,1.21h0Z" fill="#702f8a" stroke-width="0"/>
  <path d="M13.15,23.67h1.14c.32,0,.64.09.91.27.27.17.49.42.63.72.13-.26.18-.55.17-.84-.02-.29-.11-.57-.26-.81-.15-.24-.37-.45-.62-.58-.25-.14-.54-.21-.83-.21h-1.14c-.29,0-.57.07-.83.21-.25.14-.47.34-.62.58s-.24.52-.26.81c-.02.29.04.58.17.84.14-.29.36-.54.63-.72.27-.17.59-.27.91-.27h0Z" fill="#9c59b2" stroke-width="0"/>
  <path d="M14.29,26.14h-1.14c-.59,0-1.14-.25-1.55-.67s-.64-.97-.64-1.56.23-1.14.64-1.56c.41-.42.96-.66,1.54-.67h1.15c.59,0,1.15.23,1.57.65s.65.99.65,1.57c0,.29-.06.58-.17.85s-.27.51-.48.72c-.21.21-.45.37-.72.48-.27.11-.56.17-.85.17v.02ZM13.15,22.71c-.31,0-.6.13-.83.36-.22.23-.34.53-.34.84s.12.62.34.84c.22.23.52.35.84.36h1.13c.16,0,.31-.03.46-.09s.28-.15.39-.26c.11-.11.2-.24.26-.39s.09-.3.09-.46c0-.32-.13-.63-.35-.85-.23-.23-.53-.35-.85-.35h-1.14Z" fill="#1d1e1e" stroke-width="0"/>
  <path d="M22.86,23.92c0,.23-.04.45-.13.66-.09.21-.21.4-.37.56-.16.16-.35.29-.56.37-.21.09-.43.13-.66.13h-1.14c-.45,0-.88-.19-1.19-.51s-.49-.75-.49-1.2.18-.88.49-1.2c.31-.32.74-.5,1.19-.51h1.14c.45,0,.89.18,1.21.5.32.32.5.76.5,1.21h0Z" fill="#702f8a" stroke-width="0"/>
  <path d="M20,23.67h1.14c.32,0,.64.09.91.27.27.17.49.42.63.72.13-.26.18-.55.17-.84-.02-.29-.11-.57-.26-.81s-.37-.45-.62-.58c-.25-.14-.54-.21-.83-.21h-1.14c-.29,0-.57.07-.83.21-.25.14-.47.34-.62.58-.15.24-.24.52-.26.81-.02.29.04.58.17.84.14-.29.36-.54.63-.72.27-.17.59-.27.91-.27h0Z" fill="#9c59b2" stroke-width="0"/>
  <path d="M21.14,26.14h-1.14c-.59,0-1.14-.25-1.55-.67s-.64-.97-.64-1.56.23-1.14.64-1.56.96-.66,1.54-.67h1.15c.59,0,1.15.23,1.57.65.42.42.65.98.65,1.57,0,.29-.06.58-.17.85s-.27.51-.48.72-.45.37-.72.48c-.27.11-.56.17-.85.17v.02ZM20,22.71c-.31,0-.6.13-.83.36-.22.23-.34.53-.34.84s.12.62.34.84c.22.23.52.35.84.36h1.13c.16,0,.31-.03.46-.09s.28-.15.39-.26c.11-.11.2-.24.26-.39s.09-.3.09-.46c0-.32-.13-.63-.35-.85s-.53-.35-.85-.35h-1.14Z" fill="#1d1e1e" stroke-width="0"/>
  <path d="M29.7,23.92c0,.23-.04.45-.13.66-.09.21-.21.4-.37.56-.16.16-.35.29-.56.37-.21.09-.43.13-.66.13h-1.14c-.45,0-.88-.19-1.19-.51-.31-.32-.49-.75-.49-1.2s.18-.88.49-1.2c.31-.32.74-.5,1.19-.51h1.14c.45,0,.89.18,1.21.5.32.32.5.76.5,1.21h0Z" fill="#702f8a" stroke-width="0"/>
  <path d="M26.85,23.67h1.14c.32,0,.64.09.91.27.27.17.49.42.63.72.13-.26.18-.55.17-.84-.02-.29-.11-.57-.26-.81s-.37-.45-.62-.58c-.25-.14-.54-.21-.83-.21h-1.14c-.45,0-.89.18-1.21.5-.32.32-.5.76-.5,1.21,0,.25.06.5.17.73.14-.29.36-.54.63-.72.27-.17.59-.27.91-.27Z" fill="#9c59b2" stroke-width="0"/>
  <path d="M27.99,26.14h-1.14c-.59,0-1.14-.25-1.55-.67s-.64-.97-.64-1.56.23-1.14.64-1.56.96-.66,1.54-.67h1.15c.59,0,1.15.23,1.57.65s.65.98.65,1.57c0,.29-.06.58-.17.85s-.27.51-.48.72-.45.37-.72.48c-.27.11-.56.17-.85.17v.02ZM26.85,22.71c-.31,0-.6.13-.83.36-.22.23-.34.53-.34.84s.12.62.34.84c.22.23.52.35.84.36h1.13c.16,0,.31-.03.46-.09s.28-.15.39-.26c.11-.11.2-.24.26-.39s.09-.3.09-.46c0-.32-.12-.62-.35-.85s-.54-.35-.85-.35h-1.14Z" fill="#1d1e1e" stroke-width="0"/>
  <path d="M16,29.63c0,.23-.04.45-.13.66s-.21.4-.37.56-.35.29-.56.37c-.21.09-.43.13-.66.13h-1.14c-.45,0-.88-.19-1.19-.51s-.49-.75-.49-1.2.18-.88.49-1.2c.31-.32.74-.5,1.19-.51h1.14c.45,0,.89.18,1.21.5s.5.76.5,1.21h0Z" fill="#702f8a" stroke-width="0"/>
  <path d="M13.15,29.38h1.14c.32,0,.64.09.91.27.27.17.49.42.63.71.13-.26.18-.55.17-.84-.02-.29-.11-.57-.26-.81-.15-.24-.37-.45-.62-.59s-.54-.21-.83-.21h-1.14c-.29,0-.57.07-.83.21-.25.14-.47.34-.62.59-.15.24-.24.52-.26.81-.02.29.04.58.17.84.14-.29.36-.54.63-.71.27-.17.59-.27.91-.27h0Z" fill="#9c59b2" stroke-width="0"/>
  <path d="M14.29,31.85h-1.14c-.59,0-1.14-.25-1.55-.67s-.64-.97-.64-1.56.23-1.14.64-1.56c.41-.42.96-.66,1.54-.67h1.15c.59,0,1.15.23,1.57.65s.65.99.65,1.57c0,.29-.06.58-.17.85s-.27.51-.48.72c-.21.21-.45.37-.72.48-.27.11-.56.17-.85.17v.02ZM13.15,28.42c-.31,0-.6.13-.83.36-.22.23-.34.53-.34.84s.12.62.34.84c.22.23.52.35.84.36h1.13c.16,0,.31-.03.46-.09s.28-.15.39-.26c.11-.11.2-.24.26-.39s.09-.3.09-.46c0-.32-.13-.63-.35-.85-.23-.23-.53-.35-.85-.35h-1.14Z" fill="#1d1e1e" stroke-width="0"/>
  <path d="M22.86,29.63c0,.23-.04.45-.13.66-.09.21-.21.4-.37.56-.16.16-.35.29-.56.37-.21.09-.43.13-.66.13h-1.14c-.45,0-.88-.19-1.19-.51s-.49-.75-.49-1.2.18-.88.49-1.2.74-.5,1.19-.51h1.14c.45,0,.89.18,1.21.5.32.32.5.76.5,1.21h0Z" fill="#702f8a" stroke-width="0"/>
  <path d="M20,29.38h1.14c.32,0,.64.09.91.27.27.17.49.42.63.71.13-.26.18-.55.17-.84-.02-.29-.11-.57-.26-.81s-.37-.45-.62-.59-.54-.21-.83-.21h-1.14c-.29,0-.57.07-.83.21-.25.14-.47.34-.62.59-.15.24-.24.52-.26.81-.02.29.04.58.17.84.14-.29.36-.54.63-.71.27-.17.59-.27.91-.27h0Z" fill="#9c59b2" stroke-width="0"/>
  <path d="M21.14,31.85h-1.14c-.59,0-1.14-.25-1.55-.67s-.64-.97-.64-1.56.23-1.14.64-1.56c.41-.42.96-.66,1.54-.67h1.15c.59,0,1.15.23,1.57.65.42.42.65.98.65,1.57,0,.29-.06.58-.17.85s-.27.51-.48.72-.45.37-.72.48c-.27.11-.56.17-.85.17v.02ZM20,28.42c-.31,0-.6.13-.83.36-.22.23-.34.53-.34.84s.12.62.34.84c.22.23.52.35.84.36h1.13c.16,0,.31-.03.46-.09s.28-.15.39-.26c.11-.11.2-.24.26-.39s.09-.3.09-.46c0-.32-.13-.63-.35-.85s-.53-.35-.85-.35h-1.14Z" fill="#1d1e1e" stroke-width="0"/>
  <path d="M29.7,29.63c0,.23-.04.45-.13.66-.09.21-.21.4-.37.56-.16.16-.35.29-.56.37-.21.09-.43.13-.66.13h-1.14c-.45,0-.88-.19-1.19-.51-.31-.32-.49-.75-.49-1.2s.18-.88.49-1.2c.31-.32.74-.5,1.19-.51h1.14c.45,0,.89.18,1.21.5.32.32.5.76.5,1.21h0Z" fill="#702f8a" stroke-width="0"/>
  <path d="M26.85,29.38h1.14c.32,0,.64.09.91.27.27.17.49.42.63.71.13-.26.18-.55.17-.84-.02-.29-.11-.57-.26-.81s-.37-.45-.62-.59-.54-.21-.83-.21h-1.14c-.45,0-.89.18-1.21.5-.32.32-.5.76-.5,1.21,0,.25.06.5.17.73.14-.29.36-.54.63-.71.27-.17.59-.27.91-.27h0Z" fill="#9c59b2" stroke-width="0"/>
  <path d="M27.99,31.85h-1.14c-.59,0-1.14-.25-1.55-.67s-.64-.97-.64-1.56.23-1.14.64-1.56.96-.66,1.54-.67h1.15c.59,0,1.15.23,1.57.65s.65.98.65,1.57c0,.29-.06.58-.17.85s-.27.51-.48.72-.45.37-.72.48c-.27.11-.56.17-.85.17v.02ZM26.85,28.42c-.31,0-.6.13-.83.36-.22.23-.34.53-.34.84s.12.62.34.84c.22.23.52.35.84.36h1.13c.16,0,.31-.03.46-.09s.28-.15.39-.26c.11-.11.2-.24.26-.39s.09-.3.09-.46c0-.32-.12-.62-.35-.85s-.54-.35-.85-.35h-1.14Z" fill="#1d1e1e" stroke-width="0"/>
  <path d="M16,35.34c0,.23-.04.45-.13.66s-.21.4-.37.56-.35.29-.56.37c-.21.09-.43.13-.66.13h-1.14c-.45,0-.88-.19-1.19-.51s-.49-.75-.49-1.2.18-.88.49-1.2c.31-.32.74-.5,1.19-.51h1.14c.45,0,.89.18,1.21.5s.5.76.5,1.21h0Z" fill="#702f8a" stroke-width="0"/>
  <path d="M13.15,35.09h1.14c.32,0,.64.09.91.27.27.17.49.42.63.72.13-.26.18-.55.17-.84-.02-.29-.11-.57-.26-.81-.15-.24-.37-.45-.62-.58-.25-.14-.54-.21-.83-.21h-1.14c-.29,0-.57.07-.83.21-.25.14-.47.34-.62.59-.15.24-.24.52-.26.81s.04.58.17.84c.14-.29.36-.54.63-.72.27-.17.59-.27.91-.27h0Z" fill="#9c59b2" stroke-width="0"/>
  <path d="M14.29,37.56h-1.14c-.59,0-1.14-.25-1.55-.67s-.64-.97-.64-1.56.23-1.14.64-1.56c.41-.42.96-.65,1.54-.67h1.15c.59,0,1.15.23,1.57.65.42.42.65.98.65,1.57,0,.29-.06.58-.17.85-.11.27-.27.51-.48.72s-.45.37-.72.48-.56.17-.85.17v.02ZM13.15,34.13c-.31,0-.6.13-.83.36-.22.23-.34.53-.34.84s.12.62.34.84c.22.23.52.35.84.36h1.13c.16,0,.31-.03.46-.09s.28-.15.39-.26c.11-.11.2-.24.26-.39.06-.15.09-.3.09-.46,0-.32-.13-.63-.35-.85-.22-.22-.54-.35-.85-.35h-1.14Z" fill="#1d1e1e" stroke-width="0"/>
  <path d="M22.86,35.34c0,.23-.04.45-.13.66-.09.21-.21.4-.37.56-.16.16-.35.29-.56.37-.21.09-.43.13-.66.13h-1.14c-.45,0-.88-.19-1.19-.51s-.49-.75-.49-1.2.18-.88.49-1.2.74-.5,1.19-.51h1.14c.45,0,.89.18,1.21.5.32.32.5.76.5,1.21h0Z" fill="#702f8a" stroke-width="0"/>
  <path d="M20,35.09h1.14c.32,0,.64.09.91.27.27.17.49.42.63.72.13-.26.18-.55.17-.84-.02-.29-.11-.57-.26-.81s-.37-.45-.62-.58-.54-.21-.83-.21h-1.14c-.29,0-.57.07-.83.21-.25.14-.47.34-.62.59-.15.24-.24.52-.26.81s.04.58.17.84c.14-.29.36-.54.63-.72.27-.17.59-.27.91-.27h0Z" fill="#9c59b2" stroke-width="0"/>
  <path d="M21.14,37.56h-1.14c-.59,0-1.14-.25-1.55-.67s-.64-.97-.64-1.56.23-1.14.64-1.56c.41-.42.96-.65,1.54-.67h1.15c.58,0,1.16.24,1.57.65.41.41.65.98.65,1.57,0,.29-.06.58-.17.85-.11.27-.27.51-.48.72s-.45.37-.72.48c-.27.11-.56.17-.85.17v.02ZM20,34.13c-.31,0-.6.13-.83.36-.22.23-.34.53-.34.84s.12.62.34.84c.22.23.52.35.84.36h1.13c.16,0,.31-.03.46-.09s.28-.15.39-.26c.11-.11.2-.24.26-.39.06-.15.09-.3.09-.46,0-.32-.12-.62-.35-.85-.22-.22-.53-.35-.85-.35h-1.14Z" fill="#1d1e1e" stroke-width="0"/>
  <path d="M29.7,35.34c0,.23-.04.45-.13.66-.09.21-.21.4-.37.56-.16.16-.35.29-.56.37-.21.09-.43.13-.66.13h-1.14c-.45,0-.88-.19-1.19-.51-.31-.32-.49-.75-.49-1.2s.18-.88.49-1.2.74-.5,1.19-.51h1.14c.45,0,.89.18,1.21.5.32.32.5.76.5,1.21h0Z" fill="#702f8a" stroke-width="0"/>
  <path d="M26.85,35.09h1.14c.32,0,.64.09.91.27.27.17.49.42.63.72.13-.26.18-.55.17-.84-.02-.29-.11-.57-.26-.81s-.37-.45-.62-.58c-.25-.14-.54-.21-.83-.21h-1.14c-.45,0-.89.18-1.21.5-.32.32-.5.76-.5,1.21,0,.25.06.5.17.73.14-.29.36-.54.63-.72.27-.17.59-.27.91-.27h0Z" fill="#9c59b2" stroke-width="0"/>
  <path d="M27.99,37.56h-1.14c-.59,0-1.14-.25-1.55-.67s-.64-.97-.64-1.56.23-1.14.64-1.56c.41-.42.96-.65,1.54-.67h1.15c.59,0,1.15.23,1.57.65s.65.98.65,1.57c0,.29-.06.58-.17.85-.11.27-.27.51-.48.72s-.45.37-.72.48c-.27.11-.56.17-.85.17v.02ZM26.85,34.13c-.31,0-.6.13-.83.36-.22.23-.34.53-.34.84s.12.62.34.84c.22.23.52.35.84.36h1.13c.16,0,.31-.03.46-.09s.28-.15.39-.26c.11-.11.2-.24.26-.39.06-.15.09-.3.09-.46,0-.32-.12-.62-.35-.85-.22-.22-.54-.35-.85-.35h-1.14Z" fill="#1d1e1e" stroke-width="0"/>
  <path d="M36.55,34.77c0,.6-.26,1.17-.68,1.59-.43.42-1,.66-1.6.66s-1.17-.24-1.6-.66c-.43-.42-.67-.99-.68-1.59v-4.57c0-.3.05-.6.16-.89.11-.28.28-.54.49-.75.21-.22.47-.39.75-.51s.58-.18.88-.18.6.06.88.18c.28.12.53.29.75.51.21.22.38.47.49.75s.17.58.16.89v4.57Z" fill="#702f8a" stroke-width="0"/>
  <path d="M34.27,27.91c-.61,0-1.19.24-1.62.67s-.67,1.01-.67,1.62v1.71c0-.6.26-1.17.68-1.59.43-.42,1-.66,1.6-.66s1.17.24,1.6.66.67.99.68,1.59v-1.71c0-.61-.24-1.19-.67-1.62-.43-.43-1.01-.67-1.62-.67h.02Z" fill="#9c59b2" stroke-width="0"/>
  <path d="M34.27,37.52c-.74,0-1.43-.28-1.96-.8-.53-.52-.82-1.21-.84-1.95v-4.58c0-.36.06-.73.2-1.07.14-.35.34-.66.6-.92.26-.27.57-.48.91-.62.69-.29,1.47-.29,2.16,0,.34.14.65.35.91.62s.46.58.6.92c.14.35.21.71.2,1.08v4.56h0c0,.75-.31,1.44-.83,1.95-.53.52-1.22.8-1.96.8h0ZM34.27,28.38c-.24,0-.47.05-.69.14-.22.09-.41.22-.58.39-.16.17-.29.37-.38.59s-.13.45-.13.69v4.58c0,.46.2.9.53,1.23.67.66,1.82.66,2.49,0,.33-.33.52-.77.53-1.23v-4.56c0-.25-.04-.48-.13-.7-.09-.22-.22-.42-.38-.59-.17-.17-.36-.3-.58-.39s-.45-.14-.69-.14h.01ZM36.56,34.76" fill="#1d1e1e" stroke-width="0"/>
  <path d="M11.43,3.94h25.12v5.71H11.43V3.94Z" fill="#f1eaf3" stroke-width="0"/>
  <path d="M15.43,9.65l5.71-5.71h-8.75c-.25,0-.5.1-.67.28-.18.18-.28.42-.28.67v3.81c0,.25.1.5.28.67.18.18.42.28.67.28h3.04Z" fill="#fff" stroke-width="0"/>
  <path d="M36.55,10.16H11.43c-.28,0-.51-.23-.51-.51V3.94c0-.28.23-.51.51-.51h25.12c.28,0,.51.23.51.51v5.71c0,.28-.23.51-.51.51ZM11.94,9.14h24.1v-4.69H11.94v4.69Z" fill="#1d1e1e" stroke-width="0"/>
</svg>