<?xml version="1.0" encoding="UTF-8"?>
<svg id="Layer_1" data-name="Layer 1" xmlns="http://www.w3.org/2000/svg" viewBox="0 0 48 48">
  <path d="M18.8,15.01L10.13,6.09c-.65-.67-.64-1.74.03-2.4h0c.63-.63,1.64-.66,2.32-.07l5.06,4.42c1.79,1.56,4.12,3.3,6.49,3.3h0c2.37,0,4.61-1.73,6.39-3.29l5.08-4.43c.68-.59,1.69-.55,2.32.08h0c.65.65.67,1.71.03,2.38l-8.62,9.06c-.32.34-.51.78-.53,1.24l-.98,21.65c-.06,1.29-1.12,2.31-2.41,2.31h-2.42c-1.29,0-2.35-1.01-2.41-2.29l-1.13-21.8c-.02-.47-.22-.91-.54-1.24Z" fill="#e6f1fa" stroke-width="0"/>
  <path d="M35.06,3.65l-6.38,5.78c-.37.34-.8.61-1.26.8-2.1.87-4.46.9-6.58.09l-.18-.07c-.53-.21-1.03-.51-1.46-.89l-6.3-5.7,2.32,3.64,1.76,2.2c.59.73,1.27,1.4,2.04,1.96,3.06,2.26,7.23,2.26,10.29,0,.76-.56,1.45-1.21,2.04-1.96l1.6-1.99c.11-.14.21-.28.29-.44l1.86-3.4-.02-.02Z" fill="#fff" stroke-width="0"/>
  <path d="M25.32,40.83h-2.42c-1.54,0-2.82-1.21-2.9-2.75l-1.13-21.8c-.02-.35-.16-.68-.41-.93L9.8,6.43c-.83-.86-.82-2.24.03-3.08.81-.8,2.12-.84,2.98-.09l5.06,4.42c1.56,1.36,3.9,3.18,6.17,3.18,2.15,0,4.28-1.6,6.08-3.17l5.08-4.43c.86-.75,2.18-.71,2.99.1.85.85.86,2.19.04,3.06l-8.62,9.06c-.24.25-.38.58-.4.93l-.98,21.65c-.07,1.55-1.34,2.77-2.9,2.77ZM19.16,14.67c.41.42.65.97.68,1.56l1.13,21.8c.05,1.03.9,1.83,1.93,1.83h2.42c1.03,0,1.88-.81,1.93-1.84l.98-21.65c.03-.58.26-1.13.66-1.56l8.62-9.06c.46-.48.45-1.23-.02-1.7-.45-.45-1.18-.48-1.66-.06l-5.08,4.43c-1.93,1.68-4.24,3.41-6.71,3.41s-4.99-1.83-6.81-3.42l-5.06-4.42c-.48-.42-1.2-.4-1.66.05-.47.47-.48,1.24-.02,1.71l8.67,8.92Z" fill="#1d1e1e" stroke-width="0"/>
  <path d="M20.34,4.03c0,.98.38,1.92,1.07,2.61.68.69,1.62,1.08,2.58,1.08s1.9-.39,2.58-1.08,1.07-1.64,1.07-2.61-.38-1.92-1.07-2.61c-.68-.69-1.62-1.08-2.58-1.08s-1.9.39-2.58,1.08c-.68.69-1.07,1.64-1.07,2.61h0Z" fill="#e6f1fa" stroke-width="0"/>
  <path d="M20.41,4.76c-.1-.53-.09-1.08.04-1.62.13-.53.37-1.02.71-1.45.34-.42.77-.76,1.25-.99s1.01-.36,1.56-.36,1.07.12,1.56.35c.49.23.92.57,1.26.98.34.42.59.91.72,1.44.13.53.15,1.08.05,1.62-.16-.84-.61-1.61-1.26-2.15-.65-.54-1.48-.84-2.33-.83-.85,0-1.67.31-2.32.85-.65.55-1.09,1.32-1.25,2.16" fill="#fff" stroke-width="0"/>
  <path d="M23.99,8.22c-1.1,0-2.15-.44-2.93-1.23-.78-.79-1.21-1.85-1.21-2.96s.43-2.17,1.21-2.96c.78-.79,1.83-1.23,2.93-1.23s2.15.44,2.93,1.23c.78.79,1.21,1.85,1.21,2.96s-.43,2.17-1.21,2.96c-.78.79-1.83,1.23-2.93,1.23ZM23.99.83c-.84,0-1.64.33-2.23.93-.59.6-.92,1.41-.92,2.27s.34,1.67.92,2.27c.59.6,1.39.93,2.23.93s1.64-.33,2.23-.93c.59-.59.92-1.43.92-2.26s-.33-1.66-.92-2.27c-.59-.6-1.39-.93-2.23-.93h0Z" fill="#1d1e1e" stroke-width="0"/>
</svg>