<svg width="11" height="12" viewBox="0 0 11 12" fill="none" xmlns="http://www.w3.org/2000/svg">
    <path d="M2.818 6.4a.598.598 0 0 1 .609.597.6.6 0 0 1-.182.427L2.07 8.598h8.348v1.195H2.07l1.175 1.164h-.01l.084.107a.602.602 0 0 1-.821.843L.18 9.622A.598.598 0 0 1 0 9.196c0-.117.032-.236.096-.321L2.39 6.57a.587.587 0 0 1 .427-.17zM7.62.175a.605.605 0 0 1 .854 0l2.2 2.188.085.096a.6.6 0 0 1-.086.758l-2.2 2.188-.106.085.021.01a.601.601 0 0 1-.842-.821l1.26-1.28H.458V2.203h8.347L7.621 1.03A.6.6 0 0 1 7.44.603c0-.16.064-.31.18-.427z" fill="#1E1E1E"/>
</svg>
