<svg width="32" height="32" fill="none" xmlns="http://www.w3.org/2000/svg">
    <path d="M16 32c8.837 0 16-7.163 16-16S24.837 0 16 0 0 7.163 0 16s7.163 16 16 16z" fill="#DCDCDC"/>
    <path fill-rule="evenodd" clip-rule="evenodd" d="M10.91 19.21H21a.82.82 0 1 0 0-1.64H10.91a.82.82 0 0 0 0 1.64z" fill="#1E1E1E"/>
    <path fill-rule="evenodd" clip-rule="evenodd" d="M7.46 13.821v5.8c-1-.13-1.84-1.38-1.84-2.9s.81-2.72 1.84-2.9zm15.34-1.22v8.19H9.09v-8.19a33.92 33.92 0 0 1 13.71 0zm3.47 4.12c0 1.52-.8 2.77-1.83 2.9v-5.8c1.03.18 1.83 1.38 1.83 2.9zm-1.84-4.55a1.31 1.31 0 0 0-1.28-1.16 35 35 0 0 0-14.41 0 1.3 1.3 0 0 0-1.27 1.16c-1.94.12-3.48 2.11-3.48 4.55s1.54 4.43 3.48 4.55a1.31 1.31 0 0 0 1.3 1.16h14.35a1.32 1.32 0 0 0 1.31-1.16c1.93-.12 3.48-2.12 3.48-4.55 0-2.43-1.55-4.43-3.48-4.55z" fill="#1E1E1E"/>
    <path fill-rule="evenodd" clip-rule="evenodd" d="M10.91 15.661s1.6-.2 5-.25c1.67-.065 3.344.019 5 .25H21a.82.82 0 0 0 0-1.63 51.423 51.423 0 0 0-10.13 0 .81.81 0 0 0-.726 1.126.82.82 0 0 0 .766.504z" fill="#1E1E1E"/>
</svg>
