<?xml version="1.0" encoding="UTF-8"?>
<svg id="Layer_1" data-name="Layer 1" xmlns="http://www.w3.org/2000/svg" viewBox="0 0 48 48">
  <g>
    <path d="M11.2,36.35l3.89-11.66h3.87l3.73,11.66h1.07c.07.2.11.4.14.6s.05.38.05.55-.01.36-.05.56-.07.41-.14.61h-5.51c-.07-.18-.11-.36-.14-.55-.04-.2-.05-.37-.05-.54s.01-.34.05-.53.07-.37.14-.55h1.14l-.52-1.78h-4.06l-.55,1.78h1.15c.07.18.11.36.14.55s.05.36.05.53-.01.34-.05.54-.08.38-.14.55h-5.37c-.07-.2-.11-.41-.14-.61s-.05-.4-.05-.56.01-.36.05-.55c.04-.2.07-.4.14-.6,0,0,1.15,0,1.15,0ZM18.31,32.6l-1.4-5.08-1.5,5.08h2.91Z" fill="#231f20" stroke-width="0"/>
    <path d="M26.64,36.35v-9.16h-1.18c-.07-.2-.11-.4-.14-.6s-.05-.38-.05-.55.01-.36.05-.56.07-.41.14-.61h6.84c.72,0,1.36.11,1.91.32.55.22,1.02.5,1.38.88.37.37.66.8.84,1.31.19.5.29,1.04.29,1.62,0,.49-.07.98-.22,1.5-.14.5-.4.96-.74,1.37s-.8.73-1.37,1c-.56.25-1.26.4-2.1.4h-2.49v3.11h1.44c.07.2.11.4.14.6s.05.38.05.55-.01.36-.05.56-.08.41-.14.61h-5.8c-.07-.2-.11-.41-.14-.61s-.05-.4-.05-.56.01-.36.05-.55.07-.4.14-.6h1.19ZM31.62,30.86c.58,0,1.03-.14,1.34-.46.31-.3.47-.77.47-1.4,0-.56-.16-1.01-.47-1.31s-.74-.46-1.3-.46h-1.84v3.61h1.79Z" fill="#231f20" stroke-width="0"/>
  </g>
  <path d="M37.39,26.08c0-.19.04-.37.11-.54s.18-.31.3-.42.28-.22.44-.29.34-.1.53-.1.36.04.53.1.31.16.43.29c.12.12.23.26.3.42s.11.34.11.54-.04.37-.11.54c-.07.17-.18.31-.3.43s-.28.22-.43.29c-.17.07-.34.1-.53.1s-.36-.04-.53-.1-.31-.17-.44-.29c-.12-.12-.23-.26-.3-.43s-.11-.35-.11-.54ZM38.76,27.14c.14,0,.28-.02.4-.08.12-.05.23-.12.32-.22s.17-.2.22-.34c.05-.12.07-.26.07-.42s-.02-.29-.07-.42c-.05-.12-.12-.24-.22-.34s-.2-.17-.32-.22-.25-.08-.4-.08-.28.02-.41.08-.23.12-.32.22-.17.2-.22.34c-.05.12-.07.26-.07.42s.02.29.07.42c.05.12.12.24.22.34s.2.17.32.22.25.08.41.08ZM38.28,26.64v-1.1h-.11s-.01-.06-.01-.07v-.1s0-.04.01-.07h.7c.07,0,.14,0,.2.04s.12.06.16.1.07.1.1.14c.02.06.04.12.04.18,0,.07-.01.16-.05.24s-.11.14-.2.2l.2.44h.12s.01.06.01.07v.1s0,.04-.02.07h-.34l-.29-.64h-.23v.41h.13s.01.06.01.07v.1s0,.04-.02.07h-.53s-.01-.06-.01-.07v-.1s0-.04.01-.07h.12ZM38.81,25.98c.07,0,.13-.01.18-.06s.06-.1.06-.17c0-.06-.01-.12-.06-.14-.04-.04-.1-.06-.17-.06h-.25v.44h.24,0Z" fill="#231f20" stroke-width="0"/>
</svg>