<?xml version="1.0" encoding="UTF-8"?>
<svg id="Layer_1" data-name="Layer 1" xmlns="http://www.w3.org/2000/svg" viewBox="0 0 48 48">
  <circle cx="30.98" cy="27.97" r="1.35" fill="#618fff" stroke-width="0"/>
  <g>
    <rect x="3.99" y=".49" width="40.02" height="40.02" rx="5.11" ry="5.11" fill="#e6edf8" stroke-width="0"/>
    <path d="M39.49.72H9.12c-2.56,0-4.65,2.09-4.65,4.65v4.14c0-2.56,2.09-4.65,4.65-4.65h30.37c2.56,0,4.65,2.09,4.65,4.65v-4.14c0-2.56-2.09-4.65-4.65-4.65Z" fill="#fff" stroke-width="0"/>
    <path d="M39.32,41H8.68c-2.86,0-5.18-2.32-5.18-5.18V5.18C3.5,2.32,5.82,0,8.68,0h30.64c2.86,0,5.18,2.32,5.18,5.18v30.64c0,2.86-2.32,5.18-5.18,5.18ZM8.68.98c-2.32,0-4.2,1.89-4.2,4.2v30.64c0,2.32,1.89,4.2,4.2,4.2h30.64c2.32,0,4.2-1.89,4.2-4.2V5.18c0-2.32-1.89-4.2-4.2-4.2H8.68Z" fill="#1d1e1e" stroke-width="0"/>
    <path d="M39.32,41H8.68c-2.86,0-5.18-2.32-5.18-5.18V5.18C3.5,2.32,5.82,0,8.68,0h30.64c2.86,0,5.18,2.32,5.18,5.18v30.64c0,2.86-2.32,5.18-5.18,5.18ZM8.68.98c-2.32,0-4.2,1.89-4.2,4.2v30.64c0,2.32,1.89,4.2,4.2,4.2h30.64c2.32,0,4.2-1.89,4.2-4.2V5.18c0-2.32-1.89-4.2-4.2-4.2H8.68Z" fill="#1d1e1e" stroke-width="0"/>
    <path d="M21.26,13.14h-3.24v-3.24c0-.69-.56-1.25-1.25-1.25s-1.25.56-1.25,1.25v3.24h-3.24c-.69,0-1.25.56-1.25,1.25s.56,1.25,1.25,1.25h3.24v3.24c0,.69.56,1.25,1.25,1.25s1.25-.56,1.25-1.25v-3.24h3.24c.69,0,1.25-.56,1.25-1.25s-.56-1.25-1.25-1.25Z" fill="#618fff" stroke-width="0"/>
    <path d="M16.76,20.4c-.97,0-1.75-.79-1.75-1.75v-2.75h-2.75c-.97,0-1.75-.79-1.75-1.75s.79-1.75,1.75-1.75h2.75v-2.75c0-.97.79-1.75,1.75-1.75s1.75.79,1.75,1.75v2.75h2.75c.97,0,1.75.79,1.75,1.75s-.79,1.75-1.75,1.75h-2.75v2.75c0,.97-.79,1.75-1.75,1.75ZM12.26,13.39c-.42,0-.76.34-.76.76s.34.76.76.76h3.73v3.73c0,.42.34.76.76.76s.76-.34.76-.76v-3.73h3.73c.42,0,.76-.34.76-.76s-.34-.76-.76-.76h-3.73v-3.73c0-.42-.34-.76-.76-.76s-.76.34-.76.76v3.73h-3.73Z" fill="#1d1e1e" stroke-width="0"/>
    <path d="M20.83,30.25l-2.29-2.29,2.29-2.29c.49-.49.49-1.29,0-1.77s-1.29-.49-1.77,0l-2.29,2.29-2.29-2.29c-.49-.49-1.29-.49-1.77,0s-.49,1.29,0,1.77l2.29,2.29-2.29,2.29c-.49.49-.49,1.29,0,1.77s1.29.49,1.77,0l2.29-2.29,2.29,2.29c.49.49,1.29.49,1.77,0s.49-1.29,0-1.77Z" fill="#c7dbff" stroke-width="0"/>
    <path d="M12.35,32.38c-.68-.68-.68-1.79,0-2.47l1.94-1.94-1.94-1.94c-.68-.68-.68-1.79,0-2.47s1.79-.68,2.47,0l1.94,1.94,1.94-1.94c.68-.68,1.79-.68,2.47,0s.68,1.79,0,2.47l-1.94,1.94,1.94,1.94c.68.68.68,1.79,0,2.47s-1.79.68-2.47,0l-1.94-1.94-1.94,1.94c-.68.68-1.79.68-2.47,0ZM14.12,24.24c-.3-.3-.78-.3-1.08,0s-.3.78,0,1.08l2.64,2.64-2.64,2.64c-.3.3-.3.78,0,1.08s.78.3,1.08,0l2.64-2.64,2.64,2.64c.3.3.78.3,1.08,0s.3-.78,0-1.08l-2.64-2.64,2.64-2.64c.3-.3.3-.78,0-1.08s-.78-.3-1.08,0l-2.64,2.64-2.64-2.64Z" fill="#1d1e1e" stroke-width="0"/>
    <path d="M35.74,12.9h-5.75s-3.24,0-3.24,0c-.69,0-1.25.56-1.25,1.25s.56,1.25,1.25,1.25h8.99c.69,0,1.25-.56,1.25-1.25s-.56-1.25-1.25-1.25Z" fill="#c7dbff" stroke-width="0"/>
    <path d="M29.49,15.91h-2.75c-.97,0-1.75-.79-1.75-1.75s.79-1.75,1.75-1.75h8.99c.97,0,1.75.79,1.75,1.75s-.79,1.75-1.75,1.75h-6.24ZM26.74,13.39c-.42,0-.76.34-.76.76s.34.76.76.76h8.99c.42,0,.76-.34.76-.76s-.34-.76-.76-.76h-8.99Z" fill="#1d1e1e" stroke-width="0"/>
    <path d="M35.74,25.95h-5.75s-3.24,0-3.24,0c-.69,0-1.25.56-1.25,1.25s.56,1.25,1.25,1.25h8.99c.69,0,1.25-.56,1.25-1.25s-.56-1.25-1.25-1.25Z" fill="#618fff" stroke-width="0"/>
    <path d="M29.49,28.95h-2.75c-.97,0-1.75-.79-1.75-1.75s.79-1.75,1.75-1.75h8.99c.97,0,1.75.79,1.75,1.75s-.79,1.75-1.75,1.75h-6.24ZM26.74,26.44c-.42,0-.76.34-.76.76s.34.76.76.76h8.99c.42,0,.76-.34.76-.76s-.34-.76-.76-.76h-8.99Z" fill="#1d1e1e" stroke-width="0"/>
    <circle cx="31.24" cy="22.78" r="1.36" fill="#618fff" stroke-width="0"/>
    <circle cx="31.24" cy="31.15" r="1.36" fill="#618fff" stroke-width="0"/>
    <path d="M31.24,24.63c-1.02,0-1.85-.83-1.85-1.85s.83-1.85,1.85-1.85,1.85.83,1.85,1.85-.83,1.85-1.85,1.85ZM31.24,21.9c-.48,0-.87.39-.87.87s.39.87.87.87.87-.39.87-.87-.39-.87-.87-.87Z" fill="#1d1e1e" stroke-width="0"/>
    <path d="M31.24,33c-1.02,0-1.85-.83-1.85-1.85s.83-1.85,1.85-1.85,1.85.83,1.85,1.85-.83,1.85-1.85,1.85ZM31.24,30.27c-.48,0-.87.39-.87.87s.39.87.87.87.87-.39.87-.87-.39-.87-.87-.87Z" fill="#1d1e1e" stroke-width="0"/>
  </g>
</svg>