<svg width="32" height="32" fill="none" xmlns="http://www.w3.org/2000/svg">
    <path d="M16 32c8.837 0 16-7.163 16-16S24.837 0 16 0 0 7.163 0 16s7.163 16 16 16z" fill="#DCDCDC"/>
    <path d="M19.19 11H9.12v13.58h10.07V11z" stroke="#231F20" stroke-width="1.5" stroke-linejoin="round"/>
    <path d="M14.27 11.659a4.6 4.6 0 0 1 4.6-4.6h.44a4.6 4.6 0 0 1 4.6 4.6" stroke="#1E1E1E" stroke-width="1.5" stroke-linejoin="round"/>
    <path d="M24.999 18.008h-2.19v3.07h2.19v-3.07zM23.908 11.438v6.57M14.158 14.5V18" stroke="#231F20" stroke-width="1.5" stroke-linejoin="round"/>
    <path d="M12.27 16.25a2.41 2.41 0 1 0 3.78 0" stroke="#231F20" stroke-width="1.5" stroke-miterlimit="10"/>
</svg>
