<?xml version="1.0" encoding="UTF-8"?><svg id="a" xmlns="http://www.w3.org/2000/svg" viewBox="0 0 285.16 61.44"><defs><style>.b{fill:#324dc7;}</style></defs><g><path class="b" d="M42.36,24.99l7.35-12.14c.43-.72-.3-1.57-1.07-1.25l-13.12,5.39c-.14,.06-.18,.23-.08,.34l6.58,7.69c.1,.11,.28,.1,.35-.03Z"/><path class="b" d="M13.63,26.08L.57,31.58c-.77,.32-.68,1.45,.13,1.64l13.77,3.35c.14,.04,.28-.08,.27-.23l-.81-10.07c-.01-.15-.17-.24-.3-.18Z"/><path class="b" d="M52.18,43.9L18.34,4.37c-.55-.63-1.59-.2-1.52,.63l4.15,51.88c.07,.83,1.16,1.1,1.6,.38l9.75-15.8c.2-.32,.57-.47,.94-.39l18.07,4.23c.82,.19,1.4-.77,.86-1.41Z"/></g><g><g><path class="b" d="M63.68,57.17V20.62h12.8c4.43,0,7.8,.85,10.09,2.55,2.29,1.7,3.44,4.19,3.44,7.47,0,1.79-.46,3.37-1.38,4.73-.92,1.36-2.2,2.36-3.84,3,1.87,.47,3.35,1.41,4.43,2.84,1.08,1.42,1.62,3.16,1.62,5.22,0,3.51-1.12,6.17-3.36,7.98s-5.44,2.73-9.59,2.76h-14.21Zm7.53-21.24h5.57c3.8-.07,5.7-1.58,5.7-4.54,0-1.66-.48-2.85-1.44-3.58-.96-.73-2.48-1.09-4.56-1.09h-5.27v9.21Zm0,5.32v9.86h6.45c1.77,0,3.16-.42,4.15-1.27,1-.84,1.49-2.01,1.49-3.5,0-3.35-1.73-5.04-5.2-5.1h-6.9Z"/><path class="b" d="M102.64,57.17h-7.28V18.61h7.28V57.17Z"/><path class="b" d="M123.85,54.41c-1.79,2.18-4.27,3.26-7.43,3.26-2.91,0-5.13-.84-6.66-2.51-1.53-1.67-2.31-4.12-2.35-7.35V30.01h7.25v17.57c0,2.83,1.29,4.25,3.86,4.25s4.15-.85,5.07-2.56V30.01h7.28v27.16h-6.83l-.2-2.76Z"/><path class="b" d="M147.82,57.67c-3.98,0-7.22-1.22-9.73-3.66-2.5-2.44-3.75-5.7-3.75-9.76v-.7c0-2.73,.53-5.17,1.58-7.32,1.05-2.15,2.55-3.81,4.48-4.97,1.93-1.16,4.14-1.74,6.61-1.74,3.72,0,6.64,1.17,8.77,3.51,2.13,2.34,3.2,5.67,3.2,9.97v2.96h-17.29c.23,1.77,.94,3.2,2.12,4.27,1.18,1.07,2.67,1.61,4.48,1.61,2.79,0,4.98-1.01,6.55-3.04l3.56,3.99c-1.09,1.54-2.56,2.74-4.42,3.6-1.86,.86-3.92,1.29-6.17,1.29Zm-.83-22.32c-1.44,0-2.61,.49-3.5,1.46-.9,.97-1.47,2.37-1.72,4.18h10.09v-.58c-.03-1.61-.47-2.86-1.3-3.74-.84-.88-2.03-1.32-3.57-1.32Z"/><path class="b" d="M187.58,43.84c0,4.35-.93,7.74-2.79,10.18-1.86,2.44-4.45,3.65-7.78,3.65-2.94,0-5.3-1.13-7.05-3.39l-.33,2.89h-6.53V18.61h7.25v13.83c1.67-1.96,3.87-2.94,6.6-2.94,3.31,0,5.91,1.22,7.79,3.65,1.88,2.44,2.82,5.86,2.82,10.28v.4Zm-7.25-.53c0-2.74-.44-4.75-1.31-6.01-.87-1.26-2.17-1.9-3.89-1.9-2.31,0-3.9,.95-4.77,2.84v10.72c.89,1.91,2.49,2.86,4.82,2.86s3.88-1.15,4.62-3.46c.35-1.1,.53-2.79,.53-5.05Z"/><path class="b" d="M191.54,43.34c0-2.69,.52-5.1,1.56-7.2,1.04-2.11,2.53-3.74,4.48-4.9,1.95-1.15,4.21-1.73,6.79-1.73,3.67,0,6.66,1.12,8.97,3.36,2.32,2.24,3.61,5.29,3.88,9.14l.05,1.86c0,4.17-1.16,7.51-3.49,10.03-2.33,2.52-5.45,3.78-9.36,3.78s-7.04-1.25-9.37-3.77c-2.34-2.51-3.5-5.92-3.5-10.24v-.33Zm7.25,.52c0,2.58,.49,4.55,1.46,5.92,.97,1.37,2.36,2.05,4.17,2.05s3.13-.67,4.12-2.02c.99-1.35,1.48-3.51,1.48-6.47,0-2.53-.49-4.49-1.48-5.88-.99-1.39-2.38-2.09-4.17-2.09s-3.15,.69-4.12,2.07c-.97,1.38-1.46,3.52-1.46,6.42Z"/><path class="b" d="M220.09,43.34c0-2.69,.52-5.1,1.56-7.2,1.04-2.11,2.53-3.74,4.48-4.9s4.21-1.73,6.79-1.73c3.67,0,6.66,1.12,8.97,3.36,2.32,2.24,3.61,5.29,3.88,9.14l.05,1.86c0,4.17-1.16,7.51-3.49,10.03-2.33,2.52-5.45,3.78-9.36,3.78s-7.04-1.25-9.37-3.77c-2.34-2.51-3.5-5.92-3.5-10.24v-.33Zm7.25,.52c0,2.58,.49,4.55,1.46,5.92s2.36,2.05,4.17,2.05,3.13-.67,4.12-2.02,1.48-3.51,1.48-6.47c0-2.53-.49-4.49-1.48-5.88-.99-1.39-2.38-2.09-4.17-2.09s-3.15,.69-4.12,2.07c-.97,1.38-1.46,3.52-1.46,6.42Z"/><path class="b" d="M259.13,46.28l-2.61,2.61v8.28h-7.25V18.61h7.25v21.36l1.41-1.81,6.95-8.16h8.71l-9.82,11.32,10.67,15.84h-8.33l-6.98-10.89Z"/></g><g><path class="b" d="M278.91,19.3h-1.34v3.65h-.9v-3.65h-1.32v-.73h3.57v.73Z"/><path class="b" d="M281.22,18.57l1.12,3.17,1.12-3.17h1.18v4.38h-.9v-1.2l.09-2.06-1.18,3.26h-.62l-1.18-3.26,.09,2.06v1.2h-.9v-4.38h1.18Z"/></g></g></svg>