<?xml version="1.0" encoding="UTF-8"?>
<svg id="Layer_1" data-name="Layer 1" xmlns="http://www.w3.org/2000/svg" viewBox="0 0 48 48">
  <rect x="4.03" y=".34" width="39.98" height="39.98" rx="4.59" ry="4.59" fill="#f1eaf3" stroke-width="0"/>
  <path d="M39.32,40.81H8.72c-2.85,0-5.18-2.32-5.18-5.18V5.03C3.54,2.17,5.86-.15,8.72-.15h30.61c2.85,0,5.18,2.32,5.18,5.18v30.61c0,2.85-2.32,5.18-5.18,5.18ZM8.72.83c-2.32,0-4.2,1.88-4.2,4.2v30.61c0,2.32,1.88,4.2,4.2,4.2h30.61c2.32,0,4.2-1.88,4.2-4.2V5.03c0-2.32-1.88-4.2-4.2-4.2H8.72Z" fill="#1d1e1e" stroke-width="0"/>
  <path d="M39.32.34H8.72c-2.58,0-4.69,2.11-4.69,4.69v4.17c0-2.58,2.11-4.69,4.69-4.69h30.61c2.58,0,4.69,2.11,4.69,4.69v-4.17c0-2.58-2.11-4.69-4.69-4.69Z" fill="#fff" stroke-width="0"/>
  <path d="M39.32,40.81H8.72c-2.85,0-5.18-2.32-5.18-5.18V5.03C3.54,2.17,5.86-.15,8.72-.15h30.61c2.85,0,5.18,2.32,5.18,5.18v30.61c0,2.85-2.32,5.18-5.18,5.18ZM8.72.83c-2.32,0-4.2,1.88-4.2,4.2v30.61c0,2.32,1.88,4.2,4.2,4.2h30.61c2.32,0,4.2-1.88,4.2-4.2V5.03c0-2.32-1.88-4.2-4.2-4.2H8.72Z" fill="#1d1e1e" stroke-width="0"/>
  <path d="M39.28,40.81H8.68c-2.85,0-5.18-2.32-5.18-5.18V5.03C3.5,2.17,5.82-.15,8.68-.15h30.61c2.85,0,5.18,2.32,5.18,5.18v30.61c0,2.85-2.32,5.18-5.18,5.18ZM8.68.83c-2.32,0-4.2,1.88-4.2,4.2v30.61c0,2.32,1.88,4.2,4.2,4.2h30.61c2.32,0,4.2-1.88,4.2-4.2V5.03c0-2.32-1.88-4.2-4.2-4.2H8.68Z" fill="#1d1e1e" stroke-width="0"/>
  <path d="M39.28,40.81H8.68c-2.85,0-5.18-2.32-5.18-5.18V5.03C3.5,2.17,5.82-.15,8.68-.15h30.61c2.85,0,5.18,2.32,5.18,5.18v30.61c0,2.85-2.32,5.18-5.18,5.18ZM8.68.83c-2.32,0-4.2,1.88-4.2,4.2v30.61c0,2.32,1.88,4.2,4.2,4.2h30.61c2.32,0,4.2-1.88,4.2-4.2V5.03c0-2.32-1.88-4.2-4.2-4.2H8.68Z" fill="#1d1e1e" stroke-width="0"/>
  <path d="M39.3,40.82H8.7c-2.85,0-5.18-2.32-5.18-5.18V5.03C3.52,2.18,5.84-.14,8.7-.14h30.61c2.85,0,5.18,2.32,5.18,5.18v30.61c0,2.85-2.32,5.18-5.18,5.18ZM8.7.83c-2.32,0-4.2,1.88-4.2,4.2v30.61c0,2.32,1.88,4.2,4.2,4.2h30.61c2.32,0,4.2-1.88,4.2-4.2V5.03c0-2.32-1.88-4.2-4.2-4.2H8.7Z" fill="#1d1e1e" stroke-width="0"/>
  <path d="M39.3,40.81H8.7c-2.85,0-5.18-2.32-5.18-5.18V5.03C3.52,2.18,5.84-.15,8.7-.15h30.61c2.85,0,5.18,2.32,5.18,5.18v30.61c0,2.85-2.32,5.18-5.18,5.18ZM8.7.83c-2.32,0-4.2,1.88-4.2,4.2v30.61c0,2.32,1.88,4.2,4.2,4.2h30.61c2.32,0,4.2-1.88,4.2-4.2V5.03c0-2.32-1.88-4.2-4.2-4.2H8.7Z" fill="#1d1e1e" stroke-width="0"/>
  <path d="M20.1,29.74c-.37,0-.75-.07-1.09-.21s-.66-.35-.92-.62l-5.69-5.69c-.51-.53-.81-1.25-.8-2,0-.75.3-1.46.84-1.99.52-.52,1.24-.83,1.99-.84.75,0,1.46.28,2,.8l3.68,3.68,11.6-11.6c.54-.49,1.25-.76,1.99-.75s1.43.31,1.95.84c.51.51.82,1.22.83,1.95.02.74-.25,1.44-.75,1.99l-13.6,13.6c-.26.26-.58.47-.92.62-.34.14-.72.21-1.09.21h-.01Z" fill="#702f8a" stroke-width="0"/>
  <path d="M20.09,30.29c-.44,0-.88-.09-1.29-.26s-.79-.42-1.1-.74l-5.69-5.69c-.63-.66-.97-1.5-.96-2.4,0-.9.36-1.74,1-2.37.64-.64,1.48-.99,2.37-1h.03c.89,0,1.73.33,2.36.95l3.3,3.3,11.2-11.2c.67-.62,1.52-.93,2.39-.91.88.02,1.71.37,2.33,1,.63.63.98,1.45.99,2.33.02.88-.29,1.73-.89,2.37l-13.61,13.61c-.31.31-.69.57-1.1.74s-.85.26-1.29.26h-.04ZM20.09,29.18h0c.3,0,.6-.06.87-.17.28-.12.52-.28.75-.49l13.6-13.6c.38-.42.6-.99.59-1.58s-.25-1.15-.67-1.56c-.42-.42-.98-.66-1.56-.68-.59,0-1.16.2-1.59.6l-11.58,11.58c-.1.1-.24.16-.39.16h0c-.15,0-.29-.06-.39-.16l-3.68-3.68c-.42-.41-.97-.64-1.6-.64s-1.17.24-1.6.67c-.42.42-.67,1-.67,1.6s.22,1.18.65,1.61l5.68,5.68c.21.21.46.38.75.49.27.11.57.17.87.17h0Z" fill="#1d1e1e" stroke-width="0"/>
</svg>