<?xml version="1.0" encoding="UTF-8"?>
<svg id="Layer_1" data-name="Layer 1" xmlns="http://www.w3.org/2000/svg" viewBox="0 0 48 48">
  <path id="Initiator" d="M36.01,28.95c0-6.66-5.4-12.05-12.05-12.05s-12.05,5.4-12.05,12.05c0,5.65,3.89,10.4,9.14,11.7v-8.02h-2.49v-3.68h2.49v-1.59c0-4.1,1.86-6,5.88-6,.76,0,2.08.15,2.62.3v3.34c-.28-.03-.78-.04-1.39-.04-1.98,0-2.74.75-2.74,2.7v1.3h3.94l-.68,3.68h-3.26v8.28c5.97-.72,10.59-5.8,10.59-11.97Z" fill="#1d1e1e" stroke-width="0"/>
  <path id="F" d="M28.68,32.63l.68-3.68h-3.94v-1.3c0-1.95.76-2.7,2.74-2.7.61,0,1.11.01,1.39.04v-3.34c-.54-.15-1.86-.3-2.62-.3-4.03,0-5.88,1.9-5.88,6v1.59h-2.49v3.68h2.49v8.02c.93.23,1.91.35,2.91.35.49,0,.98-.03,1.46-.09v-8.28h3.26Z" fill="#1d1e1e" stroke-width="0"/>
  <path id="F-2" data-name="F" d="M28.68,32.63l.68-3.68h-3.94v-1.3c0-1.95.76-2.7,2.74-2.7.61,0,1.11.01,1.39.04v-3.34c-.54-.15-1.86-.3-2.62-.3-4.03,0-5.88,1.9-5.88,6v1.59h-2.49v3.68h2.49v8.02c.93.23,1.91.35,2.91.35.49,0,.98-.03,1.46-.09v-8.28h3.26Z" fill="#fff" stroke-width="0"/>
</svg>