<?xml version="1.0" encoding="UTF-8"?>
<svg id="Layer_1" data-name="Layer 1" xmlns="http://www.w3.org/2000/svg" viewBox="0 0 48 48">
  <path d="M13.73,23.76H5.59c-.24,0-.47.1-.64.27s-.27.4-.27.64v15.32h9.95v-15.32c0-.12-.02-.24-.07-.35-.05-.11-.11-.21-.2-.29s-.18-.15-.29-.2c-.11-.05-.23-.07-.35-.07h.01Z" fill="#e6f1fa" stroke-width="0"/>
  <path d="M13.73,23.76H5.59c-.24,0-.47.1-.64.27s-.27.4-.27.64v1.53h9.95v-1.53c0-.24-.1-.47-.27-.64s-.4-.27-.64-.27h.01Z" fill="#fff" stroke-width="0"/>
  <path d="M14.63,40.52H4.68c-.28,0-.51-.23-.51-.51v-15.32c0-.37.15-.74.42-1s.62-.42,1-.42h8.14c.19,0,.37.04.55.11.17.07.32.17.46.31s.24.29.31.47c.07.17.11.35.11.54v15.32c0,.28-.23.51-.51.51h-.02ZM5.19,39.49h8.93v-14.81c0-.05,0-.1-.03-.15-.02-.05-.05-.09-.09-.13-.04-.04-.08-.06-.12-.08-.05-.02-.1-.03-.15-.03H5.59c-.11,0-.2.04-.28.11s-.12.17-.12.28v14.81Z" fill="#1d1e1e" stroke-width="0"/>
  <path d="M27.87,7.53h-8.14c-.24,0-.47.1-.64.27s-.27.4-.27.64v31.57h9.95V8.44c0-.24-.1-.47-.27-.64s-.4-.27-.64-.27h.01Z" fill="#009cde" stroke-width="0"/>
  <path d="M27.87,7.53h-8.14c-.24,0-.47.1-.64.27s-.27.4-.27.64v1.53h9.95v-1.53c0-.24-.1-.47-.27-.64s-.4-.27-.64-.27h.01Z" fill="#71c5e8" stroke-width="0"/>
  <path d="M28.77,40.52h-9.95c-.28,0-.51-.23-.51-.51V8.44c0-.37.15-.74.42-1,.27-.27.62-.42,1-.42h8.14c.37,0,.74.15,1,.42.26.26.42.63.42,1v31.57c0,.28-.23.51-.51.51h-.01ZM19.33,39.49h8.92V8.44c0-.1-.04-.2-.12-.28-.07-.07-.17-.12-.28-.12h-8.14c-.11,0-.2.04-.28.11s-.12.17-.12.28v31.06h.02Z" fill="#1d1e1e" stroke-width="0"/>
  <path d="M42.01,12.77h-8.14c-.24,0-.47.1-.64.27s-.27.4-.27.64v26.33h9.95V13.67c0-.24-.1-.47-.27-.64s-.4-.27-.64-.27h.01Z" fill="#e6f1fa" stroke-width="0"/>
  <path d="M42.01,12.77h-8.14c-.24,0-.47.1-.64.27s-.27.4-.27.64v1.53h9.95v-1.53c0-.24-.1-.47-.27-.64s-.4-.27-.64-.27h.01Z" fill="#fff" stroke-width="0"/>
  <path d="M42.92,40.52h-9.95c-.28,0-.51-.23-.51-.51V13.67c0-.37.15-.74.42-1,.27-.27.62-.42,1-.42h8.13c.38,0,.74.15,1.01.42.26.26.41.63.41,1v26.33c0,.28-.23.51-.51.51h0ZM33.47,39.49h8.92V13.67c0-.1-.04-.2-.11-.28s-.17-.12-.28-.12h-8.13c-.11,0-.2.04-.28.11-.07.07-.12.17-.12.28v25.82h0Z" fill="#1d1e1e" stroke-width="0"/>
  <path d="M47.48,40.52H.5c-.28,0-.51-.23-.51-.51V.51C-.02.23.21,0,.5,0s.51.23.51.51v38.98h46.47c.28,0,.51.23.51.51s-.23.51-.51.51h0Z" fill="#1d1e1e" stroke-width="0"/>
</svg>