<svg width="48" height="54" viewBox="0 0 48 54" fill="none" xmlns="http://www.w3.org/2000/svg">
    <g clip-path="url(#mbhghu2fga)">
        <path d="M24 53.998c13.255 0 24-10.745 24-24s-10.745-24-24-24-24 10.745-24 24 10.745 24 24 24z" fill="#F5F7FC"/>
        <path d="M24 7.395c12.464 0 22.603 10.14 22.603 22.603 0 12.464-10.139 22.603-22.603 22.603-12.464 0-22.603-10.139-22.603-22.603C1.397 17.534 11.536 7.395 24 7.395zm0-1.407c-13.252 0-24 10.748-24 24 0 13.253 10.748 24 24 24s24-10.747 24-24c0-13.252-10.748-24-24-24z" fill="#E6EDF8"/>
        <path d="M34.557 46.373c0-.898-4.73-1.627-10.558-1.627-5.827 0-10.558.729-10.558 1.627s4.73 1.626 10.558 1.626c5.828 0 10.558-.728 10.558-1.626z" fill="#C7DBFF"/>
        <path d="M10.098 4.191H37.9v36.325H10.098V4.19z" fill="#E6EDF8"/>
        <path d="M37.9 41.005H10.098a.49.49 0 0 1-.489-.49V4.192c0-.27.22-.489.49-.489H37.9c.27 0 .49.22.49.49v36.324a.49.49 0 0 1-.49.489zm-27.313-.968h26.824V4.68H10.587v35.357z" fill="#1E1E1E"/>
        <path d="M13.441 6.417h21.136v31.135H13.441V6.417z" fill="#fff"/>
        <path d="M34.567 38.04H13.441a.49.49 0 0 1-.489-.488V6.417c0-.27.22-.49.49-.49h21.125c.27 0 .49.22.49.49v31.135a.49.49 0 0 1-.49.489zm-20.647-.967h20.148V6.906H13.92v30.167z" fill="#1E1E1E"/>
        <path d="M26.764 3.453c0-.06.02-.12.02-.19 0-.738-.29-1.437-.809-1.966a2.796 2.796 0 0 0-3.932 0 2.779 2.779 0 0 0-.808 1.966c0 .06.01.12.02.19h-3.353a.774.774 0 0 0-.519.22.773.773 0 0 0-.22.518v2.964c0 .2.08.39.22.519.14.14.33.22.52.22h12.234c.2 0 .389-.08.518-.22.14-.14.22-.33.22-.519V4.191a.773.773 0 0 0-.22-.519.774.774 0 0 0-.518-.22h-3.373z" fill="#618FFF"/>
        <path d="M30.855 4.191c0-.2-.08-.379-.22-.519a.742.742 0 0 0-.518-.22h-3.363c0-.06.02-.119.02-.189 0-.738-.29-1.437-.809-1.966a2.796 2.796 0 0 0-3.932 0 2.779 2.779 0 0 0-.808 1.966c0 .06.01.12.02.19h-3.353a.775.775 0 0 0-.519.22.773.773 0 0 0-.22.518v.739h13.712V4.19h-.01z" fill="#C7DBFF"/>
        <path d="M17.892 8.383a1.223 1.223 0 0 1-1.227-1.228V4.191c0-.16.03-.32.09-.469.06-.15.15-.29.269-.399.12-.12.25-.2.4-.27.149-.06.309-.09.468-.09h2.864c.07-.758.4-1.456.938-2.005A3.245 3.245 0 0 1 24.01 0a3.262 3.262 0 0 1 3.254 2.964h2.874c.16 0 .319.03.469.09.15.06.28.15.399.27.11.109.2.249.27.398.06.15.09.31.09.47v2.963c0 .32-.13.639-.36.868-.23.23-.54.36-.868.36H17.892zm-.01-4.441s-.07 0-.1.02a.236.236 0 0 0-.14.14c-.01.03-.02.06-.02.1v2.963c0 .07.03.13.07.18.04.05.11.07.18.07h12.235c.07 0 .13-.03.18-.07.05-.04.07-.11.07-.18V4.201s0-.07-.02-.1a.217.217 0 0 0-.05-.08c-.03-.03-.05-.04-.09-.06-.03-.01-.06-.02-.1-.02h-3.363c-.13 0-.26-.06-.35-.149a.487.487 0 0 1-.13-.36c0-.04 0-.079.01-.109 0-.649-.229-1.227-.668-1.656-.868-.869-2.385-.869-3.243 0a2.28 2.28 0 0 0-.669 1.616c.01.08.01.12.02.15 0 .13-.04.27-.13.36-.09.099-.22.149-.349.149h-3.353.01z" fill="#1E1E1E"/>
        <path d="M17.303 15.178c0 .21.08.42.24.57.15.149.36.239.569.239.21 0 .419-.08.569-.24.15-.15.239-.36.239-.569 0-.21-.08-.419-.24-.568a.818.818 0 0 0-.568-.24c-.21 0-.42.08-.57.24-.149.16-.239.359-.239.568z" fill="#618FFF"/>
        <path d="M30.546 15.667h-8.892a.49.49 0 0 1 0-.978h8.892a.49.49 0 0 1 0 .978z" fill="#1E1E1E"/>
        <path d="M17.303 20.148c0 .21.08.42.24.569.15.15.36.24.569.24.21 0 .419-.08.569-.24.15-.15.239-.36.239-.569 0-.21-.08-.42-.24-.569a.818.818 0 0 0-.568-.24c-.21 0-.42.08-.57.24-.149.16-.239.36-.239.569z" fill="#618FFF"/>
        <path d="M30.546 20.637h-8.892a.49.49 0 0 1 0-.978h8.892a.49.49 0 0 1 0 .978z" fill="#1E1E1E"/>
        <path d="M17.303 25.128c0 .21.08.419.24.569.15.15.36.239.569.239.21 0 .419-.08.569-.24.15-.15.239-.359.239-.568 0-.21-.08-.42-.24-.57a.818.818 0 0 0-.568-.239c-.21 0-.42.08-.57.24-.149.15-.239.36-.239.569z" fill="#618FFF"/>
        <path d="M30.546 25.607h-8.892a.49.49 0 0 1 0-.978h8.892a.49.49 0 0 1 0 .978z" fill="#1E1E1E"/>
        <path d="M17.303 30.097c0 .21.08.42.24.57.15.149.36.239.569.239.21 0 .419-.08.569-.24.15-.15.239-.36.239-.569 0-.21-.08-.419-.24-.569a.818.818 0 0 0-.568-.239c-.21 0-.42.08-.57.24-.149.15-.239.359-.239.568z" fill="#618FFF"/>
        <path d="M30.546 30.576h-8.892a.49.49 0 0 1 0-.978h8.892a.49.49 0 0 1 0 .978z" fill="#1E1E1E"/>
    </g>
    <defs>
        <clipPath id="mbhghu2fga">
            <path fill="#fff" d="M0 0h48v54H0z"/>
        </clipPath>
    </defs>
</svg>
