<?xml version="1.0" encoding="UTF-8"?>
<svg id="Layer_1" data-name="Layer 1" xmlns="http://www.w3.org/2000/svg" viewBox="0 0 48 48">
  <path d="M6.06,15.48l14.42-3.33,3.19,13.83-14.42,3.33-3.19-13.84h0Z" fill="#71c5e8" stroke-width="0"/>
  <path d="M22.07,19.06l1.39,6.02c.03.12.03.24.01.36s-.06.23-.13.34c-.06.1-.15.19-.24.26-.1.06-.21.12-.33.14l-12.64,2.92c-.12.03-.24.04-.36.01-.12-.02-.23-.06-.33-.13-.1-.06-.19-.15-.26-.25-.07-.1-.12-.21-.15-.32l-1.39-6.02,14.42-3.33h.01Z" fill="#009cde" stroke-width="0"/>
  <path d="M9.25,29.78c-.09,0-.17-.02-.25-.07-.11-.07-.18-.17-.21-.29l-3.19-13.84c-.03-.12,0-.25.06-.35s.17-.18.29-.21l14.42-3.33c.26-.06.5.1.56.35l3.19,13.83c.06.25-.1.5-.35.56l-14.42,3.33s-.07.01-.11.01h.01ZM6.62,15.83l2.98,12.92,13.5-3.12-2.98-12.92-13.5,3.12Z" fill="#1d1e1e" stroke-width="0"/>
  <path d="M46.19,27.2c.04.16.03.34-.02.49-.05.16-.15.3-.28.42-.13.11-.28.18-.45.2-.17.03-.34,0-.49-.06-6.17-2.61-10.67-4.17-17.37-3.56l-4.12.39-2.78-12.05,3.86-1.46c6.28-2.39,9.64-5.76,14.05-10.81.11-.13.25-.22.42-.27.16-.05.33-.06.49-.01.16.04.31.13.43.25s.2.27.24.44l6.02,26.04h0Z" fill="#fff" stroke-width="0"/>
  <path d="M43.18,14.19l3.01,13.03c.04.16.03.34-.02.49-.05.16-.15.3-.28.42-.13.11-.28.18-.45.2-.17.03-.33,0-.49-.06-6.17-2.61-10.67-4.17-17.37-3.56l-4.12.39-1.39-6.02,21.1-4.88h.01Z" fill="#e6f1fa" stroke-width="0"/>
  <path d="M45.3,28.8c-.18,0-.35-.03-.52-.1-5.99-2.53-10.41-4.14-17.15-3.53l-4.11.39c-.23.01-.45-.13-.5-.36l-2.78-12.05c-.05-.23.07-.46.29-.54l3.86-1.46c6.32-2.4,9.59-5.79,13.86-10.68.17-.19.39-.33.63-.41.25-.08.51-.08.75-.02.25.06.47.19.64.37.17.18.3.41.36.66l6.02,26.04c.06.25.05.51-.03.75-.07.23-.21.45-.41.62-.21.17-.44.27-.68.32-.07.01-.15.02-.22.02v-.02ZM30.36,24.1c5.48,0,9.68,1.58,14.78,3.73.07.03.15.04.23.03.09-.01.16-.05.23-.1.05-.05.1-.12.13-.19.03-.08.03-.17.01-.24h0L39.71,1.27c-.02-.08-.06-.16-.11-.21-.06-.06-.13-.1-.21-.12-.08-.02-.16-.02-.24,0s-.15.07-.2.13c-4.22,4.85-7.72,8.47-14.24,10.94l-3.48,1.32,2.6,11.24,3.71-.35c.98-.09,1.92-.13,2.82-.13Z" fill="#1d1e1e" stroke-width="0"/>
  <path d="M6.27,16.37c-1.6.37-2.98,1.36-3.85,2.74-.87,1.39-1.15,3.07-.78,4.66.37,1.6,1.36,2.98,2.75,3.85,1.39.87,3.07,1.15,4.66.78l-2.78-12.05h0Z" fill="#fff" stroke-width="0"/>
  <path d="M8.24,24.92l.81,3.49c-.94.22-1.92.21-2.85-.02-.94-.23-1.81-.68-2.54-1.29-.73-.63-1.31-1.41-1.69-2.31-.38-.89-.54-1.85-.47-2.81.66,1.15,1.67,2.05,2.89,2.58,1.22.53,2.57.65,3.86.36h-.01Z" fill="#e6f1fa" stroke-width="0"/>
  <path d="M7.65,29.04c-1.23,0-2.44-.34-3.51-1.01-1.48-.92-2.56-2.43-2.96-4.14-.4-1.73-.1-3.51.84-5.02.94-1.5,2.41-2.55,4.14-2.95.12-.03.25,0,.35.06.11.07.18.17.21.29l2.78,12.05c.03.12,0,.25-.06.35-.07.11-.17.18-.29.21-.5.11-1,.17-1.5.17ZM5.92,16.96c-1.29.41-2.38,1.26-3.1,2.41-.81,1.3-1.06,2.83-.72,4.31.34,1.47,1.26,2.76,2.54,3.56,1.14.71,2.51,1,3.85.81l-2.56-11.09h-.01Z" fill="#1d1e1e" stroke-width="0"/>
  <path d="M20.51,29.53l-4.68,2.86c-.25.15-.53.24-.82.27-.29.02-.58-.03-.85-.14s-.5-.29-.69-.51c-.19-.23-.32-.49-.38-.77l-.41-1.78,8.02-1.86.22.94c.04.19.03.39-.05.56-.07.18-.2.32-.37.43h.01Z" fill="#fff" stroke-width="0"/>
  <path d="M12.92,30.52l-.24-1.06,8.02-1.86.22.94s.02.08.02.12l-8.02,1.86Z" fill="#e6f1fa" stroke-width="0"/>
  <path d="M14.89,33.13c-.31,0-.62-.06-.9-.18-.33-.14-.63-.36-.87-.64-.24-.29-.4-.61-.48-.97l-.41-1.78c-.03-.12,0-.25.06-.35s.17-.18.29-.21l8.02-1.86c.12-.03.25,0,.35.06.11.07.18.17.21.29l.22.94c.07.29.04.58-.07.85-.11.26-.3.48-.55.64h0l-4.68,2.86c-.29.18-.64.3-1.02.33h-.17v.02ZM13.25,29.81l.31,1.32c.05.21.14.4.29.57.14.16.32.29.51.37.2.08.41.12.63.1s.43-.09.6-.2l4.68-2.86c.08-.06.15-.13.19-.22.04-.08.04-.18.02-.28l-.11-.48-7.11,1.65v.03ZM20.51,29.53" fill="#1d1e1e" stroke-width="0"/>
  <path d="M20.51,29.53l2.55,2.32c.14.18.23.4.26.63s0,.46-.09.68c-.06.15-.08.32-.04.48.04.15.12.3.24.42l2.89,2.64c.09.08.17.19.22.3.05.12.08.25.08.37,0,.13-.03.25-.08.37-.05.11-.13.22-.22.3l-2.24,2.02c-.19.17-.41.3-.65.38s-.5.11-.75.08-.5-.11-.72-.23-.41-.29-.57-.49l-5.56-7.41,4.68-2.86Z" fill="#fff" stroke-width="0"/>
  <path d="M20.51,29.53l1.37,1.25c-.13.12-.27.22-.42.31l-4.53,2.77-1.1-1.47,4.68-2.86Z" fill="#e6f1fa" stroke-width="0"/>
  <path d="M22.84,41h-.2c-.33-.04-.64-.13-.91-.29-.27-.15-.51-.36-.71-.62l-5.56-7.41c-.08-.11-.11-.24-.09-.37.02-.13.1-.24.22-.31l4.68-2.86c.18-.11.41-.09.56.05l2.55,2.32c.25.31.37.6.41.91.04.32,0,.63-.12.92-.02.06-.03.13-.02.19.01.06.05.13.1.17l2.89,2.64c.13.12.25.28.33.45.08.19.12.38.12.57s-.04.38-.12.56-.2.34-.34.46l-2.24,2.02c-.23.21-.5.37-.81.47-.24.08-.49.12-.74.12h0ZM16.52,32.52l5.25,7c.11.15.25.27.42.36.17.1.35.16.55.18.19.01.37,0,.56-.06.18-.06.35-.16.48-.28l2.24-2.02s.09-.09.11-.15c.02-.05.04-.12.04-.18s-.01-.13-.04-.19c-.02-.05-.06-.1-.1-.14l-2.89-2.64c-.19-.18-.33-.41-.38-.66-.06-.26-.03-.53.07-.77.06-.13.08-.28.06-.43-.02-.14-.08-.28-.17-.4l-2.24-2.03-3.94,2.4h-.02Z" fill="#1d1e1e" stroke-width="0"/>
  <path d="M11.9,26.84l8.32-1.92c.12-.03.24-.04.36-.01.12.02.23.06.33.13.1.06.19.15.26.25s.12.2.15.32l.3,1.32c.03.12,0,.24-.06.34s-.17.18-.28.2l-9.22,2.13c-.12.03-.24,0-.34-.06-.1-.07-.18-.17-.2-.29l-.3-1.32c-.03-.11-.03-.24-.01-.35.02-.12.06-.24.13-.34.06-.11.15-.19.24-.26.1-.07.21-.12.33-.15h-.01Z" fill="#fff" stroke-width="0"/>
  <path d="M11.96,30.09c-.17,0-.34-.05-.49-.14-.22-.15-.36-.35-.41-.58l-.31-1.32c-.04-.17-.05-.36-.02-.54s.1-.36.2-.51c.08-.14.21-.27.36-.38.15-.11.31-.18.49-.22h0l8.32-1.92c.18-.04.37-.05.54-.02.18.03.35.1.5.19s.29.22.39.37c.11.15.18.32.22.49l.3,1.31c.05.24.01.48-.11.69-.14.22-.35.36-.58.42l-9.22,2.13c-.07.02-.14.02-.21.02h.03ZM12,27.3c-.06.01-.11.04-.16.07-.05.04-.09.08-.11.12-.03.05-.06.11-.07.17-.01.05,0,.12,0,.17l.31,1.32,9.2-2.14-.31-1.3c-.01-.06-.03-.11-.07-.16-.03-.05-.08-.09-.13-.12s-.11-.05-.17-.07h-.16l-8.32,1.92v.02Z" fill="#1d1e1e" stroke-width="0"/>
  <path d="M44.02,17.82l2.06-1.76c.17-.17.3-.37.38-.6.07-.23.09-.46.05-.7l-.59-2.55c-.07-.23-.19-.44-.35-.61-.17-.17-.37-.3-.6-.37l-2.62-.68,1.68,7.26h-.01Z" fill="#e6f1fa" stroke-width="0"/>
  <path d="M44.02,18.29s-.1,0-.15-.02c-.16-.05-.27-.18-.31-.34l-1.68-7.26c-.04-.16.01-.33.13-.44.12-.11.28-.16.44-.12l2.62.68c.33.11.6.28.82.5s.38.5.47.8l.6,2.58c.06.33.03.65-.06.95-.1.29-.26.56-.49.79l-2.08,1.78c-.09.07-.2.11-.31.11h0ZM42.97,11.21l1.33,5.76,1.47-1.26c.1-.1.18-.24.23-.39.05-.15.06-.31.03-.47l-.59-2.53c-.04-.13-.12-.27-.23-.38s-.26-.2-.42-.26l-1.84-.47h.02Z" fill="#1d1e1e" stroke-width="0"/>
</svg>