<?xml version="1.0" encoding="UTF-8"?>
<svg id="Layer_1" data-name="Layer 1" xmlns="http://www.w3.org/2000/svg" viewBox="0 0 48 48">
  <path d="M45.56,31.05H15.1c-.38,0-.73-.15-1-.42-.27-.27-.42-.62-.42-1V11.57c0-.43.17-.84.48-1.15s.71-.48,1.15-.48h30.05c.43,0,.84.17,1.15.48.31.31.48.71.48,1.15v18.07c0,.38-.15.73-.42,1s-.62.42-1,.42h0Z" fill="#fff" stroke-width="0"/>
  <path d="M35,21.31l11.97-8.15v-1.6c0-.26-.06-.51-.18-.73l-13.34,9.1,1.55,1.39Z" fill="#e6f1fa" stroke-width="0"/>
  <path d="M25.67,21.32l-11.98-8.16v-1.59c0-.26.06-.51.18-.73l13.35,9.11-1.55,1.39h0Z" fill="#e6f1fa" stroke-width="0"/>
  <path d="M45.56,31.6H15.1c-.53,0-1.01-.21-1.38-.58-.37-.37-.58-.86-.58-1.38V11.57c0-.58.23-1.12.63-1.53.41-.41.96-.63,1.53-.63h30.05c.58,0,1.13.23,1.53.63.41.41.63.95.63,1.53v18.07c0,.53-.2,1.01-.58,1.38-.37.37-.86.58-1.38.58ZM15.31,10.49c-.29,0-.57.12-.76.32s-.32.48-.32.76v18.07c0,.23.09.45.26.62s.39.26.62.26h30.46c.23,0,.45-.09.62-.26s.26-.39.26-.62V11.57c0-.29-.11-.56-.32-.76-.2-.2-.48-.32-.76-.32H15.31Z" fill="#1d1e1e" stroke-width="0"/>
  <path d="M14.91,31.55c-.15,0-.3-.06-.41-.18-.2-.23-.18-.57.04-.76l12.3-11.07c.22-.2.57-.18.76.04.2.23.18.57-.04.76l-12.3,11.07c-.1.09-.24.14-.37.14h0Z" fill="#1d1e1e" stroke-width="0"/>
  <path d="M45.74,31.55c-.13,0-.26-.05-.37-.14l-12.29-11.08c-.22-.2-.24-.55-.04-.76.2-.23.55-.24.76-.04l12.29,11.08c.22.2.24.55.04.76-.11.12-.26.18-.41.18h0Z" fill="#1d1e1e" stroke-width="0"/>
  <path d="M30.33,22.26c-.42,0-.81-.12-1.16-.34l-15.61-10.64c-.23-.15-.3-.46-.18-.69.18-.36.46-.65.79-.86s.73-.32,1.13-.32h30.05c.4,0,.78.11,1.13.32.34.21.62.51.79.86.13.26.04.57-.2.71l-15.57,10.61c-.37.23-.76.35-1.18.35h0ZM14.64,10.7l15.12,10.31c.32.2.79.21,1.15,0l15.1-10.3s-.06-.05-.09-.07c-.17-.11-.37-.16-.57-.16H15.31c-.2,0-.4.06-.57.16-.03.02-.06.04-.09.07h0Z" fill="#1d1e1e" stroke-width="0"/>
  <path d="M17.66,23.19H7.5c-.3,0-.55-.25-.55-.55s.25-.55.55-.55h10.15c.3,0,.55.25.55.55s-.25.55-.55.55h0Z" fill="#009cde" stroke-width="0"/>
  <path d="M8.39,27.61H3.98c-.3,0-.55-.25-.55-.55s.25-.55.55-.55h4.41c.3,0,.55.25.55.55s-.25.55-.55.55Z" fill="#009cde" stroke-width="0"/>
  <path d="M19.86,27.61h-7.06c-.3,0-.55-.25-.55-.55s.25-.55.55-.55h7.06c.3,0,.55.25.55.55s-.25.55-.55.55Z" fill="#009cde" stroke-width="0"/>
  <path d="M3.09,23.19H.45c-.3,0-.55-.25-.55-.55s.25-.55.55-.55h2.65c.3,0,.55.25.55.55s-.25.55-.55.55Z" fill="#009cde" stroke-width="0"/>
</svg>