<?xml version="1.0" encoding="UTF-8"?>
<svg id="Layer_1" data-name="Layer 1" xmlns="http://www.w3.org/2000/svg" viewBox="0 0 48 48">
  <path d="M44.06,22.49H3.94V2.15c0-.47.19-.92.52-1.26.33-.33.78-.52,1.26-.52h36.57c.47,0,.92.19,1.26.52.33.33.52.78.52,1.26v20.34Z" fill="#fff" stroke-width="0"/>
  <path d="M44.61,23.04H3.39V2.15c0-.61.25-1.21.68-1.64.44-.44,1.03-.68,1.64-.68h36.57c.62,0,1.21.24,1.64.68.43.43.68,1.04.68,1.64v20.89ZM4.48,21.95h39.04V2.15c0-.32-.13-.64-.36-.87s-.54-.36-.87-.36H5.72c-.33,0-.64.13-.87.36s-.36.54-.36.87v19.8Z" fill="#1d1e1e" stroke-width="0"/>
  <circle cx="13.52" cy="12.06" r="3.12" fill="#702f8a" stroke-width="0"/>
  <path d="M10.64,24.84v3.49c0,.95-.77,1.73-1.73,1.73h0c-.95,0-1.73-.77-1.73-1.73v-5.62c0-3.2,2.68-5.8,5.99-5.8.53,0,1.03.05,1.48.14,2.13.45,4.34-.24,6.06-1.58l1.87-1.46c.8-.62,1.96-.5,2.61.27h0c.67.79.57,1.98-.21,2.65l-7.07,6.12-1.48,15.37c-.1,1.05-.97,1.84-2.02,1.84h-1.22c-1.09,0-1.97-.84-2.03-1.93l-.53-10.02" fill="#702f8a" stroke-width="0"/>
  <path d="M13.21,18.3c.56,0,1.08.05,1.56.15,2.24.48,4.58-.26,6.39-1.67l1.98-1.54c.74-.58,1.77-.55,2.48.02-.05-.34-.18-.68-.42-.96-.65-.77-1.81-.89-2.61-.27l-1.87,1.46c-1.72,1.34-3.93,2.03-6.06,1.58-.46-.1-.95-.14-1.48-.14-3.26,0-5.9,2.52-5.98,5.65.8-2.47,3.2-4.27,6.03-4.27h-.02Z" fill="#9c59b2" stroke-width="0"/>
  <path d="M14.42,40.83h-1.22c-1.37,0-2.5-1.08-2.57-2.44l-.43-8.17c-.36.25-.81.4-1.29.4-1.26,0-2.28-1.03-2.28-2.28v-5.62c0-3.5,2.94-6.34,6.53-6.34.58,0,1.11.05,1.6.15,1.86.4,3.9-.14,5.62-1.48l1.87-1.46c1.04-.8,2.51-.65,3.37.35.85,1.02.73,2.55-.27,3.42l-6.91,5.98-1.46,15.15c-.13,1.33-1.24,2.33-2.56,2.33h0ZM11.18,28.32l.52,10.01c.04.79.69,1.41,1.49,1.41h1.22c.77,0,1.41-.58,1.48-1.35l1.48-15.37c.01-.14.08-.27.18-.36l7.07-6.12c.55-.48.62-1.33.15-1.89-.47-.55-1.29-.64-1.86-.19l-1.87,1.46c-1.97,1.53-4.34,2.14-6.51,1.68-.41-.09-.86-.13-1.37-.13-3.01,0-5.45,2.35-5.45,5.25v5.62c0,.65.53,1.19,1.19,1.19s1.19-.53,1.19-1.19h0v-3.49c0-.3.24-.54.54-.54s.54.24.54.54v3.48h.02Z" fill="#1d1e1e" stroke-width="0"/>
  <path d="M10.53,12.57c-.09-.44-.08-.9.03-1.35.11-.44.31-.85.59-1.21.28-.35.64-.63,1.05-.83.4-.19.84-.3,1.3-.3s.89.1,1.3.29.76.47,1.06.82c.29.35.49.76.6,1.2.11.44.13.9.04,1.35-.14-.7-.51-1.34-1.06-1.79s-1.24-.7-1.94-.69c-.7,0-1.4.25-1.94.71s-.91,1.1-1.05,1.8" fill="#e3cceb" stroke-width="0"/>
  <path d="M13.52,15.73c-2.02,0-3.66-1.65-3.66-3.67s1.65-3.66,3.66-3.66,3.67,1.65,3.67,3.66-1.65,3.67-3.67,3.67ZM13.52,9.49c-1.42,0-2.57,1.16-2.57,2.57s1.16,2.57,2.57,2.57,2.57-1.16,2.57-2.57-1.16-2.57-2.57-2.57Z" fill="#1d1e1e" stroke-width="0"/>
  <path d="M39,6.17h-17.7c-.3,0-.54-.24-.54-.54s.24-.54.54-.54h17.7c.3,0,.54.24.54.54s-.24.54-.54.54Z" fill="#1d1e1e" stroke-width="0"/>
  <path d="M39,11.98h-8.85c-.3,0-.54-.24-.54-.54s.24-.54.54-.54h8.85c.3,0,.54.24.54.54s-.24.54-.54.54Z" fill="#1d1e1e" stroke-width="0"/>
  <path d="M39,17.79h-8.85c-.3,0-.54-.24-.54-.54s.24-.54.54-.54h8.85c.3,0,.54.24.54.54s-.24.54-.54.54Z" fill="#1d1e1e" stroke-width="0"/>
</svg>