<?xml version="1.0" encoding="UTF-8"?>
<svg id="Layer_1" data-name="Layer 1" xmlns="http://www.w3.org/2000/svg" viewBox="0 0 48 48">
  <path d="M40.01,31.27L15.01,6.25l-5.26,5.26,25.01,25.02,5.26-5.26Z" fill="#e6edf8" stroke-width="0"/>
  <path d="M15.01,6.25l25,25.02-2.63,2.63L12.37,8.9l2.64-2.64Z" fill="#fff" stroke-width="0"/>
  <path d="M40.01,31.28c.16.06,3.94,9.22,3.94,9.22l-9.22-3.95,5.26-5.26h.01Z" fill="#618fff" stroke-width="0"/>
  <path d="M34.75,37.08c-.14,0-.28-.05-.39-.16L9.36,11.91c-.21-.21-.21-.56,0-.77l5.26-5.26c.1-.1.24-.16.39-.16h0c.14,0,.28.06.39.16l25.01,25.02c.1.1.16.24.16.39,0,.14-.06.28-.16.39l-5.26,5.26c-.11.11-.25.16-.39.16h0ZM10.52,11.52l24.24,24.25,4.49-4.49L15.01,7.02l-4.49,4.49Z" fill="#1d1e1e" stroke-width="0"/>
  <path d="M9.75,12.07c-.14,0-.28-.05-.39-.16l-2.63-2.63c-.1-.1-.16-.24-.16-.39,0-.14.06-.28.16-.39l5.27-5.25c.21-.21.56-.21.77,0l2.63,2.63c.1.1.16.24.16.39,0,.14-.06.28-.16.39l-5.26,5.26c-.11.11-.25.16-.39.16h0ZM7.88,8.89l1.86,1.86,4.49-4.49-1.86-1.86-4.49,4.49Z" fill="#1d1e1e" stroke-width="0"/>
  <path d="M5.14,6.91c-.7-.7-1.09-1.64-1.09-2.63s.39-1.93,1.09-2.63c.7-.7,1.64-1.09,2.63-1.09s1.93.39,2.63,1.09l1.97,1.97-5.27,5.26-1.97-1.97h.01Z" fill="#618fff" stroke-width="0"/>
  <path d="M5.14,1.65c.35-.35.76-.62,1.21-.81s.94-.28,1.42-.28.97.1,1.42.28c.45.19.86.46,1.21.81l1.97,1.97-2.64,2.64L5.13,1.66s0-.01.01-.02h0Z" fill="#c7dbff" stroke-width="0"/>
  <path d="M7.1,9.44h0c-.14,0-.28-.06-.39-.16l-1.97-1.97c-.79-.81-1.24-1.89-1.24-3.03s.44-2.21,1.25-3.02c.81-.81,1.88-1.25,3.02-1.25s2.21.45,3.02,1.25l1.97,1.97c.1.1.16.24.16.39s-.06.28-.16.39l-5.27,5.26c-.1.1-.24.16-.39.16h0ZM7.77,1.1c-.85,0-1.65.33-2.25.93-.6.6-.93,1.4-.93,2.25s.34,1.65.93,2.25h0l1.58,1.59,4.5-4.5-1.59-1.59c-.6-.6-1.4-.93-2.25-.93h.01Z" fill="#1d1e1e" stroke-width="0"/>
  <path d="M37.38,33.91l2.63-2.63c.16.05,3.9,9.11,3.94,9.21l-6.57-6.57Z" fill="#c7dbff" stroke-width="0"/>
  <path d="M43.96,41.04c-.07,0-.15-.01-.21-.04l-9.22-3.95c-.17-.07-.29-.22-.32-.4-.03-.18.02-.36.15-.49l5.26-5.26c.15-.15.36-.2.56-.13.31.1.4.14,4.27,9.53.08.21.04.44-.12.6-.1.1-.24.16-.38.16h0ZM35.7,36.35l7.24,3.1c-1.09-2.63-2.47-5.91-3.08-7.26l-4.16,4.16Z" fill="#1d1e1e" stroke-width="0"/>
  <path d="M7.99,31.27L32.99,6.25l5.26,5.26-25.01,25.02-5.26-5.26Z" fill="#618fff" stroke-width="0"/>
  <path d="M32.99,6.25L8,31.28l2.63,2.63,25.01-25.02-2.64-2.64Z" fill="#c7dbff" stroke-width="0"/>
  <path d="M8,31.28c-.16.06-3.94,9.22-3.94,9.22l9.22-3.95-5.26-5.26h-.01Z" fill="#e6edf8" stroke-width="0"/>
  <path d="M13.26,37.08c-.14,0-.28-.05-.39-.16l-5.26-5.26c-.1-.1-.16-.24-.16-.39,0-.14.06-.28.16-.39L32.61,5.87c.2-.2.57-.2.77,0l5.26,5.26c.21.21.21.56,0,.77l-25.01,25.02c-.11.11-.25.16-.39.16h.01ZM8.77,31.28l4.49,4.49,24.23-24.26-4.49-4.49L8.77,31.27h0Z" fill="#1d1e1e" stroke-width="0"/>
  <path d="M38.26,12.07c-.14,0-.28-.06-.39-.16l-5.26-5.26c-.1-.1-.16-.24-.16-.39,0-.14.06-.28.16-.39l2.63-2.63c.21-.21.56-.21.77,0l5.26,5.26c.21.21.21.56,0,.77l-2.63,2.63c-.1.1-.24.16-.39.16h.01ZM33.76,6.26l4.49,4.49,1.86-1.86-4.49-4.49-1.86,1.86Z" fill="#1d1e1e" stroke-width="0"/>
  <path d="M42.87,6.91c.7-.7,1.09-1.64,1.09-2.63s-.39-1.93-1.09-2.63c-.7-.7-1.64-1.09-2.63-1.09s-1.93.39-2.63,1.09l-1.97,1.97,5.27,5.26,1.97-1.97h-.01Z" fill="#e6edf8" stroke-width="0"/>
  <path d="M42.86,1.65c-.35-.35-.76-.62-1.21-.81s-.94-.28-1.42-.28-.97.1-1.42.28c-.45.19-.86.46-1.21.81l-1.97,1.97,2.64,2.64,4.6-4.6s0-.01-.01-.02h0Z" fill="#fff" stroke-width="0"/>
  <path d="M40.9,9.44c-.14,0-.28-.06-.39-.16l-5.27-5.26c-.1-.1-.16-.24-.16-.39,0-.14.06-.28.16-.39l1.97-1.97c.81-.81,1.88-1.25,3.02-1.25s2.21.44,3.02,1.25c.81.8,1.25,1.88,1.25,3.02s-.44,2.21-1.25,3.02l-1.97,1.97c-.1.1-.24.16-.39.16h.01ZM36.39,3.63l4.5,4.49,1.58-1.59h0c.59-.59.93-1.41.93-2.25s-.33-1.65-.93-2.25c-.6-.6-1.4-.93-2.25-.93s-1.65.33-2.24.93l-1.59,1.59h0Z" fill="#1d1e1e" stroke-width="0"/>
  <path d="M10.63,33.91l-2.63-2.63c-.16.05-3.9,9.11-3.94,9.21l6.57-6.57Z" fill="#fff" stroke-width="0"/>
  <path d="M4.04,41.04c-.14,0-.28-.05-.38-.16-.16-.16-.21-.39-.12-.6,3.87-9.39,3.97-9.42,4.27-9.53.2-.07.41-.02.56.13l5.26,5.26c.13.13.18.31.15.49s-.15.33-.32.4l-9.22,3.95c-.07.03-.14.04-.21.04h0ZM8.14,32.2c-.61,1.35-1.98,4.63-3.08,7.26l7.24-3.1-4.16-4.16Z" fill="#1d1e1e" stroke-width="0"/>
</svg>