<?xml version="1.0" encoding="UTF-8"?>
<svg id="Layer_1" data-name="Layer 1" xmlns="http://www.w3.org/2000/svg" viewBox="0 0 48 48">
  <path d="M9.52,39.56c0,.25.1.49.28.67.18.18.42.28.67.28h27.62c.25,0,.49-.1.67-.28s.28-.42.28-.67V8.62L30.95.52H10.47c-.12,0-.25.02-.36.07-.12.05-.22.12-.31.21-.09.09-.16.19-.21.31-.05.12-.07.24-.07.36v38.09Z" fill="#fff" stroke-width="0"/>
  <path d="M38.09,41.03H10.47c-.39,0-.76-.15-1.04-.43s-.43-.64-.43-1.04V1.47c0-.19.04-.38.11-.56s.18-.34.32-.48c.14-.14.3-.25.48-.32C10.09.04,10.28,0,10.47,0h20.48c.14,0,.27.05.37.15l8.1,8.1c.1.1.15.23.15.37v30.95c0,.39-.15.76-.43,1.04-.28.28-.64.43-1.04.43h0ZM10.47,1.03c-.06,0-.11.01-.17.03s-.1.05-.14.1c-.04.04-.07.09-.09.14s-.03.11-.03.17v38.09c0,.12.04.23.13.31.08.08.19.13.31.13h27.62c.12,0,.23-.04.31-.13.08-.08.13-.19.13-.31V8.83l-7.81-7.8H10.47Z" fill="#1d1e1e" stroke-width="0"/>
  <path d="M30.94.52v7.21c0,.24.09.46.26.63s.39.26.63.26h7.21L30.94.52Z" fill="#702f8a" stroke-width="0"/>
  <path d="M39.03,9.13h-7.21c-.37,0-.73-.15-.99-.41s-.41-.62-.41-.99V.52c0-.21.13-.4.32-.48.19-.08.42-.04.56.11l8.1,8.1c.15.15.19.37.11.56s-.27.32-.48.32ZM31.45,1.76v5.96c0,.1.04.19.11.26s.16.11.26.11h5.95l-6.32-6.33Z" fill="#1d1e1e" stroke-width="0"/>
  <path d="M33.77,11.74H14.25c-.32,0-.57.26-.57.57s.26.57.57.57h19.52c.32,0,.57-.26.57-.57s-.26-.57-.57-.57Z" fill="#1d1e1e" stroke-width="0"/>
  <path d="M33.69,17.49H14.54c-.32,0-.57.26-.57.57s.26.57.57.57h19.14c.32,0,.57-.26.57-.57s-.26-.57-.57-.57Z" fill="#1d1e1e" stroke-width="0"/>
  <path d="M33.69,22.53H14.54c-.32,0-.57.26-.57.57s.26.57.57.57h19.14c.32,0,.57-.26.57-.57s-.26-.57-.57-.57Z" fill="#1d1e1e" stroke-width="0"/>
  <circle cx="34.98" cy="35.13" r="8.79" fill="#f1eaf3" stroke-width="0"/>
  <path d="M26.3,36.86c-.25-1.28-.22-2.6.09-3.87.32-1.27.91-2.45,1.73-3.46.83-1.01,1.87-1.83,3.04-2.39,1.18-.56,2.47-.86,3.77-.86s2.6.28,3.78.83,2.23,1.36,3.06,2.36c.83,1,1.44,2.18,1.76,3.44.33,1.26.37,2.58.13,3.87-.4-2.02-1.48-3.84-3.07-5.14s-3.59-2.01-5.64-2c-2.06,0-4.05.73-5.63,2.05-1.58,1.32-2.65,3.14-3.03,5.17" fill="#fff" stroke-width="0"/>
  <path d="M34.99,44.5c-2.5,0-4.85-.97-6.63-2.74-1.77-1.77-2.74-4.12-2.74-6.63s.97-4.85,2.74-6.63c1.77-1.77,4.12-2.74,6.63-2.74s4.85.97,6.63,2.74c1.77,1.77,2.74,4.12,2.74,6.63s-.97,4.85-2.74,6.63-4.12,2.74-6.63,2.74ZM34.99,26.79c-2.19,0-4.34.89-5.89,2.44-1.55,1.55-2.44,3.67-2.44,5.89s.87,4.32,2.44,5.89c1.57,1.57,3.67,2.44,5.89,2.44s4.32-.87,5.89-2.44c1.57-1.57,2.44-3.67,2.44-5.89s-.87-4.32-2.44-5.89c-1.57-1.57-3.67-2.44-5.89-2.44Z" fill="#1d1e1e" stroke-width="0"/>
  <path d="M33.2,39.5c-.17,0-.34-.03-.49-.1-.16-.06-.3-.16-.42-.28l-2.58-2.58c-.23-.24-.36-.57-.36-.91s.14-.66.38-.9.56-.37.9-.38c.34,0,.66.13.91.36l1.67,1.67,5.25-5.25c.25-.22.57-.34.9-.34s.65.14.88.38c.23.23.37.55.38.88,0,.33-.11.65-.34.9l-6.16,6.16c-.12.12-.26.21-.42.28s-.32.1-.49.1h-.01Z" fill="#702f8a" stroke-width="0"/>
  <path d="M33.2,40.02c-.24,0-.47-.05-.69-.14-.22-.09-.42-.22-.59-.39l-2.58-2.57c-.34-.35-.52-.8-.51-1.28,0-.48.19-.92.53-1.26s.79-.52,1.26-.53c.48,0,.93.18,1.27.51l1.31,1.31,4.88-4.88c.36-.33.84-.5,1.28-.49.47.01.91.2,1.24.53s.52.77.53,1.23-.16.91-.47,1.26l-6.17,6.17c-.17.17-.37.3-.59.39s-.45.14-.69.14h-.01ZM30.64,34.88h0c-.2,0-.4.08-.54.23-.14.14-.22.34-.23.54,0,.2.07.4.22.54l2.57,2.57c.07.07.16.13.25.17.19.08.4.08.59,0,.1-.04.18-.09.25-.17l6.16-6.16c.12-.13.19-.32.19-.52s-.08-.39-.23-.53c-.14-.14-.33-.22-.53-.23-.22-.04-.39.07-.54.2l-5.23,5.23c-.2.2-.53.2-.73,0l-1.67-1.67c-.14-.13-.33-.21-.53-.21h0Z" fill="#1d1e1e" stroke-width="0"/>
</svg>