<?xml version="1.0" encoding="UTF-8"?>
<svg id="Layer_1" data-name="Layer 1" xmlns="http://www.w3.org/2000/svg" viewBox="0 0 48 48">
  <path d="M3.92,5.94h40.16v34.5H3.92V5.94Z" fill="#fff" stroke-width="0"/>
  <path d="M44.08,16.46H3.92V7.87c0-.51.2-1,.56-1.37.36-.36.84-.57,1.34-.57h36.36c.5,0,.99.2,1.34.57.36.36.56.85.56,1.37v8.59Z" fill="#009cde" stroke-width="0"/>
  <path d="M41.78,5.94H6.22c-.3,0-.6.06-.88.18s-1.2-.4-1.42-.18c-.21.22.29,1.16.17,1.45-.12.28-.17.59-.17.9v2.92c0-.62.24-1.22.67-1.65.43-.44,1.01-.68,1.62-.68h35.57c.61,0,1.19.25,1.62.68.43.44.67,1.03.67,1.65v-2.92c0-.31-.06-.61-.17-.9-.12-.28.07-.97-.14-1.18s-.82.03-1.1-.08c-.28-.12-.58-.18-.88-.18h0Z" fill="#71c5e8" stroke-width="0"/>
  <path d="M44.08,41H3.92c-.31,0-.56-.25-.56-.56V5.94c0-.31.25-.56.56-.56h40.16c.31,0,.56.25.56.56v34.5c0,.31-.25.56-.56.56ZM4.49,39.88h39.02V6.5H4.49v33.38Z" fill="#1d1e1e" stroke-width="0"/>
  <path d="M14.36,28.49c0,2.56,1.02,5.01,2.82,6.81,1.81,1.81,4.26,2.82,6.81,2.82s5.01-1.02,6.81-2.82c1.81-1.81,2.82-4.26,2.82-6.81s-1.02-5.01-2.82-6.81c-1.81-1.81-4.26-2.82-6.81-2.82s-5.01,1.02-6.81,2.82c-1.81,1.81-2.82,4.26-2.82,6.81h0Z" fill="#e6f1fa" stroke-width="0"/>
  <path d="M14.55,30.37c-.28-1.39-.24-2.83.1-4.21.34-1.38.99-2.67,1.89-3.77.9-1.1,2.03-1.99,3.31-2.6,1.28-.61,2.69-.93,4.11-.94,1.42,0,2.83.3,4.11.9,1.29.6,2.43,1.48,3.34,2.57.91,1.09,1.56,2.37,1.92,3.75s.4,2.81.14,4.21c-.43-2.2-1.61-4.18-3.35-5.6-1.74-1.42-3.91-2.19-6.14-2.18-2.24,0-4.41.8-6.13,2.23-1.72,1.43-2.89,3.42-3.3,5.62" fill="#fff" stroke-width="0"/>
  <path d="M24,38.69c-2.72,0-5.28-1.06-7.21-2.99-1.93-1.93-2.99-4.49-2.99-7.21s1.06-5.28,2.99-7.21c1.93-1.93,4.49-2.99,7.21-2.99s5.28,1.06,7.21,2.99c1.93,1.93,2.99,4.49,2.99,7.21s-1.06,5.28-2.99,7.21c-1.93,1.93-4.49,2.99-7.21,2.99ZM24,19.42c-2.42,0-4.7.94-6.42,2.66s-2.66,3.99-2.66,6.42.94,4.7,2.66,6.42c1.72,1.72,3.99,2.66,6.42,2.66s4.7-.94,6.42-2.66c1.71-1.71,2.66-3.99,2.66-6.42s-.94-4.7-2.66-6.42c-1.71-1.71-3.99-2.66-6.42-2.66Z" fill="#1d1e1e" stroke-width="0"/>
  <path d="M13.22,9.73c0,.2-.03.4-.1.59-.07.19-.18.36-.32.5-.14.14-.31.26-.49.34-.18.08-.38.12-.58.12s-.4-.04-.58-.12-.35-.19-.49-.34-.25-.32-.32-.5c-.07-.19-.11-.39-.1-.59V2.15c0-.2.03-.4.1-.59.07-.19.18-.36.32-.5.14-.14.31-.26.49-.34.18-.08.38-.12.58-.12s.4.04.58.12.35.19.49.34c.14.14.25.32.32.5.07.19.11.39.1.59v7.58Z" fill="#e6f1fa" stroke-width="0"/>
  <path d="M11.72.63c-.2,0-.39.04-.57.11-.18.08-.35.19-.49.33-.14.14-.25.31-.32.49-.08.18-.11.38-.11.58v2.53c0-.2.03-.4.1-.59.07-.19.18-.36.32-.5.14-.14.31-.26.49-.34.18-.08.38-.12.58-.12s.4.04.58.12.35.19.49.34c.14.14.25.32.32.5.07.19.11.39.1.59v-2.52c0-.2-.04-.4-.11-.58-.08-.18-.19-.35-.32-.49-.14-.14-.3-.25-.49-.33-.18-.08-.38-.12-.57-.12h0Z" fill="#fff" stroke-width="0"/>
  <path d="M11.72,11.88c-.28,0-.56-.06-.82-.17s-.49-.27-.68-.47c-.19-.2-.35-.44-.45-.7-.1-.26-.15-.54-.14-.82V2.15c0-.27.04-.55.15-.81.1-.26.25-.5.45-.7s.43-.36.69-.47c.52-.22,1.11-.22,1.63,0,.26.11.49.27.68.47.19.2.35.44.45.7.1.26.15.54.14.82v7.56c0,.28-.04.55-.14.81-.1.27-.25.5-.45.7-.19.2-.42.36-.68.47-.26.11-.53.17-.82.17h-.01ZM11.72,1.19c-.12,0-.24.02-.35.07-.11.05-.21.12-.3.2s-.15.19-.2.31c-.05.12-.07.24-.06.36v7.6c0,.14.02.26.06.38s.11.22.2.31.18.16.3.21c.22.09.48.09.7,0,.11-.05.21-.12.3-.2.09-.09.15-.19.2-.31.04-.12.07-.24.06-.36h0V2.15c0-.14-.02-.26-.06-.38s-.11-.22-.2-.31c-.08-.09-.18-.16-.3-.2-.11-.05-.23-.07-.35-.07ZM13.81,9.73" fill="#1d1e1e" stroke-width="0"/>
  <path d="M37.77,9.73c0,.2-.03.4-.1.59-.07.19-.18.36-.32.5s-.31.26-.49.34-.38.12-.58.12-.4-.04-.58-.12-.35-.19-.49-.34-.25-.32-.32-.5c-.07-.19-.11-.39-.1-.59V2.15c0-.2.03-.4.1-.59.07-.19.18-.36.32-.5s.31-.26.49-.34c.18-.08.38-.12.58-.12s.4.04.58.12.35.19.49.34c.14.14.25.32.32.5.07.19.11.39.1.59v7.58Z" fill="#e6f1fa" stroke-width="0"/>
  <path d="M36.27.63c-.2,0-.39.04-.57.11-.18.08-.35.19-.49.33-.14.14-.25.31-.32.49-.08.18-.11.38-.11.58v2.53c0-.2.03-.4.1-.59s.18-.36.32-.5c.14-.14.31-.26.49-.34s.38-.12.58-.12.4.04.58.12.35.19.49.34c.14.14.25.32.32.5.07.19.11.39.1.59v-2.52c0-.2-.04-.4-.11-.58-.08-.18-.19-.35-.32-.49-.14-.14-.3-.25-.49-.33-.18-.08-.38-.12-.57-.12h0Z" fill="#fff" stroke-width="0"/>
  <path d="M36.27,11.88c-.28,0-.56-.06-.82-.17s-.49-.27-.68-.47-.35-.44-.45-.7c-.1-.26-.15-.54-.14-.82V2.15c0-.27.04-.55.15-.81.1-.26.25-.5.45-.7s.43-.36.69-.47c.52-.22,1.11-.22,1.63,0,.26.11.49.27.68.47s.35.44.45.7c.1.26.15.54.14.82v7.56c0,.28-.04.55-.14.81-.1.27-.25.5-.45.7-.19.2-.42.36-.68.47-.26.11-.53.17-.82.17h-.01ZM36.27,1.19c-.12,0-.24.02-.35.07-.11.05-.21.12-.3.2s-.15.19-.2.31c-.05.12-.07.24-.06.36v7.6c0,.14.02.26.06.38s.11.22.2.31.18.16.3.21c.22.09.48.09.7,0,.11-.05.21-.12.3-.2.09-.09.15-.19.2-.31.04-.12.07-.24.06-.36h0V2.15c0-.14-.02-.26-.06-.38s-.11-.22-.2-.31c-.08-.09-.18-.16-.3-.2-.11-.05-.23-.07-.35-.07ZM38.36,9.73" fill="#1d1e1e" stroke-width="0"/>
  <path d="M3.43,16.46c0-.31.41-.56.92-.56h39.25c.51,0,.92.25.92.56s-.41.56-.92.56H4.35c-.51,0-.92-.25-.92-.56Z" fill="#1d1e1e" stroke-width="0"/>
  <path d="M22.48,23.04c0-.08.02-.16.04-.23.03-.07.08-.14.13-.19.06-.06.12-.1.2-.13.07-.03.15-.05.22-.05h1.62c.1,0,.21.02.29.06.1.04.18.1.26.17.07.07.13.16.16.25.04.09.06.2.06.3l-.4,5.8c0,.16-.06.31-.17.42-.11.11-.27.17-.42.17h-.99c-.16,0-.31-.06-.42-.17-.11-.11-.17-.26-.17-.42l-.4-5.98h-.01Z" fill="#009cde" stroke-width="0"/>
  <path d="M24.47,30h-.99c-.26,0-.51-.1-.69-.29-.18-.18-.29-.43-.29-.69l-.4-5.96v-.03c0-.11.02-.23.07-.36.06-.14.13-.24.21-.33.09-.08.19-.17.34-.23.1-.04.23-.07.36-.07h1.62c.16,0,.32.03.45.09.12.05.25.13.36.24.13.13.21.26.26.4.05.11.08.26.08.43l-.4,5.83c0,.24-.1.48-.28.67-.18.18-.44.29-.69.29h0ZM22.86,23.03l.4,5.97c0,.09.02.14.06.18.04.04.1.06.15.06h.99c.06,0,.11-.02.16-.06.04-.04.06-.09.06-.15l.4-5.83s0-.07-.03-.11c-.03-.06-.05-.11-.09-.15-.03-.03-.08-.06-.13-.08-.05-.02-.1-.03-.15-.03h-1.62l-.14.05s-.05.06-.06.1v.06h0Z" fill="#1d1e1e" stroke-width="0"/>
  <path d="M23.97,30.82c-.83,0-1.5.67-1.5,1.5s.67,1.5,1.5,1.5,1.5-.67,1.5-1.5-.67-1.5-1.5-1.5Z" fill="#009cde" stroke-width="0"/>
  <path d="M23.97,34.19c-1.04,0-1.88-.84-1.88-1.88s.84-1.88,1.88-1.88,1.88.84,1.88,1.88-.84,1.88-1.88,1.88ZM23.97,31.2c-.61,0-1.11.5-1.11,1.11s.5,1.11,1.11,1.11,1.11-.5,1.11-1.11-.5-1.11-1.11-1.11Z" fill="#1d1e1e" stroke-width="0"/>
</svg>