<svg width="16" height="8" viewBox="0 0 16 8" fill="none" xmlns="http://www.w3.org/2000/svg">
    <g clip-path="url(#qcwra4a9ja)">
        <g clip-path="url(#82d3w8flhb)" fill="#FFFFFF">
            <path d="M9.14 3.93H7.61V0L5.36 4.07h1.52V8l2.26-4.07z"/>
            <path d="M5.88 7H1.5a.5.5 0 0 1-.5-.5v-5a.5.5 0 0 1 .5-.5h4.41l.56-1h-5A1.5 1.5 0 0 0 0 1.5v5A1.5 1.5 0 0 0 1.5 8h4.38V7zM15.32 2.5h-.82v-1A1.5 1.5 0 0 0 13 0H8.61v1H13a.5.5 0 0 1 .5.5v5a.5.5 0 0 1-.5.5H8.58L8 8h5a1.5 1.5 0 0 0 1.5-1.5v-1h.82a.67.67 0 0 0 .68-.67V3.18a.68.68 0 0 0-.68-.68z"/>
            <path d="m3.67 5.07.82-1.48.13-.25V2.25A.25.25 0 0 0 4.37 2H2.25a.25.25 0 0 0-.25.25v3.5a.25.25 0 0 0 .25.25h2.12a.25.25 0 0 0 .25-.25v-.68h-.95z"/>
        </g>
    </g>
    <defs>
        <clipPath id="qcwra4a9ja">
            <path fill="#fff" d="M0 0h15.99v8H0z"/>
        </clipPath>
        <clipPath id="82d3w8flhb">
            <path fill="#fff" d="M0 0h16v8H0z"/>
        </clipPath>
    </defs>
</svg>
