<svg width="32" height="32" viewBox="0 0 32 32" fill="none" xmlns="http://www.w3.org/2000/svg">
    <g clip-path="url(#hdkmw7m0ta)">
        <circle cx="16" cy="16" r="15" fill="#fff"/>
        <path d="M17.71 20v6.5M14.71 20v6.5" stroke="#1E1E1E" stroke-width="1.5" stroke-miterlimit="10"/>
        <path d="M13.71 5v5M18.71 5v5" stroke="#1E1E1E" stroke-width="1.5" stroke-linecap="round" stroke-linejoin="round"/>
        <path d="M10 10.5v6.76a3.24 3.24 0 0 0 3.24 3.24h6a3.24 3.24 0 0 0 3.24-3.24V10.5H10z" stroke="#1E1E1E" stroke-width="1.5" stroke-miterlimit="10"/>
        <path d="M16 0a16 16 0 1 0 0 32 16 16 0 0 0 0-32zm0 30.12A14.11 14.11 0 0 1 5.83 6.22l19.95 20a14.07 14.07 0 0 1-9.78 3.9zm11.05-5.34L7.23 5a14.11 14.11 0 0 1 19.82 19.83v-.05z" fill="#AB2334"/>
    </g>
    <defs>
        <clipPath id="hdkmw7m0ta">
            <path fill="#fff" d="M0 0h32v32H0z"/>
        </clipPath>
    </defs>
</svg>
