<?xml version="1.0" encoding="UTF-8"?>
<svg id="Layer_1" data-name="Layer 1" xmlns="http://www.w3.org/2000/svg" viewBox="0 0 48 48">
  <path d="M28.12.6H4.94c-.54,0-1.08.11-1.58.31-.5.21-.96.51-1.34.89s-.69.84-.9,1.34c-.21.5-.32,1.04-.31,1.58v14.84c0,1.09.44,2.14,1.21,2.91.78.77,1.83,1.21,2.93,1.21h1.85l-1.01,5.51c-.03.16-.01.32.05.47.06.15.17.28.31.36.14.09.29.14.46.14.16,0,.32-.05.46-.14l9.56-6.34h11.51c1.1,0,2.15-.43,2.93-1.21.78-.77,1.21-1.82,1.21-2.91V4.72c0-1.09-.44-2.14-1.21-2.91-.78-.77-1.83-1.21-2.93-1.21h-.01Z" fill="#fff" stroke-width="0"/>
  <path d="M6.6,30.76c-.28,0-.55-.08-.78-.24-.23-.15-.42-.37-.53-.63-.11-.26-.14-.54-.09-.82l.88-4.8h-1.13c-1.27,0-2.46-.49-3.35-1.38-.9-.89-1.39-2.08-1.39-3.34V4.72c0-.62.12-1.23.36-1.81s.59-1.09,1.03-1.53c.44-.44.96-.78,1.54-1.02C3.72.12,4.33,0,4.95,0h23.18C29.38,0,30.58.49,31.47,1.38c.9.89,1.39,2.08,1.39,3.34v14.84c0,1.26-.5,2.45-1.39,3.34-.9.89-2.08,1.38-3.35,1.38h-11.33l-9.41,6.24c-.24.16-.53.25-.79.24ZM4.94,1.2c-.47,0-.92.09-1.36.27-.43.18-.82.44-1.15.76-.33.33-.59.71-.77,1.14-.18.43-.27.88-.27,1.35v14.84c0,.94.37,1.82,1.04,2.49.67.67,1.56,1.03,2.51,1.03h1.85c.18,0,.35.08.46.22s.16.32.13.49l-1.01,5.51s0,.09.01.12c.02.04.05.08.08.1.04.03.08.04.13.04h0s.09-.01.13-.04l9.56-6.34c.1-.07.21-.1.33-.1h11.51c.95,0,1.83-.37,2.5-1.03s1.04-1.55,1.04-2.49V4.72c0-.94-.37-1.82-1.04-2.49-.67-.67-1.56-1.03-2.5-1.03H4.94Z" fill="#1d1e1e" stroke-width="0"/>
  <path d="M10.74,12.14c0,.22-.04.43-.13.63-.08.2-.21.38-.36.53s-.34.27-.54.36c-.2.08-.42.13-.63.13s-.43-.04-.63-.13c-.2-.08-.38-.2-.54-.36-.15-.15-.28-.33-.36-.53s-.13-.41-.13-.63.04-.43.13-.63c.08-.2.21-.38.36-.53.15-.15.34-.27.54-.36.2-.08.42-.13.63-.13s.43.04.63.13c.2.08.38.2.54.36.15.15.28.33.36.53s.13.41.13.63h0Z" fill="#618fff" stroke-width="0"/>
  <path d="M9.08,14.39c-.3,0-.59-.06-.86-.17-.28-.11-.52-.28-.73-.49s-.38-.46-.49-.73-.17-.56-.17-.86.06-.59.17-.86c.11-.27.28-.52.49-.73.21-.21.46-.37.73-.49.55-.23,1.17-.23,1.72,0,.27.11.52.28.73.49s.37.46.49.73c.11.28.17.57.17.86s-.06.59-.17.86c-.11.28-.28.52-.49.73-.21.21-.46.37-.73.49-.27.11-.56.17-.86.17ZM9.08,11.09c-.14,0-.28.03-.41.08s-.24.13-.34.23c-.1.1-.17.21-.23.34-.05.13-.08.26-.08.4s.03.27.08.4c.05.13.13.24.23.34.1.1.21.17.34.23.26.11.55.11.81,0,.13-.05.25-.13.34-.23.1-.1.17-.21.23-.34.05-.12.08-.26.08-.4s-.03-.27-.08-.4c-.05-.13-.13-.24-.23-.34s-.21-.17-.34-.23c-.13-.05-.27-.08-.41-.08h0Z" fill="#1d1e1e" stroke-width="0"/>
  <path d="M18.19,12.14c0,.22-.04.43-.13.63-.08.2-.21.38-.36.53-.15.15-.34.27-.54.36-.2.08-.42.13-.63.13s-.43-.04-.63-.13c-.2-.08-.38-.2-.54-.36-.15-.15-.28-.33-.36-.53s-.13-.41-.13-.63.04-.43.13-.63c.08-.2.21-.38.36-.53s.34-.27.54-.36c.2-.08.42-.13.63-.13s.43.04.63.13c.2.08.38.2.54.36.15.15.28.33.36.53s.13.41.13.63h0Z" fill="#618fff" stroke-width="0"/>
  <path d="M16.54,14.39c-.3,0-.59-.06-.86-.17-.28-.11-.52-.28-.73-.49-.21-.21-.38-.46-.49-.73s-.17-.56-.17-.86.06-.59.17-.86c.11-.27.28-.52.49-.73.21-.21.46-.37.73-.49.55-.23,1.17-.23,1.72,0,.27.11.52.28.73.49s.37.46.49.73c.11.28.17.57.17.86s-.06.59-.17.86c-.11.28-.28.52-.49.73-.21.21-.46.37-.73.49-.27.11-.56.17-.86.17ZM16.54,11.09c-.14,0-.28.03-.41.08-.13.05-.24.13-.34.23-.1.1-.17.21-.23.34-.05.13-.08.26-.08.4s.03.27.08.4c.05.13.13.24.23.34.1.1.21.17.34.23.26.11.55.11.81,0,.13-.05.25-.13.34-.23.1-.1.17-.21.23-.34.05-.12.08-.26.08-.4s-.03-.27-.08-.4c-.05-.13-.13-.24-.23-.34s-.21-.17-.34-.23c-.13-.05-.27-.08-.41-.08h.01Z" fill="#1d1e1e" stroke-width="0"/>
  <path d="M25.64,12.14c0,.44-.17.86-.49,1.17-.31.31-.73.48-1.17.48s-.86-.17-1.17-.48c-.31-.31-.49-.73-.49-1.17s.17-.86.49-1.17c.31-.31.73-.48,1.17-.48s.86.17,1.17.48c.31.31.49.73.49,1.17Z" fill="#618fff" stroke-width="0"/>
  <path d="M23.99,14.39c-.59,0-1.17-.24-1.59-.66s-.66-.99-.66-1.59.24-1.17.66-1.59c.84-.84,2.34-.84,3.19,0,.43.43.66.99.66,1.59s-.24,1.17-.66,1.59c-.43.42-.99.66-1.59.66h-.01ZM23.99,11.09c-.28,0-.55.11-.75.31-.2.2-.31.46-.31.74s.11.54.31.74c.4.39,1.1.4,1.5,0,.2-.2.31-.46.31-.74s-.11-.54-.31-.74c-.2-.2-.47-.31-.75-.31Z" fill="#1d1e1e" stroke-width="0"/>
  <path d="M32.08,21c-.19.47-.47.89-.84,1.25-.36.36-1.28.87-1.75,1.07-.46.19-.45.06-.96.06l-11.46.24-10.93,6.41.65-6.34h-1.85c-1.01,0-2.44-.73-3.16-1.44-.73-.73-.86-.68-.86-1.71l-.26-3.87c0,1.03.39,1.99,1.12,2.71.72.71,1.7,1.12,2.72,1.12h0s24.03,0,24.03,0c.51,0,1.01-.1,1.47-.29.47-.2.89-.48,1.25-.84.36-.36.64-.77.84-1.25.19-.47.29-.97.29-1.47v2.86c0,.5-.1,1-.29,1.47Z" fill="#e6edf8" stroke-width="0"/>
  <path d="M6.6,30.76c-.28,0-.55-.08-.78-.24-.23-.15-.42-.37-.53-.63-.11-.26-.14-.54-.09-.82l.88-4.8h-1.13c-1.27,0-2.46-.49-3.35-1.38-.9-.89-1.39-2.08-1.39-3.34V4.72c0-.62.12-1.23.36-1.81s.59-1.09,1.03-1.53c.44-.44.96-.78,1.54-1.02.58-.24,1.19-.36,1.81-.36h23.18c1.26,0,2.46.49,3.35,1.38.9.89,1.39,2.08,1.39,3.34v14.84c0,1.26-.5,2.45-1.39,3.34-.9.89-2.08,1.38-3.35,1.38h-11.33l-9.41,6.24c-.24.16-.53.25-.79.24ZM4.94,1.2c-.47,0-.92.09-1.36.27-.43.18-.82.44-1.15.76-.33.33-.59.71-.77,1.14-.18.43-.27.88-.27,1.35v14.84c0,.94.37,1.82,1.04,2.49.67.67,1.56,1.03,2.51,1.03h1.85c.18,0,.35.08.46.22s.16.32.13.49l-1.01,5.51s0,.09.01.12c.02.04.05.08.08.1.04.03.08.04.13.04h0s.09-.01.13-.04l9.56-6.34c.1-.07.21-.1.33-.1h11.51c.95,0,1.83-.37,2.5-1.03.67-.66,1.04-1.55,1.04-2.49V4.72c0-.94-.37-1.82-1.04-2.49-.67-.67-1.56-1.03-2.5-1.03H4.94Z" fill="#1d1e1e" stroke-width="0"/>
  <path d="M26.24,17.73h17.78c.84,0,1.65.33,2.24.92.59.59.93,1.4.93,2.23v11.38c0,.84-.33,1.64-.93,2.23-.59.59-1.4.92-2.24.92h-1.42l.77,4.23c.02.12,0,.25-.04.36-.05.11-.13.21-.23.28s-.23.1-.35.1-.25-.04-.35-.11l-7.33-4.86h-8.83c-.84,0-1.65-.33-2.24-.92-.59-.59-.93-1.4-.93-2.23v-11.38c0-.41.08-.83.24-1.21s.39-.73.69-1.03.64-.53,1.03-.69c.39-.16.8-.24,1.21-.24h0v.02Z" fill="#fff" stroke-width="0"/>
  <path d="M30.49,26.68c0,.42-.17.82-.47,1.12-.3.3-.7.46-1.12.46s-.83-.17-1.12-.46c-.3-.3-.47-.7-.47-1.12s.17-.82.47-1.12c.3-.3.7-.46,1.12-.46s.83.17,1.12.46c.3.3.47.7.47,1.12h0Z" fill="#c7dbff" stroke-width="0"/>
  <path d="M28.9,28.86c-.58,0-1.13-.23-1.55-.64-.41-.41-.64-.96-.64-1.54s.23-1.13.64-1.54c.83-.82,2.27-.82,3.09,0,.41.41.64.96.64,1.54s-.23,1.13-.64,1.54c-.41.41-.96.64-1.55.64h0ZM28.9,25.69c-.27,0-.51.1-.7.29s-.29.43-.29.69.1.51.29.69c.37.37,1.03.37,1.4,0,.19-.19.29-.43.29-.69s-.1-.51-.29-.69c-.18-.18-.44-.29-.7-.29Z" fill="#1d1e1e" stroke-width="0"/>
  <path d="M36.56,26.68c0,.42-.17.82-.47,1.12-.3.3-.7.46-1.12.46s-.83-.17-1.12-.46c-.3-.3-.47-.7-.47-1.12s.17-.82.47-1.12c.3-.3.7-.46,1.12-.46s.83.17,1.12.46c.3.3.47.7.47,1.12Z" fill="#c7dbff" stroke-width="0"/>
  <path d="M34.97,28.86c-.58,0-1.13-.23-1.55-.64-.41-.41-.64-.96-.64-1.54s.23-1.13.64-1.54c.83-.82,2.27-.82,3.09,0,.41.41.64.96.64,1.54s-.23,1.13-.64,1.54c-.41.41-.96.64-1.55.64h0ZM34.97,25.69c-.27,0-.51.1-.7.29-.19.19-.29.43-.29.69s.1.51.29.69c.37.37,1.03.37,1.4,0,.19-.19.29-.43.29-.69s-.1-.51-.29-.69c-.18-.18-.44-.29-.7-.29Z" fill="#1d1e1e" stroke-width="0"/>
  <path d="M42.62,26.68c0,.42-.17.82-.47,1.12-.3.3-.7.46-1.12.46s-.83-.17-1.12-.46c-.3-.3-.47-.7-.47-1.12s.17-.82.47-1.12c.3-.3.7-.46,1.12-.46s.83.17,1.12.46c.3.3.47.7.47,1.12Z" fill="#c7dbff" stroke-width="0"/>
  <path d="M41.03,28.86c-.58,0-1.13-.23-1.55-.64-.41-.41-.64-.96-.64-1.54s.23-1.13.64-1.54c.83-.82,2.27-.82,3.09,0,.41.41.64.96.64,1.54s-.23,1.13-.64,1.54c-.41.41-.96.64-1.55.64h0ZM41.03,25.69c-.27,0-.51.1-.7.29-.19.19-.29.43-.29.69s.1.51.29.69c.37.37,1.03.37,1.4,0,.19-.19.29-.43.29-.69s-.1-.51-.29-.69c-.18-.18-.44-.29-.7-.29Z" fill="#1d1e1e" stroke-width="0"/>
  <path d="M23,33.38c.15.37.37.69.65.97.28.28,1,.68,1.37.83.36.15.35.05.75.05l8.93.18,8.52,5-.51-4.94h1.44c.79,0,1.9-.57,2.46-1.12.57-.57.67-.53.67-1.33l.21-3.02c0,.8-.31,1.55-.87,2.12-.56.55-1.33.87-2.12.87h0s-18.74,0-18.74,0c-.4,0-.78-.08-1.15-.23-.37-.16-.69-.37-.97-.65-.28-.28-.5-.6-.65-.97-.15-.37-.23-.75-.23-1.15v2.23c0,.39.08.78.23,1.15Z" fill="#e6edf8" stroke-width="0"/>
  <path d="M42.75,41c-.25,0-.48-.07-.68-.21l-7.18-4.76h-8.65c-1.01,0-1.95-.39-2.67-1.1-.71-.71-1.11-1.65-1.11-2.66v-11.38c0-.5.1-.98.29-1.44.19-.46.47-.87.82-1.22.35-.35.76-.62,1.22-.81.46-.19.95-.29,1.44-.29h17.78c.99,0,1.96.4,2.67,1.1.71.71,1.11,1.65,1.11,2.66v11.38c0,1-.39,1.95-1.11,2.66-.7.7-1.67,1.1-2.67,1.1h-.7l.64,3.52c.04.24.02.49-.08.71-.09.22-.25.41-.46.54-.2.13-.44.2-.68.2h.02ZM26.24,18.33c-.34,0-.67.07-.99.2-.32.13-.6.32-.84.56s-.43.52-.56.83-.19.64-.19.98v11.38c0,.68.27,1.32.75,1.81s1.13.75,1.82.75h8.83c.12,0,.23.04.33.1l7.33,4.86-.72-4.26c-.03-.17.02-.36.13-.49.11-.14.28-.22.46-.22h1.42c.68,0,1.34-.27,1.82-.75.48-.48.75-1.13.75-1.81v-11.38c0-.68-.27-1.32-.75-1.81-.48-.48-1.14-.75-1.82-.75h-17.77Z" fill="#1d1e1e" stroke-width="0"/>
</svg>