<?xml version="1.0" encoding="UTF-8"?>
<svg id="Layer_1" data-name="Layer 1" xmlns="http://www.w3.org/2000/svg" viewBox="0 0 48 48">
  <rect x="4.03" y=".49" width="39.98" height="39.98" rx="4.49" ry="4.49" fill="#e6edf8" stroke-width="0"/>
  <path d="M39.32,40.96H8.72c-2.85,0-5.18-2.32-5.18-5.18V5.18C3.54,2.32,5.86,0,8.72,0h30.61c2.85,0,5.18,2.32,5.18,5.18v30.61c0,2.85-2.32,5.18-5.18,5.18ZM8.72.98c-2.32,0-4.2,1.88-4.2,4.2v30.61c0,2.32,1.88,4.2,4.2,4.2h30.61c2.32,0,4.2-1.88,4.2-4.2V5.18c0-2.32-1.88-4.2-4.2-4.2H8.72Z" fill="#1d1e1e" stroke-width="0"/>
  <path d="M39.32.49H8.72c-2.58,0-4.69,2.11-4.69,4.69v4.17c0-2.58,2.11-4.69,4.69-4.69h30.61c2.58,0,4.69,2.11,4.69,4.69v-4.17c0-2.58-2.11-4.69-4.69-4.69Z" fill="#fff" stroke-width="0"/>
  <path d="M39.32,40.96H8.72c-2.85,0-5.18-2.32-5.18-5.18V5.18C3.54,2.32,5.86,0,8.72,0h30.61c2.85,0,5.18,2.32,5.18,5.18v30.61c0,2.85-2.32,5.18-5.18,5.18ZM8.72.98c-2.32,0-4.2,1.88-4.2,4.2v30.61c0,2.32,1.88,4.2,4.2,4.2h30.61c2.32,0,4.2-1.88,4.2-4.2V5.18c0-2.32-1.88-4.2-4.2-4.2H8.72Z" fill="#1d1e1e" stroke-width="0"/>
  <path d="M39.28,40.96H8.68c-2.85,0-5.18-2.32-5.18-5.18V5.18C3.5,2.32,5.82,0,8.68,0h30.61c2.85,0,5.18,2.32,5.18,5.18v30.61c0,2.85-2.32,5.18-5.18,5.18ZM8.68.98c-2.32,0-4.2,1.88-4.2,4.2v30.61c0,2.32,1.88,4.2,4.2,4.2h30.61c2.32,0,4.2-1.88,4.2-4.2V5.18c0-2.32-1.88-4.2-4.2-4.2H8.68Z" fill="#1d1e1e" stroke-width="0"/>
  <path d="M39.28,40.96H8.68c-2.85,0-5.18-2.32-5.18-5.18V5.18C3.5,2.32,5.82,0,8.68,0h30.61c2.85,0,5.18,2.32,5.18,5.18v30.61c0,2.85-2.32,5.18-5.18,5.18ZM8.68.98c-2.32,0-4.2,1.88-4.2,4.2v30.61c0,2.32,1.88,4.2,4.2,4.2h30.61c2.32,0,4.2-1.88,4.2-4.2V5.18c0-2.32-1.88-4.2-4.2-4.2H8.68Z" fill="#1d1e1e" stroke-width="0"/>
  <path d="M39.3,40.97H8.7c-2.85,0-5.18-2.32-5.18-5.18V5.18C3.52,2.33,5.84,0,8.7,0h30.61c2.85,0,5.18,2.32,5.18,5.18v30.61c0,2.85-2.32,5.18-5.18,5.18ZM8.7.98c-2.32,0-4.2,1.88-4.2,4.2v30.61c0,2.32,1.88,4.2,4.2,4.2h30.61c2.32,0,4.2-1.88,4.2-4.2V5.18c0-2.32-1.88-4.2-4.2-4.2H8.7Z" fill="#1d1e1e" stroke-width="0"/>
  <path d="M31.97,14.78c-.12-4.25-3.66-7.8-7.91-7.91-3.49-.1-6.5,2-7.75,5.01-.63,1.49.53,3.14,2.16,3.14h.25c.98,0,1.78-.58,2.18-1.41.63-1.3,2.1-2.13,3.7-1.76,1.18.27,2.14,1.22,2.4,2.4.48,2.13-1.12,4.03-3.17,4.03h-2.23c-1.47.01-2.66,1.2-2.66,2.67v4.65c0,.46.37.84.84.84h3.07c.54,0,.99-.44.99-.99v-2.28c4.58,0,8.28-3.77,8.14-8.38h-.01Z" fill="#618fff" stroke-width="0"/>
  <path d="M22.83,26.94h-3.07c-.75,0-1.34-.61-1.34-1.34v-4.65c0-1.75,1.42-3.17,3.17-3.17h2.12s.07-.01.1-.01c.84,0,1.62-.37,2.15-1.04s.72-1.52.52-2.37c-.22-.99-1.04-1.8-2.02-2.02-1.28-.29-2.57.32-3.13,1.48-.51,1.07-1.49,1.71-2.63,1.71h-.25c-.95,0-1.84-.47-2.37-1.27-.51-.77-.61-1.73-.26-2.57,1.39-3.33,4.59-5.45,8.24-5.32,4.51.12,8.29,3.9,8.41,8.41h0c.07,2.36-.81,4.59-2.45,6.28-1.52,1.56-3.53,2.48-5.7,2.6v1.79c0,.83-.68,1.49-1.49,1.49h.02ZM21.59,18.8c-1.19,0-2.15.97-2.15,2.15v4.65c0,.18.15.32.33.32h3.07c.26,0,.47-.21.47-.47v-2.28c0-.28.23-.5.5-.5,2.08,0,4.03-.82,5.48-2.31,1.45-1.49,2.22-3.46,2.16-5.54h0c-.11-3.98-3.44-7.31-7.42-7.42-3.2-.07-6.05,1.76-7.27,4.69-.22.53-.16,1.12.16,1.61.34.51.91.82,1.52.82h.25c.74,0,1.38-.42,1.72-1.12.77-1.59,2.52-2.43,4.28-2.04,1.38.31,2.47,1.41,2.8,2.79.26,1.15,0,2.32-.72,3.23-.7.88-1.73,1.38-2.84,1.42-.03,0-.07.01-.11.01h-2.25Z" fill="#1d1e1e" stroke-width="0"/>
  <path d="M21.37,34.11c1.62,0,2.95-1.32,2.95-2.95s-1.32-2.95-2.95-2.95-2.95,1.32-2.95,2.95,1.32,2.95,2.95,2.95Z" fill="#618fff" stroke-width="0"/>
  <path d="M21.37,34.61c-1.91,0-3.45-1.54-3.45-3.45s1.54-3.45,3.45-3.45,3.45,1.54,3.45,3.45-1.54,3.45-3.45,3.45ZM21.37,28.73c-1.34,0-2.43,1.09-2.43,2.43s1.09,2.43,2.43,2.43,2.43-1.09,2.43-2.43-1.09-2.43-2.43-2.43Z" fill="#1d1e1e" stroke-width="0"/>
</svg>