<?xml version="1.0" encoding="UTF-8"?>
<svg id="Layer_1" data-name="Layer 1" xmlns="http://www.w3.org/2000/svg" viewBox="0 0 48 48">
  <path d="M44.38,1.88H3.56C1.89,1.88.53,3.23.53,4.9v32.51c0,1.67,1.35,3.02,3.02,3.02h40.83c1.67,0,3.02-1.35,3.02-3.02V4.9c0-1.67-1.35-3.02-3.02-3.02Z" fill="#f1eaf3" stroke-width="0"/>
  <path d="M44.38,1.88H3.56C1.89,1.88.53,3.23.53,4.9v32.51c0,1.67,1.35,3.02,3.02,3.02h40.83c1.67,0,3.02-1.35,3.02-3.02V4.9c0-1.67-1.35-3.02-3.02-3.02Z" fill="#fff" stroke-width="0"/>
  <path d="M44.38,41H3.56c-1.98,0-3.59-1.61-3.59-3.59V4.9C-.03,2.92,1.58,1.32,3.56,1.32h40.82c1.98,0,3.59,1.61,3.59,3.59v32.5c0,1.98-1.61,3.59-3.59,3.59ZM3.56,2.44c-1.36,0-2.46,1.1-2.46,2.46v32.51c0,1.36,1.1,2.46,2.46,2.46h40.82c1.36,0,2.46-1.1,2.46-2.46V4.9c0-1.36-1.1-2.46-2.46-2.46H3.56Z" fill="#1d1e1e" stroke-width="0"/>
  <path d="M12.72,25.78c0,1.48.29,2.94.86,4.3s1.39,2.6,2.44,3.65,2.28,1.87,3.65,2.44c1.36.57,2.83.86,4.31.86s2.94-.29,4.3-.86c1.36-.57,2.6-1.39,3.65-2.44,1.05-1.05,1.87-2.28,2.44-3.65.57-1.36.86-2.83.86-4.3s-.29-2.94-.86-4.3c-.57-1.36-1.39-2.61-2.44-3.65-1.04-1.04-2.28-1.87-3.65-2.44-1.36-.57-2.83-.86-4.3-.86s-2.94.29-4.31.86c-1.36.57-2.6,1.39-3.65,2.44-1.04,1.04-1.87,2.28-2.44,3.65-.57,1.36-.86,2.83-.86,4.3h0Z" fill="#f1eaf3" stroke-width="0"/>
  <path d="M12.93,27.95c-.32-1.63-.27-3.31.13-4.91.41-1.61,1.16-3.11,2.21-4.39,1.05-1.28,2.37-2.32,3.87-3.03,1.5-.71,3.13-1.08,4.79-1.09,1.66,0,3.3.36,4.8,1.06,1.5.7,2.83,1.73,3.89,3.01,1.06,1.28,1.82,2.77,2.24,4.38.41,1.61.47,3.28.16,4.91-.5-2.56-1.88-4.87-3.9-6.53-2.02-1.66-4.55-2.56-7.16-2.55-2.61,0-5.14.92-7.15,2.59-2.01,1.67-3.38,3.98-3.87,6.55" fill="#fff" stroke-width="0"/>
  <path d="M23.97,37.6c-1.56,0-3.08-.3-4.52-.9-1.44-.6-2.73-1.46-3.83-2.56-1.1-1.1-1.96-2.39-2.56-3.83-.6-1.44-.9-2.96-.9-4.52s.3-3.08.9-4.52c.6-1.44,1.46-2.73,2.56-3.83,1.1-1.1,2.39-1.96,3.83-2.56,2.88-1.19,6.16-1.19,9.04,0,1.44.6,2.73,1.46,3.83,2.56,1.1,1.1,1.96,2.39,2.56,3.83.6,1.44.9,2.96.9,4.52s-.3,3.08-.9,4.52c-.6,1.44-1.46,2.73-2.56,3.83-1.1,1.1-2.39,1.96-3.83,2.56-1.44.6-2.96.9-4.52.9ZM23.97,15.1c-1.41,0-2.79.27-4.09.81-1.3.54-2.47,1.32-3.47,2.32s-1.78,2.16-2.32,3.47c-.54,1.3-.81,2.68-.81,4.09s.27,2.79.81,4.09c.54,1.3,1.32,2.47,2.32,3.47s2.16,1.78,3.47,2.32c2.61,1.08,5.57,1.08,8.18,0,1.3-.54,2.47-1.32,3.47-2.32,1-1,1.78-2.16,2.32-3.47.54-1.3.81-2.68.81-4.09s-.27-2.79-.81-4.09c-.54-1.3-1.32-2.47-2.32-3.47s-2.16-1.78-3.47-2.32c-1.3-.54-2.68-.81-4.09-.81Z" fill="#1d1e1e" stroke-width="0"/>
  <path d="M44.38,1.88H3.56c-.8,0-1.57.32-2.14.89-.57.57-.89,1.34-.89,2.14v6.05h46.88v-6.06c0-.4-.08-.79-.23-1.16-.15-.37-.37-.7-.66-.98-.28-.28-.61-.5-.98-.66-.37-.15-.76-.23-1.16-.23h0Z" fill="#f1eaf3" stroke-width="0"/>
  <path d="M47.41,11.51H.53c-.31,0-.56-.25-.56-.56v-6.05C-.03,3.94.34,3.04,1.02,2.36c.68-.68,1.58-1.05,2.54-1.05h40.82c.47,0,.94.09,1.37.27.44.18.83.44,1.16.78.33.33.6.73.78,1.16.18.44.27.9.27,1.37v6.05c0,.31-.25.56-.56.56h.01ZM1.09,10.39h45.76v-5.49c0-.33-.06-.64-.19-.94-.12-.3-.3-.57-.53-.8s-.5-.41-.8-.53-.62-.19-.94-.19H3.56c-.66,0-1.28.26-1.74.72-.46.47-.72,1.08-.72,1.74v5.49h0Z" fill="#1d1e1e" stroke-width="0"/>
  <path d="M5.07,7.93c.84,0,1.51-.68,1.51-1.51s-.68-1.51-1.51-1.51-1.51.68-1.51,1.51.68,1.51,1.51,1.51Z" fill="#702f8a" stroke-width="0"/>
  <path d="M5.07,8.49c-1.14,0-2.07-.93-2.07-2.07s.93-2.08,2.07-2.08,2.07.93,2.07,2.08-.93,2.07-2.07,2.07ZM5.07,5.47c-.52,0-.95.43-.95.95s.43.95.95.95.95-.43.95-.95-.43-.95-.95-.95Z" fill="#1d1e1e" stroke-width="0"/>
  <path d="M11.12,7.93c.84,0,1.51-.68,1.51-1.51s-.68-1.51-1.51-1.51-1.51.68-1.51,1.51.68,1.51,1.51,1.51Z" fill="#9c59b2" stroke-width="0"/>
  <path d="M11.12,8.49c-1.14,0-2.07-.93-2.07-2.07s.93-2.08,2.07-2.08,2.07.93,2.07,2.08-.93,2.07-2.07,2.07ZM11.12,5.47c-.52,0-.95.43-.95.95s.43.95.95.95.95-.43.95-.95-.43-.95-.95-.95Z" fill="#1d1e1e" stroke-width="0"/>
  <path d="M17.17,7.93c.84,0,1.51-.68,1.51-1.51s-.68-1.51-1.51-1.51-1.51.68-1.51,1.51.68,1.51,1.51,1.51Z" fill="#9c59b2" stroke-width="0"/>
  <path d="M17.16,8.49c-1.14,0-2.07-.93-2.07-2.07s.93-2.08,2.07-2.08,2.07.93,2.07,2.08-.93,2.07-2.07,2.07ZM17.16,5.47c-.52,0-.95.43-.95.95s.43.95.95.95.95-.43.95-.95-.43-.95-.95-.95Z" fill="#1d1e1e" stroke-width="0"/>
  <path d="M21.77,31.42c-.21,0-.42-.04-.61-.12-.2-.08-.37-.21-.52-.35l-3.22-3.25c-.29-.31-.45-.71-.45-1.15s.18-.84.48-1.14c.3-.3.7-.48,1.12-.48s.83.16,1.13.45l2.08,2.1,6.54-6.63c.31-.28.7-.43,1.12-.42.41,0,.81.18,1.1.48.29.3.47.69.47,1.12s-.14.83-.42,1.14l-7.67,7.78c-.14.16-.33.27-.52.35-.2.08-.4.12-.61.12Z" fill="#702f8a" stroke-width="0"/>
  <path d="M21.77,32.03c-.3,0-.59-.06-.87-.18-.27-.11-.52-.28-.73-.5l-3.22-3.25c-.42-.44-.64-1-.63-1.6,0-.6.24-1.16.65-1.58.42-.42.98-.66,1.57-.67h.02c.59,0,1.15.23,1.56.64l1.62,1.64,6.08-6.16c.45-.41,1.01-.63,1.59-.62.58.01,1.13.25,1.54.67.41.41.64.96.65,1.55.01.59-.2,1.15-.59,1.58l-7.69,7.8c-.21.21-.45.38-.73.5-.27.11-.57.18-.86.18h.03ZM18.57,25.55h0c-.25,0-.49.1-.67.29s-.28.42-.28.69.09.51.27.69l3.21,3.25c.09.09.2.17.31.21.24.1.5.09.73,0,.11-.05.23-.12.31-.21l7.68-7.78c.16-.17.24-.41.24-.67s-.1-.5-.28-.67-.41-.28-.65-.29-.49.08-.67.25l-6.52,6.61c-.24.25-.67.25-.92,0l-2.08-2.1c-.18-.17-.4-.27-.66-.27h-.01Z" fill="#1d1e1e" stroke-width="0"/>
</svg>