<?xml version="1.0" encoding="UTF-8"?>
<svg id="Layer_1" data-name="Layer 1" xmlns="http://www.w3.org/2000/svg" viewBox="0 0 48 48">
  <path d="M31.6,26.46c-.03.07-.12.25-.17.31,0,0-1.17,1.74-.99,2.74.12.65.49,1.56-.41,3.66-.49,1.16-1.1,2.5-2.93,4.62-.3.31-.61.61-.94.89,0,0-1.56,1.29-2.07,1.28-.44-.04-.85-.23-1.16-.55-.24-.22-.81-.84-.86-.89-2.79-3.51-2.9-6.37-2.38-8.38.18-.61.58-1.14,1.12-1.48.79-.49,1.66-.81,2.58-.94.54-.04.79-.07,1.33-.08h1.23c.24,0,.47.02.7.04.32.03.64.07.96.13.2.04.39.1.59.12.14.02.32,0,.34-.17,0-.03,0-.06,0-.09-.06-.18-.36-.47-1.52-.77-.26-.06-.53-.11-.8-.13-.16-.02-.34-.03-.52-.04l-.32-.02h-1.18c-1.95,0-3.68.21-3.68.21,0,0-3.11.44-3.11-1.83s2.84-2.8,4.71-3.06h.07c.09,0,.19-.03.28-.04l.17-.02c.13,0,.27-.03.41-.04.3-.02.65-.04.98-.04h.17c.72,0,1.43.06,2.14.14.52.06,1.03.15,1.54.28,2.46.51,4.81,1.63,3.69,4.14M23.59,20.09c.02-.22.07-.43.16-.63.19-.5.49-.95.86-1.33.12-.12.24-.23.38-.32.06-.05.14-.08.23-.09.14.03-.12.7-.15.76-.16.46-.39.88-.7,1.26-.15.17-.31.33-.49.47-.05.04-.19.17-.27.14-.08-.03-.06-.21-.05-.26M31.26,21.89c-.37-.15-.74-.28-1.12-.38-.57-.16-1.15-.28-1.73-.37-.83-.15-3.03-.36-3.4-.37-.12,0-.06-.13,0-.2.13-.18.3-.35.43-.53.28-.36.48-.78.59-1.23.12-.5.16-1.02.11-1.54-.02-.19-.05-.37-.11-.55-.02-.11-.07-.2-.16-.27-.1-.03-.2-.02-.3.02-.17.05-.34.13-.5.21-.99.51-1.93,1.22-2.49,2.17-.23.37-.37.78-.41,1.22v.38c0,.08-.01.17-.05.24-.07.08-.17.13-.27.13-.21.03-1.46.16-1.87.23-.92.14-1.84.36-2.72.65-.33.11-.66.25-.96.41l-.05.02c-.14.08-.28.16-.41.24-.01,0-.03.02-.04.03-.14.09-.28.19-.41.3-.09.07-.17.15-.25.24l-.09.09s-.08.07-.11.11c-.16.19-.31.4-.43.62,0,.02-.02.04-.03.06-.05.09-.09.19-.13.3-.04.11-.05.12-.07.18s-.02.07-.03.1c-.04.12-.07.23-.1.35-.06.28-.08.56-.07.84,0,.1,0,.2.02.3.02.1,0,.12.02.19.02.06.02.12.03.17.09.45.23.88.43,1.29.31.72.74,1.38,1.27,1.96.06.09.09.19.09.3.07.91.25,1.82.56,2.68.9,2.58,2.49,4.87,4.6,6.61,0,0,.72.59,1.01.84.4.34,1.13.84,1.13.84.23.17.51.26.8.25.41-.03.8-.18,1.12-.44.41-.28,2.07-1.7,2.07-1.7,1.76-1.55,4.57-4.54,4.88-9.07,0-.12.03-.23.09-.33.53-.58.96-1.24,1.27-1.96,0,0,.73-1.41.43-2.78-.3-1.37-1.27-2.27-2.61-2.84" fill="#1d1e1e" stroke-width="0"/>
</svg>