<?xml version="1.0" encoding="UTF-8"?>
<svg id="Layer_1" data-name="Layer 1" xmlns="http://www.w3.org/2000/svg" viewBox="0 0 48 48">
  <path d="M6.65,6.02h35.03v33.38H6.65V6.02Z" fill="#fff" stroke-width="0"/>
  <path d="M13.7,23.93c0,1.38.28,2.75.81,4.03.53,1.28,1.31,2.44,2.28,3.42.97.98,2.14,1.75,3.42,2.28,1.28.53,2.64.81,4.03.81s2.75-.28,4.03-.81c1.28-.53,2.44-1.31,3.42-2.28.98-.97,1.75-2.14,2.28-3.42.53-1.28.81-2.64.81-4.03s-.28-2.75-.81-4.03c-.53-1.28-1.31-2.44-2.28-3.42-.98-.98-2.14-1.75-3.42-2.28-1.28-.53-2.64-.81-4.03-.81s-2.75.28-4.03.81c-1.28.53-2.44,1.31-3.42,2.28-.98.98-1.75,2.14-2.28,3.42-.53,1.28-.81,2.64-.81,4.03h0Z" fill="#f1eaf3" stroke-width="0"/>
  <path d="M13.9,25.97c-.29-1.52-.26-3.09.12-4.6.38-1.5,1.09-2.91,2.07-4.11.98-1.2,2.22-2.17,3.62-2.83,1.4-.67,2.94-1.01,4.49-1.02,1.55,0,3.08.33,4.49.99s2.65,1.62,3.64,2.81c.99,1.2,1.71,2.59,2.09,4.1.38,1.5.44,3.07.15,4.6-.47-2.4-1.76-4.56-3.65-6.11-1.89-1.55-4.26-2.4-6.7-2.39-2.45,0-4.81.86-6.69,2.43-1.88,1.56-3.16,3.73-3.61,6.13" fill="#fff" stroke-width="0"/>
  <path d="M24.23,34.99c-1.45,0-2.88-.28-4.23-.84-1.35-.56-2.55-1.37-3.59-2.4-1.03-1.03-1.84-2.24-2.4-3.59-.56-1.35-.84-2.77-.84-4.23s.28-2.88.84-4.23c.56-1.35,1.37-2.55,2.4-3.59,1.03-1.03,2.24-1.84,3.59-2.4,2.69-1.12,5.77-1.12,8.46,0,1.35.56,2.55,1.37,3.59,2.4,1.03,1.03,1.84,2.24,2.4,3.59.56,1.35.84,2.77.84,4.23s-.28,2.88-.84,4.23c-.56,1.35-1.37,2.55-2.4,3.59-1.03,1.03-2.24,1.84-3.59,2.4-1.35.56-2.77.84-4.23.84h0ZM24.23,13.93c-1.32,0-2.6.26-3.83.77-1.22.5-2.31,1.24-3.24,2.17-.93.93-1.66,2.02-2.17,3.24-.5,1.22-.77,2.5-.77,3.83s.26,2.6.77,3.83c.5,1.22,1.24,2.31,2.17,3.24.93.93,2.02,1.66,3.24,2.17,2.44,1.01,5.22,1.01,7.65,0,1.22-.5,2.31-1.24,3.24-2.17.93-.93,1.66-2.02,2.17-3.24.5-1.22.77-2.5.77-3.83s-.26-2.61-.77-3.83c-.5-1.22-1.24-2.31-2.17-3.24-.93-.93-2.02-1.66-3.24-2.17-1.22-.5-2.5-.77-3.83-.77h0Z" fill="#1d1e1e" stroke-width="0"/>
  <path d="M29.11,19.23c.11.11.2.24.26.38.06.14.09.29.09.45v4.63c0,.16-.03.3-.09.45-.06.14-.15.28-.26.38-.11.11-.24.2-.38.26-.14.06-.29.09-.45.09s-.3-.03-.45-.09c-.14-.06-.28-.15-.38-.26-.11-.11-.2-.24-.26-.38-.06-.14-.09-.29-.09-.45v-1.47l-5.61,5.61c-.27.27-.62.41-.99.41s-.73-.15-.99-.41-.41-.62-.41-.99.15-.73.41-.99l5.61-5.61h-1.47c-.3,0-.61-.13-.83-.34-.22-.22-.34-.51-.34-.83s.12-.61.34-.83c.22-.22.51-.34.83-.34h4.63c.16,0,.3.03.45.09.14.06.28.15.38.26h0Z" fill="#702f8a" stroke-width="0"/>
  <path d="M20.52,29.76c-.51,0-1-.2-1.37-.57-.36-.36-.57-.84-.57-1.37s.21-1,.57-1.37l4.7-4.7h-.21c-.45,0-.87-.18-1.2-.5s-.49-.75-.49-1.2.18-.87.49-1.2.74-.5,1.2-.5h4.63c.23,0,.44.04.65.13.21.09.39.21.55.37.16.16.28.34.37.55.09.21.13.42.13.65v4.63c0,.22-.04.44-.13.65-.09.21-.21.39-.36.55-.16.16-.34.28-.55.37-.41.18-.88.18-1.3,0-.21-.09-.39-.21-.55-.37s-.28-.35-.37-.55c-.09-.21-.13-.43-.13-.65v-.21l-4.7,4.7c-.36.36-.85.57-1.37.57h0ZM25.13,20.7h1.27l-6.5,6.5c-.17.17-.26.39-.26.62s.09.45.26.62c.33.32.91.32,1.24,0l6.5-6.5v2.75c0,.09.02.17.05.25.03.08.08.15.14.21s.13.11.21.14c.16.07.33.07.49,0,.08-.03.15-.08.21-.14s.11-.13.14-.21c.03-.08.05-.17.05-.25v-4.63c0-.09-.02-.17-.05-.25-.03-.08-.08-.15-.14-.21h0c-.06-.06-.13-.11-.21-.14-.08-.03-.16-.05-.25-.05h-4.63c-.17,0-.33.07-.45.19-.12.12-.19.28-.19.45s.07.33.19.45c.12.12.28.19.45.19h1.48Z" fill="#1d1e1e" stroke-width="0"/>
  <path d="M41.67,39.7H6.65c-.31,0-.56-.26-.56-.56V5.76c0-.31.26-.56.56-.56h35.03c.31,0,.56.26.56.56v33.38c0,.31-.26.56-.56.56ZM7.21,38.58h33.9V6.32H7.21v32.26Z" fill="#1d1e1e" stroke-width="0"/>
  <rect x="6.76" y="36.28" width="35.03" height="2.3" fill="#f1eaf3" stroke-width="0"/>
  <path d="M41.67,39.7H6.65c-.31,0-.56-.26-.56-.56V5.76c0-.31.26-.56.56-.56h35.03c.31,0,.56.26.56.56v33.38c0,.31-.26.56-.56.56ZM7.21,38.58h33.9V6.32H7.21v32.26Z" fill="#1d1e1e" stroke-width="0"/>
  <rect x="11.86" y="1.18" width="3.03" height="7.66" rx="1.51" ry="1.51" fill="#702f8a" stroke-width="0"/>
  <path d="M13.36,1.19c-.21,0-.4.04-.59.12-.19.08-.35.2-.5.33-.15.15-.26.31-.33.51-.08.19-.12.39-.12.6v2.6c0-.21.03-.41.11-.61s.19-.37.33-.52c.15-.15.31-.27.51-.35.19-.08.39-.12.6-.12s.41.04.6.12.36.2.51.35c.15.15.26.32.33.52s.11.4.11.61v-2.6c0-.21-.04-.41-.12-.6-.08-.19-.19-.36-.33-.51-.15-.15-.31-.26-.5-.34-.19-.08-.38-.12-.59-.12h-.02Z" fill="#9c59b2" stroke-width="0"/>
  <path d="M13.37,9.31c-1.1,0-1.99-.89-1.99-1.99V2.69c0-1.1.89-1.99,1.99-1.99s1.99.89,1.99,1.99v4.63c0,1.1-.89,1.99-1.99,1.99ZM13.37,1.65c-.57,0-1.04.47-1.04,1.04v4.63c0,.57.47,1.04,1.04,1.04s1.04-.47,1.04-1.04V2.69c0-.57-.47-1.04-1.04-1.04Z" fill="#1d1e1e" stroke-width="0"/>
  <rect x="19.09" y="1.18" width="3.03" height="7.66" rx="1.51" ry="1.51" fill="#702f8a" stroke-width="0"/>
  <path d="M20.6,1.19c-.21,0-.4.04-.59.12-.19.08-.35.2-.5.33-.15.15-.26.31-.33.51-.08.19-.12.39-.12.6v2.6c0-.21.03-.41.11-.61s.19-.37.33-.52c.15-.15.31-.27.51-.35.19-.08.39-.12.6-.12s.41.04.6.12.36.2.51.35c.15.15.26.32.33.52s.11.4.11.61v-2.6c0-.21-.04-.41-.12-.6-.08-.19-.19-.36-.33-.51-.15-.15-.31-.26-.5-.34-.19-.08-.38-.12-.59-.12h-.02Z" fill="#9c59b2" stroke-width="0"/>
  <path d="M20.61,9.31c-1.1,0-1.99-.89-1.99-1.99V2.69c0-1.1.89-1.99,1.99-1.99s1.99.89,1.99,1.99v4.63c0,1.1-.89,1.99-1.99,1.99ZM20.61,1.65c-.57,0-1.04.47-1.04,1.04v4.63c0,.57.47,1.04,1.04,1.04s1.04-.47,1.04-1.04V2.69c0-.57-.47-1.04-1.04-1.04Z" fill="#1d1e1e" stroke-width="0"/>
  <rect x="26.28" y="1.18" width="3.03" height="7.66" rx="1.51" ry="1.51" fill="#702f8a" stroke-width="0"/>
  <path d="M27.79,1.19c-.21,0-.4.04-.59.12-.19.08-.35.2-.5.33-.15.15-.26.31-.33.51-.08.19-.12.39-.12.6v2.6c0-.21.03-.41.11-.61s.19-.37.33-.52c.15-.15.31-.27.51-.35.19-.08.39-.12.6-.12s.41.04.6.12.36.2.51.35c.15.15.26.32.33.52s.11.4.11.61v-2.6c0-.21-.04-.41-.12-.6-.08-.19-.19-.36-.33-.51-.15-.15-.31-.26-.5-.34-.19-.08-.38-.12-.59-.12h-.02Z" fill="#9c59b2" stroke-width="0"/>
  <path d="M27.8,9.31c-1.1,0-1.99-.89-1.99-1.99V2.69c0-1.1.89-1.99,1.99-1.99s1.99.89,1.99,1.99v4.63c0,1.1-.89,1.99-1.99,1.99ZM27.8,1.65c-.57,0-1.04.47-1.04,1.04v4.63c0,.57.47,1.04,1.04,1.04s1.04-.47,1.04-1.04V2.69c0-.57-.47-1.04-1.04-1.04Z" fill="#1d1e1e" stroke-width="0"/>
  <rect x="33.44" y="1.18" width="3.03" height="7.66" rx="1.51" ry="1.51" fill="#702f8a" stroke-width="0"/>
  <path d="M34.94,1.19c-.21,0-.4.04-.59.12-.19.08-.35.2-.5.33-.15.15-.26.31-.33.51-.08.19-.12.39-.12.6v2.6c0-.21.03-.41.11-.61s.19-.37.33-.52c.15-.15.31-.27.51-.35.19-.08.39-.12.6-.12s.41.04.6.12.36.2.51.35c.15.15.26.32.33.52s.11.4.11.61v-2.6c0-.21-.04-.41-.12-.6-.08-.19-.19-.36-.33-.51-.15-.15-.31-.26-.5-.34-.19-.08-.38-.12-.59-.12h-.02Z" fill="#9c59b2" stroke-width="0"/>
  <path d="M34.95,9.31c-1.1,0-1.99-.89-1.99-1.99V2.69c0-1.1.89-1.99,1.99-1.99s1.99.89,1.99,1.99v4.63c0,1.1-.89,1.99-1.99,1.99ZM34.95,1.65c-.57,0-1.04.47-1.04,1.04v4.63c0,.57.47,1.04,1.04,1.04s1.04-.47,1.04-1.04V2.69c0-.57-.47-1.04-1.04-1.04Z" fill="#1d1e1e" stroke-width="0"/>
</svg>