<svg width="16" height="16" viewBox="0 0 16 16" fill="none" xmlns="http://www.w3.org/2000/svg">
    <path d="M13.216 6.112c.288 0 .521.21.521.468v.703c0 2.744-2.197 5.038-5.07 5.35v2.324h1.777l.105.01a.523.523 0 0 1 0 1.022l-.105.011H5.847a.523.523 0 0 1 0-1.043h1.776v-2.3C4.608 12.475 2.26 10.12 2.26 7.283V6.58c0-.258.233-.468.521-.468.288 0 .522.21.522.468v.703c0 2.48 2.127 4.45 4.696 4.45 2.57 0 4.695-1.97 4.695-4.45V6.58c0-.259.234-.468.522-.468zM7.999 0a2.609 2.609 0 0 1 2.608 2.608v5.218a2.609 2.609 0 0 1-5.217 0V2.608A2.61 2.61 0 0 1 7.999 0z" fill="#324DC7"/>
</svg>
