<?xml version="1.0" encoding="UTF-8"?>
<svg id="Layer_1" data-name="Layer 1" xmlns="http://www.w3.org/2000/svg" viewBox="0 0 48 48">
  <path d="M21.12,3.25h5.68v4.25c0,.38-.06.75-.2,1.1-.14.35-.35.67-.61.94s-.58.48-.93.63c-.35.15-.72.22-1.1.22s-.75-.07-1.1-.22c-.35-.15-.66-.36-.93-.63s-.47-.59-.61-.94c-.14-.35-.21-.72-.2-1.1V3.25Z" fill="#e6f1fa" stroke-width="0"/>
  <path d="M23.96,10.92c-.45,0-.89-.09-1.3-.26s-.78-.42-1.1-.74-.56-.69-.73-1.11c-.17-.42-.25-.86-.24-1.31V3.25c0-.3.24-.54.54-.54h5.68c.3,0,.54.24.54.54v4.25c0,.44-.07.88-.24,1.3s-.41.79-.73,1.11c-.31.32-.69.57-1.1.74-.42.17-.85.26-1.3.26h-.02ZM21.66,3.78v3.72c0,.32.05.61.16.9s.28.54.5.76.47.39.75.51c.57.24,1.21.24,1.78,0,.28-.12.54-.29.75-.51s.38-.47.5-.76c.11-.28.17-.58.16-.89v-3.72h-4.6Z" fill="#1d1e1e" stroke-width="0"/>
  <path d="M36.97,7.94l2.3,2.3-1.81,1.81c-.16.16-.34.29-.55.38-.2.09-.42.14-.64.15s-.44-.03-.64-.11-.38-.2-.54-.35-.27-.33-.35-.54c-.08-.2-.12-.42-.11-.64s.06-.44.15-.64c.09-.2.22-.39.38-.55l1.81-1.81Z" fill="#e6f1fa" stroke-width="0"/>
  <path d="M37.57,5.87l3.76,3.76-.87.87c-.12.12-.28.21-.42.23-.15.03-.28,0-.37-.09l-3.11-3.11c-.09-.09-.12-.22-.09-.37s.11-.3.23-.42l.87-.87Z" fill="#fff" stroke-width="0"/>
  <path d="M39.94,11.29c-.25,0-.48-.09-.65-.26l-3.11-3.11c-.21-.21-.3-.52-.24-.84.05-.26.18-.51.38-.71l.87-.87c.21-.21.55-.21.76,0l3.76,3.76c.21.21.21.55,0,.76l-.87.87c-.2.2-.46.34-.71.38-.06.01-.13.02-.19.02ZM37.01,7.23l2.97,2.97s.06-.04.1-.07l.49-.49-3-3-.49.49s-.06.07-.07.1Z" fill="#1d1e1e" stroke-width="0"/>
  <path d="M36.22,13.12c-.27,0-.53-.05-.79-.15-.27-.11-.51-.26-.72-.47s-.36-.45-.47-.72-.15-.56-.15-.85.08-.58.2-.85.29-.51.5-.72l1.8-1.8c.21-.21.55-.21.76,0l2.3,2.3c.21.21.21.55,0,.76l-1.8,1.81c-.2.21-.44.37-.71.49s-.55.19-.85.2c-.02,0-.05,0-.07,0ZM36.97,8.71l-1.42,1.42c-.12.12-.21.24-.27.39-.06.14-.1.29-.1.44,0,.14.02.29.07.43.05.13.13.25.23.35s.22.18.35.23c.13.05.27.07.43.07.15,0,.3-.04.44-.1s.27-.15.38-.27l1.43-1.43-1.54-1.54h0Z" fill="#1d1e1e" stroke-width="0"/>
  <path d="M6.72,23.16c0,2.27.45,4.51,1.31,6.6.87,2.09,2.14,4,3.74,5.59,1.6,1.6,3.5,2.87,5.59,3.74,2.09.87,4.33,1.31,6.6,1.31s4.51-.45,6.6-1.31c2.09-.87,4-2.14,5.59-3.74,1.6-1.6,2.87-3.5,3.74-5.59.87-2.09,1.31-4.33,1.31-6.6s-.45-4.51-1.31-6.6c-.87-2.09-2.14-4-3.74-5.59-1.6-1.6-3.5-2.87-5.59-3.74-2.09-.87-4.33-1.31-6.6-1.31s-4.51.45-6.6,1.31c-2.09.87-4,2.14-5.59,3.74-1.6,1.6-2.87,3.5-3.74,5.59-.87,2.09-1.31,4.33-1.31,6.6h0Z" fill="#009cde" stroke-width="0"/>
  <path d="M13.19,36.61c-1.85-1.47-3.38-3.32-4.48-5.42-1.1-2.09-1.77-4.4-1.95-6.75-.18-2.36.13-4.74.91-6.97.78-2.24,2.01-4.29,3.63-6.02,1.61-1.74,3.56-3.13,5.73-4.07,2.17-.95,4.51-1.45,6.88-1.45s4.72.47,6.89,1.41c2.18.94,4.13,2.32,5.75,4.05l-23.36,25.23Z" fill="#71c5e8" stroke-width="0"/>
  <path d="M19.69.54h8.54v1.77c0,.25-.08.49-.22.67s-.33.28-.52.28h-7.05c-.2,0-.39-.1-.52-.28-.14-.18-.22-.42-.22-.67V.54h0Z" fill="#fff" stroke-width="0"/>
  <path d="M27.49,3.79h-7.05c-.36,0-.71-.18-.95-.48-.21-.27-.33-.63-.33-1V.54c0-.3.24-.54.54-.54h8.54c.3,0,.54.24.54.54v1.77c0,.37-.12.73-.33,1-.24.31-.59.48-.95.48h0ZM20.23,1.08v1.23c0,.13.04.25.1.33.03.04.07.07.1.07h7.05s.07-.03.1-.07c.06-.08.1-.21.1-.33v-1.23h-7.46,0Z" fill="#1d1e1e" stroke-width="0"/>
  <path d="M23.96,41c-4.76,0-9.24-1.85-12.61-5.22-3.37-3.37-5.22-7.85-5.22-12.61s1.86-9.24,5.22-12.61c3.37-3.37,7.85-5.22,12.61-5.22s9.24,1.85,12.61,5.22c3.37,3.37,5.22,7.85,5.22,12.61s-1.85,9.24-5.22,12.61c-3.37,3.37-7.85,5.22-12.61,5.22ZM23.96,6.41c-4.48,0-8.68,1.74-11.85,4.91s-4.91,7.37-4.91,11.85,1.74,8.68,4.91,11.85c3.16,3.16,7.37,4.91,11.85,4.91s8.68-1.74,11.85-4.91c3.16-3.16,4.91-7.37,4.91-11.85s-1.74-8.68-4.91-11.85c-3.16-3.16-7.37-4.91-11.85-4.91Z" fill="#1d1e1e" stroke-width="0"/>
  <path d="M36.93,23.17c0,2.57-.76,5.07-2.19,7.21-1.43,2.13-3.45,3.8-5.82,4.78s-4.98,1.24-7.5.74-4.83-1.74-6.64-3.55c-1.81-1.81-3.05-4.13-3.55-6.64-.5-2.52-.24-5.12.74-7.5.98-2.37,2.64-4.4,4.78-5.82,2.13-1.43,4.64-2.19,7.21-2.19,3.44,0,6.74,1.37,9.17,3.8,2.43,2.43,3.8,5.73,3.8,9.17h0Z" fill="#fff" stroke-width="0"/>
  <path d="M36.74,25.37c-.5-3.03-2.06-5.79-4.4-7.78-2.34-1.99-5.31-3.08-8.39-3.08s-6.04,1.09-8.39,3.08c-2.34,1.99-3.9,4.74-4.4,7.78-.32-1.86-.23-3.77.27-5.59.5-1.82,1.38-3.52,2.6-4.96s2.74-2.61,4.45-3.4c1.71-.8,3.58-1.21,5.47-1.21s3.76.41,5.47,1.21,3.23,1.96,4.45,3.4c1.22,1.44,2.11,3.14,2.6,4.96.5,1.82.59,3.73.27,5.59h0Z" fill="#e6f1fa" stroke-width="0"/>
  <path d="M23.97,36.68c-.88,0-1.77-.09-2.64-.26-2.63-.52-5.02-1.8-6.92-3.7-1.9-1.9-3.17-4.29-3.7-6.92-.52-2.63-.26-5.33.77-7.81s2.75-4.57,4.98-6.06c2.23-1.49,4.82-2.28,7.5-2.28h0c3.61,0,7,1.41,9.55,3.96,2.55,2.55,3.96,5.94,3.96,9.55h0c0,2.68-.79,5.28-2.28,7.51-1.49,2.23-3.59,3.95-6.06,4.98-1.65.68-3.4,1.03-5.16,1.03ZM23.96,10.73c-2.47,0-4.85.72-6.9,2.09-2.05,1.37-3.64,3.3-4.58,5.58s-1.19,4.76-.71,7.18c.48,2.42,1.66,4.62,3.4,6.37,1.75,1.75,3.95,2.92,6.37,3.4,2.42.48,4.9.24,7.18-.71,2.28-.94,4.21-2.53,5.58-4.58,1.37-2.05,2.1-4.44,2.09-6.91h0c0-3.32-1.29-6.44-3.64-8.79-2.35-2.35-5.47-3.64-8.79-3.64h0Z" fill="#1d1e1e" stroke-width="0"/>
  <path d="M30.07,17.59c-.14,0-.28-.05-.38-.16-.21-.21-.21-.55,0-.76l1.22-1.22c.21-.21.55-.21.76,0s.21.55,0,.76l-1.22,1.22c-.11.11-.24.16-.38.16Z" fill="#1d1e1e" stroke-width="0"/>
  <path d="M34.34,23.7h-1.73c-.3,0-.54-.24-.54-.54s.24-.54.54-.54h1.73c.3,0,.54.24.54.54s-.24.54-.54.54Z" fill="#1d1e1e" stroke-width="0"/>
  <path d="M31.3,31.04c-.14,0-.28-.05-.38-.16l-1.22-1.22c-.21-.21-.21-.55,0-.76s.55-.21.76,0l1.22,1.22c.21.21.21.55,0,.76-.11.11-.24.16-.38.16Z" fill="#1d1e1e" stroke-width="0"/>
  <path d="M23.96,34.08c-.3,0-.54-.24-.54-.54v-1.73c0-.3.24-.54.54-.54s.54.24.54.54v1.73c0,.3-.24.54-.54.54Z" fill="#1d1e1e" stroke-width="0"/>
  <path d="M23.96,14.85c-.3,0-.54-.24-.54-.54v-1.73c0-.3.24-.54.54-.54s.54.24.54.54v1.73c0,.3-.24.54-.54.54Z" fill="#1d1e1e" stroke-width="0"/>
  <path d="M16.62,31.04c-.14,0-.28-.05-.38-.16-.21-.21-.21-.55,0-.76l1.22-1.22c.21-.21.55-.21.76,0s.21.55,0,.76l-1.22,1.22c-.11.11-.24.16-.38.16Z" fill="#1d1e1e" stroke-width="0"/>
  <path d="M15.31,23.7h-1.73c-.3,0-.54-.24-.54-.54s.24-.54.54-.54h1.73c.3,0,.54.24.54.54s-.24.54-.54.54Z" fill="#1d1e1e" stroke-width="0"/>
  <path d="M17.84,17.59c-.14,0-.28-.05-.38-.16l-1.22-1.22c-.21-.21-.21-.55,0-.76s.55-.21.76,0l1.22,1.22c.21.21.21.55,0,.76-.11.11-.24.16-.38.16Z" fill="#1d1e1e" stroke-width="0"/>
  <path d="M23.74,23.69c-.28-.11-.41-.44-.3-.72l3.59-8.74c.11-.28.44-.41.72-.3s.41.44.3.72l-3.59,8.74c-.11.28-.44.41-.72.3Z" fill="#1d1e1e" stroke-width="0"/>
</svg>