<?xml version="1.0" encoding="UTF-8"?>
<svg id="Layer_1" data-name="Layer 1" xmlns="http://www.w3.org/2000/svg" viewBox="0 0 48 48">
  <path d="M11.67,45.79h-.1c-.2-.04-.41-.08-.6-.13-.27-.06-.43-.33-.37-.6.06-.27.33-.43.6-.37.19.04.37.09.57.12.27.05.44.32.39.59-.05.24-.25.4-.49.4h0Z" fill="#702f8a" stroke-width="0"/>
  <path d="M8.22,44.74c-.07,0-.13,0-.19-.04-4.44-1.88-6.39-5-7.25-7.28-1.06-2.84-1.04-6.02.06-8.72.64-1.58,1.5-2.74,2.47-3.57-.02-.37,0-.75.03-1.15.39-4.68,4.47-10.62,10.38-12.05.26-.06.54.1.6.37.06.27-.1.54-.37.6-5.47,1.32-9.26,6.83-9.62,11.17,0,.11-.02.23-.02.36,2.28-1.34,4.97-1.17,7.13-.32.5.21.95.54,1.29.95s.58.91.69,1.43c.11.5.12,1.04,0,1.55-.11.51-.34,1-.66,1.41-.67.82-1.6,1.4-2.62,1.64s-2.11.14-3.07-.29c-1.93-.83-3.17-2.37-3.61-4.38-.75.78-1.32,1.71-1.71,2.66-2.59,6.34,1.35,12.46,6.65,14.7.25.11.37.4.26.65-.08.19-.26.3-.46.3h.02ZM4.35,25.65c.18,1.52.92,3.3,3.13,4.25.77.34,1.63.42,2.44.23.81-.19,1.54-.65,2.07-1.3.22-.29.39-.64.47-1.01s.08-.75,0-1.12-.25-.72-.49-1.01-.55-.52-.9-.66c-2.82-1.11-5.07-.6-6.71.62h0Z" fill="#702f8a" stroke-width="0"/>
  <path d="M15.32,12.67c-.25,0-.47-.19-.49-.45-.03-.27.17-.52.45-.54.21-.02.41-.03.62-.04.27-.04.51.2.52.48,0,.27-.2.51-.48.52-.19,0-.38.02-.57.04h-.05Z" fill="#702f8a" stroke-width="0"/>
  <path d="M13.1,2.15c-.13-.15-.22-.33-.24-.53s0-.4.09-.57c.09-.18.23-.33.4-.42.17-.1.37-.14.57-.13l32.67,2.59c.2.02.4.09.55.23.16.13.27.31.32.5.05.2.05.41-.02.6s-.2.36-.36.48l-26.79,18.87c-.16.11-.36.18-.55.18-.2,0-.39-.05-.56-.16s-.3-.26-.37-.45c-.08-.18-.1-.38-.06-.58l2.23-11.23c.03-.15.02-.31-.02-.46s-.12-.29-.22-.4L13.1,2.15Z" fill="#fff" stroke-width="0"/>
  <path d="M19.72,24.45c-.29,0-.57-.08-.81-.24-.25-.16-.45-.4-.56-.67-.12-.28-.15-.58-.09-.87l2.23-11.23c.02-.08,0-.15,0-.23s-.06-.14-.11-.2L12.73,2.49c-.2-.22-.33-.5-.37-.8-.04-.29,0-.59.14-.86.13-.27.34-.49.6-.64.26-.15.55-.21.85-.19l32.68,2.6c.31.02.6.14.83.34.24.2.4.46.49.75.08.3.07.61-.03.9s-.29.54-.54.71l-26.8,18.88c-.25.17-.53.27-.83.27h-.03ZM13.84,1c-.09,0-.17.02-.24.07-.09.05-.15.12-.2.21-.04.09-.06.19-.05.29s.06.19.12.26h0l7.64,8.53c.15.17.27.38.33.6s.07.46.02.69l-2.23,11.23c-.02.1,0,.2.03.29.04.09.1.17.19.22.08.05.18.09.28.08.1,0,.19-.03.28-.09L46.79,4.49c.08-.06.15-.14.18-.24s.04-.2,0-.3c-.03-.1-.08-.19-.16-.25-.08-.07-.17-.1-.28-.11L13.88,1h-.04Z" fill="#1d1e1e" stroke-width="0"/>
  <path d="M20.98,11.54l-2.23,11.23c-.04.19-.02.4.06.58s.21.34.37.45c.17.11.36.16.56.16s.39-.07.55-.18L47.08,4.9c.17-.12.29-.28.36-.48s.08-.4.02-.6l-26.5,7.26c.04.15.05.3.02.46h0Z" fill="#f1eaf3" stroke-width="0"/>
  <path d="M19.72,24.45c-.29,0-.57-.08-.81-.24-.25-.16-.44-.39-.56-.67-.12-.28-.15-.58-.09-.87l2.23-11.23c0-.07,0-.15,0-.23-.07-.27.08-.54.35-.61l26.5-7.26c.27-.07.54.08.61.35.08.3.07.61-.03.9-.11.29-.29.54-.54.72l-26.8,18.87c-.25.17-.53.27-.83.27h-.03ZM21.49,11.45c0,.06,0,.12-.02.18h0l-2.23,11.23c-.02.1,0,.2.03.29.04.09.1.17.19.22.08.05.18.09.28.08.1,0,.2-.03.28-.09L46.72,4.54l-25.22,6.91h-.01ZM20.98,11.53" fill="#1d1e1e" stroke-width="0"/>
</svg>