<svg width="20" height="20" viewBox="0 0 20 20" fill="none" xmlns="http://www.w3.org/2000/svg">
    <path d="M10 19a9 9 0 1 1 9-9 9.01 9.01 0 0 1-9 9zm0-16.863A7.863 7.863 0 1 0 17.863 10 7.873 7.873 0 0 0 10 2.137z" fill="#1E1E1E"/>
    <path fill-rule="evenodd" clip-rule="evenodd" d="M10 4.79a3.363 3.363 0 0 0-3.353 3.353h1.544a1.81 1.81 0 1 1 3.61 0 2.046 2.046 0 0 1-1.08 1.81 3.06 3.06 0 0 0-1.497 2.567h1.544c0-.616.294-.872.947-1.346a3.553 3.553 0 0 0 1.668-3.031A3.353 3.353 0 0 0 10 4.789zM9.26 15.87h1.544v-1.8H9.26v1.8z" fill="#1E1E1E"/>
</svg>
