<?xml version="1.0" encoding="UTF-8"?>
<svg id="Layer_1" data-name="Layer 1" xmlns="http://www.w3.org/2000/svg" viewBox="0 0 48 48">
  <g>
    <path d="M20.37,4.17c0,.97.38,1.91,1.06,2.6s1.6,1.08,2.57,1.08,1.89-.39,2.57-1.08c.68-.69,1.06-1.62,1.06-2.6s-.38-1.91-1.06-2.6c-.68-.69-1.6-1.08-2.57-1.08s-1.89.39-2.57,1.08-1.06,1.62-1.06,2.6h0Z" fill="#e6edf8" stroke-width="0"/>
    <path d="M20.44,4.89c-.1-.53-.09-1.08.04-1.61.13-.53.37-1.02.71-1.44.34-.42.77-.76,1.25-.99s1.01-.36,1.55-.36,1.06.12,1.55.34c.49.23.91.56,1.26.98.34.42.59.91.72,1.43s.15,1.07.05,1.61c-.16-.84-.61-1.59-1.26-2.13-.65-.54-1.47-.84-2.32-.83-.84,0-1.66.3-2.31.85-.65.55-1.09,1.31-1.24,2.15" fill="#fff" stroke-width="0"/>
    <path d="M24,8.34c-1.1,0-2.14-.43-2.92-1.22-.78-.79-1.21-1.83-1.21-2.95s.43-2.16,1.21-2.95c.78-.79,1.82-1.22,2.92-1.22s2.14.43,2.92,1.22c.78.79,1.21,1.83,1.21,2.95s-.43,2.16-1.21,2.95c-.78.79-1.82,1.22-2.92,1.22ZM24,.99c-.84,0-1.62.33-2.22.93-.59.6-.92,1.4-.92,2.25s.34,1.66.92,2.25c.59.6,1.38.93,2.22.93s1.62-.33,2.21-.93c.59-.59.92-1.41.92-2.25s-.33-1.65-.92-2.25c-.59-.6-1.38-.93-2.21-.93Z" fill="#1d1e1e" stroke-width="0"/>
    <path d="M24,9.98c-3.97,0-7.8,3.22-7.8,7.2v8.4c0,.47.2.92.54,1.25s.79.52,1.26.52.92-.19,1.26-.52.53-.78.54-1.25l1.02,12.78c.05.6.32,1.16.76,1.57s1.02.64,1.63.64h1.57c.6,0,1.18-.23,1.63-.64.44-.41.72-.97.76-1.57l1.02-12.78c0,.47.2.92.54,1.25.34.33.79.52,1.26.52s.92-.19,1.26-.52.53-.78.54-1.25v-8.4c0-3.97-3.82-7.2-7.8-7.2h0Z" fill="#e6edf8" stroke-width="0"/>
    <path d="M24,9.98c-3.97,0-7.8,3.22-7.8,7.2l.6,3c0-3.97,1.62-7.2,7.2-7.2s7.2,3.22,7.2,7.2l.6-3c0-3.97-3.82-7.2-7.8-7.2Z" fill="#fff" stroke-width="0"/>
    <path d="M24.78,41h-1.57c-.72,0-1.4-.27-1.93-.75-.53-.49-.85-1.15-.9-1.86l-.89-11.18c-.85.76-2.24.73-3.06-.07-.42-.41-.66-.97-.67-1.56v-8.4c0-4.07,3.85-7.64,8.24-7.64,2.04,0,4.11.81,5.68,2.22,1.65,1.48,2.55,3.4,2.55,5.42v8.4c0,.6-.25,1.15-.67,1.56-.81.8-2.21.83-3.06.07l-.9,11.18c-.06.71-.38,1.37-.9,1.86-.53.49-1.21.75-1.93.75h0ZM20.24,25.57l1.02,12.75c.04.49.26.95.62,1.28.36.34.84.52,1.33.52h1.57c.49,0,.97-.18,1.33-.52s.58-.79.62-1.28l1.02-12.77v-7.78c0-.24.2-.44.44-.44s.44.2.44.44v7.79c0,.36.15.69.41.94.51.5,1.4.5,1.91,0,.26-.25.4-.59.41-.95v-8.39c0-1.76-.8-3.45-2.26-4.76-1.41-1.27-3.27-2-5.1-2-3.92,0-7.36,3.16-7.36,6.76v8.4c0,.35.15.69.41.94.51.5,1.4.5,1.91,0,.26-.25.4-.59.41-.95v-7.79c0-.24.2-.44.44-.44s.44.2.44.44v7.81Z" fill="#1d1e1e" stroke-width="0"/>
  </g>
  <g>
    <path d="M30.56,39.02c0,2.28.9,4.46,2.51,6.07,1.61,1.61,3.8,2.51,6.07,2.51s4.46-.9,6.07-2.51c1.61-1.61,2.51-3.8,2.51-6.07s-.9-4.46-2.51-6.07c-1.61-1.61-3.8-2.51-6.07-2.51s-4.46.9-6.07,2.51c-1.61,1.61-2.51,3.8-2.51,6.07h0Z" fill="#e6edf8" stroke-width="0"/>
    <path d="M30.73,40.69c-.25-1.24-.22-2.52.09-3.76.31-1.23.88-2.37,1.68-3.36.8-.98,1.81-1.77,2.95-2.32s2.39-.83,3.66-.83,2.51.27,3.67.8c1.15.54,2.17,1.32,2.97,2.3.8.97,1.39,2.12,1.71,3.34s.36,2.5.12,3.76c-.39-1.96-1.44-3.73-2.98-4.99-1.54-1.26-3.48-1.96-5.48-1.95-2,0-3.92.72-5.46,1.99-1.53,1.28-2.57,3.05-2.94,5.01" fill="#fff" stroke-width="0"/>
    <path d="M39.02,48c-2.4,0-4.66-.93-6.35-2.63-1.7-1.7-2.63-3.95-2.63-6.35s.93-4.66,2.63-6.35c1.7-1.7,3.95-2.63,6.35-2.63s4.66.93,6.35,2.63c1.7,1.7,2.63,3.95,2.63,6.35s-.93,4.66-2.63,6.35c-1.7,1.7-3.95,2.63-6.35,2.63ZM39.02,30.82c-2.19,0-4.24.85-5.79,2.39-1.55,1.54-2.39,3.61-2.39,5.79s.85,4.24,2.39,5.79c1.55,1.55,3.61,2.39,5.79,2.39s4.24-.85,5.79-2.39c1.55-1.55,2.39-3.61,2.39-5.79s-.85-4.24-2.39-5.79c-1.54-1.55-3.61-2.39-5.79-2.39Z" fill="#1d1e1e" stroke-width="0"/>
    <path d="M37.63,42.6c-.13,0-.27-.03-.38-.08-.12-.05-.23-.13-.33-.22l-2.03-2.05c-.18-.2-.29-.45-.29-.72s.11-.53.3-.72c.19-.19.44-.3.7-.3s.52.1.71.29l1.31,1.32,4.12-4.18c.2-.18.44-.27.7-.27.26,0,.51.11.69.3.18.19.29.44.29.7s-.09.52-.27.72l-4.83,4.9c-.09.1-.21.17-.33.22-.12.05-.25.08-.38.08Z" fill="#618fff" stroke-width="0"/>
    <path d="M37.63,43.01c-.19,0-.37-.04-.55-.11-.17-.07-.33-.18-.46-.31l-2.03-2.05c-.27-.28-.4-.63-.4-1.01,0-.38.15-.73.41-1,.27-.27.62-.42.99-.42h.01c.37,0,.72.14.98.4l1.02,1.04,3.83-3.88c.29-.26.64-.4,1-.39.36,0,.71.16.97.42.26.26.4.61.41.98,0,.37-.12.72-.37,1l-4.85,4.91c-.13.13-.29.24-.46.31-.17.07-.36.11-.54.11h.02ZM35.62,38.92h0c-.16,0-.31.07-.42.18s-.18.27-.18.44.06.32.17.44l2.02,2.05c.06.06.12.1.2.13.15.07.31.06.46,0,.07-.03.14-.08.2-.13l4.84-4.9c.1-.1.15-.26.15-.42s-.07-.31-.18-.42-.26-.18-.41-.18-.31.05-.42.16l-4.11,4.16c-.15.16-.42.16-.58,0l-1.31-1.32c-.11-.1-.25-.17-.42-.17h0Z" fill="#1d1e1e" stroke-width="0"/>
  </g>
</svg>