<?xml version="1.0" encoding="UTF-8"?>
<svg id="Layer_1" data-name="Layer 1" xmlns="http://www.w3.org/2000/svg" viewBox="0 0 48 48">
  <path d="M47.3,10.54c0-1.13-.41-2.22-1.15-3.03s-1.74-1.26-2.79-1.26H3.94c-.52,0-1.04.12-1.51.33-.48.22-.91.53-1.28.93-.36.4-.65.87-.85,1.39C.1,9.42,0,9.97,0,10.54v19.78c0,.56.1,1.12.29,1.64.2.52.48.99.85,1.39.36.4.8.72,1.28.93.48.22,1,.33,1.51.33h39.42c.52,0,1.04-.12,1.51-.33.48-.22.91-.53,1.28-.93s.65-.87.85-1.39c.2-.52.3-1.07.29-1.64V10.54h.01Z" fill="#e6edf8" stroke-width="0"/>
  <path d="M3.94,35.17c-.59,0-1.17-.13-1.71-.37-.54-.24-1.03-.59-1.44-1.05-.41-.44-.72-.96-.94-1.54-.21-.58-.32-1.19-.32-1.81V10.6c0-.62.11-1.23.33-1.81.22-.58.54-1.1.94-1.54.41-.45.89-.79,1.44-1.05.54-.24,1.12-.37,1.71-.37h39.41c1.18,0,2.32.52,3.14,1.42.82.89,1.28,2.09,1.28,3.35v19.8c0,.62-.11,1.23-.32,1.8-.22.58-.54,1.1-.94,1.54-.41.45-.89.79-1.44,1.05-.54.24-1.12.37-1.71.37H3.94ZM3.94,6.78c-.45,0-.89.1-1.32.29s-.8.46-1.13.82c-.32.35-.58.77-.75,1.24-.18.47-.27.96-.26,1.47v19.81c0,.5.09,1.01.26,1.47.18.46.43.88.75,1.24s.7.62,1.13.82c.42.19.86.29,1.32.29h39.42c.45,0,.89-.1,1.32-.29.42-.19.8-.46,1.13-.82.32-.35.58-.77.75-1.24.18-.47.27-.96.26-1.47V10.6h0c0-1.01-.37-1.99-1.03-2.7-.65-.71-1.52-1.11-2.44-1.11H3.94Z" fill="#1d1e1e" stroke-width="0"/>
  <path d="M41.89,26.45v-11.23c-.51,0-1.03-.13-1.5-.37-.47-.24-.9-.6-1.27-1.06-.36-.45-.65-.99-.84-1.58s-.29-1.22-.29-1.86H9.32c0,.63-.1,1.27-.29,1.86s-.48,1.13-.84,1.58c-.36.45-.79.81-1.27,1.06-.47.24-.99.37-1.5.37v11.23c.51,0,1.03.13,1.5.37.47.24.9.6,1.27,1.06.36.45.65.99.84,1.58.19.59.29,1.22.29,1.86h28.67c0-1.29.41-2.52,1.15-3.43.73-.91,1.73-1.43,2.77-1.43h-.01Z" fill="#fff" stroke-width="0"/>
  <path d="M37.98,31.79H9.32c-.12,0-.24-.05-.33-.14s-.14-.21-.14-.33c0-.59-.09-1.17-.27-1.71-.18-.53-.43-1.02-.76-1.43-.32-.4-.7-.71-1.12-.93-.41-.21-.84-.32-1.29-.32-.26,0-.47-.21-.47-.47v-11.23c0-.26.21-.47.47-.47.44,0,.87-.11,1.29-.32.42-.22.79-.53,1.12-.93.33-.41.58-.89.76-1.43.18-.54.27-1.12.27-1.71,0-.12.05-.24.14-.33s.21-.14.33-.14h28.67c.12,0,.24.05.33.14s.14.21.14.33c0,.58.09,1.16.27,1.71.18.54.44,1.02.76,1.43.32.4.7.71,1.12.93.41.21.84.32,1.29.32.26,0,.47.21.47.47v11.23c0,.26-.21.47-.47.47-.9,0-1.76.45-2.4,1.26-.66.82-1.04,1.96-1.04,3.14,0,.13-.05.24-.14.33s-.21.14-.33.14ZM9.78,30.84h27.75c.09-1.23.51-2.36,1.23-3.26.71-.88,1.66-1.44,2.66-1.58v-10.34c-.43-.06-.84-.19-1.25-.39-.53-.28-1.02-.67-1.42-1.18s-.71-1.08-.92-1.72c-.16-.49-.26-1.01-.3-1.53H9.77c-.04.52-.14,1.04-.3,1.53-.21.64-.52,1.23-.92,1.72-.4.5-.88.9-1.42,1.18-.4.21-.81.34-1.25.39v10.34c.43.06.84.19,1.25.39.53.28,1.02.67,1.42,1.18s.71,1.08.92,1.72c.16.49.26,1.01.3,1.53v.02ZM41.9,26.45" fill="#1d1e1e" stroke-width="0"/>
  <path d="M15.13,20.84c0,2.26.9,4.43,2.5,6.03,1.6,1.6,3.77,2.5,6.03,2.5s4.43-.9,6.03-2.5c1.6-1.6,2.5-3.77,2.5-6.03s-.9-4.43-2.5-6.03c-1.6-1.6-3.77-2.5-6.03-2.5s-4.43.9-6.03,2.5c-1.6,1.6-2.5,3.77-2.5,6.03h0Z" fill="#e6edf8" stroke-width="0"/>
  <path d="M17.63,26.87c-1.6-1.6-2.5-3.77-2.5-6.03s.9-4.43,2.5-6.03c1.6-1.6,3.77-2.5,6.03-2.5s4.43.9,6.03,2.5l-12.06,12.06Z" fill="#fff" stroke-width="0"/>
  <path d="M23.66,29.85c-4.97,0-9.02-4.05-9.02-9.02s4.05-9.02,9.02-9.02,9.02,4.05,9.02,9.02-4.05,9.02-9.02,9.02ZM23.66,12.79c-4.44,0-8.04,3.61-8.04,8.04s3.61,8.04,8.04,8.04,8.04-3.61,8.04-8.04-3.61-8.04-8.04-8.04Z" fill="#1d1e1e" stroke-width="0"/>
  <path d="M26.91,22.8c0-.68-.26-1.34-.73-1.84s-1.11-.8-1.79-.85h-.09v-2.78l.11.03c.21.05.39.14.56.27.17.13.31.29.41.46.04.08.1.14.17.19s.14.09.23.11c.09.02.17.03.26.01s.16-.04.24-.09.14-.1.19-.17.09-.15.11-.23.03-.17.01-.26-.04-.16-.09-.24c-.22-.39-.54-.71-.91-.96-.37-.24-.8-.41-1.23-.46h-.08v-.49c0-.09-.01-.18-.04-.26-.04-.08-.08-.16-.14-.22s-.14-.11-.21-.15c-.16-.07-.35-.07-.51,0-.08.04-.16.09-.21.15-.06.06-.11.14-.14.22-.03.09-.05.17-.04.26v.48h-.09c-.68.05-1.33.35-1.8.85s-.73,1.16-.73,1.85.26,1.34.73,1.85c.47.5,1.11.8,1.8.84h.09v2.81h-.09c-.19,0-.37-.04-.54-.13s-.31-.21-.43-.36c-.05-.07-.11-.13-.19-.17-.07-.04-.16-.07-.24-.09h-.09c-.06,0-.11,0-.16.02-.09.02-.16.06-.24.11-.07.05-.13.11-.17.19s-.07.16-.09.24,0,.17.01.26c.02.09.06.16.11.23.24.31.54.57.89.74s.73.26,1.13.27h.09v.64c0,.09.01.18.04.26.03.08.08.16.14.22s.14.11.21.15c.16.07.34.07.51,0,.08-.04.15-.09.21-.15s.11-.14.14-.22c.03-.08.05-.16.04-.26v-.66h.09c.68-.05,1.32-.35,1.79-.85s.73-1.16.73-1.84h0ZM22.99,20.09h-.1c-.33-.06-.63-.23-.85-.48-.22-.25-.34-.58-.34-.91s.12-.66.34-.91.52-.42.86-.46h.1s0,2.77,0,2.77h0ZM25.26,23.71c-.22.25-.52.41-.86.46h-.1s0-2.76,0-2.76h.1c.33.06.63.23.86.48.22.25.34.58.34.91s-.12.66-.34.91h0Z" fill="#1d1e1e" stroke-width="0"/>
</svg>