<?xml version="1.0" encoding="UTF-8"?>
<svg id="Layer_1" data-name="Layer 1" xmlns="http://www.w3.org/2000/svg" viewBox="0 0 48 48">
  <g>
    <path d="M9.25,39.52c0,.25.1.49.28.67.18.18.42.28.67.28h27.59c.25,0,.49-.1.67-.28s.28-.42.28-.67V8.61L30.66.52H10.2c-.12,0-.25.02-.36.07-.12.05-.22.12-.31.21-.09.09-.16.19-.21.31-.05.12-.07.24-.07.36v38.05Z" fill="#fff" stroke-width="0"/>
    <path d="M37.8,40.99H10.2c-.39,0-.76-.15-1.04-.43s-.43-.64-.43-1.04V1.47c0-.19.04-.38.11-.56s.18-.34.32-.48c.14-.14.3-.25.48-.32C9.82.04,10.01,0,10.2,0h20.45c.14,0,.27.05.37.15l8.09,8.09c.1.1.15.23.15.37v30.92c0,.39-.15.76-.43,1.04-.28.28-.64.43-1.04.43h0ZM10.2,1.03c-.06,0-.11,0-.17.03s-.1.05-.14.1c-.04.04-.07.09-.09.14s-.03.11-.03.17v38.05c0,.12.04.23.13.31.08.08.19.13.31.13h27.59c.12,0,.23-.04.31-.13.08-.08.13-.19.13-.31V8.82l-7.8-7.79H10.2Z" fill="#1d1e1e" stroke-width="0"/>
    <path d="M30.65.52v7.2c0,.24.09.46.26.63s.39.26.63.26h7.2L30.65.52Z" fill="#009cde" stroke-width="0"/>
    <path d="M38.74,9.12h-7.2c-.37,0-.73-.15-.99-.41s-.41-.62-.41-.99V.52c0-.21.13-.4.32-.48.19-.08.42-.04.56.11l8.09,8.09c.15.15.19.37.11.56s-.27.32-.48.32ZM31.16,1.76v5.96c0,.1.04.19.11.26s.16.11.26.11h5.95l-6.32-6.33Z" fill="#1d1e1e" stroke-width="0"/>
  </g>
  <path d="M15.19,15.2c0,.27.11.54.3.73.19.19.46.3.73.3s.54-.11.73-.3.3-.46.3-.73-.11-.54-.3-.73-.46-.3-.73-.3-.54.11-.73.3-.3.46-.3.73Z" fill="#009cde" stroke-width="0"/>
  <path d="M32.16,15.77h-11.4c-.32,0-.57-.26-.57-.57s.26-.57.57-.57h11.4c.32,0,.57.26.57.57s-.26.57-.57.57Z" fill="#1d1e1e" stroke-width="0"/>
  <path d="M15.19,21.57c0,.27.11.54.3.73.19.19.46.3.73.3s.54-.11.73-.3.3-.46.3-.73-.11-.54-.3-.73-.46-.3-.73-.3-.54.11-.73.3c-.19.19-.3.46-.3.73Z" fill="#009cde" stroke-width="0"/>
  <path d="M32.16,22.14h-11.4c-.32,0-.57-.26-.57-.57s.26-.57.57-.57h11.4c.32,0,.57.26.57.57s-.26.57-.57.57Z" fill="#1d1e1e" stroke-width="0"/>
  <path d="M15.19,27.94c0,.27.11.54.3.73.19.19.46.3.73.3s.54-.11.73-.3c.19-.19.3-.46.3-.73s-.11-.54-.3-.73-.46-.3-.73-.3-.54.11-.73.3c-.19.19-.3.46-.3.73Z" fill="#009cde" stroke-width="0"/>
  <path d="M32.16,28.51h-11.4c-.32,0-.57-.26-.57-.57s.26-.57.57-.57h11.4c.32,0,.57.26.57.57s-.26.57-.57.57Z" fill="#1d1e1e" stroke-width="0"/>
</svg>