<?xml version="1.0" encoding="UTF-8"?>
<svg id="Layer_1" data-name="Layer 1" xmlns="http://www.w3.org/2000/svg" viewBox="0 0 48 48">
  <path d="M3.94,15.34h40.12v17.19H3.94V15.34Z" fill="#fff" stroke-width="0"/>
  <path d="M36.04,32.54H11.96v-2.61c0-.46.37-.83.83-.83h22.41c.46,0,.83.37.83.83v2.61h0Z" fill="#e6edf8" stroke-width="0"/>
  <path d="M44.06,32.98H3.94c-.24,0-.44-.2-.44-.44V15.34c0-.24.2-.44.44-.44h40.12c.24,0,.44.2.44.44v17.19c0,.24-.2.44-.44.44h0ZM4.38,32.1h39.24V15.78H4.38v16.31h0Z" fill="#1d1e1e" stroke-width="0"/>
  <path d="M36.04,32.98H11.96c-.24,0-.44-.2-.44-.44v-2.61c0-.7.57-1.27,1.27-1.27h22.41c.7,0,1.27.57,1.27,1.27v2.61c0,.24-.2.44-.44.44h0ZM12.41,32.1h23.19v-2.17c0-.22-.17-.39-.39-.39H12.79c-.21,0-.39.18-.39.39v2.17h.01Z" fill="#1d1e1e" stroke-width="0"/>
  <path d="M11.93,7.89h24.14c.61,0,1.11.5,1.11,1.11v6.34H10.82v-6.34c0-.61.5-1.11,1.11-1.11Z" fill="#e6edf8" stroke-width="0"/>
  <path d="M37.18,15.78H10.82c-.24,0-.44-.2-.44-.44v-6.36c0-.84.69-1.53,1.53-1.53h24.19c.84,0,1.53.69,1.53,1.53v6.36c0,.24-.2.44-.44.44h0ZM11.26,14.9h25.48v-5.92c0-.36-.29-.65-.65-.65H11.91c-.36,0-.65.29-.65.65v5.92Z" fill="#1d1e1e" stroke-width="0"/>
  <path d="M33.74,15.34H14.26V1.59c0-.63.51-1.15,1.15-1.15h13.75l4.59,4.59v10.31h0Z" fill="#fff" stroke-width="0"/>
  <path d="M29.16.44v3.63c0,.53.43.96.96.96h3.63L29.16.44Z" fill="#618fff" stroke-width="0"/>
  <path d="M33.74,15.78H14.26c-.24,0-.44-.2-.44-.44V1.59C13.82.72,14.53,0,15.41,0h13.75c.12,0,.23.05.31.13l4.59,4.59c.08.08.13.19.13.31v10.31c0,.24-.2.44-.44.44h0ZM14.69,14.9h18.6V5.21L28.97.88h-13.57c-.39,0-.71.32-.71.71v13.31Z" fill="#1d1e1e" stroke-width="0"/>
  <path d="M33.74,5.47h-3.63c-.77,0-1.4-.63-1.4-1.4V.44C28.71.2,28.91,0,29.15,0s.44.2.44.44v3.63c0,.28.23.52.52.52h3.63c.24,0,.44.2.44.44s-.2.44-.44.44Z" fill="#1d1e1e" stroke-width="0"/>
  <path d="M13.11,20.37h-4.58c-.24,0-.44-.2-.44-.44s.2-.44.44-.44h4.58c.24,0,.44.2.44.44s-.2.44-.44.44Z" fill="#1d1e1e" stroke-width="0"/>
  <path d="M33.74,29.1v10.32c0,.63-.51,1.15-1.15,1.15H15.4c-.63,0-1.15-.51-1.15-1.15h0v-10.32h19.49Z" fill="#fff" stroke-width="0"/>
  <path d="M32.6,41H15.4c-.87,0-1.59-.71-1.59-1.59v-10.32c0-.24.2-.44.44-.44h19.49c.24,0,.44.2.44.44v10.32c0,.88-.71,1.59-1.59,1.59h.01ZM14.7,29.54v9.88c0,.39.32.71.71.71h17.19c.39,0,.71-.32.71-.71v-9.88H14.7Z" fill="#1d1e1e" stroke-width="0"/>
  <path d="M28.01,37.56h-10.32c-.24,0-.44-.2-.44-.44s.2-.44.44-.44h10.32c.24,0,.44.2.44.44s-.2.44-.44.44Z" fill="#1d1e1e" stroke-width="0"/>
  <path d="M30.3,35.27h-12.61c-.24,0-.44-.2-.44-.44s.2-.44.44-.44h12.61c.24,0,.44.2.44.44s-.2.44-.44.44Z" fill="#1d1e1e" stroke-width="0"/>
  <path d="M30.3,32.98h-12.61c-.24,0-.44-.2-.44-.44s.2-.44.44-.44h12.61c.24,0,.44.2.44.44s-.2.44-.44.44Z" fill="#1d1e1e" stroke-width="0"/>
  <path d="M40.62,20.5c0,.95-.77,1.72-1.72,1.72s-1.72-.77-1.72-1.72.77-1.72,1.72-1.72h0c.95,0,1.72.77,1.72,1.72Z" fill="#618fff" stroke-width="0"/>
  <path d="M38.9,22.66c-1.19,0-2.16-.97-2.16-2.16s.97-2.16,2.16-2.16,2.16.97,2.16,2.16-.97,2.16-2.16,2.16ZM38.9,19.22c-.71,0-1.28.57-1.28,1.28s.57,1.28,1.28,1.28,1.28-.57,1.28-1.28-.57-1.28-1.28-1.28Z" fill="#1d1e1e" stroke-width="0"/>
</svg>