<svg width="20" height="20" viewBox="0 0 20 20" fill="none" xmlns="http://www.w3.org/2000/svg">
    <g clip-path="url(#q5ymsqrkba)" fill="#1E1E1E">
        <path d="M10 4.678c-.624 0-1.212-.25-1.65-.687a2.366 2.366 0 0 1-.674-1.663c0-.625.237-1.212.675-1.662.875-.888 2.425-.888 3.3 0 .437.437.675 1.025.675 1.65s-.238 1.212-.675 1.662a2.276 2.276 0 0 1-1.65.688v.012zm0-3.287a.937.937 0 0 0-.65 1.6.92.92 0 0 0 1.563-.663c0-.25-.1-.487-.275-.662a.908.908 0 0 0-.65-.275h.013z"/>
        <path d="M11.212 19.997A1.87 1.87 0 0 1 10 19.559a1.87 1.87 0 0 1-1.213.438 1.92 1.92 0 0 1-1.912-1.913V8.847L2.887 4.872a1.762 1.762 0 0 1-.025-2.463c.325-.35.775-.537 1.25-.55.488.025.925.175 1.263.513L8.45 5.447c.825.825 2.262.825 3.087 0l3.075-3.075c.338-.338.8-.488 1.263-.513.475 0 .925.2 1.25.55.65.688.637 1.788-.025 2.463l-3.988 3.987v9.238a1.92 1.92 0 0 1-1.912 1.912l.012-.012zM10 13.522c.387 0 .7.312.7.7v3.862c0 .275.225.5.5.5s.5-.225.5-.5V8.56a.7.7 0 0 1 .212-.5L16.1 3.872a.34.34 0 0 0 0-.488.369.369 0 0 0-.25-.112.342.342 0 0 0-.25.1l-3.075 3.075c-1.363 1.362-3.725 1.362-5.088 0l-3.05-3.075c-.087-.088-.175-.088-.25-.1a.332.332 0 0 0-.25.112c-.125.138-.125.363 0 .488l4.188 4.187a.7.7 0 0 1 .212.5v9.525c0 .275.225.5.5.5s.5-.225.5-.5v-3.85c0-.387.313-.7.7-.7l.013-.012z"/>
    </g>
    <defs>
        <clipPath id="q5ymsqrkba">
            <path fill="#fff" d="M0 0h20v20H0z"/>
        </clipPath>
    </defs>
</svg>
