<?xml version="1.0" encoding="UTF-8"?>
<svg id="Layer_1" data-name="Layer 1" xmlns="http://www.w3.org/2000/svg" viewBox="0 0 48 48">
  <path d="M23.87,31.04l12.66-10.43-13.47-10.77c-.6-.48-1.35-.75-2.13-.75s-1.52.26-2.13.75l-13.46,10.77,12.66,10.43h5.87Z" fill="#f5f7fc" stroke-width="0"/>
  <path d="M35.12,19.48l-11.2,9.21-2.15-1.46c-.25-.16-.54-.24-.83-.24s-.58.08-.83.24l-2.16,1.47-11.2-9.22-1.41,1.13,12.66,10.43h5.87l12.66-10.43-1.41-1.13Z" fill="#e6edf8" stroke-width="0"/>
  <path d="M23.87,31.65h-5.86c-.14,0-.27-.05-.38-.14l-12.67-10.43c-.14-.12-.22-.29-.22-.47s.08-.35.23-.47l13.47-10.77c1.42-1.13,3.59-1.13,5.01,0l13.47,10.77c.14.11.22.28.23.47,0,.18-.08.35-.22.47l-12.66,10.43c-.11.09-.24.14-.38.14h-.02ZM18.22,30.45h5.43l11.92-9.82-12.89-10.31c-.99-.79-2.51-.79-3.5,0l-12.88,10.3,11.92,9.82h0Z" fill="#1d1e1e" stroke-width="0"/>
  <path d="M32.26,32.02c0,.23-.11.44-.27.59-.17.15-.39.24-.61.23H10.15c-.11,0-.22,0-.33-.05s-.2-.1-.28-.18-.15-.17-.19-.27c-.05-.1-.07-.21-.07-.32V6.57c0-.23.11-.44.27-.59.17-.15.39-.24.61-.23h21.22c.23,0,.45.07.61.23.17.15.26.37.27.59v25.45Z" fill="#fff" stroke-width="0"/>
  <path d="M32.26,21.83l-8.35,6.86-2.15-1.46c-.25-.16-.54-.24-.83-.24s-.58.08-.83.24l-2.16,1.47-8.66-7.13v2.29l8.73,7.19h5.87l8.39-6.91v-2.3h0Z" fill="#e6edf8" stroke-width="0"/>
  <path d="M10.11,33.44c-.16,0-.33-.03-.49-.09-.18-.07-.34-.17-.48-.3-.14-.13-.25-.29-.33-.46s-.12-.36-.13-.55V6.57c.01-.4.18-.77.46-1.03s.67-.41,1.04-.39h21.2c.37-.02.74.12,1.02.39.28.26.45.62.46,1.01v25.5c-.02.39-.18.75-.46,1.01-.29.27-.65.41-1.05.39H10.1h.01ZM10.15,6.35c-.08,0-.14.02-.19.07-.05.05-.08.11-.08.17v25.43s0,.05.02.07c.01.03.03.06.06.08.02.02.05.04.08.05s.07.02.1.02h21.24c.1,0,.16-.02.2-.07.05-.04.07-.1.08-.17V6.57s-.03-.11-.08-.15c-.05-.05-.14-.07-.18-.07H10.15ZM32.26,32.02" fill="#1d1e1e" stroke-width="0"/>
  <path d="M27.34,11.28h-10.67c-.33,0-.6-.27-.6-.6s.27-.6.6-.6h10.67c.33,0,.6.27.6.6s-.27.6-.6.6Z" fill="#1d1e1e" stroke-width="0"/>
  <path d="M24.88,16.2h-11.5c-.33,0-.6-.27-.6-.6s.27-.6.6-.6h11.49c.33,0,.6.27.6.6s-.27.6-.6.6h.01Z" fill="#1d1e1e" stroke-width="0"/>
  <path d="M19.95,21.13h-6.57c-.33,0-.6-.27-.6-.6s.27-.6.6-.6h6.57c.33,0,.6.27.6.6s-.27.6-.6.6Z" fill="#1d1e1e" stroke-width="0"/>
  <path d="M36.53,20.61v17.9c0,.5-.2.98-.55,1.33-.35.35-.83.55-1.34.55H7.23c-.5,0-.98-.2-1.34-.55-.35-.35-.55-.83-.55-1.33v-17.9l12.66,10.43h5.87l12.66-10.43Z" fill="#fff" stroke-width="0"/>
  <path d="M36.53,38.51c0,.35-.09.69-.28.98l-12.39-8.45,1.5-1.24,11.16,7.57v1.13h0Z" fill="#e6edf8" stroke-width="0"/>
  <path d="M5.34,38.51c0,.35.09.69.28.98l12.39-8.45-1.5-1.24-11.16,7.57v1.13h-.01Z" fill="#e6edf8" stroke-width="0"/>
  <path d="M36.26,39.49l-14.51-9.89c-.24-.16-.53-.24-.82-.24s-.57.08-.82.24l-14.5,9.89c.17.28.4.51.69.66.28.16.6.24.93.24h27.42c.32,0,.64-.08.93-.24.28-.16.52-.39.69-.66h0Z" fill="#fff" stroke-width="0"/>
  <path d="M34.64,41H7.23c-.43,0-.85-.11-1.22-.32s-.69-.51-.91-.88c-.17-.27-.09-.63.17-.81l14.5-9.89c.72-.46,1.62-.44,2.3-.01l14.52,9.9c.26.18.34.54.17.81-.22.36-.54.67-.91.88s-.79.32-1.22.32h.01ZM6.53,39.59s.04.03.06.04c.19.11.41.16.63.16h27.42c.22,0,.44-.06.63-.16.02,0,.04-.02.06-.04l-13.92-9.49c-.26-.17-.68-.18-.97.01l-13.91,9.48Z" fill="#1d1e1e" stroke-width="0"/>
  <path d="M34.64,41H7.23c-.66,0-1.29-.26-1.76-.73-.47-.47-.73-1.1-.73-1.76v-17.9c0-.33.27-.6.6-.6s.6.27.6.6v17.9c0,.34.13.67.38.91.24.24.57.38.91.38h27.42c.34,0,.67-.14.91-.38s.38-.57.38-.91v-17.9c0-.33.27-.6.6-.6s.6.27.6.6v17.9c0,.67-.26,1.29-.73,1.76-.46.46-1.11.73-1.76.73h0Z" fill="#1d1e1e" stroke-width="0"/>
  <path d="M27.58,15.91l10.31-10.31,4.51,4.51-10.31,10.31-4.51-4.51Z" fill="#618fff" stroke-width="0"/>
  <path d="M37.89,5.6l2.58-2.58,4.51,4.51-2.58,2.58-4.51-4.51Z" fill="#e6edf8" stroke-width="0"/>
  <path d="M44.98,7.54l-4.51-4.51,1.5-1.5c.6-.59,1.41-.93,2.25-.93s1.65.34,2.25.93c.6.6.93,1.4.93,2.25s-.33,1.65-.93,2.25l-1.5,1.5h.01Z" fill="#618fff" stroke-width="0"/>
  <path d="M27.58,15.91l-2.2,6.71,6.71-2.2-4.51-4.51Z" fill="#e6edf8" stroke-width="0"/>
  <path d="M27.58,15.91l10.31-10.31,2.25,2.25-10.31,10.31-2.25-2.25Z" fill="#c7dbff" stroke-width="0"/>
  <path d="M37.89,5.6l2.58-2.58,2.25,2.25-2.58,2.58-2.25-2.25Z" fill="#fff" stroke-width="0"/>
  <path d="M29.84,18.17l-4.46,4.46,2.2-6.71,2.25,2.26h.01Z" fill="#fff" stroke-width="0"/>
  <path d="M32.09,21.03c-.15,0-.31-.06-.43-.18l-4.51-4.51c-.11-.11-.18-.27-.18-.43s.06-.31.18-.43l10.31-10.31c.24-.24.62-.24.85,0l4.51,4.51c.11.11.18.27.18.43s-.06.31-.18.43l-10.31,10.31c-.12.12-.27.18-.43.18h.01ZM28.43,15.92l3.66,3.66,9.46-9.46-3.66-3.66-9.46,9.46Z" fill="#1d1e1e" stroke-width="0"/>
  <path d="M42.4,10.72c-.15,0-.31-.06-.43-.18l-4.51-4.51c-.11-.11-.18-.27-.18-.43s.06-.31.18-.43l2.58-2.58c.24-.24.62-.24.85,0l4.51,4.51c.11.11.18.27.18.43s-.06.31-.18.43l-2.58,2.58c-.12.12-.27.18-.43.18h.01ZM38.74,5.61l3.66,3.66,1.73-1.72-3.66-3.66-1.73,1.72Z" fill="#1d1e1e" stroke-width="0"/>
  <path d="M25.38,23.23c-.16,0-.31-.06-.43-.18-.16-.16-.22-.4-.15-.61l2.2-6.71c.07-.2.23-.35.43-.4.2-.05.42.01.57.16l4.51,4.51c.15.15.21.36.16.57-.05.2-.2.37-.4.43l-6.71,2.2c-.06.02-.12.03-.19.03h.01ZM27.85,17.03l-1.52,4.65,4.65-1.52-3.12-3.12h0Z" fill="#1d1e1e" stroke-width="0"/>
  <path d="M42.72,5.28l-2.26-2.25,1.5-1.5c.3-.3.65-.53,1.03-.69.39-.16.8-.24,1.22-.24s.83.08,1.22.24.74.4,1.03.69l-3.76,3.76h.02Z" fill="#c7dbff" stroke-width="0"/>
  <path d="M44.98,8.14c-.15,0-.31-.06-.43-.18l-4.51-4.51c-.11-.11-.18-.27-.18-.43s.06-.31.18-.43l1.5-1.5c.72-.7,1.67-1.09,2.68-1.09h0c1.01,0,1.96.4,2.67,1.11.71.71,1.11,1.66,1.11,2.67s-.39,1.96-1.1,2.68l-1.5,1.5c-.12.12-.27.18-.43.18h.01ZM41.32,3.03l3.66,3.66,1.08-1.08c.48-.49.75-1.14.75-1.83s-.27-1.34-.76-1.82-1.14-.76-1.82-.76h0c-.69,0-1.33.27-1.82.75l-1.08,1.08h-.01Z" fill="#1d1e1e" stroke-width="0"/>
  <path d="M18,31.65c-.14,0-.27-.05-.38-.14l-12.66-10.43c-.26-.21-.29-.59-.08-.85s.59-.29.85-.08l12.66,10.43c.26.21.29.59.08.85-.12.14-.29.22-.46.22h-.01Z" fill="#1d1e1e" stroke-width="0"/>
  <path d="M23.87,31.65c-.17,0-.35-.07-.46-.22-.21-.26-.17-.64.08-.85l12.66-10.43c.26-.21.64-.18.85.08s.17.64-.08.85l-12.66,10.43c-.11.09-.25.14-.38.14h0Z" fill="#1d1e1e" stroke-width="0"/>
</svg>