<svg width="32" height="32" fill="none" xmlns="http://www.w3.org/2000/svg">
    <path d="M16 32c8.837 0 16-7.163 16-16S24.837 0 16 0 0 7.163 0 16s7.163 16 16 16z" fill="#DCDCDC"/>
    <path d="M21.47 7.56h-2.09a1.19 1.19 0 0 1-1.19-1.19V4.94a1.19 1.19 0 0 1 1.19-1.19h2.09a1.18 1.18 0 0 1 1.18 1.19v1.43a1.19 1.19 0 0 1-1.18 1.19zm-1.78-1.5h1.46v-.81h-1.46v.81z" fill="#231F20"/>
    <path d="M22.689 27.35h-4.54a2 2 0 0 1-1.94-1.95V10.54a3.63 3.63 0 0 1 2.21-3.23.54.54 0 0 0 .34-.4V5.84h3.4V7a.381.381 0 0 0 .25.3 3.63 3.63 0 0 1 2.22 3.24V25.4a2 2 0 0 1-1.94 1.95zm-2.49-20a2 2 0 0 1-1.14 1.32 2.17 2.17 0 0 0-1.35 1.88v14.86a.45.45 0 0 0 .44.45h4.54a.45.45 0 0 0 .44-.45V10.55a2.151 2.151 0 0 0-1.36-1.88 1.86 1.86 0 0 1-1.07-1.32h-.5z" fill="#231F20"/>
    <path d="M23.498 12.238h-5.84v1.5h5.84v-1.5zM23.498 20.21h-5.84v1.5h5.84v-1.5z" fill="#231F20"/>
    <path d="M14.22 27.35h-6.1a.72.72 0 0 1-.58-.28.77.77 0 0 1-.16-.62l.28-1.47a1.59 1.59 0 0 1-.29-.92V13.65a1.6 1.6 0 0 1 .29-.93l-.28-1.47a.78.78 0 0 1 .16-.62.749.749 0 0 1 .58-.27h6.1a.74.74 0 0 1 .57.27.71.71 0 0 1 .16.62l-.28 1.47c.193.27.298.596.3.93v10.41a1.6 1.6 0 0 1-.3.92l.28 1.47a.7.7 0 0 1-.16.62.719.719 0 0 1-.57.28zm-5.19-1.5h4.28l-.18-.95a.751.751 0 0 1 .27-.74.139.139 0 0 0 .07-.1V13.65c0-.05 0-.08-.07-.11a.73.73 0 0 1-.27-.73l.18-1H9l.18 1a.73.73 0 0 1-.28.73.15.15 0 0 0-.06.11v10.41a.13.13 0 0 0 .06.1.76.76 0 0 1 .28.74l-.15.95z" fill="#1E1E1E"/>
    <path d="M13.75 14.441H8.59a.75.75 0 1 1 0-1.5h5.16a.75.75 0 0 1 0 1.5zM13.75 24.77H8.59a.75.75 0 1 1 0-1.5h5.16a.75.75 0 0 1 0 1.5z" fill="#1E1E1E"/>
    <path d="M11.17 22.17c-1.09 0-1.91-1.53-1.91-3.55 0-2.02.82-3.55 1.91-3.55 1.09 0 1.9 1.52 1.9 3.55s-.82 3.55-1.9 3.55zm0-6.1c-.32 0-.91 1-.91 2.55 0 1.55.59 2.55.91 2.55.32 0 .9-1 .9-2.55 0-1.55-.58-2.55-.9-2.55zM11.17 14.43a.5.5 0 0 1-.5-.5V13a.5.5 0 0 1 1 0v.94a.51.51 0 0 1-.5.49zM11.17 25.221a.5.5 0 0 1-.5-.5v-.94a.5.5 0 0 1 1 0v.94a.5.5 0 0 1-.5.5z" fill="#231F20"/>
</svg>
