<?xml version="1.0" encoding="UTF-8"?>
<svg id="Layer_1" data-name="Layer 1" xmlns="http://www.w3.org/2000/svg" viewBox="0 0 48 48">
  <rect x="3.99" y=".52" width="40.02" height="40.02" rx="4.5" ry="4.5" fill="#f1eaf3" stroke-width="0"/>
  <path d="M39.37.66H8.9c-2.57,0-4.67,2.1-4.67,4.67v4.15c0-2.57,2.1-4.67,4.67-4.67h30.47c2.57,0,4.67,2.1,4.67,4.67v-4.15c0-2.57-2.1-4.67-4.67-4.67Z" fill="#fff" stroke-width="0"/>
  <path d="M39.32,41.03H8.68c-2.86,0-5.18-2.32-5.18-5.18V5.21C3.5,2.36,5.82.03,8.68.03h30.64c2.86,0,5.18,2.32,5.18,5.18v30.64c0,2.86-2.32,5.18-5.18,5.18ZM8.68,1.01c-2.32,0-4.2,1.89-4.2,4.2v30.64c0,2.32,1.89,4.2,4.2,4.2h30.64c2.32,0,4.2-1.89,4.2-4.2V5.21c0-2.32-1.89-4.2-4.2-4.2H8.68Z" fill="#1d1e1e" stroke-width="0"/>
  <path d="M39.32,41.03H8.68c-2.86,0-5.18-2.32-5.18-5.18V5.21C3.5,2.36,5.82.03,8.68.03h30.64c2.86,0,5.18,2.32,5.18,5.18v30.64c0,2.86-2.32,5.18-5.18,5.18ZM8.68,1.01c-2.32,0-4.2,1.89-4.2,4.2v30.64c0,2.32,1.89,4.2,4.2,4.2h30.64c2.32,0,4.2-1.89,4.2-4.2V5.21c0-2.32-1.89-4.2-4.2-4.2H8.68Z" fill="#1d1e1e" stroke-width="0"/>
  <path d="M18.39,27.96c0,1.28,1.03,2.32,2.31,2.32.62,0,1.21-.24,1.64-.68l7.38-7.39c.44-.44.68-1.03.68-1.65v-.08c.02-.64-.22-1.26-.67-1.71l-7.39-7.37c-.93-.88-2.39-.84-3.27.08-.85.89-.85,2.3,0,3.19l5.82,5.82-5.82,5.82c-.43.43-.68,1.02-.68,1.64Z" fill="#702f8a" stroke-width="0"/>
  <path d="M20.7,30.87h-.01c-1.6,0-2.89-1.31-2.89-2.91,0-.77.3-1.5.85-2.05l5.41-5.41-5.41-5.41c-1.08-1.13-1.08-2.89-.01-4.01.53-.56,1.25-.88,2.03-.9.78-.02,1.51.26,2.07.8l7.4,7.38c.57.56.87,1.35.85,2.15v.06c0,.77-.31,1.52-.85,2.06l-7.38,7.39c-.54.54-1.29.85-2.05.85ZM20.74,11.37s-.03,0-.04,0c-.46.01-.89.2-1.21.54-.64.67-.63,1.71,0,2.38l6.23,6.23-6.24,6.24c-.33.33-.51.76-.5,1.22h0c0,.95.77,1.73,1.72,1.74.47,0,.9-.18,1.23-.51l7.38-7.39c.32-.32.51-.77.51-1.23v-.08c.02-.5-.17-.96-.5-1.3l-7.39-7.37c-.31-.3-.73-.47-1.18-.47Z" fill="#1d1e1e" stroke-width="0"/>
</svg>