<svg width="32" height="32" viewBox="0 0 32 32" fill="none" xmlns="http://www.w3.org/2000/svg">
    <g clip-path="url(#gketinngwa)">
        <circle cx="16" cy="16" r="16" fill="#fff"/>
        <path d="M23.3 11.852v12.35H10.95v1.68h14.03v-14.03H23.3z" fill="#1E1E1E"/>
        <path d="M18.02 16.77h-7.36v1.68h7.36v-1.68zM18.02 13.402h-7.36v1.68h7.36v-1.68zM18.02 10.031h-7.36v1.68h7.36v-1.68z" fill="#1E1E1E"/>
        <path d="M19.93 6.121H7v16.24h14.59V6.121h-1.66zM8.7 20.681V7.801h11.23v12.88H8.7z" fill="#1E1E1E"/>
        <path d="M16 0a16 16 0 1 0 0 32 16 16 0 0 0 0-32zm0 30.12A14.11 14.11 0 0 1 5.83 6.22l19.95 20a14.07 14.07 0 0 1-9.78 3.9zm11.05-5.34L7.23 5a14.11 14.11 0 0 1 19.82 19.83v-.05z" fill="#AB2334"/>
    </g>
    <defs>
        <clipPath id="gketinngwa">
            <path fill="#fff" d="M0 0h32v32H0z"/>
        </clipPath>
    </defs>
</svg>
