<?xml version="1.0" encoding="UTF-8"?>
<svg id="Layer_1" xmlns="http://www.w3.org/2000/svg" width="32" height="32" version="1.1" viewBox="0 0 32 32">
  <!-- Generator: Adobe Illustrator 29.7.1, SVG Export Plug-In . SVG Version: 2.1.1 Build 8)  -->
  <path d="M16,32c8.84,0,16-7.16,16-16S24.84,0,16,0,0,7.16,0,16s7.16,16,16,16Z" fill="#dcdcdc"/>
  <path d="M14.69,3.14c1.28-.23,2.59-.18,3.84.15,1.25.33,2.42.93,3.42,1.75,1,.82,1.81,1.85,2.38,3.02.57,1.17.88,2.44.9,3.74h-.02c.02,1.06-.15,2.11-.5,3.11.33.56.51,1.19.53,1.84.02.65-.12,1.29-.41,1.87-.25.52-.62.98-1.08,1.33-.51,1.1-.99,2.35-1.74,3.26-.76.93-1.78,1.54-3.3,1.61-.29.7-.98,1.2-1.79,1.2h-.73c-1.07,0-1.94-.87-1.94-1.94h0c0-1.08.87-1.95,1.94-1.95h.73c.8,0,1.49.49,1.79,1.19,1.05-.07,1.67-.48,2.14-1.06.37-.45.65-.99.95-1.64v-7.63c.55.08,1.08.27,1.55.57.22-1.06.2-2.16-.06-3.21-.26-1.05-.75-2.03-1.43-2.87-.68-.84-1.54-1.52-2.52-1.98-.98-.46-2.05-.7-3.13-.7-1.08,0-2.15.24-3.13.7-.97.47-1.84,1.14-2.52,1.98-.68.84-1.17,1.82-1.43,2.87-.26,1.06-.28,2.15-.06,3.21.47-.3,1-.49,1.55-.56v7.76c-.64-.09-1.24-.34-1.76-.72-.36-.27-.67-.6-.93-.97-.85.53-1.41,1.44-1.51,2.49-.13,1.36.5,3.04,2.38,4.52,1.92,1.5,3.86,2.23,5.39,2.94.75.35,1.43.7,1.92,1.15.51.47.82,1.05.82,1.82h-.8c0-.52-.19-.9-.56-1.24-.39-.36-.97-.67-1.72-1.01-1.48-.68-3.53-1.46-5.55-3.04-2.05-1.61-2.85-3.53-2.69-5.22.13-1.32.84-2.46,1.93-3.12-.21-.52-.31-1.08-.29-1.64.02-.64.21-1.26.53-1.82-.42-1.23-.58-2.53-.45-3.82.13-1.29.53-2.54,1.19-3.66.66-1.12,1.55-2.08,2.61-2.82,1.06-.74,2.27-1.24,3.55-1.47ZM16.19,23.64c-.24,0-.44.2-.44.44h0c0,.25.2.45.44.45h.73c.24,0,.44-.2.44-.44h0c0-.25-.2-.45-.44-.45h-.73ZM12.34,12.94c.07,0,.14.01.21.04.07.03.13.07.18.12.05.05.09.11.12.18.03.06.04.14.04.21v6.72c0,.15-.05.29-.16.4-.11.1-.25.16-.4.16h-1.06v-7.84h1.07ZM21.25,20.77h-1.06c-.15,0-.3-.05-.4-.16-.1-.11-.16-.25-.16-.4v-6.72c0-.15.05-.29.16-.4.11-.1.25-.16.4-.16h1.06v7.84Z" fill="#1e1e1e"/>
</svg>