<?xml version="1.0" encoding="UTF-8"?>
<svg id="Layer_1" data-name="Layer 1" xmlns="http://www.w3.org/2000/svg" viewBox="0 0 48 48">
  <path d="M35.17,24.31c-.28-1.04-1.1-1.87-2.15-2.15-1.89-.51-9.49-.51-9.49-.51,0,0-7.59,0-9.49.51-1.04.28-1.87,1.1-2.15,2.15-.51,1.89-.51,5.85-.51,5.85,0,0,0,3.95.51,5.85.28,1.04,1.1,1.87,2.15,2.15,1.89.51,9.49.51,9.49.51,0,0,7.59,0,9.49-.51,1.04-.28,1.87-1.1,2.15-2.15.51-1.89.51-5.85.51-5.85,0,0,0-3.95-.51-5.85ZM21.1,33.77v-7.23s.01-.02.03-.01l6.26,3.61s.01.02,0,.03l-6.26,3.61s-.03,0-.03-.01Z" fill="#1d1e1e" stroke-width="0"/>
</svg>