<?xml version="1.0" encoding="UTF-8"?>
<svg id="Layer_1" data-name="Layer 1" xmlns="http://www.w3.org/2000/svg" viewBox="0 0 48 48">
  <path d="M24,41c-5.48,0-10.62-2.13-14.5-6-3.87-3.87-6-9.02-6-14.5s2.13-10.62,6-14.5C13.38,2.13,18.52,0,24,0s10.62,2.13,14.5,6c3.87,3.87,6,9.02,6,14.5s-2.13,10.62-6,14.5c-3.87,3.87-9.02,6-14.5,6ZM24,1.24c-5.15,0-9.98,2-13.62,5.64-3.64,3.64-5.64,8.48-5.64,13.62s2,9.98,5.64,13.62c3.64,3.64,8.48,5.64,13.62,5.64s9.98-2,13.62-5.64,5.64-8.48,5.64-13.62-2-9.98-5.64-13.62c-3.64-3.64-8.48-5.64-13.62-5.64Z" fill="#1d1e1e" stroke-width="0"/>
  <path d="M4.56,20.49c0,2.56.51,5.09,1.47,7.44.98,2.36,2.41,4.51,4.22,6.3,1.81,1.81,3.95,3.24,6.3,4.22,2.36.98,4.89,1.47,7.44,1.47s5.09-.51,7.44-1.47c2.36-.98,4.51-2.41,6.3-4.22,1.81-1.81,3.24-3.95,4.22-6.3.98-2.36,1.47-4.89,1.47-7.44s-.51-5.09-1.47-7.44c-.98-2.36-2.41-4.51-4.22-6.3-1.81-1.81-3.95-3.24-6.3-4.22-2.36-.98-4.89-1.47-7.44-1.47s-5.09.51-7.44,1.47c-2.36.98-4.51,2.41-6.3,4.22-1.81,1.81-3.24,3.95-4.22,6.3-.98,2.36-1.47,4.89-1.47,7.44h0Z" fill="#702f8a" stroke-width="0"/>
  <path d="M11.86,35.67c-2.08-1.66-3.82-3.74-5.06-6.11-1.24-2.36-1.99-4.96-2.2-7.62-.2-2.66.14-5.35,1.03-7.86.88-2.53,2.27-4.84,4.09-6.79,1.82-1.97,4.02-3.53,6.46-4.6s5.09-1.63,7.76-1.63,5.32.53,7.78,1.59c2.46,1.06,4.65,2.62,6.49,4.57l-26.35,28.46Z" fill="#9c59b2" stroke-width="0"/>
  <path d="M38.91,20.5c0,2.95-.87,5.83-2.51,8.28-1.64,2.45-3.97,4.36-6.69,5.49-2.72,1.13-5.72,1.42-8.62.85-2.89-.58-5.55-2-7.64-4.08-2.09-2.09-3.51-4.74-4.08-7.64-.58-2.89-.28-5.89.85-8.62,1.13-2.72,3.04-5.05,5.49-6.69,2.45-1.64,5.34-2.51,8.28-2.51,3.95,0,7.75,1.57,10.54,4.37,2.8,2.8,4.37,6.59,4.37,10.54h0Z" fill="#fff" stroke-width="0"/>
  <path d="M38.7,23.04c-.57-3.48-2.36-6.65-5.06-8.94-2.69-2.29-6.11-3.54-9.64-3.54s-6.95,1.25-9.64,3.54c-2.69,2.29-4.48,5.45-5.06,8.94-.37-2.14-.26-4.34.31-6.43.57-2.1,1.59-4.04,2.99-5.7,1.4-1.66,3.15-3,5.11-3.91,1.97-.92,4.11-1.39,6.29-1.39s4.32.47,6.29,1.39c1.97.92,3.71,2.25,5.11,3.91s2.42,3.61,2.99,5.7c.57,2.1.67,4.29.31,6.43h0Z" fill="#f1eaf3" stroke-width="0"/>
  <path d="M24.01,36.03c-1.01,0-2.03-.1-3.04-.3-3.02-.6-5.77-2.07-7.95-4.25-2.18-2.18-3.65-4.93-4.25-7.95-.6-3.02-.3-6.13.88-8.97s3.16-5.26,5.72-6.97c2.56-1.71,5.55-2.62,8.63-2.62,4.15,0,8.05,1.62,10.98,4.55,2.93,2.93,4.55,6.83,4.55,10.98h0c0,3.08-.91,6.07-2.62,8.63-1.71,2.56-4.12,4.54-6.97,5.72-1.9.79-3.91,1.18-5.93,1.18ZM24.01,6.21c-2.84,0-5.58.83-7.94,2.41-2.36,1.58-4.18,3.79-5.26,6.41-1.09,2.62-1.37,5.48-.81,8.26.55,2.78,1.91,5.31,3.91,7.32,2.01,2.01,4.54,3.36,7.32,3.91,2.78.55,5.64.27,8.26-.81,2.62-1.09,4.84-2.91,6.41-5.27,1.58-2.36,2.41-5.1,2.41-7.94,0-3.82-1.49-7.41-4.19-10.1-2.7-2.7-6.29-4.19-10.11-4.19Z" fill="#1d1e1e" stroke-width="0"/>
  <path d="M31.03,14.09c-.16,0-.32-.06-.44-.18-.24-.24-.24-.63,0-.87l1.41-1.41c.24-.24.63-.24.87,0s.24.63,0,.87l-1.41,1.41c-.12.12-.28.18-.44.18h.01Z" fill="#1d1e1e" stroke-width="0"/>
  <path d="M35.93,21.12h-1.99c-.34,0-.62-.28-.62-.62s.28-.62.62-.62h1.99c.34,0,.62.28.62.62s-.28.62-.62.62Z" fill="#1d1e1e" stroke-width="0"/>
  <path d="M32.43,29.55c-.16,0-.32-.06-.44-.18l-1.41-1.41c-.24-.24-.24-.63,0-.87s.63-.24.87,0l1.41,1.41c.24.24.24.63,0,.87-.12.12-.28.18-.44.18h0Z" fill="#1d1e1e" stroke-width="0"/>
  <path d="M24,33.05c-.34,0-.62-.28-.62-.62v-1.99c0-.34.28-.62.62-.62s.62.28.62.62v1.99c0,.34-.28.62-.62.62Z" fill="#1d1e1e" stroke-width="0"/>
  <path d="M15.57,29.55c-.16,0-.32-.06-.44-.18-.24-.24-.24-.63,0-.87l1.41-1.41c.24-.24.63-.24.87,0s.24.63,0,.87l-1.41,1.41c-.12.12-.28.18-.44.18h0Z" fill="#1d1e1e" stroke-width="0"/>
  <path d="M14.06,21.12h-1.99c-.34,0-.62-.28-.62-.62s.28-.62.62-.62h1.99c.34,0,.62.28.62.62s-.28.62-.62.62Z" fill="#1d1e1e" stroke-width="0"/>
  <path d="M16.97,14.09c-.16,0-.32-.06-.44-.18l-1.41-1.41c-.24-.24-.24-.63,0-.87s.63-.24.87,0l1.41,1.41c.24.24.24.63,0,.87-.12.12-.28.18-.44.18h.01Z" fill="#1d1e1e" stroke-width="0"/>
  <path d="M24,21.1c-.33,0-.6-.27-.6-.6v-10.91c0-.33.27-.6.6-.6s.6.27.6.6v10.91c0,.33-.27.6-.6.6Z" fill="#1d1e1e" stroke-width="0"/>
  <line x1="29.13" y1="25.63" x2="24" y2="20.5" fill="none" stroke-width="0"/>
  <path d="M29.13,26.23c-.15,0-.31-.06-.42-.18l-5.13-5.13c-.23-.23-.23-.61,0-.85.23-.23.61-.23.85,0l5.13,5.13c.23.23.23.61,0,.85-.12.12-.27.18-.42.18h0Z" fill="#1d1e1e" stroke-width="0"/>
</svg>