<?xml version="1.0" encoding="UTF-8"?>
<svg id="Layer_1" data-name="Layer 1" xmlns="http://www.w3.org/2000/svg" viewBox="0 0 48 48">
  <path d="M24,.48c-4.16,0-8.15,1.66-11.09,4.6-2.94,2.94-4.59,6.93-4.59,11.09,0,7.21,10.9,19.82,14.53,23.83.14.16.33.29.52.38.21.09.42.13.64.13s.44-.05.64-.13.38-.22.53-.38c3.61-4.01,14.5-16.63,14.5-23.83,0-2.06-.41-4.1-1.19-6-.79-1.9-1.95-3.63-3.4-5.09-1.46-1.46-3.19-2.61-5.09-3.4-1.91-.79-3.95-1.19-6-1.19h0Z" fill="#e6f1fa" stroke-width="0"/>
  <path d="M8.48,17.83c-.1-.55-.16-1.1-.17-1.66-.02-2.07.37-4.13,1.16-6.04.78-1.92,1.93-3.66,3.39-5.13,1.45-1.47,3.19-2.64,5.1-3.43,1.91-.8,3.96-1.21,6.04-1.21s4.12.41,6.04,1.21c1.91.8,3.65,1.96,5.1,3.43,1.46,1.47,2.61,3.22,3.39,5.13.79,1.92,1.18,3.97,1.16,6.04,0,.56-.06,1.12-.17,1.66-.53-3.74-2.39-7.16-5.24-9.64-2.85-2.48-6.5-3.84-10.28-3.84s-7.43,1.36-10.28,3.84c-2.85,2.48-4.71,5.9-5.24,9.64h0Z" fill="#fff" stroke-width="0"/>
  <path d="M24.02,40.99c-.28,0-.56-.06-.83-.17-.27-.12-.51-.3-.7-.51-4.4-4.87-14.65-16.98-14.65-24.15,0-4.32,1.68-8.37,4.73-11.43C15.62,1.69,19.68,0,24,0h0c2.13,0,4.21.41,6.18,1.23,1.97.82,3.74,2,5.25,3.5,1.5,1.51,2.68,3.27,3.5,5.25.81,1.97,1.23,4.06,1.23,6.19,0,7.14-10.23,19.27-14.62,24.15-.2.21-.44.38-.69.5-.26.12-.55.18-.83.18h0ZM24,.96h0c-4.06,0-7.88,1.59-10.75,4.46-2.87,2.87-4.45,6.69-4.45,10.75,0,7.04,11.02,19.78,14.4,23.51.1.11.22.2.36.27.28.12.61.12.89,0,.14-.06.27-.16.38-.27,4.32-4.8,14.37-16.71,14.37-23.5,0-2.01-.39-3.96-1.16-5.82s-1.88-3.52-3.29-4.93c-1.42-1.42-3.08-2.53-4.94-3.3-1.85-.77-3.81-1.16-5.81-1.16h0Z" fill="#1d1e1e" stroke-width="0"/>
  <path d="M18.95,16.16c0,1.25.49,2.45,1.38,3.33.88.88,2.07,1.38,3.33,1.38s2.44-.5,3.33-1.38c.88-.88,1.37-2.08,1.37-3.33s-.49-2.44-1.37-3.33c-.89-.88-2.08-1.38-3.33-1.38s-2.45.5-3.33,1.38c-.89.88-1.38,2.08-1.38,3.33Z" fill="#009cde" stroke-width="0"/>
  <path d="M23.66,21.34c-1.39,0-2.69-.54-3.67-1.52-.98-.97-1.52-2.27-1.52-3.67s.54-2.69,1.52-3.67c.98-.98,2.28-1.52,3.66-1.52s2.68.54,3.67,1.52c.98.98,1.52,2.28,1.52,3.67s-.54,2.69-1.51,3.67c-.99.98-2.29,1.52-3.67,1.52ZM23.66,11.94c-1.13,0-2.19.44-2.99,1.24-.8.8-1.24,1.86-1.24,2.99s.44,2.19,1.24,2.99c1.59,1.59,4.37,1.6,5.98,0,.79-.79,1.23-1.86,1.23-2.99s-.44-2.19-1.23-2.99c-.8-.8-1.87-1.24-2.99-1.24Z" fill="#1d1e1e" stroke-width="0"/>
</svg>