<?xml version="1.0" encoding="UTF-8"?>
<svg id="Layer_1" data-name="Layer 1" xmlns="http://www.w3.org/2000/svg" viewBox="0 0 48 48">
  <path d="M12.97.5h22.09v40.02H12.97V.5Z" fill="#fff" stroke-width="0"/>
  <path d="M35.06,37.87c0,.7.05,1.71-.45,2.2s-1.51.45-2.21.45H15.63c-.7,0-1.71.06-2.21-.45s-.45-1.5-.45-2.2v-3.39c0,.83.33,1.62.91,2.2s1.38.91,2.2.91h15.87c.82,0,1.61-.33,2.2-.91.58-.58.91-1.37.91-2.2v3.39h0Z" fill="#e6edf8" stroke-width="0"/>
  <path d="M15.53,3.04h17.09v33.29c0,.76-.62,1.38-1.38,1.38h-14.32c-.76,0-1.38-.62-1.38-1.38V3.04Z" fill="#e6edf8" stroke-width="0"/>
  <path d="M15.53,19.5L31.98,3.04H15.53v16.46Z" fill="#fff" stroke-width="0"/>
  <path d="M32.24,41H15.76c-1.81,0-3.27-1.47-3.27-3.27V3.27c0-1.81,1.47-3.27,3.27-3.27h16.48c1.81,0,3.27,1.47,3.27,3.27v34.45c0,1.81-1.47,3.27-3.27,3.27ZM15.76.97c-1.27,0-2.31,1.04-2.31,2.31v34.45c0,1.27,1.04,2.31,2.31,2.31h16.48c1.27,0,2.31-1.04,2.31-2.31V3.27c0-1.27-1.04-2.31-2.31-2.31H15.76Z" fill="#1d1e1e" stroke-width="0"/>
  <path d="M31.06,38.47h-14.13c-1.06,0-1.92-.86-1.92-1.92V4.48c0-1.06.86-1.92,1.92-1.92h14.13c1.06,0,1.92.86,1.92,1.92v32.07c0,1.06-.86,1.92-1.92,1.92ZM16.93,3.53c-.52,0-.95.43-.95.95v32.07c0,.52.43.95.95.95h14.13c.52,0,.95-.43.95-.95V4.48c0-.52-.43-.95-.95-.95h-14.13Z" fill="#1d1e1e" stroke-width="0"/>
  <path d="M26.87,6.39h-5.72c-.27,0-.48-.22-.48-.48s.22-.48.48-.48h5.72c.27,0,.48.22.48.48s-.22.48-.48.48Z" fill="#1d1e1e" stroke-width="0"/>
</svg>