<?xml version="1.0" encoding="UTF-8"?>
<svg id="Layer_1" data-name="Layer 1" xmlns="http://www.w3.org/2000/svg" viewBox="0 0 48 48">
  <path d="M34.74,5.69c0-1.57,1.27-2.85,2.85-2.85h0-21.07c-1.89,0-3.42,1.53-3.42,3.42h0v31.9h18.8c1.57,0,2.85-1.27,2.85-2.85V5.69Z" fill="#fff" stroke-width="0"/>
  <path d="M31.9,38.64H13.1c-.27,0-.49-.22-.49-.49V6.26c0-2.15,1.75-3.9,3.9-3.9h21.07c.27,0,.49.22.49.49s-.22.49-.49.49h0c-1.3,0-2.36,1.06-2.36,2.36h0v29.62c0,1.84-1.5,3.33-3.33,3.33ZM13.59,37.67h18.31c1.3,0,2.36-1.06,2.36-2.36V5.69c0-.92.38-1.76.98-2.36h-18.72c-1.62,0-2.93,1.31-2.93,2.93v31.41Z" fill="#1d1e1e" stroke-width="0"/>
  <path d="M34.74,5.69c0-1.57,1.27-2.85,2.85-2.85h0-21.07c-1.89,0-3.42,1.53-3.42,3.42h0v31.9h18.8c1.57,0,2.85-1.27,2.85-2.85V5.69Z" fill="none" stroke-width="0"/>
  <path d="M34.74,5.69c0-1.57,1.27-2.85,2.85-2.85h0-21.07c-1.89,0-3.42,1.53-3.42,3.42h0v31.9h18.8c1.57,0,2.85-1.27,2.85-2.85V5.69Z" fill="#fff" stroke-width="0"/>
  <path d="M31.9,38.64H13.1c-.27,0-.49-.22-.49-.49V6.26c0-2.15,1.75-3.9,3.9-3.9h21.07c.27,0,.49.22.49.49s-.22.49-.49.49h0c-1.3,0-2.36,1.06-2.36,2.36h0v29.62c0,1.84-1.5,3.33-3.33,3.33ZM13.59,37.67h18.31c1.3,0,2.36-1.06,2.36-2.36V5.69c0-.92.38-1.76.98-2.36h-18.72c-1.62,0-2.93,1.31-2.93,2.93v31.41Z" fill="#1d1e1e" stroke-width="0"/>
  <path d="M40.44,5.69c0-1.57-1.28-2.85-2.85-2.85-.19,0-.38.02-.56.06-1.35.3-2.31,1.51-2.28,2.9v2.74h4.75c.52,0,.95-.42.95-.95v-1.9Z" fill="#9c59b2" stroke-width="0"/>
  <path d="M39.49,9.03h-4.75c-.27,0-.49-.22-.49-.49v-2.74c-.03-1.6,1.09-3.02,2.66-3.37.23-.05.45-.07.67-.07h0c1.84,0,3.34,1.5,3.34,3.34h0s0,1.9,0,1.9c0,.79-.64,1.43-1.44,1.43ZM35.23,8.05h4.26c.26,0,.46-.21.46-.46v-1.9c0-1.3-1.06-2.36-2.36-2.36-.16.02-.31.02-.47.05-1.11.25-1.91,1.26-1.89,2.41v2.26Z" fill="#1d1e1e" stroke-width="0"/>
  <path d="M31.33,33.6H13.1v1.87c0,1.57-1.27,2.85-2.85,2.85h21.07c1.89,0,3.42-1.53,3.42-3.42h0v-4.71c0,1.89-1.53,3.42-3.42,3.42Z" fill="#f1eaf3" stroke-width="0"/>
  <path d="M30.76,10.17h-10.82c-.27,0-.49-.22-.49-.49s.22-.49.49-.49h10.82c.27,0,.49.22.49.49s-.22.49-.49.49Z" fill="#1d1e1e" stroke-width="0"/>
  <path d="M30.76,13.58h-13.1c-.27,0-.49-.22-.49-.49s.22-.49.49-.49h13.1c.27,0,.49.22.49.49s-.22.49-.49.49Z" fill="#1d1e1e" stroke-width="0"/>
  <path d="M21.65,20.42h-5.13c-.27,0-.49-.22-.49-.49s.22-.49.49-.49h5.13c.27,0,.49.22.49.49s-.22.49-.49.49Z" fill="#1d1e1e" stroke-width="0"/>
  <path d="M25.06,23.83h-8.54c-.27,0-.49-.22-.49-.49s.22-.49.49-.49h8.54c.27,0,.49.22.49.49s-.22.49-.49.49Z" fill="#1d1e1e" stroke-width="0"/>
  <path d="M29.05,27.25h-12.53c-.27,0-.49-.22-.49-.49s.22-.49.49-.49h12.53c.27,0,.49.22.49.49s-.22.49-.49.49Z" fill="#1d1e1e" stroke-width="0"/>
  <path d="M31.9,38.64H13.1c-.27,0-.49-.22-.49-.49V6.26c0-2.15,1.75-3.9,3.9-3.9h21.07c.27,0,.49.22.49.49s-.22.49-.49.49h0c-1.3,0-2.36,1.06-2.36,2.36h0v29.62c0,1.84-1.5,3.33-3.33,3.33ZM13.59,37.67h18.31c1.3,0,2.36-1.06,2.36-2.36V5.69c0-.92.38-1.76.98-2.36h-18.72c-1.62,0-2.93,1.31-2.93,2.93v31.41Z" fill="#1d1e1e" stroke-width="0"/>
  <path d="M29.57,32.46c.26,0,.47.22.47.48,0,.13-.06.26-.16.35-1.11,1.11-1.12,2.91,0,4.03.53.54,1.26.84,2.02.84H10.36c-1.39.02-2.6-.93-2.9-2.28-.31-1.54.69-3.05,2.23-3.36.18-.04.37-.06.56-.06h19.32Z" fill="#702f8a" stroke-width="0"/>
  <path d="M10.3,38.64c-1.58,0-2.97-1.11-3.31-2.67-.36-1.81.81-3.58,2.61-3.94.22-.04.44-.07.66-.07h19.33c.26,0,.5.11.68.29.18.18.28.43.27.68,0,.27-.12.52-.32.7-.43.43-.67,1.02-.68,1.65,0,.63.24,1.22.69,1.67.45.45,1.04.69,1.67.69v.97H10.36s-.04,0-.06,0ZM10.25,32.95c-.16,0-.31.02-.47.05-1.28.26-2.11,1.51-1.85,2.78.25,1.11,1.27,1.93,2.41,1.89h19.19,0c-.63-.64-.97-1.48-.97-2.37,0-.89.35-1.73.98-2.36H10.25Z" fill="#1d1e1e" stroke-width="0"/>
</svg>