<?xml version="1.0" encoding="UTF-8"?>
<svg id="Layer_1" data-name="Layer 1" xmlns="http://www.w3.org/2000/svg" viewBox="0 0 48 48">
  <rect x="4.03" y=".49" width="39.98" height="39.98" rx="4.56" ry="4.56" fill="#f1eaf3" stroke-width="0"/>
  <path d="M39.32,40.96H8.72c-2.85,0-5.18-2.32-5.18-5.18V5.18C3.54,2.32,5.86,0,8.72,0h30.61c2.85,0,5.18,2.32,5.18,5.18v30.61c0,2.85-2.32,5.18-5.18,5.18ZM8.72.98c-2.32,0-4.2,1.88-4.2,4.2v30.61c0,2.32,1.88,4.2,4.2,4.2h30.61c2.32,0,4.2-1.88,4.2-4.2V5.18c0-2.32-1.88-4.2-4.2-4.2H8.72Z" fill="#1d1e1e" stroke-width="0"/>
  <path d="M39.32.49H8.72c-2.58,0-4.69,2.11-4.69,4.69v4.17c0-2.58,2.11-4.69,4.69-4.69h30.61c2.58,0,4.69,2.11,4.69,4.69v-4.17c0-2.58-2.11-4.69-4.69-4.69Z" fill="#fff" stroke-width="0"/>
  <path d="M39.32,40.96H8.72c-2.85,0-5.18-2.32-5.18-5.18V5.18C3.54,2.32,5.86,0,8.72,0h30.61c2.85,0,5.18,2.32,5.18,5.18v30.61c0,2.85-2.32,5.18-5.18,5.18ZM8.72.98c-2.32,0-4.2,1.88-4.2,4.2v30.61c0,2.32,1.88,4.2,4.2,4.2h30.61c2.32,0,4.2-1.88,4.2-4.2V5.18c0-2.32-1.88-4.2-4.2-4.2H8.72Z" fill="#1d1e1e" stroke-width="0"/>
  <path d="M39.28,40.96H8.68c-2.85,0-5.18-2.32-5.18-5.18V5.18C3.5,2.32,5.82,0,8.68,0h30.61c2.85,0,5.18,2.32,5.18,5.18v30.61c0,2.85-2.32,5.18-5.18,5.18ZM8.68.98c-2.32,0-4.2,1.88-4.2,4.2v30.61c0,2.32,1.88,4.2,4.2,4.2h30.61c2.32,0,4.2-1.88,4.2-4.2V5.18c0-2.32-1.88-4.2-4.2-4.2H8.68Z" fill="#1d1e1e" stroke-width="0"/>
  <path d="M35.82,19.39l-7.32-7.35c-.95-.95-2.45-.95-3.4,0-.95.95-.95,2.45,0,3.4l3.24,3.24h-14.43c-1.32,0-2.4,1.08-2.4,2.4s1.08,2.4,2.4,2.4h14.43l-3.21,3.24c-.95.95-.95,2.45,0,3.4.47.47,1.08.71,1.69.71s1.24-.24,1.69-.71l7.32-7.32c.45-.45.71-1.05.71-1.69s-.26-1.26-.71-1.71Z" fill="#702f8a" stroke-width="0"/>
  <path d="M26.81,31.21c-.73,0-1.43-.29-1.96-.83-1.11-1.11-1.11-2.84,0-3.95l2.55-2.57h-13.49c-1.54,0-2.79-1.25-2.79-2.79s1.25-2.79,2.79-2.79h13.49l-2.57-2.57c-1.11-1.11-1.11-2.84,0-3.95,1.11-1.11,2.84-1.11,3.95,0l7.32,7.35c.52.52.83,1.25.83,1.99s-.3,1.44-.83,1.96l-7.32,7.32c-.49.52-1.21.83-1.96.83ZM13.91,19.07c-1.11,0-2.01.9-2.01,2.01s.9,2.01,2.01,2.01h15.37l-3.87,3.91c-.8.8-.8,2.05,0,2.85.38.38.89.6,1.41.6s1.05-.21,1.4-.59l7.33-7.33c.38-.38.6-.89.6-1.41s-.22-1.06-.6-1.44h0s-7.32-7.35-7.32-7.35c-.8-.8-2.05-.8-2.84,0-.8.8-.8,2.05,0,2.84l3.91,3.91h-15.38Z" fill="#1d1e1e" stroke-width="0"/>
</svg>