<svg width="32" height="32" viewBox="0 0 32 32" fill="none" xmlns="http://www.w3.org/2000/svg">
    <path d="M23.47 11.38H13.12c-.29 0-.53-.24-.53-.53 0-.29.24-.53.53-.53h10.35c.29 0 .53.24.53.53 0 .29-.24.53-.53.53zM23.47 16.53H13.12c-.29 0-.53-.24-.53-.53 0-.29.24-.53.53-.53h10.35c.29 0 .53.24.53.53 0 .29-.24.53-.53.53zM23.47 21.68H13.12c-.29 0-.53-.24-.53-.53 0-.29.24-.53.53-.53h10.35c.29 0 .53.24.53.53 0 .29-.24.53-.53.53zM9.29 12.14a1.29 1.29 0 1 0 0-2.58 1.29 1.29 0 0 0 0 2.58zM9.29 17.29a1.29 1.29 0 1 0 0-2.58 1.29 1.29 0 0 0 0 2.58zM9.29 22.44a1.29 1.29 0 1 0 0-2.58 1.29 1.29 0 0 0 0 2.58z" fill="#fff"/>
    <circle cx="16" cy="16" r="15.5" stroke="#505050"/>
</svg>
