<svg width="40" height="40" viewBox="0 0 40 40" fill="none" xmlns="http://www.w3.org/2000/svg">
    <path d="M20 40c11.046 0 20-8.954 20-20S31.046 0 20 0 0 8.954 0 20s8.954 20 20 20z" fill="#F0F0F0"/>
    <path d="M22.916 13c1.56 0 2.826 1.29 2.826 2.882v.923l3.906-1.449c.659-.244 1.355.253 1.355.967v7.356c0 .714-.697 1.21-1.355.966l-3.906-1.449v.922c0 1.592-1.265 2.882-2.826 2.882h-10.09C11.264 27 10 25.71 10 24.118v-8.236C10 14.29 11.265 13 12.825 13h10.091zm-10.09 1.646c-.67 0-1.212.554-1.212 1.236v8.236c0 .682.542 1.235 1.211 1.236h10.091c.669 0 1.212-.554 1.212-1.236v-8.236c0-.682-.543-1.236-1.212-1.236h-10.09zm12.916 3.91v2.887l3.647 1.354v-5.593l-3.647 1.353z" fill="#1E1E1E"/>
</svg>
