<?xml version="1.0" encoding="UTF-8"?>
<svg id="Layer_1" data-name="Layer 1" xmlns="http://www.w3.org/2000/svg" viewBox="0 0 48 48">
  <path d="M44.41,1.88H3.59C1.92,1.88.56,3.23.56,4.9v32.51c0,1.67,1.35,3.02,3.02,3.02h40.83c1.67,0,3.02-1.35,3.02-3.02V4.9c0-1.67-1.35-3.02-3.02-3.02Z" fill="#e6f1fa" stroke-width="0"/>
  <path d="M44.41,1.88H3.59C1.92,1.88.56,3.23.56,4.9v32.51c0,1.67,1.35,3.02,3.02,3.02h40.83c1.67,0,3.02-1.35,3.02-3.02V4.9c0-1.67-1.35-3.02-3.02-3.02Z" fill="#fff" stroke-width="0"/>
  <path d="M44.41,41H3.59c-1.98,0-3.59-1.61-3.59-3.59V4.9C0,2.92,1.61,1.32,3.59,1.32h40.82c1.98,0,3.59,1.61,3.59,3.59v32.5c0,1.98-1.61,3.59-3.59,3.59ZM3.59,2.44c-1.36,0-2.46,1.1-2.46,2.46v32.51c0,1.36,1.1,2.46,2.46,2.46h40.82c1.36,0,2.46-1.1,2.46-2.46V4.9c0-1.36-1.1-2.46-2.46-2.46H3.59Z" fill="#1d1e1e" stroke-width="0"/>
  <path d="M44.41,1.88H3.59c-.8,0-1.57.32-2.14.89-.57.57-.89,1.34-.89,2.14v6.05h46.88v-6.06c0-.4-.08-.79-.23-1.16-.15-.37-.37-.7-.66-.98-.28-.28-.61-.5-.98-.66-.37-.15-.76-.23-1.16-.23h0Z" fill="#e6f1fa" stroke-width="0"/>
  <path d="M47.44,11.51H.56c-.31,0-.56-.25-.56-.56v-6.05c0-.96.37-1.86,1.05-2.54.68-.68,1.58-1.05,2.54-1.05h40.82c.47,0,.94.09,1.37.27.44.18.83.44,1.16.78.33.33.6.73.78,1.16.18.44.27.9.27,1.37v6.05c0,.31-.25.56-.56.56h.01ZM1.12,10.39h45.76v-5.49c0-.33-.06-.64-.19-.94-.12-.3-.3-.57-.53-.8s-.5-.41-.8-.53-.62-.19-.94-.19H3.59c-.66,0-1.28.26-1.74.72-.46.47-.72,1.08-.72,1.74v5.49h0Z" fill="#1d1e1e" stroke-width="0"/>
  <path d="M5.1,7.93c.84,0,1.51-.68,1.51-1.51s-.68-1.51-1.51-1.51-1.51.68-1.51,1.51.68,1.51,1.51,1.51Z" fill="#009cde" stroke-width="0"/>
  <path d="M5.1,8.49c-1.14,0-2.07-.93-2.07-2.07s.93-2.08,2.07-2.08,2.07.93,2.07,2.08-.93,2.07-2.07,2.07ZM5.1,5.47c-.52,0-.95.43-.95.95s.43.95.95.95.95-.43.95-.95-.43-.95-.95-.95Z" fill="#1d1e1e" stroke-width="0"/>
  <path d="M11.15,7.93c.84,0,1.51-.68,1.51-1.51s-.68-1.51-1.51-1.51-1.51.68-1.51,1.51.68,1.51,1.51,1.51Z" fill="#71c5e8" stroke-width="0"/>
  <path d="M11.15,8.49c-1.14,0-2.07-.93-2.07-2.07s.93-2.08,2.07-2.08,2.07.93,2.07,2.08-.93,2.07-2.07,2.07ZM11.15,5.47c-.52,0-.95.43-.95.95s.43.95.95.95.95-.43.95-.95-.43-.95-.95-.95Z" fill="#1d1e1e" stroke-width="0"/>
  <path d="M17.2,7.93c.84,0,1.51-.68,1.51-1.51s-.68-1.51-1.51-1.51-1.51.68-1.51,1.51.68,1.51,1.51,1.51Z" fill="#71c5e8" stroke-width="0"/>
  <path d="M17.19,8.49c-1.14,0-2.07-.93-2.07-2.07s.93-2.08,2.07-2.08,2.07.93,2.07,2.08-.93,2.07-2.07,2.07ZM17.19,5.47c-.52,0-.95.43-.95.95s.43.95.95.95.95-.43.95-.95-.43-.95-.95-.95Z" fill="#1d1e1e" stroke-width="0"/>
</svg>