<?xml version="1.0" encoding="utf-8"?>
<!-- Generator: Adobe Illustrator 26.3.1, SVG Export Plug-In . SVG Version: 6.00 Build 0)  -->
<svg version="1.1" id="Layer_1" xmlns="http://www.w3.org/2000/svg" xmlns:xlink="http://www.w3.org/1999/xlink" x="0px" y="0px"
	 viewBox="0 0 84 137" style="enable-background:new 0 0 84 137;" xml:space="preserve">
<style type="text/css">
	.st0{fill:#BAEEFE;}
	.st1{fill:#F46643;}
	.st2{opacity:0.4;fill:#FFFFFF;stroke:#FFFFFF;stroke-miterlimit:10;enable-background:new    ;}
	.st3{opacity:0.4;fill:#FFFFFF;enable-background:new    ;}
	.st4{display:none;}
	.st5{display:inline;fill:#888888;}
	.st6{display:inline;fill:#B2B2B2;}
	.st7{display:inline;fill:#505050;}
</style>
<g id="Layer_1_00000165220992333190428670000012458640209807238820_">
	<path class="st0" d="M73.81,30.36V16H9.94v14.36c0,6.98,2.21,13.61,6.41,19.19S26.3,59.1,33,61.04h0.02l0.02,0.01
		c3.32,1.01,5.63,4.13,5.62,7.6c0.01,3.47-2.29,6.59-5.62,7.6h-0.02L33,76.27c-6.7,1.94-12.46,5.92-16.65,11.49
		s-6.41,12.2-6.41,19.18v14.36H73.8v-14.36c0-6.98-2.22-13.61-6.41-19.19c-4.19-5.57-9.95-9.55-16.65-11.49h-0.02l-0.02-0.01
		c-3.33-1-5.63-4.12-5.62-7.6c-0.01-3.47,2.29-6.59,5.62-7.6h0.02l0.02-0.01c6.7-1.94,12.46-5.92,16.65-11.49
		S73.81,37.34,73.81,30.36L73.81,30.36z"/>
	<path class="st1" d="M33.04,76.14h-0.02L33,76.15c-6.7,1.94-12.46,5.92-16.65,11.49s-6.41,12.21-6.41,19.18v14.36H73.8v-14.36
		c0-6.98-2.21-13.61-6.41-19.19c-4.19-5.58-9.95-9.55-16.65-11.5h-0.02c0,0-3.29-1.17-8.85-1.17
		C36.31,74.97,33.04,76.13,33.04,76.14L33.04,76.14z"/>
	<path class="st2" d="M35.68,72.46c1.2-0.51,2.03-2.05,2.02-3.8c0.01-1.75-0.81-3.3-2.02-3.81c-11.05-4.44-18.66-18.51-18.66-34.49
		V16H6.97v14.36c0,15.98,10.56,30.05,25.92,34.49c1.67,0.51,2.81,2.06,2.8,3.81c0.01,1.75-1.12,3.29-2.8,3.8
		C17.54,76.9,6.97,90.96,6.97,106.94v14.36h10.05v-14.36C17.02,90.96,24.63,76.9,35.68,72.46L35.68,72.46z"/>
	<path class="st2" d="M50.64,64.84c15.35-4.45,25.91-18.5,25.92-34.49V16H66.51v14.36c0,15.98-7.61,30.04-18.66,34.49
		c-1.2,0.51-2.03,2.06-2.02,3.81c-0.01,1.75,0.81,3.29,2.02,3.8c11.05,4.45,18.66,18.51,18.66,34.49v14.36h10.05v-14.36
		c0-15.98-10.57-30.04-25.92-34.49c-1.67-0.51-2.81-2.05-2.8-3.8C47.82,66.9,48.96,65.35,50.64,64.84z"/>
	<path class="st3" d="M5.78,15.9v2.97h71.79V15.9H5.78z"/>
	<path class="st3" d="M5.78,118.34v2.97h71.79v-2.97H5.78z"/>
</g>
<g id="Layer_2_00000165938108782241045590000010146200846002212267_" class="st4">
	<path class="st5" d="M0.99,1.54h81.37V15.9H0.99V1.54z"/>
	<path class="st6" d="M79.97,1.54H3.38c-1.32,0-2.39,1.07-2.39,2.39v7.18c0-1.32,1.07-2.39,2.39-2.39h76.58
		c1.32,0,2.39,1.07,2.39,2.39V3.93C82.36,2.61,81.29,1.54,79.97,1.54z"/>
	<path class="st5" d="M0.99,121.2h81.37v14.36H0.99V121.2z"/>
	<path class="st6" d="M79.97,121.2H3.38c-1.32,0-2.39,1.07-2.39,2.39v7.18c0-1.32,1.07-2.39,2.39-2.39h76.58
		c1.32,0,2.39,1.07,2.39,2.39v-7.18C82.36,122.27,81.29,121.2,79.97,121.2z"/>
	<path class="st7" d="M82.36,0.55H0.99C0.45,0.55,0,1,0,1.54V15.9c0,0.55,0.45,0.99,0.99,0.99h81.37c0.54,0,0.99-0.45,0.99-0.99
		V1.54C83.35,1,82.9,0.55,82.36,0.55z M81.37,14.91H1.98V2.53h79.39V14.91z"/>
	<path class="st7" d="M82.36,120.21H0.99c-0.55,0-0.99,0.45-0.99,0.99v14.36c0,0.54,0.45,0.99,0.99,0.99h81.37
		c0.54,0,0.99-0.45,0.99-0.99V121.2C83.35,120.65,82.9,120.21,82.36,120.21z M81.37,134.57H1.98v-12.38h79.39V134.57z"/>
	<path class="st7" d="M77.57,122.19H5.78c-0.55,0-0.99-0.45-0.99-0.99v-14.36c0-16.33,10.96-30.9,26.63-35.44
		c1.23-0.37,2.1-1.54,2.09-2.84c0.01-1.32-0.85-2.49-2.1-2.86C15.74,61.16,4.79,46.58,4.79,30.25V15.9c0-0.55,0.45-0.99,0.99-0.99
		h71.79c0.55,0,0.99,0.45,0.99,0.99v14.36c0,16.32-10.96,30.89-26.63,35.44c-1.23,0.37-2.1,1.54-2.09,2.84
		c-0.01,1.32,0.85,2.49,2.1,2.86c15.67,4.54,26.62,19.11,26.62,35.44v14.36C78.56,121.74,78.12,122.19,77.57,122.19L77.57,122.19z
		 M6.77,120.21h69.81v-13.37c0-15.44-10.37-29.23-25.2-33.53c-2.09-0.63-3.53-2.59-3.52-4.76c-0.02-2.16,1.42-4.12,3.5-4.74
		c14.84-4.3,25.21-18.09,25.22-33.53V16.9H6.77v13.37c0,15.45,10.37,29.24,25.2,33.54c2.09,0.63,3.53,2.59,3.52,4.76
		c0.01,2.16-1.42,4.11-3.5,4.74C17.14,77.61,6.78,91.4,6.77,106.84V120.21z"/>
</g>
</svg>
