<?xml version="1.0" encoding="UTF-8"?>
<svg id="Layer_1" data-name="Layer 1" xmlns="http://www.w3.org/2000/svg" viewBox="0 0 48 48">
  <path d="M32.11,18.36l-13.9,13.9-8.24,2.69c-.27.09-.53-.17-.44-.44l2.7-8.24,13.9-13.9,5.99,5.99Z" fill="#fff" stroke-width="0"/>
  <path d="M9.85,35.46c-.22,0-.43-.09-.59-.25-.22-.22-.3-.55-.2-.85l2.7-8.24c.02-.07.06-.14.12-.19l13.9-13.9c.19-.19.5-.19.69,0l5.99,5.99c.09.09.14.21.14.34s-.05.25-.14.34l-13.9,13.9c-.05.05-.12.09-.19.12l-8.24,2.69c-.09.03-.17.04-.26.04ZM12.65,26.54l-2.58,7.87,7.88-2.58,13.48-13.48-5.3-5.3-13.48,13.48Z" fill="#1d1e1e" stroke-width="0"/>
  <polygon points="15.21 29.27 9.55 34.93 17.92 32.3 15.21 29.27" fill="#e6f1fa" stroke-width="0"/>
  <path d="M33.04,8.91h6.76c0,2.24-1.82,4.06-4.06,4.06h-2.7v-4.06h0Z" transform="translate(2.93 28.95) rotate(-45)" fill="#009cde" stroke-width="0"/>
  <path d="M30.17,6.04h2.7c2.24,0,4.06,1.82,4.06,4.06h-6.76v-4.06h0Z" transform="translate(4.12 26.09) rotate(-45)" fill="#71c5e8" stroke-width="0"/>
  <rect x="28.41" y="9.44" width="4.79" height="8.46" transform="translate(-.65 25.79) rotate(-45)" fill="#fff" stroke-width="0"/>
  <path d="M32.11,19.05l-6.67-6.67,4.08-4.08,6.67,6.67-4.08,4.08ZM26.81,12.38l5.3,5.3,2.7-2.7-5.3-5.3-2.7,2.7Z" fill="#1d1e1e" stroke-width="0"/>
  <rect x="29.84" y="13.08" width="4.79" height="4.06" transform="translate(-1.24 27.22) rotate(-45)" fill="#e6f1fa" stroke-width="0"/>
  <rect x="10.9" y="18.86" width="19.66" height="4.06" transform="translate(-8.7 20.78) rotate(-45)" fill="#71c5e8" stroke-width="0"/>
  <rect x="13.77" y="21.73" width="19.66" height="4.06" transform="translate(-9.89 23.64) rotate(-45)" fill="#009cde" stroke-width="0"/>
  <path d="M35.5,15.66l-6.67-6.67,2.11-2.11c1.84-1.84,4.83-1.84,6.67,0,1.84,1.84,1.84,4.83,0,6.67l-2.11,2.11ZM30.2,8.99l5.3,5.3,1.42-1.42c1.46-1.46,1.46-3.84,0-5.3s-3.84-1.46-5.3,0l-1.42,1.42Z" fill="#1d1e1e" stroke-width="0"/>
  <rect x="14.72" y="25.04" width=".97" height="8.46" transform="translate(-16.24 19.33) rotate(-45)" fill="#1d1e1e" stroke-width="0"/>
  <path d="M9.85,35.46c-.22,0-.43-.09-.59-.25-.22-.22-.3-.55-.2-.85l2.7-8.24c.02-.07.06-.14.12-.19l13.9-13.9c.19-.19.5-.19.69,0l5.99,5.99c.09.09.14.21.14.34s-.05.25-.14.34l-13.9,13.9c-.05.05-.12.09-.19.12l-8.24,2.69c-.09.03-.17.04-.26.04ZM12.65,26.54l-2.58,7.87,7.88-2.58,13.48-13.48-5.3-5.3-13.48,13.48Z" fill="#1d1e1e" stroke-width="0"/>
  <path d="M32.11,19.05l-6.67-6.67,4.08-4.08,6.67,6.67-4.08,4.08ZM26.81,12.38l5.3,5.3,2.7-2.7-5.3-5.3-2.7,2.7Z" fill="#1d1e1e" stroke-width="0"/>
  <path d="M35.5,15.66l-6.67-6.67,2.11-2.11c1.84-1.84,4.83-1.84,6.67,0,1.84,1.84,1.84,4.83,0,6.67l-2.11,2.11ZM30.2,8.99l5.3,5.3,1.42-1.42c1.46-1.46,1.46-3.84,0-5.3s-3.84-1.46-5.3,0l-1.42,1.42Z" fill="#1d1e1e" stroke-width="0"/>
  <rect x="14.72" y="25.04" width=".97" height="8.46" transform="translate(-16.24 19.33) rotate(-45)" fill="#1d1e1e" stroke-width="0"/>
</svg>