<?xml version="1.0" encoding="utf-8"?>
<!-- Generator: Adobe Illustrator 26.3.1, SVG Export Plug-In . SVG Version: 6.00 Build 0)  -->
<svg version="1.1" id="Layer_1" xmlns="http://www.w3.org/2000/svg" xmlns:xlink="http://www.w3.org/1999/xlink" x="0px" y="0px"
	 viewBox="0 0 1374.71 125.35" style="enable-background:new 0 0 1374.71 125.35;" xml:space="preserve">
<style type="text/css">
	.st0{fill:#E0F9FF;}
	.st1{opacity:0.32;}
	.st2{fill:#71C5E8;}
	.st3{opacity:0.2;fill:#71C5E8;enable-background:new    ;}
	.st4{opacity:0.8;}
	.st5{fill:#BAEEFE;}
	.st6{opacity:0.2;}
</style>
<g>
	<path class="st0" d="M284.62,40.19H263.2c-4.7-22.46-24.52-39.31-48.28-39.31s-41.85,15.48-47.55,36.5
		c-7.14-10.05-18.84-16.63-32.07-16.63c-14.43,0-27.03,7.8-33.88,19.42H67.09c-16.35,0.02-29.74,13.45-29.74,29.87
		s13.38,29.84,29.74,29.84h217.53c16.35,0,29.73-13.43,29.73-29.84S300.97,40.19,284.62,40.19z"/>
</g>
<g class="st1">
	<path class="st2" d="M285.06,124.47c8.35,0,15.11-6.77,15.11-15.11c0-8.35-6.76-15.11-15.11-15.11c-2.39,0-4.64,0.57-6.65,1.56
		c-2.27-9.06-10.46-15.77-20.22-15.77c-4.62,0-8.88,1.5-12.34,4.04c-4.53-7.32-12.64-12.2-21.89-12.2
		c-12.07,0-22.2,8.31-24.99,19.51c-1.24-0.29-2.53-0.45-3.85-0.45c-9.25,0-16.76,7.51-16.76,16.77s7.51,16.76,16.77,16.76H285.06z"
		/>
</g>
<path class="st3" d="M560.98,32.6h-6.03c-1.32-6.12-6.9-10.72-13.6-10.72c-6.69,0-11.78,4.22-13.39,9.95
	c-2.01-2.74-5.3-4.54-9.03-4.54c-4.06,0-7.61,2.13-9.54,5.3h-9.66c-4.6,0.01-8.37,3.67-8.37,8.15c0,4.48,3.77,8.14,8.37,8.14h61.25
	c4.6,0,8.37-3.66,8.37-8.14C569.36,36.26,565.59,32.6,560.98,32.6z"/>
<g>
	<path class="st0" d="M627.79,111.88c13.02,0,23.57-10.56,23.57-23.56c0-13.02-10.54-23.56-23.57-23.56
		c-3.73,0-7.24,0.89-10.37,2.43c-3.54-14.13-16.32-24.59-31.54-24.59c-7.21,0-13.85,2.34-19.25,6.3
		c-7.07-11.41-19.72-19.02-34.14-19.02c-18.83,0-34.63,12.96-38.98,30.42c-1.93-0.45-3.95-0.7-6.01-0.7
		c-14.43,0-26.14,11.71-26.14,26.15s11.71,26.13,26.16,26.13H627.79z"/>
</g>
<g class="st4">
	<path class="st0" d="M109.1,111.88c8.43,0,15.26-6.82,15.26-15.23c0-8.42-6.83-15.23-15.26-15.23c-2.41,0-4.68,0.57-6.71,1.57
		c-2.29-9.13-10.56-15.89-20.42-15.89c-4.67,0-8.97,1.51-12.46,4.07c-4.57-7.38-12.76-12.3-22.1-12.3
		c-12.19,0-22.42,8.37-25.23,19.66c-1.25-0.29-2.55-0.45-3.89-0.45c-9.34,0-16.92,7.57-16.92,16.9c0,9.33,7.58,16.89,16.93,16.89
		H109.1z"/>
</g>
<g class="st4">
	<path class="st5" d="M500.76,62.37c0.12,0,0.22,0.01,0.34,0.01c8.97,0,16.26-7.33,16.26-16.38c0-9.04-7.27-16.38-16.26-16.38
		c-2.57,0-4.99,0.61-7.15,1.69c-2.44-9.82-11.25-17.1-21.75-17.1c-4.97,0-9.55,1.63-13.27,4.38c-4.87-7.92-13.59-13.21-23.54-13.21
		c-12.97,0-23.87,9-26.87,21.15c-1.33-0.32-2.71-0.49-4.15-0.49c-9.94,0-18.02,8.14-18.02,18.17s8.08,18.17,18.03,18.17
		c0,0,96.38,0,96.38-0.01H500.76z"/>
</g>
<g>
	<path class="st0" d="M1006.62,40.19H985.2c-4.7-22.46-24.52-39.31-48.28-39.31c-23.76,0-41.85,15.48-47.55,36.5
		c-7.14-10.05-18.84-16.63-32.07-16.63c-14.43,0-27.03,7.8-33.88,19.42h-34.32c-16.35,0.02-29.73,13.45-29.73,29.87
		s13.38,29.84,29.73,29.84h217.53c16.36,0,29.74-13.43,29.74-29.84S1022.98,40.19,1006.62,40.19z"/>
</g>
<g class="st1">
	<path class="st2" d="M1007.06,124.47c8.35,0,15.11-6.77,15.11-15.11c0-8.35-6.76-15.11-15.11-15.11c-2.39,0-4.64,0.57-6.65,1.56
		c-2.27-9.06-10.46-15.77-20.22-15.77c-4.62,0-8.88,1.5-12.34,4.04c-4.53-7.32-12.64-12.2-21.89-12.2
		c-12.07,0-22.2,8.31-24.99,19.51c-1.24-0.29-2.53-0.45-3.85-0.45c-9.25,0-16.76,7.51-16.76,16.77s7.51,16.76,16.77,16.76H1007.06z"
		/>
</g>
<g class="st6">
	<path class="st2" d="M1282.99,32.6h-6.04c-1.32-6.12-6.9-10.72-13.59-10.72s-11.79,4.22-13.39,9.95c-2.01-2.74-5.31-4.54-9.03-4.54
		c-4.07,0-7.62,2.13-9.54,5.3h-9.67c-4.6,0.01-8.37,3.67-8.37,8.15c0,4.48,3.77,8.14,8.37,8.14h61.26c4.6,0,8.37-3.66,8.37-8.14
		C1291.36,36.26,1287.59,32.6,1282.99,32.6z"/>
</g>
<g>
	<path class="st0" d="M1349.79,111.88c13.03,0,23.57-10.56,23.57-23.56c0-13.02-10.54-23.56-23.57-23.56
		c-3.73,0-7.24,0.89-10.37,2.43c-3.54-14.13-16.32-24.59-31.54-24.59c-7.21,0-13.85,2.34-19.25,6.3
		c-7.06-11.41-19.71-19.02-34.14-19.02c-18.83,0-34.63,12.96-38.98,30.42c-1.94-0.45-3.95-0.7-6.01-0.7
		c-14.43,0-26.14,11.71-26.14,26.15s11.71,26.13,26.16,26.13H1349.79z"/>
</g>
<g class="st4">
	<path class="st0" d="M831.1,111.88c8.43,0,15.26-6.82,15.26-15.23c0-8.42-6.83-15.23-15.26-15.23c-2.41,0-4.68,0.57-6.72,1.57
		c-2.29-9.13-10.56-15.89-20.42-15.89c-4.66,0-8.97,1.51-12.46,4.07c-4.57-7.38-12.76-12.3-22.1-12.3
		c-12.19,0-22.42,8.37-25.23,19.66c-1.25-0.29-2.55-0.45-3.89-0.45c-9.34,0-16.92,7.57-16.92,16.9c0,9.33,7.58,16.89,16.93,16.89
		H831.1z"/>
</g>
<g class="st4">
	<path class="st5" d="M1222.76,62.37c0.12,0,0.23,0.01,0.35,0.01c8.97,0,16.25-7.33,16.25-16.38c0-9.04-7.27-16.38-16.25-16.38
		c-2.57,0-5,0.61-7.16,1.69c-2.43-9.82-11.25-17.1-21.75-17.1c-4.96,0-9.55,1.63-13.26,4.38c-4.87-7.92-13.59-13.21-23.54-13.21
		c-12.97,0-23.87,9-26.87,21.15c-1.33-0.32-2.71-0.49-4.15-0.49c-9.95,0-18.02,8.14-18.02,18.17s8.07,18.17,18.03,18.17
		c0,0,96.39,0,96.39-0.01H1222.76z"/>
</g>
</svg>
