<svg
      width="216"
      height="216"
      viewBox="0 0 216 216"
      fill="none"
      xmlns="http://www.w3.org/2000/svg"
    >
      <path d="M9.234 108.289a99 99 0 1 0 198.002-.032 99 99 0 0 0-198.002.032z" fill="#F5F7FC" />
      <path
        d="M108 208A100.06 100.06 0 0 1 8 108 100.062 100.062 0 0 1 108 8a100.062 100.062 0 0 1 100 100 100.06 100.06 0 0 1-100 100zm0-197.409a97.408 97.408 0 0 0-68.877 166.286 97.402 97.402 0 0 0 106.442 21.604 97.423 97.423 0 0 0 52.916-52.916 97.413 97.413 0 0 0-21.604-106.442A96.818 96.818 0 0 0 108 10.59z"
        fill="#E6EDF8"
      />
      <path
        opacity=".16"
        d="M70.508 190.917c0 .781 3.864 1.536 10.732 2.092 6.867.556 16.195.847 25.906.847 9.71 0 19.038-.317 25.844-.86 6.806-.543 10.732-1.324 10.732-2.092s-3.865-1.536-10.732-2.093c-6.867-.556-16.183-.873-25.844-.873-9.661 0-19.04.317-25.906.873-6.868.557-10.732 1.325-10.732 2.093v.013z"
        fill="#45413C"
      />
      <path
        d="M192 55.32a9.507 9.507 0 0 0-2.683-6.599 8.96 8.96 0 0 0-2.935-2.02 8.765 8.765 0 0 0-3.468-.7H33.147a9.032 9.032 0 0 0-6.468 2.747A9.507 9.507 0 0 0 24 55.383V153h168V55.32z"
        fill="#C3CFE1"
      />
      <path
        d="M153.141 46H33.129a9.078 9.078 0 0 0-6.455 2.704A9.284 9.284 0 0 0 24 55.23v96.094L153.141 46z"
        fill="#DCE5F2"
      />
      <path fill="#ECECEC" d="M31 54h153v98.442H31z" />
      <rect x="51.164" y="110.188" width="113.81" height="27.759" rx="2" fill="#F9F9F9" />
      <path
        fill="#ECECEC"
        d="M56.719 115.734h2.776v2.77h-2.776zM65.047 115.734h2.776v2.77h-2.776zM73.375 115.734h2.776v2.77h-2.776zM81.703 115.734h2.776v2.77h-2.776zM90.031 115.734h2.776v2.77h-2.776zM98.359 115.734h2.776v2.77h-2.776zM106.688 115.734h2.776v2.77h-2.776zM115.016 115.734h2.776v2.77h-2.776zM123.336 115.734h2.776v2.77h-2.776zM131.664 115.734h2.776v2.77h-2.776zM139.992 115.734h2.776v2.77h-2.776zM148.32 115.734h2.776v2.77h-2.776zM156.648 115.734h2.776v2.77h-2.776zM56.719 122.672h2.776v2.77h-2.776zM65.047 122.672h2.776v2.77h-2.776zM73.375 122.672h2.776v2.77h-2.776zM81.703 122.672h2.776v2.77h-2.776zM90.031 122.672h2.776v2.77h-2.776zM98.359 122.672h2.776v2.77h-2.776zM106.688 122.672h2.776v2.77h-2.776zM115.016 122.672h2.776v2.77h-2.776zM123.336 122.672h2.776v2.77h-2.776zM131.664 122.672h2.776v2.77h-2.776zM139.992 122.672h2.776v2.77h-2.776zM148.32 122.672h2.776v2.77h-2.776zM156.648 122.672h2.776v2.77h-2.776zM56.719 129.609h2.776v2.77h-2.776zM65.047 129.609h2.776v2.77h-2.776zM73.375 129.609h2.776v2.77h-2.776zM81.703 129.609h2.776v2.77h-2.776zM90.031 129.609h2.776v2.77h-2.776zM98.359 129.609h2.776v2.77h-2.776zM106.688 129.609h2.776v2.77h-2.776zM115.016 129.609h2.776v2.77h-2.776zM123.336 129.609h2.776v2.77h-2.776zM131.664 129.609h2.776v2.77h-2.776zM139.992 129.609h2.776v2.77h-2.776zM148.32 129.609h2.776v2.77h-2.776zM156.648 129.609h2.776v2.77h-2.776z"
      />
      <path
        fill="#F9F9F9"
        d="M74.883 87.773h64.407v2.477H74.883zM68.953 94.383h77.618v2.477H68.953zM74.883 100.984h64.407v2.477H74.883zM31 54h153v13.046H31z"
      />
      <path fill="#E4E4E4" d="M31 71.789h153v9.488H31z" />
      <path
        fillRule="evenodd"
        clipRule="evenodd"
        d="M23 152.805h2.125V54.698c0-4.28 3.44-7.75 7.683-7.75h150.384c4.243 0 7.683 3.47 7.683 7.75v98.107H193V54.698c0-5.464-4.391-9.893-9.808-9.893H32.808c-5.417 0-9.808 4.429-9.808 9.893v98.107z"
        fill="#45413C"
      />
      <path
        fillRule="evenodd"
        clipRule="evenodd"
        d="M30 151.978h2.125V55.19h151.038v96.788h2.125V54.696c0-.91-.731-1.65-1.634-1.65H31.634c-.902 0-1.634.74-1.634 1.65v97.282z"
        fill="#45413C"
      />
      <path
        d="M31 54h153v98.442H31V54z"
        fill="#E8E8E8"
        fillOpacity=".4"
        className="mix-blend-mode:multiply"
      />
      <path
        d="M202.038 152.867H13.862a4.512 4.512 0 0 0-3.239 1.343 4.52 4.52 0 0 0-1.357 3.05v4.443h197.368v-4.443a4.52 4.52 0 0 0-1.357-3.05 4.555 4.555 0 0 0-1.484-.992 4.615 4.615 0 0 0-1.755-.351z"
        fill="#BAC8DC"
      />
      <path
        d="M206.324 162.133H9.68c1.486 2.513 3.752 4.606 6.536 6.038 2.783 1.432 5.97 2.143 9.195 2.054h165.243c3.212.09 6.387-.622 9.156-2.055 2.769-1.432 5.017-3.526 6.483-6.037h.031z"
        fill="#EAEEF7"
      />
      <path
        fillRule="evenodd"
        clipRule="evenodd"
        d="M201.308 151a7.119 7.119 0 0 1 2.511.461 6.705 6.705 0 0 1 2.152 1.318c1.214 1.094 1.957 2.596 2.027 4.215l.002.088v4.039c0 1.153-.957 2.088-2.138 2.088H10.138c-1.18 0-2.138-.935-2.138-2.088v-4.039c0-.029 0-.058.002-.088.07-1.617.81-3.117 2.022-4.211a6.663 6.663 0 0 1 2.155-1.326 7.06 7.06 0 0 1 2.52-.457h186.609zm-189.824 3.309c-.82.736-1.3 1.728-1.346 2.773v4.039h195.724v-4.039c-.045-1.045-.526-2.037-1.346-2.773a4.576 4.576 0 0 0-1.472-.902 4.962 4.962 0 0 0-1.74-.319H14.696a4.86 4.86 0 0 0-1.742.315 4.52 4.52 0 0 0-1.47.906z"
        fill="#45413C"
      />
      <path
        fillRule="evenodd"
        clipRule="evenodd"
        d="M8.772 161.018a1.083 1.083 0 0 1 1.462.374c1.384 2.312 3.504 4.254 6.131 5.589 2.628 1.336 5.646 2.004 8.706 1.919H190.983c3.046.085 6.052-.583 8.664-1.918 2.611-1.336 4.713-3.277 6.076-5.584.191-.324.544-.523.926-.523h.031c.59 0 1.069.468 1.069 1.044 0 .277-.11.529-.29.715-1.58 2.587-3.946 4.728-6.821 6.198-2.941 1.504-6.305 2.249-9.701 2.156H25.116c-3.408.092-6.783-.652-9.738-2.154-2.96-1.505-5.389-3.714-6.99-6.387a1.031 1.031 0 0 1 .384-1.429z"
        fill="#45413C"
      />
      <path
        d="M127.25 52.625a39.682 39.682 0 0 0 2.986 15.077c1.991 4.772 4.889 9.133 8.548 12.764a39.605 39.605 0 0 0 12.764 8.548c4.772 1.99 9.895 2.986 15.077 2.986a39.674 39.674 0 0 0 15.077-2.986c4.772-1.99 9.133-4.889 12.764-8.548a39.61 39.61 0 0 0 8.548-12.764C205.005 62.93 206 57.807 206 52.625a39.682 39.682 0 0 0-2.986-15.077c-1.991-4.772-4.889-9.134-8.548-12.764a39.605 39.605 0 0 0-12.764-8.548c-4.772-1.99-9.895-2.986-15.077-2.986a39.674 39.674 0 0 0-15.077 2.986c-4.772 1.99-9.133 4.889-12.764 8.548a39.61 39.61 0 0 0-8.548 12.764c-1.991 4.772-2.986 9.895-2.986 15.077z"
        fill="#EEFBFF"
      />
      <path
        d="M141.703 82.504a38.362 38.362 0 0 1-10-12.143 38.927 38.927 0 0 1-4.342-15.129 38.638 38.638 0 0 1 2.028-15.617 38.2 38.2 0 0 1 8.085-13.492 38.4 38.4 0 0 1 12.771-9.13 38.133 38.133 0 0 1 15.342-3.243 38.773 38.773 0 0 1 15.371 3.158c4.857 2.095 9.2 5.196 12.828 9.071l-52.055 56.554-.028-.03z"
        fill="#fff"
      />
      <path
        d="M135.422 52.113c0 17.394 14.068 31.496 31.418 31.496 17.351 0 31.419-14.102 31.419-31.496 0-17.393-14.068-31.496-31.419-31.496-17.35 0-31.418 14.103-31.418 31.496z"
        fill="#FCA886"
      />
      <path
        opacity=".4"
        d="M197.703 58.073c-3.217-17.086-19.641-28.32-36.68-25.096-12.703 2.401-22.639 12.361-25.034 25.096-3.266-17.086 7.898-33.59 24.941-36.863 17.044-3.275 33.507 7.916 36.773 25.002a31.532 31.532 0 0 1 0 11.866v-.005z"
        fill="#fff"
      />
      <path
        d="M188.571 47.82a3.032 3.032 0 0 1-2.159-.902c-10.942-11.026-28.682-11.026-39.624 0-1.7 1.637-4.52.805-5.076-1.497a3.093 3.093 0 0 1 .755-2.85c13.328-13.428 34.933-13.428 48.261 0 1.663 1.674.904 4.535-1.367 5.15-.258.069-.525.104-.792.104l.002-.005z"
        fill="#fff"
      />
      <path
        d="M180.92 55.518a3.032 3.032 0 0 1-2.158-.9 17.119 17.119 0 0 0-24.339 0c-1.663 1.674-4.501.907-5.108-1.382a3.095 3.095 0 0 1 .791-2.972c9.106-9.175 23.867-9.175 32.972 0 1.663 1.674.904 4.534-1.366 5.148-.258.07-.524.106-.792.106z"
        fill="#fff"
      />
      <path
        d="M159.911 63.218c-2.35.002-3.82-2.56-2.647-4.612.133-.234.297-.449.486-.64a12.438 12.438 0 0 1 17.69 0c1.649 1.689.866 4.543-1.409 5.138a3.037 3.037 0 0 1-2.911-.788 6.365 6.365 0 0 0-9.051 0 3.033 3.033 0 0 1-2.158.902zM167.106 72.502c-2.681.001-4.357-2.922-3.018-5.262 1.34-2.34 4.69-2.341 6.031-.002.307.534.468 1.14.467 1.757-.002 1.936-1.559 3.505-3.48 3.507z"
        fill="#fff"
      />
      <g clipPath="url(#w5woku1ppa)" fill="#45413C">
        <path d="M188.843 49.12h-.11c-1-.03-1.98-.45-2.69-1.17-5.12-5.16-11.93-8-19.17-8-7.24 0-14.05 2.84-19.17 8a3.896 3.896 0 0 1-3.85.96c-1.38-.4-2.4-1.48-2.74-2.88-.32-1.32.05-2.7.98-3.68 6.63-6.68 15.43-10.35 24.78-10.35 9.36 0 18.15 3.67 24.77 10.34a3.969 3.969 0 0 1 1.02 3.85 3.93 3.93 0 0 1-2.79 2.8c-.34.09-.68.14-1.03.14v-.01zm.01-1.8h.08a2.14 2.14 0 0 0 1.99-1.6c.21-.76 0-1.55-.56-2.11-6.27-6.33-14.61-9.81-23.49-9.81-8.87 0-17.21 3.48-23.49 9.8-.49.52-.69 1.28-.52 2 .19.77.74 1.36 1.5 1.58.74.22 1.52.02 2.08-.52 5.45-5.49 12.71-8.52 20.44-8.52s14.99 3.03 20.45 8.54c.4.4.95.64 1.52.64z" />
        <path d="M152.563 56.817c-.34 0-.69-.04-1.03-.14a3.887 3.887 0 0 1-2.8-2.82c-.36-1.37.03-2.84 1.02-3.84 4.57-4.61 10.66-7.15 17.12-7.15 6.46 0 12.55 2.54 17.12 7.15a3.969 3.969 0 0 1 1.02 3.85 3.93 3.93 0 0 1-2.79 2.8 3.895 3.895 0 0 1-3.82-1.03c-3.08-3.1-7.17-4.81-11.53-4.81-4.36 0-8.45 1.71-11.53 4.81-.76.76-1.75 1.17-2.78 1.17v.01zm14.31-12.14c-5.99 0-11.61 2.35-15.85 6.61-.55.55-.76 1.36-.56 2.11.2.76.77 1.34 1.53 1.54.75.2 1.52-.01 2.07-.56 3.42-3.45 7.97-5.34 12.81-5.34 4.84 0 9.39 1.9 12.81 5.34.41.41.94.63 1.52.63a2.14 2.14 0 0 0 2.07-1.6c.21-.76 0-1.55-.56-2.11-4.23-4.27-9.86-6.62-15.85-6.62h.01z" />
        <path d="M160.182 64.523c-1.42 0-2.7-.74-3.41-1.97a3.955 3.955 0 0 1-.01-3.99c.17-.3.39-.58.63-.83 2.53-2.55 5.9-3.96 9.48-3.96s6.95 1.41 9.48 3.96a3.933 3.933 0 0 1 .99 3.86 3.914 3.914 0 0 1-2.81 2.78c-1.34.34-2.79-.04-3.77-1.02a5.47 5.47 0 0 0-7.78-.01c-.73.74-1.75 1.17-2.8 1.17v.01zm6.69-8.95c-3.1 0-6.01 1.22-8.21 3.43a2.196 2.196 0 0 0-.34 2.64c.39.67 1.08 1.07 1.86 1.07.57 0 1.11-.22 1.52-.63a7.225 7.225 0 0 1 5.16-2.16c1.95 0 3.79.77 5.17 2.16a2.138 2.138 0 0 0 3.57-.97c.21-.76 0-1.55-.54-2.12-2.19-2.21-5.1-3.42-8.2-3.42h.01zM167.379 73.797c-1.58 0-2.99-.82-3.79-2.19a4.37 4.37 0 0 1-.01-4.42 4.337 4.337 0 0 1 3.8-2.21c1.58 0 3 .82 3.8 2.21.38.67.59 1.43.59 2.2 0 2.43-1.97 4.41-4.38 4.41h-.01zm0-7.02c-.93 0-1.77.49-2.23 1.3-.47.82-.47 1.8 0 2.62.47.81 1.3 1.29 2.23 1.29 1.42 0 2.58-1.17 2.58-2.61 0-.46-.12-.91-.35-1.31-.47-.82-1.3-1.3-2.23-1.3v.01z" />
      </g>
      <path
        fillRule="evenodd"
        clipRule="evenodd"
        d="M205.864 8.92c.596.574.614 1.524.04 2.12l-78.823 81.875a1.5 1.5 0 0 1-2.162-2.08L203.743 8.96a1.5 1.5 0 0 1 2.121-.04z"
        fill="#45413C"
      />
      <path
        fillRule="evenodd"
        clipRule="evenodd"
        d="M151.297 15.49a40.339 40.339 0 0 1 15.331-3.037c5.266 0 10.478 1.012 15.338 3.039a40.272 40.272 0 0 1 12.978 8.691c3.726 3.697 6.673 8.134 8.695 12.982l.003.007a40.345 40.345 0 0 1 3.036 15.331c0 5.266-1.011 10.478-3.039 15.338a40.27 40.27 0 0 1-8.691 12.978c-3.697 3.726-8.134 6.673-12.982 8.695l-.006.003a40.35 40.35 0 0 1-15.332 3.036c-5.266 0-10.478-1.011-15.338-3.039a40.273 40.273 0 0 1-12.978-8.691c-3.726-3.697-6.672-8.134-8.695-12.982l-.003-.006a40.345 40.345 0 0 1-3.036-15.332c0-5.266 1.012-10.478 3.039-15.338a40.285 40.285 0 0 1 8.691-12.978c3.697-3.726 8.134-6.672 12.982-8.695l.006-.003h.001zm.991 2.403c-4.542 1.895-8.689 4.652-12.136 8.127l-.003.004a37.67 37.67 0 0 0-8.132 12.142c-1.891 4.533-2.839 9.404-2.839 14.337 0 4.927.974 9.8 2.84 14.34 1.895 4.542 4.652 8.689 8.127 12.136l.004.004a37.67 37.67 0 0 0 12.142 8.132c4.533 1.89 9.404 2.838 14.337 2.838 4.927 0 9.801-.974 14.341-2.84 4.541-1.895 8.688-4.652 12.135-8.127l.004-.003a37.67 37.67 0 0 0 8.132-12.143c1.891-4.533 2.838-9.404 2.838-14.337 0-4.927-.974-9.8-2.84-14.34-1.895-4.542-4.652-8.689-8.127-12.136l-.003-.003a37.674 37.674 0 0 0-12.143-8.132c-4.533-1.891-9.404-2.839-14.337-2.839-4.927 0-9.8.974-14.34 2.84z"
        fill="#45413C"
      />
      <path
        fillRule="evenodd"
        clipRule="evenodd"
        d="M134.477 52.502c0-17.755 14.395-32.15 32.15-32.15 17.754 0 32.15 14.395 32.15 32.15 0 17.754-14.396 32.15-32.15 32.15-17.755 0-32.15-14.396-32.15-32.15zm32.15-30.35c-16.761 0-30.35 13.59-30.35 30.35s13.589 30.35 30.35 30.35c16.76 0 30.35-13.59 30.35-30.35s-13.59-30.35-30.35-30.35z"
        fill="#45413C"
      />
      <defs>
        <clipPath id="w5woku1ppa">
          <path fill="#fff" transform="translate(141 32)" d="M0 0h51.8v41.8H0z" />
        </clipPath>
      </defs>
    </svg>