<?xml version="1.0" encoding="UTF-8"?>
<svg id="Layer_1" data-name="Layer 1" xmlns="http://www.w3.org/2000/svg" viewBox="0 0 48 48">
  <path d="M5.93,3.26h36.37c.21,0,.39.17.39.39v2.35c0,.21-.17.39-.39.39H5.93c-.21,0-.39-.17-.39-.39v-2.35c0-.21.17-.39.39-.39Z" fill="#c7dbff" stroke-width="0"/>
  <path d="M42.3,6.88H5.93c-.48,0-.87-.39-.87-.87v-2.35c0-.48.39-.87.87-.87h36.37c.48,0,.87.39.87.87v2.35c0,.48-.39.87-.87.87ZM6.03,5.91h36.17v-2.16H6.03v2.16Z" fill="#1d1e1e" stroke-width="0"/>
  <path d="M41.21,30.06c0,.36-.29.66-.66.66H7.68c-.36,0-.66-.29-.66-.66V6.39h34.19v23.67Z" fill="#fff" stroke-width="0"/>
  <path d="M40.56,31.21H7.68c-.63,0-1.14-.51-1.14-1.14V5.91h35.16v24.16c0,.63-.51,1.14-1.14,1.14ZM7.51,6.88v23.19c0,.09.08.17.17.17h32.88c.09,0,.17-.08.17-.17V6.88H7.51Z" fill="#1d1e1e" stroke-width="0"/>
  <rect x="23.63" y="30.72" width=".97" height="3.37" fill="#1d1e1e" stroke-width="0"/>
  <path d="M24.12,37.75c-1.14,0-2.08-.93-2.08-2.08s.93-2.08,2.08-2.08,2.08.93,2.08,2.08-.93,2.08-2.08,2.08ZM24.12,34.57c-.61,0-1.1.49-1.1,1.1s.49,1.1,1.1,1.1,1.1-.49,1.1-1.1-.49-1.1-1.1-1.1Z" fill="#1d1e1e" stroke-width="0"/>
  <path d="M19.47,12.41h-3.69c-.24,0-.44.2-.44.44h0v11.86h4.57v-11.86c0-.24-.2-.44-.44-.44,0,0,0,0,0,0Z" fill="#618fff" stroke-width="0"/>
  <path d="M20.4,25.19h-5.54v-12.35c0-.51.41-.92.92-.92h3.7c.51,0,.92.41.92.92v12.35ZM15.82,24.22h3.6v-11.33h-3.6v11.33Z" fill="#1d1e1e" stroke-width="0"/>
  <path d="M32.9,15.25c0-.24-.2-.44-.44-.44,0,0,0,0,0,0h-3.69c-.24,0-.44.2-.44.44h0v9.46h4.57v-9.46Z" fill="#618fff" stroke-width="0"/>
  <path d="M33.39,25.19h-5.54v-9.94c0-.51.41-.92.92-.92h3.69c.51,0,.93.41.93.92v9.94ZM28.81,24.22h3.6v-8.92h-3.6v8.92Z" fill="#1d1e1e" stroke-width="0"/>
  <rect x="13.17" y="24.22" width="21.89" height=".97" fill="#1d1e1e" stroke-width="0"/>
  <path d="M25.97,19.12h-3.69c-.24,0-.44.2-.44.44h0v5.15h4.57v-5.15c0-.24-.2-.44-.44-.44,0,0,0,0,0,0Z" fill="#c7dbff" stroke-width="0"/>
  <path d="M26.89,25.19h-5.54v-5.64c0-.51.41-.92.92-.92h3.7c.51,0,.92.41.92.92v5.64ZM22.32,24.22h3.6v-4.62h-3.6v4.62Z" fill="#1d1e1e" stroke-width="0"/>
  <rect x="7.28" y="6.88" width="33.93" height="1.58" fill="#e6edf8" stroke-width="0"/>
  <path d="M40.56,31.21H7.68c-.63,0-1.14-.51-1.14-1.14V5.91h35.16v24.16c0,.63-.51,1.14-1.14,1.14ZM7.51,6.88v23.19c0,.09.08.17.17.17h32.88c.09,0,.17-.08.17-.17V6.88H7.51Z" fill="#1d1e1e" stroke-width="0"/>
</svg>