<?xml version="1.0" encoding="UTF-8"?>
<svg id="Layer_1" data-name="Layer 1" xmlns="http://www.w3.org/2000/svg" viewBox="0 0 48 48">
  <rect x="3.99" y=".49" width="40.02" height="40.02" rx="4.56" ry="4.56" fill="#e6f1fa" stroke-width="0"/>
  <path d="M39.32,41H8.68c-2.86,0-5.18-2.32-5.18-5.18V5.18C3.5,2.32,5.82,0,8.68,0h30.64c2.86,0,5.18,2.32,5.18,5.18v30.64c0,2.86-2.32,5.18-5.18,5.18ZM8.68.98c-2.32,0-4.2,1.89-4.2,4.2v30.64c0,2.32,1.89,4.2,4.2,4.2h30.64c2.32,0,4.2-1.89,4.2-4.2V5.18c0-2.32-1.89-4.2-4.2-4.2H8.68Z" fill="#1d1e1e" stroke-width="0"/>
  <path d="M39.32,41H8.68c-2.86,0-5.18-2.32-5.18-5.18V5.18C3.5,2.32,5.82,0,8.68,0h30.64c2.86,0,5.18,2.32,5.18,5.18v30.64c0,2.86-2.32,5.18-5.18,5.18ZM8.68.98c-2.32,0-4.2,1.89-4.2,4.2v30.64c0,2.32,1.89,4.2,4.2,4.2h30.64c2.32,0,4.2-1.89,4.2-4.2V5.18c0-2.32-1.89-4.2-4.2-4.2H8.68Z" fill="#1d1e1e" stroke-width="0"/>
  <path d="M39.34.49H8.7c-2.58,0-4.69,2.11-4.69,4.69v4.22c0-2.58,2.11-4.69,4.69-4.69h30.64c2.58,0,4.69,2.11,4.69,4.69v-4.22c0-2.58-2.11-4.69-4.69-4.69Z" fill="#fff" stroke-width="0"/>
  <path d="M38.93,19.82c.01-5.85-3.4-11.17-8.73-13.59-7.49-3.4-16.32-.09-19.72,7.39-3.4,7.49-.09,16.32,7.39,19.72.45.2.98.02,1.22-.42l.68-1.25s.02-.05.03-.07c.21-.48,0-1.04-.49-1.26-2.91-1.3-5.18-3.71-6.29-6.69-2.29-6.14.84-12.97,6.97-15.26,6.14-2.29,12.97.84,15.26,6.97,2.29,6.14-.84,12.97-6.97,15.26,0,0,0,0,0,0-.28.11-.59-.03-.7-.31l-.39-1.02c-.04-.11-.12-.2-.23-.25-.23-.12-.52-.03-.64.2l-2.09,4.04s0,.01,0,.02c-.11.24-.01.52.23.63l4.46,2.11c.12.06.25.06.37.01.25-.09.37-.37.27-.61l-.37-.96c-.12-.31.03-.65.34-.77,5.69-2.27,9.42-7.78,9.4-13.91Z" fill="#009cde" stroke-width="0"/>
  <path d="M29.12,36.5c-.13,0-.25-.03-.37-.08l-4.46-2.11c-.21-.1-.37-.27-.45-.49-.08-.22-.07-.45.03-.66l2.1-4.07c.22-.42.74-.59,1.17-.37.19.1.33.26.41.46l.39,1.02c.03.07.11.11.19.08,5.94-2.21,8.96-8.83,6.75-14.76-2.21-5.93-8.82-8.95-14.75-6.74-2.87,1.07-5.15,3.19-6.43,5.98-1.27,2.79-1.39,5.9-.32,8.77,1.07,2.87,3.29,5.23,6.08,6.47.68.3.98,1.09.68,1.77-.02.04-.03.07-.05.1l-.68,1.24c-.33.61-1.09.87-1.72.59-7.68-3.49-11.08-12.57-7.59-20.24,3.49-7.67,12.57-11.08,20.24-7.59,5.45,2.48,8.97,7.95,8.96,13.94.02,6.33-3.77,11.93-9.65,14.27-.11.04-.16.16-.12.27l.37.96c.08.22.08.45-.02.66-.09.21-.26.37-.48.46-.1.04-.21.06-.31.06ZM26.76,29.4s-.06.02-.08.05l-2.09,4.04s-.01.05,0,.07c0,.02.02.04.04.05l4.46,2.11s.04.01.07,0c.03-.01.04-.03.05-.04,0-.01.01-.04,0-.06l-.37-.96c-.19-.5.06-1.08.56-1.28,5.58-2.22,9.17-7.54,9.16-13.55h0c.01-5.69-3.32-10.88-8.5-13.23-7.28-3.31-15.89-.08-19.2,7.2-3.31,7.28-.08,15.89,7.2,19.2.26.12.58,0,.72-.25l.7-1.29c.12-.28,0-.61-.29-.74-2.99-1.33-5.36-3.85-6.5-6.92-1.14-3.07-1.02-6.39.34-9.37,1.36-2.98,3.8-5.24,6.87-6.39,6.33-2.36,13.4.87,15.76,7.2,2.36,6.33-.87,13.4-7.2,15.76-.48.19-1.02-.05-1.2-.53l-.39-1.02s-.02-.04-.04-.04c-.01,0-.03,0-.04,0Z" fill="#1d1e1e" stroke-width="0"/>
  <path d="M39.32,41H8.68c-2.86,0-5.18-2.32-5.18-5.18V5.18C3.5,2.32,5.82,0,8.68,0h30.64c2.86,0,5.18,2.32,5.18,5.18v30.64c0,2.86-2.32,5.18-5.18,5.18ZM8.68.98c-2.32,0-4.2,1.89-4.2,4.2v30.64c0,2.32,1.89,4.2,4.2,4.2h30.64c2.32,0,4.2-1.89,4.2-4.2V5.18c0-2.32-1.89-4.2-4.2-4.2H8.68Z" fill="#1d1e1e" stroke-width="0"/>
</svg>