<?xml version="1.0" encoding="UTF-8"?>
<svg id="Layer_1" data-name="Layer 1" xmlns="http://www.w3.org/2000/svg" viewBox="0 0 48 48">
  <path d="M7.15,6.36h35.46v33.79H7.15V6.36Z" fill="#fff" stroke-width="0"/>
  <path d="M42.04,40.18H6.59c-.32,0-.57-.26-.57-.57V5.83c0-.32.26-.57.57-.57h35.46c.32,0,.57.26.57.57v33.79c0,.32-.26.57-.57.57ZM7.15,39.04h34.31V6.39H7.15v32.65Z" fill="#1d1e1e" stroke-width="0"/>
  <rect x="6.58" y="36.72" width="35.46" height="2.32" fill="#e6f1fa" stroke-width="0"/>
  <path d="M42.04,40.18H6.59c-.32,0-.57-.26-.57-.57V5.83c0-.32.26-.57.57-.57h35.46c.32,0,.57.26.57.57v33.79c0,.32-.26.57-.57.57ZM7.15,39.04h34.31V6.39H7.15v32.65Z" fill="#1d1e1e" stroke-width="0"/>
  <path d="M26.16,33.91c0,1.4.28,2.78.82,4.08.54,1.29,1.32,2.47,2.31,3.46.98.99,2.17,1.77,3.46,2.31s2.67.82,4.08.82,2.78-.28,4.08-.82c1.29-.54,2.47-1.32,3.46-2.31.99-.98,1.77-2.17,2.31-3.46.54-1.29.82-2.67.82-4.08s-.28-2.78-.82-4.08c-.54-1.29-1.32-2.47-2.31-3.46-.99-.99-2.17-1.77-3.46-2.31-1.29-.54-2.67-.82-4.08-.82s-2.78.28-4.08.82c-1.29.54-2.47,1.32-3.46,2.31-.99.99-1.77,2.17-2.31,3.46-.54,1.29-.82,2.67-.82,4.08h0Z" fill="#e6f1fa" stroke-width="0"/>
  <path d="M26.35,35.97c-.3-1.54-.26-3.13.12-4.65.39-1.52,1.1-2.94,2.1-4.16.99-1.21,2.25-2.2,3.67-2.86,1.42-.68,2.97-1.02,4.54-1.03,1.57,0,3.12.34,4.54,1s2.68,1.64,3.69,2.84c1,1.21,1.73,2.62,2.12,4.15.39,1.52.45,3.11.15,4.65-.48-2.43-1.78-4.61-3.7-6.18-1.91-1.57-4.32-2.43-6.78-2.42-2.48,0-4.87.87-6.77,2.46-1.9,1.58-3.2,3.78-3.66,6.2" fill="#fff" stroke-width="0"/>
  <path d="M36.81,45.1c-1.47,0-2.91-.29-4.29-.86-1.36-.57-2.59-1.38-3.63-2.43-1.04-1.04-1.86-2.27-2.43-3.63-.57-1.36-.86-2.8-.86-4.29s.29-2.91.86-4.29c.57-1.36,1.38-2.59,2.43-3.63,1.04-1.04,2.27-1.86,3.63-2.43,2.72-1.13,5.84-1.13,8.56,0,1.36.57,2.59,1.38,3.63,2.43,1.04,1.04,1.86,2.27,2.43,3.63.57,1.36.86,2.8.86,4.29s-.29,2.91-.86,4.29c-.57,1.36-1.38,2.59-2.43,3.63-1.04,1.04-2.27,1.86-3.63,2.43-1.36.57-2.8.86-4.29.86h0ZM36.81,23.79c-1.33,0-2.63.26-3.88.78-1.23.51-2.34,1.25-3.28,2.2-.94.94-1.68,2.05-2.2,3.28-.51,1.23-.78,2.54-.78,3.88s.26,2.63.78,3.88c.51,1.23,1.25,2.34,2.2,3.28.94.94,2.05,1.68,3.28,2.2,2.47,1.02,5.28,1.02,7.75,0,1.23-.51,2.34-1.25,3.28-2.2.94-.94,1.68-2.05,2.2-3.28.51-1.23.78-2.54.78-3.88s-.26-2.64-.78-3.88c-.51-1.23-1.25-2.34-2.2-3.28-.94-.94-2.05-1.68-3.28-2.2-1.23-.51-2.54-.78-3.88-.78h0Z" fill="#1d1e1e" stroke-width="0"/>
  <path d="M41.76,29.15c.11.11.2.24.26.39.06.14.09.3.09.46v4.68c0,.16-.03.31-.09.46-.06.14-.15.28-.26.39-.11.11-.24.2-.39.26-.14.06-.3.09-.46.09s-.31-.03-.46-.09c-.14-.06-.28-.15-.39-.26-.11-.11-.2-.24-.26-.39-.06-.14-.09-.3-.09-.46v-1.49l-5.68,5.68c-.27.27-.63.42-1,.42s-.74-.15-1-.42-.42-.63-.42-1,.15-.74.42-1l5.68-5.68h-1.49c-.31,0-.62-.13-.84-.35-.22-.22-.35-.52-.35-.84s.12-.62.35-.84c.22-.22.52-.35.84-.35h4.68c.16,0,.31.03.46.09.14.06.28.15.39.26h0Z" fill="#009cde" stroke-width="0"/>
  <path d="M33.06,39.81c-.52,0-1.01-.2-1.38-.58-.37-.37-.58-.86-.58-1.38s.21-1.01.58-1.38l4.76-4.76h-.21c-.46,0-.88-.18-1.21-.51s-.5-.76-.5-1.21.18-.88.5-1.21.75-.51,1.21-.51h4.68c.23,0,.45.04.66.13.21.09.4.21.56.38.16.16.29.35.38.56.09.21.13.43.13.66v4.68c0,.22-.04.45-.13.66-.09.21-.21.4-.37.56-.16.16-.35.29-.56.38-.42.18-.89.18-1.31,0-.21-.09-.4-.21-.56-.38s-.29-.36-.38-.56c-.09-.21-.13-.44-.13-.66v-.21l-4.76,4.76c-.37.37-.87.58-1.38.58h0ZM37.73,30.64h1.28l-6.58,6.58c-.17.17-.26.4-.26.63s.09.46.26.63c.34.33.92.33,1.25,0l6.58-6.58v2.78c0,.09.02.17.05.25.03.08.08.15.14.21s.13.11.21.14c.16.07.34.07.5,0,.08-.03.15-.08.21-.14s.11-.13.14-.21c.03-.08.05-.17.05-.25v-4.68c0-.09-.02-.17-.05-.25-.03-.08-.08-.15-.14-.21h0c-.06-.06-.13-.11-.21-.14-.08-.03-.16-.05-.25-.05h-4.68c-.17,0-.34.07-.46.19-.12.12-.19.29-.19.46s.07.34.19.46c.12.12.29.19.46.19h1.5Z" fill="#1d1e1e" stroke-width="0"/>
  <rect x="11.86" y="1.18" width="3.06" height="7.75" rx="1.53" ry="1.53" fill="#009cde" stroke-width="0"/>
  <path d="M13.38,1.19c-.21,0-.41.04-.6.12-.19.08-.36.2-.51.34-.15.15-.26.32-.34.52-.08.19-.12.4-.12.61v2.63c0-.21.03-.42.11-.62s.19-.38.34-.53c.15-.15.32-.27.52-.36.19-.08.4-.12.61-.12s.42.04.61.12.37.2.52.36c.15.15.26.33.34.53s.11.41.11.62v-2.63c0-.21-.04-.42-.12-.61-.08-.19-.19-.37-.34-.52-.15-.15-.32-.26-.51-.35-.19-.08-.39-.12-.6-.12h-.02Z" fill="#71c5e8" stroke-width="0"/>
  <path d="M13.39,9.41c-1.11,0-2.01-.9-2.01-2.01V2.71c0-1.11.9-2.01,2.01-2.01s2.01.9,2.01,2.01v4.69c0,1.11-.9,2.01-2.01,2.01ZM13.39,1.66c-.58,0-1.05.47-1.05,1.05v4.69c0,.58.47,1.05,1.05,1.05s1.05-.47,1.05-1.05V2.71c0-.58-.47-1.05-1.05-1.05Z" fill="#1d1e1e" stroke-width="0"/>
  <rect x="19.19" y="1.18" width="3.06" height="7.75" rx="1.53" ry="1.53" fill="#009cde" stroke-width="0"/>
  <path d="M20.71,1.19c-.21,0-.41.04-.6.12-.19.08-.36.2-.51.34-.15.15-.26.32-.34.52-.08.19-.12.4-.12.61v2.63c0-.21.03-.42.11-.62s.19-.38.34-.53c.15-.15.32-.27.52-.36.19-.08.4-.12.61-.12s.42.04.61.12.37.2.52.36c.15.15.26.33.34.53s.11.41.11.62v-2.63c0-.21-.04-.42-.12-.61-.08-.19-.19-.37-.34-.52-.15-.15-.32-.26-.51-.35-.19-.08-.39-.12-.6-.12h-.02Z" fill="#71c5e8" stroke-width="0"/>
  <path d="M20.72,9.41c-1.11,0-2.01-.9-2.01-2.01V2.71c0-1.11.9-2.01,2.01-2.01s2.01.9,2.01,2.01v4.69c0,1.11-.9,2.01-2.01,2.01ZM20.72,1.66c-.58,0-1.05.47-1.05,1.05v4.69c0,.58.47,1.05,1.05,1.05s1.05-.47,1.05-1.05V2.71c0-.58-.47-1.05-1.05-1.05Z" fill="#1d1e1e" stroke-width="0"/>
  <rect x="26.46" y="1.18" width="3.06" height="7.75" rx="1.53" ry="1.53" fill="#009cde" stroke-width="0"/>
  <path d="M27.99,1.19c-.21,0-.41.04-.6.12-.19.08-.36.2-.51.34-.15.15-.26.32-.34.52-.08.19-.12.4-.12.61v2.63c0-.21.03-.42.11-.62s.19-.38.34-.53c.15-.15.32-.27.52-.36.19-.08.4-.12.61-.12s.42.04.61.12.37.2.52.36c.15.15.26.33.34.53s.11.41.11.62v-2.63c0-.21-.04-.42-.12-.61-.08-.19-.19-.37-.34-.52-.15-.15-.32-.26-.51-.35-.19-.08-.39-.12-.6-.12h-.02Z" fill="#71c5e8" stroke-width="0"/>
  <path d="M28,9.41c-1.11,0-2.01-.9-2.01-2.01V2.71c0-1.11.9-2.01,2.01-2.01s2.01.9,2.01,2.01v4.69c0,1.11-.9,2.01-2.01,2.01ZM28,1.66c-.58,0-1.05.47-1.05,1.05v4.69c0,.58.47,1.05,1.05,1.05s1.05-.47,1.05-1.05V2.71c0-.58-.47-1.05-1.05-1.05Z" fill="#1d1e1e" stroke-width="0"/>
  <rect x="33.71" y="1.18" width="3.06" height="7.75" rx="1.53" ry="1.53" fill="#009cde" stroke-width="0"/>
  <path d="M35.23,1.19c-.21,0-.41.04-.6.12-.19.08-.36.2-.51.34-.15.15-.26.32-.34.52-.08.19-.12.4-.12.61v2.63c0-.21.03-.42.11-.62s.19-.38.34-.53c.15-.15.32-.27.52-.36.19-.08.4-.12.61-.12s.42.04.61.12.37.2.52.36c.15.15.26.33.34.53s.11.41.11.62v-2.63c0-.21-.04-.42-.12-.61-.08-.19-.19-.37-.34-.52-.15-.15-.32-.26-.51-.35-.19-.08-.39-.12-.6-.12h-.02Z" fill="#71c5e8" stroke-width="0"/>
  <path d="M35.24,9.41c-1.11,0-2.01-.9-2.01-2.01V2.71c0-1.11.9-2.01,2.01-2.01s2.01.9,2.01,2.01v4.69c0,1.11-.9,2.01-2.01,2.01ZM35.24,1.66c-.58,0-1.05.47-1.05,1.05v4.69c0,.58.47,1.05,1.05,1.05s1.05-.47,1.05-1.05V2.71c0-.58-.47-1.05-1.05-1.05Z" fill="#1d1e1e" stroke-width="0"/>
</svg>