<svg width="242" height="242" viewBox="0 0 242 242" fill="none" xmlns="http://www.w3.org/2000/svg">
    <g clip-path="url(#o6sm5ms68a)">
        <path d="M1.438 120.999a119.613 119.613 0 0 0 27.054 75.762 119.091 119.091 0 0 0 68.859 41.36 118.884 118.884 0 0 0 79.402-11.82c24.306-13.028 43.354-34.103 53.899-59.632a119.714 119.714 0 0 0 3.928-80.374 119.41 119.41 0 0 0-47.827-64.628 118.912 118.912 0 0 0-77.869-19.543 119.017 119.017 0 0 0-72.561 34.414A119.452 119.452 0 0 0 10.5 75.29a119.69 119.69 0 0 0-9.063 45.709z" fill="#F5F7FC"/>
        <path d="M120.999 242c-32.006-.02-62.696-12.774-85.327-35.462C13.04 183.85.317 153.085.297 121c.02-32.085 12.743-62.85 35.375-85.538C58.303 12.774 88.992.02 120.999 0c32.006.02 62.696 12.774 85.328 35.462C228.958 58.15 241.681 88.915 241.701 121c-.02 32.085-12.743 62.85-35.374 85.538-22.632 22.688-53.322 35.442-85.328 35.462zm0-238.865A117.369 117.369 0 0 0 55.679 23a117.803 117.803 0 0 0-43.302 52.895 118.134 118.134 0 0 0-6.69 68.098 117.948 117.948 0 0 0 32.176 60.348A117.558 117.558 0 0 0 76.016 230.2a117.316 117.316 0 0 0 90.325.282 117.564 117.564 0 0 0 38.313-25.62 117.887 117.887 0 0 0 25.557-38.408 118.1 118.1 0 0 0 8.879-45.302 118.111 118.111 0 0 0-9.16-45.246 117.871 117.871 0 0 0-25.795-38.248 116.846 116.846 0 0 0-38.12-25.604 116.619 116.619 0 0 0-45.016-8.919z" fill="#E6EDF8"/>
        <path opacity=".16" d="M76 222.578c0 .951 4.702 1.87 13.059 2.546 8.356.677 19.708 1.032 31.523 1.032 11.816 0 23.167-.387 31.449-1.048 8.281-.66 13.059-1.611 13.059-2.546 0-.934-4.703-1.869-13.059-2.545-8.356-.677-19.693-1.064-31.449-1.064s-23.167.387-31.523 1.064c-8.357.676-13.059 1.611-13.059 2.545v.016z" fill="#45413C"/>
        <path d="M1 120.519a119.498 119.498 0 0 0 175.847 105.362A119.503 119.503 0 0 0 234.85 85.796 119.502 119.502 0 0 0 35.991 36.011 119.5 119.5 0 0 0 1 120.519z" fill="#F5F7FC"/>
        <path d="M121 242A121.074 121.074 0 0 1 0 121 121.075 121.075 0 0 1 121 0a121.075 121.075 0 0 1 121 121 121.075 121.075 0 0 1-121 121zm0-238.865a117.865 117.865 0 0 0-83.341 201.206 117.863 117.863 0 0 0 201.724-83.189 117.855 117.855 0 0 0-35.042-83.494A117.156 117.156 0 0 0 121 3.135z" fill="#E6EDF8"/>
        <path opacity=".16" d="M77 224.578c0 .951 4.702 1.87 13.059 2.546 8.356.677 19.708 1.032 31.523 1.032 11.816 0 23.167-.387 31.449-1.048 8.281-.66 13.059-1.611 13.059-2.546 0-.934-4.703-1.869-13.059-2.545-8.356-.677-19.693-1.064-31.449-1.064s-23.167.387-31.523 1.064c-8.357.676-13.059 1.611-13.059 2.545v.016z" fill="#45413C"/>
        <path d="M228.594 64.15a11.262 11.262 0 0 0-3.274-7.895 10.947 10.947 0 0 0-3.581-2.417 10.886 10.886 0 0 0-4.232-.838H25.755c-2.96 0-5.799 1.183-7.892 3.288a11.257 11.257 0 0 0-3.27 7.937V181h214.001V64.15z" fill="#C3CFE1"/>
        <path d="M172.601 53H25.763c-2.962 0-5.803 1.18-7.898 3.28a11.21 11.21 0 0 0-3.271 7.917v116.558L172.6 53z" fill="#DCE5F2"/>
        <path d="M25 64h194v113H25V64z" fill="#6483CF"/>
        <path fill-rule="evenodd" clip-rule="evenodd" d="M13.594 177h2.6V64a9.4 9.4 0 0 1 9.4-9.4h192a9.4 9.4 0 0 1 9.4 9.4v113h2.6V64c0-6.627-5.373-12-12-12h-192c-6.628 0-12 5.373-12 12v113z" fill="#45413C"/>
        <path fill-rule="evenodd" clip-rule="evenodd" d="M23.594 178h2.6V64.6h190.8V178h2.6V64a2 2 0 0 0-2-2h-192a2 2 0 0 0-2 2v114z" fill="#45413C"/>
        <path d="M234.965 177.727H7.097a4.98 4.98 0 0 0-2.128.47 5.461 5.461 0 0 0-1.794 1.353c-1.001 1.1-1.589 2.581-1.644 4.143v6.034h239v-6.034c-.055-1.562-.642-3.043-1.643-4.143a5.544 5.544 0 0 0-1.797-1.347 5.052 5.052 0 0 0-2.126-.476z" fill="#BAC8DC"/>
        <path d="M241.158 190.266H2.039c1.808 3.128 4.563 5.734 7.948 7.517 3.384 1.782 7.26 2.668 11.182 2.556h200.934c3.907.113 7.768-.774 11.135-2.557 3.367-1.784 6.101-4.39 7.883-7.516h.037z" fill="#EAEEF7"/>
        <path fill-rule="evenodd" clip-rule="evenodd" d="M233.902 176a8.509 8.509 0 0 1 3.04.566 8.127 8.127 0 0 1 2.603 1.619c1.469 1.345 2.368 3.19 2.453 5.179l.002.108v4.962a2.577 2.577 0 0 1-2.587 2.566H2.587A2.577 2.577 0 0 1 0 188.434v-4.962c0-.036 0-.072.002-.108.085-1.986.982-3.829 2.447-5.173a8.045 8.045 0 0 1 2.607-1.63 8.408 8.408 0 0 1 3.05-.561h225.796zM4.216 180.065c-.992.905-1.574 2.123-1.629 3.407v4.962h236.826v-4.962c-.055-1.284-.637-2.502-1.629-3.407a5.51 5.51 0 0 0-1.78-1.107 5.867 5.867 0 0 0-2.106-.392H8.102a5.81 5.81 0 0 0-2.108.386 5.452 5.452 0 0 0-1.778 1.113z" fill="#45413C"/>
        <path fill-rule="evenodd" clip-rule="evenodd" d="M.938 188.873c.617-.346 1.41-.147 1.771.443 1.676 2.741 4.243 5.044 7.425 6.627 3.181 1.583 6.837 2.375 10.542 2.275h200.917c3.689.101 7.329-.691 10.492-2.275 3.163-1.583 5.708-3.885 7.359-6.62.231-.384.658-.62 1.121-.62h.037c.715 0 1.295.555 1.295 1.238 0 .328-.134.627-.351.848-1.914 3.067-4.778 5.606-8.26 7.348-3.562 1.783-7.635 2.666-11.748 2.557H20.731c-4.127.108-8.214-.774-11.793-2.555-3.584-1.783-6.525-4.403-8.464-7.573-.36-.59-.153-1.348.464-1.693z" fill="#45413C"/>
    </g>
    <defs>
        <clipPath id="o6sm5ms68a">
            <path fill="#fff" d="M0 0h242v242H0z"/>
        </clipPath>
    </defs>
</svg>
