<svg width="20" height="22" viewBox="0 0 20 22" fill="none" xmlns="http://www.w3.org/2000/svg">
    <path fill-rule="evenodd" clip-rule="evenodd" d="M14 6.592V0h-1.853v6.545c0 1.39-.716 2.086-2.147 2.086-.706 0-1.24-.173-1.603-.521-.363-.348-.544-.852-.544-1.511V0H6v6.585c0 1.07.36 1.909 1.08 2.514.721.6 1.695.901 2.92.901 1.21 0 2.179-.305 2.904-.915C13.634 8.471 14 7.64 14 6.592zM0 14v-1h20v1H0zm20 3h-4.5v1H20v-1zm-7.5 1v-1h-5v1h5zm-8-1H0v1h4.5v-1zm12.718 4h-1.324v1h1.324v-1zm-2.649 0h-1.324v1h1.325v-1zm-2.649 0h-1.324v1h1.325v-1zm-2.648 0H7.947v1h1.325v-1zm-2.65 0H5.299v1h1.325v-1zm-2.648 0H2.649v1h1.325v-1zm-2.65 0H0v1h1.325v-1zM20 21h-1.325v1H20v-1z" fill="#1E1E1E"/>
</svg>
