<?xml version="1.0" encoding="UTF-8"?>
<svg id="Layer_1" data-name="Layer 1" xmlns="http://www.w3.org/2000/svg" viewBox="0 0 48 48">
  <path d="M35.98,20.06l-3.62,3.54c-3.18,3.06-8.24,2.96-11.29-.23-3.02-3.14-2.96-8.13.13-11.2l3.62-3.54c3.16-3.08,8.21-3.02,11.3.13,3.08,3.16,3.02,8.21-.13,11.3h0ZM23.67,14.71c-1.73,1.73-1.73,4.54,0,6.28,1.7,1.71,4.46,1.74,6.2.07l3.62-3.54c1.77-1.69,1.84-4.5.14-6.27-1.69-1.77-4.5-1.84-6.27-.14-.02.02-.05.05-.07.07l-3.62,3.54Z" fill="none" stroke-width="0"/>
  <path d="M26.83,26.31c-.06,0-.12,0-.17,0-2.26-.05-4.37-.97-5.94-2.6-3.18-3.31-3.12-8.64.14-11.88l3.62-3.54c3.34-3.26,8.71-3.2,11.98.14,1.58,1.62,2.44,3.76,2.41,6.02-.03,2.26-.93,4.38-2.55,5.96h0l-3.62,3.54c-1.59,1.53-3.67,2.37-5.87,2.37ZM30.39,6.84c-1.97,0-3.83.76-5.24,2.14l-3.62,3.54c-2.88,2.87-2.94,7.59-.12,10.52,1.39,1.45,3.26,2.26,5.26,2.3,2,.04,3.9-.7,5.35-2.09l3.62-3.53c1.43-1.4,2.24-3.28,2.26-5.28.02-2-.74-3.9-2.14-5.33-1.4-1.43-3.28-2.24-5.28-2.26-.03,0-.06,0-.09,0ZM26.81,22.76c-1.27,0-2.53-.48-3.48-1.43-1.92-1.92-1.92-5.04,0-6.96h0s3.7-3.62,3.7-3.62c.95-.91,2.2-1.39,3.51-1.36,1.31.03,2.54.57,3.45,1.52,1.87,1.96,1.8,5.08-.16,6.96l-3.62,3.53c-.95.9-2.18,1.35-3.4,1.35ZM24.01,15.05c-1.54,1.54-1.54,4.05,0,5.59,1.51,1.51,3.99,1.54,5.53.06l3.62-3.53c1.58-1.51,1.64-4.02.13-5.59-.73-.76-1.71-1.2-2.77-1.22-1.07-.03-2.06.36-2.82,1.09l-.07.06-3.62,3.54Z" fill="#1d1e1e" stroke-width="0"/>
  <path d="M27.08,28.56l-3.9,3.81c-3.16,3.08-8.21,3.02-11.3-.13-3.08-3.16-3.02-8.21.13-11.3l3.9-3.81c3.18-3.06,8.24-2.96,11.29.23,3.02,3.14,2.96,8.13-.13,11.2ZM14.5,23.48c-1.73,1.73-1.73,4.54,0,6.28,1.7,1.71,4.46,1.74,6.2.07l3.9-3.81c1.73-1.73,1.73-4.54,0-6.28-1.7-1.71-4.46-1.74-6.2-.07l-3.9,3.81Z" fill="#fff" stroke-width="0"/>
  <path d="M27.08,28.56l-3.9,3.81c-3.16,3.08-8.21,3.02-11.3-.13-3.08-3.16-3.02-8.21.13-11.3l3.9-3.81c3.18-3.06,8.24-2.96,11.29.23,3.02,3.14,2.96,8.13-.13,11.2ZM14.5,23.48c-1.73,1.73-1.73,4.54,0,6.28,1.7,1.71,4.46,1.74,6.2.07l3.9-3.81c1.73-1.73,1.73-4.54,0-6.28-1.7-1.71-4.46-1.74-6.2-.07l-3.9,3.81Z" fill="#009cde" stroke-width="0"/>
  <path d="M17.61,35.12s-.07,0-.1,0c-2.26-.03-4.38-.93-5.96-2.55-1.58-1.62-2.44-3.76-2.41-6.02.03-2.26.93-4.38,2.55-5.96l3.9-3.81c3.37-3.24,8.75-3.13,11.98.24,3.18,3.31,3.12,8.64-.14,11.88h0s-3.9,3.81-3.9,3.81c-1.59,1.56-3.69,2.41-5.92,2.41ZM21.45,15.39c-1.87,0-3.74.69-5.2,2.09l-3.89,3.8c-1.43,1.4-2.24,3.28-2.26,5.28-.02,2,.74,3.9,2.14,5.33,1.4,1.43,3.28,2.24,5.28,2.26,2,.02,3.9-.74,5.33-2.14l3.9-3.81c2.88-2.87,2.94-7.59.12-10.52-1.47-1.53-3.44-2.3-5.41-2.3ZM17.64,31.52c-1.27,0-2.53-.48-3.48-1.43-.93-.93-1.44-2.17-1.44-3.48,0-1.31.51-2.55,1.44-3.48h0s3.9-3.81,3.9-3.81c1.92-1.84,5.01-1.8,6.88.08.93.93,1.44,2.17,1.44,3.48,0,1.31-.51,2.55-1.44,3.48l-3.9,3.81c-.95.9-2.18,1.35-3.4,1.35ZM14.84,23.82c-.75.75-1.16,1.74-1.16,2.79,0,1.06.41,2.05,1.16,2.8,1.51,1.51,3.99,1.54,5.53.06l3.89-3.8c.74-.74,1.15-1.74,1.16-2.79,0-1.06-.41-2.05-1.16-2.8-1.51-1.51-3.99-1.54-5.53-.06l-3.89,3.8Z" fill="#1d1e1e" stroke-width="0"/>
  <path d="M26.93,17.61c-3.08-3.16-8.14-3.21-11.3-.13l-3.62,3.54c3.16-3.08,9.18-6.03,13.45-2.57,4.15,3.37,1.32,10.13-1.5,13.23l2.84-2.77c3.16-3.08,3.21-8.14.13-11.3Z" fill="#71c5e8" stroke-width="0"/>
  <path d="M17.61,35.12s-.07,0-.1,0c-2.26-.03-4.38-.93-5.96-2.55-1.58-1.62-2.44-3.76-2.41-6.02.03-2.26.93-4.38,2.55-5.96l3.9-3.81c3.37-3.24,8.75-3.13,11.98.24,3.18,3.31,3.12,8.64-.14,11.88h0s-3.9,3.81-3.9,3.81c-1.59,1.56-3.69,2.41-5.92,2.41ZM21.45,15.39c-1.87,0-3.74.69-5.2,2.09l-3.89,3.8c-1.43,1.4-2.24,3.28-2.26,5.28-.02,2,.74,3.9,2.14,5.33,1.4,1.43,3.28,2.24,5.28,2.26,2,.02,3.9-.74,5.33-2.14l3.9-3.81c2.88-2.87,2.94-7.59.12-10.52-1.47-1.53-3.44-2.3-5.41-2.3ZM17.64,31.52c-1.27,0-2.53-.48-3.48-1.43-.93-.93-1.44-2.17-1.44-3.48,0-1.31.51-2.55,1.44-3.48h0s3.9-3.81,3.9-3.81c1.92-1.84,5.01-1.8,6.88.08.93.93,1.44,2.17,1.44,3.48,0,1.31-.51,2.55-1.44,3.48l-3.9,3.81c-.95.9-2.18,1.35-3.4,1.35ZM14.84,23.82c-.75.75-1.16,1.74-1.16,2.79,0,1.06.41,2.05,1.16,2.8,1.51,1.51,3.99,1.54,5.53.06l3.89-3.8c.74-.74,1.15-1.74,1.16-2.79,0-1.06-.41-2.05-1.16-2.8-1.51-1.51-3.99-1.54-5.53-.06l-3.89,3.8Z" fill="#1d1e1e" stroke-width="0"/>
  <path d="M23.68,14.71c-1.75,1.71-1.79,4.52-.08,6.27.62.64,1.42,1.07,2.29,1.25.17,1.22-.18,2.46-.96,3.42-4.29-1.01-6.95-5.32-5.93-9.61.35-1.47,1.11-2.82,2.19-3.88" fill="#f2f8fc" stroke-width="0"/>
  <path d="M25.12,26.19l-.29-.07c-2.2-.52-4.07-1.87-5.26-3.79-1.19-1.92-1.56-4.2-1.04-6.4.37-1.57,1.17-2.99,2.32-4.11l.68.69c-1.02.99-1.73,2.25-2.06,3.64-.46,1.95-.13,3.96.92,5.67,1,1.62,2.54,2.77,4.35,3.28.5-.73.75-1.6.7-2.48-.83-.23-1.59-.68-2.19-1.3-.92-.94-1.41-2.18-1.4-3.5.02-1.31.54-2.54,1.48-3.46l.54-.52.68.69-.54.52c-.76.74-1.18,1.72-1.19,2.78-.01,1.06.39,2.05,1.12,2.81.56.57,1.26.95,2.04,1.11l.34.07.05.34c.19,1.35-.2,2.74-1.06,3.8l-.19.23Z" fill="#1d1e1e" stroke-width="0"/>
</svg>