<?xml version="1.0" encoding="UTF-8"?>
<svg id="Layer_1" data-name="Layer 1" xmlns="http://www.w3.org/2000/svg" viewBox="0 0 48 48">
  <rect x="4.03" y=".49" width="39.98" height="39.98" rx="5.29" ry="5.29" fill="#f1eaf3" stroke-width="0"/>
  <path d="M39.32,40.96H8.72c-2.85,0-5.18-2.32-5.18-5.18V5.18C3.54,2.32,5.86,0,8.72,0h30.61c2.85,0,5.18,2.32,5.18,5.18v30.61c0,2.85-2.32,5.18-5.18,5.18ZM8.72.98c-2.32,0-4.2,1.88-4.2,4.2v30.61c0,2.32,1.88,4.2,4.2,4.2h30.61c2.32,0,4.2-1.88,4.2-4.2V5.18c0-2.32-1.88-4.2-4.2-4.2H8.72Z" fill="#1d1e1e" stroke-width="0"/>
  <path d="M39.32.49H8.72c-2.58,0-4.69,2.11-4.69,4.69v4.17c0-2.58,2.11-4.69,4.69-4.69h30.61c2.58,0,4.69,2.11,4.69,4.69v-4.17c0-2.58-2.11-4.69-4.69-4.69Z" fill="#fff" stroke-width="0"/>
  <path d="M39.32,40.96H8.72c-2.85,0-5.18-2.32-5.18-5.18V5.18C3.54,2.32,5.86,0,8.72,0h30.61c2.85,0,5.18,2.32,5.18,5.18v30.61c0,2.85-2.32,5.18-5.18,5.18ZM8.72.98c-2.32,0-4.2,1.88-4.2,4.2v30.61c0,2.32,1.88,4.2,4.2,4.2h30.61c2.32,0,4.2-1.88,4.2-4.2V5.18c0-2.32-1.88-4.2-4.2-4.2H8.72Z" fill="#1d1e1e" stroke-width="0"/>
  <path d="M39.28,40.96H8.68c-2.85,0-5.18-2.32-5.18-5.18V5.18C3.5,2.32,5.82,0,8.68,0h30.61c2.85,0,5.18,2.32,5.18,5.18v30.61c0,2.85-2.32,5.18-5.18,5.18ZM8.68.98c-2.32,0-4.2,1.88-4.2,4.2v30.61c0,2.32,1.88,4.2,4.2,4.2h30.61c2.32,0,4.2-1.88,4.2-4.2V5.18c0-2.32-1.88-4.2-4.2-4.2H8.68Z" fill="#1d1e1e" stroke-width="0"/>
  <path d="M39.28,40.96H8.68c-2.85,0-5.18-2.32-5.18-5.18V5.18C3.5,2.32,5.82,0,8.68,0h30.61c2.85,0,5.18,2.32,5.18,5.18v30.61c0,2.85-2.32,5.18-5.18,5.18ZM8.68.98c-2.32,0-4.2,1.88-4.2,4.2v30.61c0,2.32,1.88,4.2,4.2,4.2h30.61c2.32,0,4.2-1.88,4.2-4.2V5.18c0-2.32-1.88-4.2-4.2-4.2H8.68Z" fill="#1d1e1e" stroke-width="0"/>
  <path d="M39.3,40.97H8.7c-2.85,0-5.18-2.32-5.18-5.18V5.18C3.52,2.33,5.84,0,8.7,0h30.61c2.85,0,5.18,2.32,5.18,5.18v30.61c0,2.85-2.32,5.18-5.18,5.18ZM8.7.98c-2.32,0-4.2,1.88-4.2,4.2v30.61c0,2.32,1.88,4.2,4.2,4.2h30.61c2.32,0,4.2-1.88,4.2-4.2V5.18c0-2.32-1.88-4.2-4.2-4.2H8.7Z" fill="#1d1e1e" stroke-width="0"/>
  <path d="M32.71,29.41H14.85V11.55h17.86v17.86ZM15.78,28.49h16.01V12.48H15.78v16.01Z" fill="#1d1e1e" stroke-width="0"/>
  <path d="M24.92,25.13c-.31,0-.63-.06-.91-.18-.29-.12-.54-.29-.77-.51l-4.74-4.74c-.43-.44-.68-1.05-.67-1.67,0-.63.25-1.22.7-1.66.44-.44,1.04-.69,1.66-.7.63,0,1.22.23,1.67.67l3.07,3.07,9.67-9.67c.45-.41,1.04-.64,1.66-.62s1.19.26,1.62.7c.43.43.68,1.02.7,1.62.01.62-.21,1.2-.63,1.66l-11.34,11.34c-.22.22-.48.39-.77.51-.29.12-.6.18-.91.18h0Z" fill="#702f8a" stroke-width="0"/>
  <path d="M24.92,25.59c-.37,0-.74-.07-1.08-.21s-.66-.35-.92-.62l-4.74-4.74c-.52-.54-.81-1.25-.8-2,0-.75.3-1.45.83-1.98.53-.52,1.23-.83,1.98-.83h.03c.74,0,1.43.28,1.97.8l2.75,2.75,9.35-9.35c.56-.5,1.27-.78,2-.76.74.02,1.42.31,1.94.83.51.51.82,1.21.83,1.95.02.74-.25,1.43-.75,1.98l-11.35,11.35c-.26.26-.58.47-.92.62-.34.14-.71.21-1.08.21h-.02ZM24.92,24.66h0c.25,0,.49-.05.73-.14.23-.1.44-.23.62-.41l11.34-11.34c.32-.35.49-.83.48-1.32-.01-.49-.21-.96-.56-1.31-.35-.35-.82-.54-1.31-.57-.49,0-.97.16-1.33.49l-9.65,9.66c-.09.09-.2.13-.32.13h0c-.12,0-.24-.05-.32-.13l-3.07-3.07c-.35-.34-.81-.52-1.34-.52-.5,0-.98.2-1.33.56-.35.35-.56.83-.56,1.33s.18.98.53,1.34l4.74,4.74c.18.18.38.32.62.41.23.1.47.14.73.14h0Z" fill="#1d1e1e" stroke-width="0"/>
</svg>