<?xml version="1.0" encoding="UTF-8"?>
<svg id="Layer_1" data-name="Layer 1" xmlns="http://www.w3.org/2000/svg" viewBox="0 0 48 48">
  <path d="M42.5,8.42H5.26c-.74,0-1.34.6-1.34,1.34v24.01h39.93V9.76c0-.74-.6-1.34-1.34-1.34h-.01Z" fill="#fff" stroke-width="0"/>
  <path d="M43.85,34.28H3.91c-.28,0-.51-.23-.51-.51V9.76c0-1.02.83-1.85,1.85-1.85h37.25c1.02,0,1.85.83,1.85,1.85v24.01c0,.28-.23.51-.51.51h.01ZM4.42,33.26h38.92V9.76c0-.46-.37-.83-.84-.83H5.26c-.46,0-.84.37-.84.83v23.5Z" fill="#1d1e1e" stroke-width="0"/>
  <path d="M41.03,11.24H6.77l-.04,22.53h34.3V11.24Z" fill="#f1eaf3" stroke-width="0"/>
  <path d="M32.53,11.24l-24.19,22.53h-1.61l.04-22.53h25.76Z" fill="#fff" stroke-width="0"/>
  <path d="M41.03,34.28H6.73c-.14,0-.26-.05-.36-.15s-.15-.23-.15-.36l.04-22.53c0-.28.23-.51.51-.51h34.26c.28,0,.51.23.51.51v22.53c0,.28-.23.51-.51.51ZM7.24,33.26h33.28V11.74H7.28l-.04,21.52Z" fill="#1d1e1e" stroke-width="0"/>
  <path d="M47.37,36.59H.39v-2.15c0-.37.3-.67.67-.67h45.64c.37,0,.67.3.67.67v2.15Z" fill="#fff" stroke-width="0"/>
  <path d="M47.37,37.1H.39c-.28,0-.51-.23-.51-.51v-2.15c0-.65.53-1.18,1.18-1.18h45.64c.65,0,1.18.53,1.18,1.18v2.15c0,.28-.23.51-.51.51ZM.9,36.08h45.96v-1.64c0-.09-.07-.16-.16-.16H1.06c-.09,0-.16.07-.16.16v1.64Z" fill="#1d1e1e" stroke-width="0"/>
  <path d="M47.37,36.59c-4.36,1.25-8.88,1.88-13.42,1.88H13.81c-4.54,0-9.05-.63-13.42-1.88h46.98Z" fill="#702f8a" stroke-width="0"/>
  <path d="M33.95,38.98H13.81c-4.59,0-9.15-.64-13.56-1.9-.24-.07-.4-.31-.36-.56s.25-.44.5-.44h46.98c.25,0,.47.19.5.44s-.12.49-.36.56c-4.41,1.26-8.97,1.9-13.56,1.9ZM4.71,37.1c2.99.57,6.04.86,9.09.86h20.15c3.06,0,6.1-.29,9.09-.86H4.71Z" fill="#1d1e1e" stroke-width="0"/>
  <path d="M15.02,22.5c0,2.35.93,4.6,2.59,6.26,1.66,1.66,3.91,2.59,6.26,2.59s4.6-.93,6.26-2.59,2.59-3.91,2.59-6.26-.93-4.6-2.59-6.26c-1.66-1.66-3.91-2.59-6.26-2.59s-4.6.93-6.26,2.59c-1.66,1.66-2.59,3.91-2.59,6.26h0Z" fill="#f1eaf3" stroke-width="0"/>
  <path d="M15.19,24.23c-.25-1.28-.22-2.6.09-3.87.32-1.27.91-2.45,1.73-3.46.83-1.01,1.87-1.83,3.04-2.39,1.18-.56,2.47-.86,3.77-.86s2.6.28,3.78.83,2.23,1.36,3.06,2.36c.83,1,1.44,2.18,1.76,3.44.33,1.26.37,2.58.13,3.87-.4-2.02-1.48-3.84-3.07-5.14-1.59-1.3-3.59-2.01-5.64-2-2.06,0-4.05.73-5.63,2.05-1.58,1.32-2.65,3.14-3.03,5.17" fill="#fff" stroke-width="0"/>
  <path d="M23.87,31.87c-2.5,0-4.85-.97-6.62-2.74-1.77-1.77-2.74-4.12-2.74-6.62s.97-4.85,2.74-6.62c1.77-1.77,4.12-2.74,6.62-2.74s4.85.97,6.62,2.74c1.77,1.77,2.74,4.12,2.74,6.62s-.97,4.85-2.74,6.62-4.12,2.74-6.62,2.74ZM23.87,14.17c-2.19,0-4.34.89-5.89,2.44-1.55,1.55-2.44,3.67-2.44,5.89s.87,4.32,2.44,5.89c1.57,1.57,3.67,2.44,5.89,2.44s4.32-.87,5.89-2.44,2.44-3.67,2.44-5.89-.87-4.32-2.44-5.89c-1.57-1.57-3.67-2.44-5.89-2.44Z" fill="#1d1e1e" stroke-width="0"/>
  <path d="M22.08,26.87c-.17,0-.34-.03-.49-.1-.16-.06-.3-.16-.42-.28l-2.58-2.58c-.23-.24-.36-.57-.36-.91s.14-.66.38-.9.56-.37.9-.38c.34,0,.66.13.91.36l1.67,1.67,5.25-5.25c.25-.22.57-.34.9-.34s.65.14.88.38c.23.23.37.55.38.88,0,.33-.11.65-.34.9l-6.16,6.16c-.12.12-.26.21-.42.28s-.32.1-.49.1h0Z" fill="#702f8a" stroke-width="0"/>
  <path d="M22.08,27.39c-.24,0-.47-.05-.69-.14-.22-.09-.42-.22-.59-.39l-2.58-2.57c-.34-.35-.52-.8-.51-1.28,0-.48.19-.92.53-1.26s.79-.52,1.26-.53c.48,0,.93.18,1.27.51l1.31,1.31,4.88-4.88c.36-.33.84-.5,1.28-.49.47.01.91.2,1.24.53s.52.77.53,1.23-.16.91-.47,1.26l-6.17,6.17c-.17.17-.37.3-.59.39s-.45.14-.69.14h-.01ZM19.52,22.25h0c-.2,0-.4.08-.54.23-.14.14-.22.34-.23.54,0,.2.07.4.22.54l2.57,2.57c.07.07.16.13.25.17.19.08.4.08.59,0,.1-.04.18-.09.25-.17l6.16-6.16c.12-.13.19-.32.19-.52s-.08-.39-.23-.53c-.14-.14-.33-.22-.53-.23-.22-.04-.39.07-.54.2l-5.23,5.23c-.2.2-.53.2-.73,0l-1.67-1.67c-.14-.13-.33-.21-.53-.21h0Z" fill="#1d1e1e" stroke-width="0"/>
</svg>