<?xml version="1.0" encoding="UTF-8"?>
<svg id="Layer_1" data-name="Layer 1" xmlns="http://www.w3.org/2000/svg" viewBox="0 0 48 48">
  <path d="M15.66,39.68c0,.21.08.42.23.57s.35.23.57.23h23.25c.21,0,.42-.08.57-.23.15-.15.23-.35.23-.57V13.62l-6.81-6.81h-17.24c-.11,0-.21.02-.31.06s-.19.1-.26.17c-.07.07-.13.16-.17.26-.04.1-.06.2-.06.31v32.07Z" fill="#fff" stroke-width="0"/>
  <path d="M39.71,41h-23.25c-.35,0-.69-.14-.93-.39-.25-.25-.39-.58-.39-.94V7.61c0-.17.03-.34.1-.51.07-.16.16-.31.29-.43.12-.12.27-.22.43-.29s.33-.1.51-.1h17.23c.14,0,.27.06.37.15l6.81,6.81c.1.1.15.23.15.37v26.06c0,.35-.14.68-.39.93s-.58.39-.94.39h0ZM16.46,7.33s-.07,0-.1.02c-.04.02-.07.04-.09.06s-.05.06-.06.09-.02.07-.02.11v32.07c0,.07.03.15.08.2s.12.08.2.08h23.25c.07,0,.15-.03.2-.08.05-.05.08-.12.08-.2V13.84l-6.51-6.51h-17.03Z" fill="#1d1e1e" stroke-width="0"/>
  <path d="M33.68,6.81v6.06c0,.2.08.39.22.53.14.14.33.22.53.22h6.06l-6.81-6.81Z" fill="#702f8a" stroke-width="0"/>
  <path d="M40.5,14.29h-6.06c-.34,0-.66-.13-.9-.37s-.37-.56-.37-.9v-6.06c0-.21.13-.4.32-.48.2-.08.42-.04.57.11l6.81,6.81c.15.15.19.37.11.57-.08.2-.27.32-.48.32ZM34.2,8.22v4.8c0,.06.02.12.07.16s.1.07.16.07h4.8l-5.03-5.03Z" fill="#1d1e1e" stroke-width="0"/>
  <path d="M29.56,16.81h-9.73c-.29,0-.52-.23-.52-.52s.23-.52.52-.52h9.73c.29,0,.52.23.52.52s-.23.52-.52.52Z" fill="#1d1e1e" stroke-width="0"/>
  <path d="M36.3,21.3h-16.47c-.29,0-.52-.23-.52-.52s.23-.52.52-.52h16.47c.29,0,.52.23.52.52s-.23.52-.52.52Z" fill="#1d1e1e" stroke-width="0"/>
  <path d="M36.3,25.79h-16.47c-.29,0-.52-.23-.52-.52s.23-.52.52-.52h16.47c.29,0,.52.23.52.52s-.23.52-.52.52Z" fill="#1d1e1e" stroke-width="0"/>
  <path d="M36.24,30.65h-16.17c-.29,0-.52-.23-.52-.52s.23-.52.52-.52h16.16c.29,0,.52.23.52.52s-.23.52-.52.52h.01Z" fill="#1d1e1e" stroke-width="0"/>
  <path d="M20.07,34.9c-.29,0-.52-.23-.52-.52s.23-.52.52-.52h16.16c.29,0,.52.23.52.52s-.23.52-.52.52h-16.16Z" fill="#1d1e1e" stroke-width="0"/>
  <path d="M7.49,9.82c0,1.22.24,2.43.71,3.57.47,1.13,1.15,2.16,2.02,3.02.87.87,1.89,1.55,3.02,2.02,1.13.47,2.34.71,3.57.71s2.43-.24,3.57-.71c1.13-.47,2.16-1.15,3.02-2.02.87-.87,1.55-1.89,2.02-3.02.47-1.13.71-2.34.71-3.57s-.24-2.43-.71-3.57c-.47-1.13-1.15-2.16-2.02-3.02-.87-.87-1.89-1.55-3.02-2.02-1.13-.47-2.34-.71-3.57-.71s-2.43.24-3.57.71c-1.13.47-2.16,1.15-3.02,2.02-.87.87-1.55,1.89-2.02,3.02-.47,1.13-.71,2.34-.71,3.57h0Z" fill="#702f8a" stroke-width="0"/>
  <path d="M7.66,11.62c-.26-1.35-.23-2.74.11-4.07.34-1.33.96-2.57,1.83-3.63s1.97-1.92,3.21-2.51c1.24-.59,2.6-.9,3.97-.9s2.73.3,3.97.88c1.24.58,2.34,1.43,3.22,2.49s1.51,2.29,1.85,3.62c.34,1.33.39,2.72.13,4.07-.42-2.12-1.56-4.03-3.23-5.41-1.67-1.37-3.77-2.12-5.93-2.11-2.16,0-4.26.76-5.92,2.15-1.66,1.38-2.8,3.3-3.2,5.42" fill="#9c59b2" stroke-width="0"/>
  <path d="M16.81,19.66c-1.3,0-2.57-.25-3.76-.75-1.2-.5-2.27-1.21-3.19-2.13-.92-.92-1.64-1.99-2.13-3.19s-.75-2.47-.75-3.76.25-2.56.75-3.76c.5-1.2,1.21-2.27,2.13-3.19s1.99-1.64,3.19-2.13c2.4-.99,5.13-.99,7.53,0,1.2.5,2.27,1.21,3.19,2.13s1.64,1.99,2.13,3.19c.5,1.2.75,2.47.75,3.76s-.25,2.56-.75,3.76c-.5,1.2-1.21,2.27-2.13,3.19-.92.92-1.99,1.64-3.19,2.13-1.2.5-2.47.75-3.76.75h-.01ZM16.81,1.02c-1.16,0-2.29.22-3.37.67-1.07.44-2.03,1.09-2.85,1.91-.82.82-1.46,1.78-1.91,2.85-.44,1.07-.67,2.2-.67,3.37s.23,2.29.67,3.37c.44,1.07,1.09,2.03,1.91,2.85.82.82,1.78,1.46,2.85,1.91,2.14.89,4.59.89,6.73,0,1.07-.44,2.03-1.09,2.85-1.91s1.46-1.78,1.91-2.85c.44-1.07.67-2.2.67-3.37s-.22-2.29-.67-3.37c-.44-1.07-1.09-2.03-1.91-2.85-.82-.82-1.78-1.46-2.85-1.91-1.07-.44-2.2-.67-3.37-.67h.01Z" fill="#1d1e1e" stroke-width="0"/>
  <path d="M16.89,3.9c.14,0,.27.03.4.08.13.05.24.13.34.22l2.9,2.9c.1.1.17.21.23.34.05.13.08.26.08.4s-.03.27-.08.4-.13.24-.22.34-.21.17-.34.22c-.13.05-.26.08-.4.08s-.27-.03-.4-.08c-.13-.05-.24-.13-.34-.23l-.92-.92v7.02c0,.33-.13.64-.36.88-.23.23-.55.36-.88.36s-.64-.13-.88-.36c-.23-.23-.36-.55-.36-.88v-7.04l-.92.92c-.19.19-.46.3-.73.3s-.54-.11-.73-.3c-.19-.19-.3-.46-.3-.73s.11-.54.3-.73l2.9-2.9c.1-.1.21-.17.34-.22s.26-.08.4-.08h-.03Z" fill="#fff" stroke-width="0"/>
  <path d="M16.89,16.42c-.47,0-.91-.18-1.25-.52s-.52-.78-.52-1.25v-5.76l-.03.03c-.29.29-.68.45-1.1.45h0c-.41,0-.8-.16-1.1-.46s-.45-.68-.46-1.1c0-.41.16-.81.45-1.1l2.9-2.9c.14-.14.31-.26.51-.34.19-.08.38-.12.59-.12h.01c.2,0,.4.04.59.12.19.08.36.19.51.34l2.89,2.89c.14.14.26.31.34.5s.12.39.12.6-.04.41-.12.6-.19.36-.34.51c-.15.15-.32.26-.51.34-.38.16-.81.16-1.2,0-.19-.08-.36-.19-.51-.34l-.03-.03v5.76c0,.46-.19.92-.52,1.25-.33.33-.78.52-1.25.52h.03ZM16.17,6.38v8.28c0,.19.08.37.21.51.27.27.75.27,1.02,0,.13-.13.21-.32.21-.51V6.38l1.81,1.81s.11.09.17.11c.13.05.27.05.39,0,.06-.03.12-.06.17-.11s.08-.1.11-.17c.03-.06.04-.13.04-.2s-.01-.13-.04-.2c-.03-.06-.06-.12-.11-.17l-2.9-2.9s-.1-.09-.16-.11c-.06-.03-.15-.05-.19-.04h0c-.07.02-.13.01-.19.04s-.12.06-.17.11l-2.9,2.9c-.09.1-.15.22-.15.36,0,.13.05.26.15.36s.22.15.36.15h0c.14,0,.26-.05.36-.15l1.81-1.81v.02Z" fill="#1d1e1e" stroke-width="0"/>
</svg>