<svg width="168" height="168" viewBox="0 0 168 168" fill="none" xmlns="http://www.w3.org/2000/svg">
    <g clip-path="url(#abklzrjuca)">
        <path d="M1 84.003A83.04 83.04 0 0 0 19.782 136.6a82.669 82.669 0 0 0 47.802 28.712 82.522 82.522 0 0 0 55.122-8.205 82.84 82.84 0 0 0 37.418-41.398 83.102 83.102 0 0 0 2.727-55.796 82.897 82.897 0 0 0-33.202-44.866A82.55 82.55 0 0 0 75.591 1.478 82.624 82.624 0 0 0 25.218 25.37 82.927 82.927 0 0 0 7.29 52.272 83.09 83.09 0 0 0 1 84.003z" fill="#F5F7FC"/>
        <path d="M83.996 168a83.742 83.742 0 0 1-59.235-24.618A84.157 84.157 0 0 1 .203 84a84.157 84.157 0 0 1 24.558-59.382A83.74 83.74 0 0 1 83.996 0a83.74 83.74 0 0 1 59.236 24.618A84.16 84.16 0 0 1 167.79 84a84.16 84.16 0 0 1-24.558 59.382A83.742 83.742 0 0 1 83.996 168zm0-165.824a81.48 81.48 0 0 0-45.345 13.79A81.78 81.78 0 0 0 8.589 52.689a82.011 82.011 0 0 0-4.644 47.274 81.887 81.887 0 0 0 22.337 41.895 81.607 81.607 0 0 0 26.487 17.951 81.436 81.436 0 0 0 62.705.196 81.626 81.626 0 0 0 26.597-17.786 81.833 81.833 0 0 0 17.742-26.663 81.985 81.985 0 0 0 6.164-31.45 81.981 81.981 0 0 0-6.359-31.41 81.837 81.837 0 0 0-17.907-26.552 81.123 81.123 0 0 0-26.464-17.775 80.956 80.956 0 0 0-31.25-6.192z" fill="#E6EDF8"/>
        <path opacity=".16" d="M51.875 154.517c0 .66 3.264 1.297 9.066 1.767 5.8.47 13.681.716 21.884.716 8.202 0 16.083-.268 21.832-.727 5.749-.459 9.065-1.119 9.065-1.767 0-.649-3.264-1.298-9.065-1.768S90.986 152 82.825 152c-8.161 0-16.083.268-21.885.738-5.8.47-9.065 1.119-9.065 1.768v.011z" fill="#45413C"/>
        <path d="M156 41.593a7.995 7.995 0 0 0-2.3-5.586 7.68 7.68 0 0 0-2.515-1.711 7.6 7.6 0 0 0-2.973-.593H19.84a7.79 7.79 0 0 0-5.544 2.327A7.996 7.996 0 0 0 12 41.647v82.636h144v-82.69z" fill="#C3CFE1"/>
        <path d="M122.513 32.703H19.753a7.807 7.807 0 0 0-5.526 2.295 7.845 7.845 0 0 0-2.29 5.54v81.57l110.576-89.405z" fill="#DCE5F2"/>
        <path fill="#E8E8E8" d="M18 39h133v86H18z"/>
        <path fill="#F9F9F9" d="M18 39h119v10.128H18z"/>
        <rect x="37" y="59.258" width="44.309" height="56.968" rx="2" fill="#F9F9F9"/>
        <g clip-path="url(#zq5c4fw6eb)" fill="#D9D9D9">
            <path d="M72.626 78.633h-19.16a1.082 1.082 0 0 1-1.083-1.082 1.07 1.07 0 0 1 1.082-1.082h19.16c.59 0 1.083.475 1.083 1.082a1.07 1.07 0 0 1-1.082 1.082zM72.626 88.188h-19.16a1.082 1.082 0 0 1-1.083-1.082 1.07 1.07 0 0 1 1.082-1.083h19.16c.59 0 1.083.475 1.083 1.083a1.07 1.07 0 0 1-1.082 1.082zM72.626 97.72h-19.16a1.082 1.082 0 0 1-1.083-1.083 1.07 1.07 0 0 1 1.082-1.082h19.16c.59 0 1.083.474 1.083 1.082a1.07 1.07 0 0 1-1.082 1.082zM51.592 74.5a.814.814 0 0 0-1.159 0l-4.405 4.386-1.292-1.29a.85.85 0 0 0-1.158 0 .814.814 0 0 0 0 1.157l1.804 1.805.095.113a.846.846 0 0 0 .55.228c.229 0 .418-.095.59-.246l4.975-4.995a.814.814 0 0 0 0-1.158zM51.588 84.031a.814.814 0 0 0-1.158 0l-4.387 4.387-1.291-1.292a.85.85 0 0 0-1.158 0 .814.814 0 0 0 0 1.159l1.804 1.804.095.114a.846.846 0 0 0 .55.228c.228 0 .418-.095.589-.247l4.975-4.975a.814.814 0 0 0 0-1.159l-.019-.019zM51.588 93.578a.814.814 0 0 0-1.158 0l-4.387 4.387-1.291-1.292a.85.85 0 0 0-1.158 0 .814.814 0 0 0 0 1.159l1.804 1.804.095.114a.846.846 0 0 0 .55.228c.228 0 .418-.096.589-.247l4.975-4.976a.814.814 0 0 0 0-1.158l-.019-.019z"/>
        </g>
        <rect x="86.375" y="59.258" width="44.309" height="56.968" rx="2" fill="#F9F9F9"/>
        <g clip-path="url(#160iyog9qc)" fill="#D9D9D9">
            <path d="M122 78.633h-19.16a1.082 1.082 0 0 1-1.082-1.082 1.07 1.07 0 0 1 1.082-1.082H122c.589 0 1.083.475 1.083 1.082A1.07 1.07 0 0 1 122 78.633zM122 88.188h-19.16a1.082 1.082 0 0 1-1.082-1.082 1.07 1.07 0 0 1 1.082-1.083H122c.589 0 1.083.475 1.083 1.083A1.07 1.07 0 0 1 122 88.188zM122 97.72h-19.16a1.082 1.082 0 0 1-1.082-1.083 1.07 1.07 0 0 1 1.082-1.082H122c.589 0 1.083.474 1.083 1.082A1.07 1.07 0 0 1 122 97.72zM100.967 74.5a.814.814 0 0 0-1.159 0l-4.405 4.386-1.292-1.29a.85.85 0 0 0-1.158 0 .814.814 0 0 0 0 1.157l1.804 1.805.095.113a.846.846 0 0 0 .55.228c.229 0 .418-.095.59-.246l4.975-4.995a.815.815 0 0 0 0-1.158zM100.963 84.031a.814.814 0 0 0-1.158 0l-4.387 4.387-1.291-1.292a.85.85 0 0 0-1.158 0 .814.814 0 0 0 0 1.159l1.804 1.804.095.114a.846.846 0 0 0 .55.228c.228 0 .418-.095.589-.247l4.975-4.975a.813.813 0 0 0 0-1.159l-.019-.019zM100.963 93.578a.813.813 0 0 0-1.158 0l-4.387 4.387-1.291-1.292a.85.85 0 0 0-1.158 0 .814.814 0 0 0 0 1.159l1.804 1.804.095.114a.846.846 0 0 0 .55.228c.228 0 .418-.096.589-.247l4.975-4.976a.814.814 0 0 0 0-1.158l-.019-.019z"/>
        </g>
        <path d="M18 39h133v86H18V39z" fill="#6C6C6C" fill-opacity=".3"/>
        <path fill-rule="evenodd" clip-rule="evenodd" d="M11.063 125h2.4V40a5.6 5.6 0 0 1 5.6-5.6h129.999a5.6 5.6 0 0 1 5.601 5.6v85h2.399V40a8 8 0 0 0-8-8h-130a8 8 0 0 0-8 8v85z" fill="#45413C"/>
        <path fill-rule="evenodd" clip-rule="evenodd" d="M16.297 123.945h2.4v-83.6h131.2v83.6h2.4v-84a2 2 0 0 0-2-2h-132a2 2 0 0 0-2 2v84z" fill="#45413C"/>
        <path d="M163.091 125.75H4.865a3.771 3.771 0 0 0-2.724 1.156A3.935 3.935 0 0 0 1 129.532v3.824h165.956v-3.824a3.94 3.94 0 0 0-1.142-2.626 3.82 3.82 0 0 0-2.723-1.156z" fill="#BAC8DC"/>
        <path d="M166.344 132.727h-165a14.653 14.653 0 0 0 5.484 5.964 13.998 13.998 0 0 0 7.716 2.028h138.651c2.696.089 5.36-.614 7.684-2.029a14.522 14.522 0 0 0 5.439-5.963h.026z" fill="#EAEEF7"/>
        <path fill-rule="evenodd" clip-rule="evenodd" d="M4.865 123.742h158.269a4.85 4.85 0 0 1 1.962.422 5.032 5.032 0 0 1 1.635 1.173 5.447 5.447 0 0 1 1.465 3.539l.001.044v4.022a1.2 1.2 0 0 1-1.2 1.2h-166a1.2 1.2 0 0 1-1.2-1.2v-4.066a5.446 5.446 0 0 1 1.464-3.537 4.989 4.989 0 0 1 1.635-1.179c.62-.277 1.29-.42 1.969-.418zm-.007 2.4a2.398 2.398 0 0 0-.984.209 2.592 2.592 0 0 0-.851.618l-.014.014a3.044 3.044 0 0 0-.812 1.961v2.798h163.6v-2.798a3.044 3.044 0 0 0-.813-1.961l-.008-.009a2.636 2.636 0 0 0-.858-.618 2.434 2.434 0 0 0-.988-.214H4.858z" fill="#45413C"/>
        <path fill-rule="evenodd" clip-rule="evenodd" d="M.397 132.505a1.2 1.2 0 0 1 1.64.439c1.134 1.964 2.875 3.618 5.037 4.757 2.162 1.138 4.648 1.709 7.169 1.637l.034-.001H153.77l.035.001c2.509.072 4.984-.498 7.133-1.637 2.149-1.138 3.874-2.791 4.992-4.751a1.198 1.198 0 0 1 1.042-.606h.026a1.2 1.2 0 0 1 .902 1.992c-1.357 2.291-3.382 4.185-5.839 5.486-2.52 1.335-5.4 1.996-8.308 1.915H14.294c-2.917.081-5.807-.579-8.339-1.913-2.537-1.336-4.622-3.3-5.997-5.68a1.2 1.2 0 0 1 .439-1.639z" fill="#45413C"/>
        <path d="M104.844 39.288c0 4.064.8 8.083 2.331 11.827 1.554 3.743 3.817 7.165 6.674 10.013a30.914 30.914 0 0 0 9.965 6.706 30.422 30.422 0 0 0 11.771 2.343c4.046 0 8.045-.804 11.771-2.343 3.725-1.562 7.131-3.835 9.965-6.706a31.074 31.074 0 0 0 6.674-10.013c1.554-3.744 2.331-7.763 2.331-11.828 0-4.065-.8-8.084-2.331-11.827-1.554-3.743-3.817-7.165-6.674-10.013a30.91 30.91 0 0 0-9.965-6.706 30.418 30.418 0 0 0-11.771-2.343 30.85 30.85 0 0 0-11.771 2.343c-3.725 1.562-7.131 3.835-9.965 6.706a31.071 31.071 0 0 0-6.674 10.013c-1.554 3.743-2.331 7.762-2.331 11.828z" fill="#EEFBFF"/>
        <path d="M116.375 63.402a30.684 30.684 0 0 1-8-9.715 31.152 31.152 0 0 1-3.474-12.103 30.918 30.918 0 0 1 1.623-12.493 30.543 30.543 0 0 1 6.468-10.794 30.714 30.714 0 0 1 10.217-7.303 30.499 30.499 0 0 1 12.273-2.596c4.229 0 8.411.85 12.297 2.527 3.885 1.676 7.36 4.156 10.262 7.257l-41.643 45.243-.023-.023z" fill="#fff"/>
        <path d="M112.516 39.29c0 3.054.594 6.063 1.76 8.864 1.165 2.802 2.857 5.374 5.005 7.51a23.213 23.213 0 0 0 7.474 5.03 22.836 22.836 0 0 0 8.822 1.768c3.017 0 6.034-.597 8.823-1.768 2.788-1.171 5.348-2.87 7.474-5.03a23.35 23.35 0 0 0 5.005-7.51 23.134 23.134 0 0 0 1.76-8.864c0-3.032-.594-6.063-1.76-8.865-1.166-2.802-2.857-5.374-5.005-7.51a23.222 23.222 0 0 0-7.474-5.03 22.843 22.843 0 0 0-8.823-1.768c-3.017 0-6.034.597-8.822 1.769-2.788 1.17-5.348 2.87-7.474 5.03a23.334 23.334 0 0 0-5.005 7.509 23.134 23.134 0 0 0-1.76 8.865z" fill="#D4F3FF"/>
        <path d="M135.58 16.117a23.068 23.068 0 0 0-13.462 4.34c-3.931 2.825-6.857 6.822-8.411 11.415a23.33 23.33 0 0 0-.183 14.193 23.198 23.198 0 0 0 8.091 11.643l31.176-33.851c-2.172-2.435-4.8-4.387-7.771-5.719a23.024 23.024 0 0 0-9.44-2.02z" fill="#F5FBFE"/>
        <path d="M135.588 63.563c-3.2 0-6.308-.62-9.257-1.86a23.946 23.946 0 0 1-7.839-5.26 23.946 23.946 0 0 1-5.234-7.877c-1.212-2.962-1.852-6.086-1.852-9.301s.617-6.339 1.852-9.301c1.211-2.963 2.994-5.604 5.234-7.877a23.819 23.819 0 0 1 7.839-5.26c5.897-2.457 12.617-2.457 18.491 0a23.946 23.946 0 0 1 7.839 5.26 23.945 23.945 0 0 1 5.234 7.877c1.212 2.962 1.852 6.086 1.852 9.301a24.02 24.02 0 0 1-1.852 9.301c-1.211 2.963-2.994 5.604-5.234 7.877a23.82 23.82 0 0 1-7.839 5.26c-2.949 1.217-6.057 1.86-9.257 1.86h.023zm0-46.345c-2.903 0-5.714.574-8.388 1.676a22.397 22.397 0 0 0-7.131 4.777 21.548 21.548 0 0 0-4.754 7.166 22.168 22.168 0 0 0 0 16.88 21.782 21.782 0 0 0 4.754 7.165c2.057 2.067 4.434 3.674 7.131 4.777a21.949 21.949 0 0 0 16.799 0 22.397 22.397 0 0 0 7.131-4.777 21.547 21.547 0 0 0 4.754-7.166 22.253 22.253 0 0 0 1.668-8.428c0-2.894-.571-5.741-1.668-8.428a21.782 21.782 0 0 0-4.754-7.166c-2.057-2.067-4.434-3.674-7.131-4.777a21.96 21.96 0 0 0-8.388-1.676l-.023-.023z" fill="#45413C"/>
        <path d="M110.477 39.486c0 13.915 11.254 25.197 25.134 25.197 13.881 0 25.135-11.282 25.135-25.197s-11.254-25.197-25.135-25.197c-13.88 0-25.134 11.282-25.134 25.197z" fill="#FFBC7E"/>
        <path d="M160.294 44.258c-2.574-13.668-15.713-22.656-29.344-20.076-10.163 1.92-18.111 9.889-20.027 20.076-2.613-13.668 6.317-26.87 19.952-29.49 13.635-2.62 26.806 6.333 29.419 20.002.6 3.133.6 6.355 0 9.493v-.005z" fill="#FFD98E"/>
        <path fill-rule="evenodd" clip-rule="evenodd" d="M147.895 9.452a32.125 32.125 0 0 0-24.617 0 31.828 31.828 0 0 0-10.428 7 31.985 31.985 0 0 0-6.967 10.479 32.518 32.518 0 0 0-2.445 12.378c0 4.265.83 8.415 2.445 12.354a31.984 31.984 0 0 0 6.967 10.479 32.056 32.056 0 0 0 10.428 7 31.906 31.906 0 0 0 12.297 2.458h.023c4.245 0 8.375-.835 12.296-2.457a31.819 31.819 0 0 0 10.429-7.001 31.984 31.984 0 0 0 6.967-10.479 32.234 32.234 0 0 0 2.446-12.354c0-4.289-.831-8.438-2.446-12.378a31.985 31.985 0 0 0-6.967-10.479 31.828 31.828 0 0 0-10.428-7zm-12.32.347c-3.869 0-7.647.75-11.221 2.25h-.001a29.056 29.056 0 0 0-9.525 6.389 29.21 29.21 0 0 0-6.357 9.57 29.64 29.64 0 0 0-2.241 11.278c0 3.888.747 7.684 2.24 11.275l.001.002a29.21 29.21 0 0 0 6.357 9.57 29.056 29.056 0 0 0 9.525 6.388 29.31 29.31 0 0 0 22.444 0h.001a29.062 29.062 0 0 0 9.524-6.388 29.229 29.229 0 0 0 6.358-9.57 29.658 29.658 0 0 0 2.24-11.277c0-3.888-.746-7.684-2.24-11.276v-.002a29.229 29.229 0 0 0-6.358-9.57 29.062 29.062 0 0 0-9.524-6.388c-3.576-1.478-7.355-2.251-11.223-2.251zm-25.981 29.69c0 14.377 11.666 26.077 26.011 26.077 14.341 0 26.012-11.7 26.012-26.076 0-14.376-11.671-26.076-26.012-26.076-14.34 0-26.011 11.7-26.011 26.076zm1.753 0c0-13.408 10.882-24.317 24.258-24.317 13.377 0 24.258 10.909 24.258 24.318 0 13.41-10.881 24.318-24.258 24.318-13.376 0-24.258-10.909-24.258-24.318z" fill="#45413C"/>
        <rect x="123" y="35.297" width="26" height="18" rx="2" fill="#D9D9D9"/>
        <path d="M145.383 35.304h-18.774c-.916-.013-3.066 0-3.609 0v1.6c.001.41.012-.498 0-.127v3.52c.013-.373.115-.738.3-1.066.184-.328.446-.61.763-.823a4.349 4.349 0 0 1 2.546-.775h18.774a4.359 4.359 0 0 1 2.554.775c.317.213.579.495.763.823.185.328.287.693.3 1.066v-3.52c-.012-.372 0 .239 0-.151v-1.322c-1.063 0-2.7-.015-3.617 0z" fill="#fff"/>
        <rect x="122.7" y="34.997" width="26.6" height="18.6" rx="2.3" stroke="#45413C" stroke-width="1.4"/>
        <path d="M125.688 34.837v-4.533c0-5.69 4.611-10.312 10.312-10.312 5.69 0 10.312 4.612 10.312 10.312v4.533h-4.127v-4.533A6.188 6.188 0 0 0 136 24.12a6.188 6.188 0 0 0-6.186 6.185v4.533h-4.126z" fill="#D9D9D9"/>
        <path d="M147 35.527h-5.512v-5.225a5.5 5.5 0 0 0-5.493-5.493 5.5 5.5 0 0 0-5.493 5.493v5.225H125v-5.225c0-2.94 1.148-5.7 3.226-7.779a10.933 10.933 0 0 1 7.779-3.226c2.939 0 5.7 1.148 7.779 3.226a10.931 10.931 0 0 1 3.226 7.779v5.225H147zm-4.127-1.385h2.741v-3.84a9.55 9.55 0 0 0-2.81-6.8 9.595 9.595 0 0 0-6.799-2.82 9.52 9.52 0 0 0-6.799 2.82 9.536 9.536 0 0 0-2.82 6.8v3.84h2.731v-3.84c0-3.79 3.088-6.878 6.878-6.878s6.878 3.088 6.878 6.878v3.84z" fill="#45413C"/>
        <path d="M138.563 43.338c0-.45-.114-.899-.332-1.295a2.493 2.493 0 0 0-.934-.952 2.529 2.529 0 0 0-2.559-.01 2.56 2.56 0 0 0-1.284 2.23c0 .45.114.9.332 1.288.227.397.55.723.943.943v2.935c0 .344.131.67.376.908.235.238.567.38.899.38a1.286 1.286 0 0 0 1.284-1.287v-2.936c.393-.23.707-.547.934-.934.227-.388.341-.829.341-1.287v.017z" fill="#7F7F7F"/>
        <path d="M136.004 50.24c-.454 0-.899-.185-1.214-.511a1.728 1.728 0 0 1-.506-1.225v-2.689a3.086 3.086 0 0 1-.882-.96 3.084 3.084 0 0 1 0-3.042c.253-.45.637-.837 1.1-1.11a2.825 2.825 0 0 1 1.502-.406c.524 0 1.039.141 1.502.415.454.264.839.652 1.101 1.119.262.476.401.996.393 1.516 0 .538-.14 1.058-.402 1.508a3.047 3.047 0 0 1-.873.96v2.689c0 .467-.184.908-.507 1.234-.332.326-.76.511-1.223.511l.009-.009zm0-9.035c-.367 0-.733.097-1.048.282a2.192 2.192 0 0 0-.777.776 2.147 2.147 0 0 0-.288 1.067 2.094 2.094 0 0 0 1.056 1.842c.14.08.228.229.228.388v2.935c0 .23.087.432.244.59a.849.849 0 0 0 1.179 0 .84.84 0 0 0 .245-.59V45.56c0-.159.087-.309.227-.388.323-.185.585-.45.768-.767a2.12 2.12 0 0 0 .28-1.058c0-.37-.088-.74-.28-1.066a2.123 2.123 0 0 0-.768-.785c-.324-.194-.716-.326-1.057-.29h-.009z" fill="#45413C"/>
    </g>
    <defs>
        <clipPath id="abklzrjuca">
            <path fill="#fff" d="M0 0h168v168H0z"/>
        </clipPath>
        <clipPath id="zq5c4fw6eb">
            <path fill="#fff" transform="translate(43.328 71.914)" d="M0 0h30.383v30.383H0z"/>
        </clipPath>
        <clipPath id="160iyog9qc">
            <path fill="#fff" transform="translate(92.703 71.914)" d="M0 0h30.383v30.383H0z"/>
        </clipPath>
    </defs>
</svg>
