<?xml version="1.0" encoding="UTF-8"?>
<svg id="Layer_1" data-name="Layer 1" xmlns="http://www.w3.org/2000/svg" viewBox="0 0 48 48">
  <rect x="3.44" y=".49" width="39.98" height="39.98" rx="4.33" ry="4.33" fill="#e6edf8" stroke-width="0"/>
  <path d="M38.74,40.96H8.13c-2.85,0-5.18-2.32-5.18-5.18V5.18C2.95,2.32,5.27,0,8.13,0h30.61c2.85,0,5.18,2.32,5.18,5.18v30.61c0,2.85-2.32,5.18-5.18,5.18ZM8.13.98c-2.32,0-4.2,1.88-4.2,4.2v30.61c0,2.32,1.88,4.2,4.2,4.2h30.61c2.32,0,4.2-1.88,4.2-4.2V5.18c0-2.32-1.88-4.2-4.2-4.2H8.13Z" fill="#1d1e1e" stroke-width="0"/>
  <path d="M38.74.49H8.13C5.55.49,3.44,2.6,3.44,5.18v4.17c0-2.58,2.11-4.69,4.69-4.69h30.61c2.58,0,4.69,2.11,4.69,4.69v-4.17c0-2.58-2.11-4.69-4.69-4.69Z" fill="#fff" stroke-width="0"/>
  <path d="M38.74,40.96H8.13c-2.85,0-5.18-2.32-5.18-5.18V5.18C2.95,2.32,5.27,0,8.13,0h30.61c2.85,0,5.18,2.32,5.18,5.18v30.61c0,2.85-2.32,5.18-5.18,5.18ZM8.13.98c-2.32,0-4.2,1.88-4.2,4.2v30.61c0,2.32,1.88,4.2,4.2,4.2h30.61c2.32,0,4.2-1.88,4.2-4.2V5.18c0-2.32-1.88-4.2-4.2-4.2H8.13Z" fill="#1d1e1e" stroke-width="0"/>
  <path d="M38.69,40.96H8.09c-2.85,0-5.18-2.32-5.18-5.18V5.18C2.91,2.32,5.23,0,8.09,0h30.61c2.85,0,5.18,2.32,5.18,5.18v30.61c0,2.85-2.32,5.18-5.18,5.18ZM8.09.98c-2.32,0-4.2,1.88-4.2,4.2v30.61c0,2.32,1.88,4.2,4.2,4.2h30.61c2.32,0,4.2-1.88,4.2-4.2V5.18c0-2.32-1.88-4.2-4.2-4.2H8.09Z" fill="#1d1e1e" stroke-width="0"/>
  <path d="M38.69,40.96H8.09c-2.85,0-5.18-2.32-5.18-5.18V5.18C2.91,2.32,5.23,0,8.09,0h30.61c2.85,0,5.18,2.32,5.18,5.18v30.61c0,2.85-2.32,5.18-5.18,5.18ZM8.09.98c-2.32,0-4.2,1.88-4.2,4.2v30.61c0,2.32,1.88,4.2,4.2,4.2h30.61c2.32,0,4.2-1.88,4.2-4.2V5.18c0-2.32-1.88-4.2-4.2-4.2H8.09Z" fill="#1d1e1e" stroke-width="0"/>
  <path d="M38.72,40.97H8.11c-2.85,0-5.18-2.32-5.18-5.18V5.18C2.93,2.33,5.25,0,8.11,0h30.61c2.85,0,5.18,2.32,5.18,5.18v30.61c0,2.85-2.32,5.18-5.18,5.18ZM8.11.98c-2.32,0-4.2,1.88-4.2,4.2v30.61c0,2.32,1.88,4.2,4.2,4.2h30.61c2.32,0,4.2-1.88,4.2-4.2V5.18c0-2.32-1.88-4.2-4.2-4.2H8.11Z" fill="#1d1e1e" stroke-width="0"/>
  <path d="M24.69,11.2v18.57c0,.39-.27.74-.71.9-.16.06-.34.09-.52.09-.29,0-.56-.09-.78-.24l-7.74-5.36h-3.01c-1.4,0-2.54-.92-2.54-2.06v-5.23c0-1.14,1.14-2.06,2.54-2.06h3.01l7.73-5.36c.51-.36,1.28-.31,1.72.11.19.18.29.41.29.64Z" fill="#618fff" stroke-width="0"/>
  <path d="M23.47,31.25c-.39,0-.76-.12-1.06-.33l-7.61-5.27h-2.86c-1.67,0-3.03-1.15-3.03-2.55v-5.23c0-1.4,1.36-2.55,3.03-2.55h2.86l7.6-5.27c.7-.49,1.73-.42,2.33.15.29.27.45.63.45,1v18.57c0,.59-.4,1.12-1.03,1.36-.22.08-.45.12-.68.12ZM11.94,16.3c-1.13,0-2.05.71-2.05,1.57v5.23c0,.87.92,1.57,2.05,1.57h3.16l7.86,5.45c.14.1.32.15.51.15.12,0,.24-.02.34-.06.24-.09.39-.26.39-.44V11.2c0-.1-.05-.2-.14-.29-.27-.25-.79-.28-1.1-.06l-7.85,5.45h-3.16Z" fill="#1d1e1e" stroke-width="0"/>
  <path d="M33.64,29.35c-.49.49-1.28.49-1.77,0-.49-.49-.49-1.28,0-1.77,4.07-4.07,4.07-10.67,0-14.74-.49-.49-.49-1.28,0-1.77.49-.49,1.28-.49,1.77,0h0c5.05,5.05,5.05,13.24,0,18.29h0Z" fill="#618fff" stroke-width="0"/>
  <path d="M32.75,30.21c-.47,0-.9-.18-1.23-.51-.68-.68-.68-1.78,0-2.46,3.87-3.87,3.87-10.18,0-14.05-.68-.68-.68-1.78,0-2.46.33-.33.77-.51,1.23-.51.47,0,.9.18,1.23.51,5.1,5.1,5.23,13.31.39,18.57h0s-.4.41-.4.41c-.33.33-.77.51-1.23.51h0ZM32.75,11.18c-.2,0-.4.08-.54.22-.3.3-.3.78,0,1.08,4.25,4.25,4.25,11.18,0,15.43-.3.3-.3.78,0,1.08.14.14.34.22.54.22h0c.19,0,.36-.07.5-.19l.04-.04c4.85-4.85,4.85-12.74,0-17.6-.14-.14-.34-.22-.54-.22Z" fill="#1d1e1e" stroke-width="0"/>
  <path d="M29.23,24.94h0c-.49.49-1.29.49-1.77,0-.48-.49-.48-1.27,0-1.76h0c1.63-1.64,1.63-4.29,0-5.93-.49-.49-.49-1.28,0-1.77,0,0,0,0,0,0,.49-.49,1.28-.49,1.77,0,2.62,2.62,2.62,6.86,0,9.48h0Z" fill="#618fff" stroke-width="0"/>
  <path d="M28.35,25.8h-.01c-.47,0-.9-.19-1.23-.52-.67-.68-.67-1.77,0-2.45,1.45-1.45,1.45-3.8,0-5.24-.33-.33-.51-.77-.51-1.23,0-.47.18-.9.51-1.23.68-.68,1.79-.68,2.46,0,2.8,2.8,2.8,7.36,0,10.17l-.25.25-.04-.02c-.28.18-.61.28-.94.28ZM28.35,15.59c-.2,0-.39.07-.54.22-.14.14-.22.34-.22.54,0,.2.08.4.22.54,1.82,1.82,1.82,4.79,0,6.62-.3.3-.3.78,0,1.08.14.15.34.23.54.23h0c.2,0,.39-.08.54-.22l.12-.12c2.3-2.43,2.26-6.28-.12-8.66-.15-.15-.34-.22-.54-.22Z" fill="#1d1e1e" stroke-width="0"/>
  <path d="M24.4,11.09c-.44-.41-1.21-.46-1.72-.11l-7.73,5.36h-3.01c-1.4,0-2.54.92-2.54,2.06v2.32c0-1.14,1.14-2.06,2.54-2.06h3.01l7.73-5.36c.51-.36,1.28-.31,1.72.11.19.18.29.41.29.64v-2.32c0-.24-.1-.46-.29-.64Z" fill="#c7dbff" stroke-width="0"/>
  <path d="M23.47,31.25c-.39,0-.76-.12-1.06-.33l-7.61-5.27h-2.86c-1.67,0-3.03-1.15-3.03-2.55v-5.23c0-1.4,1.36-2.55,3.03-2.55h2.86l7.6-5.27c.7-.49,1.73-.42,2.33.15.29.27.45.63.45,1v18.57c0,.59-.4,1.12-1.03,1.36-.22.08-.45.12-.68.12ZM11.94,16.3c-1.13,0-2.05.71-2.05,1.57v5.23c0,.87.92,1.57,2.05,1.57h3.16l7.86,5.45c.14.1.32.15.51.15.12,0,.24-.02.34-.06.24-.09.39-.26.39-.44V11.2c0-.1-.05-.2-.14-.29-.27-.25-.79-.28-1.1-.06l-7.85,5.45h-3.16Z" fill="#1d1e1e" stroke-width="0"/>
</svg>