<svg width="16" height="8" viewBox="0 0 16 8" fill="none" xmlns="http://www.w3.org/2000/svg">
    <g clip-path="url(#ihlo1xrcma)">
        <g clip-path="url(#hgh7a8aoab)" fill="#FFFFFF">
            <path d="M9.14 3.93H7.61V0L5.36 4.07h1.53V8l2.25-4.07zM9.14 6h.48a.26.26 0 0 0 .25-.25V4.68L9.14 6z"/>
            <path d="M8.61 2.93h1.26v-.68A.26.26 0 0 0 9.62 2h-1l-.01.93zM5.89 5.07H3.66l.83-1.48L5.36 2H2.25a.25.25 0 0 0-.25.25v3.5a.25.25 0 0 0 .25.25h3.64v-.93z"/>
            <path d="M5.89 7H1.5a.5.5 0 0 1-.5-.5v-5a.5.5 0 0 1 .5-.5h4.42l.55-1h-5A1.5 1.5 0 0 0 0 1.5v5A1.5 1.5 0 0 0 1.5 8h4.39V7zM15.32 2.5h-.82v-1A1.5 1.5 0 0 0 13 0H8.61v1H13a.5.5 0 0 1 .5.5v5a.5.5 0 0 1-.5.5H8.58L8 8h5a1.5 1.5 0 0 0 1.5-1.5v-1h.82a.67.67 0 0 0 .68-.67V3.18a.68.68 0 0 0-.68-.68z"/>
        </g>
    </g>
    <defs>
        <clipPath id="ihlo1xrcma">
            <path fill="#fff" d="M0 0h15.99v8H0z"/>
        </clipPath>
        <clipPath id="hgh7a8aoab">
            <path fill="#fff" d="M0 0h16v8H0z"/>
        </clipPath>
    </defs>
</svg>
