<?xml version="1.0" encoding="UTF-8"?>
<svg id="Layer_1" data-name="Layer 1" xmlns="http://www.w3.org/2000/svg" viewBox="0 0 48 48">
  <path d="M37.39,14.97l.63,11.64c0,.28-.06.56-.21.8-.15.24-.37.42-.62.53-4.26,1.77-8.83,2.69-13.45,2.71-4.61-.02-9.18-.94-13.44-2.71-.26-.11-.48-.3-.63-.53-.15-.24-.22-.52-.2-.8l.63-11.65h27.28Z" fill="#e6f1fa" stroke-width="0"/>
  <path d="M37.63,19.48l-.24-4.5H10.12l-.24,4.5,12.33,3.66c1.01.3,2.09.3,3.11,0l12.33-3.66h0Z" fill="#bde4f4" stroke-width="0"/>
  <path d="M23.75,31.15c-4.7-.02-9.29-.95-13.63-2.75-.35-.15-.65-.4-.85-.73-.2-.33-.3-.7-.28-1.08l.64-11.65c0-.26.23-.46.49-.46h27.27c.26,0,.48.2.49.46l.63,11.64c.02.38-.08.76-.28,1.08-.2.33-.5.58-.85.73-4.35,1.8-8.93,2.73-13.64,2.75h0ZM10.59,15.46l-.61,11.18c0,.18.04.36.13.51s.24.27.4.34c4.22,1.75,8.68,2.65,13.25,2.67,4.57-.02,9.03-.92,13.26-2.68.16-.07.3-.19.4-.34.1-.15.14-.33.13-.51l-.61-11.18H10.59Z" fill="#1d1e1e" stroke-width="0"/>
  <path d="M.73,14.15c-.14-.04-.26-.13-.35-.25s-.13-.26-.13-.41.05-.29.13-.4c.09-.12.21-.2.35-.25l21.48-6.38c1.01-.3,2.09-.3,3.11,0l21.48,6.39c.14.04.26.13.35.25s.13.26.13.4-.05.29-.13.41c-.09.12-.21.2-.35.25l-21.48,6.39c-1.01.3-2.09.3-3.1,0L.73,14.15Z" fill="none" stroke-width="0"/>
  <path d="M23.75,21.24c-.57,0-1.14-.08-1.69-.25L.59,14.62h0c-.24-.08-.45-.23-.59-.43-.15-.2-.23-.45-.23-.69s.08-.5.23-.69c.14-.2.35-.35.59-.42l21.49-6.39c1.11-.33,2.28-.33,3.39,0l21.48,6.39c.25.08.45.23.6.43.15.2.23.44.23.69s-.08.49-.23.7c-.15.2-.35.35-.59.42l-21.49,6.39c-.55.16-1.12.25-1.69.25l-.02-.02ZM.87,13.68l21.47,6.39c.92.28,1.9.28,2.82,0l21.49-6.39s.06-.03.09-.07c.03-.04.04-.08.04-.12s0-.08-.04-.12c-.03-.04-.06-.06-.1-.07l-21.47-6.38c-.93-.28-1.9-.28-2.83,0L.87,13.31s-.07.03-.09.07c-.03.04-.04.08-.04.12s0,.08.04.12c.02.03.06.06.1.07h0Z" fill="#1d1e1e" stroke-width="0"/>
  <path d="M.73,14.17c-.14-.04-.26-.13-.35-.25s-.13-.26-.13-.41.05-.29.13-.4c.09-.12.21-.2.35-.25l21.48-6.38c1.01-.3,2.09-.3,3.11,0l21.48,6.39c.14.04.26.13.35.25s.13.26.13.4-.05.29-.13.41c-.09.12-.21.2-.35.25l-21.48,6.39c-1.01.3-2.09.3-3.1,0L.73,14.17Z" fill="#fff" stroke-width="0"/>
  <path d="M23.75,21.27c-.57,0-1.14-.08-1.69-.25L.59,14.64h0c-.24-.08-.45-.23-.59-.43-.15-.2-.23-.45-.23-.69s.08-.5.23-.69c.14-.2.35-.35.59-.42l21.49-6.39c1.11-.33,2.28-.33,3.39,0l21.48,6.39c.25.08.45.23.6.43.15.2.23.44.23.69s-.08.49-.23.7c-.15.2-.35.35-.59.42l-21.49,6.39c-.55.16-1.12.25-1.69.25l-.02-.02ZM.87,13.7l21.47,6.39c.92.28,1.9.28,2.82,0l21.49-6.39s.06-.03.09-.07c.03-.04.04-.08.04-.12s0-.08-.04-.12c-.03-.04-.06-.06-.1-.07l-21.47-6.38c-.93-.28-1.9-.28-2.83,0L.87,13.33s-.07.03-.09.07c-.03.04-.04.08-.04.12s0,.08.04.12c.02.03.06.06.1.07h0Z" fill="#1d1e1e" stroke-width="0"/>
  <path d="M35.61,28.93c-.08-.38-.28-.72-.58-.96-.3-.24-.67-.38-1.06-.38s-.76.13-1.05.38c-.3.24-.5.58-.58.96l-.87,4.36c-.03.15-.03.31,0,.46.03.15.1.3.19.42.09.13.21.24.34.32.13.08.28.13.44.15,1.02.14,2.05.14,3.07,0,.15-.02.3-.07.44-.15.13-.08.25-.19.34-.32s.15-.27.19-.42c.03-.15.03-.31,0-.46l-.87-4.35h0Z" fill="#009cde" stroke-width="0"/>
  <path d="M33.98,35.24c-.54,0-1.07-.04-1.6-.11-.22-.03-.43-.11-.63-.22-.19-.11-.35-.27-.48-.45s-.22-.39-.27-.6c-.05-.22-.05-.44,0-.66l.87-4.35c.1-.49.36-.93.75-1.24.38-.31.87-.49,1.37-.49h0c.5,0,.98.17,1.37.49.38.31.65.75.75,1.24h0l.87,4.35c.04.22.04.44,0,.66-.05.22-.14.42-.26.61-.14.19-.3.34-.49.45-.19.12-.4.19-.62.22-.53.07-1.07.11-1.6.11h-.03ZM33.98,28.08c-.27,0-.54.09-.74.27-.21.17-.35.41-.41.68l-.87,4.35c-.02.09-.02.18,0,.27.02.08.06.17.11.24.05.07.12.13.19.18.08.05.16.08.25.09.98.14,1.96.14,2.94,0,.09,0,.17-.04.25-.09s.14-.11.2-.18c.05-.07.09-.15.1-.24.02-.09.02-.18,0-.27l-.87-4.35c-.05-.27-.2-.51-.41-.68-.21-.17-.47-.27-.75-.27h.01Z" fill="#1d1e1e" stroke-width="0"/>
  <path d="M25.16,17.24l17.37-5.16,4.11,1.22s.06.03.09.07c.03.04.04.08.04.12s-.01.08-.04.12c-.03.04-.06.06-.1.07l-21.47,6.38c-.93.28-1.9.28-2.83,0L.86,13.68s-.07-.03-.09-.07c-.03-.04-.04-.08-.04-.12s.01-.08.04-.12c.02-.03.06-.06.1-.07h-.01s4.12-1.22,4.12-1.22l17.35,5.16c.93.28,1.9.28,2.83,0Z" fill="#e6f1fa" stroke-width="0"/>
  <path d="M33.98,28.09c-.27,0-.49-.22-.49-.49v-9.31l-9.94-4.33c-.25-.11-.36-.4-.25-.64.11-.25.4-.36.64-.25l10.23,4.46c.18.08.29.25.29.45v9.63c0,.27-.22.49-.49.49h.01Z" fill="#1d1e1e" stroke-width="0"/>
  <path d="M21.7,13.51c0,.36.22.71.6.96.38.26.9.4,1.45.4s1.06-.14,1.45-.4c.38-.26.6-.6.6-.96s-.22-.71-.6-.96c-.38-.26-.9-.4-1.45-.4s-1.06.14-1.45.4c-.38.26-.6.6-.6.96Z" fill="#009cde" stroke-width="0"/>
  <path d="M23.75,15.29c-.63,0-1.22-.17-1.68-.47-.5-.33-.78-.81-.78-1.31s.29-.98.78-1.31c.91-.61,2.45-.61,3.36,0,.5.33.78.81.78,1.31s-.29.98-.78,1.31c-.45.3-1.05.47-1.68.47ZM23.75,12.56c-.46,0-.9.12-1.22.33-.26.17-.41.4-.41.62s.15.44.41.62c.63.42,1.8.42,2.43,0,.27-.18.41-.4.41-.62s-.15-.44-.41-.62c-.32-.21-.76-.33-1.22-.33h0Z" fill="#1d1e1e" stroke-width="0"/>
</svg>