<?xml version="1.0" encoding="UTF-8"?>
<svg id="Layer_1" data-name="Layer 1" xmlns="http://www.w3.org/2000/svg" viewBox="0 0 48 48">
  <path d="M4.06,20.5c0,5.29,2.1,10.36,5.84,14.1,3.74,3.74,8.81,5.84,14.1,5.84s10.36-2.1,14.1-5.84c3.74-3.74,5.84-8.81,5.84-14.1s-2.1-10.36-5.84-14.1c-3.74-3.74-8.81-5.84-14.1-5.84s-10.36,2.1-14.1,5.84c-3.74,3.74-5.84,8.81-5.84,14.1h0Z" fill="#e6f1fa" stroke-width="0"/>
  <path d="M9.9,34.6c-3.74-3.74-5.84-8.81-5.84-14.1s2.1-10.36,5.84-14.1C13.64,2.66,18.71.56,24,.56s10.36,2.1,14.1,5.84l-28.2,28.2Z" fill="#fff" stroke-width="0"/>
  <path d="M24,41c-5.48,0-10.62-2.13-14.5-6.01-3.87-3.87-6-9.02-6-14.49s2.13-10.62,6-14.5C13.38,2.13,18.52,0,24,0s10.62,2.13,14.5,6c3.87,3.87,6,9.02,6,14.5s-2.13,10.62-6,14.49c-3.87,3.87-9.02,6.01-14.5,6.01ZM24,1.12c-5.18,0-10.04,2.02-13.71,5.68-3.66,3.66-5.68,8.53-5.68,13.71s2.02,10.04,5.68,13.71c3.66,3.66,8.53,5.68,13.71,5.68s10.04-2.02,13.71-5.68c3.66-3.66,5.68-8.53,5.68-13.71s-2.02-10.04-5.68-13.71c-3.66-3.67-8.53-5.68-13.71-5.68Z" fill="#1d1e1e" stroke-width="0"/>
  <path d="M24,37.56c-4.56,0-8.84-1.77-12.06-5-3.22-3.22-5-7.51-5-12.06s1.78-8.84,5-12.06c3.22-3.22,7.51-5,12.06-5s8.84,1.78,12.06,5c3.22,3.22,5,7.51,5,12.06s-1.77,8.84-5,12.06c-3.22,3.22-7.51,5-12.06,5ZM24,4.55c-4.26,0-8.26,1.66-11.27,4.67-3.01,3.01-4.67,7.02-4.67,11.27s1.66,8.26,4.67,11.27,7.02,4.67,11.27,4.67,8.26-1.66,11.27-4.67c3.01-3.01,4.67-7.02,4.67-11.27s-1.66-8.26-4.67-11.27c-3.01-3.01-7.02-4.67-11.27-4.67Z" fill="#1d1e1e" stroke-width="0"/>
  <path d="M31.34,24.79c0-1.55-.6-3.04-1.66-4.16-1.06-1.13-2.51-1.81-4.05-1.91v-5.64c.42.11.81.3,1.16.56s.63.59.85.96c.11.19.25.35.42.48.17.13.36.23.57.28.21.06.42.07.64.04.21-.03.42-.1.6-.21.19-.11.35-.25.48-.42s.23-.36.28-.57c.06-.21.07-.42.04-.64-.03-.21-.1-.42-.21-.6-.51-.87-1.2-1.61-2.04-2.17s-1.79-.91-2.79-1.04v-.87c0-.22-.03-.43-.11-.64-.08-.2-.2-.39-.35-.54-.15-.16-.33-.28-.53-.36s-.42-.13-.63-.13-.43.04-.63.13c-.2.08-.38.21-.53.36-.15.16-.27.34-.35.54s-.12.42-.11.64v.86c-1.55.1-3,.78-4.06,1.91-1.06,1.13-1.65,2.62-1.65,4.17s.59,3.04,1.65,4.17c1.06,1.13,2.51,1.81,4.06,1.91v5.75c-.38,0-.76-.09-1.1-.26s-.64-.42-.86-.72c-.13-.17-.29-.32-.47-.43-.18-.11-.39-.18-.6-.22-.21-.03-.43-.02-.64.03-.21.05-.41.15-.58.28-.17.13-.32.29-.43.48-.11.19-.18.39-.21.61-.03.21-.02.43.04.64.06.21.15.4.28.58.53.71,1.22,1.28,2.02,1.68.79.4,1.67.6,2.55.61v1.2c0,.22.03.43.11.64.08.2.2.39.35.54.15.16.33.28.53.36s.42.13.63.13.43-.04.63-.13c.2-.08.38-.21.53-.36.15-.16.27-.34.35-.54s.12-.42.11-.64v-1.24c1.54-.1,2.99-.78,4.05-1.91,1.06-1.13,1.65-2.62,1.66-4.16v-.03ZM19.92,15.82c0-.69.25-1.35.7-1.87.45-.52,1.07-.86,1.75-.95v5.63c-.68-.1-1.3-.43-1.75-.95s-.7-1.18-.7-1.86ZM25.63,27.61v-5.63c.68.1,1.3.43,1.75.95s.7,1.18.7,1.86-.25,1.35-.7,1.86c-.45.52-1.07.85-1.75.95h0Z" fill="#009cde" stroke-width="0"/>
  <path d="M24,34.26c-.28,0-.56-.06-.82-.16-.26-.11-.49-.27-.69-.47s-.35-.44-.45-.7c-.1-.26-.15-.54-.15-.82v-.73c-.79-.06-1.58-.28-2.29-.64-.85-.43-1.61-1.06-2.18-1.82-.17-.22-.29-.47-.36-.74s-.09-.55-.05-.83.13-.54.27-.78c.14-.24.33-.45.55-.62.23-.17.48-.29.75-.36s.55-.08.83-.04c.28.04.54.13.78.28.24.15.45.33.61.56.18.24.42.44.69.58.13.06.26.11.4.15v-4.78c-1.5-.2-2.89-.9-3.93-2.01-1.15-1.22-1.78-2.82-1.78-4.5s.63-3.28,1.78-4.5c1.05-1.11,2.43-1.82,3.93-2.01v-.42c0-.27.04-.55.15-.81.1-.26.25-.5.45-.7s.43-.36.69-.47c.52-.22,1.11-.22,1.64,0,.26.11.49.27.69.47s.35.44.45.7c.1.26.15.54.15.82v.45c.92.17,1.8.53,2.58,1.05.9.59,1.65,1.4,2.19,2.32.14.24.23.5.27.78s.02.55-.05.82c-.07.27-.19.52-.36.74-.17.22-.38.4-.62.54-.24.14-.5.23-.78.27-.28.04-.55.02-.82-.05-.27-.07-.51-.19-.74-.36-.22-.17-.41-.38-.54-.62-.19-.32-.43-.6-.73-.82-.12-.09-.25-.18-.39-.25v4.52c1.5.2,2.88.91,3.92,2.02,1.15,1.22,1.78,2.82,1.79,4.49h0c0,1.68-.64,3.27-1.79,4.49-1.04,1.11-2.42,1.82-3.92,2.02v.81c0,.27-.04.55-.15.81-.1.26-.26.5-.45.7-.2.2-.43.36-.69.47s-.54.16-.82.16h-.01ZM19.09,26.48c-.1,0-.19.01-.28.04-.15.04-.29.1-.41.2-.12.09-.22.21-.3.34-.08.13-.13.28-.15.43s-.01.3.03.45c.04.15.11.28.2.41.49.65,1.13,1.18,1.85,1.54.72.36,1.53.55,2.34.56.26,0,.48.21.48.48v1.2c0,.17.02.32.08.46s.14.27.25.38.24.2.38.26c.28.12.61.12.89,0,.14-.06.27-.15.38-.26.11-.11.19-.24.25-.38s.08-.3.08-.45v-1.25c0-.25.2-.46.45-.48,1.43-.09,2.76-.72,3.74-1.76.98-1.04,1.52-2.4,1.53-3.84,0-1.43-.55-2.79-1.53-3.84-.98-1.04-2.31-1.67-3.74-1.76-.25-.02-.45-.23-.45-.48v-5.64c0-.15.07-.29.19-.38s.27-.12.41-.08c.48.12.93.34,1.33.64s.73.67.98,1.1c.08.13.18.25.3.34.12.09.26.16.4.2.15.04.3.05.45.03.15-.02.29-.07.43-.15.13-.08.25-.18.34-.3s.16-.26.2-.4.05-.3.03-.45-.07-.29-.15-.43c-.46-.8-1.12-1.49-1.89-2.01-.77-.52-1.67-.85-2.59-.96-.24-.03-.42-.23-.42-.47v-.87c0-.16-.02-.32-.08-.46s-.14-.27-.25-.38c-.11-.11-.23-.2-.38-.26-.29-.12-.61-.12-.9,0-.14.06-.27.15-.38.26-.11.11-.19.24-.25.38s-.08.3-.08.45v.87c0,.25-.2.46-.45.48-1.43.09-2.76.71-3.74,1.76-.98,1.04-1.52,2.41-1.52,3.84s.54,2.8,1.52,3.84,2.31,1.67,3.74,1.76c.25.02.45.22.45.48v5.75c0,.27-.19.5-.49.48-.45,0-.9-.11-1.3-.31-.41-.2-.76-.5-1.03-.87-.09-.12-.2-.23-.34-.31-.13-.08-.27-.13-.43-.15-.06,0-.11-.01-.17-.01v-.02ZM25.63,28.08c-.11,0-.23-.04-.31-.12-.1-.09-.16-.22-.16-.36v-5.63c0-.14.06-.27.16-.36s.24-.13.38-.11c.79.11,1.52.5,2.04,1.11.53.6.81,1.38.81,2.18s-.29,1.57-.81,2.18c-.53.6-1.25,1-2.04,1.11h-.07ZM26.11,22.59v4.39c.35-.14.66-.36.91-.64.37-.43.58-.98.58-1.55s-.21-1.12-.58-1.55c-.25-.29-.56-.51-.91-.64h0ZM22.37,19.1h-.07c-.79-.11-1.52-.51-2.04-1.11-.53-.6-.82-1.37-.82-2.17h0c0-.8.29-1.58.81-2.18.53-.6,1.25-1,2.04-1.11.14-.02.28.02.38.11.11.09.17.22.17.36v5.63c0,.14-.06.27-.17.36-.09.08-.2.12-.31.12h.01ZM20.4,15.81c0,.57.21,1.12.58,1.55.25.29.56.51.91.64v-4.39c-.35.14-.66.36-.91.65-.37.43-.58.98-.58,1.55Z" fill="#1d1e1e" stroke-width="0"/>
</svg>