<?xml version="1.0" encoding="UTF-8"?>
<svg id="Layer_1" data-name="Layer 1" xmlns="http://www.w3.org/2000/svg" viewBox="0 0 48 48">
  <rect x="3.99" y=".49" width="40.02" height="40.02" rx="5.12" ry="5.12" fill="#e6f1fa" stroke-width="0"/>
  <path d="M39.42.77H9.1c-2.55,0-4.64,2.09-4.64,4.64v4.13c0-2.55,2.09-4.64,4.64-4.64h30.32c2.55,0,4.64,2.09,4.64,4.64v-4.13c0-2.55-2.09-4.64-4.64-4.64Z" fill="#fff" stroke-width="0"/>
  <path d="M39.32,41H8.68c-2.86,0-5.18-2.32-5.18-5.18V5.18C3.5,2.32,5.82,0,8.68,0h30.64c2.86,0,5.18,2.32,5.18,5.18v30.64c0,2.86-2.32,5.18-5.18,5.18ZM8.68.98c-2.32,0-4.2,1.89-4.2,4.2v30.64c0,2.32,1.89,4.2,4.2,4.2h30.64c2.32,0,4.2-1.89,4.2-4.2V5.18c0-2.32-1.89-4.2-4.2-4.2H8.68Z" fill="#1d1e1e" stroke-width="0"/>
  <path d="M39.32,41H8.68c-2.86,0-5.18-2.32-5.18-5.18V5.18C3.5,2.32,5.82,0,8.68,0h30.64c2.86,0,5.18,2.32,5.18,5.18v30.64c0,2.86-2.32,5.18-5.18,5.18ZM8.68.98c-2.32,0-4.2,1.89-4.2,4.2v30.64c0,2.32,1.89,4.2,4.2,4.2h30.64c2.32,0,4.2-1.89,4.2-4.2V5.18c0-2.32-1.89-4.2-4.2-4.2H8.68Z" fill="#1d1e1e" stroke-width="0"/>
  <path d="M33.96,12.92h-13.44c-.31,0-.56-.25-.56-.56s.25-.56.56-.56h13.44c.31,0,.56.25.56.56s-.25.56-.56.56Z" fill="#1d1e1e" stroke-width="0"/>
  <path d="M33.96,19.04h-13.44c-.31,0-.56-.25-.56-.56s.25-.56.56-.56h13.44c.31,0,.56.25.56.56s-.25.56-.56.56Z" fill="#1d1e1e" stroke-width="0"/>
  <path d="M33.96,25.19h-13.44c-.31,0-.56-.25-.56-.56s.25-.56.56-.56h13.44c.31,0,.56.25.56.56s-.25.56-.56.56Z" fill="#1d1e1e" stroke-width="0"/>
  <path d="M33.96,31.31h-13.44c-.31,0-.56-.25-.56-.56s.25-.56.56-.56h13.44c.31,0,.56.25.56.56s-.25.56-.56.56Z" fill="#1d1e1e" stroke-width="0"/>
  <circle cx="14.88" cy="12.35" r="1.5" fill="#009cde" stroke-width="0"/>
  <circle cx="14.88" cy="18.49" r="1.5" fill="#009cde" stroke-width="0"/>
  <circle cx="14.88" cy="24.62" r="1.5" fill="#009cde" stroke-width="0"/>
  <circle cx="14.88" cy="30.74" r="1.5" fill="#009cde" stroke-width="0"/>
</svg>