<?xml version="1.0" encoding="UTF-8"?>
<svg id="Layer_1" data-name="Layer 1" xmlns="http://www.w3.org/2000/svg" viewBox="0 0 48 48">
  <path d="M8.03.53h31.95v39.94H8.03V.53Z" fill="#fff" stroke-width="0"/>
  <path d="M39.96,3.44v2.9c0-.77-.31-1.51-.85-2.05-.54-.54-1.28-.85-2.05-.85H10.93c-.77,0-1.51.31-2.05.85s-.85,1.28-.85,2.05v-2.9c0-.77.31-1.51.85-2.05.54-.54,1.28-.85,2.05-.85h26.14c.77,0,1.51.31,2.05.85.54.54.85,1.28.85,2.05h0Z" fill="#fff" stroke-width="0"/>
  <path d="M39.96,41H8.03c-.29,0-.53-.24-.53-.53V.53c0-.29.24-.53.53-.53h31.95c.29,0,.53.24.53.53v39.94c0,.29-.24.53-.53.53h0ZM8.55,39.93h30.88V1.07H8.56v38.86h0Z" fill="#1d1e1e" stroke-width="0"/>
  <path d="M10.2,3.44h27.59v32.67H10.2V3.44Z" fill="#f1eaf3" stroke-width="0"/>
  <path d="M37.79,4.16v.51l-27.6,30.5V4.16c0-.19.08-.38.21-.51.14-.14.32-.21.51-.21h26.14c.19,0,.38.08.51.21.14.14.21.32.21.51h.02Z" fill="#fff" stroke-width="0"/>
  <path d="M16.66,12.73c-.14,0-.27-.05-.37-.15l-1.03-.97c-.21-.2-.22-.54-.02-.75s.54-.22.75-.02l.62.58,2.37-2.86c.19-.23.53-.26.75-.07.23.19.26.52.07.75l-2.73,3.3c-.09.11-.23.18-.38.19h-.03Z" fill="#702f8a" stroke-width="0"/>
  <path d="M16.66,19.78c-.14,0-.27-.05-.37-.15l-1.03-.98c-.21-.2-.22-.54-.02-.75s.54-.22.75-.02l.62.58,2.37-2.86c.19-.23.53-.26.75-.07.23.19.26.52.07.75l-2.73,3.3c-.09.11-.23.18-.38.19h-.03Z" fill="#702f8a" stroke-width="0"/>
  <path d="M16.66,26.83c-.14,0-.27-.05-.37-.15l-1.03-.97c-.21-.2-.22-.54-.02-.75s.54-.22.75-.02l.62.58,2.37-2.86c.19-.23.53-.26.75-.07.23.19.26.52.07.75l-2.73,3.3c-.09.11-.23.18-.38.19h-.03Z" fill="#702f8a" stroke-width="0"/>
  <path d="M31.59,11.08h-9.74c-.29,0-.53-.24-.53-.53s.24-.53.53-.53h9.74c.29,0,.53.24.53.53s-.24.53-.53.53Z" fill="#1d1e1e" stroke-width="0"/>
  <path d="M31.59,18.24h-9.74c-.29,0-.53-.24-.53-.53s.24-.53.53-.53h9.74c.29,0,.53.24.53.53s-.24.53-.53.53Z" fill="#1d1e1e" stroke-width="0"/>
  <path d="M31.59,25.29h-9.74c-.29,0-.53-.24-.53-.53s.24-.53.53-.53h9.74c.29,0,.53.24.53.53s-.24.53-.53.53Z" fill="#1d1e1e" stroke-width="0"/>
  <path d="M37.79,36.64H10.2c-.29,0-.53-.24-.53-.53V3.44c0-.29.24-.53.53-.53h27.59c.29,0,.53.24.53.53v32.67c0,.29-.24.53-.53.53h0ZM10.74,35.57h26.53V3.97H10.74v31.61h0Z" fill="#1d1e1e" stroke-width="0"/>
  <path d="M23.48,38.28c0,.14.06.27.15.37s.23.15.37.15.27-.06.37-.15.15-.23.15-.37-.06-.27-.15-.37c-.1-.1-.23-.15-.37-.15s-.27.06-.37.15c-.1.1-.15.23-.15.37h0Z" fill="#1d1e1e" stroke-width="0"/>
  <path d="M24,39.37c-.29,0-.57-.11-.77-.32-.21-.21-.32-.48-.32-.77s.12-.57.32-.77c.41-.41,1.13-.41,1.54,0,.2.2.32.48.32.77s-.11.56-.32.77-.48.32-.77.32ZM24.03,38.25v.03-.03Z" fill="#1d1e1e" stroke-width="0"/>
</svg>