<?xml version="1.0" encoding="UTF-8"?>
<svg id="Layer_1" data-name="Layer 1" xmlns="http://www.w3.org/2000/svg" viewBox="0 0 48 48">
  <rect x="4.03" y=".49" width="39.98" height="39.98" rx="5.04" ry="5.04" fill="#e6f1fa" stroke-width="0"/>
  <path d="M39.32,40.96H8.72c-2.85,0-5.18-2.32-5.18-5.18V5.18C3.54,2.32,5.86,0,8.72,0h30.61c2.85,0,5.18,2.32,5.18,5.18v30.61c0,2.85-2.32,5.18-5.18,5.18ZM8.72.98c-2.32,0-4.2,1.88-4.2,4.2v30.61c0,2.32,1.88,4.2,4.2,4.2h30.61c2.32,0,4.2-1.88,4.2-4.2V5.18c0-2.32-1.88-4.2-4.2-4.2H8.72Z" fill="#1d1e1e" stroke-width="0"/>
  <path d="M39.32.49H8.72c-2.58,0-4.69,2.11-4.69,4.69v4.17c0-2.58,2.11-4.69,4.69-4.69h30.61c2.58,0,4.69,2.11,4.69,4.69v-4.17c0-2.58-2.11-4.69-4.69-4.69Z" fill="#fff" stroke-width="0"/>
  <path d="M39.32,40.96H8.72c-2.85,0-5.18-2.32-5.18-5.18V5.18C3.54,2.32,5.86,0,8.72,0h30.61c2.85,0,5.18,2.32,5.18,5.18v30.61c0,2.85-2.32,5.18-5.18,5.18ZM8.72.98c-2.32,0-4.2,1.88-4.2,4.2v30.61c0,2.32,1.88,4.2,4.2,4.2h30.61c2.32,0,4.2-1.88,4.2-4.2V5.18c0-2.32-1.88-4.2-4.2-4.2H8.72Z" fill="#1d1e1e" stroke-width="0"/>
  <path d="M39.28,40.96H8.68c-2.85,0-5.18-2.32-5.18-5.18V5.18C3.5,2.32,5.82,0,8.68,0h30.61c2.85,0,5.18,2.32,5.18,5.18v30.61c0,2.85-2.32,5.18-5.18,5.18ZM8.68.98c-2.32,0-4.2,1.88-4.2,4.2v30.61c0,2.32,1.88,4.2,4.2,4.2h30.61c2.32,0,4.2-1.88,4.2-4.2V5.18c0-2.32-1.88-4.2-4.2-4.2H8.68Z" fill="#1d1e1e" stroke-width="0"/>
  <path d="M39.28,40.96H8.68c-2.85,0-5.18-2.32-5.18-5.18V5.18C3.5,2.32,5.82,0,8.68,0h30.61c2.85,0,5.18,2.32,5.18,5.18v30.61c0,2.85-2.32,5.18-5.18,5.18ZM8.68.98c-2.32,0-4.2,1.88-4.2,4.2v30.61c0,2.32,1.88,4.2,4.2,4.2h30.61c2.32,0,4.2-1.88,4.2-4.2V5.18c0-2.32-1.88-4.2-4.2-4.2H8.68Z" fill="#1d1e1e" stroke-width="0"/>
  <path d="M39.3,40.97H8.7c-2.85,0-5.18-2.32-5.18-5.18V5.18C3.52,2.33,5.84,0,8.7,0h30.61c2.85,0,5.18,2.32,5.18,5.18v30.61c0,2.85-2.32,5.18-5.18,5.18ZM8.7.98c-2.32,0-4.2,1.88-4.2,4.2v30.61c0,2.32,1.88,4.2,4.2,4.2h30.61c2.32,0,4.2-1.88,4.2-4.2V5.18c0-2.32-1.88-4.2-4.2-4.2H8.7Z" fill="#1d1e1e" stroke-width="0"/>
  <path d="M33.75,21.71c.21-.12.39-.3.51-.51.12-.21.19-.46.19-.71s-.07-.49-.19-.71c-.12-.21-.3-.39-.51-.51l-15.06-8.69c-.21-.12-.46-.19-.71-.19s-.49.07-.71.19c-.21.12-.39.3-.51.51s-.19.46-.19.71v17.38c0,.25.07.49.19.71.12.21.3.39.51.51.21.12.46.19.71.19s.49-.06.71-.19l15.06-8.69Z" fill="#009cde" stroke-width="0"/>
  <path d="M33.23,22.01l.52-.3c.21-.12.39-.3.51-.51.12-.21.19-.46.19-.71s-.07-.49-.19-.71c-.12-.21-.3-.39-.51-.51l-15.06-8.69c-.21-.12-.46-.19-.71-.19s-.49.07-.71.19c-.21.12-.39.3-.51.51s-.19.46-.19.71v3.07c0-.25.06-.49.19-.71.12-.21.3-.39.52-.51.21-.13.46-.19.71-.19s.49.07.71.19l14.53,8.39" fill="#71c5e8" stroke-width="0"/>
  <path d="M18,31.16h0c-.34,0-.69-.09-.99-.26s-.56-.42-.73-.73-.26-.65-.26-.99V11.79c0-.35.09-.69.26-.99.17-.3.42-.56.73-.73.6-.34,1.37-.34,1.98,0l15.06,8.69c.3.17.56.42.73.73.17.3.26.65.26.99s-.09.69-.26.99-.42.56-.73.73l-15.06,8.69c-.3.17-.65.26-.99.26h0ZM18,10.93c-.15,0-.29.04-.42.11s-.24.18-.31.31-.11.28-.11.42v17.4c0,.15.04.29.11.42s.18.24.31.31.27.11.42.11h0c.15,0,.29-.04.42-.11l15.06-8.69h0c.13-.07.24-.18.31-.31.08-.13.11-.28.11-.42s-.04-.29-.11-.42-.18-.24-.31-.31l-15.06-8.69c-.13-.07-.27-.11-.42-.11v-.02Z" fill="#1d1e1e" stroke-width="0"/>
</svg>