<?xml version="1.0" encoding="UTF-8"?>
<svg id="Layer_1" xmlns="http://www.w3.org/2000/svg" width="32" height="32" version="1.1" viewBox="0 0 32 32">
  <!-- Generator: Adobe Illustrator 29.7.1, SVG Export Plug-In . SVG Version: 2.1.1 Build 8)  -->
  <circle cx="16" cy="16" r="16" fill="#fff"/>
  <path d="M10.31,10c2.37,0,4.29,1.7,4.29,3.8v10.95c0,.68-.56,1.26-1.25,1.26h-1.29c-.68,0-1.25-.56-1.25-1.26v-7.19c-.18.02-.34.03-.52.03-1.1,0-2.09-.38-2.84-1-.13.1-.27.19-.34.22l-.13.06h-.77v-.03c-1.28-.14-2.19-1.09-2.19-2.31v-1.6c0-1.29,1.05-2.33,2.33-2.33h.51c.29,0,.55.11.74.3.74-.55,1.68-.89,2.72-.89h.01ZM21.7,10c1.04,0,1.98.34,2.72.89.19-.19.45-.3.74-.3h.51c1.29,0,2.33,1.05,2.33,2.33v1.6c0,1.22-.91,2.18-2.18,2.31v.03h-.78l-.13-.06c-.07-.03-.21-.11-.34-.22-.76.61-1.74,1-2.84,1-.18,0-.34-.01-.52-.03v7.19c0,.7-.57,1.26-1.25,1.26h-1.29c-.69,0-1.25-.57-1.25-1.26v-10.95c0-2.1,1.92-3.8,4.29-3.8h.01ZM10.32,11.35c-.99,0-1.86.42-2.4,1.04v2.82c.53.62,1.4,1.03,2.39,1.04.33,0,.66-.05.98-.15l.88-.28v8.84h1.09v-10.85c0-1.35-1.32-2.45-2.94-2.45h0ZM21.67,11.35c-1.62,0-2.94,1.1-2.94,2.45v10.85h1.09v-8.84l.88.28c.32.1.65.15.98.15.99,0,1.86-.41,2.39-1.04v-2.82c-.54-.62-1.41-1.04-2.4-1.04h0ZM6.37,11.94c-.54,0-.99.45-.99.99v1.6c0,.57.48.99,1.13.99h.05v-3.57h-.2ZM25.44,11.94v3.57h.05c.65,0,1.13-.41,1.13-.99v-1.6c0-.54-.45-.99-.99-.99h-.2Z" fill="#1e1e1e"/>
  <path d="M16,0c-3.16,0-6.26.94-8.89,2.7-2.63,1.76-4.68,4.26-5.89,7.18C0,12.8-.31,16.02.31,19.12c.62,3.1,2.14,5.95,4.38,8.19,2.24,2.24,5.09,3.76,8.19,4.38,3.1.62,6.32.3,9.24-.91,2.92-1.21,5.42-3.26,7.18-5.89,1.76-2.63,2.7-5.72,2.7-8.89,0-4.24-1.69-8.31-4.69-11.31C24.31,1.69,20.24,0,16,0ZM16,30.12c-2.77,0-5.48-.81-7.79-2.34-2.31-1.53-4.12-3.7-5.2-6.25s-1.39-5.36-.89-8.08c.5-2.72,1.79-5.24,3.72-7.23l19.95,20c-2.63,2.52-6.14,3.91-9.78,3.9ZM27.05,24.78L7.23,5c2.71-2.15,6.12-3.24,9.58-3.04,3.46.2,6.72,1.66,9.17,4.11,2.45,2.45,3.91,5.72,4.11,9.17.2,3.46-.89,6.87-3.04,9.58v-.05Z" fill="#ab2334"/>
</svg>