<svg width="40" height="40" viewBox="0 0 40 40" fill="none" xmlns="http://www.w3.org/2000/svg">
    <path d="M20 40c11.046 0 20-8.954 20-20S31.046 0 20 0 0 8.954 0 20s8.954 20 20 20z" fill="#F0F0F0"/>
    <path fill-rule="evenodd" clip-rule="evenodd" d="M31.51 25.352a1.781 1.781 0 0 1-1.76 1.8h-19a1.78 1.78 0 0 1-1.75-1.8h22.51zM27.91 12a1.78 1.78 0 0 1 1.77 1.78v10h-1.77v-10h-15.36v10h-1.77v-10a1.78 1.78 0 0 1 1.77-1.78h15.36zm-7.866 3.729a.9.9 0 1 1 .352 1.764.9.9 0 0 1-.352-1.764z" fill="#1E1E1E"/>
</svg>
