<?xml version="1.0" encoding="UTF-8"?>
<svg id="Layer_1" data-name="Layer 1" xmlns="http://www.w3.org/2000/svg" viewBox="0 0 48 48">
  <path d="M15.66,39.68c0,.21.08.42.23.57s.35.23.57.23h23.25c.21,0,.42-.08.57-.23.15-.15.23-.35.23-.57V13.62l-6.81-6.81h-17.24c-.11,0-.21.02-.31.06s-.19.1-.26.17c-.07.07-.13.16-.17.26-.04.1-.06.2-.06.31v32.07Z" fill="#fff" stroke-width="0"/>
  <path d="M20.63,19.85h15.01v14.41h-15.01v-14.41Z" fill="#f1eaf3" stroke-width="0"/>
  <path d="M36.16,34.78h-16.05v-15.45h16.05v15.45ZM21.15,33.74h13.97v-13.37h-13.97v13.37Z" fill="#1d1e1e" stroke-width="0"/>
  <path d="M23.88,25.38c0,.48.19.94.53,1.28s.8.53,1.28.53.94-.19,1.28-.53.53-.8.53-1.28-.19-.94-.53-1.28-.8-.53-1.28-.53-.94.19-1.28.53-.53.8-.53,1.28Z" fill="#9c59b2" stroke-width="0"/>
  <path d="M25.69,27.71c-.62,0-1.21-.24-1.65-.68-.44-.44-.68-1.02-.68-1.65s.24-1.21.68-1.65c.88-.88,2.41-.88,3.29,0,.44.44.68,1.03.68,1.65s-.24,1.21-.68,1.65-1.03.68-1.65.68h.01ZM25.69,24.1c-.34,0-.67.14-.91.38s-.38.57-.38.91.13.67.38.91c.48.48,1.33.48,1.82,0,.24-.24.38-.57.38-.91s-.13-.67-.38-.91c-.24-.24-.57-.38-.91-.38Z" fill="#1d1e1e" stroke-width="0"/>
  <path d="M35.63,31.38v1.68c0,.32-.13.62-.35.85-.23.23-.53.35-.85.35h-12.61c-.32,0-.62-.13-.85-.35-.23-.23-.35-.53-.35-.85v-1.13l3.08-2.69c.17-.15.4-.23.63-.23s.45.1.61.27l1.23,1.23c.11.11.27.18.42.18s.31-.06.42-.18l3.81-3.81c.09-.09.2-.16.32-.21.12-.04.25-.06.38-.05.13,0,.26.04.37.1s.21.15.29.25l3.44,4.58h0Z" fill="#9c59b2" stroke-width="0"/>
  <path d="M34.43,34.78h-12.61c-.46,0-.89-.18-1.22-.51-.32-.32-.5-.76-.5-1.22v-1.13c0-.15.07-.29.18-.39l3.08-2.69c.27-.24.62-.37.99-.35.37.01.71.16.96.42l1.23,1.23h.11l3.81-3.81c.14-.14.32-.26.51-.33s.4-.1.6-.08c.19,0,.39.07.57.17s.34.24.46.41l3.44,4.57c.07.09.1.2.1.31v1.68c0,.46-.18.89-.5,1.22-.32.32-.76.5-1.22.5ZM21.15,32.16v.9c0,.18.07.35.2.48s.3.2.48.2h12.61c.18,0,.35-.07.48-.2s.2-.3.2-.48v-1.5l-3.34-4.44c-.04-.05-.08-.09-.12-.11-.05-.02-.1-.04-.15-.04-.07,0-.12,0-.17.02s-.09.05-.13.08l-3.81,3.81c-.42.42-1.16.43-1.59,0l-1.23-1.23c-.07-.07-.16-.11-.26-.12-.09,0-.19.03-.26.09l-2.9,2.54Z" fill="#1d1e1e" stroke-width="0"/>
  <path d="M39.71,41h-23.25c-.35,0-.69-.14-.94-.39-.25-.24-.39-.59-.39-.93V7.61c0-.17.03-.34.1-.51.07-.16.16-.31.29-.43.12-.12.27-.22.43-.29s.33-.1.51-.1h17.24c.14,0,.27.06.37.15l6.81,6.81c.1.1.15.23.15.37v26.06c0,.35-.14.69-.39.94s-.58.39-.93.39ZM16.46,7.33s-.07,0-.11.02c-.03.01-.06.03-.09.06-.03.03-.05.06-.06.09-.01.04-.02.07-.02.11v32.07c0,.07.03.15.08.2s.12.08.2.08h23.25c.07,0,.14-.03.2-.08s.08-.12.08-.2V13.84l-6.51-6.51h-17.02Z" fill="#1d1e1e" stroke-width="0"/>
  <path d="M33.68,6.81v6.06c0,.2.08.39.22.53.14.14.33.22.53.22h6.06l-6.81-6.81Z" fill="#702f8a" stroke-width="0"/>
  <path d="M40.5,14.14h-6.06c-.33,0-.66-.14-.9-.37-.24-.24-.37-.56-.37-.9v-6.06c0-.21.13-.4.32-.48.2-.08.42-.04.57.11l6.81,6.81c.15.15.19.37.11.57-.08.2-.27.32-.48.32ZM34.2,8.07v4.8c0,.06.02.12.07.16.04.04.1.07.16.07h4.8l-5.03-5.03Z" fill="#1d1e1e" stroke-width="0"/>
  <path d="M7.49,9.82c0,1.22.24,2.43.71,3.57.47,1.13,1.15,2.16,2.02,3.02.87.87,1.89,1.55,3.02,2.02,1.13.47,2.34.71,3.57.71s2.43-.24,3.57-.71c1.13-.47,2.16-1.15,3.02-2.02.87-.87,1.55-1.89,2.02-3.02.47-1.13.71-2.34.71-3.57s-.24-2.43-.71-3.57c-.47-1.13-1.15-2.16-2.02-3.02-.87-.87-1.89-1.55-3.02-2.02-1.13-.47-2.34-.71-3.57-.71s-2.43.24-3.57.71c-1.13.47-2.16,1.15-3.02,2.02-.87.87-1.55,1.89-2.02,3.02-.47,1.13-.71,2.34-.71,3.57h0Z" fill="#702f8a" stroke-width="0"/>
  <path d="M7.66,11.62c-.26-1.35-.23-2.74.11-4.07.34-1.33.96-2.57,1.83-3.63.87-1.06,1.97-1.92,3.21-2.51,1.24-.59,2.6-.9,3.97-.9s2.73.3,3.97.88c1.24.58,2.34,1.43,3.22,2.49s1.51,2.29,1.85,3.62c.34,1.33.39,2.72.13,4.07-.42-2.12-1.56-4.03-3.23-5.41-1.67-1.37-3.77-2.12-5.93-2.11-2.16,0-4.26.76-5.92,2.15-1.66,1.38-2.8,3.3-3.2,5.42" fill="#9c59b2" stroke-width="0"/>
  <path d="M16.81,19.66c-1.3,0-2.56-.25-3.76-.75s-2.27-1.22-3.19-2.13c-.92-.92-1.64-1.99-2.13-3.19-.5-1.2-.75-2.47-.75-3.76s.25-2.56.75-3.76c.5-1.2,1.21-2.27,2.13-3.19s1.99-1.64,3.19-2.13c2.4-.99,5.13-.99,7.53,0,1.2.5,2.27,1.21,3.19,2.13s1.64,1.99,2.13,3.19c.5,1.2.75,2.47.75,3.76s-.25,2.56-.75,3.76c-.5,1.2-1.22,2.27-2.13,3.19-.92.92-1.99,1.63-3.19,2.13-1.2.5-2.47.75-3.76.75h-.01ZM16.81,1.02c-1.16,0-2.29.22-3.37.67-1.07.44-2.03,1.09-2.85,1.91-.82.82-1.46,1.78-1.91,2.85-.44,1.07-.67,2.2-.67,3.37s.23,2.29.67,3.37c.44,1.07,1.09,2.03,1.91,2.85.82.82,1.78,1.46,2.85,1.91,2.15.89,4.59.89,6.73,0,1.07-.45,2.03-1.09,2.85-1.91s1.46-1.78,1.91-2.85c.44-1.07.67-2.2.67-3.37s-.22-2.29-.67-3.37c-.44-1.07-1.09-2.03-1.91-2.85-.82-.82-1.78-1.46-2.85-1.91-1.07-.44-2.2-.67-3.37-.67h.01Z" fill="#1d1e1e" stroke-width="0"/>
  <path d="M16.89,3.9c.14,0,.27.03.4.08.13.05.24.13.34.22l2.9,2.9c.1.1.17.21.23.34.05.13.08.26.08.4s-.03.27-.08.4-.13.24-.22.34-.21.17-.34.22c-.13.05-.26.08-.4.08s-.27-.03-.4-.08c-.13-.05-.24-.13-.34-.23l-.92-.92v7.02c0,.33-.13.64-.36.88-.23.23-.55.36-.88.36s-.64-.13-.88-.36c-.23-.23-.36-.55-.36-.88v-7.04l-.92.92c-.19.19-.46.3-.73.3s-.54-.11-.73-.3c-.19-.19-.3-.46-.3-.73s.11-.54.3-.73l2.9-2.9c.1-.1.21-.17.34-.22s.26-.08.4-.08h-.03Z" fill="#fff" stroke-width="0"/>
  <path d="M16.89,16.42c-.47,0-.91-.18-1.25-.52s-.52-.78-.52-1.25v-5.76l-.03.03c-.29.29-.69.45-1.1.45h0c-.41,0-.8-.16-1.1-.45-.29-.29-.46-.68-.46-1.1s.16-.8.45-1.1l2.9-2.9c.14-.14.31-.26.5-.34.38-.16.81-.16,1.19,0,.19.08.36.19.51.34l2.9,2.9c.14.14.26.31.34.5s.12.39.12.6-.04.41-.12.6-.19.36-.34.51c-.15.15-.32.26-.51.34s-.39.12-.6.12-.41-.04-.6-.12c-.19-.08-.36-.2-.51-.34l-.03-.03v5.76c0,.47-.18.91-.52,1.25-.33.33-.78.52-1.25.52h.03ZM16.17,6.38v8.28c0,.19.07.37.21.51.27.27.75.27,1.02,0,.14-.14.21-.32.21-.51V6.38l1.81,1.81s.11.09.17.12c.12.05.26.05.39,0,.06-.03.12-.06.17-.11.05-.05.08-.1.11-.17s.04-.13.04-.2-.01-.14-.04-.2-.06-.12-.11-.17l-2.9-2.9s-.1-.09-.17-.11c-.12-.05-.27-.05-.39,0-.06.03-.12.06-.16.11l-2.9,2.9c-.09.1-.15.22-.15.36s.05.26.15.36c.1.1.22.15.36.15.15.02.27-.05.36-.15l1.81-1.81h.01Z" fill="#1d1e1e" stroke-width="0"/>
</svg>