<?xml version="1.0" encoding="UTF-8"?>
<svg id="Layer_1" data-name="Layer 1" xmlns="http://www.w3.org/2000/svg" viewBox="0 0 48 48">
  <path d="M46.97,7.04c-.2-.19-.44-.34-.7-.44-.26-.1-.54-.14-.81-.13l-21.46,2.98L2.55,6.47c-.28-.01-.55.03-.81.13s-.5.25-.7.44c-.2.19-.36.42-.47.68s-.17.53-.16.81v26.31c0,.27.05.54.16.79.1.25.25.48.45.67.26.25.59.41.94.49.35.08.72.06,1.06-.05l3.5-1.05c4.07-1.22,8.39-1.27,12.49-.16l3.52.96c.98.27,2.02.27,3,0l3.52-.96c4.1-1.12,8.42-1.06,12.49.16l3.5,1.05c.34.11.71.13,1.06.05.35-.08.68-.25.94-.49.19-.19.34-.42.45-.67.1-.25.16-.52.16-.79V8.52c0-.28-.06-.55-.17-.81-.11-.26-.27-.49-.47-.68h-.04Z" fill="#c7dbff" stroke-width="0"/>
  <path d="M45.64,37.22c-.25,0-.51-.04-.75-.12l-3.49-1.05c-4-1.2-8.24-1.25-12.27-.15l-3.52.96c-1.05.29-2.16.29-3.21,0l-3.52-.96c-4.03-1.1-8.27-1.05-12.27.15l-3.5,1.05c-.4.13-.84.16-1.26.06-.42-.09-.81-.3-1.12-.59-.24-.24-.42-.5-.54-.8-.12-.3-.19-.61-.19-.94V8.52c0-.33.07-.66.2-.96.13-.31.32-.58.56-.81.24-.23.52-.41.83-.52.31-.12.64-.17.97-.15l21.44,2.97,21.4-2.97c.36-.02.69.03,1.01.15.31.12.59.29.83.52.24.23.43.5.56.81s.2.63.2.96v26.32c0,.32-.06.64-.19.94-.12.3-.3.57-.53.79-.33.3-.71.51-1.13.6-.17.04-.34.06-.51.06h0ZM35,34.33c2.23,0,4.47.33,6.63.97l3.5,1.05c.29.09.58.11.86.05s.54-.2.76-.4c.15-.15.27-.33.35-.53s.13-.42.13-.63V8.52c0-.23-.05-.44-.13-.65-.09-.21-.22-.39-.38-.55h0c-.16-.16-.35-.28-.56-.36-.21-.08-.44-.11-.66-.1l-21.42,2.98h-.11L2.49,6.86c-.19,0-.41.03-.62.11-.21.08-.4.2-.57.35-.16.16-.29.34-.38.55s-.13.43-.13.65v26.31c0,.22.04.43.13.64.08.2.2.38.36.54.2.19.46.32.75.39.28.06.58.05.85-.04l3.51-1.05c4.14-1.24,8.53-1.3,12.7-.16l3.52.96c.91.25,1.88.25,2.79,0l3.52-.96c1.99-.54,4.03-.81,6.07-.81h0Z" fill="#1d1e1e" stroke-width="0"/>
  <path d="M45.56,26.9v4.35c0,.32-.07.63-.21.91s-.34.53-.6.72c-.25.19-.54.32-.86.38-.31.06-.63.05-.94-.04-4.11-1.14-12.32-2.53-18.95,1.89v-4.11l21.55-4.1h0Z" fill="#618fff" stroke-width="0"/>
  <path d="M24,35.5c-.06,0-.13-.02-.19-.05-.13-.07-.21-.2-.21-.35v-4.11c0-.19.13-.35.32-.39l21.55-4.1c.11-.02.23,0,.32.08.09.07.14.19.14.3v4.35c0,.37-.09.75-.26,1.09s-.41.63-.71.86-.65.38-1.02.45-.75.05-1.12-.05c-4.19-1.16-12.18-2.47-18.63,1.83-.07.04-.14.07-.22.07l.03.02ZM24.39,31.33v3.06c6.59-4,14.48-2.71,18.66-1.55.25.07.51.08.76.03.25-.05.49-.15.69-.31.2-.15.37-.36.48-.58.11-.23.17-.48.17-.74v-3.87l-20.77,3.95h.01Z" fill="#1d1e1e" stroke-width="0"/>
  <path d="M24,35.11c5.4-2.7,11.35-4.11,17.39-4.11h2.11c.54,0,1.07-.22,1.45-.6.38-.38.6-.91.6-1.45V6.37c0-.54-.22-1.07-.6-1.45-.39-.38-.91-.6-1.45-.6h-2.11c-6.04,0-11.99,1.41-17.39,4.11v26.68Z" fill="#fff" stroke-width="0"/>
  <path d="M24,35.66c-.1,0-.2-.03-.29-.08-.16-.1-.26-.28-.26-.47V8.42c0-.21.12-.4.31-.49,5.45-2.72,11.55-4.16,17.64-4.16h2.11c.68,0,1.36.28,1.84.76.48.48.76,1.16.76,1.84v22.58c0,.69-.28,1.36-.76,1.84-.49.48-1.16.76-1.84.76h-2.11c-5.92,0-11.85,1.4-17.14,4.05-.08.04-.16.06-.25.06h0ZM24.55,8.77v25.46c5.24-2.47,11.04-3.78,16.84-3.78h2.11c.39,0,.78-.16,1.06-.44.28-.28.44-.67.44-1.06V6.37c0-.4-.16-.78-.44-1.06s-.67-.44-1.06-.44h-2.11c-5.81,0-11.62,1.35-16.84,3.9Z" fill="#1d1e1e" stroke-width="0"/>
  <path d="M2.45,26.9v4.35c0,.32.07.63.21.91s.34.53.6.72c.25.19.54.32.86.38.31.06.63.05.94-.04,4.11-1.14,12.32-2.53,18.95,1.89v-4.11L2.45,26.9Z" fill="#618fff" stroke-width="0"/>
  <path d="M24,35.5c-.08,0-.15-.02-.22-.07-6.45-4.3-14.44-2.99-18.63-1.83-.36.1-.75.12-1.12.05s-.72-.23-1.02-.45c-.3-.23-.54-.52-.71-.86s-.26-.71-.26-1.09v-4.35c0-.12.05-.23.14-.3.09-.08.21-.11.32-.08l21.55,4.1c.19.04.32.2.32.39v4.11c0,.15-.08.28-.21.35-.06.03-.12.05-.19.05l.03-.02ZM13.13,31.68c3.38,0,7.1.66,10.48,2.71v-3.06l-20.77-3.96v3.87c0,.25.06.51.17.74.11.23.28.43.48.58s.44.26.69.31c.25.05.51.04.76-.03,2.04-.57,4.96-1.16,8.18-1.16h.01Z" fill="#1d1e1e" stroke-width="0"/>
  <path d="M24,35.11c-5.4-2.7-11.35-4.11-17.39-4.11h-2.11c-.54,0-1.07-.22-1.45-.6s-.6-.91-.6-1.45V6.37c0-.54.22-1.07.6-1.45s.91-.6,1.45-.6h2.11c6.04,0,11.99,1.41,17.39,4.11v26.68Z" fill="#fff" stroke-width="0"/>
  <path d="M24,35.66c-.08,0-.17-.02-.25-.06-5.29-2.65-11.22-4.05-17.14-4.05h-2.11c-.69,0-1.35-.27-1.84-.76-.49-.48-.76-1.16-.76-1.84V6.37c0-.69.28-1.36.76-1.84.49-.49,1.15-.76,1.84-.76h2.11c6.09,0,12.19,1.44,17.64,4.16.19.09.3.28.3.49v26.68c0,.19-.1.37-.26.47-.09.05-.19.08-.29.08h0ZM4.5,4.87c-.39,0-.78.16-1.06.44s-.44.67-.44,1.06v22.58c0,.39.16.78.44,1.06s.67.44,1.06.44h2.11c5.79,0,11.6,1.3,16.84,3.78V8.76c-5.22-2.55-11.03-3.9-16.84-3.9h-2.11Z" fill="#1d1e1e" stroke-width="0"/>
  <path d="M24,35.66c-.1,0-.2-.03-.29-.08-.16-.1-.26-.28-.26-.47V8.42c0-.21.12-.4.31-.49,5.45-2.72,11.55-4.16,17.64-4.16h2.11c.68,0,1.36.28,1.84.76.48.48.76,1.16.76,1.84v22.58c0,.69-.28,1.36-.76,1.84-.49.48-1.16.76-1.84.76h-2.11c-5.92,0-11.85,1.4-17.14,4.05-.08.04-.16.06-.25.06h0ZM24.55,8.77v25.46c5.24-2.47,11.04-3.78,16.84-3.78h2.11c.39,0,.78-.16,1.06-.44.28-.28.44-.67.44-1.06V6.37c0-.4-.16-.78-.44-1.06s-.67-.44-1.06-.44h-2.11c-5.81,0-11.62,1.35-16.84,3.9Z" fill="#1d1e1e" stroke-width="0"/>
  <path d="M24,35.66c-.08,0-.17-.02-.25-.06-5.29-2.65-11.22-4.05-17.14-4.05h-2.11c-.69,0-1.35-.27-1.84-.76-.49-.48-.76-1.16-.76-1.84V6.37c0-.69.28-1.36.76-1.84.49-.49,1.15-.76,1.84-.76h2.11c6.09,0,12.19,1.44,17.64,4.16.19.09.3.28.3.49v26.68c0,.19-.1.37-.26.47-.09.05-.19.08-.29.08h0ZM4.5,4.87c-.39,0-.78.16-1.06.44s-.44.67-.44,1.06v22.58c0,.39.16.78.44,1.06s.67.44,1.06.44h2.11c5.79,0,11.6,1.3,16.84,3.78V8.76c-5.22-2.55-11.03-3.9-16.84-3.9h-2.11Z" fill="#1d1e1e" stroke-width="0"/>
  <path d="M43.53,25.34h-2.11c-6.04,0-11.99,1.41-17.39,4.11h0v5.08c5.4-2.7,11.35-4.11,17.39-4.11h2.11c.54,0,1.07-.22,1.45-.6.38-.38.6-.91.6-1.45v-5.08c0,.54-.22,1.07-.6,1.45-.38.38-.91.6-1.45.6Z" fill="#e6edf8" stroke-width="0"/>
  <path d="M4.53,25.34c-.54,0-1.07-.22-1.45-.6-.38-.38-.6-.91-.6-1.45v5.08c0,.54.22,1.07.6,1.45.38.38.91.6,1.45.6h2.11c6.04,0,11.99,1.41,17.39,4.11v-5.08c-5.4-2.7-11.35-4.11-17.39-4.11h-2.11Z" fill="#e6edf8" stroke-width="0"/>
  <path d="M24.03,35.66c-.08,0-.17-.02-.25-.06-5.29-2.65-11.22-4.05-17.14-4.05h-2.11c-.69,0-1.35-.27-1.84-.76-.49-.48-.76-1.16-.76-1.84V6.37c0-.69.28-1.36.76-1.84.49-.49,1.15-.76,1.84-.76h2.11c6.09,0,12.19,1.44,17.64,4.16.19.09.3.28.3.49v26.68c0,.19-.1.37-.26.47-.09.05-.19.08-.29.08h0ZM4.53,4.87c-.39,0-.78.16-1.06.44s-.44.67-.44,1.06v22.58c0,.39.16.78.44,1.06s.67.44,1.06.44h2.11c5.79,0,11.6,1.3,16.84,3.78V8.76c-5.22-2.55-11.03-3.9-16.84-3.9h-2.11Z" fill="#1d1e1e" stroke-width="0"/>
  <path d="M24,35.66c-.1,0-.2-.03-.29-.08-.16-.1-.26-.28-.26-.47V8.42c0-.21.12-.4.31-.49,5.45-2.72,11.55-4.16,17.64-4.16h2.11c.68,0,1.36.28,1.84.76.48.48.76,1.16.76,1.84v22.58c0,.69-.28,1.36-.76,1.84-.49.48-1.16.76-1.84.76h-2.11c-5.92,0-11.85,1.4-17.14,4.05-.08.04-.16.06-.25.06h0ZM24.55,8.77v25.46c5.24-2.47,11.04-3.78,16.84-3.78h2.11c.39,0,.78-.16,1.06-.44.28-.28.44-.67.44-1.06V6.37c0-.4-.16-.78-.44-1.06s-.67-.44-1.06-.44h-2.11c-5.81,0-11.62,1.35-16.84,3.9Z" fill="#1d1e1e" stroke-width="0"/>
</svg>