<svg width="16" height="16" viewBox="0 0 16 16" fill="none" xmlns="http://www.w3.org/2000/svg">
    <path fill-rule="evenodd" clip-rule="evenodd" d="M.96 13.44V3.36h14.08v10.08H.96zM0 3.2a.8.8 0 0 1 .8-.8h14.4a.8.8 0 0 1 .8.8v10.4a.8.8 0 0 1-.8.8H.8a.8.8 0 0 1-.8-.8V3.2zm13.6 7.2H2.4v1.12h11.2V10.4zM12 7.52a.32.32 0 0 1 .32-.32h.96a.32.32 0 0 1 .32.32v.96a.32.32 0 0 1-.32.32h-.96a.32.32 0 0 1-.32-.32v-.96zm.32-2.72a.32.32 0 0 0-.32.32v.96c0 .177.143.32.32.32h.96a.32.32 0 0 0 .32-.32v-.96a.32.32 0 0 0-.32-.32h-.96zm-3.52.32a.32.32 0 0 1 .32-.32h.96a.32.32 0 0 1 .32.32v.96a.32.32 0 0 1-.32.32h-.96a.32.32 0 0 1-.32-.32v-.96zM2.72 7.2a.32.32 0 0 0-.32.32v.96c0 .177.143.32.32.32h.96A.32.32 0 0 0 4 8.48v-.96a.32.32 0 0 0-.32-.32h-.96zM2.4 5.12a.32.32 0 0 1 .32-.32h.96a.32.32 0 0 1 .32.32v.96a.32.32 0 0 1-.32.32h-.96a.32.32 0 0 1-.32-.32v-.96zM5.92 7.2a.32.32 0 0 0-.32.32v.96c0 .177.143.32.32.32h.96a.32.32 0 0 0 .32-.32v-.96a.32.32 0 0 0-.32-.32h-.96zM5.6 5.12a.32.32 0 0 1 .32-.32h.96a.32.32 0 0 1 .32.32v.96a.32.32 0 0 1-.32.32h-.96a.32.32 0 0 1-.32-.32v-.96zM9.12 7.2a.32.32 0 0 0-.32.32v.96c0 .177.143.32.32.32h.96a.32.32 0 0 0 .32-.32v-.96a.32.32 0 0 0-.32-.32h-.96z" fill="#1E1E1E"/>
</svg>
