<?xml version="1.0" encoding="UTF-8"?>
<svg id="Layer_1" data-name="Layer 1" xmlns="http://www.w3.org/2000/svg" viewBox="0 0 48 48">
  <path d="M7.96,31.07L32.81,6.21l5.23,5.23-24.85,24.86-5.23-5.23Z" fill="#618fff" stroke-width="0"/>
  <path d="M32.81,6.21L7.97,31.08l2.62,2.62,24.85-24.86-2.63-2.63Z" fill="#c7dbff" stroke-width="0"/>
  <path d="M7.97,31.08c-.16.06-3.92,9.16-3.92,9.16l9.16-3.93-5.23-5.23h0Z" fill="#e6edf8" stroke-width="0"/>
  <path d="M13.2,36.84c-.14,0-.28-.05-.39-.16l-5.23-5.23c-.1-.1-.16-.24-.16-.39,0-.14.06-.28.16-.39L32.43,5.83c.2-.2.57-.2.77,0l5.23,5.23c.21.21.21.56,0,.77l-24.85,24.86c-.11.11-.25.16-.39.16h0ZM8.74,31.08l4.47,4.47,24.08-24.11-4.47-4.47L8.74,31.07h0Z" fill="#1d1e1e" stroke-width="0"/>
  <path d="M38.04,11.98c-.14,0-.28-.06-.39-.16l-5.23-5.23c-.1-.1-.16-.24-.16-.39,0-.14.06-.28.16-.39l2.62-2.62c.21-.21.56-.21.77,0l5.23,5.23c.21.21.21.56,0,.77l-2.62,2.62c-.1.1-.24.16-.39.16h0ZM33.58,6.22l4.47,4.47,1.85-1.85-4.47-4.47-1.85,1.85Z" fill="#1d1e1e" stroke-width="0"/>
  <path d="M42.63,6.86c.7-.7,1.08-1.63,1.08-2.62s-.39-1.92-1.08-2.62c-.7-.7-1.63-1.08-2.62-1.08s-1.92.39-2.62,1.08l-1.96,1.96,5.24,5.23,1.96-1.96h0Z" fill="#e6edf8" stroke-width="0"/>
  <path d="M42.62,1.63c-.35-.35-.76-.62-1.2-.81s-.93-.28-1.41-.28-.96.1-1.41.28c-.45.19-.86.46-1.2.81l-1.96,1.96,2.63,2.63,4.57-4.57s0,0,0-.02h0Z" fill="#fff" stroke-width="0"/>
  <path d="M40.67,9.37c-.14,0-.28-.06-.39-.16l-5.24-5.23c-.1-.1-.16-.24-.16-.39,0-.14.06-.28.16-.39l1.96-1.96c.81-.81,1.87-1.24,3-1.24s2.2.44,3,1.24c.81.8,1.24,1.87,1.24,3s-.44,2.2-1.24,3l-1.96,1.96c-.1.1-.24.16-.39.16h0ZM36.19,3.6l4.47,4.47,1.57-1.58h0c.59-.59.92-1.4.92-2.24s-.33-1.64-.92-2.24c-.6-.6-1.39-.92-2.24-.92s-1.64.33-2.23.92l-1.58,1.58h0Z" fill="#1d1e1e" stroke-width="0"/>
  <path d="M10.58,33.69l-2.62-2.62c-.16.05-3.88,9.05-3.92,9.15l6.53-6.53Z" fill="#fff" stroke-width="0"/>
  <path d="M4.04,40.77c-.14,0-.28-.05-.38-.16-.16-.16-.21-.39-.12-.6,3.85-9.33,3.95-9.36,4.25-9.47.2-.07.41-.02.56.13l5.23,5.23c.13.13.18.31.15.49s-.15.33-.32.4l-9.16,3.93c-.07.03-.14.04-.21.04h0ZM8.11,31.99c-.61,1.34-1.97,4.6-3.06,7.22l7.2-3.08-4.14-4.14Z" fill="#1d1e1e" stroke-width="0"/>
  <path d="M43.63,34.67l-5.18,5.18c-.52.52-1.36.52-1.88,0h0S4.73,8,4.73,8c-.52-.52-.52-1.36,0-1.88L9.9.94c.52-.52,1.36-.52,1.88,0,0,0,31.85,31.85,31.85,31.85.52.52.52,1.36,0,1.88,0,0,0,0,0,0Z" fill="#fff" stroke-width="0"/>
  <path d="M37.51,40.72c-.46,0-.93-.18-1.28-.53L4.38,8.34c-.7-.71-.7-1.86,0-2.56L9.56.6c.34-.34.8-.53,1.28-.53.48,0,.94.19,1.28.53l31.85,31.85c.71.7.71,1.85,0,2.56,0,0,0,0,0,0l-5.17,5.17c-.35.35-.82.53-1.28.53ZM10.84,1.03c-.23,0-.44.09-.6.25l-5.17,5.18c-.33.33-.33.87,0,1.2l31.85,31.85c.33.33.87.33,1.2,0l5.18-5.18h0c.33-.33.33-.87,0-1.2L11.44,1.28c-.16-.16-.37-.25-.6-.25Z" fill="#1d1e1e" stroke-width="0"/>
  <path d="M17.97,21.24l2.82-2.82" fill="#fff" stroke-width="0"/>
  <path d="M17.97,21.72c-.12,0-.25-.05-.34-.14-.19-.19-.19-.49,0-.68l2.82-2.82c.19-.19.49-.19.68,0s.19.49,0,.68l-2.82,2.82c-.09.09-.22.14-.34.14Z" fill="#1d1e1e" stroke-width="0"/>
  <path d="M20.59,23.85l2.35-2.35" fill="#fff" stroke-width="0"/>
  <path d="M20.59,24.34c-.12,0-.25-.05-.34-.14-.19-.19-.19-.49,0-.68l2.35-2.35c.19-.19.49-.19.68,0,.19.19.19.49,0,.68l-2.35,2.35c-.09.09-.22.14-.34.14Z" fill="#1d1e1e" stroke-width="0"/>
  <path d="M23.2,26.47l2.82-2.82" fill="#fff" stroke-width="0"/>
  <path d="M23.2,26.95c-.12,0-.25-.05-.34-.14-.19-.19-.19-.49,0-.68l2.82-2.82c.19-.19.49-.19.68,0,.19.19.19.49,0,.68l-2.82,2.82c-.09.09-.22.14-.34.14Z" fill="#1d1e1e" stroke-width="0"/>
  <path d="M25.81,29.08l2.35-2.35" fill="#fff" stroke-width="0"/>
  <path d="M25.81,29.57c-.12,0-.25-.05-.34-.14-.19-.19-.19-.49,0-.68l2.35-2.35c.19-.19.49-.19.68,0s.19.49,0,.68l-2.35,2.35c-.09.09-.22.14-.34.14Z" fill="#1d1e1e" stroke-width="0"/>
  <path d="M28.43,31.7l2.82-2.82" fill="#fff" stroke-width="0"/>
  <path d="M28.43,32.18c-.12,0-.25-.05-.34-.14-.19-.19-.19-.49,0-.68l2.82-2.82c.19-.19.49-.19.68,0,.19.19.19.49,0,.68l-2.82,2.82c-.09.09-.22.14-.34.14Z" fill="#1d1e1e" stroke-width="0"/>
  <path d="M31.04,34.31l2.35-2.35" fill="#fff" stroke-width="0"/>
  <path d="M31.04,34.79c-.12,0-.25-.05-.34-.14-.19-.19-.19-.49,0-.68l2.35-2.35c.19-.19.49-.19.68,0,.19.19.19.49,0,.68l-2.35,2.35c-.09.09-.22.14-.34.14Z" fill="#1d1e1e" stroke-width="0"/>
  <path d="M33.65,36.93l2.82-2.82" fill="#fff" stroke-width="0"/>
  <path d="M33.65,37.41c-.12,0-.25-.05-.34-.14-.19-.19-.19-.49,0-.68l2.82-2.82c.19-.19.49-.19.68,0s.19.49,0,.68l-2.82,2.82c-.09.09-.22.14-.34.14Z" fill="#1d1e1e" stroke-width="0"/>
  <path d="M15.37,18.63l2.35-2.35" fill="#fff" stroke-width="0"/>
  <path d="M15.37,19.12c-.12,0-.25-.05-.34-.14-.19-.19-.19-.49,0-.68l2.35-2.35c.19-.19.49-.19.68,0,.19.19.19.49,0,.68l-2.35,2.35c-.09.09-.22.14-.34.14Z" fill="#1d1e1e" stroke-width="0"/>
  <path d="M12.76,16.03l2.82-2.82" fill="#fff" stroke-width="0"/>
  <path d="M12.76,16.51c-.12,0-.25-.05-.34-.14-.19-.19-.19-.49,0-.68l2.82-2.82c.19-.19.49-.19.68,0s.19.49,0,.68l-2.82,2.82c-.09.09-.22.14-.34.14Z" fill="#1d1e1e" stroke-width="0"/>
  <path d="M10.26,13.53l2.35-2.35" fill="#fff" stroke-width="0"/>
  <path d="M10.26,14.01c-.12,0-.25-.05-.34-.14-.19-.19-.19-.49,0-.68l2.35-2.35c.19-.19.49-.19.68,0,.19.19.19.49,0,.68l-2.35,2.35c-.09.09-.22.14-.34.14Z" fill="#1d1e1e" stroke-width="0"/>
  <path d="M7.64,10.91l2.82-2.82" fill="#fff" stroke-width="0"/>
  <path d="M7.64,11.39c-.12,0-.25-.05-.34-.14-.19-.19-.19-.49,0-.68l2.82-2.82c.19-.19.49-.19.68,0s.19.49,0,.68l-2.82,2.82c-.09.09-.22.14-.34.14Z" fill="#1d1e1e" stroke-width="0"/>
</svg>