<?xml version="1.0" encoding="UTF-8"?>
<svg id="Layer_1" data-name="Layer 1" xmlns="http://www.w3.org/2000/svg" viewBox="0 0 48 48">
  <rect x="4.03" y=".49" width="39.98" height="39.98" rx="4.81" ry="4.81" fill="#e6f1fa" stroke-width="0"/>
  <path d="M39.32,40.96H8.72c-2.85,0-5.18-2.32-5.18-5.18V5.18C3.54,2.32,5.86,0,8.72,0h30.61c2.85,0,5.18,2.32,5.18,5.18v30.61c0,2.85-2.32,5.18-5.18,5.18ZM8.72.98c-2.32,0-4.2,1.88-4.2,4.2v30.61c0,2.32,1.88,4.2,4.2,4.2h30.61c2.32,0,4.2-1.88,4.2-4.2V5.18c0-2.32-1.88-4.2-4.2-4.2H8.72Z" fill="#1d1e1e" stroke-width="0"/>
  <path d="M39.32.49H8.72c-2.58,0-4.69,2.11-4.69,4.69v4.17c0-2.58,2.11-4.69,4.69-4.69h30.61c2.58,0,4.69,2.11,4.69,4.69v-4.17c0-2.58-2.11-4.69-4.69-4.69Z" fill="#fff" stroke-width="0"/>
  <path d="M39.32,40.96H8.72c-2.85,0-5.18-2.32-5.18-5.18V5.18C3.54,2.32,5.86,0,8.72,0h30.61c2.85,0,5.18,2.32,5.18,5.18v30.61c0,2.85-2.32,5.18-5.18,5.18ZM8.72.98c-2.32,0-4.2,1.88-4.2,4.2v30.61c0,2.32,1.88,4.2,4.2,4.2h30.61c2.32,0,4.2-1.88,4.2-4.2V5.18c0-2.32-1.88-4.2-4.2-4.2H8.72Z" fill="#1d1e1e" stroke-width="0"/>
  <path d="M39.28,40.96H8.68c-2.85,0-5.18-2.32-5.18-5.18V5.18C3.5,2.32,5.82,0,8.68,0h30.61c2.85,0,5.18,2.32,5.18,5.18v30.61c0,2.85-2.32,5.18-5.18,5.18ZM8.68.98c-2.32,0-4.2,1.88-4.2,4.2v30.61c0,2.32,1.88,4.2,4.2,4.2h30.61c2.32,0,4.2-1.88,4.2-4.2V5.18c0-2.32-1.88-4.2-4.2-4.2H8.68Z" fill="#1d1e1e" stroke-width="0"/>
  <path d="M39.28,40.96H8.68c-2.85,0-5.18-2.32-5.18-5.18V5.18C3.5,2.32,5.82,0,8.68,0h30.61c2.85,0,5.18,2.32,5.18,5.18v30.61c0,2.85-2.32,5.18-5.18,5.18ZM8.68.98c-2.32,0-4.2,1.88-4.2,4.2v30.61c0,2.32,1.88,4.2,4.2,4.2h30.61c2.32,0,4.2-1.88,4.2-4.2V5.18c0-2.32-1.88-4.2-4.2-4.2H8.68Z" fill="#1d1e1e" stroke-width="0"/>
  <path d="M39.3,40.97H8.7c-2.85,0-5.18-2.32-5.18-5.18V5.18C3.52,2.33,5.84,0,8.7,0h30.61c2.85,0,5.18,2.32,5.18,5.18v30.61c0,2.85-2.32,5.18-5.18,5.18ZM8.7.98c-2.32,0-4.2,1.88-4.2,4.2v30.61c0,2.32,1.88,4.2,4.2,4.2h30.61c2.32,0,4.2-1.88,4.2-4.2V5.18c0-2.32-1.88-4.2-4.2-4.2H8.7Z" fill="#1d1e1e" stroke-width="0"/>
  <path d="M39.3,40.96H8.7c-2.85,0-5.18-2.32-5.18-5.18V5.18C3.52,2.33,5.84,0,8.7,0h30.61c2.85,0,5.18,2.32,5.18,5.18v30.61c0,2.85-2.32,5.18-5.18,5.18ZM8.7.98c-2.32,0-4.2,1.88-4.2,4.2v30.61c0,2.32,1.88,4.2,4.2,4.2h30.61c2.32,0,4.2-1.88,4.2-4.2V5.18c0-2.32-1.88-4.2-4.2-4.2H8.7Z" fill="#1d1e1e" stroke-width="0"/>
  <rect x="14.97" y="11.09" width="6.05" height="19.3" rx="1.99" ry="1.99" fill="#009cde" stroke-width="0"/>
  <rect x="26.98" y="11.09" width="6.05" height="19.3" rx="2.09" ry="2.09" fill="#009cde" stroke-width="0"/>
  <path d="M17.95,10.59h.1c1.85,0,3.35,1.5,3.35,3.35v.05h-6.8v-.05c0-1.85,1.5-3.35,3.35-3.35Z" fill="#71c5e8" stroke-width="0"/>
  <path d="M29.95,10.59h.1c1.85,0,3.35,1.5,3.35,3.35v.05h-6.8v-.05c0-1.85,1.5-3.35,3.35-3.35Z" fill="#71c5e8" stroke-width="0"/>
  <path d="M19.74,30.88h-3.48c-.98,0-1.77-.79-1.77-1.77V12.37c0-.98.79-1.77,1.77-1.77h3.48c.98,0,1.77.79,1.77,1.77v16.74c0,.98-.79,1.77-1.77,1.77ZM16.26,11.57c-.44,0-.79.36-.79.79v16.74c0,.44.36.79.79.79h3.48c.44,0,.79-.36.79-.79V12.37c0-.44-.36-.79-.79-.79h-3.48Z" fill="#1d1e1e" stroke-width="0"/>
  <path d="M31.74,30.88h-3.48c-.98,0-1.77-.79-1.77-1.77V12.37c0-.98.79-1.77,1.77-1.77h3.48c.98,0,1.77.79,1.77,1.77v16.74c0,.98-.79,1.77-1.77,1.77ZM28.26,11.57c-.44,0-.79.36-.79.79v16.74c0,.44.36.79.79.79h3.48c.44,0,.79-.36.79-.79V12.37c0-.44-.36-.79-.79-.79h-3.48Z" fill="#1d1e1e" stroke-width="0"/>
</svg>