<svg width="80" height="80" viewBox="0 0 80 80" fill="none" xmlns="http://www.w3.org/2000/svg">
    <path d="M70.469 62.015a3.168 3.168 0 0 1-3.167 3.167H12.695a3.168 3.168 0 0 1-3.167-3.167V22.97h60.94v39.044z" fill="#009CDE"/>
    <path d="M62.693 22.97 20.48 65.183h-7.786a3.164 3.164 0 0 1-3.167-3.157V22.971h53.165z" fill="#71C5E8"/>
    <path d="M70.469 17.696a3.168 3.168 0 0 0-3.167-3.167H12.695a3.168 3.168 0 0 0-3.167 3.167v5.274h60.94v-5.274z" fill="#fff"/>
    <path d="M70.47 23.498H9.528A.53.53 0 0 1 9 22.97v-5.275A3.7 3.7 0 0 1 12.695 14h54.61A3.7 3.7 0 0 1 71 17.695v5.275a.53.53 0 0 1-.528.528h-.003zm-60.413-1.056H69.94v-4.747a2.641 2.641 0 0 0-2.639-2.639H12.695a2.641 2.641 0 0 0-2.638 2.64v4.746z" fill="#505050"/>
    <path d="M12.696 18.75a1.582 1.582 0 1 0 3.163.001 1.582 1.582 0 0 0-3.163-.001z" fill="#F46643"/>
    <path d="M19.026 18.75c0 .874.708 1.582 1.582 1.584.875 0 1.582-.707 1.585-1.582 0-.877-.708-1.584-1.582-1.584-.874 0-1.582.707-1.585 1.582z" fill="#FEDB00"/>
    <path d="M25.357 18.75c0 .874.708 1.582 1.583 1.584.874 0 1.582-.707 1.584-1.582 0-.877-.707-1.584-1.582-1.584-.874 0-1.582.707-1.585 1.582z" fill="#6CC24A"/>
    <path d="M65.194 65.182h-50.43V27.805c0-.637.573-1.152 1.275-1.152h47.877c.705 0 1.276.515 1.276 1.152v37.377h.002z" fill="#E8F4FA"/>
    <path d="m59.008 26.653-38.46 38.53h-5.785V27.804c0-.634.574-1.149 1.276-1.152h42.97z" fill="#fff"/>
    <path d="M65.194 65.606h-50.43a.425.425 0 0 1-.426-.425V27.803c0-.869.763-1.576 1.7-1.576h47.878c.937 0 1.7.707 1.7 1.576v37.378c0 .235-.19.425-.425.425h.003zm-50.003-.85h49.578V27.803c0-.398-.383-.726-.85-.726H16.041c-.47 0-.851.328-.851.726v36.953z" fill="#505050"/>
    <path d="M26 32h-5v5h5v-5z" fill="#505050"/>
    <path d="M60 32H26v5h34v-5z" fill="#B2B2B2"/>
    <path d="M67.302 65.707H12.695A3.7 3.7 0 0 1 9 62.012V22.968a.53.53 0 0 1 .528-.528H70.47a.53.53 0 0 1 .528.528v39.044a3.7 3.7 0 0 1-3.695 3.695zm-57.246-42.21v38.515a2.641 2.641 0 0 0 2.64 2.639h54.609a2.641 2.641 0 0 0 2.638-2.639V23.497H10.057z" fill="#505050"/>
    <path d="M21 40a1 1 0 0 1 1-1h37a1 1 0 0 1 1 1v4a1 1 0 0 1-1 1H22a1 1 0 0 1-1-1v-4z" fill="#fff"/>
    <path fill-rule="evenodd" clip-rule="evenodd" d="M59 40H22v4h37v-4zm-37-1a1 1 0 0 0-1 1v4a1 1 0 0 0 1 1h37a1 1 0 0 0 1-1v-4a1 1 0 0 0-1-1H22z" fill="#888"/>
    <path d="M21 48a1 1 0 0 1 1-1h37a1 1 0 0 1 1 1v4a1 1 0 0 1-1 1H22a1 1 0 0 1-1-1v-4z" fill="#fff"/>
    <path fill-rule="evenodd" clip-rule="evenodd" d="M59 48H22v4h37v-4zm-37-1a1 1 0 0 0-1 1v4a1 1 0 0 0 1 1h37a1 1 0 0 0 1-1v-4a1 1 0 0 0-1-1H22z" fill="#888"/>
    <path d="M21 56a1 1 0 0 1 1-1h37a1 1 0 0 1 1 1v4a1 1 0 0 1-1 1H22a1 1 0 0 1-1-1v-4z" fill="#fff"/>
    <path fill-rule="evenodd" clip-rule="evenodd" d="M59 56H22v4h37v-4zm-37-1a1 1 0 0 0-1 1v4a1 1 0 0 0 1 1h37a1 1 0 0 0 1-1v-4a1 1 0 0 0-1-1H22z" fill="#888"/>
</svg>
