<svg width="20" height="20" viewBox="0 0 20 20" fill="none" xmlns="http://www.w3.org/2000/svg">
    <g clip-path="url(#3r6qr17gka)" fill="#1E1E1E">
        <path d="M10 9c2.2 0 4-1.792 4-4s-1.8-4-4-4-4 1.8-4 4 1.792 4 4 4zm0-6.878A2.88 2.88 0 0 1 12.878 5 2.885 2.885 0 0 1 10 7.878 2.885 2.885 0 0 1 7.122 5 2.885 2.885 0 0 1 10 2.122zM2.11 14.704v5.3h1.23v-5.3c0-.76.62-1.38 1.38-1.38h2.27v-1.23H4.72c-1.44 0-2.62 1.17-2.62 2.62l.01-.01zM20 12.7l-3.49-3.49-.84.85 2.01 2.01H9v1.26h8.68l-2.01 2.01.84.85L20 12.7z"/>
    </g>
    <defs>
        <clipPath id="3r6qr17gka">
            <path fill="#fff" d="M0 0h20v20H0z"/>
        </clipPath>
    </defs>
</svg>
