<?xml version="1.0" encoding="UTF-8"?>
<svg id="Layer_1" data-name="Layer 1" xmlns="http://www.w3.org/2000/svg" viewBox="0 0 48 48">
  <path d="M12.06,36.54c0,.21.08.42.23.57s.35.23.57.23h23.25c.21,0,.42-.08.57-.23.15-.15.23-.35.23-.57V10.48l-6.81-6.81H12.86c-.11,0-.21.02-.31.06s-.19.1-.26.17c-.07.07-.13.16-.17.26-.04.1-.06.2-.06.31v32.07Z" fill="#fff" stroke-width="0"/>
  <path d="M17.03,16.71h15.01v14.41h-15.01v-14.41Z" fill="#e6edf8" stroke-width="0"/>
  <path d="M32.56,31.64h-16.05v-15.45h16.05v15.45ZM17.55,30.6h13.97v-13.37h-13.97v13.37Z" fill="#1d1e1e" stroke-width="0"/>
  <path d="M20.29,22.25c0,.48.19.94.53,1.28s.8.53,1.28.53.94-.19,1.28-.53.53-.8.53-1.28-.19-.94-.53-1.28-.8-.53-1.28-.53-.94.19-1.28.53-.53.8-.53,1.28Z" fill="#c7dbff" stroke-width="0"/>
  <path d="M22.1,24.58c-.62,0-1.21-.24-1.65-.68-.44-.44-.68-1.02-.68-1.65s.24-1.21.68-1.65c.88-.88,2.41-.88,3.29,0,.44.44.68,1.03.68,1.65s-.24,1.21-.68,1.65-1.03.68-1.65.68h.01ZM22.1,20.97c-.34,0-.67.14-.91.38s-.38.57-.38.91.13.67.38.91c.48.48,1.33.48,1.82,0,.24-.24.38-.57.38-.91s-.13-.67-.38-.91c-.24-.24-.57-.38-.91-.38Z" fill="#1d1e1e" stroke-width="0"/>
  <path d="M32.04,28.24v1.68c0,.32-.13.62-.35.85-.23.23-.53.35-.85.35h-12.61c-.32,0-.62-.13-.85-.35-.23-.23-.35-.53-.35-.85v-1.13l3.08-2.69c.17-.15.4-.23.63-.23s.45.1.61.27l1.23,1.23c.11.11.27.18.42.18s.31-.06.42-.18l3.81-3.81c.09-.09.2-.16.32-.21.12-.04.25-.06.38-.05.13,0,.26.04.37.1s.21.15.29.25l3.44,4.58h0Z" fill="#c7dbff" stroke-width="0"/>
  <path d="M30.84,31.64h-12.61c-.46,0-.89-.18-1.22-.51-.32-.32-.5-.76-.5-1.22v-1.13c0-.15.07-.29.18-.39l3.08-2.69c.27-.24.62-.37.99-.35.37.01.71.16.96.42l1.23,1.23h.11l3.81-3.81c.14-.14.32-.26.51-.33s.4-.1.6-.08c.19,0,.39.07.57.17s.34.24.46.41l3.44,4.57c.07.09.1.2.1.31v1.68c0,.46-.18.89-.5,1.22-.32.32-.76.5-1.22.5ZM17.55,29.02v.9c0,.18.07.35.2.48s.3.2.48.2h12.61c.18,0,.35-.07.48-.2s.2-.3.2-.48v-1.5l-3.34-4.44c-.04-.05-.08-.09-.12-.11-.05-.02-.1-.04-.15-.04-.07,0-.12,0-.17.02s-.09.05-.13.08l-3.81,3.81c-.42.42-1.16.43-1.59,0l-1.23-1.23c-.07-.07-.16-.11-.26-.12-.09,0-.19.03-.26.09l-2.9,2.54Z" fill="#1d1e1e" stroke-width="0"/>
  <path d="M36.11,37.86H12.86c-.35,0-.69-.14-.94-.39-.25-.24-.39-.59-.39-.93V4.47c0-.17.03-.34.1-.51.07-.16.16-.31.29-.43.12-.12.27-.22.43-.29s.33-.1.51-.1h17.24c.14,0,.27.06.37.15l6.81,6.81c.1.1.15.23.15.37v26.06c0,.35-.14.69-.39.94s-.58.39-.93.39ZM12.86,4.19s-.07,0-.11.02c-.03.01-.06.03-.09.06-.03.03-.05.06-.06.09-.01.04-.02.07-.02.11v32.07c0,.07.03.15.08.2s.12.08.2.08h23.25c.07,0,.14-.03.2-.08s.08-.12.08-.2V10.7l-6.51-6.51H12.86Z" fill="#1d1e1e" stroke-width="0"/>
  <path d="M30.09,3.67v6.06c0,.2.08.39.22.53.14.14.33.22.53.22h6.06l-6.81-6.81Z" fill="#618fff" stroke-width="0"/>
  <path d="M36.9,11.01h-6.06c-.33,0-.66-.14-.9-.37-.24-.24-.37-.56-.37-.9V3.67c0-.21.13-.4.32-.48.2-.08.42-.04.57.11l6.81,6.81c.15.15.19.37.11.57-.08.2-.27.32-.48.32ZM30.61,4.93v4.8c0,.06.02.12.07.16.04.04.1.07.16.07h4.8l-5.03-5.03Z" fill="#1d1e1e" stroke-width="0"/>
</svg>