<svg width="24" height="24" viewBox="0 0 24 24" fill="none" xmlns="http://www.w3.org/2000/svg">
    <path d="M15.49 10.79H8.55c-.13.01-.28-.02-.42-.07-.14-.06-.27-.14-.37-.25-.11-.11-.19-.24-.24-.38-.05-.15-.07-.3-.06-.45V7.39a1.046 1.046 0 0 1 .3-.79c.11-.11.23-.19.38-.24.14-.05.29-.07.44-.07h6.88c.12-.01.27.01.41.07.14.05.27.13.37.24.11.11.19.23.24.38.05.14.07.29.06.44v2.26c0 .14-.02.29-.06.42-.05.14-.14.27-.24.38-.11.11-.23.19-.37.24-.12.05-.25.07-.38.07zm-7-1.11s.05.08.06.08h6.91s.06-.05.06-.06V7.39l-6.97-.06-.06 2.34v.01z" fill="#1E1E1E"/>
    <path d="M17.18 20H6.82c-.92 0-1.67-.75-1.67-1.67V5.67C5.15 4.75 5.9 4 6.82 4h10.36c.92 0 1.67.75 1.67 1.67v12.66c0 .92-.75 1.67-1.67 1.67zM6.82 5.03c-.35 0-.64.29-.64.64v12.66c0 .35.29.64.64.64h10.36c.35 0 .64-.29.64-.64V5.67c0-.35-.29-.64-.64-.64H6.82z" fill="#1E1E1E"/>
    <path d="M8.62 13.62a.61.61 0 1 0 0-1.22.61.61 0 0 0 0 1.22zM10.91 13.62a.61.61 0 1 0 0-1.22.61.61 0 0 0 0 1.22zM13.21 13.62a.61.61 0 1 0 0-1.22.61.61 0 0 0 0 1.22zM15.5 13.62a.61.61 0 1 0 0-1.22.61.61 0 0 0 0 1.22zM8.62 15.69a.61.61 0 1 0 0-1.22.61.61 0 0 0 0 1.22zM10.91 15.69a.61.61 0 1 0 0-1.22.61.61 0 0 0 0 1.22zM8.62 17.77a.61.61 0 1 0 0-1.22.61.61 0 0 0 0 1.22zM10.91 17.77a.61.61 0 1 0 0-1.22.61.61 0 0 0 0 1.22zM13.21 15.69a.61.61 0 1 0 0-1.22.61.61 0 0 0 0 1.22zM15.5 15.69a.61.61 0 1 0 0-1.22.61.61 0 0 0 0 1.22zM13.21 17.77a.61.61 0 1 0 0-1.22.61.61 0 0 0 0 1.22zM15.5 17.77a.61.61 0 1 0 0-1.22.61.61 0 0 0 0 1.22z" fill="#1E1E1E"/>
    <path d="M2 21.31 21.31 2l.69.69L2.69 22 2 21.31z" fill="#1E1E1E"/>
    <path d="M22 21.31 2.69 2 2 2.69 21.31 22l.69-.69z" fill="#1E1E1E"/>
</svg>
