<?xml version="1.0" encoding="UTF-8"?>
<svg id="Layer_1" data-name="Layer 1" xmlns="http://www.w3.org/2000/svg" viewBox="0 0 48 48">
  <path d="M42.62,8.42H5.38c-.74,0-1.34.6-1.34,1.34v24.01h39.93V9.76c0-.74-.6-1.34-1.34-1.34h-.01Z" fill="#fff" stroke-width="0"/>
  <path d="M43.97,34.28H4.03c-.28,0-.51-.23-.51-.51V9.76c0-1.02.83-1.85,1.85-1.85h37.25c1.02,0,1.85.83,1.85,1.85v24.01c0,.28-.23.51-.51.51h.01ZM4.54,33.26h38.92V9.76c0-.46-.37-.83-.84-.83H5.38c-.46,0-.84.37-.84.83v23.5Z" fill="#1d1e1e" stroke-width="0"/>
  <path d="M41.15,11.24H6.89l-.04,22.53h34.3V11.24Z" fill="#e6edf8" stroke-width="0"/>
  <path d="M32.65,11.24l-24.19,22.53h-1.61l.04-22.53h25.76Z" fill="#fff" stroke-width="0"/>
  <path d="M41.15,34.28H6.85c-.14,0-.26-.05-.36-.15s-.15-.23-.15-.36l.04-22.53c0-.28.23-.51.51-.51h34.26c.28,0,.51.23.51.51v22.53c0,.28-.23.51-.51.51ZM7.36,33.26h33.28V11.74H7.4l-.04,21.52Z" fill="#1d1e1e" stroke-width="0"/>
  <path d="M47.49,36.59H.51v-2.15c0-.37.3-.67.67-.67h45.64c.37,0,.67.3.67.67v2.15Z" fill="#fff" stroke-width="0"/>
  <path d="M47.49,37.1H.51c-.28,0-.51-.23-.51-.51v-2.15c0-.65.53-1.18,1.18-1.18h45.64c.65,0,1.18.53,1.18,1.18v2.15c0,.28-.23.51-.51.51ZM1.02,36.08h45.96v-1.64c0-.09-.07-.16-.16-.16H1.18c-.09,0-.16.07-.16.16v1.64Z" fill="#1d1e1e" stroke-width="0"/>
  <path d="M47.49,36.59c-4.36,1.25-8.88,1.88-13.42,1.88H13.93c-4.54,0-9.05-.63-13.42-1.88h46.98Z" fill="#618fff" stroke-width="0"/>
  <path d="M34.07,38.98H13.93c-4.59,0-9.15-.64-13.56-1.9-.24-.07-.4-.31-.36-.56s.25-.44.5-.44h46.98c.25,0,.47.19.5.44s-.12.49-.36.56c-4.41,1.26-8.97,1.9-13.56,1.9ZM4.83,37.1c2.99.57,6.04.86,9.09.86h20.15c3.06,0,6.1-.29,9.09-.86H4.83Z" fill="#1d1e1e" stroke-width="0"/>
</svg>