<?xml version="1.0" encoding="UTF-8"?>
<svg id="Layer_1" data-name="Layer 1" xmlns="http://www.w3.org/2000/svg" viewBox="0 0 48 48">
  <rect x="4.01" y=".49" width="40.01" height="40.01" rx="4.37" ry="4.37" fill="#e6f1fa" stroke-width="0"/>
  <path d="M39.34,40.99H8.7c-2.86,0-5.18-2.32-5.18-5.18V5.18C3.52,2.32,5.85,0,8.7,0h30.63c2.86,0,5.18,2.32,5.18,5.18v30.63c0,2.86-2.32,5.18-5.18,5.18ZM8.7.98c-2.32,0-4.2,1.89-4.2,4.2v30.63c0,2.32,1.89,4.2,4.2,4.2h30.63c2.32,0,4.2-1.89,4.2-4.2V5.18c0-2.32-1.89-4.2-4.2-4.2H8.7Z" fill="#1d1e1e" stroke-width="0"/>
  <path d="M39.34.49H8.7c-2.58,0-4.69,2.11-4.69,4.69v4.18c0-2.58,2.11-4.69,4.69-4.69h30.63c2.58,0,4.69,2.11,4.69,4.69v-4.18c0-2.58-2.11-4.69-4.69-4.69Z" fill="#fff" stroke-width="0"/>
  <path d="M39.34,40.99H8.7c-2.86,0-5.18-2.32-5.18-5.18V5.18C3.52,2.32,5.85,0,8.7,0h30.63c2.86,0,5.18,2.32,5.18,5.18v30.63c0,2.86-2.32,5.18-5.18,5.18ZM8.7.98c-2.32,0-4.2,1.89-4.2,4.2v30.63c0,2.32,1.89,4.2,4.2,4.2h30.63c2.32,0,4.2-1.89,4.2-4.2V5.18c0-2.32-1.89-4.2-4.2-4.2H8.7Z" fill="#1d1e1e" stroke-width="0"/>
  <path d="M39.3,40.99H8.66c-2.86,0-5.18-2.32-5.18-5.18V5.18C3.48,2.32,5.81,0,8.66,0h30.63c2.86,0,5.18,2.32,5.18,5.18v30.63c0,2.86-2.32,5.18-5.18,5.18ZM8.66.98c-2.32,0-4.2,1.89-4.2,4.2v30.63c0,2.32,1.89,4.2,4.2,4.2h30.63c2.32,0,4.2-1.89,4.2-4.2V5.18c0-2.32-1.89-4.2-4.2-4.2H8.66Z" fill="#1d1e1e" stroke-width="0"/>
  <path d="M39.3,40.99H8.66c-2.86,0-5.18-2.32-5.18-5.18V5.18C3.48,2.32,5.81,0,8.66,0h30.63c2.86,0,5.18,2.32,5.18,5.18v30.63c0,2.86-2.32,5.18-5.18,5.18ZM8.66.98c-2.32,0-4.2,1.89-4.2,4.2v30.63c0,2.32,1.89,4.2,4.2,4.2h30.63c2.32,0,4.2-1.89,4.2-4.2V5.18c0-2.32-1.89-4.2-4.2-4.2H8.66Z" fill="#1d1e1e" stroke-width="0"/>
  <path d="M39.32,41H8.68c-2.86,0-5.18-2.32-5.18-5.18V5.19C3.5,2.33,5.83,0,8.68,0h30.63c2.86,0,5.18,2.32,5.18,5.18v30.63c0,2.86-2.32,5.18-5.18,5.18ZM8.68.99c-2.32,0-4.2,1.89-4.2,4.2v30.63c0,2.32,1.89,4.2,4.2,4.2h30.63c2.32,0,4.2-1.89,4.2-4.2V5.19c0-2.32-1.89-4.2-4.2-4.2H8.68Z" fill="#1d1e1e" stroke-width="0"/>
  <path d="M33.36,25.8l-5.3-5.3,5.29-5.29c1.13-1.13,1.14-2.97,0-4.11s-2.97-1.14-4.11,0l-5.29,5.29-5.29-5.29c-1.13-1.13-2.97-1.14-4.11,0-1.14,1.14-1.14,2.97,0,4.11l5.29,5.29-5.29,5.29c-1.13,1.13-1.14,2.97,0,4.11s2.97,1.14,4.11,0l5.29-5.29,5.3,5.3c1.13,1.13,2.97,1.14,4.11,0,1.14-1.14,1.14-2.97,0-4.11Z" fill="#009cde" stroke-width="0"/>
  <path d="M31.31,31.25c-.87,0-1.74-.33-2.4-.99l-4.96-4.96-4.94,4.94c-.64.64-1.5,1-2.4,1s-1.76-.35-2.4-1c-1.32-1.32-1.32-3.48,0-4.8l4.94-4.94-4.94-4.94c-1.32-1.32-1.32-3.48,0-4.8.64-.64,1.49-.99,2.4-.99h0c.91,0,1.76.35,2.39.99l4.94,4.94,4.94-4.94c1.32-1.32,3.48-1.32,4.8,0,.64.64,1,1.5.99,2.41,0,.91-.35,1.76-.99,2.39l-4.94,4.94,4.96,4.96c1.32,1.32,1.32,3.48,0,4.8-.66.66-1.53.99-2.4.99ZM23.95,23.91l5.65,5.65c.94.94,2.48.94,3.42,0,.94-.94.94-2.48,0-3.42l-5.65-5.65,5.63-5.63c.45-.45.71-1.06.71-1.71,0-.65-.25-1.26-.71-1.71-.94-.94-2.48-.94-3.42,0l-5.63,5.63-5.63-5.63c-.45-.45-1.06-.71-1.71-.71h0c-.65,0-1.25.25-1.71.71-.94.94-.94,2.48,0,3.42l5.63,5.63-5.63,5.63c-.94.94-.94,2.48,0,3.42.46.46,1.07.71,1.71.71s1.25-.25,1.71-.71l5.63-5.63Z" fill="#1d1e1e" stroke-width="0"/>
</svg>