<svg width="32" height="32" viewBox="0 0 32 32" fill="none" xmlns="http://www.w3.org/2000/svg">
    <rect width="32" height="32" rx="4" fill="#324DC7"/>
    <rect x="4" y="4" width="24" height="24" rx="2" fill="#324DC7"/>
    <path d="m15.031 8.237-4.735 4.743a.232.232 0 0 1-.144.056H7.6a1.6 1.6 0 0 0-1.6 1.6v2.736a1.6 1.6 0 0 0 1.6 1.6h2.552a.191.191 0 0 1 .144.056l4.735 4.735a.8.8 0 0 0 1.368-.56V8.805a.8.8 0 0 0-1.368-.568zM23.143 22.667a.432.432 0 0 1-.324-.145.512.512 0 0 1 0-.693c3.018-3.214 3.018-8.445 0-11.659a.512.512 0 0 1 0-.693.44.44 0 0 1 .65 0c3.374 3.598 3.374 9.447 0 13.045a.446.446 0 0 1-.323.145h-.003z" fill="#fff"/>
    <path d="M21.125 20.513a.432.432 0 0 1-.323-.144.512.512 0 0 1 0-.693c1.903-2.032 1.903-5.332 0-7.364a.512.512 0 0 1 0-.693.44.44 0 0 1 .65 0c2.264 2.411 2.264 6.334 0 8.746a.446.446 0 0 1-.323.145l-.004.003z" fill="#fff"/>
</svg>
