<?xml version="1.0" encoding="UTF-8"?>
<svg id="Layer_1" data-name="Layer 1" xmlns="http://www.w3.org/2000/svg" viewBox="0 0 48 48">
  <path d="M9.22,39.56c0,.25.1.49.28.67s.42.28.67.28h27.63c.25,0,.49-.1.67-.28s.28-.42.28-.67V8.59L30.66.49H10.17c-.13,0-.25.02-.36.07-.12.05-.22.12-.31.21-.09.09-.16.19-.21.31-.05.12-.07.24-.07.36v38.12Z" fill="#fff" stroke-width="0"/>
  <path d="M31.42,22.26c.02-4.16-3.34-7.56-7.5-7.58-4.16-.02-7.55,3.34-7.58,7.5-.03,4.16,3.33,7.56,7.49,7.58,4.16.02,7.56-3.34,7.58-7.5h.01Z" fill="#e6edf8" stroke-width="0"/>
  <path d="M23.88,17.51c1.76,0,3.46.61,4.81,1.73,1.35,1.12,2.27,2.67,2.6,4.4.21-1.09.18-2.22-.1-3.29-.28-1.08-.79-2.08-1.49-2.94-.71-.86-1.59-1.55-2.61-2.02-1-.47-2.1-.72-3.21-.72s-2.21.25-3.21.72c-1.01.47-1.9,1.16-2.61,2.02-.71.86-1.22,1.86-1.49,2.94s-.3,2.2-.1,3.29c.33-1.72,1.25-3.28,2.6-4.4,1.35-1.12,3.05-1.73,4.81-1.73Z" fill="#fff" stroke-width="0"/>
  <path d="M23.88,30.26h-.04c-2.14-.01-4.16-.86-5.66-2.38-1.51-1.52-2.33-3.55-2.32-5.69.01-2.14.86-4.16,2.38-5.67,1.51-1.5,3.52-2.32,5.65-2.32h.04c2.15.01,4.16.86,5.67,2.38,1.51,1.53,2.33,3.55,2.32,5.69h-.49.49c-.01,2.14-.86,4.16-2.38,5.67-1.52,1.5-3.52,2.32-5.65,2.32h-.01ZM23.88,15.18c-1.87,0-3.63.72-4.95,2.04-1.34,1.32-2.08,3.09-2.09,4.97,0,1.88.71,3.66,2.04,4.99,1.32,1.34,3.09,2.08,4.97,2.09h.04c1.87,0,3.63-.72,4.96-2.04,1.34-1.32,2.08-3.09,2.09-4.97,0-1.88-.71-3.66-2.04-4.99-1.32-1.34-3.09-2.08-4.97-2.09h-.05Z" fill="#1d1e1e" stroke-width="0"/>
  <path d="M37.81,41H10.18c-.38,0-.75-.15-1.02-.42-.27-.27-.42-.64-.42-1.02V1.45c0-.2.04-.39.12-.57.06-.15.17-.32.31-.46.13-.13.29-.24.47-.31.16-.07.36-.11.55-.11h20.47c.13,0,.26.05.35.14l8.1,8.1c.09.09.14.22.14.35v30.96c0,.38-.15.75-.42,1.02-.27.27-.64.42-1.02.42h-.01ZM10.18.98c-.06,0-.12,0-.17.03-.06.02-.11.06-.15.1-.05.05-.08.09-.1.14-.03.07-.04.13-.04.19v38.11c0,.12.05.24.14.33.08.09.2.13.32.13h27.63c.12,0,.24-.05.32-.13.09-.09.14-.21.14-.33V8.8L30.45.98H10.18Z" fill="#1d1e1e" stroke-width="0"/>
  <path d="M30.64.49v7.21c0,.24.1.46.26.63.17.17.39.26.63.26h7.21L30.64.49Z" fill="#618fff" stroke-width="0"/>
  <path d="M38.74,9.08h-7.21c-.36,0-.71-.14-.97-.4-.26-.27-.41-.62-.41-.98V.49c0-.2.12-.38.3-.45.18-.07.4-.03.54.11l8.1,8.1c.14.14.18.35.11.54s-.26.3-.45.3h-.01ZM31.14,1.68v6.02c0,.1.04.21.12.29.07.07.17.11.27.11h6.03l-6.42-6.42Z" fill="#1d1e1e" stroke-width="0"/>
  <path d="M24.65,20.88h-1.54c-.1,0-.2.04-.27.11s-.11.17-.11.27v4.96c0,.08.01.14.04.2.02.07.06.12.12.18.05.05.11.09.18.11.06.03.13.04.2.04h1.38s.1-.01.14-.03c.05-.02.09-.04.13-.09.03-.03.06-.08.08-.13.02-.04.03-.1.03-.14v-5.11c0-.1-.04-.2-.11-.27s-.17-.11-.27-.11h0Z" fill="#1d1e1e" stroke-width="0"/>
  <circle cx="23.88" cy="18.83" r="1.15" fill="#1d1e1e" stroke-width="0"/>
</svg>