<svg width="112" height="112" viewBox="0 0 112 112" fill="none" xmlns="http://www.w3.org/2000/svg">
    <path d="M56 1a55 55 0 1 1 0 109.999A55 55 0 0 1 56 1z" fill="#F5F7FC" stroke="#E6EDF8" stroke-width="2"/>
    <mask id="vt0zrhpcla" maskUnits="userSpaceOnUse" x="26.75" y="52.566" width="59" height="47" fill="#000">
        <path fill="#fff" d="M26.75 52.566h59v47h-59z"/>
        <path d="M82.113 53.566c1.185 0 2.146.957 2.146 2.137v1.284a26.483 26.483 0 0 1-7.798 18.76 26.667 26.667 0 0 1-18.526 7.766c0 .025.005.051.005.077v10.846c0 .09-.009.18-.02.27h6.29c1.32 0 2.39.923 2.39 2.063 0 1.14-1.07 2.065-2.39 2.065H48.27c-1.32 0-2.39-.924-2.39-2.065 0-1.14 1.07-2.064 2.39-2.064h5.399a2.16 2.16 0 0 1-.02-.27V83.59c0-.028.003-.056.004-.084a26.667 26.667 0 0 1-18.105-7.76 26.482 26.482 0 0 1-7.798-18.759v-1.284c0-1.18.96-2.136 2.145-2.137 1.184 0 2.145.957 2.145 2.137v1.284a22.215 22.215 0 0 0 6.541 15.737 22.372 22.372 0 0 0 15.791 6.518h3.264a22.374 22.374 0 0 0 15.792-6.518 22.216 22.216 0 0 0 6.54-15.737v-1.284c0-1.18.961-2.136 2.145-2.137z"/>
    </mask>
    <path d="M82.113 53.566c1.185 0 2.146.957 2.146 2.137v1.284a26.483 26.483 0 0 1-7.798 18.76 26.667 26.667 0 0 1-18.526 7.766c0 .025.005.051.005.077v10.846c0 .09-.009.18-.02.27h6.29c1.32 0 2.39.923 2.39 2.063 0 1.14-1.07 2.065-2.39 2.065H48.27c-1.32 0-2.39-.924-2.39-2.065 0-1.14 1.07-2.064 2.39-2.064h5.399a2.16 2.16 0 0 1-.02-.27V83.59c0-.028.003-.056.004-.084a26.667 26.667 0 0 1-18.105-7.76 26.482 26.482 0 0 1-7.798-18.759v-1.284c0-1.18.96-2.136 2.145-2.137 1.184 0 2.145.957 2.145 2.137v1.284a22.215 22.215 0 0 0 6.541 15.737 22.372 22.372 0 0 0 15.791 6.518h3.264a22.374 22.374 0 0 0 15.792-6.518 22.216 22.216 0 0 0 6.54-15.737v-1.284c0-1.18.961-2.136 2.145-2.137z" fill="#8EAFFF"/>
    <path d="M82.113 53.566v-.5.5zm2.146 2.137h.5-.5zM76.46 75.746l.353.354-.353-.354zm-18.526 7.767-.006-.5a.5.5 0 0 0-.494.517l.5-.017zm.005.077h.5-.5zm0 10.846h.5-.5zm-.02.27-.496-.064a.5.5 0 0 0 .496.563v-.5zm8.68 2.063h.5-.5zm-18.33 2.065v.5-.5zm-2.39-2.065h-.5.5zm2.39-2.064v-.5.5zm5.399 0v.5a.5.5 0 0 0 .496-.563l-.496.063zm-.02-.27h-.5.5zm0-10.845h-.5.5zm.004-.084.5.02a.5.5 0 0 0-.486-.52l-.014.5zm-18.105-7.76-.353.354.353-.354zM27.75 55.703h-.5.5zm2.145-2.137v-.5.5zm2.145 2.137h.5-.5zm6.541 17.02-.353.355.353-.354zm15.791 6.52v.5-.5zm19.056-6.52.353.355-.353-.354zm6.54-17.02h-.5.5zm2.145-2.137v.5c.91 0 1.646.735 1.646 1.637h1a2.641 2.641 0 0 0-2.646-2.637v.5zm2.146 2.137h-.5v1.284h1v-1.284h-.5zm0 1.284h-.5a25.983 25.983 0 0 1-7.651 18.405l.353.354.353.354a26.983 26.983 0 0 0 7.945-19.113h-.5zm-7.798 18.76-.353-.355a26.167 26.167 0 0 1-18.179 7.62l.006.5.005.5A27.168 27.168 0 0 0 76.814 76.1l-.353-.354zm-18.526 7.766-.5.017.002.04.002.024v-.004h1c0-.037-.002-.068-.004-.082v-.015.002l-.5.018zm.005.077h-.5v10.846h1V83.59h-.5zm0 10.846h-.5c0 .061-.006.128-.016.206l.496.063.496.063c.012-.099.023-.212.024-.332h-.5zm-.02.27v.5h6.29v-1h-6.29v.5zm6.29 0v.5c1.115 0 1.89.766 1.89 1.563h1c0-1.482-1.365-2.564-2.89-2.564v.5zm2.39 2.063h-.5c0 .798-.775 1.565-1.89 1.565v1c1.525 0 2.89-1.082 2.89-2.564h-.5zm-2.39 2.065v-.5H48.27v1h15.94v-.5zm-15.94 0v-.5c-1.115 0-1.89-.767-1.89-1.565h-1c0 1.483 1.365 2.565 2.89 2.565v-.5zm-2.39-2.065h.5c0-.797.775-1.564 1.89-1.564v-1c-1.525 0-2.89 1.082-2.89 2.564h.5zm2.39-2.064v.5h5.399v-1h-5.4v.5zm5.399 0 .496-.063a1.654 1.654 0 0 1-.016-.206h-1c0 .12.011.233.024.332l.496-.063zm-.02-.27h.5V83.59h-1v10.846h.5zm0-10.845h.5l.001-.012v-.01l.001-.011.002-.032-.5-.02-.5-.019-.001.032a1.153 1.153 0 0 0-.003.072h.5zm.004-.084.014-.5A26.166 26.166 0 0 1 35.9 75.392l-.353.354-.353.354a27.167 27.167 0 0 0 18.445 7.906l.013-.5zm-18.105-7.76.353-.354a25.982 25.982 0 0 1-7.651-18.405h-1c0 7.17 2.858 14.044 7.945 19.113l.353-.354zM27.75 56.987h.5v-1.284h-1v1.284h.5zm0-1.284h.5a1.64 1.64 0 0 1 1.645-1.637v-1a2.64 2.64 0 0 0-2.645 2.637h.5zm2.145-2.137v.5c.91 0 1.645.735 1.645 1.637h1a2.641 2.641 0 0 0-2.645-2.637v.5zm2.145 2.137h-.5v1.284h1v-1.284h-.5zm0 1.284h-.5a22.715 22.715 0 0 0 6.688 16.09l.353-.353.353-.355a21.715 21.715 0 0 1-6.394-15.382h-.5zm6.541 15.737-.353.354a22.872 22.872 0 0 0 16.144 6.664v-1a21.873 21.873 0 0 1-15.438-6.373l-.353.355zm15.791 6.518v.5h3.264v-1h-3.264v.5zm3.264 0v.5a22.874 22.874 0 0 0 16.145-6.664l-.353-.354-.353-.355a21.874 21.874 0 0 1-15.44 6.373v.5zm15.792-6.518.353.354a22.716 22.716 0 0 0 6.688-16.09h-1c0 5.768-2.3 11.302-6.394 15.382l.353.354zm6.54-15.737h.5v-1.284h-1v1.284h.5zm0-1.284h.5a1.64 1.64 0 0 1 1.645-1.637v-1a2.64 2.64 0 0 0-2.644 2.637h.5z" fill="#8EAFFF" mask="url(#vt0zrhpcla)"/>
    <path d="M77.277 61.797c.163-1.211.85-4.05 1.251-5.171.406-1.12.509-1.66 1.08-2.484.565-.817 1.188-1.437 1.81-1.786.626-.364 1.239-.455 1.801-.29.56.172 1.054.602 1.445 1.263.39.66 1.067 1.08 1.218 2.108.144 1.036.158 2.194.029 3.408-.13 1.213-.778 4.055-1.155 5.2.255-1.911-.096-1.842-.506-3.254-.406-1.41-1.115-2.333-1.995-2.595-.885-.271-1.89.132-2.847 1.14-.955 1-1.142-.965-1.73.836M34.728 61.797c-.163-1.21-.85-4.05-1.251-5.171-.406-1.12-.908-2.129-1.478-2.952-.566-.817-.797-1.09-1.42-1.439-.625-.364-1.238-.455-1.8-.29-.56.172-1.054.602-1.445 1.263-.39.66-1.06 1.201-1.21 2.23-.145 1.035-.159 2.194-.03 3.407.13 1.213.778 4.056 1.155 5.201-.255-1.912.096-1.843.506-3.255.406-1.41 1.115-2.332 1.995-2.594.885-.272 1.89.131 2.847 1.14.955 1 1.142-.966 1.73.835" fill="#E6EDF8"/>
    <mask id="kxmve3w4ib" maskUnits="userSpaceOnUse" x="25.75" y="51.492" width="61" height="49" fill="#000">
        <path fill="#fff" d="M25.75 51.492h61v49h-61z"/>
        <path fill-rule="evenodd" clip-rule="evenodd" d="M29.892 53.492c1.183 0 2.142.956 2.142 2.135v1.282c0 5.894 2.35 11.546 6.531 15.713a22.34 22.34 0 0 0 15.77 6.509h3.258a22.34 22.34 0 0 0 15.77-6.509 22.183 22.183 0 0 0 6.53-15.713v-1.282c0-1.18.96-2.135 2.143-2.135 1.183 0 2.141.956 2.141 2.135v1.282c0 7.026-2.8 13.764-7.786 18.732a26.631 26.631 0 0 1-18.59 7.758V94.26h6.226c1.32 0 2.389.924 2.389 2.064 0 1.14-1.07 2.064-2.389 2.064H48.094c-1.32 0-2.389-.924-2.389-2.064 0-1.14 1.07-2.064 2.389-2.064h5.305V83.383a26.63 26.63 0 0 1-17.863-7.742 26.444 26.444 0 0 1-7.786-18.732v-1.282c0-1.18.959-2.135 2.142-2.135z"/>
    </mask>
    <path d="m38.565 72.622 1.412-1.416-1.412 1.416zm34.797 0-1.412-1.416 1.412 1.416zm3.03 3.019-1.413-1.417 1.412 1.417zM57.8 83.399l-.016-2a2 2 0 0 0-1.984 2h2zm0 10.861h-2a2 2 0 0 0 2 2v-2zm-4.402 0v2a2 2 0 0 0 2-2h-2zm0-10.877h2a2 2 0 0 0-1.93-1.999l-.07 2zm-17.863-7.742 1.412-1.417-1.412 1.417zm-3.502-20.015h2a4.138 4.138 0 0 0-4.142-4.134v4c.085 0 .142.067.142.135h2zm0 1.283h2v-1.282h-4v1.282h2zm6.531 15.713 1.412-1.416a20.183 20.183 0 0 1-5.943-14.297h-4a24.183 24.183 0 0 0 7.12 17.13l1.411-1.417zm15.77 6.509v-2a20.34 20.34 0 0 1-14.358-5.925l-1.412 1.416-1.411 1.417a24.34 24.34 0 0 0 17.18 7.092v-2zm3.258 0v-2h-3.259v4h3.26v-2zm15.77-6.509-1.413-1.416a20.34 20.34 0 0 1-14.357 5.925v4a24.34 24.34 0 0 0 17.18-7.092l-1.41-1.417zm6.53-15.713h-2a20.183 20.183 0 0 1-5.943 14.297l1.412 1.416 1.412 1.417a24.183 24.183 0 0 0 7.12-17.13h-2zm0-1.282h-2v1.282h4v-1.282h-2zm2.143-2.135v-2a4.138 4.138 0 0 0-4.142 4.135h4c0-.068.057-.135.142-.135v-2zm2.141 2.135h2a4.138 4.138 0 0 0-4.141-4.135v4c.085 0 .141.067.141.135h2zm0 1.282h2v-1.282h-4v1.282h2zM76.391 75.64l1.412 1.416a28.443 28.443 0 0 0 8.374-20.148h-4a24.443 24.443 0 0 1-7.198 17.315l1.412 1.417zm-18.59 7.758.016 2a28.63 28.63 0 0 0 19.986-8.342l-1.412-1.416-1.412-1.417a24.631 24.631 0 0 1-17.194 7.175l.016 2zm0 10.861h2V83.4h-4V94.26h2zm0 0v2h6.226v-4h-6.226v2zm6.226 0v2c.197 0 .326.07.382.118.026.023.029.034.023.022a.183.183 0 0 1-.016-.076h4c0-2.509-2.25-4.064-4.389-4.064v2zm2.389 2.064h-2c0-.033.009-.062.016-.076.006-.012.003-.001-.023.022a.593.593 0 0 1-.382.118v4c2.14 0 4.389-1.555 4.389-4.064h-2zm-2.389 2.064v-2H48.094v4h15.933v-2zm-15.933 0v-2a.593.593 0 0 1-.382-.118c-.026-.023-.029-.034-.023-.022a.184.184 0 0 1 .016.076h-4c0 2.509 2.25 4.064 4.389 4.064v-2zm-2.389-2.064h2a.184.184 0 0 1-.016.076c-.005.012-.003.001.023-.022a.593.593 0 0 1 .382-.118v-4c-2.14 0-4.389 1.555-4.389 4.064h2zm2.389-2.064v2h5.305v-4h-5.305v2zm5.305-10.877h-2V94.26h4V83.383h-2zm-17.863-7.742-1.411 1.416a28.63 28.63 0 0 0 19.204 8.325l.07-1.999.07-1.999a24.629 24.629 0 0 1-16.52-7.16l-1.413 1.417zM27.75 56.909h-2a28.444 28.444 0 0 0 8.375 20.148l1.411-1.416 1.412-1.417a24.443 24.443 0 0 1-7.198-17.315h-2zm0-1.282h-2v1.282h4v-1.282h-2zm2.142-2.135v-2a4.138 4.138 0 0 0-4.142 4.135h4c0-.068.057-.135.142-.135v-2z" fill="#1E1E1E" mask="url(#kxmve3w4ib)"/>
    <rect x="40.59" y="13.996" width="30.823" height="56.252" rx="15.411" fill="#fff"/>
    <path d="M40.59 38.08c0-8.512 6.9-15.412 15.411-15.412 8.512 0 15.412 6.9 15.412 15.411v17.808c0 8.511-6.9 15.411-15.412 15.411-8.511 0-15.411-6.9-15.411-15.411V38.079z" fill="#E6EDF8"/>
    <rect x="39.59" y="12.996" width="32.823" height="58.252" rx="16.411" stroke="#1E1E1E" stroke-width="2"/>
    <path d="M61.566 32.402a1 1 0 0 0 0 2v-2zm0 1v1h11.13v-2h-11.13v1zM61.566 40.719a1 1 0 1 0 0 2v-2zm0 1v1h11.13v-2h-11.13v1zM61.566 49.04a1 1 0 1 0 0 2v-2zm0 1v1h11.13v-2h-11.13v1z" fill="#1E1E1E"/>
</svg>
