<?xml version="1.0" encoding="UTF-8"?>
<svg id="Layer_1" data-name="Layer 1" xmlns="http://www.w3.org/2000/svg" viewBox="0 0 48 48">
  <g>
    <path d="M5.3,33.6c.17-.09.37-.17.6-.21s.45-.07.66-.07.43.02.65.07c.22.03.43.12.59.21v.74c0,.21.07.43.2.65.13.22.33.43.58.62s.57.35.95.46.82.19,1.32.19c.74,0,1.3-.13,1.65-.4s.53-.6.53-1.03c0-.76-.59-1.3-1.77-1.65l-2.39-.7c-.44-.12-.86-.28-1.27-.48s-.76-.44-1.06-.73-.55-.64-.73-1.06-.28-.91-.28-1.48c0-.7.14-1.3.41-1.8s.63-.93,1.06-1.27.92-.58,1.45-.74,1.06-.24,1.57-.24c.78,0,1.41.12,1.92.34s.89.51,1.16.87v-.73c.17-.09.37-.17.59-.21s.43-.07.62-.07.41.02.64.07c.22.03.43.12.59.21v4.28c-.17.09-.37.17-.59.21-.22.03-.44.07-.65.07s-.43-.02-.66-.07-.43-.12-.6-.21v-.44c0-.24-.05-.49-.15-.71s-.26-.43-.46-.6c-.21-.17-.48-.33-.8-.43s-.72-.16-1.15-.16c-.4,0-.72.07-1,.19s-.49.28-.65.48c-.17.21-.26.45-.26.73,0,.26.08.49.24.72.17.22.5.4,1,.53l2.27.64c.56.16,1.09.35,1.58.56.49.22.93.49,1.3.8.37.33.67.72.88,1.19s.33,1.03.33,1.71c0,.72-.14,1.34-.43,1.85s-.67.93-1.14,1.27-1,.57-1.58.72c-.59.15-1.17.22-1.77.22-.74,0-1.44-.12-2.08-.35-.64-.24-1.12-.57-1.44-1v.86c-.17.09-.37.17-.59.21s-.43.07-.64.07-.41-.02-.62-.07-.41-.12-.58-.21v-4.62h0v.02Z" fill="#231f20" stroke-width="0"/>
    <path d="M18.58,36.16l3.76-11.28h3.74l3.61,11.28h1.03c.07.2.1.38.14.58s.05.37.05.53-.01.35-.05.55-.07.4-.14.59h-5.33c-.07-.17-.1-.35-.14-.53-.03-.2-.05-.36-.05-.52s.01-.33.05-.51.07-.36.14-.53h1.1l-.49-1.72h-3.93l-.53,1.72h1.12c.07.17.1.35.14.53s.05.35.05.51-.01.33-.05.52-.08.37-.14.53h-5.19c-.07-.2-.1-.4-.14-.59s-.05-.38-.05-.55.01-.35.05-.53c.03-.2.07-.38.14-.58h1.12-.01ZM25.46,32.53l-1.36-4.91-1.45,4.91h2.81Z" fill="#231f20" stroke-width="0"/>
    <path d="M35.07,36.16v-8.8h-2v2.15c-.17.09-.38.17-.62.21-.24.03-.45.07-.65.07s-.41-.02-.64-.07c-.22-.03-.43-.12-.59-.21v-4.46h12.08v4.46c-.17.09-.38.17-.62.21-.24.03-.45.07-.65.07s-.41-.02-.64-.07c-.22-.03-.43-.12-.59-.21v-2.15h-2v8.8h1.21c.07.2.1.38.14.58s.05.37.05.53-.01.35-.05.55-.08.4-.14.59h-5.52c-.07-.2-.1-.4-.14-.59s-.05-.38-.05-.55.01-.35.05-.53.07-.38.14-.58c0,0,1.22,0,1.22,0Z" fill="#231f20" stroke-width="0"/>
  </g>
  <path d="M43.33,26.21c0-.19.03-.36.1-.52s.17-.3.29-.41.27-.21.43-.28.33-.09.51-.09.35.03.51.09.3.15.42.28c.12.12.22.26.29.41s.1.33.1.52-.03.36-.1.52-.17.3-.29.42-.27.21-.42.28c-.16.07-.33.09-.51.09s-.35-.03-.51-.09-.3-.16-.43-.28c-.12-.12-.22-.26-.29-.42s-.1-.34-.1-.52ZM44.65,27.23c.14,0,.27-.02.38-.08.12-.05.22-.12.31-.21s.16-.2.21-.33c.05-.12.07-.26.07-.41s-.02-.28-.07-.41c-.05-.12-.12-.23-.21-.33s-.2-.16-.31-.21-.24-.08-.38-.08-.27.02-.4.08-.22.12-.31.21-.16.2-.21.33c-.05.12-.07.26-.07.41s.02.28.07.41c.05.12.12.23.21.33s.2.16.31.21.24.08.4.08ZM44.19,26.75v-1.07h-.1s-.01-.06-.01-.07v-.09s0-.03.01-.07h.67c.07,0,.14,0,.2.03s.12.06.15.09.07.09.09.14c.02.06.03.12.03.17,0,.07-.01.15-.05.23s-.1.14-.2.2l.2.43h.12s.01.06.01.07v.09s0,.03-.02.07h-.33l-.28-.62h-.22v.4h.13s.01.06.01.07v.09s0,.03-.02.07h-.51s-.01-.06-.01-.07v-.09s0-.03.01-.07h.12ZM44.7,26.11c.07,0,.13-.01.17-.06s.06-.09.06-.16c0-.06-.01-.12-.06-.14-.03-.03-.09-.06-.16-.06h-.24v.43h.23,0Z" fill="#231f20" stroke-width="0"/>
</svg>