<?xml version="1.0" encoding="UTF-8"?>
<svg id="Layer_1" data-name="Layer 1" xmlns="http://www.w3.org/2000/svg" viewBox="0 0 48 48">
  <path d="M20.45,33.31h7.12v4.27h-7.12v-4.27Z" fill="#fff" stroke-width="0"/>
  <path d="M20.45,33.31h7.12v2.14h-7.12v-2.14Z" fill="#e6edf8" stroke-width="0"/>
  <path d="M27.57,38.15h-7.12c-.32,0-.57-.26-.57-.57v-4.27c0-.32.26-.57.57-.57h7.12c.32,0,.57.26.57.57v4.27c0,.32-.26.57-.57.57ZM21.02,37.01h5.97v-3.13h-5.97v3.13Z" fill="#1d1e1e" stroke-width="0"/>
  <path d="M33.21,39.9c0,.06,0,.13,0,.2-.02.06-.05.12-.09.17s-.09.09-.15.12-.12.04-.19.04H15.25c-.07,0-.13,0-.19-.04-.06-.03-.11-.07-.15-.12s-.07-.11-.09-.17c-.02-.06-.02-.13,0-.2.12-.65.47-1.24.98-1.66s1.15-.65,1.82-.65h12.81c.66,0,1.3.23,1.82.65.51.42.86,1.01.98,1.66h-.02Z" fill="#e6edf8" stroke-width="0"/>
  <path d="M32.77,41H15.25c-.15,0-.3-.03-.43-.1-.14-.07-.26-.16-.35-.27-.1-.11-.17-.25-.2-.4-.04-.15-.04-.3-.02-.44.15-.78.57-1.49,1.18-2,.61-.51,1.39-.78,2.18-.78h12.81c.79,0,1.57.28,2.18.78.61.51,1.03,1.21,1.18,1.99h0c.03.15.02.3-.02.45-.04.14-.11.28-.2.39-.1.12-.22.21-.36.28-.13.06-.28.1-.43.1ZM15.4,39.86h17.21c-.12-.46-.38-.88-.75-1.18-.41-.34-.92-.52-1.45-.52h-12.81c-.53,0-1.04.19-1.45.52-.37.3-.63.72-.75,1.18Z" fill="#1d1e1e" stroke-width="0"/>
  <path d="M42.51.57H5.51c-.94,0-1.85.37-2.52,1.04-.67.67-1.04,1.57-1.04,2.52v23.49h44.12V4.13c0-.94-.38-1.85-1.04-2.52-.67-.67-1.57-1.04-2.52-1.04h0Z" fill="#e6edf8" stroke-width="0"/>
  <path d="M29.36.57H5.51c-.47,0-.93.09-1.36.27-.43.18-.82.44-1.15.77-.33.33-.59.72-.77,1.15s-.27.89-.27,1.36v23.86L29.36.57Z" fill="#fff" stroke-width="0"/>
  <path d="M46.07,28.19H1.95c-.32,0-.57-.26-.57-.57V4.13c0-1.1.43-2.14,1.21-2.92s1.82-1.21,2.92-1.21h37c1.1,0,2.14.43,2.92,1.21.78.78,1.21,1.82,1.21,2.92v23.49c0,.32-.26.57-.57.57ZM2.52,27.05h42.98V4.13c0-.8-.31-1.55-.87-2.11-.56-.56-1.31-.87-2.11-.87H5.51c-.8,0-1.55.31-2.11.87s-.87,1.31-.88,2.11v22.92Z" fill="#1d1e1e" stroke-width="0"/>
  <path d="M42.51,33.31c.47,0,.93-.09,1.36-.27s.82-.44,1.15-.77c.33-.33.59-.72.77-1.15s.27-.89.27-1.36v-2.14H1.95v2.14c0,.47.09.93.27,1.36s.44.82.77,1.15c.33.33.72.59,1.15.77.43.18.89.27,1.36.27h37.01Z" fill="#fff" stroke-width="0"/>
  <path d="M42.52,33.88H5.5c-.54,0-1.07-.11-1.58-.31-.5-.21-.95-.51-1.34-.9-.39-.38-.69-.84-.9-1.34-.21-.5-.32-1.04-.32-1.58v-2.14c0-.32.26-.57.57-.57h44.14c.32,0,.57.26.57.57v2.14c0,.55-.11,1.08-.31,1.58s-.51.95-.9,1.34-.84.69-1.34.9c-.5.21-1.03.31-1.58.31h.01ZM5.51,32.74h37.01c.39,0,.78-.08,1.14-.23s.69-.37.97-.65.5-.6.65-.97c.15-.36.23-.75.23-1.14v-1.56H2.52v1.56c0,.39.08.78.23,1.14.15.36.37.69.65.97.28.28.61.5.97.65.36.15.75.23,1.14.23h0Z" fill="#1d1e1e" stroke-width="0"/>
  <path d="M22.78,29.99c0,.16.03.32.09.47s.15.28.27.4.25.2.4.27c.15.06.31.09.47.09s.32-.03.47-.09.28-.15.4-.27.2-.25.27-.4c.06-.15.09-.31.09-.47s-.03-.32-.09-.47-.15-.28-.27-.4-.25-.2-.4-.27c-.15-.06-.31-.09-.47-.09s-.32.03-.47.09-.28.15-.4.27-.2.25-.27.4c-.06.15-.09.31-.09.47Z" fill="#618fff" stroke-width="0"/>
  <path d="M24.01,31.62c-.22,0-.43-.04-.62-.12-.2-.08-.38-.2-.53-.35-.15-.16-.27-.33-.36-.53-.08-.2-.12-.41-.12-.63s.04-.42.12-.62.2-.38.35-.53c.15-.15.33-.27.53-.35.4-.17.85-.17,1.25,0,.2.08.38.2.53.35s.27.33.35.53.12.41.12.62-.04.43-.13.63c-.08.2-.2.38-.35.53-.15.15-.33.27-.53.35s-.41.12-.63.12h.02ZM24.01,29.17c-.11,0-.21.02-.31.06-.1.04-.19.1-.27.18-.07.08-.14.17-.18.26-.04.1-.06.21-.06.31s.02.21.06.31c.04.1.1.19.18.27s.17.13.26.18c.2.08.43.08.62,0,.1-.04.19-.1.26-.18.08-.08.14-.17.18-.27s.06-.2.06-.31-.02-.21-.06-.31c-.04-.1-.1-.19-.18-.27s-.17-.14-.27-.18-.2-.06-.31-.06h.02Z" fill="#1d1e1e" stroke-width="0"/>
  <path d="M14.82,7.9c0,.27.11.54.3.73.19.19.46.3.73.3s.54-.11.73-.3.3-.46.3-.73-.11-.54-.3-.73-.46-.3-.73-.3-.54.11-.73.3-.3.46-.3.73Z" fill="#618fff" stroke-width="0"/>
  <path d="M31.81,8.47h-11.41c-.32,0-.57-.26-.57-.57s.26-.57.57-.57h11.41c.32,0,.57.26.57.57s-.26.57-.57.57Z" fill="#1d1e1e" stroke-width="0"/>
  <path d="M14.82,14.27c0,.27.11.54.3.73.19.19.46.3.73.3s.54-.11.73-.3.3-.46.3-.73-.11-.54-.3-.73-.46-.3-.73-.3-.54.11-.73.3c-.19.19-.3.46-.3.73Z" fill="#618fff" stroke-width="0"/>
  <path d="M31.81,14.84h-11.41c-.32,0-.57-.26-.57-.57s.26-.57.57-.57h11.41c.32,0,.57.26.57.57s-.26.57-.57.57Z" fill="#1d1e1e" stroke-width="0"/>
  <path d="M14.82,20.65c0,.27.11.54.3.73.19.19.46.3.73.3s.54-.11.73-.3c.19-.19.3-.46.3-.73s-.11-.54-.3-.73-.46-.3-.73-.3-.54.11-.73.3c-.19.19-.3.46-.3.73Z" fill="#618fff" stroke-width="0"/>
  <path d="M31.81,21.22h-11.41c-.32,0-.57-.26-.57-.57s.26-.57.57-.57h11.41c.32,0,.57.26.57.57s-.26.57-.57.57Z" fill="#1d1e1e" stroke-width="0"/>
</svg>