<svg width="32" height="32" viewBox="0 0 32 32" fill="none" xmlns="http://www.w3.org/2000/svg">
    <g clip-path="url(#c7ra844u0a)">
        <circle cx="16" cy="16" r="16" fill="#fff"/>
        <path d="M19.71 16.121a.53.53 0 0 0-.53.53v6.35a.53.53 0 0 0 .53.53h1v-7.41h-1zM12.29 16.121h-1v7.41h1a.53.53 0 0 0 .53-.53v-6.35a.53.53 0 0 0-.53-.53z" fill="#1E1E1E"/>
        <path d="M24.471 15.062A8.471 8.471 0 0 0 11.16 8.275a8.47 8.47 0 0 0-3.158 9.727 3.71 3.71 0 0 0 2.67 5.54v-7.33a3.62 3.62 0 0 0-1.46.53 6.89 6.89 0 1 1 13.5 0 3.79 3.79 0 0 0-1.46-.54v7.34a3.71 3.71 0 0 0 2.75-5.54c.33-.945.49-1.94.47-2.94z" fill="#1E1E1E"/>
        <path d="m6.958 4.686-1.33 1.33 21.299 21.298 1.33-1.33L6.957 4.686z" fill="#AB2334"/>
        <path d="M16 0a16 16 0 1 0 0 32 16 16 0 0 0 0-32zm14.12 16a14.12 14.12 0 0 1-3.07 8.78L7.22 5a14.11 14.11 0 0 1 22.9 11zM1.88 16a14.07 14.07 0 0 1 4-9.78l19.95 20a14.11 14.11 0 0 1-23.9-10.17L1.88 16z" fill="#AB2334"/>
        <path d="M16 0a16 16 0 1 0 0 32 16 16 0 0 0 0-32zm0 30.12A14.11 14.11 0 0 1 5.83 6.22l19.95 20a14.07 14.07 0 0 1-9.78 3.9zm11-5.34L7.23 5a14.11 14.11 0 0 1 19.82 19.83l-.05-.05z" fill="#AB2334"/>
    </g>
    <defs>
        <clipPath id="c7ra844u0a">
            <path fill="#fff" d="M0 0h32v32H0z"/>
        </clipPath>
    </defs>
</svg>
