<?xml version="1.0" encoding="UTF-8"?>
<svg id="Layer_1" data-name="Layer 1" xmlns="http://www.w3.org/2000/svg" viewBox="0 0 48 48">
  <path d="M8.46,17.9h30.53v-6.41H8.46v6.41Z" fill="#9c59b2" stroke-width="0"/>
  <path d="M38.97,17.91H8.46v-3.23h30.53v3.23h-.01Z" fill="#702f8a" stroke-width="0"/>
  <path d="M38.97,18.33H8.46c-.23,0-.42-.2-.42-.43v-6.42c0-.11.05-.22.13-.3s.19-.12.3-.12h30.53c.11,0,.22.05.3.13.08.08.12.19.12.3v6.42c0,.23-.19.42-.43.42h-.01ZM8.88,17.47h29.67v-5.57H8.88v5.57Z" fill="#1d1e1e" stroke-width="0"/>
  <path d="M42.19,18.33h-3.22c-.23,0-.42-.19-.42-.43v-6.42c0-.23.19-.42.43-.42h3.22c.11,0,.22.05.3.13.08.08.12.19.12.3v6.42c0,.23-.19.42-.43.42ZM39.4,17.48h2.36v-5.57h-2.36v5.57Z" fill="#1d1e1e" stroke-width="0"/>
  <path d="M44.6,11.49c.85,0,1.67.34,2.27.94s.94,1.42.94,2.27-.34,1.67-.94,2.27-1.42.94-2.27.94h-2.41v-6.43h2.41Z" fill="#fff" stroke-width="0"/>
  <path d="M47.82,14.7c0,.42-.08.84-.24,1.23-.16.39-.4.74-.69,1.05s-.65.53-1.05.69-.8.24-1.23.24h-2.41v-3.23h5.62s0,.01,0,.02Z" fill="#f1eaf3" stroke-width="0"/>
  <path d="M44.6,18.33h-2.41c-.11,0-.22-.05-.3-.13-.08-.08-.12-.19-.12-.3v-6.43c0-.11.05-.22.13-.3s.19-.12.3-.12h2.4c.95,0,1.9.39,2.57,1.08.68.68,1.07,1.6,1.07,2.57s-.38,1.89-1.07,2.57-1.6,1.07-2.57,1.07ZM42.62,17.48h1.98c.74,0,1.45-.29,1.97-.81.52-.52.81-1.24.81-1.97s-.29-1.45-.81-1.97c-.52-.52-1.24-.81-1.97-.81h-1.98v5.57Z" fill="#1d1e1e" stroke-width="0"/>
  <path d="M8.46,14.69v3.22c-.13.07-7.94-3.18-8.02-3.22h8.02Z" fill="#f1eaf3" stroke-width="0"/>
  <path d="M19.45,34.55c0-.57-.14-1.15-.39-1.66s-.62-.96-1.08-1.32l-1.62-1.28V8.98c0-.33.06-.65.17-.95.13-.3.3-.58.53-.81.23-.23.5-.41.8-.54.3-.13.63-.19.95-.19s.65.07.95.19.57.31.8.54.41.5.53.81c.13.3.18.63.17.95v1.54c0-.33.06-.65.17-.95.13-.3.3-.58.53-.81s.5-.41.8-.55.63-.19.95-.19.65.07.95.19.57.31.8.55c.23.23.41.5.53.81.11.31.18.63.17.95v1.23c0-.64.27-1.26.73-1.72.46-.46,1.08-.71,1.73-.71s1.27.25,1.73.71c.46.46.72,1.07.73,1.72.87-1.8,4.93-1.66,4.93,2.51v4.26c0,6.35-2.46,7.46-2.46,11.09v4.93" fill="#f1eaf3" stroke-width="0"/>
  <path d="M34.1,34.55h-.97v-4.93c0-1.66.49-2.84,1.02-4.09.68-1.63,1.46-3.47,1.46-6.99v-4.26c0-1.64-.72-2.78-1.92-3.07-.88-.21-1.78.13-2.09.77l-.93-.21c0-.53-.22-1.01-.6-1.37-.74-.73-2.03-.73-2.77,0-.37.37-.58.86-.58,1.37h-.97v-1.24c0-.27-.05-.53-.14-.78-.1-.24-.24-.47-.42-.65-.18-.18-.4-.33-.64-.44-.48-.21-1.04-.21-1.52,0-.24.1-.46.25-.64.44s-.33.4-.42.65c-.09.23-.14.46-.14.7v.08h-.97v-1.55c0-.27-.05-.53-.14-.78-.1-.24-.24-.47-.42-.65-.18-.18-.4-.33-.64-.44-.48-.21-1.04-.21-1.52,0-.24.1-.46.25-.64.44s-.33.41-.42.65c-.1.24-.15.5-.14.77v21.08l1.43,1.13c.5.39.93.91,1.21,1.48s.44,1.23.44,1.87h-.97c0-.49-.11-1-.33-1.44s-.54-.84-.94-1.15l-1.81-1.43V8.98c0-.39.07-.77.21-1.13.15-.37.37-.7.64-.97.27-.27.6-.5.96-.65.72-.3,1.55-.31,2.28,0,.37.15.69.37.96.65.27.27.49.61.63.97.07.16.11.33.15.5.26-.25.56-.45.89-.58.72-.31,1.56-.3,2.28,0,.37.15.69.37.96.65.27.27.49.61.63.97.05.1.08.21.1.32h.01c.56-.56,1.29-.86,2.07-.86s1.51.3,2.07.85c.3.29.53.63.68,1.01.65-.47,1.56-.65,2.46-.45.63.15,2.68.86,2.68,4.01v4.26c0,3.71-.85,5.74-1.52,7.37-.5,1.21-.94,2.26-.94,3.72v4.93h-.05Z" fill="#1d1e1e" stroke-width="0"/>
  <path d="M23.77,18.68c.65,0,1.28-.26,1.74-.72s.72-1.09.72-1.74v-6.31c0-.64-.27-1.26-.73-1.72s-1.08-.71-1.73-.71-1.27.25-1.73.71-.72,1.07-.73,1.72v6.31c0,.65.26,1.28.72,1.74s1.09.72,1.74.72h0Z" fill="#f1eaf3" stroke-width="0"/>
  <path d="M23.77,19.17c-.79,0-1.52-.31-2.09-.87-.56-.55-.86-1.29-.86-2.09v-6.31c.01-.79.32-1.51.88-2.06.56-.55,1.29-.85,2.07-.85s1.51.3,2.07.85c.55.55.87,1.27.88,2.05v6.32c0,.79-.31,1.52-.86,2.09-.55.56-1.29.86-2.09.86h-.02ZM23.77,7.97c-.53,0-1.02.21-1.39.57-.37.37-.58.86-.58,1.37v6.3c0,.53.21,1.02.57,1.4.74.74,2.05.74,2.8,0,.37-.37.58-.88.58-1.4v-6.31c0-.52-.22-1.01-.6-1.37-.37-.37-.87-.57-1.39-.57h0Z" fill="#1d1e1e" stroke-width="0"/>
  <path d="M28.69,19.46c.65,0,1.28-.26,1.74-.72s.72-1.09.72-1.74v-6.31c0-.33-.06-.65-.17-.95-.13-.3-.3-.58-.53-.81-.23-.23-.5-.41-.8-.54-.3-.13-.63-.19-.95-.19s-.65.07-.95.19c-.3.13-.57.31-.8.54-.23.23-.41.5-.53.81-.13.3-.18.63-.17.95v6.31c0,.65.26,1.28.72,1.74s1.09.72,1.74.72h-.02Z" fill="#f1eaf3" stroke-width="0"/>
  <path d="M28.69,19.94c-.79,0-1.52-.31-2.09-.86-.56-.56-.86-1.29-.86-2.09v-6.31c0-.39.07-.77.21-1.13.15-.37.37-.7.64-.97s.6-.5.96-.65c.72-.3,1.55-.31,2.28,0,.37.15.69.37.96.65.27.27.49.61.63.97.15.37.22.76.21,1.15v6.3c0,.79-.31,1.52-.86,2.09-.56.56-1.29.86-2.09.86ZM28.69,8.66c-.26,0-.53.05-.77.15-.24.1-.46.25-.64.44s-.33.41-.42.65c-.1.24-.15.5-.14.77v6.32c0,.53.21,1.02.58,1.4.74.74,2.05.74,2.8,0,.38-.38.58-.87.58-1.4v-6.31c0-.27-.05-.53-.14-.78-.1-.24-.24-.47-.42-.65s-.4-.33-.64-.44c-.24-.1-.5-.15-.77-.15h-.02Z" fill="#1d1e1e" stroke-width="0"/>
  <path d="M33.62,18.84c.65,0,1.28-.26,1.74-.72s.72-1.09.72-1.74v-4.47c0-.64-.27-1.26-.73-1.72-.46-.46-1.08-.71-1.73-.71s-1.27.25-1.73.71c-.46.46-.72,1.07-.73,1.72v4.47c0,.65.26,1.28.72,1.74s1.09.72,1.74.72h0Z" fill="#f1eaf3" stroke-width="0"/>
  <path d="M33.62,19.32c-.79,0-1.52-.31-2.09-.87-.56-.55-.86-1.29-.86-2.09v-4.47c.01-.79.32-1.51.88-2.06s1.29-.85,2.07-.85,1.51.3,2.07.85c.55.55.87,1.27.88,2.05v4.47c0,.79-.31,1.52-.86,2.09-.55.55-1.31.86-2.09.86l-.02.02ZM33.62,9.97c-.53,0-1.02.21-1.39.57s-.58.86-.58,1.37v4.46c0,.53.21,1.02.57,1.4.74.74,2.05.74,2.8,0,.38-.38.58-.87.58-1.4v-4.46c0-.52-.22-1.01-.6-1.37-.37-.37-.87-.57-1.39-.57Z" fill="#1d1e1e" stroke-width="0"/>
  <path d="M19.45,34.53c0-.57-.14-1.15-.39-1.66s-.62-.96-1.08-1.32l-3.41-2.62c-1-.74-1.8-1.7-2.37-2.8-.56-1.1-.87-2.31-.91-3.55v-4.78c0-.99.39-1.92,1.09-2.61.7-.7,1.64-1.09,2.61-1.09h5.18c.71.02,1.4.33,1.89.85.49.52.78,1.2.78,1.92s-.27,1.41-.78,1.92c-.49.52-1.17.81-1.89.85h-4.12c4.42,0,8.34,3.7,8.34,8.12v1.84" fill="#f1eaf3" stroke-width="0"/>
  <path d="M19.45,35.03c-.26,0-.48-.22-.48-.48,0-.49-.11-1-.33-1.44s-.55-.85-.94-1.15l-3.41-2.62c-1.04-.78-1.9-1.8-2.5-2.96-.6-1.16-.93-2.46-.96-3.76v-4.79c0-1.12.44-2.17,1.23-2.96s1.84-1.23,2.96-1.23h5.18c.86.03,1.65.39,2.23,1s.91,1.41.91,2.26-.32,1.65-.91,2.26c-.58.61-1.37.96-2.22,1h-.14c2.83,1.46,4.82,4.37,4.82,7.64v1.84c0,.26-.22.48-.48.48s-.48-.22-.48-.48v-1.84c0-4.07-3.67-7.64-7.85-7.64-.26,0-.48-.22-.48-.48s.22-.48.48-.48h4.12c.57-.02,1.12-.26,1.54-.7.41-.42.64-.99.64-1.58s-.23-1.16-.64-1.58c-.41-.42-.96-.68-1.56-.7h-5.16c-.86,0-1.66.33-2.27.94s-.94,1.41-.94,2.27v4.78c.02,1.15.32,2.3.85,3.32.53,1.03,1.29,1.94,2.22,2.64l3.43,2.64c.52.39.93.91,1.21,1.49s.44,1.23.44,1.87c0,.26-.22.48-.48.48l-.02-.02Z" fill="#1d1e1e" stroke-width="0"/>
  <path d="M11.3,17.81v4.78c.02,1.24.33,2.45.91,3.55.56,1.1,1.37,2.05,2.37,2.8l3.41,2.62c.46.36.82.8,1.08,1.32.25.52.39,1.09.39,1.66h3.69c0-.57-.15-1.13-.4-1.65-.25-.52-.61-.96-1.05-1.33l-3.41-2.62c-1-.74-1.8-1.7-2.37-2.8-.57-1.1-.87-2.31-.91-3.55v-4.78c0-.99.39-1.92,1.09-2.61.7-.7,1.64-1.09,2.61-1.09h-3.69c-.99,0-1.92.39-2.61,1.08-.7.69-1.09,1.63-1.09,2.61h-.01Z" fill="#e3cceb" stroke-width="0"/>
  <path d="M19.45,35.03c-.26,0-.48-.22-.48-.48,0-.49-.11-1-.33-1.44s-.55-.85-.94-1.15l-3.41-2.62c-1.04-.78-1.9-1.8-2.5-2.96-.6-1.16-.93-2.46-.96-3.76v-4.79c0-1.12.44-2.17,1.23-2.96s1.84-1.23,2.96-1.23h5.18c.86.03,1.65.39,2.23,1s.91,1.41.91,2.26-.32,1.65-.91,2.26c-.58.61-1.37.96-2.22,1h-.14c2.83,1.46,4.82,4.37,4.82,7.64v1.84c0,.26-.22.48-.48.48s-.48-.22-.48-.48v-1.84c0-4.07-3.67-7.64-7.85-7.64-.26,0-.48-.22-.48-.48s.22-.48.48-.48h4.12c.57-.02,1.12-.26,1.54-.7.41-.42.64-.99.64-1.58s-.23-1.16-.64-1.58c-.41-.42-.96-.68-1.56-.7h-5.16c-.86,0-1.66.33-2.27.94s-.94,1.41-.94,2.27v4.78c.02,1.15.32,2.3.85,3.32.53,1.03,1.29,1.94,2.22,2.64l3.43,2.64c.52.39.93.91,1.21,1.49s.44,1.23.44,1.87c0,.26-.22.48-.48.48l-.02-.02Z" fill="#1d1e1e" stroke-width="0"/>
  <path d="M8.46,14.67v-3.22c-.13-.07-7.94,3.18-8.02,3.22h8.02Z" fill="#fff" stroke-width="0"/>
  <path d="M8.51,18.31c-.33,0-1.49-.43-8.25-3.24-.16-.07-.26-.22-.26-.39s.11-.33.27-.39l8.03-3.21c.13-.05.28-.04.4.04.12.08.19.21.19.35v6.42c0,.16-.09.31-.24.38-.04.02-.07.03-.13.03h-.01ZM8.45,17.9,1.54,14.7c2.33.96,5.3,2.18,6.47,2.62v-5.21l-6.47,2.58Z" fill="#1d1e1e" stroke-width="0"/>
</svg>