<svg width="28" height="26" viewBox="0 0 28 26" fill="none" xmlns="http://www.w3.org/2000/svg">
    <path d="M23 0H5a5 5 0 0 0-5 5v16a5 5 0 0 0 5 5h18a5 5 0 0 0 5-5V5a5 5 0 0 0-5-5z" fill="#fff"/>
    <path d="M23 0H5C2.24 0 0 2.24 0 5v16c0 2.76 2.24 5 5 5h18c2.76 0 5-2.24 5-5V5c0-2.76-2.24-5-5-5zm4 21c0 2.21-1.79 4-4 4H5c-2.21 0-4-1.79-4-4V5c0-2.21 1.79-4 4-4h18c2.21 0 4 1.79 4 4v16z" fill="#1E1E1E"/>
    <path d="M18.45 8.81s-.05.02-.07.04c-.25.16-.47.35-.66.57l-.64.53c-.13-.35-.32-.66-.63-.88-.54-.4-1.32-.59-2.36-.59H11.1v5.85L8.91 8.48H7.28L4.1 17.01h1.87l.59-1.76h3.08l.22.64-5.59 4.6.63.77 5.3-4.36 2.66-2.17v-.02l1.71-1.41h.02l5.99-4.92h-.02l3.73-3.07-.63-.77-5.2 4.28-.01-.01zM7.04 13.82l1.06-3.19 1.07 3.19H7.04zm5.82-.41v-.13h.16l-.16.13zm2.57-2.12-.84.69c-.13.03-.27.05-.43.06h-1.3V9.89h1.23c.48 0 .84.08 1.06.25.22.17.34.45.34.84 0 .12-.03.21-.06.31zM21.44 15.313c-.27.25-.67.37-1.22.37-.6 0-1.04-.21-1.32-.64-.28-.43-.42-1.1-.42-2.02v-.64c0-.41.04-.76.11-1.07l-1.89 1.55v.08s-.04-.02-.06-.04l-1.12.92c.1.18.16.38.16.65 0 .35-.12.62-.35.82-.23.2-.56.3-.97.3h-.98l-1.72 1.41h2.75c.97 0 1.71-.22 2.24-.64.29-.23.49-.53.62-.88.11.19.23.38.37.54.63.74 1.49 1.11 2.58 1.11 1 0 1.81-.26 2.42-.79.61-.53.95-1.25 1.02-2.17H21.9c-.04.52-.19.9-.46 1.15v-.01zM21.82 8.648l-1.41 1.16c.45.02.82.13 1.05.35.26.25.42.65.46 1.2h1.76c-.09-.95-.44-1.69-1.04-2.22-.24-.21-.51-.37-.81-.49h-.01z" fill="#1E1E1E"/>
</svg>
