<?xml version="1.0" encoding="UTF-8"?>
<svg id="Layer_1" data-name="Layer 1" xmlns="http://www.w3.org/2000/svg" viewBox="0 0 48 48">
  <path d="M3.92,5.94h40.16v34.5H3.92V5.94Z" fill="#fff" stroke-width="0"/>
  <path d="M43.85,16.58H3.7V7.99c0-.51.2-1,.56-1.37.36-.36.84-.57,1.34-.57h36.35c.5,0,.99.2,1.34.57.36.36.56.85.56,1.37v8.59Z" fill="#618fff" stroke-width="0"/>
  <path d="M41.56,6.06H5.99c-.3,0-.86-.12-1.13,0-.28.12-.53.29-.74.51s-.13.66-.24.94c-.12.28-.17.59-.17.9v2.92c0-.62.24-1.22.67-1.65.43-.44,1.01-.68,1.62-.68h35.56c.61,0,1.19.25,1.62.68.43.44.67,1.03.67,1.65v-2.92c0-.31.34-1.04.23-1.33-.12-.28-.28-.54-.5-.76s-.47-.39-.74-.51c-.28-.12-.98.25-1.28.25Z" fill="#c7dbff" stroke-width="0"/>
  <path d="M44.08,41H3.92c-.31,0-.56-.25-.56-.56V5.94c0-.31.25-.56.56-.56h40.16c.31,0,.56.25.56.56v34.5c0,.31-.25.56-.56.56ZM4.49,39.88h39.02V6.5H4.49v33.38Z" fill="#1d1e1e" stroke-width="0"/>
  <path d="M14.36,28.13c0,2.56,1.02,5.01,2.82,6.81,1.81,1.81,4.26,2.82,6.81,2.82s5.01-1.02,6.81-2.82,2.82-4.26,2.82-6.81-1.02-5.01-2.82-6.81c-1.81-1.81-4.26-2.82-6.81-2.82s-5.01,1.02-6.81,2.82c-1.81,1.81-2.82,4.26-2.82,6.81h0Z" fill="#e6edf8" stroke-width="0"/>
  <path d="M14.55,30.01c-.28-1.39-.24-2.83.1-4.21.34-1.38.99-2.67,1.89-3.77.9-1.1,2.03-1.99,3.31-2.6,1.28-.61,2.69-.93,4.11-.94,1.42,0,2.83.3,4.11.9,1.29.6,2.43,1.48,3.34,2.57.91,1.09,1.56,2.37,1.92,3.75s.4,2.81.14,4.21c-.43-2.2-1.61-4.18-3.35-5.6-1.73-1.42-3.91-2.19-6.15-2.18-2.24,0-4.41.8-6.13,2.23-1.72,1.43-2.89,3.42-3.3,5.63" fill="#fff" stroke-width="0"/>
  <path d="M24,38.33c-2.72,0-5.29-1.06-7.21-2.99-1.93-1.93-2.99-4.49-2.99-7.21s1.06-5.29,2.99-7.21c1.93-1.93,4.49-2.99,7.21-2.99s5.29,1.06,7.21,2.99c1.93,1.93,2.99,4.49,2.99,7.21s-1.06,5.29-2.99,7.21c-1.93,1.92-4.49,2.99-7.21,2.99ZM24,19.06c-2.42,0-4.7.94-6.42,2.66-1.71,1.71-2.66,3.99-2.66,6.42s.94,4.7,2.66,6.42c1.71,1.71,3.99,2.66,6.42,2.66s4.7-.94,6.42-2.66c1.71-1.71,2.66-3.99,2.66-6.42s-.94-4.7-2.66-6.42c-1.71-1.71-3.99-2.66-6.42-2.66Z" fill="#1d1e1e" stroke-width="0"/>
  <path d="M13.21,9.73c0,.2-.03.4-.1.59-.07.19-.18.36-.32.5-.14.14-.31.26-.49.34-.18.08-.38.12-.58.12s-.4-.04-.58-.12-.35-.19-.49-.34-.25-.32-.32-.5c-.07-.19-.11-.39-.1-.59V2.15c0-.2.03-.4.1-.59.07-.19.18-.36.32-.5.14-.14.31-.26.49-.34.18-.08.38-.12.58-.12s.4.04.58.12.35.19.49.34c.14.14.25.32.32.5.07.19.11.39.1.59v7.58Z" fill="#e6edf8" stroke-width="0"/>
  <path d="M11.72.63c-.2,0-.39.04-.57.11-.18.08-.35.19-.49.33-.14.14-.25.31-.32.49-.08.18-.11.38-.11.58v2.53c0-.2.03-.4.1-.59.07-.19.18-.36.32-.5.14-.14.31-.26.49-.34.18-.08.38-.12.58-.12s.4.04.58.12.35.19.49.34c.14.14.25.32.32.5.07.19.11.39.1.59v-2.52c0-.2-.04-.4-.11-.58-.08-.18-.19-.35-.32-.49-.14-.14-.3-.25-.49-.33-.18-.08-.38-.12-.57-.12h0Z" fill="#fff" stroke-width="0"/>
  <path d="M11.72,11.88c-.28,0-.56-.06-.82-.17s-.49-.27-.68-.47c-.19-.2-.35-.44-.45-.7-.1-.26-.15-.54-.14-.82V2.15c0-.27.04-.55.15-.81.1-.26.25-.5.45-.7s.43-.36.69-.47c.52-.22,1.11-.22,1.63,0,.26.11.49.27.68.47.19.2.35.44.45.7.1.26.15.54.14.82v7.56c0,.28-.04.55-.14.81-.1.27-.25.5-.45.7-.19.2-.42.36-.68.47-.26.11-.53.17-.82.17h-.01ZM11.72,1.19c-.12,0-.24.02-.35.07-.11.05-.21.12-.3.2s-.15.19-.2.31c-.05.12-.07.24-.06.36v7.6c0,.14.02.26.06.38s.11.22.2.31.18.16.3.21c.22.09.48.09.7,0,.11-.05.21-.12.3-.2.09-.09.15-.19.2-.31.04-.12.07-.24.06-.36h0V2.15c0-.14-.02-.26-.06-.38s-.11-.22-.2-.31c-.08-.09-.18-.16-.3-.2-.11-.05-.23-.07-.35-.07ZM13.81,9.73" fill="#1d1e1e" stroke-width="0"/>
  <path d="M37.77,9.73c0,.2-.03.4-.1.59-.07.19-.18.36-.32.5s-.31.26-.49.34-.38.12-.58.12-.4-.04-.58-.12-.35-.19-.49-.34-.25-.32-.32-.5c-.07-.19-.11-.39-.1-.59V2.15c0-.2.03-.4.1-.59.07-.19.18-.36.32-.5s.31-.26.49-.34c.18-.08.38-.12.58-.12s.4.04.58.12.35.19.49.34c.14.14.25.32.32.5.07.19.11.39.1.59v7.58Z" fill="#e6edf8" stroke-width="0"/>
  <path d="M36.27.63c-.2,0-.39.04-.57.11-.18.08-.35.19-.49.33-.14.14-.25.31-.32.49-.08.18-.11.38-.11.58v2.53c0-.2.03-.4.1-.59s.18-.36.32-.5c.14-.14.31-.26.49-.34s.38-.12.58-.12.4.04.58.12.35.19.49.34c.14.14.25.32.32.5.07.19.11.39.1.59v-2.52c0-.2-.04-.4-.11-.58-.08-.18-.19-.35-.32-.49-.14-.14-.3-.25-.49-.33-.18-.08-.38-.12-.57-.12h0Z" fill="#fff" stroke-width="0"/>
  <path d="M36.27,11.88c-.28,0-.56-.06-.82-.17s-.49-.27-.68-.47-.35-.44-.45-.7c-.1-.26-.15-.54-.14-.82V2.15c0-.27.04-.55.15-.81.1-.26.25-.5.45-.7s.43-.36.69-.47c.52-.22,1.11-.22,1.63,0,.26.11.49.27.68.47s.35.44.45.7c.1.26.15.54.14.82v7.56c0,.28-.04.55-.14.81-.1.27-.25.5-.45.7-.19.2-.42.36-.68.47-.26.11-.53.17-.82.17h-.01ZM36.27,1.19c-.12,0-.24.02-.35.07-.11.05-.21.12-.3.2s-.15.19-.2.31c-.05.12-.07.24-.06.36v7.6c0,.14.02.26.06.38s.11.22.2.31.18.16.3.21c.22.09.48.09.7,0,.11-.05.21-.12.3-.2.09-.09.15-.19.2-.31.04-.12.07-.24.06-.36h0V2.15c0-.14-.02-.26-.06-.38s-.11-.22-.2-.31c-.08-.09-.18-.16-.3-.2-.11-.05-.23-.07-.35-.07ZM38.36,9.73" fill="#1d1e1e" stroke-width="0"/>
  <path d="M29.02,26.74h-3.62v-3.62c0-.77-.63-1.4-1.4-1.4s-1.4.63-1.4,1.4v3.62h-3.62c-.77,0-1.4.63-1.4,1.4s.63,1.4,1.4,1.4h3.62v3.62c0,.77.63,1.4,1.4,1.4s1.4-.63,1.4-1.4v-3.62h3.62c.77,0,1.4-.63,1.4-1.4s-.63-1.4-1.4-1.4Z" fill="#618fff" stroke-width="0"/>
  <path d="M24,35.12c-1.08,0-1.95-.88-1.95-1.95v-3.07h-3.07c-1.08,0-1.95-.88-1.95-1.95s.88-1.95,1.95-1.95h3.07v-3.07c0-1.08.88-1.95,1.95-1.95s1.95.88,1.95,1.95v3.07h3.07c1.08,0,1.95.88,1.95,1.95s-.88,1.95-1.95,1.95h-3.07v3.07c0,1.08-.88,1.95-1.95,1.95ZM18.98,27.29c-.47,0-.85.38-.85.85s.38.85.85.85h4.17v4.17c0,.47.38.85.85.85s.85-.38.85-.85v-4.17h4.17c.47,0,.85-.38.85-.85s-.38-.85-.85-.85h-4.17v-4.17c0-.47-.38-.85-.85-.85s-.85.38-.85.85v4.17h-4.17Z" fill="#1d1e1e" stroke-width="0"/>
  <path d="M3.45,16.58c0-.31.41-.56.92-.56h39.26c.51,0,.92.25.92.56s-.41.56-.92.56H4.37c-.51,0-.92-.25-.92-.56Z" fill="#1d1e1e" stroke-width="0"/>
</svg>