<svg width="14" height="18" fill="none" xmlns="http://www.w3.org/2000/svg">
    <path fill-rule="evenodd" clip-rule="evenodd" d="M10.04 4.85a1.78 1.78 0 1 0-3.56 0 1.78 1.78 0 0 0 3.56 0zM12.22 9.52v7.58h1.33V8.64l-1.33.88z" fill="#1E1E1E"/>
    <path fill-rule="evenodd" clip-rule="evenodd" d="M13.55 5.11V0H2.2v1.34h10v4.85a5.51 5.51 0 0 1-3.45 1.6 4 4 0 0 1-2.39-.69h-.05a5.07 5.07 0 0 0-5.77.27l.67 1.16a3.8 3.8 0 0 1 4.34-.33l.15.1-1.88 4.46a3.09 3.09 0 0 1-1.75 1.71 2.494 2.494 0 0 1-.84.11L.5 15.84c.274.049.552.076.83.08.386 0 .77-.058 1.14-.17a4.391 4.391 0 0 0 2.55-2.41l.38-.9c2.7 1.08 2.13 4.36 2.06 4.7h1.36a5.68 5.68 0 0 0-1.75-5.27L8.35 9.2h.41a7.26 7.26 0 0 0 4.76-2.34V5.2l.03-.09z" fill="#1E1E1E"/>
</svg>
