<svg width="128" height="128" viewBox="0 0 128 128" fill="none" xmlns="http://www.w3.org/2000/svg">
    <path d="M0 64c0 35.344 28.657 64 64 64 35.344 0 64-28.656 64-64 0-35.343-28.656-64-64-64C28.657 0 0 28.657 0 64z" fill="#ADC7FF"/>
    <path d="M54.986 92.187a7.735 7.735 0 0 1-5.493-2.281l-15.55-15.543a7.77 7.77 0 0 1-.197-10.99 7.768 7.768 0 0 1 11.184 0l10.056 10.058 31.66-31.663c3.091-2.98 8.008-2.896 10.988.196a7.772 7.772 0 0 1 0 10.793L60.48 89.906a7.757 7.757 0 0 1-5.503 2.281h.01z" fill="#fff"/>
    <path d="M54.997 94.046h-.019a9.66 9.66 0 0 1-6.807-2.83l-15.54-15.543c-3.8-3.67-3.912-9.779-.215-13.606a9.574 9.574 0 0 1 6.76-2.943 9.543 9.543 0 0 1 6.863 2.7l.242.243 8.716 8.716 30.346-30.35c3.846-3.715 9.955-3.604 13.651.224a9.598 9.598 0 0 1 0 13.382L61.813 91.215a9.65 9.65 0 0 1-6.807 2.822l-.01.01zm-.019-3.725h.019a5.939 5.939 0 0 0 4.171-1.732l37.154-37.148a5.88 5.88 0 0 0-.028-8.186c-2.263-2.347-6.015-2.412-8.362-.149L56.3 74.741a1.866 1.866 0 0 1-2.635 0L43.432 64.507c-1.127-1.09-2.626-1.667-4.21-1.649a5.88 5.88 0 0 0-4.152 1.807c-2.263 2.347-2.198 6.1.149 8.363l15.569 15.57a5.939 5.939 0 0 0 4.172 1.733l.018-.01z" fill="#45413C"/>
    <path d="M64 1.5c34.515 0 62.5 27.985 62.5 62.5S98.515 126.5 64 126.5 1.5 98.515 1.5 64 29.485 1.5 64 1.5z" fill="#F5F7FC" stroke="#E6EDF8" stroke-width="3"/>
    <path d="M87.84 40.386c2.847-2.722 7.31-2.727 10.155-.07l.27.267.002.001a7.333 7.333 0 0 1 0 10.207L58.21 90.707l-.003.002a7.378 7.378 0 0 1-5.222 2.157 7.358 7.358 0 0 1-4.947-1.905l-.264-.252-.002-.002-16.771-16.706-.013-.013-.266-.27a7.331 7.331 0 0 1-.176-9.845l.257-.278v-.001c2.83-2.926 7.51-3.005 10.437-.185l.2.198 10.845 10.81.705.704.706-.704 34.144-34.031z" fill="#ADC7FF" stroke="#45413C" stroke-width="2"/>
</svg>
