<svg width="16" height="17" viewBox="0 0 16 17" fill="none" xmlns="http://www.w3.org/2000/svg">
    <path fill-rule="evenodd" clip-rule="evenodd" d="M11.5 0h-7v1.75h2.633v1.303C3.68 3.482 1 6.434 1 10c0 3.86 3.14 7 7 7s7-3.14 7-7a6.973 6.973 0 0 0-1.825-4.708l1.43-1.43-1.238-1.237-1.526 1.526a6.956 6.956 0 0 0-2.958-1.096V1.75H11.5V0zM2.75 10A5.255 5.255 0 0 0 8 15.25 5.255 5.255 0 0 0 13.25 10 5.255 5.255 0 0 0 8 4.75 5.255 5.255 0 0 0 2.75 10zm4.375.875V6.5h1.75v2.625H11.5v1.75H7.125z" fill="#888"/>
</svg>
