<?xml version="1.0" encoding="UTF-8"?>
<svg id="Layer_1" data-name="Layer 1" xmlns="http://www.w3.org/2000/svg" viewBox="0 0 48 48">
  <path d="M8.02.53h31.95v39.94H8.02V.53Z" fill="#fff" stroke-width="0"/>
  <path d="M39.98,3.44v2.9c0-.77-.31-1.51-.85-2.05-.54-.54-1.28-.85-2.05-.85H10.93c-.77,0-1.51.31-2.05.85s-.85,1.28-.85,2.05v-2.9c0-.77.31-1.51.85-2.05.54-.54,1.28-.85,2.05-.85h26.14c.77,0,1.51.31,2.05.85.54.54.85,1.28.85,2.05h0Z" fill="#fff" stroke-width="0"/>
  <path d="M39.98,41H8.02c-.29,0-.53-.24-.53-.53V.53c0-.29.24-.53.53-.53h31.95c.29,0,.53.24.53.53v39.94c0,.29-.24.53-.53.53ZM8.56,39.93h30.88V1.07H8.55v38.86Z" fill="#1d1e1e" stroke-width="0"/>
  <path d="M10.2,3.44h27.59v32.67H10.2V3.44Z" fill="#e6edf8" stroke-width="0"/>
  <path d="M37.8,4.16v.51l-27.59,30.5V4.16c0-.19.08-.38.21-.51.14-.14.32-.21.51-.21h26.14c.19,0,.38.08.51.21.14.14.21.32.21.51h.01Z" fill="#fff" stroke-width="0"/>
  <path d="M37.8,36.64H10.2c-.29,0-.53-.24-.53-.53V3.44c0-.29.24-.53.53-.53h27.59c.29,0,.53.24.53.53v32.67c0,.29-.24.53-.53.53ZM10.74,35.57h26.53V3.97H10.73v31.61h0Z" fill="#1d1e1e" stroke-width="0"/>
  <path d="M23.28,38.06c0,.13.05.26.14.35s.22.14.35.14.26-.05.35-.14.14-.22.14-.35-.05-.26-.14-.35-.22-.14-.35-.14-.26.05-.35.14-.14.22-.14.35h0Z" fill="#1d1e1e" stroke-width="0"/>
  <path d="M23.77,39.08c-.27,0-.53-.11-.73-.3-.19-.2-.3-.45-.3-.73s.11-.53.3-.73c.39-.39,1.07-.39,1.45,0,.19.19.3.46.3.73s-.11.53-.3.73c-.2.2-.45.3-.73.3h0ZM23.8,38.03v.03-.03Z" fill="#1d1e1e" stroke-width="0"/>
  <path d="M16.66,11.29c0,.23.09.46.26.62.17.17.39.26.62.26s.46-.09.62-.26c.17-.17.26-.39.26-.62s-.09-.46-.26-.62c-.17-.17-.39-.26-.62-.26s-.46.09-.62.26c-.17.17-.26.39-.26.62h0Z" fill="#618fff" stroke-width="0"/>
  <path d="M31.16,11.82h-9.74c-.29,0-.53-.24-.53-.53s.24-.53.53-.53h9.74c.29,0,.53.24.53.53s-.24.53-.53.53Z" fill="#1d1e1e" stroke-width="0"/>
  <path d="M16.66,16.73c0,.23.09.46.26.62.17.17.39.26.62.26s.46-.09.62-.26c.17-.17.26-.39.26-.62s-.09-.46-.26-.62c-.17-.17-.39-.26-.62-.26s-.46.09-.62.26-.26.39-.26.62h0Z" fill="#618fff" stroke-width="0"/>
  <path d="M31.16,17.26h-9.74c-.29,0-.53-.24-.53-.53s.24-.53.53-.53h9.74c.29,0,.53.24.53.53s-.24.53-.53.53Z" fill="#1d1e1e" stroke-width="0"/>
  <path d="M16.66,22.17c0,.23.09.46.26.62s.39.26.62.26.46-.09.62-.26c.17-.17.26-.39.26-.62s-.09-.46-.26-.62c-.17-.17-.39-.26-.62-.26s-.46.09-.62.26c-.17.17-.26.39-.26.62Z" fill="#618fff" stroke-width="0"/>
  <path d="M31.16,22.7h-9.74c-.29,0-.53-.24-.53-.53s.24-.53.53-.53h9.74c.29,0,.53.24.53.53s-.24.53-.53.53Z" fill="#1d1e1e" stroke-width="0"/>
  <path d="M16.66,27.61c0,.23.09.46.26.62.17.17.39.26.62.26s.46-.09.62-.26c.17-.17.26-.39.26-.62s-.09-.46-.26-.62c-.17-.17-.39-.26-.62-.26s-.46.09-.62.26c-.17.17-.26.39-.26.62h0Z" fill="#618fff" stroke-width="0"/>
  <path d="M31.16,28.14h-9.74c-.29,0-.53-.24-.53-.53s.24-.53.53-.53h9.74c.29,0,.53.24.53.53s-.24.53-.53.53Z" fill="#1d1e1e" stroke-width="0"/>
</svg>