<?xml version="1.0" encoding="UTF-8"?>
<svg id="Layer_1" data-name="Layer 1" xmlns="http://www.w3.org/2000/svg" viewBox="0 0 48 48">
  <path d="M40.74,10.74c.29-1.18.2-2.41-.24-3.54-.44-1.13-1.23-2.09-2.24-2.75-1.01-.66-2.21-.99-3.42-.95-1.21.05-2.37.47-3.33,1.21-1.55-1.84-3.64-3.15-5.96-3.77-2.33-.61-4.78-.5-7.04.33-2.26.83-4.21,2.33-5.58,4.31-1.38,1.98-2.11,4.33-2.11,6.73v.08c-.24-.04-.49-.07-.74-.08-.78,0-1.55.14-2.27.43s-1.38.72-1.93,1.27c-.55.55-.99,1.2-1.29,1.92-.3.72-.45,1.49-.45,2.27s.15,1.55.45,2.27c.3.72.74,1.37,1.29,1.92s1.21.98,1.93,1.27,1.49.44,2.27.43h26.43c1.56,0,3.08-.49,4.33-1.41,1.26-.92,2.19-2.22,2.66-3.71.47-1.49.46-3.09-.04-4.57-.5-1.48-1.45-2.76-2.73-3.66Z" fill="#fff" stroke-width="0"/>
  <path d="M36.51,20.28H10.09c-1.22,0-2.42-.38-3.41-1.1-1-.71-1.74-1.72-2.14-2.88-.3.89-.39,1.83-.26,2.76.13.93.49,1.81,1.03,2.57s1.26,1.38,2.09,1.81,1.75.65,2.69.65h26.42c1.13,0,2.24-.25,3.25-.75s1.89-1.22,2.58-2.12c.69-.9,1.16-1.94,1.37-3.05.22-1.11.18-2.25-.12-3.34-.42,1.56-1.34,2.94-2.62,3.93-1.28.99-2.85,1.52-4.46,1.52h0Z" fill="#f1eaf3" stroke-width="0"/>
  <path d="M10.01,24.64c-.82,0-1.63-.16-2.4-.47-.79-.32-1.5-.79-2.11-1.39-.61-.6-1.08-1.31-1.41-2.1s-.5-1.63-.5-2.48.17-1.69.5-2.48c.33-.79.81-1.5,1.41-2.1.61-.6,1.32-1.07,2.11-1.39.79-.32,1.6-.47,2.48-.47.06,0,.13,0,.19,0,.11-2.38.86-4.59,2.2-6.51,1.45-2.08,3.47-3.64,5.85-4.51,2.38-.87,4.93-.99,7.37-.35,2.28.6,4.32,1.83,5.91,3.56.96-.63,2.07-.98,3.22-1.02,1.34-.06,2.63.31,3.74,1.03,1.12.73,1.97,1.77,2.46,3.01.44,1.12.56,2.33.34,3.51,1.23.95,2.14,2.23,2.63,3.72.54,1.6.55,3.3.04,4.91-.51,1.61-1.5,2.99-2.86,3.99-1.36.99-2.97,1.52-4.65,1.52H10.01ZM10.01,12.88c-.67,0-1.34.13-1.98.39-.66.27-1.24.65-1.75,1.15-.5.5-.9,1.08-1.17,1.74-.27.65-.41,1.34-.41,2.05s.14,1.4.41,2.05c.27.65.67,1.24,1.17,1.73.5.5,1.09.89,1.75,1.15.66.27,1.37.42,2.05.39h26.43c1.46-.03,2.84-.45,4.01-1.31s2.02-2.04,2.46-3.42.43-2.84-.04-4.22c-.46-1.38-1.33-2.55-2.52-3.38-.19-.13-.27-.36-.22-.59.26-1.07.19-2.18-.22-3.21-.4-1.03-1.11-1.89-2.03-2.49-.92-.6-2-.9-3.09-.85-1.1.04-2.14.42-3.02,1.09-.24.18-.57.14-.76-.08-1.49-1.76-3.45-3-5.68-3.59-2.23-.59-4.55-.48-6.71.32s-4,2.22-5.32,4.11c-1.32,1.89-2.01,4.11-2.01,6.42,0,.16-.07.36-.2.46-.12.11-.29.19-.45.16-.22-.04-.44-.06-.67-.07h-.06.02Z" fill="#1d1e1e" stroke-width="0"/>
  <path d="M24,40.43c-.27,0-.54-.05-.79-.16-.25-.1-.48-.26-.67-.45l-5.92-5.92c-.19-.19-.35-.42-.45-.67s-.16-.52-.16-.79.05-.54.16-.79c.1-.25.26-.48.45-.67.39-.39.92-.61,1.46-.61.27,0,.54.05.79.16.25.1.48.26.67.45l1.95,1.96v-14.44c0-.66.28-1.28.75-1.74.47-.46,1.1-.72,1.75-.72s1.28.26,1.75.72.73,1.08.75,1.74v14.44l1.95-1.96c.19-.19.42-.35.67-.45s.52-.16.79-.16.54.05.79.16c.25.1.48.26.67.45s.35.42.45.67.16.52.16.79-.05.54-.16.79c-.1.25-.26.48-.45.67l-5.92,5.92c-.19.19-.42.35-.67.45s-.52.16-.79.16h.02Z" fill="#702f8a" stroke-width="0"/>
  <path d="M24,40.99c-.35,0-.68-.07-1-.2s-.61-.33-.85-.57l-5.91-5.92c-.24-.25-.44-.53-.57-.85s-.2-.66-.2-1.01.07-.69.2-1.01.32-.61.57-.85c.74-.74,1.9-.97,2.86-.57.32.13.61.32.85.57l1,1.01v-13.11c0-.82.34-1.57.91-2.14,1.15-1.13,3.13-1.13,4.28,0,.57.56.9,1.32.91,2.13v13.12l1-1c.25-.25.53-.44.85-.57.64-.26,1.37-.27,2.01,0,.32.13.61.33.85.57s.44.53.57.85.2.66.2,1.01-.07.68-.2,1.01c-.13.32-.33.61-.57.85l-5.92,5.92c-.24.25-.53.44-.85.57s-.66.2-1,.2h0ZM18.09,30.92c-.4,0-.79.16-1.07.45-.14.14-.25.31-.33.49-.08.19-.12.38-.12.58s.04.4.12.58.19.35.33.49l5.92,5.92c.14.14.31.26.49.33.18.08.38.12.58.12h0c.2,0,.39-.04.58-.11.18-.08.35-.19.49-.33l5.92-5.92c.14-.14.25-.31.33-.49s.11-.38.11-.58-.04-.4-.11-.58c-.08-.19-.19-.35-.33-.49s-.31-.25-.49-.33c-.37-.15-.79-.15-1.16,0-.18.08-.35.19-.49.33l-2.9,2.91v-15.78c0-.5-.21-.98-.58-1.34-.73-.72-1.99-.72-2.72,0-.37.36-.57.84-.58,1.35v15.77l-2.9-2.91c-.14-.14-.31-.25-.49-.33s-.38-.11-.58-.11l-.02-.02Z" fill="#1d1e1e" stroke-width="0"/>
</svg>