<svg width="32" height="32" viewBox="0 0 32 32" fill="none" xmlns="http://www.w3.org/2000/svg">
    <g clip-path="url(#nagjfns5pa)">
        <circle cx="16" cy="16" r="16" fill="#fff"/>
        <path d="M19.45 20.848h4.07V8.238h-4.07a3.69 3.69 0 0 0-2.28.79l-1.17.97-1.17-.94a3.69 3.69 0 0 0-2.28-.79H8.48v12.61h4.07c.498 0 .981.17 1.37.48l1.22 1H8.48v1.45h15v-1.45h-6.66l1.22-1a2.2 2.2 0 0 1 1.41-.51zm-6.9-1.45H9.93v-9.71h2.62c.498 0 .981.17 1.37.48l1.35 1.08v9.3l-.44-.36a3.69 3.69 0 0 0-2.28-.79zm4.18 1.15v-9.3l1.35-1.08a2.2 2.2 0 0 1 1.37-.48h2.62v9.71h-2.62a3.69 3.69 0 0 0-2.28.79l-.44.36z" fill="#1E1E1E"/>
        <path d="M16 0a16 16 0 1 0 0 32 16 16 0 0 0 0-32zm0 30.12A14.11 14.11 0 0 1 5.83 6.22l19.95 20a14.07 14.07 0 0 1-9.78 3.9zm11.05-5.34L7.23 5a14.11 14.11 0 0 1 19.82 19.83v-.05z" fill="#AB2334"/>
    </g>
    <defs>
        <clipPath id="nagjfns5pa">
            <path fill="#fff" d="M0 0h32v32H0z"/>
        </clipPath>
    </defs>
</svg>
