<?xml version="1.0" encoding="UTF-8"?>
<svg id="Layer_1" data-name="Layer 1" xmlns="http://www.w3.org/2000/svg" viewBox="0 0 48 48">
  <rect x="4.03" y=".49" width="39.98" height="39.98" rx="4.69" ry="4.69" fill="#f1eaf3" stroke-width="0"/>
  <path d="M39.32,40.96H8.72c-2.85,0-5.18-2.32-5.18-5.18V5.18C3.54,2.32,5.86,0,8.72,0h30.61c2.85,0,5.18,2.32,5.18,5.18v30.61c0,2.85-2.32,5.18-5.18,5.18ZM8.72.98c-2.32,0-4.2,1.88-4.2,4.2v30.61c0,2.32,1.88,4.2,4.2,4.2h30.61c2.32,0,4.2-1.88,4.2-4.2V5.18c0-2.32-1.88-4.2-4.2-4.2H8.72Z" fill="#1d1e1e" stroke-width="0"/>
  <path d="M39.32.49H8.72c-2.58,0-4.69,2.11-4.69,4.69v4.17c0-2.58,2.11-4.69,4.69-4.69h30.61c2.58,0,4.69,2.11,4.69,4.69v-4.17c0-2.58-2.11-4.69-4.69-4.69Z" fill="#fff" stroke-width="0"/>
  <path d="M39.32,40.96H8.72c-2.85,0-5.18-2.32-5.18-5.18V5.18C3.54,2.32,5.86,0,8.72,0h30.61c2.85,0,5.18,2.32,5.18,5.18v30.61c0,2.85-2.32,5.18-5.18,5.18ZM8.72.98c-2.32,0-4.2,1.88-4.2,4.2v30.61c0,2.32,1.88,4.2,4.2,4.2h30.61c2.32,0,4.2-1.88,4.2-4.2V5.18c0-2.32-1.88-4.2-4.2-4.2H8.72Z" fill="#1d1e1e" stroke-width="0"/>
  <path d="M39.28,40.96H8.68c-2.85,0-5.18-2.32-5.18-5.18V5.18C3.5,2.32,5.82,0,8.68,0h30.61c2.85,0,5.18,2.32,5.18,5.18v30.61c0,2.85-2.32,5.18-5.18,5.18ZM8.68.98c-2.32,0-4.2,1.88-4.2,4.2v30.61c0,2.32,1.88,4.2,4.2,4.2h30.61c2.32,0,4.2-1.88,4.2-4.2V5.18c0-2.32-1.88-4.2-4.2-4.2H8.68Z" fill="#1d1e1e" stroke-width="0"/>
  <path d="M39.28,40.96H8.68c-2.85,0-5.18-2.32-5.18-5.18V5.18C3.5,2.32,5.82,0,8.68,0h30.61c2.85,0,5.18,2.32,5.18,5.18v30.61c0,2.85-2.32,5.18-5.18,5.18ZM8.68.98c-2.32,0-4.2,1.88-4.2,4.2v30.61c0,2.32,1.88,4.2,4.2,4.2h30.61c2.32,0,4.2-1.88,4.2-4.2V5.18c0-2.32-1.88-4.2-4.2-4.2H8.68Z" fill="#1d1e1e" stroke-width="0"/>
  <path d="M28.04,33.19c0,.18-.04.35-.12.51s-.2.31-.35.43-.33.22-.52.29-.4.1-.62.1h-4.38c-.27,0-.54-.04-.81-.13-.25-.09-.48-.22-.69-.38-.19-.16-.35-.35-.45-.57-.1-.21-.16-.44-.16-.67v-13.1c0-.35.17-.71.47-.96s.72-.39,1.15-.39h4.85c.43,0,.84.14,1.15.39.3.25.47.6.47.96v13.5Z" fill="#702f8a" stroke-width="0"/>
  <path d="M26.42,35.09h-4.38c-.34,0-.67-.05-.99-.16s-.61-.27-.86-.47c-.25-.21-.45-.46-.6-.75-.14-.29-.22-.6-.22-.92v-13.1c0-.51.24-1.02.68-1.38.4-.33.94-.52,1.5-.52h4.85c.57,0,1.1.18,1.5.52.42.35.68.86.68,1.38v13.5c0,.26-.06.52-.18.77-.12.23-.28.44-.49.62-.2.17-.43.3-.7.39-.25.09-.52.13-.8.13h0ZM21.56,18.89c-.3,0-.59.1-.79.26-.18.15-.27.33-.27.52v13.1c0,.14.03.28.1.42s.18.28.31.39c.14.12.31.21.5.28.2.07.4.1.63.1h4.38c.15,0,.3-.02.43-.07.13-.05.25-.11.35-.19.09-.08.16-.16.21-.26.04-.09.07-.18.07-.27v-13.5c0-.19-.1-.38-.27-.52-.2-.17-.49-.26-.79-.26h-4.87Z" fill="#1d1e1e" stroke-width="0"/>
  <path d="M23.98,14.29c2.01,0,3.64-1.63,3.64-3.64s-1.63-3.64-3.64-3.64-3.64,1.63-3.64,3.64,1.63,3.64,3.64,3.64Z" fill="#702f8a" stroke-width="0"/>
  <path d="M23.98,14.85c-2.31,0-4.2-1.89-4.2-4.2s1.89-4.2,4.2-4.2,4.2,1.89,4.2,4.2-1.89,4.2-4.2,4.2ZM23.98,7.56c-1.71,0-3.09,1.38-3.09,3.09s1.38,3.09,3.09,3.09,3.09-1.38,3.09-3.09-1.38-3.09-3.09-3.09Z" fill="#1d1e1e" stroke-width="0"/>
</svg>