<?xml version="1.0" encoding="UTF-8"?>
<svg id="Layer_1" data-name="Layer 1" xmlns="http://www.w3.org/2000/svg" viewBox="0 0 48 48">
  <rect x="11.07" y="12.06" width="25.82" height="6.08" rx="3.04" ry="3.04" fill="#fff" stroke-width="0"/>
  <path d="M35.53,18.62H12.43c-1.01,0-1.84-.82-1.84-1.84v-3.37c0-1.01.82-1.84,1.84-1.84h23.11c1.01,0,1.84.82,1.84,1.84v3.37c0,1.01-.82,1.84-1.84,1.84ZM12.43,12.54c-.48,0-.88.39-.88.88v3.37c0,.48.39.88.88.88h23.11c.48,0,.88-.39.88-.88v-3.37c0-.48-.39-.88-.88-.88H12.43Z" fill="#1d1e1e" stroke-width="0"/>
  <rect x="7.91" y="4.3" width="32.19" height="7.74" rx="3.52" ry="3.52" fill="#fff" stroke-width="0"/>
  <path d="M38.74,12.51H9.26c-1.01,0-1.84-.82-1.84-1.84v-5.02c0-1.01.82-1.84,1.84-1.84h29.47c1.01,0,1.84.82,1.84,1.84v5.02c0,1.01-.82,1.84-1.84,1.84ZM9.26,4.78c-.48,0-.88.39-.88.88v5.02c0,.48.39.88.88.88h29.47c.48,0,.88-.39.88-.88v-5.02c0-.48-.39-.88-.88-.88H9.26Z" fill="#1d1e1e" stroke-width="0"/>
  <rect x="13.97" y="18.14" width="20.06" height="22.62" fill="#fff" stroke-width="0"/>
  <path d="M18.24,40.75c-.27,0-.48-.22-.48-.48v-18.51c0-.27.22-.48.48-.48s.48.22.48.48v18.51c0,.27-.22.48-.48.48Z" fill="#1d1e1e" stroke-width="0"/>
  <path d="M23.98,40.75c-.27,0-.48-.22-.48-.48v-18.51c0-.27.22-.48.48-.48s.48.22.48.48v18.51c0,.27-.22.48-.48.48Z" fill="#1d1e1e" stroke-width="0"/>
  <path d="M29.24,40.75c-.27,0-.48-.22-.48-.48v-18.51c0-.27.22-.48.48-.48s.48.22.48.48v18.51c0,.27-.22.48-.48.48Z" fill="#1d1e1e" stroke-width="0"/>
  <path d="M13.62,11.99h20.73c1.4,0,2.55,1.14,2.55,2.55H11.07c0-1.4,1.14-2.55,2.55-2.55Z" fill="#e6f1fa" stroke-width="0"/>
  <path d="M35.55,18.62H12.45c-1.01,0-1.84-.82-1.84-1.84v-3.37c0-1.01.82-1.84,1.84-1.84h23.11c1.01,0,1.84.82,1.84,1.84v3.37c0,1.01-.82,1.84-1.84,1.84ZM12.45,12.54c-.48,0-.88.39-.88.88v3.37c0,.48.39.88.88.88h23.11c.48,0,.88-.39.88-.88v-3.37c0-.48-.39-.88-.88-.88H12.45Z" fill="#1d1e1e" stroke-width="0"/>
  <path d="M16.9,18.14h14.05c1.7,0,3.08,1.38,3.08,3.08H13.82c0-1.7,1.38-3.08,3.08-3.08Z" fill="#e6f1fa" stroke-width="0"/>
  <path d="M32.91,41.25H15.09c-.93,0-1.68-.75-1.68-1.68v-20.23c0-.93.75-1.68,1.68-1.68h17.82c.93,0,1.68.75,1.68,1.68v20.23c0,.93-.75,1.68-1.68,1.68ZM15.09,18.62c-.39,0-.71.32-.71.71v20.23c0,.39.32.71.71.71h17.82c.39,0,.71-.32.71-.71v-20.23c0-.39-.32-.71-.71-.71H15.09Z" fill="#1d1e1e" stroke-width="0"/>
</svg>