<?xml version="1.0" encoding="UTF-8"?>
<svg id="Layer_1" data-name="Layer 1" xmlns="http://www.w3.org/2000/svg" viewBox="0 0 48 48">
  <path d="M20.14,19.65c.36.39.62.78.62,1.29v14.14c0,.75.6,1.35,1.35,1.36.3,0,.59-.09.82-.27l3.85-2.89c.34-.26.54-.66.54-1.08v-11.25c0-.5.28-.91.62-1.29l10.31-12.17c.62-.74.83-1.6.27-2.31-.31-.39-.78-.62-1.29-.62H10.84c-.91,0-1.64.74-1.64,1.64,0,.5.22.82.62,1.29l10.31,12.17Z" fill="#f1eaf3" stroke-width="0"/>
  <path d="M22.11,36.93h0c-1.01,0-1.83-.83-1.83-1.85v-14.14c0-.3-.14-.57-.5-.96h-.01S9.45,7.8,9.45,7.8c-.42-.48-.74-.91-.74-1.6,0-1.17.95-2.13,2.13-2.13h26.39c.65,0,1.26.29,1.67.81.66.83.56,1.93-.27,2.92l-10.31,12.17c-.36.39-.51.68-.51.97v11.25c0,.58-.28,1.13-.74,1.47l-3.85,2.89c-.32.24-.71.37-1.11.37ZM20.5,19.33c.37.41.74.91.74,1.61v14.14c0,.48.38.87.86.87h0c.19,0,.37-.06.52-.18l3.85-2.89c.22-.16.35-.42.35-.7v-11.25c0-.72.43-1.27.75-1.62l10.29-12.15c.37-.45.72-1.1.26-1.69-.22-.28-.55-.44-.9-.44H10.84c-.64,0-1.15.52-1.15,1.16,0,.33.13.54.5.97l10.31,12.17Z" fill="#1d1e1e" stroke-width="0"/>
  <path d="M22.11,36.93h0c-1.01,0-1.83-.83-1.83-1.85v-14.14c0-.3-.14-.57-.5-.96h-.01S9.45,7.8,9.45,7.8c-.42-.48-.74-.91-.74-1.6,0-1.17.95-2.13,2.13-2.13h26.39c.65,0,1.26.29,1.67.81.66.83.56,1.93-.27,2.92l-10.31,12.17c-.36.39-.51.68-.51.97v11.25c0,.58-.28,1.13-.74,1.47l-3.85,2.89c-.32.24-.71.37-1.11.37ZM20.5,19.33c.37.41.74.91.74,1.61v14.14c0,.48.38.87.86.87h0c.19,0,.37-.06.52-.18l3.85-2.89c.22-.16.35-.42.35-.7v-11.25c0-.72.43-1.27.75-1.62l10.29-12.15c.37-.45.72-1.1.26-1.69-.22-.28-.55-.44-.9-.44H10.84c-.64,0-1.15.52-1.15,1.16,0,.33.13.54.5.97l10.31,12.17Z" fill="#1d1e1e" stroke-width="0"/>
  <path d="M27.32,32.3l-.29-11.48c0-.5.28-.91.62-1.29l10.98-12.53c.4-.48-.12-1.73-.57-1.86H14.37c-.85,0-1.65,1.07-1.65,1.98,0,.5.22.82.62,1.28l9.28,10.52c.36.39.62.78.62,1.29v15.64l3.53-2.47c.34-.26.54-.66.54-1.08Z" fill="#fff" stroke-width="0"/>
  <path d="M22.09,36.93h0c-1.01,0-1.83-.83-1.83-1.85v-14.14c0-.3-.14-.57-.5-.96h-.01S9.43,7.8,9.43,7.8c-.42-.48-.74-.91-.74-1.6,0-1.17.95-2.13,2.13-2.13h26.39c.65,0,1.26.29,1.67.81.66.83.56,1.93-.27,2.92l-10.31,12.17c-.36.39-.51.68-.51.97v11.25c0,.58-.28,1.13-.74,1.47l-3.85,2.89c-.32.24-.71.37-1.11.37ZM20.48,19.33c.37.41.74.91.74,1.61v14.14c0,.48.38.87.86.87h0c.19,0,.37-.06.52-.18l3.85-2.89c.22-.16.35-.42.35-.7v-11.25c0-.72.43-1.27.75-1.62l10.29-12.15c.37-.45.72-1.1.26-1.69-.22-.28-.55-.44-.9-.44H10.82c-.64,0-1.15.52-1.15,1.16,0,.33.13.54.5.97l10.31,12.17Z" fill="#1d1e1e" stroke-width="0"/>
</svg>