<svg width="16" height="8" viewBox="0 0 16 8" fill="none" xmlns="http://www.w3.org/2000/svg">
    <g clip-path="url(#zofu4gsq7a)">
        <g clip-path="url(#rw9dcup28b)" fill="#AB2334">
            <path d="M15.32 2.5h-.82v-1A1.5 1.5 0 0 0 13 0H1.5A1.5 1.5 0 0 0 0 1.5v5A1.5 1.5 0 0 0 1.5 8H13a1.5 1.5 0 0 0 1.5-1.5v-1h.82a.67.67 0 0 0 .68-.67V3.18a.68.68 0 0 0-.68-.68zm-1.82 4a.5.5 0 0 1-.5.5H1.5a.5.5 0 0 1-.5-.5v-5a.5.5 0 0 1 .5-.5H13a.5.5 0 0 1 .5.5v5z"/>
            <path d="M2.25 2a.25.25 0 0 0-.25.25v3.5a.25.25 0 0 0 .5 0v-3.5A.27.27 0 0 0 2.25 2z"/>
        </g>
    </g>
    <defs>
        <clipPath id="zofu4gsq7a">
            <path fill="#fff" d="M0 0h15.99v8H0z"/>
        </clipPath>
        <clipPath id="rw9dcup28b">
            <path fill="#fff" d="M0 0h16v8H0z"/>
        </clipPath>
    </defs>
</svg>
