<?xml version="1.0" encoding="UTF-8"?>
<svg id="Layer_1" data-name="Layer 1" xmlns="http://www.w3.org/2000/svg" viewBox="0 0 48 48">
  <rect x="6.56" y="23.52" width="25.83" height="6.9" rx="3.08" ry="3.08" transform="translate(-13.37 21.67) rotate(-45)" fill="#fff" stroke-width="0"/>
  <path d="M39.62,19.84c2.75-2.72,3.49-6.88,1.84-10.38l-5.58,5.51-3.76-.56-.52-3.77,5.58-5.51c-4.53-2.2-9.99-.31-12.19,4.22-1.21,2.48-1.22,5.38-.05,7.88l-14.45,14.28c-1.19,1.18-1.2,3.11-.02,4.31,1.18,1.19,3.1,1.2,4.3.03l14.45-14.28c3.48,1.69,7.65,1,10.4-1.72Z" fill="#fff" stroke-width="0"/>
  <path d="M12.63,37.19c-.91,0-1.82-.35-2.5-1.04-.66-.67-1.03-1.56-1.02-2.5,0-.94.37-1.83,1.04-2.49l14.22-14.05c-1.1-2.57-1.04-5.46.19-7.98,2.32-4.76,8.07-6.76,12.84-4.44.14.07.24.2.27.36.03.15-.03.31-.14.42l-5.4,5.34.43,3.17,3.17.47,5.41-5.34c.11-.11.27-.16.42-.13.15.03.29.13.35.27,1.73,3.68.95,8.07-1.94,10.93t0,0c-2.81,2.77-7.05,3.54-10.64,1.95l-14.22,14.05c-.69.67-1.58,1.01-2.48,1.01ZM33.2,4.7c-3.21,0-6.29,1.79-7.78,4.86-1.15,2.36-1.16,5.08-.04,7.46.09.19.05.41-.1.55l-14.45,14.28c-.49.48-.75,1.12-.76,1.81,0,.68.26,1.33.74,1.81.99,1,2.61,1.01,3.61.02l14.45-14.28c.15-.14.37-.18.55-.09,3.29,1.6,7.25.94,9.85-1.62h0c2.43-2.41,3.2-6.02,2.01-9.19l-5.07,5.01c-.11.11-.26.16-.41.13l-3.76-.56c-.21-.03-.38-.2-.41-.41l-.52-3.77c-.02-.15.03-.3.14-.41l5.07-5.01c-1.02-.4-2.08-.59-3.13-.59ZM39.62,19.84h0,0Z" fill="#1d1e1e" stroke-width="0"/>
  <path d="M13.69,34.22c-.45.44-1.17.44-1.61,0-.44-.45-.44-1.17,0-1.61h0l13.72-13.56,1.6,1.62-13.72,13.56Z" fill="#618fff" stroke-width="0"/>
  <path d="M12.89,35.03h0c-.43,0-.84-.17-1.15-.48-.63-.64-.62-1.67.01-2.3l13.72-13.56c.09-.09.22-.14.34-.14.13,0,.25.05.34.14l1.61,1.62c.09.09.14.21.14.34s-.05.25-.14.34l-13.72,13.56c-.31.3-.71.47-1.14.47ZM25.81,19.72l-13.38,13.22c-.26.25-.26.67,0,.93.12.12.29.19.46.2h0c.17,0,.34-.07.46-.19h0l13.38-13.22-.93-.94Z" fill="#1d1e1e" stroke-width="0"/>
  <path d="M27.68,20.54c3.85,2.86,9.89,2.5,12.75-1.37l1.58-3.34c-2.86,3.85-6.76,5.82-12.17,1.8-5.41-4.02-4.66-8.31-1.8-12.17l-2.74,2.48c-2.86,3.85-1.48,9.74,2.38,12.6Z" fill="#e6edf8" stroke-width="0"/>
  <path d="M12.66,37.19c-.91,0-1.82-.35-2.5-1.04-.66-.67-1.03-1.56-1.02-2.5,0-.94.37-1.83,1.04-2.49l14.22-14.05c-1.1-2.57-1.04-5.46.19-7.98,1.12-2.31,3.07-4.04,5.5-4.88,2.42-.84,5.03-.68,7.34.44.14.07.24.2.27.36.03.15-.03.31-.14.42l-5.41,5.34.43,3.17,3.17.47,5.4-5.34c.11-.11.27-.16.42-.13.15.03.29.13.35.27,1.73,3.68.95,8.07-1.94,10.93t0,0c-2.81,2.78-7.04,3.54-10.64,1.95l-14.22,14.05c-.69.67-1.58,1.01-2.48,1.01ZM33.22,4.69c-.95,0-1.91.16-2.83.48-2.18.75-3.94,2.31-4.95,4.39-1.15,2.36-1.17,5.08-.04,7.46.09.19.05.41-.1.55l-14.45,14.28c-.49.48-.75,1.12-.76,1.81,0,.68.26,1.33.74,1.81.99,1,2.61,1.01,3.61.02l14.45-14.28c.15-.14.37-.18.55-.09,3.29,1.6,7.25.94,9.85-1.62h0c2.43-2.41,3.2-6.02,2.01-9.19l-5.07,5.01c-.11.11-.26.16-.41.13l-3.76-.56c-.21-.03-.38-.2-.41-.41l-.52-3.77c-.02-.15.03-.3.14-.41l5.07-5.01c-1.01-.4-2.07-.6-3.13-.6ZM39.65,19.84h0,0Z" fill="#1d1e1e" stroke-width="0"/>
</svg>