<svg width="20" height="20" viewBox="0 0 20 20" fill="none" xmlns="http://www.w3.org/2000/svg">
    <circle cx="10" cy="10" r="10" fill="#fff"/>
    <path d="M9.49999 19C7.62107 19 5.78437 18.4428 4.2221 17.399C2.65983 16.3551 1.44217 14.8714 0.723137 13.1355C0.00410414 11.3996 -0.184011 9.48946 0.182548 7.64664C0.549108 5.80382 1.45386 4.11111 2.78246 2.78251C4.11106 1.45391 5.80384 0.549092 7.64666 0.182533C9.48948 -0.184027 11.3996 0.00414944 13.1355 0.723182C14.8714 1.44221 16.3551 2.65982 17.399 4.22208C18.4429 5.78435 19 7.62111 19 9.50004C18.9973 12.0188 17.9956 14.4336 16.2146 16.2146C14.4336 17.9957 12.0187 18.9974 9.49999 19ZM9.49999 1.19999C7.85841 1.19999 6.25371 1.68678 4.88879 2.59879C3.52386 3.51081 2.45999 4.80714 1.83178 6.32377C1.20357 7.84039 1.03923 9.50926 1.35949 11.1193C1.67975 12.7293 2.47026 14.2083 3.63103 15.3691C4.79181 16.5298 6.27069 17.3203 7.88073 17.6405C9.49077 17.9608 11.1596 17.7965 12.6763 17.1683C14.1929 16.54 15.4892 15.4762 16.4012 14.1112C17.3132 12.7463 17.8 11.1416 17.8 9.50004C17.7973 7.29955 16.9221 5.18993 15.3661 3.63395C13.8101 2.07797 11.7005 1.20264 9.49999 1.19999Z" fill="#1E1E1E"/>
    <path fill-rule="evenodd" clip-rule="evenodd" d="M9.50092 4.00013C8.56286 4.00277 7.66398 4.37661 7.00067 5.03992C6.33736 5.70323 5.96358 6.60211 5.96094 7.54017H7.59094C7.57196 7.27839 7.60714 7.01552 7.69427 6.76795C7.78141 6.52037 7.9186 6.29338 8.09735 6.1012C8.2761 5.90902 8.49253 5.75569 8.73315 5.65088C8.97378 5.54607 9.23345 5.49207 9.49591 5.49207C9.75837 5.49207 10.018 5.54607 10.2587 5.65088C10.4993 5.75569 10.7157 5.90902 10.8945 6.1012C11.0732 6.29338 11.2105 6.52037 11.2976 6.76795C11.3847 7.01552 11.4199 7.27839 11.4009 7.54017C11.402 7.93199 11.2965 8.31675 11.0957 8.6532C10.8949 8.98966 10.6063 9.26505 10.2609 9.45008C9.78901 9.73034 9.39626 10.1263 9.11981 10.6005C8.84336 11.0746 8.69232 11.6114 8.68091 12.1602H10.3109C10.3109 11.5102 10.6209 11.2401 11.3109 10.7401C11.8527 10.4009 12.2988 9.92896 12.6068 9.3689C12.9148 8.80884 13.0746 8.17934 13.0709 7.54017C13.0709 7.07275 12.9784 6.60993 12.7986 6.17847C12.6188 5.74701 12.3554 5.35536 12.0235 5.02625C11.6916 4.69714 11.2978 4.43712 10.8648 4.26099C10.4318 4.08486 9.96831 3.99617 9.50092 4.00013Z" fill="#1E1E1E"/>
    <path fill-rule="evenodd" clip-rule="evenodd" d="M8.7207 15.7007H10.3507V13.8008H8.7207V15.7007Z" fill="#1E1E1E"/>
</svg>
