<?xml version="1.0" encoding="UTF-8"?>
<svg id="Layer_1" data-name="Layer 1" xmlns="http://www.w3.org/2000/svg" viewBox="0 0 48 48">
  <path d="M18.87,16.47c-1.31.06-2.2.27-2.99.58-.81.32-1.5.74-2.18,1.42-.68.69-1.1,1.37-1.42,2.18-.3.78-.51,1.68-.57,2.99-.06,1.31-.07,1.73-.06,5.07,0,3.34.02,3.76.08,5.08.06,1.31.27,2.2.58,2.99.32.81.74,1.49,1.42,2.18.69.68,1.37,1.1,2.18,1.42.78.3,1.68.51,2.99.57,1.31.06,1.73.07,5.07.06,3.34,0,3.76-.02,5.08-.08,1.31-.06,2.2-.27,2.99-.58.81-.32,1.5-.74,2.18-1.42.68-.69,1.1-1.37,1.42-2.18.3-.78.51-1.68.57-2.99.06-1.31.07-1.73.06-5.08,0-3.34-.02-3.76-.08-5.07-.06-1.31-.27-2.2-.58-2.99-.32-.81-.74-1.49-1.42-2.18-.69-.68-1.37-1.1-2.18-1.42-.78-.3-1.68-.51-2.99-.57-1.31-.06-1.73-.07-5.08-.06-3.34,0-3.76.02-5.07.08M19.01,38.72c-1.2-.05-1.85-.25-2.29-.42-.58-.22-.99-.49-1.42-.92-.43-.43-.7-.84-.92-1.41-.17-.43-.37-1.09-.43-2.29-.06-1.3-.07-1.69-.08-4.97,0-3.29,0-3.68.06-4.97.05-1.2.25-1.85.42-2.29.22-.58.49-.99.92-1.42.43-.43.84-.7,1.41-.92.43-.17,1.08-.37,2.28-.43,1.3-.06,1.69-.07,4.97-.08,3.29,0,3.68,0,4.97.06,1.2.05,1.85.25,2.29.42.58.22.99.49,1.42.92.43.43.7.84.92,1.41.17.43.37,1.08.43,2.28.06,1.3.08,1.69.08,4.97,0,3.29,0,3.68-.06,4.97-.05,1.2-.25,1.85-.42,2.29-.22.57-.49.99-.92,1.42-.43.43-.84.7-1.41.92-.43.17-1.08.37-2.28.43-1.3.06-1.69.07-4.97.08-3.29,0-3.67,0-4.97-.06M29.05,22.11c0,.82.66,1.48,1.48,1.47.82,0,1.48-.66,1.47-1.48,0-.82-.66-1.48-1.48-1.47s-1.48.66-1.47,1.48M17.65,28.7c0,3.49,2.84,6.31,6.33,6.31,3.49,0,6.32-2.84,6.31-6.33,0-3.49-2.84-6.32-6.33-6.31-3.49,0-6.31,2.84-6.31,6.33M19.86,28.7c0-2.27,1.83-4.11,4.1-4.11,2.27,0,4.11,1.83,4.11,4.09,0,2.27-1.83,4.11-4.1,4.11-2.27,0-4.11-1.83-4.11-4.1" fill="#1d1e1e"/>
</svg>