<svg width="32" height="32" viewBox="0 0 32 32" fill="none" xmlns="http://www.w3.org/2000/svg">
    <rect width="32" height="32" rx="4" fill="#324DC7"/>
    <rect x="4" y="4" width="24" height="24" rx="2" fill="#324DC7"/>
    <path d="M17.405 9.05c-.413-1.4-2.397-1.4-2.81 0l-.1.34a1.463 1.463 0 0 1-2.105.872l-.31-.17c-1.283-.698-2.686.705-1.987 1.987l.169.311c.446.82.023 1.841-.872 2.105l-.34.1c-1.4.413-1.4 2.397 0 2.81l.34.1a1.463 1.463 0 0 1 .872 2.105l-.17.31c-.698 1.283.705 2.686 1.987 1.987l.311-.169a1.463 1.463 0 0 1 2.105.872l.1.34c.413 1.4 2.397 1.4 2.81 0l.1-.34a1.463 1.463 0 0 1 2.105-.872l.31.17c1.283.698 2.686-.705 1.987-1.987l-.169-.311a1.463 1.463 0 0 1 .872-2.105l.34-.1c1.4-.413 1.4-2.397 0-2.81l-.34-.1a1.463 1.463 0 0 1-.872-2.105l.17-.31c.698-1.283-.705-2.686-1.987-1.987l-.311.169a1.463 1.463 0 0 1-2.105-.872l-.1-.34zM16 18.93a2.93 2.93 0 1 1 0-5.856 2.93 2.93 0 0 1 0 5.854v.002z" fill="#fff"/>
</svg>
