<svg width="32" height="32" viewBox="0 0 32 32" fill="none" xmlns="http://www.w3.org/2000/svg">
    <g clip-path="url(#jp49o3vpfa)">
        <circle cx="16" cy="16" r="16" fill="#fff"/>
        <path d="M22.34 14.32h1.5v3h-1.5v-3z" fill="#1E1E1E"/>
        <path fill-rule="evenodd" clip-rule="evenodd" d="M19.18 10.24h.7a1.41 1.41 0 0 1 1.41 1.41v8.47a1.41 1.41 0 0 1-1.41 1.41h-.7v4.23h-1.42v-4.23h-4.23v4.23h-1.41v-4.23h-.71A1.41 1.41 0 0 1 10 20.12v-8.47a1.41 1.41 0 0 1 1.41-1.41h.71V6h1.41v4.24h4.23V6h1.42v4.24zm-7.77 1.41v8.47h8.47v-8.47h-8.47z" fill="#1E1E1E"/>
        <path d="M16 0a16 16 0 1 0 0 32 16 16 0 0 0 0-32zm14.12 16a14.12 14.12 0 0 1-3.07 8.78L7.22 5a14.11 14.11 0 0 1 22.9 11zM1.88 16a14.07 14.07 0 0 1 4-9.78l19.95 20a14.11 14.11 0 0 1-23.9-10.17L1.88 16z" fill="#AB2334"/>
        <path d="M16 0a16 16 0 1 0 0 32 16 16 0 0 0 0-32zm0 30.12A14.11 14.11 0 0 1 5.83 6.22l19.95 20a14.07 14.07 0 0 1-9.78 3.9zm11-5.34L7.23 5a14.11 14.11 0 0 1 19.82 19.83l-.05-.05z" fill="#AB2334"/>
    </g>
    <defs>
        <clipPath id="jp49o3vpfa">
            <path fill="#fff" d="M0 0h32v32H0z"/>
        </clipPath>
    </defs>
</svg>
