<svg width="32" height="32" viewBox="0 0 32 32" fill="none" xmlns="http://www.w3.org/2000/svg">
    <g clip-path="url(#05yyle9toa)" fill="#1E1E1E">
        <path d="M23.515 16.941H8.485c-.291 0-.485.2-.485.5s.194.5.485.5h15.03c.291 0 .485-.2.485-.5s-.29-.5-.485-.5zM23.515 13.941H8.485c-.291 0-.485.2-.485.5s.194.5.485.5h15.03c.291 0 .485-.2.485-.5s-.29-.5-.485-.5zM23.515 7.941H8.485c-.291 0-.485.2-.485.5s.194.5.485.5h15.03c.291 0 .485-.2.485-.5s-.29-.5-.485-.5zM23.606 10.941H11.394c-.236 0-.394.2-.394.5s.158.5.394.5h12.212c.236 0 .394-.2.394-.5s-.236-.5-.394-.5zM23.515 19.941H8.485c-.291 0-.485.2-.485.5s.194.5.485.5h15.03c.291 0 .485-.2.485-.5s-.29-.5-.485-.5zM23.515 22.941H8.485c-.291 0-.485.2-.485.5s.194.5.485.5h15.03c.291 0 .485-.2.485-.5s-.29-.5-.485-.5z"/>
    </g>
    <path d="m11.424 14.349 2.774 6.47-1.85-.924-.924-.462-.924.924v1.387l.462.462 1.387.924 2.31 1.387 1.85.924h1.386l1.849-.462 1.386-1.387.925-1.386.462-2.311v-.924l-1.849-3.698-.462-.462h-.924l-.925.924-1.386-.924-.925.462-.924.925-.462-1.387-.925-1.849-.924-.462-.924.462-.463.462v.925z" fill="#fff"/>
    <path d="M19.163 14.749c-.325.147-.598.39-.783.695a1.792 1.792 0 0 0-1.489-.72 1.778 1.778 0 0 0-1.437.811l-.971-2.136a1.793 1.793 0 0 0-1-.936 1.779 1.779 0 0 0-2.294 1.043c-.165.444-.148.935.048 1.368l2.478 5.45-.815-.544a1.777 1.777 0 0 0-2.487.415 1.796 1.796 0 0 0 .421 2.495l.527.384c3.83 2.795 5.414 3.948 8.272 2.65a5.89 5.89 0 0 0 3.075-3.305 5.938 5.938 0 0 0-.157-4.524l-1.025-2.255a1.793 1.793 0 0 0-.999-.936 1.779 1.779 0 0 0-1.364.045zm2.64 3.487c.556 1.23.605 2.63.134 3.893a5.07 5.07 0 0 1-2.646 2.843c-2.421 1.1-3.685.176-7.447-2.564l-.53-.388a.966.966 0 0 1-.225-1.343.956.956 0 0 1 1.341-.222l.011.008 2.02 1.35a.411.411 0 0 0 .601-.513l-3.076-6.767a.965.965 0 0 1 .475-1.274.965.965 0 0 1 1.272.48l1.937 4.26a.414.414 0 0 0 .546.206.41.41 0 0 0 .203-.546l-.341-.752a.966.966 0 0 1 .475-1.274.958.958 0 0 1 1.272.48l.57 1.253a.414.414 0 0 0 .545.206.41.41 0 0 0 .203-.546l-.113-.251a.965.965 0 0 1 .475-1.274.958.958 0 0 1 1.272.48l1.025 2.255z" fill="#1E1E1E"/>
    <defs>
        <clipPath id="05yyle9toa">
            <path fill="#fff" transform="translate(7.53 7.842)" d="M0 0h16.936v16.32H0z"/>
        </clipPath>
    </defs>
</svg>
