<?xml version="1.0" encoding="UTF-8"?>
<svg id="Layer_1" data-name="Layer 1" xmlns="http://www.w3.org/2000/svg" viewBox="0 0 48 48">
  <path d="M16.61,34.67h5.8v3.48h-5.8v-3.48Z" fill="#fff" stroke-width="0"/>
  <path d="M16.61,34.67h5.8v1.74h-5.8v-1.74Z" fill="#e6f1fa" stroke-width="0"/>
  <path d="M22.41,38.67h-5.8c-.29,0-.52-.23-.52-.52v-3.48c0-.29.23-.52.52-.52h5.8c.29,0,.52.23.52.52v3.48c0,.29-.23.52-.52.52ZM17.14,37.62h4.75v-2.43h-4.75v2.43Z" fill="#1d1e1e" stroke-width="0"/>
  <path d="M27,40.03s0,.11,0,.16-.04.1-.07.14c-.03.04-.08.07-.13.1-.05.02-.1.03-.16.03h-14.28s-.11,0-.16-.04c-.05-.02-.09-.06-.13-.1-.03-.04-.06-.09-.07-.14,0-.05-.02-.11,0-.16.1-.53.38-1.01.8-1.35s.94-.53,1.48-.53h10.43c.54,0,1.06.19,1.48.53s.7.82.8,1.35h0Z" fill="#e6f1fa" stroke-width="0"/>
  <path d="M26.64,40.99h-14.28c-.14,0-.26-.03-.38-.08-.13-.06-.23-.14-.31-.24-.08-.1-.14-.22-.17-.34-.03-.14-.04-.27,0-.39.12-.65.47-1.24.98-1.66s1.15-.65,1.81-.65h10.43c.66,0,1.3.23,1.81.65.51.42.86,1.01.98,1.66.02.13.02.26,0,.39s-.09.25-.18.35c-.08.1-.19.18-.31.24-.12.05-.25.08-.38.08h.02ZM12.58,39.94h13.87c-.1-.33-.3-.63-.57-.86-.32-.27-.73-.41-1.14-.41h-10.45c-.42,0-.82.15-1.15.41-.27.22-.47.52-.57.86h0Z" fill="#1d1e1e" stroke-width="0"/>
  <path d="M34.57,8.01H4.44c-.77,0-1.51.31-2.05.85s-.85,1.28-.85,2.05v19.13h35.93V10.91c0-.77-.31-1.51-.85-2.05-.54-.54-1.28-.85-2.05-.85h0Z" fill="#e6f1fa" stroke-width="0"/>
  <path d="M23.87,8.01H4.44c-.38,0-.76.07-1.11.22s-.67.36-.94.63-.48.59-.63.94c-.15.35-.22.73-.22,1.11v19.43L23.87,8.01Z" fill="#fff" stroke-width="0"/>
  <path d="M37.47,30.56H1.54c-.29,0-.52-.23-.52-.52V10.91c0-.91.36-1.77,1-2.42s1.51-1,2.42-1h30.13c.91,0,1.77.36,2.42,1,.65.65,1,1.51,1,2.42v19.13c0,.29-.23.52-.52.52h0ZM2.06,29.51h34.89V10.91c0-.63-.25-1.23-.7-1.68-.45-.45-1.04-.7-1.68-.7H4.44c-.63,0-1.23.25-1.68.7-.45.45-.7,1.04-.7,1.68v18.61Z" fill="#1d1e1e" stroke-width="0"/>
  <path d="M34.57,34.67c.38,0,.76-.07,1.11-.22.35-.15.67-.36.94-.63s.48-.59.63-.94.22-.73.22-1.11v-1.74H1.54v1.74c0,.38.07.76.22,1.11.15.35.36.67.63.94s.59.48.94.63c.35.15.73.22,1.11.22h30.13Z" fill="#fff" stroke-width="0"/>
  <path d="M34.57,35.19H4.44c-.45,0-.89-.09-1.31-.26s-.79-.42-1.11-.74c-.32-.32-.57-.69-.74-1.11-.17-.42-.26-.86-.26-1.31v-1.74c0-.29.23-.52.52-.52h35.93c.29,0,.52.23.52.52v1.74c0,.45-.09.89-.26,1.31s-.42.79-.74,1.11c-.32.32-.69.57-1.11.74-.42.17-.86.26-1.31.26ZM2.06,30.56v1.22c0,.31.06.62.18.91.12.29.29.55.52.77.22.22.48.39.77.51s.6.18.91.18h30.13c.31,0,.62-.06.91-.18s.55-.29.77-.51c.22-.22.39-.48.51-.77s.18-.59.18-.91v-1.22H2.06Z" fill="#1d1e1e" stroke-width="0"/>
  <path d="M18.78,32.89c0,.07,0,.14.04.2s.07.12.12.17c.05.05.11.09.18.11.07.03.14.04.21.04s.15,0,.21-.04c.07-.03.13-.06.18-.11.05-.05.09-.11.12-.17.03-.06.04-.13.04-.2s0-.14-.04-.2-.07-.12-.12-.17c-.05-.05-.11-.09-.18-.11-.07-.03-.14-.04-.21-.04s-.15,0-.21.04c-.07.03-.13.06-.18.11-.05.05-.09.11-.12.17-.03.06-.04.13-.04.2h0Z" fill="#1d1e1e" stroke-width="0"/>
  <path d="M37.91,16.23l1.79-1.79,2.09,2.09-1.79,1.79-2.09-2.09Z" fill="#e6f1fa" stroke-width="0"/>
  <path d="M40,18.85c-.14,0-.27-.06-.37-.15l-2.09-2.09c-.2-.2-.2-.54,0-.74l1.79-1.79c.2-.2.54-.2.74,0l2.09,2.09c.2.2.2.54,0,.74l-1.79,1.79c-.1.1-.23.15-.37.15ZM38.65,16.24l1.35,1.35,1.05-1.05-1.34-1.34-1.05,1.05h0Z" fill="#1d1e1e" stroke-width="0"/>
  <path d="M45.96,20.11c.32.32.49.75.49,1.19s-.18.88-.49,1.19-.75.49-1.19.49-.88-.18-1.19-.49l-3.58-3.58s-.07-.09-.09-.14-.03-.11-.03-.16,0-.11.03-.16.05-.1.09-.14l1.79-1.79s.09-.07.14-.09.11-.03.16-.03.11,0,.16.03.1.05.14.09l3.58,3.58h-.01Z" fill="#009cde" stroke-width="0"/>
  <path d="M40.89,17.43s.09-.07.14-.09.11-.03.16-.03.11,0,.16.03.1.05.14.09l3.58,3.58c.24.24.4.54.46.87.06.33.03.67-.11.98.25-.11.48-.28.65-.49s.29-.47.35-.74.04-.55-.04-.82c-.08-.26-.22-.5-.42-.7l-3.58-3.58s-.09-.07-.14-.09-.11-.03-.16-.03-.11,0-.16.03-.1.05-.14.09l-.89.89" fill="#71c5e8" stroke-width="0"/>
  <path d="M44.77,23.5c-.58,0-1.15-.24-1.56-.65l-3.58-3.58c-.09-.09-.16-.19-.2-.31-.05-.12-.07-.24-.07-.36s.02-.25.07-.36.12-.22.2-.3l1.79-1.79c.09-.09.19-.16.31-.2.23-.1.49-.1.72,0,.11.05.21.11.3.2l3.58,3.58h0c.42.42.65.97.65,1.56s-.23,1.15-.65,1.56c-.41.41-.98.65-1.56.65ZM40.44,18.62l3.5,3.5c.43.43,1.21.43,1.64,0,.22-.22.34-.51.34-.82s-.12-.6-.34-.82l-3.51-3.5-1.64,1.64h0Z" fill="#1d1e1e" stroke-width="0"/>
  <path d="M32.85,18.23c4.89,0,8.85-3.96,8.85-8.85S37.73.52,32.85.52s-8.85,3.96-8.85,8.85,3.96,8.85,8.85,8.85h0Z" fill="#e6f1fa" stroke-width="0"/>
  <path d="M39.61,10.98c.88-3.74-1.43-7.49-5.17-8.37-3.74-.88-7.49,1.43-8.37,5.17-.88,3.74,1.43,7.49,5.17,8.37,3.74.88,7.49-1.43,8.37-5.17Z" fill="#e6f1fa" stroke-width="0"/>
  <path d="M32.85,2.42c-1.38,0-2.72.41-3.86,1.17-1.14.76-2.03,1.85-2.56,3.12-.53,1.27-.66,2.67-.4,4.02.27,1.35.93,2.59,1.9,3.56l9.84-9.84c-.65-.65-1.41-1.16-2.26-1.51-.84-.35-1.75-.53-2.66-.53h0Z" fill="#fff" stroke-width="0"/>
  <path d="M41.66,10.24c-.21-2.19-1.22-4.23-2.85-5.72-1.63-1.48-3.75-2.31-5.96-2.31s-4.33.82-5.96,2.31c-1.63,1.48-2.65,3.52-2.85,5.72-.03-.28-.04-.57-.04-.86,0-2.35.93-4.6,2.59-6.26,1.66-1.66,3.91-2.59,6.26-2.59s4.6.93,6.26,2.59c1.66,1.66,2.59,3.91,2.59,6.26,0,.29,0,.58-.04.86Z" fill="#fff" stroke-width="0"/>
  <path d="M32.86,16.86c-.58,0-1.16-.07-1.73-.2-1.94-.46-3.59-1.65-4.64-3.35-1.05-1.7-1.38-3.71-.92-5.65.46-1.94,1.65-3.59,3.35-4.64,1.7-1.05,3.7-1.38,5.65-.92,4.01.95,6.51,4.98,5.56,9h0c-.46,1.94-1.65,3.59-3.35,4.64-1.2.74-2.55,1.12-3.92,1.12ZM32.83,2.94c-1.18,0-2.34.33-3.37.96-1.46.9-2.48,2.32-2.88,3.99-.82,3.45,1.33,6.92,4.78,7.74,1.67.4,3.4.12,4.86-.79,1.46-.9,2.48-2.32,2.88-3.99h0c.81-3.45-1.33-6.92-4.78-7.74-.49-.12-.99-.17-1.49-.17ZM39.61,10.97" fill="#1d1e1e" stroke-width="0"/>
  <path d="M32.85,18.75c-5.17,0-9.38-4.21-9.38-9.38S27.67,0,32.85,0s9.38,4.21,9.38,9.38-4.21,9.38-9.38,9.38h0ZM32.85,1.04c-4.59,0-8.33,3.74-8.33,8.33s3.74,8.33,8.33,8.33,8.33-3.74,8.33-8.33-3.74-8.32-8.33-8.32h0Z" fill="#1d1e1e" stroke-width="0"/>
</svg>