<svg width="80" height="80" viewBox="0 0 80 80" fill="none" xmlns="http://www.w3.org/2000/svg">
    <path d="M39.925 70h-.057a39.753 39.753 0 0 1-2.72-.2l.314-2.871c.811.089 1.65.149 2.492.185A27.8 27.8 0 0 0 42.451 67l.265 2.876c-.922.082-1.861.125-2.79.125zm8.246-1.143-.79-2.778a27.14 27.14 0 0 0 4.674-1.812l1.29 2.585a30.274 30.274 0 0 1-5.174 2.005zm-16.436-.065a31.072 31.072 0 0 1-5.199-1.904l1.236-2.612c1.483.7 3.07 1.283 4.717 1.726l-.754 2.79zm-9.974-4.75a27.992 27.992 0 0 1-4.13-3.73l2.141-1.94a25.047 25.047 0 0 0 3.704 3.346l-1.715 2.325zm36.297-.117-1.743-2.303a27.396 27.396 0 0 0 3.706-3.382l2.136 1.944a30.307 30.307 0 0 1-4.099 3.74zM14.32 55.842a29.882 29.882 0 0 1-2.393-5.006l2.711-.999c.583 1.581 1.31 3.1 2.16 4.52l-2.478 1.485zm51.182-.081-2.457-1.522a27.168 27.168 0 0 0 2.238-4.486l2.694 1.044a30.003 30.003 0 0 1-2.475 4.964zM10.484 45.488a32.188 32.188 0 0 1-.484-5.51l2.89-.002c.002 1.68.149 3.367.44 5.014l-2.846.498zm59.01-.03-2.841-.526a27.43 27.43 0 0 0 .457-4.995v-.07H70v.07c0 1.856-.171 3.714-.506 5.522zM13.318 34.96l-2.846-.493c.318-1.83.8-3.63 1.428-5.351l2.714.992a28.19 28.19 0 0 0-1.296 4.852zm53.323-.08a27.11 27.11 0 0 0-1.38-4.816l2.692-1.05a29.869 29.869 0 0 1 1.53 5.335l-2.842.532zm-3.63-9.295a27.431 27.431 0 0 0-3.034-3.993l2.132-1.952a30.327 30.327 0 0 1 3.357 4.416l-2.454 1.529zm-46.247-.007L14.282 24.1a28.588 28.588 0 0 1 3.299-4.477l2.145 1.933a25.735 25.735 0 0 0-2.962 4.022zm39.498-7.358a27.309 27.309 0 0 0-4.267-2.633l1.283-2.588c1.655.82 3.244 1.8 4.723 2.915l-1.74 2.306zm-32.84-.02-1.721-2.32a28.848 28.848 0 0 1 4.768-2.857l1.242 2.61a25.734 25.734 0 0 0-4.288 2.567zm9.002-4.306-.76-2.787a35.416 35.416 0 0 1 5.41-1.018l.318 2.871a32.398 32.398 0 0 0-4.968.934zm14.892-.113a26.884 26.884 0 0 0-4.932-.905L42.642 10c1.844.166 3.682.503 5.456 1.004l-.782 2.777z" fill="#D9D9D9"/>
    <path d="M72.114 22.416c1.201 0 2.177.976 2.177 2.178v27.495a3.012 3.012 0 0 1-3.003 3.003H54.42a3.012 3.012 0 0 1-3.003-3.003V24.594a2.19 2.19 0 0 1 2.177-2.178h18.52z" fill="#505050"/>
    <path d="M54.42 55.51A3.447 3.447 0 0 1 51 52.09V24.594A2.613 2.613 0 0 1 53.594 22h18.52c1.426 0 2.586 1.168 2.594 2.594V52.09a3.447 3.447 0 0 1-3.42 3.42H54.42zm-.826-32.676c-.967 0-1.76.793-1.76 1.76V52.09a2.61 2.61 0 0 0 2.586 2.586h16.868a2.61 2.61 0 0 0 2.586-2.586V24.594c0-.967-.793-1.76-1.76-1.76h-18.52z" fill="#505050"/>
    <path d="M74.291 52.09a3.001 3.001 0 0 1-3.003 3.002H54.42a3.001 3.001 0 0 1-3.003-3.003V33.845h22.874V52.09z" fill="#D9D9D9"/>
    <path d="M71.288 55.51H54.42A3.425 3.425 0 0 1 51 52.09V33.429h23.708v18.66a3.425 3.425 0 0 1-3.42 3.421zM51.834 34.263V52.09a2.588 2.588 0 0 0 2.586 2.586h16.868a2.588 2.588 0 0 0 2.586-2.586V34.263h-22.04z" fill="#505050"/>
    <path d="M56.314 25.14h13.614v5.99H56.314v-5.99z" fill="#71C5E8"/>
    <path d="M69.928 31.547H56.314a.413.413 0 0 1-.417-.417v-5.99c0-.233.183-.417.417-.417h13.614c.233 0 .417.184.417.417v5.99a.418.418 0 0 1-.417.417zm-13.197-.834h12.78v-5.156H56.73v5.156z" fill="#505050"/>
    <path d="M54.14 37.108h4.354v3.27h-4.355v-3.27z" fill="#fff"/>
    <path d="M58.5 40.796h-4.354a.413.413 0 0 1-.417-.417v-3.27c0-.234.184-.417.417-.417h4.355c.233 0 .417.183.417.417v3.27a.424.424 0 0 1-.417.417zm-3.945-.834h3.52v-2.436h-3.52v2.436z" fill="#505050"/>
    <path d="M54.137 42.563h4.355v3.27h-4.355v-3.27z" fill="#fff"/>
    <path d="M58.499 46.25h-4.355a.413.413 0 0 1-.417-.416v-3.27c0-.234.184-.417.417-.417H58.5c.233 0 .417.183.417.417v3.27a.424.424 0 0 1-.417.417zm-3.946-.833h3.52V42.98h-3.52v2.436z" fill="#505050"/>
    <path d="M54.14 48.022h4.354v3.27h-4.355v-3.27z" fill="#fff"/>
    <path d="M58.501 51.7h-4.354a.413.413 0 0 1-.417-.418v-3.27c0-.233.183-.417.417-.417H58.5c.234 0 .417.184.417.417v3.27a.418.418 0 0 1-.417.418zm-3.946-.835h3.52V48.43h-3.52v2.436z" fill="#505050"/>
    <path d="M60.676 37.108h4.355v3.27h-4.355v-3.27z" fill="#fff"/>
    <path d="M65.03 40.796h-4.354a.413.413 0 0 1-.417-.417v-3.27c0-.234.184-.417.417-.417h4.355c.233 0 .417.183.417.417v3.27a.418.418 0 0 1-.417.417zm-3.937-.834h3.52v-2.436h-3.52v2.436z" fill="#505050"/>
    <path d="M60.676 42.563h4.355v3.27h-4.355v-3.27z" fill="#fff"/>
    <path d="M65.03 46.25h-4.354a.413.413 0 0 1-.417-.416v-3.27c0-.234.184-.417.417-.417h4.355c.233 0 .417.183.417.417v3.27a.418.418 0 0 1-.417.417zm-3.937-.833h3.52V42.98h-3.52v2.436z" fill="#505050"/>
    <path d="M60.677 48.022h4.355v3.27h-4.355v-3.27z" fill="#fff"/>
    <path d="M65.031 51.7h-4.354a.413.413 0 0 1-.417-.418v-3.27c0-.233.183-.417.417-.417h4.354c.234 0 .417.184.417.417v3.27a.413.413 0 0 1-.417.418zm-3.937-.835h3.52V48.43h-3.52v2.436z" fill="#505050"/>
    <path d="M67.21 37.108h4.354v3.27H67.21v-3.27z" fill="#fff"/>
    <path d="M71.564 40.796H67.21a.413.413 0 0 1-.417-.417v-3.27c0-.234.183-.417.417-.417h4.354c.234 0 .417.183.417.417v3.27a.418.418 0 0 1-.417.417zm-3.937-.834h3.52v-2.436h-3.52v2.436z" fill="#505050"/>
    <path d="M67.21 42.563h4.354v8.718H67.21v-8.718z" fill="#fff"/>
    <path d="M71.981 51.69h-5.188v-9.543h5.188v9.543zm-4.354-.834h3.52V42.98h-3.52v7.875z" fill="#505050"/>
    <path d="M54.42 55.51A3.447 3.447 0 0 1 51 52.09V24.594A2.613 2.613 0 0 1 53.594 22h18.52c1.426 0 2.586 1.168 2.594 2.594V52.09a3.447 3.447 0 0 1-3.42 3.42H54.42zm-.826-32.676c-.967 0-1.76.793-1.76 1.76V52.09a2.61 2.61 0 0 0 2.586 2.586h16.868a2.61 2.61 0 0 0 2.586-2.586V24.594c0-.967-.793-1.76-1.76-1.76h-18.52z" fill="#505050"/>
    <path d="M44.444 67.622c0 1.054-.871 1.909-1.945 1.909H8.946C7.872 69.53 7 68.676 7 67.622V44.725h37.444v22.897z" fill="#009CDE"/>
    <path d="M38.817 44.725 13.818 69.531H8.946c-1.073 0-1.944-.85-1.946-1.903V44.725h31.817z" fill="#4ACFFF"/>
    <path d="M44.444 40.909c0-1.054-.871-1.909-1.945-1.909H8.946C7.872 39 7 39.855 7 40.909v3.816h37.444v-3.816z" fill="#fff"/>
    <path fill-rule="evenodd" clip-rule="evenodd" d="M6.5 40.909c0-1.34 1.104-2.409 2.446-2.409h33.553c1.341 0 2.445 1.07 2.445 2.409v3.816a.5.5 0 0 1-.5.5H7a.5.5 0 0 1-.5-.5v-3.816zM8.946 39.5c-.807 0-1.446.64-1.446 1.409v3.316h36.444v-3.316c0-.769-.638-1.409-1.445-1.409H8.946z" fill="#505050"/>
    <path fill-rule="evenodd" clip-rule="evenodd" d="M6.5 44.725a.5.5 0 0 1 .5-.5h37.444a.5.5 0 0 1 .5.5v22.897c0 1.34-1.104 2.409-2.445 2.409H8.946c-1.342 0-2.446-1.07-2.446-2.409V44.725zm1 .5v22.397c0 .769.639 1.409 1.446 1.409h33.553c.807 0 1.445-.64 1.445-1.409V45.225H7.5z" fill="#505050"/>
    <path d="M8.946 41.863a.952.952 0 1 0 1.904 0 .952.952 0 1 0-1.904 0z" fill="#FF6242"/>
    <path d="M12.756 41.863c0 .527.425.954.951.956a.955.955 0 0 0 .002-1.91.955.955 0 0 0-.953.954z" fill="#FFE500"/>
    <path d="M16.564 41.863c0 .527.426.954.952.956a.955.955 0 0 0 .002-1.91.955.955 0 0 0-.954.954z" fill="#6DD627"/>
    <path d="M13.39 49.967a2.467 2.467 0 0 1 2.466-2.467h19.733a2.467 2.467 0 0 1 2.466 2.467v13.566A2.467 2.467 0 0 1 35.59 66H15.856a2.467 2.467 0 0 1-2.467-2.467V49.967z" fill="#fff"/>
    <path fill-rule="evenodd" clip-rule="evenodd" d="M35.589 48.733H15.856c-.681 0-1.233.553-1.233 1.234v13.566c0 .681.552 1.234 1.233 1.234h19.733c.68 0 1.233-.552 1.233-1.234V49.967c0-.681-.552-1.234-1.233-1.234zM15.856 47.5a2.467 2.467 0 0 0-2.467 2.467v13.566A2.467 2.467 0 0 0 15.856 66h19.733a2.467 2.467 0 0 0 2.466-2.467V49.967A2.467 2.467 0 0 0 35.59 47.5H15.856z" fill="#505050"/>
    <path d="M17.09 53.135a.701.701 0 0 1 1.402 0 .701.701 0 0 1-1.402 0z" fill="#888"/>
    <path fill-rule="evenodd" clip-rule="evenodd" d="M16.72 53.134a1.071 1.071 0 1 1 2.141 0 1.071 1.071 0 0 1-2.142 0zm1.07-.331a.331.331 0 1 0 0 .662.331.331 0 0 0 0-.663z" fill="#888"/>
    <path d="M17.09 56.836a.7.7 0 1 1 1.402 0 .701.701 0 0 1-1.402 0z" fill="#888"/>
    <path fill-rule="evenodd" clip-rule="evenodd" d="M16.72 56.832a1.071 1.071 0 1 1 2.142 0 1.071 1.071 0 0 1-2.143 0zm1.07-.33a.331.331 0 1 0 0 .661.331.331 0 0 0 0-.662z" fill="#888"/>
    <path d="M17.09 60.535a.701.701 0 0 1 1.402 0 .701.701 0 0 1-1.402 0z" fill="#888"/>
    <path fill-rule="evenodd" clip-rule="evenodd" d="M16.72 60.532a1.071 1.071 0 1 1 2.142 0 1.071 1.071 0 0 1-2.143 0zm1.07-.332a.331.331 0 1 0 0 .663.331.331 0 0 0 0-.663z" fill="#888"/>
    <path d="M33.754 53.667H21.389a.608.608 0 0 1-.6-.616c0-.342.268-.617.6-.617h12.365c.332 0 .6.276.6.617a.608.608 0 0 1-.6.616zM33.754 57.368H21.389a.608.608 0 0 1-.6-.617c0-.34.268-.616.6-.616h12.365c.332 0 .6.275.6.616a.608.608 0 0 1-.6.617zM33.754 61.067H21.389a.608.608 0 0 1-.6-.616c0-.342.268-.617.6-.617h12.365c.332 0 .6.275.6.617a.608.608 0 0 1-.6.616z" fill="#888"/>
    <path d="M33 15H9a3 3 0 0 0-3 3v10a3 3 0 0 0 3 3h24a3 3 0 0 0 3-3V18a3 3 0 0 0-3-3z" fill="#fff"/>
    <path fill-rule="evenodd" clip-rule="evenodd" d="M33 16H9a2 2 0 0 0-2 2v10a2 2 0 0 0 2 2h24a2 2 0 0 0 2-2V18a2 2 0 0 0-2-2zM9 15h24a3 3 0 0 1 3 3v10a3 3 0 0 1-3 3H9a3 3 0 0 1-3-3V18a3 3 0 0 1 3-3z" fill="#505050"/>
    <path d="M13.05 26c-.632 0-1.129-.195-1.5-.595-.37-.4-.55-.977-.55-1.734v-1.325c0-.765.18-1.343.55-1.743.371-.399.868-.603 1.49-.603.624 0 1.13.204 1.49.603.37.4.551.978.551 1.734v1.326c0 .765-.18 1.343-.55 1.734-.37.39-.867.595-1.49.595l.009.008zm0-.773c.316 0 .55-.12.722-.349.162-.23.244-.595.244-1.08v-1.597c0-.484-.082-.833-.253-1.07-.172-.23-.406-.35-.722-.35-.316 0-.56.12-.723.35-.162.229-.252.586-.252 1.07V23.8c0 .484.08.841.252 1.08.172.237.416.348.732.348zM17.808 26c-.632 0-1.129-.196-1.499-.596-.37-.399-.55-.977-.55-1.733v-1.326c0-.756.18-1.334.55-1.734.37-.4.867-.603 1.49-.603s1.129.204 1.49.603c.37.4.55.977.55 1.734v1.326c0 .765-.18 1.343-.55 1.733-.37.391-.867.595-1.49.595h.009zm0-.774c.316 0 .55-.119.722-.348.163-.23.244-.595.244-1.08V22.2c0-.484-.081-.832-.253-1.07-.171-.23-.406-.349-.722-.349-.316 0-.56.12-.722.349-.163.23-.253.586-.253 1.07v1.598c0 .485.081.842.253 1.08.171.238.415.348.731.348zM20.535 22.516v-.926h1.066v.935h-1.066v-.009zm0 3.391v-.935h1.066v.935h-1.066zM24.21 26c-.632 0-1.129-.196-1.5-.596-.37-.399-.55-.977-.55-1.733v-1.326c0-.756.18-1.334.55-1.734.371-.4.868-.603 1.49-.603.624 0 1.13.204 1.49.603.37.4.551.977.551 1.734v1.326c0 .765-.18 1.343-.55 1.733-.37.391-.867.595-1.49.595h.009zm0-.774c.316 0 .55-.119.722-.348.163-.23.244-.595.244-1.08V22.2c0-.484-.081-.832-.253-1.07-.171-.23-.406-.349-.722-.349-.316 0-.56.12-.723.349-.162.23-.252.586-.252 1.07v1.598c0 .485.08.842.252 1.08.172.238.416.348.732.348zM28.969 26c-.632 0-1.13-.196-1.5-.596-.37-.399-.55-.977-.55-1.733v-1.326c0-.756.18-1.334.55-1.734.37-.4.868-.603 1.49-.603.624 0 1.13.204 1.49.603.37.4.551.977.551 1.734v1.326c0 .765-.18 1.343-.55 1.733-.37.391-.867.595-1.49.595h.009zm0-.774c.316 0 .55-.119.722-.348.163-.23.244-.595.244-1.08V22.2c0-.484-.081-.832-.253-1.07-.172-.23-.406-.349-.722-.349-.316 0-.56.12-.723.349-.162.23-.253.586-.253 1.07v1.598c0 .485.082.842.253 1.08.172.238.416.348.732.348z" fill="#505050"/>
</svg>
