<?xml version="1.0" encoding="UTF-8"?>
<svg id="Layer_1" data-name="Layer 1" xmlns="http://www.w3.org/2000/svg" viewBox="0 0 48 48">
  <path d="M8.66,34.83c0,.22.09.43.24.59.16.16.37.24.59.24h24.27c.22,0,.43-.09.59-.24s.24-.37.24-.59V7.64L27.49.51H9.5c-.11,0-.22.02-.32.06-.1.04-.19.1-.27.18-.08.08-.14.17-.18.27-.04.1-.06.21-.06.32v33.49Z" fill="#fff" stroke-width="0"/>
  <path d="M33.77,36.18H9.5c-.36,0-.69-.14-.95-.39s-.39-.59-.39-.95V1.36c0-.18.03-.35.1-.51.07-.17.17-.31.29-.44s.27-.22.43-.29c.17-.07.34-.1.51-.1h18c.13,0,.26.05.36.15l7.11,7.11c.09.09.15.22.15.36v27.21c0,.36-.14.69-.39.95s-.59.39-.95.39h0ZM9.5,1.03s-.09,0-.13.03c-.04.02-.07.04-.1.07s-.06.07-.07.11c-.02.04-.02.08-.02.12v33.48c0,.09.03.17.1.23.06.06.14.1.23.1h24.27c.09,0,.17-.03.23-.1.06-.06.1-.14.1-.23V7.84l-6.83-6.81H9.5Z" fill="#1d1e1e" stroke-width="0"/>
  <path d="M27.48.51v6.34c0,.21.08.4.23.55s.34.23.55.23h6.33L27.48.51Z" fill="#702f8a" stroke-width="0"/>
  <path d="M34.59,8.14h-6.33c-.34,0-.67-.14-.91-.37-.24-.24-.38-.57-.38-.91V.51c0-.2.12-.39.31-.47.19-.08.41-.04.55.11l7.11,7.11c.14.14.19.36.11.55s-.26.31-.47.31h.01ZM27.98,1.74v5.11c0,.07.03.14.08.19s.12.08.19.08h5.11l-5.39-5.39Z" fill="#1d1e1e" stroke-width="0"/>
  <path d="M23.18,10.93h-10.16c-.28,0-.5-.23-.5-.5s.23-.5.5-.5h10.16c.28,0,.5.23.5.5s-.23.5-.5.5Z" fill="#1d1e1e" stroke-width="0"/>
  <path d="M30.21,15.61H13.02c-.28,0-.5-.23-.5-.5s.23-.5.5-.5h17.19c.28,0,.5.23.5.5s-.23.5-.5.5Z" fill="#1d1e1e" stroke-width="0"/>
  <path d="M30.21,20.3H13.02c-.28,0-.5-.23-.5-.5s.23-.5.5-.5h17.19c.28,0,.5.23.5.5s-.23.5-.5.5Z" fill="#1d1e1e" stroke-width="0"/>
  <path d="M30.14,25.37H13.28c-.28,0-.5-.23-.5-.5s.23-.5.5-.5h16.87c.28,0,.5.23.5.5s-.23.5-.5.5Z" fill="#1d1e1e" stroke-width="0"/>
  <path d="M30.14,29.81H13.28c-.28,0-.5-.23-.5-.5s.23-.5.5-.5h16.87c.28,0,.5.23.5.5s-.23.5-.5.5Z" fill="#1d1e1e" stroke-width="0"/>
  <path d="M37.35,30.33v9.82c0,.07-.02.13-.06.18s-.09.1-.15.12-.13.03-.19.02c-.06-.01-.12-.04-.17-.09l-2.75-2.75-2.75,2.75s-.11.08-.17.09c-.06.01-.13,0-.19-.02s-.11-.07-.15-.12-.06-.12-.06-.18v-9.82h6.65Z" fill="#9c59b2" stroke-width="0"/>
  <path d="M37.35,33.51c-1.02.53-2.16.8-3.32.8s-2.29-.27-3.32-.8v-3.17h6.63v3.17Z" fill="#702f8a" stroke-width="0"/>
  <path d="M31.05,40.99c-.11,0-.22-.02-.32-.06-.16-.07-.29-.17-.38-.31-.09-.14-.14-.3-.14-.47v-9.82c0-.28.23-.51.51-.51h6.63c.28,0,.51.23.51.51v9.82c0,.17-.05.33-.14.47s-.22.25-.38.31c-.15.06-.32.08-.49.05-.16-.03-.31-.11-.43-.23l-2.39-2.39-2.39,2.39c-.12.12-.27.2-.43.23-.05.01-.11.02-.17.02h.02ZM31.23,30.84v8.86l2.44-2.44c.19-.19.53-.19.72,0l2.44,2.44v-8.86h-5.61Z" fill="#1d1e1e" stroke-width="0"/>
  <path d="M39.34,27c0,.69-.14,1.39-.4,2.03-.27.64-.65,1.23-1.16,1.72s-1.07.88-1.72,1.16-1.34.4-2.03.4-1.39-.14-2.03-.4c-.64-.27-1.23-.65-1.72-1.16s-.88-1.07-1.16-1.72-.4-1.34-.4-2.03.14-1.39.4-2.03c.27-.64.65-1.23,1.16-1.72s1.07-.88,1.72-1.16,1.34-.4,2.03-.4,1.39.14,2.03.4c.64.27,1.23.65,1.72,1.16s.88,1.07,1.16,1.72.4,1.34.4,2.03Z" fill="#e3cceb" stroke-width="0"/>
  <path d="M37.73,30.81c.51-.49.91-1.07,1.19-1.73.28-.65.42-1.35.43-2.05,0-.7-.13-1.41-.4-2.06s-.66-1.25-1.17-1.74-1.1-.89-1.75-1.16-1.36-.39-2.06-.38-1.41.16-2.05.44-1.24.69-1.72,1.21l7.54,7.47h-.01Z" fill="#fff" stroke-width="0"/>
  <path d="M34.03,32.83c-.76,0-1.52-.15-2.23-.44-.71-.29-1.35-.71-1.89-1.27-.54-.54-.96-1.18-1.27-1.89-.29-.7-.44-1.46-.44-2.23s.15-1.52.44-2.23.72-1.35,1.27-1.89c.54-.54,1.18-.96,1.89-1.27,1.42-.58,3.03-.58,4.45,0,.71.29,1.35.71,1.89,1.27.54.54.96,1.18,1.27,1.89.29.71.44,1.46.44,2.23s-.15,1.52-.44,2.23c-.29.71-.71,1.35-1.27,1.89-.54.54-1.18.96-1.89,1.27-.71.29-1.46.44-2.23.44h.01ZM34.03,22.21c-.63,0-1.25.12-1.84.36s-1.11.59-1.56,1.04c-.45.44-.79.96-1.03,1.56-.24.58-.36,1.21-.36,1.84s.12,1.26.36,1.84c.24.58.59,1.11,1.03,1.56.45.45.97.79,1.56,1.03,1.17.48,2.5.48,3.67,0,.58-.24,1.11-.59,1.56-1.03.44-.45.79-.97,1.03-1.56.24-.58.36-1.2.36-1.84s-.12-1.25-.36-1.84c-.24-.58-.59-1.11-1.03-1.56s-.97-.79-1.56-1.04-1.21-.36-1.84-.36h.01Z" fill="#1d1e1e" stroke-width="0"/>
  <path d="M37.15,27c0,.88-.35,1.73-.97,2.34-.62.62-1.47.97-2.34.97s-1.73-.35-2.34-.97-.97-1.47-.97-2.34.35-1.73.97-2.34c.62-.61,1.47-.97,2.34-.97s1.73.35,2.34.97c.62.62.97,1.47.97,2.34h0Z" fill="#702f8a" stroke-width="0"/>
  <path d="M34.03,23.69c.66,0,1.32.2,1.86.57.55.37.97.9,1.22,1.52.25.61.3,1.3.16,1.94s-.47,1.24-.95,1.7l-4.71-4.67c.31-.33.68-.59,1.11-.77.41-.18.86-.27,1.32-.27h.01Z" fill="#9c59b2" stroke-width="0"/>
  <path d="M34.03,30.84c-1.02,0-1.99-.4-2.71-1.13s-1.13-1.69-1.13-2.71.41-2,1.13-2.71c.71-.71,1.69-1.13,2.71-1.13s1.99.4,2.71,1.13,1.13,1.7,1.13,2.71-.4,1.99-1.13,2.71-1.69,1.13-2.71,1.13ZM34.03,24.21c-.75,0-1.46.29-1.98.82-.52.52-.82,1.25-.82,1.98s.29,1.46.82,1.98c1.05,1.05,2.9,1.05,3.97,0,.53-.53.82-1.24.82-1.98s-.3-1.46-.82-1.98c-.53-.53-1.24-.82-1.98-.82h-.01Z" fill="#1d1e1e" stroke-width="0"/>
</svg>