<?xml version="1.0" encoding="UTF-8"?>
<svg id="Layer_1" data-name="Layer 1" xmlns="http://www.w3.org/2000/svg" viewBox="0 0 48 48">
  <path d="M26.09,6.69l3.35,6.79c.13.27.33.5.58.67s.52.29.83.33l7.51,1.1c.35.06.65.19.92.42.27.23.46.52.58.85s.12.67.04,1.02c-.08.33-.25.64-.5.89l-5.43,5.29c-.21.21-.38.46-.46.75-.1.29-.12.6-.06.89l1.29,7.47c.06.35.02.69-.12,1.02s-.35.6-.64.81c-.29.21-.62.33-.96.35-.35.02-.69-.06-1-.21l-6.72-3.54c-.27-.13-.56-.21-.87-.21s-.6.08-.87.21l-6.72,3.54c-.31.15-.65.23-1,.21s-.67-.15-.96-.35c-.29-.21-.5-.48-.64-.81s-.17-.67-.12-1.02l1.29-7.47c.06-.29.04-.6-.06-.89-.1-.29-.25-.54-.46-.75l-5.43-5.29c-.25-.25-.42-.54-.5-.89-.08-.33-.08-.69.04-1.02s.31-.62.58-.85.58-.37.92-.42l7.51-1.1c.29-.04.58-.15.83-.33.25-.17.44-.4.58-.67l3.35-6.79c.15-.31.38-.58.69-.75.29-.19.64-.29.98-.29s.69.1.98.27.54.44.69.75h0l-.04.02Z" fill="#618fff" stroke-width="0"/>
  <path d="M32.91,35.81c-.38,0-.76-.09-1.11-.27l-6.73-3.55c-.41-.21-.86-.21-1.29,0l-6.71,3.54c-.4.2-.83.29-1.25.27-.41-.02-.81-.17-1.2-.43-.38-.28-.64-.62-.81-1.02-.17-.41-.22-.84-.14-1.28l1.29-7.47c.04-.22.03-.44-.04-.65-.07-.22-.19-.4-.35-.56l-5.42-5.29c-.33-.33-.54-.71-.63-1.13-.1-.43-.08-.89.05-1.28.15-.42.39-.77.72-1.05.33-.28.72-.46,1.16-.53l7.51-1.1c.22-.03.43-.12.62-.25.18-.12.32-.29.42-.49l3.35-6.79c.21-.42.52-.75.89-.96.65-.43,1.7-.46,2.45-.01.37.22.68.56.88.95l.21.43-.04.02,3.14,6.36c.1.2.24.37.42.49.2.14.4.22.61.25l7.52,1.1c.45.08.84.25,1.17.53.33.28.57.64.72,1.05.14.39.16.82.05,1.28-.1.42-.32.81-.63,1.12l-5.43,5.3c-.17.17-.29.35-.33.53-.08.24-.09.46-.05.67l1.29,7.48c.07.44.02.87-.14,1.28-.17.41-.44.75-.8,1.01-.36.27-.77.41-1.22.44-.04,0-.09,0-.13,0ZM24.44,30.88c.37,0,.73.09,1.08.26l6.73,3.55c.23.12.49.17.75.16.26-.01.49-.1.7-.25.22-.16.37-.36.47-.6.1-.24.13-.5.09-.76l-1.29-7.46c-.07-.36-.05-.75.08-1.12.08-.32.28-.64.58-.94l5.43-5.3c.18-.18.31-.41.37-.65.06-.28.05-.53-.02-.75-.09-.25-.24-.47-.44-.64-.19-.17-.42-.27-.69-.31l-7.5-1.1c-.36-.04-.7-.18-1.03-.41-.31-.22-.56-.5-.73-.85l-3.49-7.09c-.09-.11-.21-.21-.33-.28-.43-.26-1.05-.26-1.45,0-.24.13-.41.32-.53.57l-3.35,6.79c-.18.35-.42.64-.73.86-.32.22-.67.36-1.04.41l-7.5,1.1c-.26.04-.49.15-.68.31-.2.17-.35.39-.44.64-.08.22-.09.49-.02.75.05.25.18.46.37.66l5.42,5.29c.27.27.46.58.58.94.12.37.15.76.07,1.13l-1.29,7.45c-.04.26-.01.51.09.76.1.25.26.44.47.6.23.15.47.24.7.25.26.02.52-.04.76-.16l6.71-3.54c.36-.18.72-.27,1.09-.27Z" fill="#1d1e1e" stroke-width="0"/>
  <path d="M14.39,31.85l1.06-6.14c.06-.29.04-.6-.06-.89-.1-.29-.25-.54-.46-.75l-5.43-5.29c-.25-.25-.42-.54-.5-.89-.08-.33-.08-.69.04-1.02s.31-.62.58-.85.58-.37.92-.42l7.51-1.1c.29-.04.58-.15.83-.33.25-.17.44-.4.58-.67l3.35-6.79c.15-.31.38-.58.69-.75.29-.17.64-.29.98-.29s.69.1.98.29c.29.17.54.44.69.75l3.35,6.79c.13.27.33.5.58.67s.52.29.83.33L14.45,31.83l-.06.02Z" fill="#c7dbff" stroke-width="0"/>
  <path d="M32.91,35.81c-.38,0-.76-.09-1.11-.27l-6.73-3.55c-.41-.21-.86-.21-1.29,0l-6.71,3.54c-.4.2-.83.29-1.25.27-.41-.02-.81-.17-1.2-.43-.38-.28-.64-.62-.81-1.02-.17-.41-.22-.84-.14-1.28l1.29-7.47c.04-.22.03-.44-.04-.65-.07-.22-.19-.4-.35-.56l-5.42-5.29c-.33-.33-.54-.71-.63-1.13-.1-.43-.08-.89.05-1.28.15-.42.39-.77.72-1.05.33-.28.72-.46,1.16-.53l7.51-1.1c.22-.03.43-.12.62-.25.18-.12.32-.29.42-.49l3.35-6.79c.21-.42.52-.75.89-.96.65-.43,1.7-.46,2.45-.01.37.22.68.56.88.95h0s3.31,6.82,3.31,6.82c.1.2.24.37.42.49.2.14.4.22.61.25l7.52,1.1c.45.08.84.25,1.17.53.33.28.57.64.72,1.05.14.39.16.82.05,1.28-.1.42-.32.81-.63,1.12l-5.43,5.3c-.17.17-.29.35-.33.53-.08.24-.09.46-.05.67l1.29,7.48c.07.44.02.87-.14,1.28-.17.41-.44.75-.8,1.01-.36.27-.77.41-1.22.44-.04,0-.09,0-.13,0ZM24.44,30.88c.37,0,.73.09,1.08.26l6.73,3.55c.23.12.49.17.75.16.26-.01.49-.1.7-.25.22-.16.37-.36.47-.6.1-.24.13-.5.09-.76l-1.29-7.46c-.07-.36-.05-.75.08-1.12.08-.32.28-.64.58-.94l5.43-5.3c.18-.18.31-.41.37-.65.06-.28.05-.53-.02-.75-.09-.25-.24-.47-.44-.64-.19-.17-.42-.27-.69-.31l-7.5-1.1c-.36-.04-.7-.18-1.03-.41-.31-.22-.56-.5-.73-.85l-3.31-6.81c-.11-.22-.3-.42-.51-.55-.43-.26-1.05-.26-1.45,0-.24.13-.41.32-.53.57l-3.35,6.79c-.18.35-.42.64-.73.86-.32.22-.67.36-1.04.41l-7.5,1.1c-.26.04-.49.15-.68.31-.2.17-.35.39-.44.64-.08.22-.09.49-.02.75.05.25.18.46.37.66l5.42,5.29c.27.27.46.58.58.94.12.37.15.76.07,1.13l-1.29,7.45c-.04.26-.01.51.09.76.1.25.26.44.47.6.23.15.47.24.7.25.26.02.52-.04.76-.16l6.71-3.54c.36-.18.72-.27,1.09-.27Z" fill="#1d1e1e" stroke-width="0"/>
</svg>