<?xml version="1.0" encoding="UTF-8"?>
<svg id="Layer_1" data-name="Layer 1" xmlns="http://www.w3.org/2000/svg" viewBox="0 0 48 48">
  <path d="M30.18,15.57h-2.55c-.31-1.58-.93-3.08-1.83-4.42l1.8-1.8c.36-.36.36-.95,0-1.31l-1.97-1.97c-.36-.36-.95-.36-1.31,0,0,0,0,0,0,0l-1.8,1.8c-1.33-.9-2.84-1.52-4.42-1.83v-2.55c0-.51-.41-.93-.93-.93h-2.79c-.51,0-.93.41-.93.93h0v2.55c-1.58.31-3.08.93-4.42,1.83l-1.8-1.8c-.36-.36-.95-.36-1.31,0,0,0,0,0,0,0l-1.97,1.97c-.36.36-.36.95,0,1.31,0,0,0,0,0,0l1.8,1.8c-.9,1.33-1.52,2.84-1.83,4.42H1.38c-.51,0-.93.41-.93.93H.46v2.79c0,.51.41.93.93.93h2.55c.31,1.58.93,3.08,1.83,4.42l-1.8,1.8c-.36.36-.36.95,0,1.31,0,0,0,0,0,0l1.97,1.97c.36.36.95.36,1.31,0,0,0,0,0,0,0l1.8-1.8c1.33.9,2.84,1.52,4.42,1.83v2.55c0,.51.41.93.93.93h2.79c.51,0,.93-.41.93-.93v-2.54c1.58-.31,3.08-.93,4.42-1.83l1.8,1.8c.36.36.95.36,1.31,0,0,0,0,0,0,0l1.97-1.97c.36-.36.37-.95,0-1.31,0,0,0,0,0,0l-1.8-1.8c.9-1.33,1.52-2.84,1.83-4.42h2.55c.51,0,.93-.41.93-.93h0v-2.79c0-.51-.41-.93-.93-.93h0ZM15.78,24.86c-3.85.04-7-3.05-7.04-6.9-.04-3.85,3.05-7,6.9-7.04.05,0,.09,0,.14,0,3.85.04,6.94,3.18,6.9,7.03-.04,3.79-3.1,6.86-6.9,6.9Z" fill="none" stroke-width="0"/>
  <path d="M30.18,15.57h-2.55c-.31-1.58-.93-3.08-1.83-4.42l1.8-1.8c.36-.36.36-.95,0-1.31l-1.97-1.97c-.36-.36-.95-.36-1.31,0,0,0,0,0,0,0l-1.8,1.8c-1.33-.9-2.84-1.52-4.42-1.83v-2.55c0-.51-.41-.93-.93-.93h-2.79c-.51,0-.93.41-.93.93h0v2.55c-1.58.31-3.08.93-4.42,1.83l-1.8-1.8c-.36-.36-.95-.36-1.31,0,0,0,0,0,0,0l-1.97,1.97c-.36.36-.36.95,0,1.31,0,0,0,0,0,0l1.8,1.8c-.9,1.33-1.52,2.84-1.83,4.42H1.38c-.51,0-.93.41-.93.93H.46v2.79c0,.51.41.93.93.93h2.55c.31,1.58.93,3.08,1.83,4.42l-1.8,1.8c-.36.36-.36.95,0,1.31,0,0,0,0,0,0l1.97,1.97c.36.36.95.36,1.31,0,0,0,0,0,0,0l1.8-1.8c1.33.9,2.84,1.52,4.42,1.83v2.55c0,.51.41.93.93.93h2.79c.51,0,.93-.41.93-.93v-2.54c1.58-.31,3.08-.93,4.42-1.83l1.8,1.8c.36.36.95.36,1.31,0,0,0,0,0,0,0l1.97-1.97c.36-.36.37-.95,0-1.31,0,0,0,0,0,0l-1.8-1.8c.9-1.33,1.52-2.84,1.83-4.42h2.55c.51,0,.93-.41.93-.93h0v-2.79c0-.51-.41-.93-.93-.93h0ZM15.78,24.86c-3.85.04-7-3.05-7.04-6.9-.04-3.85,3.05-7,6.9-7.04.05,0,.09,0,.14,0,3.85.04,6.94,3.18,6.9,7.03-.04,3.79-3.1,6.86-6.9,6.9h0Z" fill="#fff" stroke-width="0"/>
  <path d="M17.18,33.67h-2.79c-.76,0-1.38-.62-1.38-1.38v-2.17c-1.39-.31-2.69-.86-3.9-1.61l-1.54,1.54c-.55.54-1.42.54-1.96,0l-1.97-1.97c-.27-.27-.41-.61-.41-.98,0-.37.15-.72.41-.98l1.54-1.54c-.76-1.2-1.3-2.51-1.62-3.9H1.38c-.76,0-1.38-.62-1.38-1.38v-2.79c0-.76.62-1.38,1.38-1.38h2.17c.31-1.39.86-2.7,1.61-3.9l-1.53-1.53s0,0-.01-.01c-.54-.54-.54-1.42,0-1.96l1.97-1.97c.27-.26.62-.39.98-.41.37,0,.72.15.98.41l1.54,1.54c1.2-.76,2.51-1.3,3.9-1.61v-2.18c0-.76.62-1.38,1.38-1.38h2.79c.76,0,1.38.62,1.38,1.38v2.18c1.39.31,2.69.85,3.9,1.61l1.54-1.54c.55-.54,1.42-.54,1.96,0l1.97,1.97c.54.54.54,1.42,0,1.96l-1.54,1.54c.76,1.2,1.3,2.51,1.62,3.9h2.17c.76,0,1.38.62,1.38,1.38v2.79c0,.76-.62,1.38-1.38,1.38h-2.17c-.31,1.39-.86,2.69-1.62,3.9l1.54,1.54c.27.27.41.62.41.99s-.15.72-.41.98l-1.97,1.97c-.55.54-1.42.54-1.96,0l-1.54-1.54c-1.2.76-2.51,1.3-3.9,1.61v2.17c0,.76-.62,1.38-1.38,1.38ZM9.04,27.45c.09,0,.18.03.26.08,1.29.87,2.72,1.46,4.25,1.76.22.04.37.23.37.45v2.55c0,.26.21.47.47.47h2.79c.26,0,.47-.21.47-.47v-2.54c0-.22.16-.41.37-.45,1.53-.3,2.96-.89,4.25-1.76.18-.12.43-.1.58.06l1.8,1.8c.18.18.48.18.66,0l1.98-1.97c.09-.09.14-.21.14-.33,0-.12-.05-.24-.14-.33l-1.8-1.8c-.15-.15-.18-.4-.06-.58.87-1.29,1.46-2.72,1.76-4.25.04-.22.23-.37.45-.37h2.55c.26,0,.47-.21.47-.47v-2.79c0-.26-.21-.47-.47-.47h-2.55c-.22,0-.41-.16-.45-.37-.3-1.53-.89-2.96-1.76-4.25-.12-.18-.1-.42.06-.58l1.8-1.8c.18-.18.18-.48,0-.67l-1.97-1.97c-.18-.18-.48-.19-.66,0l-1.8,1.8c-.15.16-.4.18-.58.06-1.29-.87-2.72-1.46-4.25-1.76-.22-.04-.37-.23-.37-.45v-2.55c0-.26-.21-.47-.47-.47h-2.79c-.26,0-.47.21-.47.47v2.55c0,.22-.16.41-.37.45-1.53.3-2.96.89-4.25,1.76-.18.12-.42.1-.58-.06l-1.8-1.8c-.09-.09-.21-.14-.33-.14h0c-.12,0-.24.05-.33.14l-1.97,1.97c-.18.18-.18.47,0,.66,0,0,0,0,0,0l1.8,1.8c.15.15.18.4.06.58-.87,1.29-1.46,2.72-1.76,4.25-.04.22-.23.37-.45.37H1.38c-.26,0-.47.21-.47.47v2.79c0,.26.21.47.47.47h2.55c.22,0,.41.16.45.37.3,1.53.89,2.96,1.76,4.25.12.18.1.42-.06.58l-1.8,1.8c-.09.09-.14.21-.14.33s.05.24.14.33l1.97,1.97c.18.18.48.18.66,0l1.8-1.8c.09-.09.21-.13.32-.13ZM15.71,25.32c-4.06,0-7.38-3.28-7.42-7.35-.04-4.09,3.26-7.46,7.35-7.5h.15c4.09.04,7.39,3.4,7.35,7.49-.04,4.01-3.34,7.31-7.35,7.35h0s-.05,0-.08,0ZM15.78,24.86h0,0ZM15.78,11.39h-.13c-3.59.04-6.48,2.98-6.44,6.57.04,3.57,2.95,6.44,6.51,6.44.02,0,.04,0,.07,0h0c3.52-.04,6.41-2.93,6.44-6.45.03-3.59-2.86-6.54-6.45-6.57Z" fill="#1d1e1e" stroke-width="0"/>
  <path d="M47.02,31.23l-.68-.39c.41-1.44.41-2.97,0-4.41l.68-.39c.49-.28.66-.91.38-1.4,0,0,0,0,0,0l-1.03-1.79c-.28-.49-.91-.66-1.4-.38,0,0,0,0,0,0l-.68.39c-1.05-1.07-2.37-1.83-3.82-2.21v-.79c0-.57-.46-1.03-1.03-1.03h-2.07c-.57,0-1.03.46-1.03,1.03h0v.79c-1.45.37-2.77,1.14-3.82,2.21l-.68-.39c-.49-.29-1.12-.12-1.41.37,0,0,0,0,0,0l-1.03,1.79c-.29.49-.12,1.12.37,1.41,0,0,0,0,0,0l.68.39c-.41,1.44-.41,2.97,0,4.41l-.68.39c-.49.28-.66.91-.38,1.4,0,0,0,0,0,0l1.03,1.79c.28.49.91.66,1.4.38,0,0,0,0,0,0l.68-.39c1.05,1.07,2.37,1.83,3.82,2.21v.79c0,.57.46,1.03,1.03,1.03h2.06c.57,0,1.03-.46,1.03-1.03h0v-.79c1.45-.37,2.77-1.14,3.82-2.21l.68.39c.49.29,1.12.12,1.41-.37,0,0,0,0,0,0l1.03-1.79c.29-.49.12-1.12-.37-1.41,0,0,0,0,0,0ZM38.4,33.27c-2.56,0-4.64-2.08-4.65-4.64,0-2.56,2.08-4.64,4.64-4.65,2.56,0,4.64,2.08,4.65,4.64,0,2.56-2.08,4.64-4.64,4.65h0Z" fill="#702f8a" stroke-width="0"/>
  <path d="M39.43,38.89h-2.06c-.82,0-1.49-.67-1.49-1.49v-.44c-1.28-.39-2.46-1.07-3.44-1.98l-.38.22c-.35.2-.75.25-1.13.15-.38-.1-.7-.35-.9-.7l-1.03-1.78s-.02-.03-.02-.04c-.37-.72-.12-1.59.57-1.99l.38-.22c-.31-1.3-.31-2.66,0-3.97l-.38-.22c-.72-.42-.96-1.33-.54-2.04l1.03-1.78s0,0,0,0h0c.2-.34.52-.59.9-.69.38-.1.78-.05,1.13.15l.38.22c.98-.92,2.15-1.6,3.44-1.98v-.44c0-.82.67-1.49,1.49-1.49h2.07c.82,0,1.49.67,1.49,1.49v.44c1.28.39,2.46,1.07,3.44,1.98l.38-.22c.72-.41,1.63-.16,2.03.55l1.03,1.79s0,.01.01.02c.19.35.24.74.14,1.11-.1.38-.35.7-.7.9l-.38.22c.31,1.3.31,2.66,0,3.97l.38.22s.02.01.03.02c.32.18.56.51.66.89.1.38.05.78-.16,1.13l-1.03,1.78s-.01.02-.02.03c-.19.32-.51.56-.89.67-.38.1-.78.05-1.13-.15l-.37-.22c-.98.92-2.15,1.6-3.44,1.98v.44c0,.82-.67,1.49-1.49,1.49ZM32.51,33.95c.12,0,.24.05.33.14.99,1.01,2.24,1.73,3.61,2.08.2.05.34.23.34.44v.79c0,.31.26.57.57.57h2.06c.31,0,.57-.26.57-.57v-.79c0-.21.14-.39.34-.44,1.37-.35,2.62-1.07,3.61-2.08.15-.15.38-.18.56-.08l.68.39c.13.08.29.1.43.06.15-.04.27-.13.35-.26l1.03-1.79c.08-.13.1-.29.06-.44-.04-.15-.13-.27-.26-.35l.23-.4-.23.4-.68-.39c-.18-.1-.27-.32-.21-.52.39-1.36.39-2.8,0-4.16-.06-.2.03-.42.21-.52l.68-.39c.13-.08.23-.2.27-.35.04-.15.02-.3-.06-.43,0,0,0,0,0,0l-1.03-1.78c-.16-.27-.51-.37-.78-.21l-.68.39c-.18.1-.41.07-.56-.08-.99-1.01-2.24-1.73-3.61-2.08-.2-.05-.34-.23-.34-.44v-.79c0-.31-.26-.57-.57-.57h-2.07c-.31,0-.57.26-.57.57v.79c0,.21-.14.39-.34.44-1.37.35-2.62,1.07-3.61,2.08-.15.15-.37.18-.56.08l-.68-.39c-.13-.08-.29-.1-.43-.06-.15.04-.27.13-.35.27,0,0,0,.01-.01.02l-1.02,1.77c-.16.27-.07.62.21.78l.68.39c.18.11.27.32.21.52-.39,1.36-.39,2.8,0,4.16.06.2-.03.42-.21.52l-.68.39c-.27.16-.37.51-.21.78,0,0,0,0,0,0l1.03,1.79c.08.13.2.23.35.27.15.04.3.02.43-.06l.68-.39c.07-.04.15-.06.23-.06ZM38.4,33.73c-1.36,0-2.64-.53-3.61-1.49-.96-.96-1.49-2.24-1.49-3.61,0-1.36.53-2.64,1.49-3.61.96-.96,2.25-1.49,3.61-1.5h0c1.36,0,2.64.53,3.61,1.49.96.96,1.49,2.24,1.49,3.61,0,2.81-2.29,5.1-5.1,5.1h0ZM38.4,33.27h0,0ZM38.4,24.44h0c-2.31,0-4.19,1.88-4.19,4.19,0,1.12.44,2.17,1.23,2.96.79.79,1.84,1.23,2.96,1.23h0c2.31,0,4.19-1.88,4.19-4.19,0-1.12-.44-2.17-1.23-2.96-.79-.79-1.84-1.23-2.96-1.23Z" fill="#1d1e1e" stroke-width="0"/>
  <path d="M5.93,29.71c.36.36.95.36,1.31,0h0s1.8-1.8,1.8-1.8c1.33.9,2.84,1.52,4.42,1.83v2.55c0,.51.41.93.93.93h2.79c.51,0,.93-.41.93-.93h0v-2.55c1.58-.31,3.08-.93,4.42-1.83l1.8,1.8c.36.36.95.36,1.31,0h0s1.97-1.97,1.97-1.97c.36-.36.36-.95,0-1.31h0s-1.8-1.8-1.8-1.8c.9-1.33,1.52-2.84,1.83-4.42h2.55c.51,0,.93-.41.93-.93v-2.79c0-.51-.41-.93-.93-.93h-2.55c-.31-1.58-.93-3.08-1.83-4.42l1.8-1.8c.36-.36.36-.95,0-1.31h0s-.99-.99-.99-.99L4.94,28.73l.99.98Z" fill="#f1eaf3" stroke-width="0"/>
  <path d="M15.78,24.86c-3.85.04-7-3.05-7.04-6.9-.04-3.85,3.05-7,6.9-7.04.05,0,.09,0,.14,0,3.85.04,6.94,3.18,6.9,7.03-.04,3.79-3.1,6.86-6.9,6.9h0Z" fill="#f1eaf3" stroke-width="0"/>
  <path d="M15.71,25.32c-1.95,0-3.8-.75-5.2-2.12-1.42-1.39-2.21-3.25-2.23-5.23-.04-4.09,3.26-7.46,7.35-7.5h.14c4.09.04,7.39,3.4,7.36,7.49-.04,4.01-3.34,7.31-7.35,7.35h0s-.05,0-.08,0ZM15.78,11.38h-.13c-3.59.04-6.48,2.98-6.44,6.57.02,1.74.71,3.37,1.95,4.58,1.24,1.22,2.89,1.87,4.62,1.86,3.52-.04,6.41-2.93,6.44-6.45.03-3.59-2.86-6.54-6.45-6.57Z" fill="#1d1e1e" stroke-width="0"/>
  <path d="M17.18,33.67h-2.79c-.76,0-1.38-.62-1.38-1.38v-2.17c-1.39-.31-2.69-.86-3.9-1.61l-1.54,1.54c-.55.54-1.42.54-1.96,0l-1.97-1.97c-.27-.27-.41-.61-.41-.98,0-.37.15-.72.41-.98l1.54-1.54c-.76-1.2-1.3-2.51-1.62-3.9H1.38c-.76,0-1.38-.62-1.38-1.38v-2.79c0-.76.62-1.38,1.38-1.38h2.17c.31-1.39.86-2.7,1.61-3.9l-1.53-1.53s0,0-.01-.01c-.54-.54-.54-1.42,0-1.96l1.97-1.97c.27-.26.62-.39.98-.41.37,0,.72.15.98.41l1.54,1.54c1.2-.76,2.51-1.3,3.9-1.61v-2.18c0-.76.62-1.38,1.38-1.38h2.79c.76,0,1.38.62,1.38,1.38v2.18c1.39.31,2.69.85,3.9,1.61l1.54-1.54c.55-.54,1.42-.54,1.96,0l1.97,1.97c.54.54.54,1.42,0,1.96l-1.54,1.54c.76,1.2,1.3,2.51,1.62,3.9h2.17c.76,0,1.38.62,1.38,1.38v2.79c0,.76-.62,1.38-1.38,1.38h-2.17c-.31,1.39-.86,2.69-1.62,3.9l1.54,1.54c.27.27.41.62.41.99s-.15.72-.41.98l-1.97,1.97c-.55.54-1.42.54-1.96,0l-1.54-1.54c-1.2.76-2.51,1.3-3.9,1.61v2.17c0,.76-.62,1.38-1.38,1.38ZM9.04,27.45c.09,0,.18.03.26.08,1.29.87,2.72,1.46,4.25,1.76.22.04.37.23.37.45v2.55c0,.26.21.47.47.47h2.79c.26,0,.47-.21.47-.47v-2.54c0-.22.16-.41.37-.45,1.53-.3,2.96-.89,4.25-1.76.18-.12.43-.1.58.06l1.8,1.8c.18.18.48.18.66,0l1.98-1.97c.09-.09.14-.21.14-.33,0-.12-.05-.24-.14-.33l-1.8-1.8c-.15-.15-.18-.4-.06-.58.87-1.29,1.46-2.72,1.76-4.25.04-.22.23-.37.45-.37h2.55c.26,0,.47-.21.47-.47v-2.79c0-.26-.21-.47-.47-.47h-2.55c-.22,0-.41-.16-.45-.37-.3-1.53-.89-2.96-1.76-4.25-.12-.18-.1-.42.06-.58l1.8-1.8c.18-.18.18-.48,0-.67l-1.97-1.97c-.18-.18-.48-.19-.66,0l-1.8,1.8c-.15.16-.4.18-.58.06-1.29-.87-2.72-1.46-4.25-1.76-.22-.04-.37-.23-.37-.45v-2.55c0-.26-.21-.47-.47-.47h-2.79c-.26,0-.47.21-.47.47v2.55c0,.22-.16.41-.37.45-1.53.3-2.96.89-4.25,1.76-.18.12-.42.1-.58-.06l-1.8-1.8c-.09-.09-.21-.14-.33-.14h0c-.12,0-.24.05-.33.14l-1.97,1.97c-.18.18-.18.47,0,.66,0,0,0,0,0,0l1.8,1.8c.15.15.18.4.06.58-.87,1.29-1.46,2.72-1.76,4.25-.04.22-.23.37-.45.37H1.38c-.26,0-.47.21-.47.47v2.79c0,.26.21.47.47.47h2.55c.22,0,.41.16.45.37.3,1.53.89,2.96,1.76,4.25.12.18.1.42-.06.58l-1.8,1.8c-.09.09-.14.21-.14.33s.05.24.14.33l1.97,1.97c.18.18.48.18.66,0l1.8-1.8c.09-.09.21-.13.32-.13Z" fill="#1d1e1e" stroke-width="0"/>
</svg>