<?xml version="1.0" encoding="UTF-8"?>
<svg id="Layer_1" data-name="Layer 1" xmlns="http://www.w3.org/2000/svg" viewBox="0 0 48 48">
  <path d="M24.01,40.45c3.95,0,7.82-1.17,11.12-3.37,3.29-2.2,5.85-5.32,7.37-8.98,1.51-3.66,1.9-7.68,1.13-11.56-.77-3.89-2.67-7.45-5.48-10.25-2.8-2.8-6.36-4.71-10.25-5.48s-7.91-.38-11.57,1.14c-3.65,1.51-6.78,4.08-8.98,7.37-2.2,3.29-3.37,7.16-3.37,11.12,0,5.31,2.11,10.4,5.86,14.15,3.77,3.75,8.85,5.86,14.16,5.86ZM24.01,32.95c-2.01,0-3.98-.52-5.75-1.45l16.8-16.79c1.02,1.9,1.51,4.03,1.45,6.18-.07,2.15-.68,4.25-1.8,6.09-1.11,1.84-2.69,3.36-4.56,4.4-1.88,1.05-4,1.59-6.15,1.57ZM24.01,7.93c2,0,3.97.52,5.74,1.45L12.96,26.18c-.95-1.77-1.44-3.74-1.45-5.74,0-3.32,1.32-6.5,3.67-8.84,2.34-2.34,5.53-3.66,8.84-3.66h0Z" fill="#702f8a" stroke-width="0"/>
  <path d="M3.97,20.39c0-2.62.53-5.24,1.52-7.67,1.03-2.43,2.47-4.63,4.37-6.49,1.9-1.86,4.06-3.34,6.49-4.37,2.43-1.03,5.05-1.52,7.67-1.52s5.24.53,7.67,1.52c2.43,1.03,4.63,2.47,6.49,4.37,1.86,1.9,3.34,4.06,4.37,6.49,1.03,2.43,1.52,5.05,1.52,7.67,0,2.62-.53,5.24-1.52,7.67-1.03,2.43-2.47,4.63-4.37,6.49-1.9,1.86-4.06,3.34-6.49,4.37-2.43,1.03-5.05,1.52-7.67,1.52s-5.24-.53-7.67-1.52c-2.43-1.03-4.63-2.47-6.49-4.37-1.86-1.9-3.34-4.06-4.37-6.49-1.03-2.43-1.52-5.05-1.52-7.67Z" fill="#9c59b2" stroke-width="0"/>
  <path d="M10.04,6c-1.94,1.86-3.46,4.06-4.48,6.53-1.06,2.47-1.6,5.09-1.63,7.75,0,2.66.49,5.32,1.52,7.79,1.03,2.47,2.51,4.71,4.41,6.57,1.9,1.86,4.14,3.38,6.61,4.37,2.47.99,5.13,1.48,7.79,1.44,2.66-.04,5.32-.61,7.75-1.67,2.43-1.06,4.67-2.62,6.49-4.56L10.01,5.96l.04.04Z" fill="#702f8a" stroke-width="0"/>
  <path d="M24.01,32.95c-2.01,0-3.98-.52-5.75-1.45l16.8-16.79c1.02,1.9,1.51,4.03,1.45,6.18-.07,2.15-.68,4.25-1.8,6.09-1.11,1.84-2.69,3.36-4.56,4.4-1.88,1.05-4,1.59-6.15,1.57Z" fill="#fff" stroke-width="0"/>
  <path d="M24.01,7.93c2,0,3.97.52,5.74,1.45L12.96,26.18c-.95-1.77-1.44-3.74-1.45-5.74,0-3.32,1.32-6.5,3.67-8.84,2.34-2.34,5.53-3.66,8.84-3.66h0Z" fill="#fff" stroke-width="0"/>
  <path d="M23.98,0c1.34,0,2.68.13,4.01.4,3.98.79,7.61,2.73,10.49,5.61,2.88,2.88,4.82,6.51,5.61,10.49.79,3.99.39,8.09-1.16,11.84-1.56,3.76-4.18,6.94-7.56,9.2-3.39,2.26-7.33,3.46-11.38,3.46h0c-5.48,0-10.62-2.14-14.5-6-3.88-3.87-6-9.02-6-14.5,0-4.06,1.19-7.99,3.46-11.39,2.26-3.38,5.45-5.99,9.2-7.55C18.66.53,21.32,0,23.99,0h0ZM24,40.02c3.87,0,7.61-1.14,10.85-3.29,3.21-2.15,5.7-5.18,7.19-8.77,1.47-3.57,1.86-7.48,1.11-11.28-.75-3.8-2.6-7.25-5.34-10-2.74-2.74-6.2-4.59-10-5.34-3.8-.75-7.7-.37-11.28,1.11-3.58,1.48-6.61,3.97-8.77,7.19-2.15,3.23-3.29,6.98-3.29,10.85,0,5.21,2.03,10.12,5.72,13.8,3.69,3.69,8.59,5.72,13.8,5.72h0ZM24,7.51h0c2.07,0,4.13.54,5.96,1.51.14.07.23.2.25.36s-.03.3-.14.42L13.28,26.59c-.11.11-.26.16-.42.14-.16-.02-.28-.12-.36-.25-.98-1.83-1.49-3.89-1.51-5.96,0-3.48,1.36-6.74,3.81-9.2,2.45-2.45,5.72-3.81,9.2-3.81h0ZM28.91,9.59c-1.54-.71-3.22-1.09-4.92-1.1-3.21,0-6.23,1.25-8.5,3.52-2.27,2.27-3.52,5.29-3.52,8.5,0,1.7.39,3.39,1.1,4.92l15.83-15.83h0ZM35.04,14.27h.07c.16.02.28.12.36.25,1.05,1.96,1.57,4.18,1.51,6.42-.07,2.24-.71,4.42-1.86,6.33-1.15,1.9-2.79,3.48-4.74,4.58-1.95,1.09-4.13,1.66-6.38,1.64-2.08,0-4.14-.54-5.97-1.51-.14-.07-.23-.21-.25-.36s.03-.31.14-.42l16.79-16.79c.09-.09.21-.15.34-.15h0ZM24.09,32.52c2.03,0,4.04-.53,5.82-1.51,1.8-1.01,3.32-2.47,4.38-4.24,1.06-1.76,1.66-3.79,1.72-5.85.05-1.84-.33-3.68-1.1-5.34l-15.83,15.83c1.54.71,3.23,1.09,4.93,1.1h.09Z" fill="#1d1e1e" stroke-width="0"/>
</svg>