<?xml version="1.0" encoding="UTF-8"?>
<svg id="Layer_1" data-name="Layer 1" xmlns="http://www.w3.org/2000/svg" viewBox="0 0 48 48">
  <path d="M15.31,20.87c.53-2.08,1.71-3.92,3.34-5.22,1.63-1.31,3.64-2.01,5.69-2,2.06,0,4.06.73,5.68,2.05,1.63,1.32,2.78,3.17,3.31,5.26.23-.86.35-1.75.35-2.66,0-2.6-.99-5.1-2.74-6.94-1.75-1.84-4.15-2.87-6.62-2.87s-4.87,1.04-6.62,2.87c-1.75,1.84-2.74,4.34-2.74,6.94,0,.88.11,1.75.34,2.59" fill="#fff" stroke-width="0"/>
  <path d="M33.7,18c0-2.53-.99-4.95-2.74-6.74-1.76-1.79-4.15-2.79-6.63-2.79s-4.88,1.01-6.63,2.79c-1.76,1.79-2.74,4.21-2.74,6.74,0,2.25.79,4.43,2.24,6.13,1.74,2.06,2.7,4.69,2.7,7.4h8.89c0-2.72.96-5.34,2.7-7.4,1.45-1.71,2.24-3.88,2.24-6.13h0Z" fill="#fff" stroke-width="0"/>
  <path d="M23.95,31.2c-.26,0-.47-.21-.47-.47v-6.21c0-.21-.07-.41-.19-.57l-1.54-1.96c-.14-.17-.22-.38-.24-.59-.02-.22,0-.43.1-.63.1-.19.24-.36.42-.48.19-.12.39-.18.61-.19h2.76c.23,0,.42.06.6.17.18.1.32.27.43.45.1.19.14.39.14.6,0,.21-.08.41-.19.59l-.65,1c-.14.22-.43.27-.65.14-.22-.14-.27-.43-.14-.65l.66-1s.04-.07.04-.12c0-.04,0-.08-.02-.12-.02-.03-.05-.06-.08-.08s-.1-.02-.1-.03h-2.76s-.08,0-.11.03c-.03.02-.06.06-.08.09-.02.04-.02.08-.02.12s.02.08.05.12l1.54,1.96c.26.33.4.74.4,1.15v6.21c0,.26-.21.47-.47.47h-.02Z" fill="#1d1e1e" stroke-width="0"/>
  <path d="M15.31,20.5c.53-2.02,1.71-3.8,3.35-5.07,1.63-1.27,3.64-1.96,5.7-1.95,2.06,0,4.06.71,5.68,1.99,1.63,1.28,2.79,3.07,3.31,5.09.23-.84.35-1.71.35-2.58,0-2.53-.99-4.95-2.74-6.74-1.76-1.79-4.15-2.79-6.63-2.79s-4.88,1.01-6.63,2.79c-1.76,1.79-2.74,4.21-2.74,6.74,0,.85.11,1.7.34,2.51" fill="#f1eaf3" stroke-width="0"/>
  <path d="M27.78,34.36h-6.91v2.62c0,.47.08.93.25,1.36.17.43.43.82.75,1.16.32.33.71.6,1.13.77.42.18.88.27,1.34.27s.91-.09,1.34-.27c.42-.18.8-.44,1.13-.77s.57-.72.75-1.16c.17-.43.26-.89.25-1.36v-2.62h0Z" fill="#702f8a" stroke-width="0"/>
  <path d="M24.32,41c-.52,0-1.03-.1-1.51-.31-.48-.2-.92-.5-1.28-.88-.37-.38-.65-.82-.85-1.31s-.29-1.01-.28-1.54v-2.61c0-.26.21-.47.47-.47h6.91c.26,0,.47.21.47.47v2.62c0,.52-.09,1.04-.28,1.53s-.47.93-.85,1.31-.8.68-1.28.88c-.48.21-.99.31-1.51.31h0ZM21.34,34.83v2.14c0,.41.06.81.22,1.18.15.38.37.72.64,1,.28.29.6.52.97.67.73.31,1.57.31,2.3,0,.37-.15.69-.38.97-.67.28-.29.5-.63.64-1,.15-.38.23-.77.22-1.18v-2.15h-5.97Z" fill="#1d1e1e" stroke-width="0"/>
  <path d="M28.77,32h-8.89c-.26,0-.47-.21-.47-.47,0-2.61-.92-5.13-2.59-7.11-1.51-1.79-2.35-4.07-2.35-6.43,0-2.66,1.02-5.18,2.88-7.07,1.86-1.89,4.34-2.93,6.97-2.93s5.1,1.04,6.97,2.93c1.86,1.89,2.88,4.39,2.88,7.07h0c0,2.36-.83,4.64-2.35,6.43-1.67,1.97-2.58,4.5-2.59,7.11,0,.26-.21.47-.47.47ZM20.34,31.06h7.97c.1-2.66,1.09-5.22,2.8-7.24,1.38-1.62,2.13-3.69,2.12-5.83h0c0-2.42-.93-4.69-2.62-6.41-1.68-1.71-3.92-2.65-6.3-2.65s-4.62.94-6.3,2.65c-1.68,1.71-2.62,3.98-2.62,6.41,0,2.14.75,4.21,2.12,5.83,1.71,2.03,2.7,4.59,2.8,7.24h.02ZM34.17,18" fill="#1d1e1e" stroke-width="0"/>
  <path d="M30.08,32.56c0,.47-.19.93-.52,1.27-.33.34-.78.52-1.26.52h-7.97c-.47,0-.92-.19-1.26-.52-.33-.34-.52-.8-.52-1.27s.19-.93.52-1.27.78-.52,1.26-.52h7.97c.47,0,.92.19,1.26.52.33.34.52.8.52,1.27Z" fill="#702f8a" stroke-width="0"/>
  <path d="M28.31,34.83h-7.97c-.59,0-1.17-.24-1.59-.67-.42-.43-.65-1-.65-1.6s.24-1.18.65-1.6c.42-.43.99-.67,1.59-.67h7.97c.6,0,1.17.24,1.59.67.42.42.65,1.01.65,1.6s-.23,1.18-.65,1.6c-.42.43-1,.67-1.59.67ZM20.34,31.23c-.35,0-.68.14-.92.39s-.39.59-.39.94.14.69.39.94c.24.25.58.39.92.39h7.97c.34,0,.68-.14.92-.39.25-.25.39-.59.39-.94s-.14-.69-.39-.94c-.24-.25-.57-.39-.92-.39h-7.97Z" fill="#1d1e1e" stroke-width="0"/>
  <path d="M18.56,32.56c0-.23.05-.47.14-.69.09-.22.22-.42.39-.59.16-.17.36-.3.57-.39.22-.09.44-.14.68-.14h7.97c.47,0,.92.19,1.26.52.33.34.52.8.52,1.27h-11.51,0Z" fill="#9c59b2" stroke-width="0"/>
  <path d="M28.31,34.83h-7.97c-.59,0-1.17-.24-1.59-.67-.42-.43-.65-1-.65-1.6s.24-1.18.65-1.6c.42-.43.99-.67,1.59-.67h7.97c.6,0,1.17.24,1.59.67.42.42.65,1.01.65,1.6s-.23,1.18-.65,1.6c-.42.43-1,.67-1.59.67ZM20.34,31.23c-.35,0-.68.14-.92.39s-.39.59-.39.94.14.69.39.94c.24.25.58.39.92.39h7.97c.34,0,.68-.14.92-.39.25-.25.39-.59.39-.94s-.14-.69-.39-.94c-.24-.25-.57-.39-.92-.39h-7.97Z" fill="#1d1e1e" stroke-width="0"/>
  <path d="M21.31,38.68l6.43-1.14-6.43,1.14Z" fill="#1d1e1e" stroke-width="0"/>
  <path d="M21.31,39.16c-.23,0-.42-.16-.46-.39-.05-.26.13-.5.38-.55l6.43-1.14c.25-.04.5.12.55.38s-.13.5-.38.55l-6.43,1.14h-.09Z" fill="#1d1e1e" stroke-width="0"/>
  <path d="M20.86,34.36h6.91v1.21h-6.91v-1.21Z" fill="#9c59b2" stroke-width="0"/>
  <path d="M24.32,41c-.52,0-1.03-.1-1.51-.31-.48-.2-.92-.5-1.28-.88-.37-.38-.65-.82-.85-1.31s-.29-1.01-.28-1.54v-2.61c0-.26.21-.47.47-.47h6.91c.26,0,.47.21.47.47v2.62c0,.52-.09,1.04-.28,1.53s-.47.93-.85,1.31-.8.68-1.28.88c-.48.21-.99.31-1.51.31h0ZM21.34,34.83v2.14c0,.41.06.81.22,1.18.15.38.37.72.64,1,.28.29.6.52.97.67.73.31,1.57.31,2.3,0,.37-.15.69-.38.97-.67.28-.29.5-.63.64-1,.15-.38.23-.77.22-1.18v-2.15h-5.97Z" fill="#1d1e1e" stroke-width="0"/>
  <path d="M20.86,36.95l6.91-1.22-6.91,1.22Z" fill="#1d1e1e" stroke-width="0"/>
  <path d="M20.86,37.43c-.23,0-.42-.16-.46-.39-.05-.26.13-.5.38-.55l6.91-1.22c.25-.04.5.12.55.38s-.13.5-.38.55l-6.91,1.22h-.09Z" fill="#1d1e1e" stroke-width="0"/>
  <path d="M24.29,5.14c-.61,0-1.42-2.03-1.42-3.23,0-.79.64-1.42,1.42-1.42s1.42.64,1.42,1.42c0,1.2-.81,3.23-1.42,3.23Z" fill="#702f8a" stroke-width="0"/>
  <path d="M24.29,5.62c-1.15,0-1.91-2.64-1.91-3.71s.86-1.91,1.91-1.91,1.91.86,1.91,1.91-.76,3.71-1.91,3.71ZM24.29.97c-.52,0-.94.42-.94.94,0,1.04.61,2.43.94,2.71.33-.29.94-1.67.94-2.71,0-.52-.42-.94-.94-.94Z" fill="#1d1e1e" stroke-width="0"/>
  <path d="M17.03,7.16c-.73,0-2.19-1.14-2.74-1.99-.42-.66-.23-1.54.44-1.97.65-.42,1.52-.23,1.95.41.65,1,1.08,3.15.57,3.48-.06.04-.14.06-.21.05Z" fill="#702f8a" stroke-width="0"/>
  <path d="M17.05,7.65s-.02,0-.03,0c-1,0-2.56-1.32-3.14-2.21-.28-.43-.37-.94-.26-1.44s.41-.92.84-1.2c.87-.56,2.05-.31,2.62.56.35.53.65,1.37.79,2.18.18,1.04.06,1.7-.37,1.98-.15.09-.3.13-.46.13ZM16.94,6.75h0ZM15.49,3.48c-.17,0-.35.05-.5.15-.21.13-.36.34-.41.59-.05.24-.01.5.12.71.51.78,1.75,1.68,2.26,1.76.11-.43-.13-1.91-.69-2.78-.18-.27-.48-.42-.78-.42Z" fill="#1d1e1e" stroke-width="0"/>
  <path d="M11.06,12.99c-.75,0-1.49-.13-2.18-.4-.72-.32-1.04-1.16-.72-1.88s1.16-1.04,1.88-.72c.64.32,1.21.76,1.7,1.29.53.57.79,1.08.68,1.33-.11.24-.62.39-1.35.39Z" fill="#702f8a" stroke-width="0"/>
  <path d="M11.03,13.48c-.8,0-1.58-.15-2.32-.43-.98-.44-1.42-1.57-.99-2.53.43-.96,1.56-1.4,2.52-.97.72.36,1.33.83,1.86,1.4.49.52,1.02,1.27.76,1.85-.25.56-1.11.67-1.79.67-.01,0-.03,0-.04,0ZM9.46,10.35c-.35,0-.7.21-.86.56-.21.47,0,1.03.48,1.24.62.24,1.28.36,1.98.36h0c.47,0,.74-.07.87-.12-.05-.13-.2-.4-.55-.78-.45-.49-.97-.89-1.56-1.18-.12-.05-.24-.08-.36-.08Z" fill="#1d1e1e" stroke-width="0"/>
  <path d="M36.77,12.66c-.59,0-1-.12-1.11-.32-.28-.55,1.16-2.19,2.23-2.74.7-.36,1.56-.08,1.92.62.36.7.08,1.56-.62,1.92-.76.34-1.58.51-2.42.52Z" fill="#702f8a" stroke-width="0"/>
  <path d="M36.77,13.15h0c-.82,0-1.34-.2-1.54-.59-.52-1.02,1.49-2.9,2.44-3.38.94-.48,2.09-.1,2.57.83.48.94.1,2.09-.84,2.57-.85.38-1.73.57-2.64.57h0ZM36.12,12.1c.1.04.3.08.64.08.77,0,1.52-.16,2.22-.48.44-.22.62-.79.39-1.25-.23-.46-.8-.65-1.26-.41-.92.47-1.87,1.63-1.99,2.06Z" fill="#1d1e1e" stroke-width="0"/>
  <path d="M30.88,7c-.06,0-.13-.01-.18-.04-.24-.14-.33-.7-.24-1.47.08-.71.29-1.4.62-2.04.26-.44.73-.71,1.24-.71.79,0,1.42.64,1.42,1.43,0,.25-.07.49-.19.71-.51.89-1.95,2.13-2.67,2.13Z" fill="#702f8a" stroke-width="0"/>
  <path d="M30.87,7.48c-.14,0-.27-.03-.39-.1-.56-.32-.58-1.24-.49-1.96.09-.77.31-1.51.67-2.2.35-.61.99-.97,1.67-.97h0c1.05,0,1.91.86,1.91,1.91,0,.33-.09.66-.25.95-.54.93-2.1,2.36-3.08,2.37,0,0-.01,0-.02,0ZM31,6.58h0ZM32.32,3.23c-.33,0-.65.18-.82.47-.29.56-.48,1.19-.55,1.85-.06.52-.02.83.02.96.51-.11,1.7-1.07,2.16-1.87.08-.14.12-.3.12-.47,0-.52-.42-.94-.94-.94h0Z" fill="#1d1e1e" stroke-width="0"/>
</svg>