<?xml version="1.0" encoding="UTF-8"?>
<svg id="Layer_1" data-name="Layer 1" xmlns="http://www.w3.org/2000/svg" viewBox="0 0 48 48">
  <path d="M6.91,6.02h35.03v33.38H6.91V6.02Z" fill="#fff" stroke-width="0"/>
  <path d="M41.93,39.7H6.91c-.31,0-.56-.26-.56-.56V5.76c0-.31.26-.56.56-.56h35.03c.31,0,.56.26.56.56v33.38c0,.31-.26.56-.56.56ZM7.47,38.58h33.9V6.32H7.47v32.26Z" fill="#1d1e1e" stroke-width="0"/>
  <path d="M13.94,23.94c0,2.81,1.1,5.51,3.07,7.5,1.96,1.99,4.64,3.1,7.42,3.1s5.44-1.12,7.42-3.1c1.96-1.99,3.07-4.69,3.07-7.5s-1.1-5.51-3.07-7.5c-1.96-1.99-4.64-3.1-7.42-3.1s-5.44,1.12-7.42,3.1c-1.96,1.99-3.07,4.69-3.07,7.5h0Z" fill="#f1eaf3" stroke-width="0"/>
  <path d="M14.15,26.01c-.3-1.53-.27-3.12.11-4.64.37-1.52,1.08-2.94,2.05-4.15.98-1.21,2.21-2.19,3.6-2.86,1.39-.68,2.92-1.02,4.47-1.03,1.54,0,3.07.33,4.48.99,1.4.66,2.64,1.63,3.62,2.83.99,1.21,1.7,2.61,2.09,4.13.38,1.51.44,3.09.15,4.64-.47-2.42-1.76-4.6-3.64-6.16-1.89-1.56-4.24-2.42-6.68-2.41-2.44,0-4.79.88-6.66,2.46-1.88,1.58-3.14,3.77-3.59,6.2" fill="#fff" stroke-width="0"/>
  <path d="M24.42,35.17c-2.97,0-5.75-1.17-7.85-3.29-2.09-2.12-3.25-4.94-3.25-7.94s1.15-5.81,3.25-7.94c2.09-2.12,4.88-3.29,7.85-3.29s5.75,1.17,7.85,3.29c2.09,2.12,3.25,4.94,3.25,7.94s-1.15,5.81-3.25,7.94c-2.09,2.12-4.88,3.29-7.85,3.29ZM24.42,13.95c-2.63,0-5.11,1.04-6.97,2.93-1.87,1.89-2.9,4.4-2.9,7.07s1.03,5.19,2.9,7.07c1.87,1.89,4.34,2.93,6.97,2.93s5.12-1.04,6.97-2.93c1.87-1.89,2.9-4.4,2.9-7.07s-1.03-5.19-2.9-7.07c-1.87-1.89-4.34-2.93-6.97-2.93Z" fill="#1d1e1e" stroke-width="0"/>
  <path d="M22.3,29.17c-.2,0-.4-.04-.58-.12-.19-.08-.35-.2-.49-.33l-3.05-3.08c-.28-.29-.43-.68-.43-1.09s.17-.8.45-1.08c.28-.28.67-.45,1.06-.45s.79.15,1.07.43l1.97,1.99,6.22-6.3c.29-.27.67-.41,1.06-.4.39,0,.77.17,1.04.45.28.28.44.66.44,1.06s-.14.79-.4,1.08l-7.29,7.39c-.14.15-.31.26-.49.33-.19.08-.38.12-.58.12Z" fill="#702f8a" stroke-width="0"/>
  <path d="M22.3,29.78c-.28,0-.56-.06-.83-.17-.26-.11-.49-.27-.7-.47l-3.05-3.08c-.4-.42-.61-.95-.6-1.52,0-.57.23-1.1.62-1.5.4-.4.93-.63,1.49-.64h.02c.56,0,1.09.22,1.48.61l1.54,1.56,5.78-5.85c.43-.39.96-.6,1.51-.59.55,0,1.07.24,1.46.64.39.39.61.91.62,1.47,0,.56-.19,1.09-.56,1.5l-7.31,7.41c-.2.2-.43.36-.7.47-.26.11-.54.17-.82.17h.03ZM19.26,23.62h0c-.24,0-.46.1-.64.28s-.27.4-.27.66.09.48.26.66l3.04,3.08c.09.09.19.16.29.2.23.1.47.09.7,0,.11-.05.22-.12.29-.2l7.3-7.39c.15-.16.23-.39.23-.64s-.1-.47-.27-.64-.39-.27-.62-.28-.46.08-.64.24l-6.2,6.28c-.23.24-.64.24-.87,0l-1.97-1.99c-.17-.16-.38-.26-.63-.26h0Z" fill="#1d1e1e" stroke-width="0"/>
  <rect x="6.91" y="36.28" width="35.03" height="2.3" fill="#f1eaf3" stroke-width="0"/>
  <path d="M41.94,39.7H6.92c-.31,0-.56-.26-.56-.56V5.76c0-.31.26-.56.56-.56h35.03c.31,0,.56.26.56.56v33.38c0,.31-.26.56-.56.56ZM7.48,38.58h33.9V6.32H7.48v32.26Z" fill="#1d1e1e" stroke-width="0"/>
  <rect x="12.12" y="1.18" width="3.03" height="7.66" rx="1.51" ry="1.51" fill="#702f8a" stroke-width="0"/>
  <path d="M13.62,1.19c-.21,0-.4.04-.59.12-.19.08-.35.2-.5.33-.15.15-.26.31-.33.51-.08.19-.12.39-.12.6v2.6c0-.21.03-.41.11-.61s.19-.37.33-.52c.15-.15.31-.27.51-.35.19-.08.39-.12.6-.12s.41.04.6.12.36.2.51.35c.15.15.26.32.33.52s.11.4.11.61v-2.6c0-.21-.04-.41-.12-.6-.08-.19-.19-.36-.33-.51-.15-.15-.31-.26-.5-.34-.19-.08-.38-.12-.59-.12h-.02Z" fill="#9c59b2" stroke-width="0"/>
  <path d="M13.63,9.31c-1.1,0-1.99-.89-1.99-1.99V2.69c0-1.1.89-1.99,1.99-1.99s1.99.89,1.99,1.99v4.63c0,1.1-.89,1.99-1.99,1.99ZM13.63,1.65c-.57,0-1.04.47-1.04,1.04v4.63c0,.57.47,1.04,1.04,1.04s1.04-.47,1.04-1.04V2.69c0-.57-.47-1.04-1.04-1.04Z" fill="#1d1e1e" stroke-width="0"/>
  <rect x="19.36" y="1.18" width="3.03" height="7.66" rx="1.51" ry="1.51" fill="#702f8a" stroke-width="0"/>
  <path d="M20.86,1.19c-.21,0-.4.04-.59.12-.19.08-.35.2-.5.33-.15.15-.26.31-.33.51-.08.19-.12.39-.12.6v2.6c0-.21.03-.41.11-.61s.19-.37.33-.52c.15-.15.31-.27.51-.35.19-.08.39-.12.6-.12s.41.04.6.12.36.2.51.35c.15.15.26.32.33.52s.11.4.11.61v-2.6c0-.21-.04-.41-.12-.6-.08-.19-.19-.36-.33-.51-.15-.15-.31-.26-.5-.34-.19-.08-.38-.12-.59-.12h-.02Z" fill="#9c59b2" stroke-width="0"/>
  <path d="M20.87,9.31c-1.1,0-1.99-.89-1.99-1.99V2.69c0-1.1.89-1.99,1.99-1.99s1.99.89,1.99,1.99v4.63c0,1.1-.89,1.99-1.99,1.99ZM20.87,1.65c-.57,0-1.04.47-1.04,1.04v4.63c0,.57.47,1.04,1.04,1.04s1.04-.47,1.04-1.04V2.69c0-.57-.47-1.04-1.04-1.04Z" fill="#1d1e1e" stroke-width="0"/>
  <rect x="26.55" y="1.18" width="3.03" height="7.66" rx="1.51" ry="1.51" fill="#702f8a" stroke-width="0"/>
  <path d="M28.05,1.19c-.21,0-.4.04-.59.12-.19.08-.35.2-.5.33-.15.15-.26.31-.33.51-.08.19-.12.39-.12.6v2.6c0-.21.03-.41.11-.61s.19-.37.33-.52c.15-.15.31-.27.51-.35.19-.08.39-.12.6-.12s.41.04.6.12.36.2.51.35c.15.15.26.32.33.52s.11.4.11.61v-2.6c0-.21-.04-.41-.12-.6-.08-.19-.19-.36-.33-.51-.15-.15-.31-.26-.5-.34-.19-.08-.38-.12-.59-.12h-.02Z" fill="#9c59b2" stroke-width="0"/>
  <path d="M28.06,9.31c-1.1,0-1.99-.89-1.99-1.99V2.69c0-1.1.89-1.99,1.99-1.99s1.99.89,1.99,1.99v4.63c0,1.1-.89,1.99-1.99,1.99ZM28.06,1.65c-.57,0-1.04.47-1.04,1.04v4.63c0,.57.47,1.04,1.04,1.04s1.04-.47,1.04-1.04V2.69c0-.57-.47-1.04-1.04-1.04Z" fill="#1d1e1e" stroke-width="0"/>
  <rect x="33.7" y="1.18" width="3.03" height="7.66" rx="1.51" ry="1.51" fill="#702f8a" stroke-width="0"/>
  <path d="M35.2,1.19c-.21,0-.4.04-.59.12-.19.08-.35.2-.5.33-.15.15-.26.31-.33.51-.08.19-.12.39-.12.6v2.6c0-.21.03-.41.11-.61s.19-.37.33-.52c.15-.15.31-.27.51-.35.19-.08.39-.12.6-.12s.41.04.6.12.36.2.51.35c.15.15.26.32.33.52s.11.4.11.61v-2.6c0-.21-.04-.41-.12-.6-.08-.19-.19-.36-.33-.51-.15-.15-.31-.26-.5-.34-.19-.08-.38-.12-.59-.12h-.02Z" fill="#9c59b2" stroke-width="0"/>
  <path d="M35.21,9.31c-1.1,0-1.99-.89-1.99-1.99V2.69c0-1.1.89-1.99,1.99-1.99s1.99.89,1.99,1.99v4.63c0,1.1-.89,1.99-1.99,1.99ZM35.21,1.65c-.57,0-1.04.47-1.04,1.04v4.63c0,.57.47,1.04,1.04,1.04s1.04-.47,1.04-1.04V2.69c0-.57-.47-1.04-1.04-1.04Z" fill="#1d1e1e" stroke-width="0"/>
</svg>