<?xml version="1.0" encoding="UTF-8"?>
<svg id="Layer_1" data-name="Layer 1" xmlns="http://www.w3.org/2000/svg" viewBox="0 0 48 48">
  <path d="M9.26,39.5c0,.25.1.49.28.67.18.18.42.28.67.28h27.56c.25,0,.49-.1.67-.28.18-.18.28-.42.28-.67V8.62L30.64.55H10.21c-.12,0-.25.02-.36.07-.12.05-.22.12-.31.21s-.16.19-.21.31-.07.24-.07.36v38Z" fill="#fff" stroke-width="0"/>
  <path d="M30.64,0H10.21c-.19,0-.39.04-.57.11-.18.08-.34.18-.48.32-.14.14-.25.3-.33.49s-.11.38-.11.57v38.01c0,.4.16.78.44,1.06.28.28.66.44,1.06.44h27.56c.4,0,.77-.16,1.06-.44.28-.28.44-.66.44-1.06V8.62c0-.14-.06-.28-.16-.39L31.03.16c-.1-.1-.24-.16-.39-.16ZM10.21,39.91c-.11,0-.21-.04-.28-.12-.08-.08-.12-.18-.12-.29V1.5s.01-.11.03-.16c.02-.04.05-.09.09-.13s.08-.07.13-.09.1-.03.15-.03h20.21l7.76,7.76v30.66c0,.11-.04.21-.12.29-.08.08-.18.12-.29.12H10.21Z" fill="#1d1e1e" stroke-width="0"/>
  <path d="M30.63.55v7.18c0,.24.09.46.26.63s.39.26.63.26h7.19L30.63.55Z" fill="#009cde" stroke-width="0"/>
  <path d="M30.63,0c-.07,0-.14,0-.21.04-.2.08-.34.28-.34.5v7.19c0,.38.15.75.42,1.01s.64.42,1.01.42h7.19c.22,0,.42-.13.5-.34s.04-.44-.12-.59L31.01.16c-.1-.1-.24-.16-.39-.16h0ZM31.52,8.08c-.09,0-.18-.04-.24-.1s-.1-.15-.1-.24V1.86l6.21,6.21h-5.87Z" fill="#1d1e1e" stroke-width="0"/>
  <path d="M25.74,11.24h-11.53c-.3,0-.55.24-.55.55s.24.55.55.55h11.53c.3,0,.55-.24.55-.55s-.24-.55-.55-.55Z" fill="#1d1e1e" stroke-width="0"/>
  <path d="M33.73,16.56H14.21c-.3,0-.55.24-.55.55s.24.55.55.55h19.52c.3,0,.55-.24.55-.55s-.24-.55-.55-.55Z" fill="#1d1e1e" stroke-width="0"/>
  <path d="M33.73,21.89H14.21c-.3,0-.55.24-.55.55s.24.55.55.55h19.52c.3,0,.55-.24.55-.55s-.24-.55-.55-.55Z" fill="#1d1e1e" stroke-width="0"/>
  <path d="M33.65,27.64H14.5c-.3,0-.55.24-.55.55s.24.55.55.55h19.15c.3,0,.55-.24.55-.55s-.24-.55-.55-.55Z" fill="#1d1e1e" stroke-width="0"/>
  <path d="M33.65,32.68H14.5c-.3,0-.55.24-.55.55s.24.55.55.55h19.15c.3,0,.55-.24.55-.55s-.24-.55-.55-.55Z" fill="#1d1e1e" stroke-width="0"/>
</svg>