<?xml version="1.0" encoding="UTF-8"?>
<svg id="Layer_1" data-name="Layer 1" xmlns="http://www.w3.org/2000/svg" viewBox="0 0 48 48">
  <path d="M33.69,12.95v-3.99c0-.56-.22-1.11-.62-1.5s-.94-.62-1.5-.62h-15.12c-.56,0-1.11.22-1.5.62s-.62.94-.62,1.5v3.99c0,4.14,1.24,7.32,3.15,9.29,1.82,1.87,5.01,4.28,5.01,6.88v.54c0,3.16-4.08,1.8-4.08,4.7h11.21c0-2.8-4.08-1.53-4.08-4.7v-.54c0-2.6,3.19-5.01,5.01-6.88,1.91-1.97,3.15-5.15,3.15-9.29h-.02Z" fill="#e6f1fa" stroke-width="0"/>
  <path d="M33.69,11.69v-2.73c0-.56-.22-1.11-.62-1.5s-.94-.62-1.5-.62h-15.12c-.56,0-1.11.22-1.5.62s-.62.94-.62,1.5v2.73c1.06,4.79,4.99,6.96,9.69,6.96s8.63-2.17,9.69-6.96h-.02Z" fill="#fff" stroke-width="0"/>
  <path d="M35.81,24.38c0-.33-.1-.66-.33-.9-.22-.25-.53-.4-.86-.42-.6-.04-.8-.25-.78-.79.02-.6,1.02-1.53,2.83-3.04,2.12-1.77,4.54-3.77,4.64-6.38.02-.5-.06-1-.24-1.48-.18-.47-.44-.9-.79-1.27-.34-.37-.76-.67-1.21-.87-.46-.21-.95-.33-1.46-.34-.5-.02-1,.06-1.48.24-.47.18-.9.44-1.27.79-.37.34-.67.76-.87,1.21-.21.46-.33.95-.34,1.46,0,.33.1.66.33.9.22.25.53.4.86.42.17,0,.34,0,.5-.07s.31-.14.44-.26c.13-.11.23-.25.3-.41.07-.15.11-.32.12-.49,0-.17.04-.33.11-.49s.17-.29.29-.4c.12-.11.27-.2.42-.26.16-.06.32-.09.49-.08.34.02.65.16.88.41s.35.57.35.91c-.05,1.47-2.09,3.15-3.71,4.51-1.9,1.58-3.69,3.07-3.76,4.92-.04.43,0,.86.15,1.27s.35.79.64,1.11.64.58,1.03.76.82.28,1.25.29c.18.02.36,0,.53-.04s.33-.14.47-.25c.14-.12.25-.26.33-.42s.12-.34.13-.51v-.02Z" fill="#e6f1fa" stroke-width="0"/>
  <path d="M37.75,10.2c.86.05,1.68.4,2.3.97.64.58,1.06,1.35,1.21,2.19.03-.17.05-.35.05-.52.02-.5-.06-1-.24-1.48-.18-.47-.44-.9-.79-1.27-.34-.37-.75-.66-1.21-.87s-.95-.33-1.45-.34c-.5-.02-1,.06-1.48.24-.47.18-.9.44-1.27.79-.37.34-.67.75-.87,1.21-.21.46-.33.95-.34,1.45,0,.19.03.37.1.55.21-.88.72-1.66,1.45-2.18.73-.54,1.62-.8,2.52-.74h0Z" fill="#fff" stroke-width="0"/>
  <path d="M34.53,26.18c-.08,0-.16,0-.24-.02-.45,0-.94-.12-1.41-.33s-.87-.51-1.21-.89-.6-.82-.76-1.3c-.16-.49-.22-.99-.17-1.5.07-2.07,1.96-3.63,3.96-5.3,1.47-1.23,3.47-2.88,3.51-4.1,0-.19-.07-.37-.2-.51s-.31-.22-.5-.23c-.09,0-.18,0-.27.05-.09.03-.17.08-.24.15-.07.07-.13.14-.16.23-.04.09-.06.18-.06.27,0,.25-.07.49-.17.71-.11.22-.25.42-.43.58-.19.17-.4.29-.63.37s-.47.12-.72.1c-.48-.03-.92-.24-1.24-.6-.32-.36-.49-.82-.47-1.3.02-.58.15-1.14.39-1.66.24-.53.58-.99,1-1.39.42-.39.91-.7,1.46-.9.54-.2,1.11-.29,1.69-.27.58.02,1.14.15,1.67.39.53.24,1,.58,1.39,1,.39.42.7.91.9,1.46.2.54.29,1.11.27,1.69-.1,2.86-2.62,4.95-4.84,6.79-.72.6-2.61,2.17-2.63,2.63,0,.11,0,.17,0,.19,0,0,.08.02.25.03.48.03.92.24,1.24.6.32.36.49.82.47,1.3h0c0,.26-.07.51-.19.74-.11.23-.27.43-.47.6s-.42.29-.67.36c-.17.05-.34.07-.52.07v-.02ZM37.49,10.89h.07c.49.02.94.23,1.27.59s.51.82.5,1.31c-.06,1.72-2.1,3.41-3.9,4.91-1.82,1.51-3.52,2.92-3.57,4.52-.03.39,0,.74.12,1.08.11.34.29.65.53.91.24.27.52.48.85.63.32.15.67.23,1.03.24.16.02.26,0,.36-.02.1-.03.19-.08.26-.14.08-.07.14-.14.18-.24.05-.09.07-.19.07-.29,0-.19-.06-.37-.19-.51-.13-.14-.3-.22-.49-.23-.89-.06-1.33-.52-1.3-1.37.03-.82.96-1.73,3.03-3.45,2.04-1.7,4.35-3.61,4.44-5.98,0-.43-.05-.86-.21-1.26-.15-.4-.38-.77-.67-1.09-.29-.32-.64-.57-1.04-.75-.39-.18-.81-.28-1.24-.29-.42-.02-.86.05-1.26.2-.41.15-.77.38-1.09.67s-.57.64-.75,1.04c-.18.39-.28.81-.29,1.24,0,.19.06.37.18.51.13.14.3.22.49.23.09,0,.19,0,.28-.04.09-.03.17-.08.25-.15.07-.06.13-.14.17-.23.04-.09.06-.18.07-.28,0-.24.06-.47.16-.69.1-.22.24-.42.42-.58.18-.17.38-.29.61-.38.21-.08.42-.12.64-.12h.02Z" fill="#1d1e1e" stroke-width="0"/>
  <path d="M12.31,24.9c.08.16.19.3.33.42s.3.2.47.25.35.06.53.04c.43,0,.86-.11,1.25-.29s.74-.44,1.03-.76c.29-.32.51-.7.64-1.11.14-.41.19-.84.15-1.27-.06-1.85-1.86-3.34-3.76-4.92-1.63-1.36-3.66-3.04-3.71-4.51,0-.34.12-.66.35-.91.23-.25.55-.39.88-.41.17,0,.34.02.49.08.16.06.3.15.42.26s.22.25.29.4.11.32.11.49.05.34.12.49.18.29.3.41c.13.11.28.2.44.26s.33.08.5.07c.33-.02.64-.17.86-.42.22-.25.34-.57.33-.9-.02-.5-.13-1-.34-1.46-.21-.46-.51-.87-.87-1.21-.37-.34-.8-.61-1.27-.79-.47-.18-.97-.26-1.48-.24-.5.02-1,.13-1.46.34s-.87.51-1.21.87c-.34.37-.61.8-.79,1.27-.18.47-.26.97-.24,1.48.09,2.61,2.5,4.61,4.64,6.38,1.83,1.52,2.81,2.44,2.83,3.04.02.55-.18.76-.78.79-.33.02-.64.17-.86.42-.22.25-.34.57-.33.9,0,.18.05.35.13.51v.02Z" fill="#e6f1fa" stroke-width="0"/>
  <path d="M10.23,10.2c.9-.06,1.8.2,2.52.74.73.54,1.24,1.31,1.45,2.18.07-.17.11-.36.1-.55-.02-.5-.13-1-.34-1.45-.21-.46-.51-.87-.87-1.21-.37-.34-.8-.61-1.27-.79s-.97-.26-1.48-.24c-.5.02-1,.13-1.45.34-.46.21-.87.51-1.21.87-.34.37-.61.8-.79,1.27-.18.47-.26.97-.24,1.48,0,.18.02.35.05.52.14-.85.57-1.63,1.21-2.19.64-.58,1.46-.92,2.3-.97h0Z" fill="#fff" stroke-width="0"/>
  <path d="M12.95,26.1c-.25-.07-.47-.19-.67-.36s-.36-.37-.47-.6c-.11-.23-.18-.48-.19-.74h0c-.02-.48.15-.94.47-1.3.32-.36.76-.57,1.24-.6.16,0,.24-.03.25-.03,0-.02.02-.08,0-.19-.02-.46-1.92-2.04-2.63-2.63-2.21-1.85-4.74-3.93-4.84-6.79-.02-.58.07-1.15.27-1.69s.51-1.03.9-1.46c.39-.42.86-.76,1.39-1s1.09-.37,1.67-.39,1.15.07,1.69.27c.54.2,1.03.51,1.46.9.42.4.76.86,1,1.39.24.53.37,1.09.39,1.66.02.48-.15.94-.47,1.3-.32.36-.76.57-1.24.6-.24.02-.49-.02-.72-.1-.23-.08-.44-.21-.63-.37-.18-.16-.33-.36-.43-.58s-.16-.46-.17-.71c0-.09-.02-.19-.06-.27-.04-.09-.09-.16-.16-.23-.07-.06-.15-.11-.24-.15-.09-.03-.18-.05-.27-.05-.19,0-.37.09-.5.23s-.2.32-.2.51c.04,1.22,2.04,2.87,3.51,4.1,2,1.66,3.89,3.22,3.96,5.3.05.51,0,1.01-.17,1.5s-.42.92-.76,1.3-.75.68-1.21.89c-.46.21-.96.33-1.41.33-.08,0-.16.02-.24.02-.17,0-.35-.02-.52-.07v.02ZM11.13,11c.23.08.43.21.61.38.18.17.32.36.42.58s.15.46.16.69c0,.1.03.19.07.28s.1.17.17.23c.07.07.16.12.25.15.09.03.19.05.28.04.19,0,.36-.09.49-.23s.19-.32.18-.51c-.02-.43-.11-.85-.29-1.24-.18-.39-.43-.74-.75-1.04s-.68-.52-1.09-.67c-.4-.15-.84-.22-1.26-.2-.43.02-.85.11-1.24.29-.39.18-.74.43-1.04.75s-.52.68-.67,1.09-.22.83-.21,1.26c.09,2.36,2.39,4.28,4.44,5.98,2.08,1.73,3,2.63,3.03,3.45.03.85-.41,1.31-1.3,1.37-.19,0-.36.1-.49.23-.13.14-.19.32-.19.51,0,.1.03.2.07.29s.11.17.18.24c.08.07.17.11.26.14.1.03.2.04.36.02.36,0,.7-.09,1.03-.24.32-.15.61-.36.85-.63.24-.27.42-.57.53-.91.11-.34.15-.69.12-1.08-.06-1.6-1.76-3.01-3.57-4.52-1.8-1.5-3.84-3.19-3.9-4.91,0-.49.16-.95.5-1.31.33-.35.78-.56,1.27-.59h.07c.22,0,.43.04.64.12h.02Z" fill="#1d1e1e" stroke-width="0"/>
  <path d="M29.62,34.91h-11.21c-.31,0-.56-.25-.56-.56,0-1.79,1.29-2.31,2.31-2.73,1.13-.46,1.76-.78,1.76-1.97v-.54c0-1.87-2.03-3.79-3.66-5.34-.43-.41-.83-.79-1.19-1.16-2.13-2.19-3.31-5.64-3.31-9.68v-3.99c0-.72.28-1.39.79-1.9.51-.51,1.18-.79,1.9-.79h15.12c.72,0,1.39.28,1.9.79s.79,1.18.79,1.9v3.99c0,4.04-1.18,7.47-3.31,9.68-.36.37-.76.76-1.19,1.16-1.63,1.55-3.66,3.47-3.66,5.34v.54c0,1.21.65,1.54,1.79,2.01,1.02.43,2.28.96,2.28,2.68,0,.31-.25.56-.56.56h.02ZM19.04,33.8h9.94c-.19-.53-.71-.77-1.52-1.11-1.05-.44-2.47-1.04-2.47-3.03v-.54c0-2.33,2.21-4.45,4-6.15.42-.39.81-.77,1.16-1.13,1.94-2,2.99-5.15,2.99-8.9v-3.99c0-.41-.17-.82-.46-1.11-.3-.3-.69-.46-1.11-.46h-15.12c-.42,0-.81.16-1.11.46-.29.29-.46.7-.46,1.11v3.99c0,3.75,1.07,6.91,2.99,8.9.35.36.74.73,1.16,1.13,1.79,1.7,4.01,3.8,4.01,6.15v.54c0,2-1.42,2.57-2.45,2.99-.84.34-1.36.58-1.55,1.15Z" fill="#1d1e1e" stroke-width="0"/>
  <path d="M26.55,29.25c0,.27-.11.53-.3.72-.19.19-.45.3-.72.3h-3.06c-.27,0-.53-.11-.72-.3-.19-.19-.3-.45-.3-.72s.11-.53.3-.72c.19-.19.45-.3.72-.3h3.05c.13,0,.27.03.39.08.12.05.24.13.33.22.1.1.17.21.22.33.05.12.08.26.08.39h0Z" fill="#fff" stroke-width="0"/>
  <path d="M25.54,30.82h-3.06c-.42,0-.82-.16-1.12-.46-.29-.29-.46-.7-.46-1.12s.16-.82.46-1.12.7-.46,1.12-.46h3.05c.24,0,.41.04.61.12.19.08.37.2.51.34.15.15.26.32.34.51s.12.4.12.61c0,.41-.17.82-.46,1.11-.3.3-.69.46-1.11.46h0ZM25.54,28.79h-3.06c-.12,0-.24.05-.33.14s-.14.21-.14.33.05.24.14.33.2.14.33.14h3.06c.12,0,.24-.05.33-.14s.14-.2.14-.33h0c0-.06,0-.12-.03-.18s-.06-.11-.1-.15-.09-.08-.15-.1c-.06-.02-.12-.03-.18-.03h0Z" fill="#1d1e1e" stroke-width="0"/>
  <path d="M24.4,19.05l1.96,1.03s.1.03.14.03c.05,0,.1-.02.14-.05.04-.03.07-.07.09-.12.02-.04.02-.1.02-.15l-.38-2.18c-.02-.13-.01-.26.03-.39.04-.12.11-.24.21-.33l1.58-1.54s.06-.08.07-.12c.01-.05.01-.1,0-.15s-.04-.09-.08-.12c-.04-.03-.08-.05-.13-.06l-2.19-.32c-.13-.02-.26-.07-.36-.15s-.2-.18-.25-.3l-.98-1.98s-.06-.08-.1-.11c-.08-.05-.2-.05-.28,0-.04.03-.07.06-.1.11l-.98,1.98c-.06.12-.15.22-.25.3-.11.08-.24.13-.36.15l-2.19.32c-.05,0-.1.03-.13.06-.04.03-.07.07-.08.12s-.02.1,0,.15c.01.04.04.09.07.12l1.58,1.54c.1.09.17.21.21.33.04.12.05.26.03.39l-.38,2.18c-.01.05,0,.1.02.15.02.04.05.08.09.11s.09.04.13.05c.05,0,.1,0,.14-.03l1.96-1.03c.12-.06.25-.1.38-.1,0,0,.26.05.38.11Z" fill="#009cde" stroke-width="0"/>
  <path d="M26.47,20.59c-.11,0-.23-.03-.33-.08l-1.96-1.03s-.12-.04-.19-.06c-.04,0-.08.02-.12.04l-1.96,1.03c-.09.05-.22.08-.37.08h-.06c-.13-.02-.25-.07-.36-.14-.12-.09-.21-.2-.26-.33-.05-.15-.07-.29-.04-.42l.37-2.15c0-.05,0-.11-.01-.16-.01-.05-.04-.09-.08-.13l-1.59-1.55c-.1-.1-.17-.22-.2-.35-.04-.12-.04-.28.02-.43.05-.12.12-.23.22-.31.12-.1.25-.16.4-.18l2.17-.32c.06,0,.11-.03.15-.06.05-.03.08-.08.1-.12l.98-1.99c.06-.11.14-.21.25-.29.27-.16.57-.16.81-.02.1.05.21.16.28.3l.98,1.98c.03.05.06.09.11.13.04.03.09.05.14.06l2.19.32c.17.04.28.09.38.17.12.1.2.23.24.38.03.12.03.24,0,.36-.04.14-.11.26-.2.36l-1.58,1.55s-.07.09-.08.13c-.02.05-.02.11-.01.16l.38,2.18c.02.15,0,.28-.04.4-.04.13-.14.25-.26.34-.1.07-.23.13-.39.14-.02,0-.04,0-.06,0ZM21.78,19.85h0s0,0,0,0ZM21.46,19.63s-.01,0-.02.01h.02ZM24.02,18.45h.09c.1.03.34.08.51.17h0s1.57.83,1.57.83l-.3-1.75c-.04-.2-.02-.42.04-.62.07-.2.18-.39.34-.54l1.26-1.23-1.74-.25c-.21-.03-.41-.11-.58-.23-.18-.13-.32-.3-.41-.49l-.77-1.57-.78,1.58c-.08.18-.22.34-.4.47-.17.13-.38.21-.59.24l-1.74.25,1.26,1.23c.15.14.27.33.33.53.06.2.08.41.04.62l-.3,1.74,1.56-.82c.19-.1.4-.15.61-.15ZM20.09,15.37h-.01s0,0,.01,0Z" fill="#1d1e1e" stroke-width="0"/>
</svg>