<?xml version="1.0" encoding="UTF-8"?>
<svg id="Layer_1" data-name="Layer 1" xmlns="http://www.w3.org/2000/svg" viewBox="0 0 48 48">
  <path d="M1.75,5.41h35.59v33.91H1.75V5.41Z" fill="#fff" stroke-width="0"/>
  <path d="M10.96,16.09c0,.27.11.54.3.73.19.19.46.3.73.3s.54-.11.73-.3.3-.46.3-.73-.11-.54-.3-.73-.46-.3-.73-.3-.54.11-.73.3-.3.46-.3.73Z" fill="#702f8a" stroke-width="0"/>
  <path d="M27.91,16.66h-11.39c-.32,0-.57-.26-.57-.57s.26-.57.57-.57h11.39c.32,0,.57.26.57.57s-.26.57-.57.57Z" fill="#1d1e1e" stroke-width="0"/>
  <path d="M10.96,22.45c0,.27.11.54.3.73.19.19.46.3.73.3s.54-.11.73-.3.3-.46.3-.73-.11-.54-.3-.73-.46-.3-.73-.3-.54.11-.73.3c-.19.19-.3.46-.3.73Z" fill="#702f8a" stroke-width="0"/>
  <path d="M27.91,23.01h-11.39c-.32,0-.57-.26-.57-.57s.26-.57.57-.57h11.39c.32,0,.57.26.57.57s-.26.57-.57.57Z" fill="#1d1e1e" stroke-width="0"/>
  <path d="M10.96,28.81c0,.27.11.54.3.73.19.19.46.3.73.3s.54-.11.73-.3c.19-.19.3-.46.3-.73s-.11-.54-.3-.73-.46-.3-.73-.3-.54.11-.73.3c-.19.19-.3.46-.3.73Z" fill="#702f8a" stroke-width="0"/>
  <path d="M27.91,29.38h-11.39c-.32,0-.57-.26-.57-.57s.26-.57.57-.57h11.39c.32,0,.57.26.57.57s-.26.57-.57.57Z" fill="#1d1e1e" stroke-width="0"/>
  <path d="M37.33,39.62H1.75c-.32,0-.57-.26-.57-.57V5.14c0-.32.26-.57.57-.57h35.59c.32,0,.57.26.57.57v33.91c0,.32-.26.57-.57.57ZM2.32,38.49h34.44V5.71H2.32v32.77Z" fill="#1d1e1e" stroke-width="0"/>
  <rect x="2.05" y="36.15" width="35.59" height="2.33" fill="#f1eaf3" stroke-width="0"/>
  <path d="M37.33,39.62H1.74c-.32,0-.57-.26-.57-.57V5.14c0-.32.26-.57.57-.57h35.59c.32,0,.57.26.57.57v33.91c0,.32-.26.57-.57.57ZM2.31,38.49h34.44V5.71H2.31v32.77Z" fill="#1d1e1e" stroke-width="0"/>
  <rect x="7.04" y=".48" width="3.07" height="7.78" rx="1.27" ry="1.27" fill="#702f8a" stroke-width="0"/>
  <path d="M8.57.49c-.21,0-.41.04-.6.12-.19.08-.36.2-.51.34-.15.15-.26.32-.34.52-.08.19-.12.4-.12.61v2.64c0-.21.03-.42.11-.62s.19-.38.34-.53c.15-.15.32-.27.52-.36.19-.08.4-.12.61-.12s.42.04.61.12.37.2.52.36c.15.15.26.33.34.53s.11.41.11.62v-2.64c0-.21-.04-.42-.12-.61-.08-.19-.19-.37-.34-.52-.15-.15-.32-.26-.51-.35-.19-.08-.39-.12-.6-.12h-.02Z" fill="#9c59b2" stroke-width="0"/>
  <path d="M8.58,8.74c-1.11,0-2.02-.91-2.02-2.02V2.02c0-1.11.91-2.02,2.02-2.02s2.02.91,2.02,2.02v4.7c0,1.11-.91,2.02-2.02,2.02ZM8.58.97c-.58,0-1.05.47-1.05,1.05v4.7c0,.58.47,1.05,1.05,1.05s1.05-.47,1.05-1.05V2.02c0-.58-.47-1.05-1.05-1.05Z" fill="#1d1e1e" stroke-width="0"/>
  <rect x="14.39" y=".48" width="3.07" height="7.78" rx="1.27" ry="1.27" fill="#702f8a" stroke-width="0"/>
  <path d="M15.92.49c-.21,0-.41.04-.6.12-.19.08-.36.2-.51.34-.15.15-.26.32-.34.52-.08.19-.12.4-.12.61v2.64c0-.21.03-.42.11-.62s.19-.38.34-.53c.15-.15.32-.27.52-.36.19-.08.4-.12.61-.12s.42.04.61.12.37.2.52.36c.15.15.26.33.34.53s.11.41.11.62v-2.64c0-.21-.04-.42-.12-.61-.08-.19-.19-.37-.34-.52-.15-.15-.32-.26-.51-.35-.19-.08-.39-.12-.6-.12h-.02Z" fill="#9c59b2" stroke-width="0"/>
  <path d="M15.93,8.74c-1.11,0-2.02-.91-2.02-2.02V2.02c0-1.11.91-2.02,2.02-2.02s2.02.91,2.02,2.02v4.7c0,1.11-.91,2.02-2.02,2.02ZM15.93.97c-.58,0-1.05.47-1.05,1.05v4.7c0,.58.47,1.05,1.05,1.05s1.05-.47,1.05-1.05V2.02c0-.58-.47-1.05-1.05-1.05Z" fill="#1d1e1e" stroke-width="0"/>
  <rect x="21.7" y=".48" width="3.07" height="7.78" rx="1.27" ry="1.27" fill="#702f8a" stroke-width="0"/>
  <path d="M23.23.49c-.21,0-.41.04-.6.12-.19.08-.36.2-.51.34-.15.15-.26.32-.34.52-.08.19-.12.4-.12.61v2.64c0-.21.03-.42.11-.62s.19-.38.34-.53c.15-.15.32-.27.52-.36.19-.08.4-.12.61-.12s.42.04.61.12.37.2.52.36c.15.15.26.33.34.53s.11.41.11.62v-2.64c0-.21-.04-.42-.12-.61-.08-.19-.19-.37-.34-.52-.15-.15-.32-.26-.51-.35-.19-.08-.39-.12-.6-.12h-.02Z" fill="#9c59b2" stroke-width="0"/>
  <path d="M23.24,8.74c-1.11,0-2.02-.91-2.02-2.02V2.02c0-1.11.91-2.02,2.02-2.02s2.02.91,2.02,2.02v4.7c0,1.11-.91,2.02-2.02,2.02ZM23.24.97c-.58,0-1.05.47-1.05,1.05v4.7c0,.58.47,1.05,1.05,1.05s1.05-.47,1.05-1.05V2.02c0-.58-.47-1.05-1.05-1.05Z" fill="#1d1e1e" stroke-width="0"/>
  <rect x="28.97" y=".48" width="3.07" height="7.78" rx="1.27" ry="1.27" fill="#702f8a" stroke-width="0"/>
  <path d="M30.5.49c-.21,0-.41.04-.6.12-.19.08-.36.2-.51.34-.15.15-.26.32-.34.52-.08.19-.12.4-.12.61v2.64c0-.21.03-.42.11-.62s.19-.38.34-.53c.15-.15.32-.27.52-.36.19-.08.4-.12.61-.12s.42.04.61.12.37.2.52.36c.15.15.26.33.34.53s.11.41.11.62v-2.64c0-.21-.04-.42-.12-.61-.08-.19-.19-.37-.34-.52-.15-.15-.32-.26-.51-.35-.19-.08-.39-.12-.6-.12h-.02Z" fill="#9c59b2" stroke-width="0"/>
  <path d="M30.51,8.74c-1.11,0-2.02-.91-2.02-2.02V2.02c0-1.11.91-2.02,2.02-2.02s2.02.91,2.02,2.02v4.7c0,1.11-.91,2.02-2.02,2.02ZM30.51.97c-.58,0-1.05.47-1.05,1.05v4.7c0,.58.47,1.05,1.05,1.05s1.05-.47,1.05-1.05V2.02c0-.58-.47-1.05-1.05-1.05Z" fill="#1d1e1e" stroke-width="0"/>
  <path d="M27.47,29.12l9.77-9.77,4.27,4.27-9.77,9.77-4.27-4.27Z" fill="#702f8a" stroke-width="0"/>
  <path d="M43.95,21.19l-4.27-4.27,1.43-1.43c.57-.56,1.34-.88,2.14-.88s1.57.32,2.14.89c.57.57.89,1.33.89,2.14s-.31,1.57-.88,2.14l-1.43,1.43h0Z" fill="#702f8a" stroke-width="0"/>
  <path d="M27.47,29.12l-2.09,6.36,6.36-2.09-4.27-4.27Z" fill="#f1eaf3" stroke-width="0"/>
  <path d="M27.47,29.12l9.77-9.77,2.14,2.14-9.77,9.77-2.14-2.14Z" fill="#9c59b2" stroke-width="0"/>
  <path d="M29.6,31.26l-4.22,4.22,2.09-6.37,2.14,2.14h0Z" fill="#fff" stroke-width="0"/>
  <path d="M31.74,33.97c-.15,0-.29-.06-.4-.17l-4.27-4.27c-.11-.11-.17-.25-.17-.4s.06-.3.17-.4l9.77-9.77c.22-.22.59-.22.81,0l4.27,4.27c.11.11.17.25.17.4s-.06.3-.17.4l-9.77,9.77c-.11.11-.26.17-.4.17h0ZM28.27,29.12l3.46,3.46,8.96-8.96-3.46-3.46-8.96,8.96Z" fill="#1d1e1e" stroke-width="0"/>
  <path d="M41.52,24.2c-.15,0-.29-.06-.4-.17l-4.27-4.27c-.11-.11-.17-.25-.17-.4s.06-.3.17-.4l2.45-2.45c.22-.22.59-.22.81,0l4.27,4.27c.11.11.17.25.17.4s-.06.3-.17.4l-2.45,2.45c-.11.11-.26.17-.4.17h0ZM38.05,19.35l3.46,3.46,1.64-1.64-3.46-3.46-1.64,1.64Z" fill="#1d1e1e" stroke-width="0"/>
  <path d="M25.38,36.06c-.15,0-.3-.06-.4-.17-.15-.15-.21-.38-.14-.58l2.09-6.36c.06-.19.22-.33.41-.38.2-.05.4,0,.54.15l4.27,4.27c.14.14.2.34.15.54-.05.19-.19.35-.38.41l-6.36,2.09c-.06.02-.12.03-.18.03ZM27.72,30.19l-1.45,4.41,4.41-1.45-2.96-2.96Z" fill="#1d1e1e" stroke-width="0"/>
  <path d="M41.82,19.05l-2.14-2.14,1.43-1.43c.28-.28.62-.5.98-.66.37-.15.76-.23,1.16-.23s.79.08,1.16.23.7.38.98.66l-3.56,3.56Z" fill="#9c59b2" stroke-width="0"/>
  <path d="M43.95,21.76c-.15,0-.29-.06-.4-.17l-4.27-4.27c-.11-.11-.17-.25-.17-.4s.06-.3.17-.4l1.43-1.43c.68-.68,1.58-1.05,2.53-1.05h0c.96,0,1.86.38,2.53,1.05.68.68,1.05,1.58,1.05,2.53s-.37,1.86-1.04,2.53l-1.43,1.43c-.11.11-.26.17-.4.17h0ZM40.49,16.91l3.46,3.46,1.02-1.02c.46-.46.71-1.08.71-1.73s-.26-1.27-.72-1.73-1.08-.72-1.73-.72h0c-.65,0-1.27.25-1.73.71l-1.02,1.02Z" fill="#1d1e1e" stroke-width="0"/>
</svg>