<?xml version="1.0" encoding="UTF-8"?>
<svg id="Layer_1" data-name="Layer 1" xmlns="http://www.w3.org/2000/svg" viewBox="0 0 48 48">
  <rect x="4.03" y=".49" width="39.98" height="39.98" rx="5.28" ry="5.28" fill="#e6f1fa" stroke-width="0"/>
  <path d="M39.32,40.96H8.72c-2.85,0-5.18-2.32-5.18-5.18V5.18C3.54,2.32,5.86,0,8.72,0h30.61c2.85,0,5.18,2.32,5.18,5.18v30.61c0,2.85-2.32,5.18-5.18,5.18ZM8.72.98c-2.32,0-4.2,1.88-4.2,4.2v30.61c0,2.32,1.88,4.2,4.2,4.2h30.61c2.32,0,4.2-1.88,4.2-4.2V5.18c0-2.32-1.88-4.2-4.2-4.2H8.72Z" fill="#1d1e1e" stroke-width="0"/>
  <path d="M39.32.49H8.72c-2.58,0-4.69,2.11-4.69,4.69v4.17c0-2.58,2.11-4.69,4.69-4.69h30.61c2.58,0,4.69,2.11,4.69,4.69v-4.17c0-2.58-2.11-4.69-4.69-4.69Z" fill="#fff" stroke-width="0"/>
  <path d="M39.32,40.96H8.72c-2.85,0-5.18-2.32-5.18-5.18V5.18C3.54,2.32,5.86,0,8.72,0h30.61c2.85,0,5.18,2.32,5.18,5.18v30.61c0,2.85-2.32,5.18-5.18,5.18ZM8.72.98c-2.32,0-4.2,1.88-4.2,4.2v30.61c0,2.32,1.88,4.2,4.2,4.2h30.61c2.32,0,4.2-1.88,4.2-4.2V5.18c0-2.32-1.88-4.2-4.2-4.2H8.72Z" fill="#1d1e1e" stroke-width="0"/>
  <path d="M39.28,40.96H8.68c-2.85,0-5.18-2.32-5.18-5.18V5.18C3.5,2.32,5.82,0,8.68,0h30.61c2.85,0,5.18,2.32,5.18,5.18v30.61c0,2.85-2.32,5.18-5.18,5.18ZM8.68.98c-2.32,0-4.2,1.88-4.2,4.2v30.61c0,2.32,1.88,4.2,4.2,4.2h30.61c2.32,0,4.2-1.88,4.2-4.2V5.18c0-2.32-1.88-4.2-4.2-4.2H8.68Z" fill="#1d1e1e" stroke-width="0"/>
  <path d="M39.28,40.96H8.68c-2.85,0-5.18-2.32-5.18-5.18V5.18C3.5,2.32,5.82,0,8.68,0h30.61c2.85,0,5.18,2.32,5.18,5.18v30.61c0,2.85-2.32,5.18-5.18,5.18ZM8.68.98c-2.32,0-4.2,1.88-4.2,4.2v30.61c0,2.32,1.88,4.2,4.2,4.2h30.61c2.32,0,4.2-1.88,4.2-4.2V5.18c0-2.32-1.88-4.2-4.2-4.2H8.68Z" fill="#1d1e1e" stroke-width="0"/>
  <path d="M39.3,40.97H8.7c-2.85,0-5.18-2.32-5.18-5.18V5.18C3.52,2.33,5.84,0,8.7,0h30.61c2.85,0,5.18,2.32,5.18,5.18v30.61c0,2.85-2.32,5.18-5.18,5.18ZM8.7.98c-2.32,0-4.2,1.88-4.2,4.2v30.61c0,2.32,1.88,4.2,4.2,4.2h30.61c2.32,0,4.2-1.88,4.2-4.2V5.18c0-2.32-1.88-4.2-4.2-4.2H8.7Z" fill="#1d1e1e" stroke-width="0"/>
  <path d="M24.04,8.18c.27,0,.54.05.8.16.25.1.48.26.68.45l5.97,5.97c.19.19.35.42.45.68s.16.52.16.8c0,.27-.05.54-.16.8-.1.25-.26.48-.45.68-.39.39-.93.62-1.47.62-.27,0-.54-.05-.8-.16-.25-.1-.48-.26-.68-.45l-1.97-1.98v14.58c-.01.67-.28,1.29-.76,1.76s-1.11.73-1.77.73-1.29-.26-1.77-.73-.74-1.09-.76-1.76v-14.58s-1.97,1.98-1.97,1.98c-.19.19-.42.35-.68.45s-.52.16-.8.16-.54-.05-.8-.16c-.25-.1-.48-.26-.68-.45s-.35-.42-.45-.68-.16-.52-.16-.8c0-.27.05-.54.16-.8.1-.25.26-.48.45-.68l5.97-5.97c.19-.19.42-.35.68-.45s.52-.16.8-.16h-.02Z" fill="#009cde" stroke-width="0"/>
  <path d="M24.04,7.62c.35,0,.69.07,1.01.2s.62.33.86.58l5.96,5.97c.24.25.44.53.58.86s.2.67.2,1.02c0,.35-.07.7-.2,1.02s-.32.62-.58.86c-.75.75-1.92.98-2.89.58-.32-.13-.62-.32-.86-.58l-1.01-1.02v13.23c-.01.83-.34,1.58-.92,2.16-1.16,1.14-3.16,1.14-4.32,0-.58-.57-.91-1.33-.92-2.15v-13.24s-1.01,1.01-1.01,1.01c-.25.25-.53.44-.86.58-.65.26-1.38.27-2.03,0-.32-.13-.62-.33-.86-.58s-.44-.53-.58-.86-.2-.67-.2-1.02.07-.69.2-1.02c.13-.32.33-.62.58-.86l5.97-5.97c.24-.25.53-.44.86-.58s.67-.2,1.01-.2h-.01ZM30,17.78c.4,0,.8-.16,1.08-.45.14-.14.25-.31.33-.49.08-.19.12-.38.12-.59,0-.2-.04-.4-.12-.59s-.19-.35-.33-.49l-5.97-5.97c-.14-.14-.31-.26-.49-.33-.18-.08-.38-.12-.59-.12h0c-.2,0-.39.04-.59.11-.18.08-.35.19-.49.33l-5.97,5.97c-.14.14-.25.31-.33.49s-.11.38-.11.59c0,.2.04.4.11.59.08.19.19.35.33.49s.31.25.49.33c.37.15.8.15,1.17,0,.18-.08.35-.19.49-.33l2.93-2.94v15.94c0,.5.21.99.59,1.35.74.73,2.01.73,2.75,0,.37-.36.58-.85.59-1.36v-15.93s2.93,2.94,2.93,2.94c.14.14.31.25.49.33s.38.11.59.11l.02.02Z" fill="#1d1e1e" stroke-width="0"/>
</svg>