<?xml version="1.0" encoding="UTF-8"?>
<svg id="Layer_1" data-name="Layer 1" xmlns="http://www.w3.org/2000/svg" viewBox="0 0 48 48">
  <path d="M31.53,18.07v-5.13c-.02-1.93-.8-3.76-2.17-5.13-1.37-1.35-3.22-2.11-5.16-2.11-1.93,0-3.77.76-5.16,2.11-1.37,1.35-2.14,3.19-2.17,5.13v1.29h-5.13v-1.29c0-3.3,1.31-6.47,3.64-8.8,2.33-2.33,5.51-3.64,8.8-3.64,3.29,0,6.47,1.31,8.8,3.64,2.33,2.33,3.64,5.5,3.64,8.8v5.13h-5.13s.02,0,.02,0Z" fill="#fff" stroke-width="0"/>
  <path d="M24.17.5c-3.29,0-6.47,1.31-8.8,3.64-2.33,2.33-3.64,5.5-3.65,8.8v2.93c0-3.3,1.31-6.47,3.64-8.8,2.33-2.33,5.51-3.64,8.8-3.64s6.05.56,8.8,2.9c2.33,2.33,3.65,4.61,3.65,7.91v-2.92c0-3.3-1.31-4.83-3.65-7.16-2.33-2.33-5.5-3.64-8.8-3.65h.01Z" fill="#fff" stroke-width="0"/>
  <path d="M11.39,18.07h25.57c1.43,0,2.59,1.16,2.59,2.59v17.26c0,1.43-1.16,2.59-2.59,2.59H11.39c-1.43,0-2.59-1.16-2.59-2.59v-17.26c0-1.43,1.16-2.59,2.59-2.59Z" fill="#fff" stroke-width="0"/>
  <path d="M27.11,26.86c0-.51-.13-1.02-.38-1.47-.25-.45-.62-.82-1.07-1.08-.45-.26-.95-.4-1.46-.4s-1.02.13-1.47.39c-.45.26-.82.62-1.08,1.07-.26.44-.39.95-.39,1.46s.13,1.02.38,1.46c.26.45.63.82,1.08,1.07v3.33c0,.39.15.76.43,1.03.27.27.65.43,1.03.43s.76-.15,1.04-.43.43-.65.43-1.03v-3.33c.45-.26.81-.62,1.07-1.06.26-.44.39-.94.39-1.46v.02Z" fill="#009cde" stroke-width="0"/>
  <path d="M24.17,34.7c-.52,0-1.03-.21-1.39-.58-.37-.36-.58-.87-.58-1.39v-3.05c-.41-.29-.75-.66-1.01-1.09-.31-.54-.46-1.14-.45-1.73,0-.6.16-1.2.46-1.71.29-.51.73-.95,1.26-1.26.53-.3,1.14-.48,1.72-.46.6,0,1.19.16,1.71.47s.96.74,1.26,1.27c.3.53.46,1.13.45,1.72,0,.61-.16,1.2-.46,1.71-.25.43-.59.8-1,1.09v3.05c0,.53-.21,1.03-.58,1.4-.37.37-.87.58-1.4.58v-.02ZM24.17,24.44c-.42,0-.84.11-1.2.32-.37.22-.68.52-.89.88-.21.37-.33.78-.33,1.21s.1.84.32,1.21c.21.36.52.67.89.88.16.09.26.26.26.44v3.33c0,.25.1.5.28.67.36.36.99.36,1.34,0,.18-.18.28-.42.28-.67v-3.33c0-.18.1-.35.26-.44.37-.21.67-.51.88-.88.21-.36.32-.77.32-1.2h0c0-.42-.1-.84-.32-1.21-.21-.37-.51-.67-.88-.89-.37-.21-.78-.33-1.2-.33h-.01Z" fill="#1d1e1e" stroke-width="0"/>
  <path d="M36.87,41H11.48c-1.75,0-3.17-1.42-3.17-3.17v-17.08c0-1.75,1.42-3.17,3.17-3.17h25.39c1.75,0,3.17,1.42,3.17,3.17v17.08c0,1.75-1.42,3.17-3.17,3.17ZM11.48,18.55c-1.21,0-2.2.99-2.2,2.2v17.08c0,1.21.99,2.2,2.2,2.2h25.39c1.21,0,2.2-.99,2.2-2.2v-17.08c0-1.21-.99-2.2-2.2-2.2H11.48Z" fill="#1d1e1e" stroke-width="0"/>
  <rect x="31.48" y="15.25" width="5.11" height="2.33" fill="#e6f1fa" stroke-width="0"/>
  <path d="M31.48,18.07c-.28,0-.51.29-.51.01v-5.13c-.01-1.77-.74-3.51-2.01-4.77-1.29-1.27-2.99-1.97-4.8-1.97s-3.5.7-4.8,1.97c-1.27,1.27-1.99,2.96-2.01,4.77v.78c0,.28-.23.51-.51.51h-5.13c-.28,0-.51-.23-.51-.51v-.78c0-3.4,1.38-6.75,3.79-9.16C17.45,1.35,20.75,0,24.17,0c3.41,0,6.76,1.38,9.17,3.79,2.41,2.41,3.79,5.76,3.79,9.16v5.13c0,.28-.23-.01-.51-.01h-5.13s-.02,0-.02,0ZM36.09,17.58v-4.62c0-3.14-1.27-6.22-3.49-8.44-2.22-2.22-5.26-3.49-8.44-3.49-3.18,0-6.18,1.24-8.44,3.49-2.22,2.22-3.49,5.3-3.49,8.44v.26s4.1,0,4.1,0v-.27c.03-2.08.85-4.02,2.32-5.49,1.48-1.46,3.44-2.26,5.52-2.26s4.03.8,5.52,2.26c1.48,1.46,2.3,3.41,2.32,5.49v4.62s4.1,0,4.1,0h-.02Z" fill="#1d1e1e" stroke-width="0"/>
  <path d="M8.79,38.65c0,.49.19.96.55,1.31.35.35.82.54,1.31.54h27.03c.49,0,.97-.2,1.31-.54.35-.35.55-.82.55-1.31v-2.84c0,.49-.19.96-.55,1.31-.35.35-.82.54-1.31.54H10.65c-.25,0-.49-.05-.71-.14-.22-.09-.43-.23-.6-.4-.18-.17-.31-.38-.41-.6-.09-.23-.14-.47-.14-.71v2.84Z" fill="#e6f1fa" stroke-width="0"/>
  <path d="M36.86,41H11.47c-1.75,0-3.17-1.42-3.17-3.17v-17.08c0-1.75,1.42-3.17,3.17-3.17h25.39c1.75,0,3.17,1.42,3.17,3.17v17.08c0,1.75-1.42,3.17-3.17,3.17ZM11.47,18.55c-1.21,0-2.2.99-2.2,2.2v17.08c0,1.21.99,2.2,2.2,2.2h25.39c1.21,0,2.2-.99,2.2-2.2v-17.08c0-1.21-.99-2.2-2.2-2.2H11.47Z" fill="#1d1e1e" stroke-width="0"/>
</svg>