<?xml version="1.0" encoding="UTF-8"?>
<svg id="Layer_1" data-name="Layer 1" xmlns="http://www.w3.org/2000/svg" viewBox="0 0 48 48">
  <path d="M20.37,4.17c0,.97.38,1.91,1.06,2.6s1.6,1.08,2.57,1.08,1.89-.39,2.57-1.08c.68-.69,1.06-1.62,1.06-2.6s-.38-1.91-1.06-2.6c-.68-.69-1.6-1.08-2.57-1.08s-1.89.39-2.57,1.08-1.06,1.62-1.06,2.6h0Z" fill="#e6edf8" stroke-width="0"/>
  <path d="M20.44,4.89c-.1-.53-.09-1.08.04-1.61.13-.53.37-1.02.71-1.44.34-.42.77-.76,1.25-.99s1.01-.36,1.55-.36,1.06.12,1.55.34c.49.23.91.56,1.26.98.34.42.59.91.72,1.43s.15,1.07.05,1.61c-.16-.84-.61-1.59-1.26-2.13-.65-.54-1.47-.84-2.32-.83-.84,0-1.66.3-2.31.85-.65.55-1.09,1.31-1.24,2.15" fill="#fff" stroke-width="0"/>
  <path d="M24,8.34c-1.1,0-2.14-.43-2.92-1.22s-1.21-1.83-1.21-2.95.43-2.16,1.21-2.95c.78-.79,1.82-1.22,2.92-1.22s2.14.43,2.92,1.22c.78.79,1.21,1.83,1.21,2.95s-.43,2.16-1.21,2.95c-.78.79-1.82,1.22-2.92,1.22ZM24,.99c-.84,0-1.62.33-2.22.93-.59.6-.92,1.4-.92,2.25s.34,1.66.92,2.25c.59.6,1.38.93,2.22.93s1.62-.33,2.21-.93c.59-.59.92-1.41.92-2.25s-.33-1.65-.92-2.25c-.59-.6-1.38-.93-2.21-.93Z" fill="#1d1e1e" stroke-width="0"/>
  <path d="M24,9.98c-3.97,0-7.8,3.22-7.8,7.2v8.4c0,.47.2.92.54,1.25s.79.52,1.26.52.92-.19,1.26-.52.53-.78.54-1.25l1.02,12.78c.05.6.32,1.16.76,1.57s1.02.64,1.63.64h1.57c.6,0,1.18-.23,1.63-.64.44-.41.72-.97.76-1.57l1.02-12.78c0,.47.2.92.54,1.25s.79.52,1.26.52.92-.19,1.26-.52.53-.78.54-1.25v-8.4c0-3.97-3.82-7.2-7.8-7.2h0Z" fill="#e6edf8" stroke-width="0"/>
  <path d="M24,9.98c-3.97,0-7.8,3.22-7.8,7.2l.6,3c0-3.97,1.62-7.2,7.2-7.2s7.2,3.22,7.2,7.2l.6-3c0-3.97-3.82-7.2-7.8-7.2Z" fill="#fff" stroke-width="0"/>
  <path d="M24.78,41h-1.57c-.72,0-1.4-.27-1.93-.75-.53-.49-.85-1.15-.9-1.86l-.89-11.18c-.85.76-2.24.73-3.06-.07-.42-.41-.66-.97-.67-1.56v-8.4c0-4.07,3.85-7.64,8.24-7.64,2.04,0,4.11.81,5.68,2.22,1.65,1.48,2.55,3.4,2.55,5.42v8.4c0,.6-.25,1.15-.67,1.56-.81.8-2.21.83-3.06.07l-.9,11.18c-.06.71-.38,1.37-.9,1.86-.53.49-1.21.75-1.93.75h0ZM20.24,25.57l1.02,12.75c.04.49.26.95.62,1.28.36.34.84.52,1.33.52h1.57c.49,0,.97-.18,1.33-.52s.58-.79.62-1.28l1.02-12.77v-7.78c0-.24.2-.44.44-.44s.44.2.44.44v7.79c0,.36.15.69.41.94.51.5,1.4.5,1.91,0,.26-.25.4-.59.41-.95v-8.39c0-1.76-.8-3.45-2.26-4.76-1.41-1.27-3.27-2-5.1-2-3.92,0-7.36,3.16-7.36,6.76v8.4c0,.35.15.69.41.94.51.5,1.4.5,1.91,0,.26-.25.4-.59.41-.95v-7.79c0-.24.2-.44.44-.44s.44.2.44.44v7.81Z" fill="#1d1e1e" stroke-width="0"/>
</svg>