<svg width="16" height="16" viewBox="0 0 16 16" fill="none" xmlns="http://www.w3.org/2000/svg">
    <g clip-path="url(#kszuj624qa)" fill="#324DC7">
        <path d="M9.47 14.13H.55c-.31 0-.55-.25-.55-.55 0-.3.24-.55.55-.55h8.92c.3 0 .55.24.55.55 0 .31-.24.55-.55.55z"/>
        <path d="M4.79 14.13c-.3 0-.55-.24-.55-.55v-6H2.25v6c0 .3-.24.55-.55.55-.31 0-.55-.24-.55-.55V7.44c0-.53.48-.96 1.06-.96h2.05c.58 0 1.06.43 1.06.96v6.14c0 .3-.24.55-.55.55h.02zM6.31 14.13c-.3 0-.55-.24-.55-.55V4.59c0-.63.48-1.15 1.06-1.15h2.05c.58 0 1.06.51 1.06 1.15v4.09c0 .3-.24.55-.55.55-.31 0-.55-.24-.55-.55V4.59l-2.02-.05.03 9.04c0 .3-.24.55-.55.55h.02zM10.9 8.54c-.3 0-.55-.24-.55-.55V1.36c0-.76.47-1.36 1.06-1.36h2.05c.59 0 1.06.6 1.06 1.36v5.31c0 .3-.24.55-.55.55-.31 0-.55-.24-.55-.55V1.36c0-.13-.03-.22-.06-.27h-1.87s-.06.14-.06.27v6.63c0 .3-.24.55-.55.55h.02zM10.66 13.13c-.14 0-.28-.05-.38-.16a.532.532 0 0 1 0-.77l4.8-4.89c.21-.22.56-.22.77 0 .22.21.22.56 0 .77l-4.8 4.89c-.11.11-.25.16-.39.16z"/>
        <path d="M12.15 16c-.2 0-.39-.11-.49-.3l-1.41-2.72-2.66-1.44a.568.568 0 0 1-.29-.5c0-.21.13-.39.33-.48l7.61-3.38c.2-.09.45-.05.6.11.16.16.21.4.12.6l-3.31 7.76c-.08.19-.27.32-.48.33h-.02V16zm-3.06-4.89 1.83.99c.1.05.17.13.23.23l.95 1.84 2.31-5.42-5.32 2.36z"/>
    </g>
    <defs>
        <clipPath id="kszuj624qa">
            <path fill="#fff" d="M0 0h16v16H0z"/>
        </clipPath>
    </defs>
</svg>
