<?xml version="1.0" encoding="UTF-8"?>
<svg id="Layer_1" data-name="Layer 1" xmlns="http://www.w3.org/2000/svg" viewBox="0 0 48 48">
  <path d="M29.58,40c.06.13.15.24.27.32.12.08.26.12.4.12s.28-.04.4-.12c.12-.08.21-.19.27-.32l2.27-4.99c.08-.19.23-.34.42-.42s.4-.1.59-.04l5.25,1.58c.14.04.28.04.42,0s.26-.12.35-.22c.09-.11.15-.24.17-.38.02-.14,0-.28-.06-.41l-9.09-20-10.74,4.88,9.09,20.01h0Z" fill="#009cde" stroke-width="0"/>
  <path d="M37.42,35.52l2.02.61c.14.04.28.04.42,0s.26-.12.35-.22c.09-.11.15-.24.17-.38.02-.14,0-.28-.06-.41l-9.09-20.01-2.9,1.32,9.09,19.09Z" fill="#71c5e8" stroke-width="0"/>
  <path d="M30.25,40.92c-.24,0-.47-.07-.66-.2-.2-.13-.36-.31-.45-.52l-9.09-20.01c-.11-.25,0-.53.24-.65l10.74-4.88c.25-.11.53,0,.65.24l9.09,20c.1.21.13.45.1.69-.03.23-.13.45-.29.63s-.36.31-.59.37c-.22.06-.46.06-.69,0l-5.25-1.58c-.08-.02-.17-.02-.25.02s-.14.1-.18.18l-2.27,4.99c-.1.21-.25.4-.45.52s-.43.2-.66.2ZM21.14,20.23l8.9,19.56h0s.05.08.09.11c.08.05.19.05.27,0,.04-.03.07-.06.09-.11l2.26-4.99c.13-.29.37-.53.66-.66s.62-.16.93-.06l5.25,1.58s.1,0,.14,0c.05,0,.09-.04.12-.08s.05-.08.06-.13c0-.05,0-.1-.02-.14l-8.89-19.56-9.85,4.48Z" fill="#1d1e1e" stroke-width="0"/>
  <path d="M17.04,40.08l-2.27-4.99c-.08-.19-.23-.34-.42-.42-.19-.08-.4-.1-.59-.04l-5.25,1.59c-.14.04-.28.04-.42,0s-.26-.12-.35-.22c-.09-.11-.15-.24-.17-.38s0-.28.06-.41l9.1-20.02,10.74,4.88-9.09,20.01c-.06.13-.15.24-.27.31-.12.08-.26.12-.4.12s-.28-.04-.4-.12c-.12-.08-.21-.19-.27-.31h0Z" fill="#009cde" stroke-width="0"/>
  <path d="M10.54,35.6l-2.02.61c-.14.04-.28.04-.42,0s-.26-.12-.35-.22c-.09-.11-.15-.24-.17-.38s0-.28.06-.41l9.09-20.01,2.9,1.32-9.09,19.09Z" fill="#71c5e8" stroke-width="0"/>
  <path d="M17.71,41c-.23,0-.46-.07-.66-.19-.2-.13-.36-.31-.45-.52h0l-2.26-4.99c-.04-.08-.1-.14-.17-.18-.08-.04-.17-.04-.25-.02l-5.24,1.58c-.23.07-.47.07-.69,0-.23-.07-.43-.19-.58-.37-.16-.18-.26-.4-.29-.63-.04-.23,0-.47.1-.69l9.07-20c.05-.12.15-.21.27-.25.12-.05.26-.04.37,0l10.74,4.88c.12.05.21.15.25.27s.04.26,0,.37l-9.09,20.01c-.1.21-.25.39-.45.52s-.43.19-.66.19h0ZM17.48,39.88s.05.08.09.11c.08.05.19.05.27,0,.04-.03.07-.06.09-.11l8.9-19.56-9.85-4.48-8.89,19.56s-.03.09-.02.14c0,.05.03.09.06.13.03.04.07.06.12.08.05,0,.1,0,.14,0l5.24-1.58c.31-.09.64-.07.93.06s.53.37.66.66l2.26,4.99h0Z" fill="#1d1e1e" stroke-width="0"/>
  <path d="M10.57,13.9c0,1.77.35,3.51,1.02,5.14.68,1.63,1.67,3.11,2.92,4.35,1.25,1.25,2.73,2.24,4.35,2.92,1.63.68,3.37,1.02,5.14,1.02s3.51-.35,5.14-1.02c1.63-.68,3.11-1.67,4.35-2.92s2.24-2.73,2.92-4.35c.68-1.63,1.02-3.37,1.02-5.14s-.35-3.51-1.02-5.14c-.68-1.63-1.67-3.11-2.92-4.35-1.25-1.25-2.73-2.24-4.35-2.92-1.63-.68-3.37-1.02-5.14-1.02s-3.51.35-5.14,1.02c-1.63.68-3.11,1.67-4.35,2.92-1.25,1.25-2.24,2.73-2.92,4.35-.68,1.63-1.02,3.37-1.02,5.14h0Z" fill="#e6f1fa" stroke-width="0"/>
  <path d="M15.61,24.39c-1.44-1.15-2.64-2.59-3.49-4.22-.86-1.63-1.38-3.42-1.52-5.26s.1-3.69.71-5.43c.61-1.75,1.57-3.34,2.83-4.69,1.26-1.36,2.78-2.44,4.46-3.17,1.69-.74,3.51-1.13,5.36-1.13s3.67.37,5.37,1.1,3.21,1.81,4.48,3.15L15.61,24.39Z" fill="#fff" stroke-width="0"/>
  <path d="M24.01,27.82c-1.84,0-3.62-.36-5.32-1.06-1.7-.7-3.21-1.72-4.51-3.02-1.3-1.3-2.32-2.82-3.02-4.51-.7-1.7-1.06-3.49-1.06-5.32s.36-3.62,1.06-5.33c.7-1.7,1.72-3.21,3.02-4.51,1.3-1.3,2.82-2.32,4.51-3.02,3.39-1.41,7.26-1.41,10.65,0,1.7.7,3.21,1.72,4.51,3.02,1.3,1.3,2.32,2.82,3.02,4.51s1.06,3.49,1.06,5.33-.36,3.62-1.06,5.32-1.72,3.21-3.02,4.51c-1.3,1.3-2.82,2.32-4.51,3.02-1.7.7-3.48,1.06-5.32,1.06h0ZM24.01.96c-1.71,0-3.37.33-4.95.99-1.58.65-3,1.6-4.2,2.81s-2.16,2.63-2.81,4.2c-.65,1.58-.99,3.24-.99,4.95s.33,3.37.99,4.95c.65,1.58,1.6,3,2.81,4.2,1.21,1.21,2.63,2.16,4.2,2.81,3.15,1.31,6.75,1.31,9.9,0,1.58-.65,3-1.6,4.2-2.81,1.21-1.21,2.16-2.63,2.81-4.2.65-1.58.99-3.24.99-4.95s-.33-3.37-.99-4.95c-.65-1.58-1.6-3-2.81-4.2-1.21-1.21-2.63-2.16-4.2-2.81-1.58-.65-3.24-.99-4.95-.99Z" fill="#1d1e1e" stroke-width="0"/>
  <path d="M13.93,13.9c0,1.33.26,2.64.77,3.85.51,1.22,1.25,2.34,2.19,3.26.94.94,2.05,1.68,3.26,2.19,1.22.51,2.54.77,3.85.77s2.64-.26,3.85-.77c1.22-.51,2.34-1.25,3.26-2.19.94-.94,1.68-2.05,2.19-3.26.51-1.22.77-2.54.77-3.85s-.26-2.64-.77-3.85c-.51-1.22-1.25-2.34-2.19-3.26-.94-.94-2.05-1.68-3.26-2.19-1.22-.51-2.54-.77-3.85-.77s-2.64.26-3.85.77c-1.22.51-2.34,1.25-3.26,2.19-.94.94-1.68,2.05-2.19,3.26s-.77,2.54-.77,3.85Z" fill="#e6f1fa" stroke-width="0"/>
  <path d="M24.01,3.82c-2.11,0-4.16.66-5.88,1.89s-3,2.97-3.67,4.96c-.67,2-.7,4.15-.08,6.17.62,2.02,1.86,3.78,3.53,5.06l13.61-14.71c-.95-1.06-2.1-1.91-3.39-2.49-1.3-.58-2.7-.88-4.12-.88h0Z" fill="#fff" stroke-width="0"/>
  <path d="M24.01,24.46c-1.4,0-2.76-.27-4.04-.81-1.29-.53-2.44-1.31-3.42-2.29-.99-.99-1.76-2.14-2.29-3.42s-.81-2.65-.81-4.04.27-2.76.81-4.04c.53-1.29,1.31-2.44,2.29-3.42.99-.99,2.14-1.76,3.42-2.29,2.58-1.07,5.5-1.07,8.09,0,1.29.53,2.44,1.31,3.42,2.29.99.99,1.76,2.14,2.29,3.42s.81,2.65.81,4.04-.27,2.76-.81,4.04c-.53,1.29-1.31,2.44-2.29,3.42-.99.99-2.14,1.76-3.42,2.29s-2.65.81-4.04.81ZM24.01,4.31c-1.27,0-2.5.25-3.67.73-1.17.48-2.22,1.19-3.11,2.08-.9.9-1.6,1.95-2.08,3.11s-.73,2.41-.73,3.66.25,2.5.73,3.67c.48,1.17,1.19,2.22,2.08,3.11.9.9,1.95,1.6,3.11,2.08,2.34.97,5,.97,7.34,0,1.17-.48,2.22-1.19,3.11-2.08.9-.9,1.6-1.95,2.08-3.11.48-1.17.73-2.41.73-3.67s-.25-2.5-.73-3.66-1.19-2.22-2.08-3.11c-.9-.9-1.95-1.6-3.11-2.08-1.17-.48-2.41-.73-3.66-.73Z" fill="#1d1e1e" stroke-width="0"/>
</svg>