<svg width="184" height="184" viewBox="0 0 184 184" fill="none" xmlns="http://www.w3.org/2000/svg">
    <g clip-path="url(#gb53vlm9ba)">
        <path d="M1.416 91.999a90.947 90.947 0 0 0 20.57 57.604 90.547 90.547 0 0 0 52.356 31.447 90.385 90.385 0 0 0 60.371-8.986 90.737 90.737 0 0 0 40.982-45.341 91.019 91.019 0 0 0 2.986-61.11 90.788 90.788 0 0 0-36.364-49.14A90.41 90.41 0 0 0 83.111 1.615a90.493 90.493 0 0 0-55.17 26.166A90.823 90.823 0 0 0 8.306 57.245a91.002 91.002 0 0 0-6.891 34.754z" fill="#F5F7FC"/>
        <path d="M92 184a91.716 91.716 0 0 1-64.878-26.963A92.172 92.172 0 0 1 .226 92a92.172 92.172 0 0 1 26.896-65.037A91.716 91.716 0 0 1 91.999 0a91.715 91.715 0 0 1 64.877 26.963A92.17 92.17 0 0 1 183.773 92a92.17 92.17 0 0 1-26.897 65.037A91.715 91.715 0 0 1 91.999 184zM92 2.384a89.24 89.24 0 0 0-49.665 15.104A89.568 89.568 0 0 0 9.41 57.706a89.823 89.823 0 0 0-5.088 51.777 89.686 89.686 0 0 0 24.465 45.884 89.373 89.373 0 0 0 29.01 19.661 89.19 89.19 0 0 0 68.677.214 89.395 89.395 0 0 0 29.13-19.479 89.631 89.631 0 0 0 19.431-29.203 89.812 89.812 0 0 0-.213-68.846 89.64 89.64 0 0 0-19.613-29.081 88.842 88.842 0 0 0-28.984-19.468 88.669 88.669 0 0 0-34.227-6.781z" fill="#E6EDF8"/>
        <path d="M6.287 150.967c0 1.674 8.889 3.292 24.684 4.484 15.796 1.192 37.253 1.816 59.588 1.816s43.792-.681 59.446-1.845c15.654-1.163 24.685-2.837 24.685-4.483 0-1.646-8.889-3.292-24.685-4.484-15.795-1.192-37.224-1.873-59.446-1.873-22.221 0-43.792.681-59.588 1.873-15.795 1.192-24.684 2.838-24.684 4.484v.028zM178.365 126.703H5.689a4.134 4.134 0 0 0-2.973 1.249 4.232 4.232 0 0 0-1.245 2.838v8.513h181.112v-8.513a4.23 4.23 0 0 0-1.245-2.838 4.181 4.181 0 0 0-2.973-1.249z" fill="#CCD8F2"/>
        <path d="M182.585 140.806H1.415A1.414 1.414 0 0 1 0 139.387v-8.513a5.686 5.686 0 0 1 1.642-4.002 5.652 5.652 0 0 1 3.991-1.645H178.31a5.645 5.645 0 0 1 4.003 1.662 5.687 5.687 0 0 1 1.659 4.013v8.513a1.425 1.425 0 0 1-.415.976 1.411 1.411 0 0 1-.972.415zM2.831 137.968h178.338v-7.038a2.84 2.84 0 0 0-.829-2.006 2.828 2.828 0 0 0-2.002-.831H5.662a2.824 2.824 0 0 0-1.982.823 2.84 2.84 0 0 0-.82 1.986l-.03 7.066z" fill="#0F143A"/>
        <path d="M182.585 139.395H1.416a15.788 15.788 0 0 0 6.022 6.352 15.745 15.745 0 0 0 8.472 2.161h152.238c2.96.095 5.886-.654 8.436-2.162a15.65 15.65 0 0 0 5.973-6.351h.028z" fill="#F5F7FC"/>
        <path d="M15.326 149.271a16.956 16.956 0 0 1-8.867-2.474 17.019 17.019 0 0 1-6.277-6.748 1.425 1.425 0 0 1 0-1.391 1.414 1.414 0 0 1 1.245-.681h181.169c.238-.005.473.053.682.167.208.115.383.282.507.486a1.441 1.441 0 0 1 0 1.362 17.007 17.007 0 0 1-6.541 6.875 16.958 16.958 0 0 1-9.198 2.291H15.185l.141.113zm-11.323-8.513a14.169 14.169 0 0 0 4.161 3.661c2.326 1.378 5.001 2.048 7.7 1.929h152.295a14.38 14.38 0 0 0 7.7-1.901 14.798 14.798 0 0 0 4.161-3.689H4.003z" fill="#0F143A"/>
        <path d="M169.981 38.457a8.524 8.524 0 0 0-2.492-5.988A8.32 8.32 0 0 0 161.543 30H22.46a8.485 8.485 0 0 0-6.006 2.493 8.523 8.523 0 0 0-2.488 6.02v88.567H169.98V38.457z" fill="#E6EDF8"/>
        <path d="M134.119 29.574H22.474a8.482 8.482 0 0 0-6.005 2.494 8.524 8.524 0 0 0-2.488 6.02v88.623L134.12 29.574z" fill="#fff"/>
        <path d="M171.491 128.127H12.968V38.085a9.973 9.973 0 0 1 2.83-6.981 9.765 9.765 0 0 1 6.964-2.838h138.991a9.925 9.925 0 0 1 6.964 2.838 9.86 9.86 0 0 1 2.774 6.98v90.043zm-155.692-2.838H168.66V38.085a7.16 7.16 0 0 0-2.066-4.995 7.041 7.041 0 0 0-4.954-2.043H22.706a6.949 6.949 0 0 0-4.908 2.085 6.983 6.983 0 0 0-2 4.953v87.204z" fill="#0F143A"/>
        <path d="M40.9 40h101.748v77H40.899V40z" fill="#FFC2A7"/>
        <path d="M128.493 40.026H55.025c-3.588-.05-12 0-14.125 0 .001 3.033-.002 4.62 0 6.206.002 1.586.048 2.683 0 4.122V64a8.983 8.983 0 0 1 1.173-4.132 9.453 9.453 0 0 1 2.986-3.192c2.898-2 6.392-3.053 9.966-3.004h73.468c3.584-.053 7.089 1 9.996 3.004a9.457 9.457 0 0 1 2.986 3.192A8.98 8.98 0 0 1 142.648 64V50.354c-.047-1.443 0-3.69 0-5.203v-5.125c-4.159-.001-10.566-.058-14.155 0z" fill="#FEDECF"/>
        <path d="M142.221 119H41.326a1.422 1.422 0 0 1-1.425-1.426V38.426A1.426 1.426 0 0 1 41.326 37h100.895a1.423 1.423 0 0 1 1.424 1.426v79.148a1.426 1.426 0 0 1-1.424 1.426zm-99.47-2.851h98.045V39.851H42.751v76.298z" fill="#0F143A"/>
        <path fill-rule="evenodd" clip-rule="evenodd" d="M91.275 65c.826 0 1.496.672 1.496 1.5v12.367h11.206c.826 0 1.496.671 1.496 1.5 0 .828-.67 1.5-1.496 1.5H91.275a1.498 1.498 0 0 1-1.497-1.5V66.5c0-.828.67-1.5 1.497-1.5z" fill="#0F143A"/>
        <path d="M118.63 90.1a1.291 1.291 0 0 0-.637-.759l-2.811-1.462-.118-.03c-.579-.145-1.183.114-1.452.63l-.053.118c-3.54 6.68-9.861 11.257-17.362 12.564-6.416 1.117-12.87-.338-18.175-4.085-5.306-3.747-8.844-9.34-9.947-15.764-1.104-6.424.36-12.891 4.102-18.217 3.754-5.33 9.349-8.871 15.756-9.992 8.316-1.452 16.641 1.447 22.287 7.746l1.835 2.05-4.372 1.947a1.403 1.403 0 0 0-.781 1.208 1.402 1.402 0 0 0 .735 1.305l10.397 5.675a1.34 1.34 0 0 0 1.277.069c.406-.182.698-.524.806-.968l2.839-11.564a1.385 1.385 0 0 0-.464-1.426 1.379 1.379 0 0 0-1.467-.207l-3.893 1.7-.948-1.29c-3.124-4.253-7.302-7.615-12.089-9.715-5.363-2.352-11.274-3.056-17.11-2.045-16.259 2.848-27.213 18.408-24.413 34.695 1.776 10.28 8.614 18.433 17.502 22.332a29.733 29.733 0 0 0 17.079 2.065c9.193-1.613 16.98-7.272 21.383-15.572.168-.308.2-.654.094-1.007z" fill="#F4E26F"/>
        <path d="M79.308 106.465C69.814 102.3 62.504 93.601 60.61 82.627c-3-17.378 8.688-33.98 26.056-36.995 12.006-2.082 23.954 2.733 31.199 12.572l2.426-1.054a3.402 3.402 0 0 1 3.564.504 3.378 3.378 0 0 1 1.115 3.426l-2.837 11.564a3.408 3.408 0 0 1-1.942 2.314 3.391 3.391 0 0 1-2.999-.125l-10.448-5.697a3.37 3.37 0 0 1-1.772-3.147 3.404 3.404 0 0 1 2.025-2.977l1.799-.794c-5.196-5.784-12.849-8.453-20.49-7.121-5.89 1.02-11.029 4.28-14.471 9.168a22.298 22.298 0 0 0-3.77 16.723 22.2 22.2 0 0 0 9.15 14.474 22.237 22.237 0 0 0 16.71 3.759c6.892-1.191 12.706-5.421 15.977-11.608l.024-.055a3.304 3.304 0 0 1 4.415-1.339l2.651 1.393a3.277 3.277 0 0 1 1.623 1.945 3.24 3.24 0 0 1-.208 2.464l-.025.055c-4.668 8.827-12.986 14.885-22.823 16.597a31.747 31.747 0 0 1-18.242-2.204l-.009-.004zm24.421-55.893c-5.096-2.235-10.823-2.978-16.562-1.98C71.44 51.324 60.841 66.361 63.563 82.11c2.723 15.75 17.745 26.335 33.481 23.608 8.906-1.553 16.431-7.02 20.663-15.002l.024-.055a.257.257 0 0 0 .02-.22.299.299 0 0 0-.152-.176l-2.715-1.42a.298.298 0 0 0-.337.147l-.044.1c-3.672 6.928-10.272 11.731-18.083 13.076-6.68 1.154-13.402-.354-18.943-4.259-5.54-3.904-9.222-9.734-10.37-16.418-1.157-6.687.368-13.42 4.27-18.96 3.907-5.547 9.735-9.236 16.415-10.39 8.657-1.508 17.343 1.516 23.226 8.071l2.753 3.075-5.594 2.481c-.179.086-.212.235-.219.352a.38.38 0 0 0 .224.382L118.63 72.2a.387.387 0 0 0 .364.018.424.424 0 0 0 .236-.29l2.836-11.563a.386.386 0 0 0-.136-.41.392.392 0 0 0-.433-.059l-4.628 2.021-1.42-1.933c-3.105-4.212-7.156-7.408-11.72-9.41z" fill="#0F143A"/>
    </g>
    <defs>
        <clipPath id="gb53vlm9ba">
            <path fill="#fff" d="M0 0h184v184H0z"/>
        </clipPath>
    </defs>
</svg>
