<?xml version="1.0" encoding="UTF-8"?>
<svg id="Layer_1" data-name="Layer 1" xmlns="http://www.w3.org/2000/svg" viewBox="0 0 48 48">
  <path d="M29.95,21.49c-1.31-.86-2.26-2.23-2.56-3.83-.06-.35-.1-.7-.1-1.06h-4.19v16.81c-.08,1.88-1.63,3.39-3.53,3.39-.59,0-1.15-.15-1.64-.41-1.12-.59-1.89-1.77-1.89-3.12,0-1.94,1.58-3.53,3.53-3.53.36,0,.71.06,1.04.16v-4.28c-.34-.05-.69-.08-1.04-.08-4.26,0-7.72,3.46-7.72,7.72,0,2.61,1.31,4.92,3.3,6.32,1.25.88,2.78,1.4,4.42,1.4,4.26,0,7.72-3.46,7.72-7.72v-8.52c1.65,1.18,3.66,1.88,5.84,1.88v-4.19c-1.17,0-2.26-.35-3.18-.95Z" fill="#1d1e1e" stroke-width="0"/>
</svg>