<?xml version="1.0" encoding="UTF-8"?>
<svg id="Layer_1" data-name="Layer 1" xmlns="http://www.w3.org/2000/svg" viewBox="0 0 48 48">
  <path d="M8.46.59h31.09c.73,0,1.45.14,2.12.42.67.28,1.29.69,1.8,1.2.52.52.92,1.13,1.2,1.8.28.67.42,1.4.42,2.12v20c0,1.47-.58,2.88-1.63,3.93-1.04,1.04-2.45,1.63-3.93,1.63h-2.48l1.35,7.42c.04.21,0,.44-.07.64-.09.2-.23.37-.41.49-.18.12-.4.18-.61.18s-.43-.07-.61-.19l-12.81-8.54h-15.43c-1.47,0-2.88-.58-3.92-1.63-1.04-1.04-1.63-2.45-1.63-3.92V6.14c0-1.47.58-2.88,1.63-3.93,1.04-1.04,2.45-1.63,3.93-1.63h0Z" fill="#fff" stroke-width="0"/>
  <path d="M37.32,41h0c-.33,0-.66-.1-.94-.28l-12.66-8.45h-15.26c-1.64,0-3.18-.64-4.34-1.8s-1.8-2.7-1.8-4.34V6.14c0-1.64.64-3.18,1.8-4.34S6.84,0,8.46,0h31.09c.81,0,1.6.16,2.35.47.75.31,1.42.76,1.99,1.33.57.57,1.02,1.24,1.33,1.99s.47,1.54.47,2.35v19.99c0,1.64-.64,3.18-1.8,4.34-1.16,1.16-2.7,1.8-4.34,1.8h-1.77l1.22,6.72c.06.33.02.67-.11.97-.13.31-.35.57-.63.75-.28.18-.6.28-.93.28h-.01ZM8.46,1.18c-1.31,0-2.58.53-3.51,1.45-.94.94-1.45,2.18-1.45,3.51v19.99c0,1.32.52,2.57,1.45,3.51.94.94,2.18,1.45,3.51,1.45h15.44c.12,0,.23.03.33.1l12.81,8.54c.08.06.18.09.28.09h0c.1,0,.2-.03.29-.08.09-.06.15-.14.19-.23.04-.09.05-.2.03-.3l-1.35-7.42c-.03-.17,0-.35.13-.48.11-.13.28-.21.45-.21h2.48c1.33,0,2.57-.52,3.51-1.45.94-.93,1.45-2.18,1.45-3.51V6.14c0-.65-.13-1.29-.38-1.9s-.61-1.15-1.08-1.61c-.46-.46-1-.82-1.61-1.08-.6-.25-1.24-.38-1.9-.38H8.46Z" fill="#1d1e1e" stroke-width="0"/>
  <rect x="26.72" y="18.83" width="4.88" height="4.88" rx="2.41" ry="2.41" fill="#009cde" stroke-width="0"/>
  <path d="M29.42,24.19h-.53c-1.47,0-2.66-1.19-2.66-2.66v-.53c0-1.47,1.19-2.66,2.66-2.66h.53c1.47,0,2.66,1.19,2.66,2.66v.53c0,1.47-1.19,2.66-2.66,2.66ZM28.89,19.31c-.93,0-1.69.76-1.69,1.69v.53c0,.93.76,1.69,1.69,1.69h.53c.93,0,1.69-.76,1.69-1.69v-.53c0-.93-.76-1.69-1.69-1.69h-.53Z" fill="#1d1e1e" stroke-width="0"/>
  <path d="M27.71,27.76l-.05-.97h.16c.22-.02.43-.05.63-.08.19-.03.37-.07.54-.12.16-.05.32-.1.46-.16.14-.06.27-.12.39-.2.11-.07.22-.14.33-.22.09-.07.19-.15.27-.23.08-.08.15-.16.22-.24.06-.08.12-.16.18-.25.05-.08.1-.16.14-.25.04-.08.08-.16.11-.24.03-.07.05-.15.08-.22.02-.06.04-.13.05-.19.01-.05.02-.11.03-.16,0-.04.01-.08.02-.12,0-.03,0-.07,0-.1v-1.74h.97v1.74c0,.07,0,.15-.01.22,0,.06-.02.11-.03.17-.01.07-.03.14-.04.22-.02.09-.04.17-.07.26-.03.1-.07.2-.1.29-.04.11-.09.21-.14.31-.06.11-.12.22-.19.33-.07.12-.15.23-.24.33-.09.11-.19.22-.3.33-.11.11-.23.22-.36.31-.13.1-.28.2-.43.29-.16.09-.32.18-.5.25-.18.08-.37.15-.57.2-.21.06-.42.11-.64.15-.23.04-.47.07-.72.09-.06,0-.12,0-.18.01Z" fill="#1d1e1e" stroke-width="0"/>
  <rect x="26.72" y="18.84" width="5.04" height="5.04" rx="2.49" ry="2.49" fill="#009cde" stroke-width="0"/>
  <path d="M30.35,24.37h-2.23c-1.04,0-1.89-.85-1.89-1.89v-2.23c0-1.04.85-1.89,1.89-1.89h2.23c1.04,0,1.89.85,1.89,1.89v2.23c0,1.04-.85,1.89-1.89,1.89ZM28.12,19.33c-.51,0-.92.41-.92.92v2.23c0,.51.41.92.92.92h2.23c.51,0,.92-.41.92-.92v-2.23c0-.51-.41-.92-.92-.92h-2.23Z" fill="#1d1e1e" stroke-width="0"/>
  <rect x="34.47" y="18.83" width="4.88" height="4.88" rx="2.41" ry="2.41" fill="#009cde" stroke-width="0"/>
  <path d="M37.18,24.19h-.53c-1.47,0-2.66-1.19-2.66-2.66v-.53c0-1.47,1.19-2.66,2.66-2.66h.53c1.47,0,2.66,1.19,2.66,2.66v.53c0,1.47-1.19,2.66-2.66,2.66ZM36.65,19.32c-.93,0-1.69.76-1.69,1.69v.53c0,.93.76,1.69,1.69,1.69h.53c.93,0,1.69-.76,1.69-1.69v-.53c0-.93-.76-1.69-1.69-1.69h-.53Z" fill="#1d1e1e" stroke-width="0"/>
  <path d="M35.47,27.76l-.05-.97h.16c.22-.02.43-.05.63-.08.19-.03.37-.07.54-.12.16-.05.32-.1.46-.16.14-.06.27-.12.39-.2.11-.07.22-.14.33-.22.09-.07.19-.15.27-.23.08-.08.15-.16.22-.24.06-.08.12-.16.18-.25.05-.08.1-.16.14-.25.04-.08.08-.16.11-.24.03-.07.06-.15.08-.22.02-.06.04-.13.05-.19.01-.05.02-.11.03-.16,0-.04.01-.08.02-.12,0-.03,0-.07,0-.1v-1.74h.97v1.74c0,.07,0,.15-.01.22,0,.06-.02.11-.02.17-.01.07-.03.14-.04.22-.02.09-.04.17-.07.26-.03.1-.07.2-.1.29-.04.11-.09.21-.14.31-.06.11-.12.22-.19.33-.07.12-.15.23-.24.33-.09.11-.19.23-.3.33-.11.11-.23.22-.36.31-.13.1-.28.2-.43.29-.16.09-.32.18-.5.25-.18.08-.37.15-.57.2-.2.06-.42.11-.64.15-.23.04-.47.07-.72.09-.06,0-.12,0-.18.01Z" fill="#1d1e1e" stroke-width="0"/>
  <rect x="34.47" y="18.85" width="5.04" height="5.04" rx="2.49" ry="2.49" fill="#009cde" stroke-width="0"/>
  <path d="M38.11,24.37h-2.23c-1.04,0-1.89-.85-1.89-1.89v-2.23c0-1.04.85-1.89,1.89-1.89h2.23c1.04,0,1.89.85,1.89,1.89v2.23c0,1.04-.85,1.89-1.89,1.89ZM35.88,19.33c-.51,0-.92.41-.92.92v2.23c0,.51.41.92.92.92h2.23c.51,0,.92-.41.92-.92v-2.23c0-.51-.41-.92-.92-.92h-2.23Z" fill="#1d1e1e" stroke-width="0"/>
  <rect x="16.34" y="6.16" width="4.88" height="4.88" rx="2.41" ry="2.41" transform="translate(37.56 17.2) rotate(-180)" fill="#009cde" stroke-width="0"/>
  <path d="M19.04,11.52h-.53c-1.47,0-2.66-1.19-2.66-2.66v-.53c0-1.47,1.19-2.66,2.66-2.66h.53c1.47,0,2.66,1.19,2.66,2.66v.53c0,1.47-1.19,2.66-2.66,2.66ZM18.51,6.65c-.93,0-1.69.76-1.69,1.69v.53c0,.93.76,1.69,1.69,1.69h.53c.93,0,1.69-.76,1.69-1.69v-.53c0-.93-.76-1.69-1.69-1.69h-.53Z" fill="#1d1e1e" stroke-width="0"/>
  <path d="M20.22,15.09c-.06,0-.12,0-.18-.01-.25-.02-.49-.05-.72-.09-.22-.04-.44-.09-.64-.15-.2-.06-.39-.13-.57-.2-.17-.07-.34-.16-.5-.25-.15-.09-.29-.18-.43-.29-.13-.1-.25-.2-.36-.31-.11-.1-.21-.21-.3-.33-.09-.11-.17-.22-.24-.33-.07-.11-.13-.22-.19-.33-.05-.1-.1-.21-.14-.31-.04-.1-.07-.19-.1-.29-.03-.08-.05-.17-.07-.26-.02-.07-.03-.14-.04-.22,0-.06-.02-.11-.02-.17,0-.07-.01-.14-.01-.22v-1.74h.97v1.74s0,.07,0,.1c0,.04.01.08.02.12,0,.05.02.11.03.16.02.06.03.13.05.19.02.07.05.15.08.22.03.08.07.16.11.24.04.08.09.17.14.25.05.09.11.17.18.25.07.09.14.17.22.24.09.08.18.16.27.23.1.08.21.15.33.22.12.07.25.14.39.2.14.06.3.12.46.16.17.05.35.09.54.12.2.03.41.06.63.08h.16s-.05.98-.05.98Z" fill="#1d1e1e" stroke-width="0"/>
  <rect x="16.18" y="6.17" width="5.04" height="5.04" rx="2.49" ry="2.49" transform="translate(37.39 17.39) rotate(-180)" fill="#71c5e8" stroke-width="0"/>
  <path d="M19.81,11.7h-2.23c-1.04,0-1.89-.85-1.89-1.89v-2.23c0-1.04.85-1.89,1.89-1.89h2.23c1.04,0,1.89.85,1.89,1.89v2.23c0,1.04-.85,1.89-1.89,1.89ZM17.58,6.66c-.51,0-.92.41-.92.92v2.23c0,.51.41.92.92.92h2.23c.51,0,.92-.41.92-.92v-2.23c0-.51-.41-.92-.92-.92h-2.23Z" fill="#1d1e1e" stroke-width="0"/>
  <rect x="8.58" y="6.17" width="4.88" height="4.88" rx="2.41" ry="2.41" transform="translate(22.04 17.21) rotate(-180)" fill="#009cde" stroke-width="0"/>
  <path d="M11.29,11.53h-.53c-1.47,0-2.66-1.19-2.66-2.66v-.53c0-1.47,1.19-2.66,2.66-2.66h.53c1.47,0,2.66,1.19,2.66,2.66v.53c0,1.47-1.19,2.66-2.66,2.66ZM10.76,6.65c-.93,0-1.69.76-1.69,1.69v.53c0,.93.76,1.69,1.69,1.69h.53c.93,0,1.69-.76,1.69-1.69v-.53c0-.93-.76-1.69-1.69-1.69h-.53Z" fill="#1d1e1e" stroke-width="0"/>
  <path d="M12.46,15.09c-.06,0-.12,0-.18-.01-.25-.02-.49-.05-.72-.09-.22-.04-.44-.09-.64-.15-.2-.06-.39-.13-.57-.2-.17-.07-.34-.16-.5-.25-.15-.09-.29-.18-.43-.29-.13-.1-.25-.2-.36-.31-.1-.1-.2-.21-.3-.33-.09-.11-.17-.22-.24-.33-.07-.11-.13-.22-.19-.33-.05-.1-.1-.21-.14-.31-.04-.1-.07-.19-.1-.29-.03-.09-.05-.17-.07-.26-.02-.07-.03-.14-.04-.22,0-.05-.02-.11-.02-.17,0-.07-.01-.14-.01-.22v-1.74h.97v1.74s0,.07,0,.1c0,.04.01.08.02.12,0,.05.02.11.03.16.02.07.03.13.05.19.02.07.05.15.08.22.03.08.07.16.11.24.04.08.09.17.14.25.05.09.11.17.18.25.07.09.14.17.22.24.08.08.18.16.27.23.1.08.21.15.33.22.12.07.25.14.39.2.14.06.3.12.46.16.17.05.35.09.54.12.2.03.41.06.63.08h.16s-.05.98-.05.98Z" fill="#1d1e1e" stroke-width="0"/>
  <rect x="8.42" y="6.18" width="5.04" height="5.04" rx="2.49" ry="2.49" transform="translate(21.88 17.4) rotate(-180)" fill="#71c5e8" stroke-width="0"/>
  <path d="M12.06,11.7h-2.23c-1.04,0-1.89-.85-1.89-1.89v-2.23c0-1.04.85-1.89,1.89-1.89h2.23c1.04,0,1.89.85,1.89,1.89v2.23c0,1.04-.85,1.89-1.89,1.89ZM9.82,6.66c-.51,0-.92.41-.92.92v2.23c0,.51.41.92.92.92h2.23c.51,0,.92-.41.92-.92v-2.23c0-.51-.41-.92-.92-.92h-2.23Z" fill="#1d1e1e" stroke-width="0"/>
  <path d="M37.32,40.99h0c-.33,0-.66-.1-.94-.28l-12.66-8.45h-15.26c-1.64,0-3.18-.64-4.34-1.8s-1.8-2.7-1.8-4.34V6.14c0-1.64.64-3.18,1.8-4.34s2.72-1.8,4.34-1.8h31.09c.81,0,1.6.16,2.35.47.75.31,1.42.76,1.99,1.33.57.57,1.02,1.24,1.33,1.99s.47,1.54.47,2.35v19.99c0,1.64-.64,3.18-1.8,4.34-1.16,1.16-2.7,1.8-4.34,1.8h-1.77l1.22,6.72c.06.33.02.67-.11.97-.13.31-.35.57-.63.75-.28.18-.6.28-.93.28h-.01ZM8.46,1.18c-1.31,0-2.58.53-3.51,1.45-.94.94-1.45,2.18-1.45,3.51v19.99c0,1.32.52,2.57,1.45,3.51.94.94,2.18,1.45,3.51,1.45h15.44c.12,0,.23.03.33.1l12.81,8.54c.08.06.18.09.28.09h0c.1,0,.2-.03.29-.08.09-.06.15-.14.19-.23.04-.09.05-.2.03-.3l-1.35-7.42c-.03-.17,0-.35.13-.48.11-.13.28-.21.45-.21h2.48c1.33,0,2.57-.52,3.51-1.45s1.45-2.18,1.45-3.51V6.14c0-.65-.13-1.29-.38-1.9-.25-.61-.61-1.15-1.08-1.61-.46-.46-1-.82-1.61-1.08-.6-.25-1.24-.38-1.9-.38H8.46Z" fill="#1d1e1e" stroke-width="0"/>
  <path d="M3.62,27.95c.26.63.63,1.18,1.11,1.66.47.47,1.7,1.15,2.33,1.42.62.26.6.08,1.28.08l15.24.31,13.73,8.99,1.09-1.31-1.14-7.59h2.46c1.35,0,3.25-.96,4.2-1.91.97-.97,1.14-.9,1.14-2.27l.35-3.46c0,1.37-.52,2.64-1.49,3.61-.96.95-2.26,1.49-3.61,1.49H8.34c-.68.01-1.34-.12-1.95-.38-.63-.27-1.18-.64-1.66-1.11-.48-.47-.85-1.03-1.11-1.66-.26-.63-.39-1.29-.39-1.95v2.12c0,.67.13,1.33.39,1.95Z" fill="#e6f1fa" stroke-width="0"/>
  <path d="M37.31,41h0c-.33,0-.66-.1-.94-.28l-12.66-8.45h-15.26c-1.64,0-3.18-.64-4.34-1.8s-1.8-2.7-1.8-4.34V6.14c0-1.64.64-3.18,1.8-4.34S6.83,0,8.45,0h31.09c.81,0,1.6.16,2.35.47.75.31,1.42.76,1.99,1.33s1.02,1.24,1.33,1.99.47,1.54.47,2.35v19.99c0,1.64-.64,3.18-1.8,4.34-1.16,1.16-2.7,1.8-4.34,1.8h-1.77l1.22,6.72c.06.33.02.67-.11.97-.13.31-.35.57-.63.75-.28.18-.6.28-.93.28h-.01ZM8.45,1.18c-1.31,0-2.58.53-3.51,1.45-.94.94-1.45,2.18-1.45,3.51v19.99c0,1.32.52,2.57,1.45,3.51.94.94,2.18,1.45,3.51,1.45h15.44c.12,0,.23.03.33.1l12.81,8.54c.08.06.18.09.28.09h0c.1,0,.2-.03.29-.08.09-.06.15-.14.19-.23.04-.09.05-.2.03-.3l-1.35-7.42c-.03-.17,0-.35.13-.48.11-.13.28-.21.45-.21h2.48c1.33,0,2.57-.52,3.51-1.45.94-.93,1.45-2.18,1.45-3.51V6.14c0-.65-.13-1.29-.38-1.9s-.61-1.15-1.08-1.61c-.46-.46-1-.82-1.61-1.08-.6-.25-1.24-.38-1.9-.38H8.45Z" fill="#1d1e1e" stroke-width="0"/>
</svg>