<svg width="32" height="32" viewBox="0 0 32 32" fill="none" xmlns="http://www.w3.org/2000/svg">
    <g clip-path="url(#hvd30umxsa)">
        <circle cx="16" cy="16" r="16" fill="#fff"/>
        <path fill-rule="evenodd" clip-rule="evenodd" d="M20.61 24.419a.33.33 0 0 1-.33.33h-8.56a.33.33 0 0 1-.33-.33V7.998a.33.33 0 0 1 .33-.33h8.56a.33.33 0 0 1 .33.33v16.42zm-.33-18.77h-8.56a2.31 2.31 0 0 0-2.31 2.3v16.47a2.31 2.31 0 0 0 2.31 2.31h8.56a2.31 2.31 0 0 0 2.31-2.31V7.998a2.31 2.31 0 0 0-2.31-2.35z" fill="#1E1E1E"/>
        <path fill-rule="evenodd" clip-rule="evenodd" d="M14.82 17.37h2.36V15h-2.36v2.37zm1.18-4.1a2.92 2.92 0 1 0 0 5.84 2.92 2.92 0 0 0 0-5.84zM14.129 23.34h3.74v-1.41h-3.74v1.41z" fill="#1E1E1E"/>
        <path d="M16 0a16 16 0 1 0 0 32 16 16 0 0 0 0-32zm14.12 16a14.12 14.12 0 0 1-3.07 8.78L7.23 5a14.1 14.1 0 0 1 22.89 11zM1.88 16a14.07 14.07 0 0 1 4-9.78l19.95 20a14.11 14.11 0 0 1-23.9-10.17L1.88 16z" fill="#AB2334"/>
        <path d="M16 0a16 16 0 1 0 0 32 16 16 0 0 0 0-32zm0 30.12A14.11 14.11 0 0 1 5.83 6.22l19.95 20a14.07 14.07 0 0 1-9.78 3.9zm11-5.34L7.23 5a14.11 14.11 0 0 1 19.82 19.83l-.05-.05z" fill="#AB2334"/>
    </g>
    <defs>
        <clipPath id="hvd30umxsa">
            <path fill="#fff" d="M0 0h32v32H0z"/>
        </clipPath>
    </defs>
</svg>
