<?xml version="1.0" encoding="UTF-8"?>
<svg id="Layer_1" data-name="Layer 1" xmlns="http://www.w3.org/2000/svg" viewBox="0 0 48 48">
  <path d="M14.65,13.16c-.41,0-.81-.16-1.12-.47l-3.83-3.87v1.36c-.02.85-.72,1.55-1.57,1.55h0c-.42,0-.81-.16-1.11-.46-.3-.3-.46-.69-.47-1.11l.03-5.16c0-.1.01-.2.03-.3,0-.02.02-.07.03-.09,0-.05.03-.13.06-.2,0-.02.03-.07.05-.09.11-.25.31-.47.55-.63.06-.04.13-.07.19-.1.01,0,.04-.02.08-.04.08-.03.16-.05.24-.07,0,0,.02,0,.05-.01.1-.02.22-.03.31-.03l5.15.03s.04,0,.06,0c.82.04,1.48.73,1.49,1.56,0,.42-.16.82-.46,1.11-.3.3-.69.46-1.11.47h-1.36s3.83,3.86,3.83,3.86c.3.3.46.69.46,1.12,0,.42-.17.81-.47,1.11-.31.3-.71.45-1.11.45ZM9.23,7.18c.13,0,.25.05.34.14l4.64,4.69c.24.24.62.24.86,0,.12-.11.18-.27.18-.43,0-.16-.06-.32-.18-.43l-4.65-4.69c-.14-.14-.18-.35-.1-.53.08-.18.25-.29.44-.29h2.52c.16.01.31-.05.43-.17.11-.12.18-.27.18-.43,0-.33-.27-.6-.6-.61-.01,0-.03,0-.04,0l-5.11-.03s-.08,0-.12.01c.02,0,0,0-.02,0-.05,0-.07.02-.1.03,0,0-.03.02-.04.02-.03.01-.05.03-.08.04-.08.05-.15.13-.19.22,0,.01-.03.05-.03.07,0,0,0,.03-.02.06,0,.01,0,.04-.02.06,0,.03,0,.07,0,.1l-.03,5.16c0,.16.07.31.18.43.12.11.28.19.43.18.33,0,.6-.27.61-.6v-2.51c.01-.19.13-.37.31-.44.06-.02.12-.04.18-.04Z" fill="#1d1e1e" stroke-width="0"/>
  <path d="M33.58,13.16c-.42,0-.81-.16-1.11-.46-.3-.3-.46-.69-.47-1.11,0-.42.16-.82.45-1.12l3.83-3.87h-1.36c-.87,0-1.57-.71-1.57-1.57,0-.83.67-1.52,1.49-1.56.02,0,.04,0,.06,0l5.16-.03c.11,0,.21,0,.31.03.02,0,.06.02.08.02.05,0,.13.03.21.06.02,0,.07.03.09.04.05.02.11.06.17.09.25.16.44.38.56.65,0,.01.02.04.04.07.03.07.05.14.07.21,0,.03.02.06.02.08.02.1.03.2.03.3l.03,5.15c0,.43-.17.82-.47,1.12-.3.29-.69.46-1.11.46h0c-.85,0-1.55-.7-1.57-1.55v-1.36s-3.83,3.87-3.83,3.87c-.3.3-.69.46-1.11.47,0,0,0,0,0,0ZM37.45,5.64c.19,0,.37.12.44.29.08.18.04.39-.1.53l-4.65,4.69c-.24.24-.23.63,0,.86.24.24.63.23.86,0l4.64-4.69c.14-.14.34-.18.52-.11.18.07.3.25.3.44v2.52c.02.32.29.59.62.6.17.02.32-.06.43-.18.12-.11.18-.27.18-.43l-.03-5.15s0-.07,0-.1v-.02c-.02-.06-.03-.09-.04-.12,0,0,0-.01-.02-.03-.05-.1-.11-.18-.2-.23-.02-.01-.05-.03-.07-.04-.01,0-.05-.02-.06-.03,0,0-.03,0-.06-.01-.02,0-.05-.01-.07-.02,0,0-.04,0-.08,0h0l-5.11.03s-.03,0-.04,0c-.33,0-.6.28-.6.61,0,.34.27.61.61.61h2.51s0-.01,0-.01Z" fill="#1d1e1e" stroke-width="0"/>
  <path d="M13.31,37.05c.59,0,1.07-.49,1.07-1.09,0-.6-.48-1.09-1.09-1.1h-2.52s4.65-4.68,4.65-4.68c.42-.43.42-1.12,0-1.54s-1.12-.42-1.54,0l-4.64,4.69v-2.52c-.02-.59-.51-1.07-1.1-1.07-.6,0-1.09.48-1.1,1.09l.03,5.16c0,.07,0,.14.02.21,0,.02,0,.03.01.05.01.05.03.11.05.16,0,.02.02.04.03.06.08.18.21.33.38.43.04.03.09.05.13.07.02,0,.04.02.06.03.05.02.11.04.16.05.02,0,.03,0,.04.01.07.01.14.02.21.02l5.16-.03h0Z" fill="#fff" stroke-width="0"/>
  <path d="M8.15,37.56c-.1,0-.2,0-.3-.03-.02,0-.06-.02-.08-.02-.05,0-.13-.03-.2-.06-.02,0-.08-.03-.09-.05-.05-.02-.11-.05-.17-.09-.25-.16-.45-.38-.57-.65,0-.01-.02-.04-.04-.07-.03-.08-.06-.16-.07-.24,0,0,0,0,0,0,0,0,0-.03-.02-.05-.02-.11-.03-.21-.03-.31l-.03-5.15c0-.43.17-.82.47-1.12.3-.3.7-.46,1.11-.46.85,0,1.55.7,1.57,1.55v1.36s3.83-3.87,3.83-3.87c.61-.62,1.61-.62,2.23-.01.3.3.46.69.47,1.11,0,.42-.16.82-.46,1.12l-3.83,3.87h1.36c.43,0,.82.16,1.12.46.3.3.46.69.46,1.12,0,.83-.67,1.52-1.49,1.56-.02,0-.04,0-.06,0l-5.16.03h-.02ZM8.05,36.59s.06,0,.1,0l5.11-.03s.03,0,.04,0c.33,0,.6-.28.6-.61,0-.16-.06-.32-.18-.43-.11-.12-.27-.18-.43-.18h-2.51s0,.01,0,.01c-.19,0-.37-.12-.44-.29-.08-.18-.04-.39.1-.53l4.65-4.69c.12-.12.18-.27.18-.43,0-.16-.07-.32-.18-.43-.24-.24-.63-.23-.86,0l-4.64,4.69c-.14.14-.34.18-.52.11-.18-.07-.3-.25-.3-.44v-2.52c-.02-.32-.29-.59-.62-.6h0c-.34,0-.61.27-.61.61l.03,5.15s0,.07,0,.1v.03s.03.08.04.1c0,0,.02.04.02.04.04.09.11.17.19.22.02.01.05.03.07.04.01,0,.05.03.06.03h0s.03,0,.06.02c.01,0,.03,0,.05.01ZM8.03,36.58s0,0,.01,0c0,0,0,0-.01,0Z" fill="#1d1e1e" stroke-width="0"/>
  <path d="M34.92,37.05l5.16.03c.07,0,.14,0,.21-.02.01,0,.03,0,.04-.01.05-.01.11-.03.16-.05.02,0,.04-.02.06-.03.05-.02.09-.04.13-.07.17-.1.3-.25.38-.43,0-.02.02-.04.03-.06.02-.05.04-.1.05-.16,0-.02.01-.03.01-.05.01-.07.02-.14.02-.21l.03-5.16c0-.6-.49-1.09-1.1-1.09-.59,0-1.08.48-1.09,1.07v2.52s-4.66-4.69-4.66-4.69c-.42-.43-1.12-.43-1.54,0s-.43,1.12,0,1.54l4.65,4.69h-2.52c-.6-.01-1.09.48-1.09,1.08,0,.59.48,1.08,1.07,1.09h0Z" fill="#fff" stroke-width="0"/>
  <path d="M40.09,37.56h-.02l-5.15-.03s-.04,0-.06,0c-.82-.04-1.48-.73-1.49-1.56,0-.87.7-1.58,1.57-1.58h1.36s-3.83-3.86-3.83-3.86c-.61-.62-.6-1.61.01-2.23.62-.61,1.61-.6,2.22.01l3.83,3.87v-1.36c.02-.85.72-1.55,1.57-1.55h0c.42,0,.81.16,1.11.46.3.3.46.69.47,1.11l-.03,5.16c0,.1-.01.2-.03.31,0,.02-.01.05-.02.08-.02.07-.04.14-.07.21,0,.02-.03.07-.05.09-.11.25-.3.47-.55.63-.06.04-.13.07-.19.1-.01,0-.04.02-.08.04-.08.03-.16.05-.24.07,0,0-.03.01-.06.02-.09.02-.19.03-.29.03ZM34.97,36.57l5.11.03s.08,0,.12-.01h.02s.07-.03.1-.04c0,0,0,0,.03-.02.03-.02.06-.03.08-.04.08-.05.15-.13.19-.22,0-.01.03-.05.03-.07h0s0-.03.01-.05c0-.01.01-.04.02-.06,0-.04,0-.07,0-.1l.03-5.16c0-.33-.28-.6-.61-.6h0c-.33,0-.6.27-.61.6v2.51c-.01.19-.13.37-.31.44-.18.07-.39.03-.52-.11l-4.64-4.69c-.24-.24-.62-.24-.86,0-.24.24-.24.62,0,.86l4.65,4.69c.14.14.18.35.1.53-.08.18-.25.29-.44.29h-2.52c-.33-.01-.6.26-.6.6,0,.33.27.6.6.61.01,0,.03,0,.04,0ZM40.68,36.1s0,0,0,0c0,0,0,0,0,0Z" fill="#1d1e1e" stroke-width="0"/>
  <rect x="17.57" y="13.91" width="13.09" height="13.11" rx="1.54" ry="1.54" fill="#71c5e8" stroke-width="0"/>
  <path d="M29.5,27.5h-10.76c-.91,0-1.65-.74-1.65-1.65v-10.78c0-.91.74-1.65,1.65-1.65h10.76c.91,0,1.65.74,1.65,1.65v10.78c0,.91-.74,1.65-1.65,1.65ZM18.74,14.4c-.38,0-.68.31-.68.68v10.78c0,.38.31.68.68.68h10.76c.38,0,.68-.31.68-.68v-10.78c0-.38-.31-.68-.68-.68h-10.76Z" fill="#1d1e1e" stroke-width="0"/>
  <path d="M19.8,17.12h9.47c.79,0,1.42.64,1.42,1.42v7.36c0,.62-.5,1.12-1.12,1.12h-10.87c-.62,0-1.12-.5-1.12-1.12v-6.56c0-1.23,1-2.22,2.22-2.22Z" fill="#009cde" stroke-width="0"/>
  <path d="M29.51,27.5h-10.76c-.91,0-1.65-.74-1.65-1.65v-10.78c0-.91.74-1.65,1.65-1.65h10.76c.91,0,1.65.74,1.65,1.65v10.78c0,.91-.74,1.65-1.65,1.65ZM18.75,14.4c-.38,0-.68.31-.68.68v10.78c0,.38.31.68.68.68h10.76c.38,0,.68-.31.68-.68v-10.78c0-.38-.31-.68-.68-.68h-10.76Z" fill="#1d1e1e" stroke-width="0"/>
</svg>